# Blender 5.0.0
# www.blender.org
o Trunk
v 2.317876 0.008986 3.965305
v 2.035883 3.095551 3.363137
v -1.762357 0.008986 4.854951
v -0.523806 3.095551 3.756243
v -6.249217 0.008986 4.506616
v -2.825700 3.095551 2.569725
v -4.563128 -0.064938 0.344725
v -3.990554 3.095551 0.256792
v -6.703194 0.008986 -4.097965
v -3.573432 3.095551 -2.299094
v -1.160648 0.008986 -4.989604
v -1.733662 3.095551 -4.121671
v 2.151000 0.008986 -7.335605
v 0.826028 3.095551 -4.514778
v 3.119178 -0.006948 -3.881230
v 3.127922 3.095551 -3.328259
v 4.707644 0.008986 -1.362943
v 4.292776 3.095551 -1.015326
v 8.142843 0.008986 4.244957
v 3.875654 3.095551 1.540560
v 2.564985 1.485388 3.441695
v -0.931807 1.465015 3.666712
v -4.109121 1.515307 3.477685
v -4.083498 1.640103 0.379996
v -5.138313 1.631786 -3.198529
v -1.455859 1.426447 -4.334679
v 1.488515 1.508883 -5.925191
v 3.123550 1.544302 -3.604744
v 4.468485 1.584980 -0.996244
v 5.690366 1.623176 2.948046
v -0.450759 3.606314 3.354410
v 1.865892 3.606314 2.998629
v -2.534092 3.606314 2.280550
v -3.588344 3.606314 0.187226
v -3.210828 3.606314 -2.125982
v -1.545741 3.606314 -3.775508
v 0.770910 3.606314 -4.131289
v 2.854243 3.606314 -3.057429
v 3.908495 3.606314 -0.964106
v 3.530978 3.606314 1.349102
v -0.318498 4.504335 2.769737
v 1.648780 4.504335 2.467611
v -2.087645 4.504335 1.857825
v -2.982907 4.504335 0.080194
v -2.662323 4.504335 -1.884161
v -1.248347 4.504335 -3.284923
v 0.718932 4.504335 -3.587049
v 2.488078 4.504335 -2.675137
v 3.383340 4.504335 -0.897506
v 3.062757 4.504335 1.066849
v -0.147963 5.352467 2.505549
v 1.699072 5.352467 2.221890
v -1.808976 5.352467 1.649375
v -2.649518 5.352467 -0.019604
v -2.348529 5.352467 -1.863895
v -1.020977 5.352467 -3.179040
v 0.826058 5.352467 -3.462699
v 2.487071 5.352467 -2.606525
v 3.327613 5.352467 -0.937546
v 3.026624 5.352467 0.906745
v -0.035566 5.976093 2.129152
v 1.595806 5.976093 1.878612
v -1.502638 5.976093 1.372945
v -2.245037 5.976093 -0.101162
v -1.979192 5.976093 -1.730110
v -0.806646 5.976093 -2.891697
v 0.824726 5.976093 -3.142237
v 2.291797 5.976093 -2.386030
v 3.034196 5.976093 -0.911923
v 2.768352 5.976093 0.717025
v -0.334923 6.824224 2.089618
v 1.168117 6.824224 1.858788
v -1.686586 6.824224 1.392899
v -2.370584 6.824224 0.034754
v -2.125651 6.824224 -1.466052
v -1.045345 6.824224 -2.536263
v 0.457695 6.824224 -2.767093
v 1.809357 6.824224 -2.070374
v 2.493355 6.824224 -0.712228
v 2.248423 6.824224 0.788577
v -0.334923 7.547631 2.089618
v 1.168117 7.547631 1.858788
v -1.686586 7.547631 1.392899
v -2.370584 7.547631 0.034754
v -2.125651 7.547631 -1.466052
v -1.045345 7.547631 -2.536263
v 0.457695 7.547631 -2.767093
v 1.809357 7.547631 -2.070374
v 2.493355 7.547631 -0.712228
v 2.248423 7.547631 0.788577
v -0.473630 8.445652 2.002630
v 0.923635 8.445652 1.788044
v -1.730173 8.445652 1.354941
v -2.366035 8.445652 0.092373
v -2.138340 8.445652 -1.302817
v -1.134058 8.445652 -2.297713
v 0.263208 8.445652 -2.512299
v 1.519750 8.445652 -1.864610
v 2.155612 8.445652 -0.602042
v 1.927917 8.445652 0.793147
v -0.445451 9.393563 1.829965
v 0.844943 9.393563 1.631792
v -1.605886 9.393563 1.231816
v -2.193114 9.393563 0.065816
v -1.982834 9.393563 -1.222661
v -1.055366 9.393563 -2.141461
v 0.235029 9.393563 -2.339635
v 1.395463 9.393563 -1.741485
v 1.982691 9.393563 -0.575485
v 1.772412 9.393563 0.712992
v -0.201602 10.441256 1.585010
v 1.006419 10.441256 1.399488
v -1.287960 10.441256 1.025044
v -1.837702 10.441256 -0.066523
v -1.640845 10.441256 -1.272749
v -0.772582 10.441256 -2.132897
v 0.435439 10.441256 -2.318420
v 1.521796 10.441256 -1.758454
v 2.071537 10.441256 -0.666887
v 1.874681 10.441256 0.539339
v -0.122498 10.757803 1.529661
v 1.075063 10.757803 1.345745
v -1.199450 10.757803 0.974544
v -1.744431 10.757803 -0.107572
v -1.549279 10.757803 -1.303354
v -0.688535 10.757803 -2.156055
v 0.509027 10.757803 -2.339971
v 1.585978 10.757803 -1.784853
v 2.130960 10.757803 -0.702737
v 1.935808 10.757803 0.493044
v -0.146844 11.500841 1.320853
v 0.934964 11.628113 0.309846
v -1.134985 11.500841 0.942078
v -1.679966 11.500841 -0.140038
v -1.396004 11.500841 -1.159478
v -0.392877 11.628113 -1.430612
v 0.274697 11.053398 -2.502007
v 1.412823 10.868252 -2.277351
v 2.228647 10.868252 -1.208018
v 2.144656 11.053398 -0.050975
v 0.867262 11.262705 -2.529819
v 0.378193 12.012228 -1.809761
v 1.712289 10.928570 -2.377337
v 2.404192 10.928570 -1.470430
v 2.328020 11.262705 -0.615141
v 1.504343 12.012228 -0.333670
v 0.873499 11.490738 -2.640684
v 0.924995 12.312468 -1.837694
v 1.682002 11.097893 -2.686250
v 2.558119 11.097893 -2.013815
v 2.723170 11.490738 -1.221027
v 2.654925 12.312468 -1.349232
v 1.957518 11.861296 -3.651797
v 1.320209 12.695780 -2.544256
v 2.498883 11.393015 -3.560506
v 3.191405 11.393015 -3.028983
v 3.419581 11.861296 -2.529637
v 2.687623 12.695780 -2.158154
v 2.197490 12.019493 -3.721924
v 2.267711 12.746630 -3.440379
v 2.740663 11.628279 -3.802078
v 3.447572 11.628279 -3.430846
v 3.689929 12.019493 -2.938176
v 3.418283 12.746630 -2.836161
v 2.436779 12.286243 -4.108505
v 2.456395 12.928566 -3.746423
v 2.994003 11.958611 -4.251776
v 3.673975 11.958611 -3.894691
v 3.872347 12.286243 -3.354621
v 3.563124 12.928566 -3.165227
v 2.742245 12.735209 -4.462962
v 2.739992 13.251049 -4.111282
v 3.251131 12.483517 -4.633779
v 3.842498 12.483517 -4.323224
v 3.990751 12.735209 -3.807313
v 3.702508 13.251049 -3.605820
v 2.948872 13.174248 -4.813771
v 2.936061 13.646238 -4.451760
v 3.457068 12.951445 -5.005728
v 4.031804 12.951445 -4.703908
v 4.162261 13.174248 -4.176563
v 3.871506 13.646238 -3.960515
v 3.087832 13.608070 -5.078382
v 3.051393 14.020647 -4.671377
v 3.611750 13.427729 -5.300277
v 4.186485 13.427729 -4.998456
v 4.301221 13.608070 -4.441175
v 3.986837 14.020647 -4.180131
v 3.243882 14.144972 -5.250198
v 3.191669 14.446867 -4.841867
v 3.740371 14.031523 -5.485833
v 4.266231 14.031523 -5.209679
v 4.354085 14.144972 -4.667179
v 4.047563 14.446867 -4.392397
v 0.282520 11.916828 -0.569139
v 0.803544 12.300943 -0.966642
v 1.618847 12.601183 -0.987451
v 2.080884 12.984495 -2.623795
v 2.762456 13.035345 -2.984902
v 2.929219 13.217281 -3.302457
v 3.140709 13.539764 -3.705184
v 3.323243 13.934954 -4.052770
v 3.438574 14.309362 -4.272387
v 3.539076 14.735582 -4.463765
v -0.485713 11.845652 1.120871
v 0.184172 12.157530 0.612778
v -1.317061 11.715891 0.916335
v -1.767683 11.715891 0.021580
v -1.437073 11.845652 -0.768149
v -0.630020 12.157530 -1.003881
v 0.062650 12.287634 -0.339374
v -0.812922 12.206547 1.285662
v -0.151047 12.518425 0.781603
v -1.652280 12.076786 1.085159
v -2.102901 12.076786 0.190405
v -1.764281 12.206547 -0.603358
v -0.965238 12.518425 -0.835056
v -0.272568 12.648529 -0.170549
v -1.059829 12.561377 1.410011
v -0.381672 12.788311 0.897752
v -1.913758 12.485355 1.216846
v -2.364380 12.485355 0.322092
v -2.011189 12.561377 -0.479009
v -1.195863 12.788311 -0.718907
v -0.497228 12.906118 -0.057405
v -1.230635 12.937895 1.496033
v -0.538559 13.053991 0.976764
v -2.093112 12.931154 1.307174
v -2.543733 12.931154 0.412419
v -2.181995 12.937895 -0.392986
v -1.352751 13.053991 -0.639894
v -0.648036 13.155342 0.018546
v -1.338157 13.389664 1.458282
v -0.708216 13.496750 0.983557
v -2.142112 13.383446 1.288321
v -2.557759 13.383446 0.463013
v -2.215677 13.389664 -0.284122
v -1.459214 13.496750 -0.507626
v -0.795987 13.594267 0.093058
v -1.444711 13.812349 1.424619
v -0.873920 13.910873 0.992274
v -2.193166 13.806629 1.272670
v -2.575579 13.806629 0.513351
v -2.252067 13.812349 -0.178468
v -1.564871 13.910873 -0.379678
v -0.941065 14.004749 0.166124
v -1.470967 14.270084 1.379156
v -0.936261 14.335371 0.973446
v -2.180913 14.281733 1.238702
v -2.540992 14.281733 0.523730
v -2.231171 14.270084 -0.130305
v -1.586858 14.335371 -0.318380
v -0.988336 14.422647 0.189931
v -1.502095 14.744423 1.312293
v -1.019967 14.770376 0.944963
v -2.156980 14.775803 1.187553
v -2.485646 14.775803 0.534953
v -2.195981 14.744423 -0.065488
v -1.613808 14.770376 -0.234168
v -1.051371 14.849443 0.221677
v -1.500777 15.236738 1.257628
v -1.053843 15.261068 0.915808
v -2.119760 15.266155 1.143229
v -2.427875 15.266155 0.531436
v -2.151275 15.236738 -0.034001
v -1.610552 15.261068 -0.189592
v -1.072642 15.338440 0.232389
v -1.501812 15.671623 1.192875
v -1.097482 15.693993 0.881923
v -2.077461 15.698669 1.091009
v -2.360735 15.698669 0.528540
v -2.099864 15.671623 0.005382
v -1.609307 15.693993 -0.134356
v -1.101044 15.769316 0.246694
v 0.928918 12.962078 -1.851587
v 2.658848 12.962078 -1.363125
v 1.324131 13.128853 -2.558149
v 2.691546 13.128853 -2.172047
v 1.622770 13.034256 -1.001344
v 2.084807 13.215467 -2.637687
v 1.053280 13.513161 -1.930476
v 2.594112 13.513161 -1.495407
v 1.409519 13.516447 -2.574770
v 2.627461 13.516447 -2.230873
v 1.677994 13.689819 -1.196924
v 2.089871 13.540844 -2.655623
v 1.140835 13.919832 -2.033592
v 2.573420 13.919832 -1.629088
v 1.472047 13.922888 -2.632623
v 2.604426 13.922888 -2.312886
v 1.721661 14.084080 -1.351574
v 2.104603 13.945572 -2.707798
v 1.281949 14.349754 -2.208849
v 2.544808 14.349754 -1.852269
v 1.570979 14.237452 -2.726491
v 2.569199 14.237452 -2.444634
v 1.803967 14.577719 -1.643067
v 2.128525 14.214941 -2.792520
v 1.424875 14.708675 -2.456652
v 2.552595 14.708675 -2.138229
v 1.678332 14.543253 -2.902456
v 2.569733 14.543253 -2.650760
v 1.898921 14.956627 -1.979358
v 2.175086 14.498720 -2.957419
v 1.553053 15.028717 -2.735805
v 2.589349 15.028717 -2.443197
v 1.776891 14.799494 -3.113339
v 2.596025 14.799494 -2.882049
v 2.000686 15.305889 -2.339767
v 2.230726 14.729187 -3.154472
v 1.635430 15.288561 -3.027549
v 2.671726 15.288561 -2.734941
v 1.859268 15.059338 -3.405084
v 2.678402 15.059338 -3.173793
v 2.083063 15.565733 -2.631512
v 2.313103 14.989031 -3.446217
v 2.270800 6.865212 0.651468
v 2.473901 6.876663 -0.593023
v 2.355527 7.595223 0.028466
v 2.630864 6.509580 -0.399455
v 2.655467 6.342302 0.064026
v 2.490636 6.497655 0.503574
v 2.299026 7.396406 0.478511
v 2.444788 7.408998 -0.414636
v 3.580251 7.317088 -0.409379
v 3.688567 6.935980 -0.229256
v 3.695335 6.778119 0.176274
v 3.596591 6.935980 0.569656
v 3.450179 7.317088 0.720454
v 3.341864 7.698196 0.540331
v 3.335095 7.856056 0.134801
v 3.433839 7.698196 -0.258582
v 4.282888 7.241684 -0.135724
v 4.181293 7.599148 -0.304672
v 4.289237 7.093617 0.244647
v 4.196620 7.241684 0.613624
v 4.059290 7.599148 0.755066
v 3.957695 7.956613 0.586118
v 3.951346 8.104679 0.205747
v 4.043964 7.956613 -0.163230
v 4.740956 7.514478 -0.067683
v 4.643456 7.857531 -0.229821
v 4.747048 7.372381 0.297353
v 4.658165 7.514478 0.651455
v 4.526372 7.857531 0.787194
v 4.428873 8.200584 0.625057
v 4.422780 8.342682 0.260021
v 4.511664 8.200584 -0.094081
v 4.960219 7.595632 0.000697
v 4.975939 7.914721 -0.130537
v 4.923475 7.463461 0.317664
v 4.887230 7.595632 0.634688
v 4.872718 7.914721 0.766062
v 4.888438 8.233810 0.634827
v 4.925182 8.365980 0.317860
v 4.961426 8.233810 0.000836
v 6.224529 7.936027 0.177113
v 6.184999 8.031941 0.407748
v 6.171085 7.936027 0.641332
v 6.190940 7.704467 0.741033
v 6.232931 7.472908 0.648451
v 6.272461 7.376993 0.417817
v 6.266521 7.704467 0.084531
v 6.286374 7.472908 0.184234
v 5.997848 7.999422 0.121366
v 5.980095 8.107691 0.384158
v 5.937667 7.999422 0.644109
v 5.895419 7.738038 0.748943
v 5.878098 7.476654 0.637251
v 5.895852 7.368385 0.374459
v 5.980527 7.738038 0.009674
v 5.938279 7.476654 0.114509
v 5.616409 8.057814 0.021091
v 5.580165 8.189985 0.338116
v 5.543420 8.057814 0.655083
v 5.527700 7.738726 0.786317
v 5.542213 7.419637 0.654944
v 5.578457 7.287466 0.337919
v 5.630921 7.738726 -0.110282
v 5.615201 7.419637 0.020952
v 5.285364 7.514403 -0.012941
v 5.301085 7.833492 -0.144175
v 5.248620 7.382232 0.304027
v 5.212376 7.514403 0.621051
v 5.197863 7.833492 0.752424
v 5.213583 8.152580 0.621190
v 5.250328 8.284752 0.304223
v 5.286572 8.152580 -0.012801
v 6.544700 7.524804 0.182717
v 6.524846 7.756363 0.083015
v 6.491257 7.524804 0.646935
v 6.530787 7.428889 0.416301
v 6.429411 7.987923 0.639816
v 6.449265 7.756363 0.739518
v 6.482854 7.987923 0.175598
v 6.443324 8.083838 0.406232
v 9.719713 7.483366 0.719490
v 9.534325 7.555281 0.609664
v 9.707157 7.732901 0.904089
v 9.521768 7.804817 0.794263
v 9.523497 7.641734 0.753447
v 9.704214 7.569967 0.862754
v 9.910640 7.524415 0.494435
v 9.709770 7.603608 0.373718
v 9.688442 8.027422 0.687243
v 9.889311 7.948230 0.807960
v 9.329912 7.565652 0.535359
v 9.315125 7.859466 0.752713
v 9.332535 7.668229 0.704641
v 9.480387 7.641807 0.227709
v 9.455274 8.140820 0.596864
v 9.227982 7.664991 0.179196
v 9.168633 7.681607 0.675408
v 9.148954 7.575891 0.509207
v 9.202869 8.164005 0.548352
v 9.134168 7.869704 0.726560
v 8.806794 7.547678 0.446453
v 8.788279 7.915587 0.718622
v 8.831434 7.680052 0.654569
v 8.905751 7.659247 0.033218
v 8.874304 8.284107 0.495471
v 8.546843 7.679580 0.635845
v 8.518166 7.525510 0.393621
v 8.496615 7.953719 0.710397
v 8.633340 7.655365 -0.087340
v 8.596740 8.382637 0.450674
v 9.143904 8.828045 -0.665469
v 9.154019 8.627060 -0.814152
v 9.151858 8.758417 -0.781335
v 9.270711 8.810490 -0.545908
v 9.285015 8.526255 -0.756177
v 9.062359 8.720984 -0.406922
v 8.930665 8.663286 -0.667786
v 8.921851 8.740437 -0.539402
v 9.078209 8.406037 -0.639911
v 8.933059 8.517736 -0.704149
v 8.947689 8.279504 -0.541487
v 8.742417 8.662220 -0.400806
v 8.928776 8.655302 -0.263481
v 8.755791 8.396490 -0.597385
v 8.742928 8.569735 -0.554098
v 8.575292 8.236393 -0.439195
v 8.776829 8.537926 -0.050177
v 8.798864 8.100097 -0.374070
v 8.560306 8.438234 -0.388763
v 8.559711 8.545986 -0.210168
v 8.443134 8.353592 -0.282318
v 8.733494 7.975491 -0.279471
v 8.466450 8.121856 -0.340840
v 8.448512 8.478292 -0.077159
v 8.708126 8.479568 0.093430
v 8.337192 8.409985 0.071108
v 8.358180 7.992924 -0.237420
v 8.309258 8.259924 -0.164810
v 8.667326 8.452424 0.217152
v 8.697008 7.862612 -0.219173
v 8.215545 7.816046 -0.109840
v 8.155223 8.145273 -0.020307
v 8.189664 8.330305 0.270593
v 8.090941 7.522756 0.423642
v 8.067259 7.582098 0.178954
v 8.072051 7.898113 0.701320
v 8.092926 7.653654 0.640013
v 8.016862 8.172274 0.326961
v 8.040545 8.112932 0.571649
v 8.035751 7.796918 0.049285
v 8.014875 8.041376 0.110591
v 7.694327 8.080835 0.591484
v 7.764899 8.010815 0.134898
v 7.738696 8.141262 0.349959
v 7.757587 7.765906 0.072282
v 7.676672 7.489574 0.440314
v 7.721042 7.550001 0.198789
v 7.657781 7.864931 0.717992
v 7.650469 7.620022 0.655375
v 7.323960 7.643599 0.601292
v 7.350164 7.513151 0.386232
v 7.367818 8.104412 0.537401
v 7.331274 7.888507 0.663909
v 7.438391 8.034391 0.080816
v 7.412188 8.164839 0.295876
v 7.394533 7.573577 0.144706
v 7.431078 7.789483 0.018199
v 7.108597 7.558090 0.210985
v 7.165542 7.906453 0.709136
v 7.115726 8.158935 0.319103
v 7.146131 8.114122 0.566128
v 7.089185 7.765759 0.067978
v 7.092138 8.014637 0.112762
v 7.162588 7.657575 0.664353
v 7.139001 7.513278 0.458012
v 6.814915 7.502601 0.526903
v 6.781900 7.537322 0.278592
v 6.832453 7.905459 0.763022
v 6.835855 7.655088 0.727561
v 6.773684 8.141770 0.364202
v 6.806700 8.107048 0.612513
v 6.756147 7.738912 0.128082
v 6.752744 7.989282 0.163544
v -3.966997 9.526554 -0.925196
v -4.060371 9.472654 -0.667692
v -3.893642 9.758697 -0.671497
v 8.960826 9.120287 -1.532392
v 8.690138 9.398295 -0.813637
v 9.426202 9.805122 -1.125015
v 9.834244 9.141422 -1.585666
v 9.473642 8.458678 -1.376318
v 8.831600 8.691236 -0.926503
v 9.401765 9.440981 -0.303934
v 10.057062 9.380444 -0.739792
v 10.167723 8.717199 -1.024412
v 9.335555 8.315056 -0.590544
v 8.843832 8.794762 -0.275459
v 9.729436 8.797635 -0.272881
v 10.244614 5.837599 0.995847
v 10.054517 6.652595 2.261060
v 9.440528 7.220356 1.018468
v 10.032352 6.981850 -0.284242
v 11.385270 6.620860 -0.125574
v 11.264199 6.492378 1.410661
v 10.009771 8.481823 1.791170
v 9.863548 8.698282 0.377137
v 10.930859 8.246406 -0.645760
v 11.920780 7.687696 0.778957
v 11.291677 7.563157 2.078692
v 11.151295 8.916832 0.834693
v -3.215028 12.041620 -1.363578
v -4.772438 13.189316 0.004820
v -2.259158 12.944382 1.283777
v -0.730790 13.107401 -0.954832
v -2.072995 14.006378 -3.202076
v -4.375242 13.955154 -2.294879
v -3.251246 15.371391 0.905258
v -1.211089 15.370668 0.653501
v -0.578345 15.652832 -1.733291
v -3.471830 16.068998 -3.063256
v -5.073523 15.485325 -1.361475
v -2.611939 16.070465 -0.984776
v -4.112741 14.136353 2.922470
v -1.402319 15.069025 3.569901
v -3.383875 17.740433 3.765714
v -5.798433 16.532679 0.941334
v -4.707679 14.127949 -0.742794
v -1.898562 14.149183 1.048036
v -0.794812 18.065929 1.353562
v -3.210009 19.080467 0.005772
v -4.758551 17.358204 -2.357686
v -1.596183 14.485508 -2.142223
v 0.156065 14.721783 0.551221
v -1.118594 17.620390 -2.064357
v 5.303845 16.064692 -3.996811
v 6.720805 14.906923 -2.525380
v 7.435320 15.007126 -4.845651
v 5.394744 14.968000 -6.330543
v 3.854718 14.414345 -5.018150
v 4.801108 14.389606 -2.787920
v 7.365860 12.776812 -3.783266
v 6.759985 12.912630 -5.917382
v 4.834474 12.847252 -6.360988
v 4.178173 12.557182 -3.523696
v 5.733916 12.856781 -2.082100
v 5.734265 12.378195 -4.338396
v 2.444071 16.703730 -1.468502
v 0.274214 16.526438 -0.829871
v 1.368626 18.890377 -0.029526
v 3.731207 18.013184 0.409324
v 3.760754 15.496958 0.482919
v 1.620388 14.874964 -0.177025
v 0.103226 17.124992 1.820106
v 2.126920 18.220932 2.408669
v 3.747288 16.842644 2.505445
v 2.204885 14.297657 1.810035
v 0.181725 14.614380 1.069155
v 1.418263 15.851282 2.991086
v 1.537423 20.588032 -6.866569
v -2.073355 20.833271 -4.069897
v 1.746581 21.827732 -2.042798
v 5.260187 19.873884 -4.079908
v 3.700322 16.323107 -6.264103
v -0.615895 17.529318 -6.283573
v -0.243559 19.126488 0.261424
v 3.562304 19.156607 0.386520
v 5.231379 16.245281 -1.911963
v 0.664914 14.281734 -3.962967
v -2.558389 16.537477 -3.067742
v 1.158823 15.499451 -0.080975
v 0.142839 17.892454 -5.548562
v 0.593966 16.189661 -8.233539
v -2.784224 16.659872 -7.012848
v -2.253616 16.607000 -3.433502
v 0.475502 15.658504 -2.813491
v 1.906752 15.460045 -5.829608
v -1.419752 13.495806 -7.538601
v -3.248967 13.778103 -5.126442
v -1.879292 13.610661 -2.571901
v 1.507089 13.064411 -4.179801
v 1.859490 13.379063 -7.128156
v -0.657550 13.078724 -5.287571
v 1.752660 18.525717 -5.242805
v 3.482215 17.155928 -8.238836
v 1.429379 14.154385 -6.101925
v 2.243762 15.788250 -1.953504
v 4.432468 18.753626 -2.067070
v 4.968206 19.171690 -5.705580
v 5.641041 14.055565 -6.888606
v 4.824988 12.991291 -3.611345
v 5.777479 15.155252 -0.977645
v 7.737058 18.279808 -3.888669
v 6.939666 17.670687 -7.143044
v 7.952421 14.960175 -4.382095
v 4.295300 17.020699 2.072118
v 2.235687 16.967857 0.504282
v 3.562105 15.020250 1.278688
v 6.408613 15.078579 1.258120
v 6.481693 17.771942 0.294844
v 3.864797 18.700521 -0.141586
v 3.073807 15.342247 -1.928059
v 5.298203 14.819439 -1.295481
v 7.314062 15.563051 -1.249111
v 5.254449 18.662964 -2.232846
v 2.895218 18.424597 -2.131374
v 4.982274 16.338240 -3.188096
v -5.118747 18.415943 -2.656089
v -3.644074 18.164257 -0.575566
v -3.611848 20.504503 -1.893087
v -4.113744 19.848295 -4.510775
v -4.004111 17.614731 -4.661381
v -3.759673 16.843668 -2.201411
v -1.637241 19.222231 -1.246692
v -1.846359 20.311695 -3.348890
v -2.165254 19.028313 -5.221161
v -2.261379 16.556759 -3.435952
v -2.171715 16.682154 -1.035039
v -1.031144 18.164652 -3.018634
v -5.637798 12.955715 -1.006533
v -7.346960 14.247009 -2.551722
v -8.004124 13.933243 0.192916
v -5.279395 13.831625 1.555417
v -3.608188 14.662868 -0.149250
v -5.080762 14.919718 -2.542682
v -7.828532 16.408251 -1.111858
v -6.833722 16.080564 1.256004
v -4.390755 16.079576 1.569547
v -4.174300 16.858488 -1.752636
v -6.147481 16.563387 -3.281578
v -5.777934 16.811787 -0.626400
v -4.581755 13.693111 -4.471210
v -4.208163 13.922911 -1.891789
v -6.472896 15.756144 -3.125455
v -4.998085 16.219557 -5.763104
v -2.451045 15.249825 -5.724251
v -2.213407 13.994825 -3.341400
v -3.788167 16.737028 -1.406300
v -4.481751 18.094563 -3.534395
v -2.868625 17.938152 -5.484699
v -0.578940 15.882378 -3.616150
v -1.544925 14.942896 -1.537970
v -1.744473 17.705276 -2.623861
v -0.846504 15.088274 -0.019786
v -0.344535 15.397038 3.446006
v -3.387501 17.860228 1.788414
v -1.405899 18.482885 -1.755614
v 2.016383 17.179924 -1.703411
v 2.335682 15.493668 1.498263
v 0.219785 19.178175 4.098324
v -0.712136 21.002199 1.238949
v 1.455311 20.792046 -1.381541
v 4.531802 18.029840 1.129100
v 3.233875 16.767523 3.921408
v 2.965756 20.479145 2.462371
v -2.369135 5.352467 -1.737633
v -2.610546 5.352467 -0.258399
v -2.103357 5.976093 -0.969293
v -3.817043 9.831539 -0.924407
v -2.159287 5.740829 -1.530809
v -2.276590 5.838516 -0.436593
v -2.758254 4.854672 -0.493751
v -2.777279 4.547231 -1.081505
v -2.626962 4.708330 -1.633495
v -3.197120 5.972338 -1.505142
v -2.952061 6.302359 -1.333606
v -2.852059 6.439057 -0.921653
v -2.955695 6.302359 -0.510599
v -3.202260 5.972338 -0.341235
v -3.447320 5.642317 -0.512770
v -3.547321 5.505618 -0.924723
v -3.443685 5.642317 -1.335777
v -3.442200 6.732258 -1.302739
v -3.710664 6.466179 -1.460696
v -3.332383 6.842471 -0.923774
v -3.445542 6.732258 -0.545794
v -3.715391 6.466179 -0.390215
v -3.983855 6.200101 -0.548172
v -4.093671 6.089888 -0.927136
v -3.980512 6.200101 -1.305116
v -3.959496 7.313742 -1.278125
v -4.243526 7.107426 -1.425008
v -3.843133 7.399201 -0.926030
v -3.962601 7.313742 -0.574977
v -4.247917 7.107426 -0.430607
v -4.531947 6.901110 -0.577491
v -4.648310 6.815651 -0.929586
v -4.528841 6.901110 -1.280639
v -4.480152 7.980970 -1.250495
v -4.740004 7.792217 -1.384875
v -4.373695 8.059155 -0.928373
v -4.482994 7.980970 -0.607204
v -4.744021 7.792217 -0.475124
v -5.003873 7.603464 -0.609504
v -5.110331 7.525280 -0.931626
v -5.001031 7.603464 -1.252795
v -4.759511 8.577469 -1.239018
v -5.189987 8.858568 -1.182066
v -4.642749 8.626677 -0.929561
v -4.762239 8.577469 -0.621148
v -5.192380 8.858568 -0.640095
v -5.332600 8.339874 -0.623667
v -5.449362 8.290667 -0.933123
v -5.329872 8.339874 -1.241536
v -5.728710 8.554324 -0.701579
v -5.697820 8.954288 -0.714170
v -5.807522 8.501833 -0.932587
v -5.726674 8.554324 -1.162889
v -5.696033 8.954288 -1.118813
v -6.293986 8.658510 -0.733044
v -6.267083 9.006845 -0.744010
v -6.362624 8.612796 -0.934232
v -6.292212 8.658510 -1.134806
v -6.265527 9.006845 -1.096420
v -6.860406 8.732397 -0.735546
v -6.705194 9.045418 -0.745945
v -6.941095 8.715998 -0.936787
v -6.858632 8.732397 -1.137308
v -6.703637 9.045418 -1.098354
v -7.278702 9.012676 -0.768869
v -7.087636 9.234980 -0.777324
v -7.347673 9.016254 -0.937707
v -7.277213 9.012676 -1.105929
v -7.086330 9.234980 -1.072981
v -7.703788 9.464470 -0.783141
v -7.527164 9.669971 -0.790957
v -7.767546 9.467778 -0.939216
v -7.702412 9.464470 -1.094723
v -7.525958 9.669971 -1.064266
v -4.539726 8.838706 -1.238047
v -4.951541 9.146481 -1.181013
v -4.420086 8.880336 -0.928578
v -4.542455 8.838706 -0.620178
v -4.953935 9.146481 -0.639042
v -4.303905 9.166284 -1.189663
v -4.677130 9.394405 -1.141239
v -4.205860 9.211132 -0.926384
v -4.306226 9.166284 -0.663982
v -4.679166 9.394405 -0.680133
v -4.058094 9.472654 -1.183515
v -4.445630 9.657188 -1.136093
v -3.966997 9.526554 -0.925196
v -4.060371 9.472654 -0.667692
v -4.447628 9.657188 -0.683633
v -3.891406 9.758697 -1.177985
v -4.303992 9.844803 -1.131563
v -3.893642 9.758697 -0.671497
v -4.305954 9.844803 -0.687291
v -3.993694 12.024946 -1.467127
v -4.811281 11.665855 -0.235768
v -3.044685 11.236759 0.219941
v -2.561343 10.882469 -1.441769
v -3.882677 10.766903 -2.486584
v -5.085441 11.232933 -1.631875
v -4.105537 10.068134 0.399356
v -2.749615 9.657495 -0.127290
v -2.885316 9.502031 -1.621530
v -4.905402 9.917084 -1.947483
v -5.547425 10.469839 -0.774162
v -4.160076 9.470238 -0.724094
v -9.025454 8.713173 -1.401790
v -8.801518 8.850918 0.144354
v -10.159034 9.949786 -0.595124
v -9.275009 10.227564 -2.176171
v -7.748274 9.646292 -2.152882
v -7.605830 8.894026 -0.724565
v -8.549766 10.537745 0.435364
v -8.965510 11.351469 -0.840249
v -7.998578 11.257717 -2.009292
v -6.626106 10.025454 -0.889254
v -7.205132 9.462313 0.356439
v -7.324744 11.118126 -0.294461
vn 0.0768 0.4876 0.8697
vn 0.2821 0.4438 0.8506
vn 0.0115 0.5774 0.8164
vn -0.0827 0.3871 0.9183
vn -0.5686 0.7598 0.3152
vn -0.5820 0.5384 0.6094
vn -0.8479 0.5232 0.0858
vn -0.8306 0.5411 0.1314
vn -0.6853 0.6333 -0.3596
vn -0.7264 0.5732 -0.3793
vn -0.3716 0.4415 -0.8167
vn -0.3686 0.5033 -0.7816
vn 0.2905 0.5415 -0.7889
vn 0.1090 0.5270 -0.8428
vn 0.8529 0.2918 -0.4330
vn 0.6912 0.4360 -0.5763
vn 0.8275 0.3421 -0.4451
vn 0.8641 0.4542 -0.2171
vn 0.5790 0.7537 0.3110
vn 0.7021 0.6257 0.3399
vn 0.1520 0.4410 0.8845
vn -0.0118 0.3808 0.9246
vn -0.5470 0.6723 0.4988
vn -0.8613 0.4957 0.1116
vn -0.7140 0.5968 -0.3661
vn -0.3324 0.4299 -0.8395
vn 0.1922 0.5144 -0.8357
vn 0.8046 0.2919 -0.5172
vn 0.8636 0.3494 -0.3634
vn 0.5818 0.7197 0.3789
vn -0.1305 0.5942 0.7937
vn 0.3647 0.5833 0.7258
vn -0.5690 0.5998 0.5625
vn -0.7919 0.5985 0.1212
vn -0.7174 0.5905 -0.3697
vn -0.3675 0.5787 -0.7281
vn 0.1316 0.5673 -0.8129
vn 0.5875 0.5610 -0.5833
vn 0.8172 0.5624 -0.1259
vn 0.7295 0.5711 0.3763
vn -0.1507 0.4536 0.8784
vn 0.4027 0.4019 0.8224
vn -0.6240 0.4826 0.6146
vn -0.8653 0.4826 0.1355
vn -0.7955 0.4536 -0.4018
vn -0.4210 0.4019 -0.8132
vn 0.1420 0.3439 -0.9282
vn 0.6739 0.3049 -0.6730
vn 0.9419 0.3049 -0.1408
vn 0.8303 0.3439 0.4385
vn -0.1354 0.4184 0.8981
vn 0.4331 0.3512 0.8301
vn -0.6285 0.4581 0.6286
vn -0.8792 0.4581 0.1308
vn -0.8022 0.4184 -0.4259
vn -0.4091 0.3512 -0.8422
vn 0.1649 0.2815 -0.9453
vn 0.6928 0.2377 -0.6809
vn 0.9595 0.2377 -0.1513
vn 0.8577 0.2815 0.4303
vn -0.1139 0.2967 0.9481
vn 0.4514 0.3917 0.8017
vn -0.6805 0.2240 0.6977
vn -0.9657 0.2240 0.1313
vn -0.8296 0.2967 -0.4729
vn -0.3754 0.3917 -0.8400
vn 0.1722 0.4575 -0.8724
vn 0.6280 0.4861 -0.6076
vn 0.8628 0.4849 -0.1429
vn 0.8044 0.4559 0.3809
vn -0.1938 -0.0172 0.9809
vn 0.4088 0.1055 0.9065
vn -0.7164 -0.0846 0.6926
vn -0.9829 -0.0846 0.1632
vn -0.9035 -0.0172 -0.4282
vn -0.4849 0.1055 -0.8682
vn 0.1235 0.2324 -0.9647
vn 0.6679 0.3053 -0.6788
vn 0.9318 0.3367 -0.1355
vn 0.8424 0.2555 0.4744
vn -0.1453 0.0377 0.9887
vn 0.4638 0.0969 0.8806
vn -0.7060 -0.0020 0.7082
vn -0.9893 -0.0020 0.1456
vn -0.8809 0.0377 -0.4719
vn -0.4314 0.0969 -0.8969
vn 0.1725 0.1497 -0.9736
vn 0.7024 0.1790 -0.6889
vn 0.9720 0.1789 -0.1526
vn 0.8857 0.1495 0.4396
vn -0.1767 0.1221 0.9767
vn 0.4232 0.1812 0.8877
vn -0.7122 0.0868 0.6965
vn -0.9837 0.0868 0.1576
vn -0.8899 0.1221 -0.4395
vn -0.4613 0.1812 -0.8686
vn 0.1394 0.2415 -0.9603
vn 0.6777 0.2785 -0.6805
vn 0.9503 0.2785 -0.1394
vn 0.8546 0.2415 0.4598
vn -0.1723 0.2215 0.9598
vn 0.4251 0.1603 0.8908
vn -0.6908 0.2552 0.6765
vn -0.9548 0.2552 0.1523
vn -0.8738 0.2215 -0.4330
vn -0.4627 0.1603 -0.8719
vn 0.1422 0.0910 -0.9857
vn 0.7045 0.0446 -0.7083
vn 0.9885 0.0446 -0.1444
vn 0.8766 0.0910 0.4726
vn -0.1550 0.2351 0.9595
vn 0.4469 0.0927 0.8898
vn -0.6731 0.3167 0.6683
vn -0.9377 0.3167 0.1429
vn -0.8632 0.2351 -0.4467
vn -0.4489 0.0927 -0.8888
vn 0.1574 -0.0568 -0.9859
vn 0.7012 -0.1491 -0.6972
vn 0.9776 -0.1491 -0.1483
vn 0.8858 -0.0568 0.4605
vn -0.0688 0.3089 0.9486
vn 0.4823 0.3373 0.8085
vn -0.6811 0.2190 0.6987
vn -0.9668 0.2190 0.1313
vn -0.8160 0.2834 -0.5039
vn -0.4325 0.2474 -0.8670
vn 0.0879 -0.3287 -0.9403
vn 0.5447 -0.6541 -0.5249
vn 0.9328 -0.3586 -0.0364
vn 0.8334 0.2335 0.5010
vn 0.1024 0.4344 0.8949
vn 0.4213 0.7474 0.5138
vn -0.6075 -0.0110 0.7943
vn -0.9998 -0.0110 0.0152
vn -0.6943 0.4205 -0.5841
vn -0.3312 0.6898 -0.6438
vn -0.3657 0.2313 -0.9016
vn 0.1196 -0.7747 -0.6209
vn 0.5958 -0.8029 -0.0198
vn 0.8764 0.1585 0.4548
vn -0.3276 -0.2272 -0.9171
vn -0.5358 0.7402 -0.4063
vn 0.1320 -0.9020 -0.4110
vn 0.5862 -0.8099 0.0198
vn 0.8520 -0.0628 0.5198
vn 0.2858 0.6965 0.6581
vn -0.6737 -0.0016 -0.7390
vn -0.8141 0.5348 -0.2264
vn -0.1406 -0.8385 -0.5264
vn 0.5177 -0.8546 -0.0402
vn 0.8709 -0.1440 0.4699
vn 0.7433 0.2751 0.6098
vn -0.5770 -0.1475 -0.8033
vn -0.6989 0.2559 -0.6679
vn -0.0597 -0.8052 -0.5900
vn 0.5076 -0.8593 -0.0622
vn 0.8622 -0.2256 0.4535
vn 0.9004 0.3944 0.1838
vn -0.6238 -0.0613 -0.7791
vn -0.6798 0.6332 -0.3701
vn -0.0562 -0.7421 -0.6679
vn 0.5872 -0.7869 -0.1897
vn 0.8894 -0.2259 0.3975
vn 0.5877 0.5355 0.6065
vn -0.7432 -0.1450 -0.6532
vn -0.8253 0.5437 -0.1524
vn -0.0822 -0.6716 -0.7363
vn 0.6528 -0.6716 -0.3503
vn 0.9596 -0.1450 0.2411
vn 0.5940 0.5437 0.5930
vn -0.7467 -0.0864 -0.6595
vn -0.8704 0.4870 -0.0718
vn -0.0551 -0.5860 -0.8084
vn 0.6968 -0.5860 -0.4136
vn 0.9668 -0.0864 0.2404
vn 0.5532 0.4870 0.6758
vn -0.7795 -0.1249 -0.6138
vn -0.9231 0.3836 0.0274
vn -0.0485 -0.5591 -0.8277
vn 0.7089 -0.5591 -0.4300
vn 0.9478 -0.1249 0.2933
vn 0.5014 0.3836 0.7755
vn -0.7718 -0.0657 -0.6325
vn -0.9397 0.3342 0.0719
vn -0.0143 -0.4046 -0.9144
vn 0.7609 -0.4046 -0.5073
vn 0.9588 -0.0657 0.2763
vn 0.4743 0.3342 0.8144
vn -0.7769 0.0215 -0.6293
vn -0.9229 0.3487 0.1631
vn 0.0203 -0.2923 -0.9561
vn 0.7756 -0.2923 -0.5594
vn 0.9591 0.0215 0.2823
vn 0.3896 0.3487 0.8524
vn 0.1442 0.9868 -0.0739
vn -0.3010 0.9239 0.2363
vn -0.1563 0.5048 0.8490
vn 0.0828 0.6403 -0.7637
vn -0.0736 0.9617 0.2642
vn -0.2283 0.8711 0.4348
vn -0.2931 0.7762 0.5582
vn -0.3629 0.6252 0.6910
vn -0.4003 0.5085 0.7623
vn -0.4088 0.4762 0.7785
vn 0.1725 0.1177 0.9779
vn 0.6751 0.6167 0.4048
vn -0.5083 -0.5459 0.6660
vn -0.8377 -0.5459 0.0119
vn -0.6997 0.1335 -0.7018
vn 0.1061 0.6208 -0.7767
vn 0.6003 0.7328 -0.3205
vn 0.2260 -0.2069 0.9519
vn 0.7535 0.4571 0.4725
vn -0.4532 -0.6006 0.6587
vn -0.7991 -0.6006 -0.0280
vn -0.6303 -0.2069 -0.7483
vn 0.0689 0.4571 -0.8867
vn 0.6297 0.7092 -0.3171
vn 0.2037 -0.1567 0.9664
vn 0.7917 0.3896 0.4706
vn -0.5305 -0.4581 0.7132
vn -0.8889 -0.4581 0.0016
vn -0.6552 -0.1567 -0.7390
vn 0.0932 0.3896 -0.9163
vn 0.6911 0.6334 -0.3481
vn 0.1764 -0.0148 0.9842
vn 0.8266 0.3125 0.4681
vn -0.6002 -0.2018 0.7740
vn -0.9792 -0.2018 0.0214
vn -0.6857 -0.0148 -0.7277
vn 0.1160 0.3125 -0.9428
vn 0.7887 0.4692 -0.3972
vn 0.1983 0.1253 0.9721
vn 0.8514 0.3145 0.4198
vn -0.6084 -0.0344 0.7929
vn -0.9993 -0.0344 0.0168
vn -0.6630 0.1253 -0.7381
vn 0.1696 0.3145 -0.9340
vn 0.8273 0.3768 -0.4166
vn 0.1830 0.1122 0.9767
vn 0.8638 0.2352 0.4455
vn -0.6175 0.0155 0.7864
vn -0.9995 0.0155 0.0280
vn -0.6758 0.1122 -0.7285
vn 0.1563 0.2352 -0.9593
vn 0.8614 0.2640 -0.4338
vn 0.2169 0.1275 0.9678
vn 0.8919 0.1605 0.4229
vn -0.6017 0.0949 0.7931
vn -0.9954 0.0949 0.0112
vn -0.6485 0.1275 -0.7505
vn 0.1912 0.1605 -0.9683
vn 0.8812 0.1630 -0.4438
vn 0.2176 0.1289 0.9675
vn 0.8904 0.1358 0.4345
vn -0.6001 0.1169 0.7913
vn -0.9931 0.1169 0.0111
vn -0.6478 0.1289 -0.7508
vn 0.1810 0.1358 -0.9741
vn 0.8866 0.1207 -0.4465
vn 0.2319 0.1226 0.9650
vn 0.8959 0.0965 0.4337
vn -0.5918 0.1372 0.7943
vn -0.9905 0.1372 0.0026
vn -0.6372 0.1226 -0.7608
vn 0.1849 0.0965 -0.9780
vn 0.8904 0.0777 -0.4484
vn 0.2413 0.1416 0.9601
vn 0.9052 0.1124 0.4098
vn -0.5928 0.1563 0.7900
vn -0.9877 0.1563 0.0060
vn -0.6277 0.1416 -0.7655
vn 0.2097 0.1124 -0.9713
vn 0.8893 0.0925 -0.4479
vn -0.9889 0.1120 0.0980
vn 0.7916 0.1120 0.6007
vn -0.5733 0.0298 -0.8188
vn 0.9169 0.0298 -0.3981
vn -0.2680 0.1644 0.9493
vn 0.2715 -0.0400 -0.9616
vn -0.9685 0.2342 0.0844
vn 0.7814 0.2342 0.5785
vn -0.5569 0.0169 -0.8304
vn 0.9090 0.0169 -0.4165
vn -0.2555 0.3405 0.9048
vn 0.2707 -0.0872 -0.9587
vn -0.9606 0.2723 0.0559
vn 0.7895 0.2723 0.5501
vn -0.5803 -0.0456 -0.8132
vn 0.9199 -0.0456 -0.3896
vn -0.2423 0.4529 0.8580
vn 0.2652 -0.2176 -0.9393
vn -0.9372 0.3482 0.0190
vn 0.7889 0.3482 0.5064
vn -0.5793 -0.1635 -0.7986
vn 0.9114 -0.1635 -0.3777
vn -0.2157 0.6081 0.7640
vn 0.2481 -0.4082 -0.8786
vn -0.9367 0.3482 -0.0361
vn 0.8172 0.3482 0.4592
vn -0.5876 -0.3115 -0.7468
vn 0.8914 -0.3115 -0.3292
vn -0.1915 0.7094 0.6783
vn 0.2201 -0.5862 -0.7797
vn -0.9479 0.3166 -0.0344
vn 0.8259 0.3166 0.4664
vn -0.5968 -0.4446 -0.6679
vn 0.8580 -0.4446 -0.2571
vn -0.1805 0.7475 0.6393
vn 0.1909 -0.7115 -0.6762
vn -0.9737 0.2101 -0.0878
vn 0.8758 0.2101 0.4344
vn -0.5254 -0.5563 -0.6438
vn 0.7845 -0.5563 -0.2740
vn -0.1768 0.7593 0.6263
vn 0.1768 -0.7593 -0.6263
vn 0.7483 0.1747 0.6399
vn 0.8981 0.1612 -0.4092
vn 0.5625 0.8198 0.1078
vn 0.8645 -0.1902 -0.4652
vn 0.8855 -0.4431 0.1396
vn 0.7056 -0.1651 0.6891
vn 0.4376 0.5362 0.7218
vn 0.5860 0.5793 -0.5665
vn 0.1705 0.0017 -0.9853
vn 0.3975 -0.6420 -0.6557
vn 0.4227 -0.9049 0.0488
vn 0.2396 -0.6397 0.7303
vn -0.0537 0.0025 0.9986
vn -0.2844 0.6628 0.6927
vn -0.3132 0.9490 -0.0368
vn -0.1236 0.6616 -0.7396
vn 0.4419 -0.6179 -0.6503
vn 0.1631 0.0085 -0.9866
vn 0.4880 -0.8710 0.0562
vn 0.2826 -0.6179 0.7338
vn -0.0654 0.0085 0.9978
vn -0.3553 0.6469 0.6747
vn -0.4088 0.9114 -0.0471
vn -0.1927 0.6469 -0.7378
vn 0.4363 -0.6032 -0.6677
vn 0.2023 0.0614 -0.9774
vn 0.4721 -0.8798 0.0544
vn 0.2732 -0.6032 0.7493
vn -0.0251 0.0614 0.9978
vn -0.2347 0.7071 0.6671
vn -0.2518 0.9673 -0.0290
vn -0.0770 0.7071 -0.7029
vn 0.1214 -0.6781 -0.7249
vn 0.1270 0.0665 -0.9897
vn 0.1065 -0.9938 0.0327
vn 0.0732 -0.6507 0.7558
vn 0.0534 0.0624 0.9966
vn 0.0653 0.7198 0.6911
vn 0.0996 0.9946 0.0278
vn 0.1259 0.7437 -0.6565
vn 0.1102 0.6875 -0.7178
vn 0.0797 0.9965 0.0237
vn 0.0308 0.6746 0.7375
vn 0.0154 -0.0308 0.9994
vn 0.0559 -0.7070 0.7051
vn 0.1109 -0.9935 0.0270
vn 0.1270 -0.0466 -0.9908
vn 0.1352 -0.7313 -0.6685
vn 0.3124 0.6924 -0.6504
vn 0.2611 0.9648 0.0301
vn 0.1564 0.6924 0.7044
vn 0.0692 0.0069 0.9976
vn 0.0669 -0.6978 0.7131
vn 0.1379 -0.9903 0.0159
vn 0.2940 0.0069 -0.9558
vn 0.2272 -0.6978 -0.6793
vn 0.2721 0.6728 -0.6880
vn 0.2396 0.9705 0.0260
vn 0.1183 0.6730 0.7301
vn -0.0122 -0.0392 0.9992
vn -0.0630 -0.7261 0.6846
vn -0.0169 -0.9999 -0.0032
vn 0.2034 -0.0388 -0.9783
vn 0.0873 -0.7248 -0.6835
vn -0.1546 -0.6733 -0.7230
vn 0.0347 0.0075 -0.9994
vn -0.2598 -0.9647 -0.0438
vn -0.2132 -0.7043 0.6771
vn -0.0273 0.0010 0.9996
vn 0.1687 0.6923 0.7016
vn 0.2565 0.9665 0.0097
vn 0.2017 0.6919 -0.6933
vn 0.2031 -0.7003 -0.6843
vn 0.0790 -0.0308 -0.9964
vn 0.1021 -0.6684 0.7368
vn 0.2077 -0.9778 0.0289
vn -0.1703 0.7288 0.6632
vn -0.0494 0.0470 0.9977
vn -0.0910 0.6590 -0.7466
vn -0.1933 0.9793 -0.0608
vn -0.3913 -0.9188 0.0518
vn -0.2369 -0.9672 0.0912
vn -0.4472 0.1921 0.8736
vn -0.2946 0.1786 0.9388
vn -0.4446 -0.5471 0.7093
vn -0.5806 -0.5029 0.6403
vn 0.3856 -0.3354 -0.8595
vn 0.4240 -0.3524 -0.8343
vn 0.3596 0.9264 0.1117
vn 0.3213 0.9431 0.0863
vn -0.1017 -0.9871 0.1237
vn -0.1595 0.1621 0.9738
vn -0.2211 -0.5872 0.7787
vn 0.3176 -0.3215 -0.8921
vn 0.2528 0.9656 0.0601
vn 0.2853 -0.3367 -0.8973
vn -0.1140 -0.5945 0.7959
vn -0.0163 -0.9861 0.1655
vn 0.2194 0.9730 0.0716
vn -0.0723 0.1274 0.9892
vn 0.0475 -0.9848 0.1672
vn -0.0086 0.1295 0.9915
vn -0.0490 -0.5956 0.8018
vn 0.3881 -0.3417 -0.8559
vn 0.3235 0.9416 0.0934
vn -0.0121 -0.5951 0.8036
vn 0.0359 -0.9916 0.1245
vn -0.0226 0.1715 0.9849
vn 0.3123 -0.6463 -0.6963
vn 0.2359 0.8727 0.4275
vn -0.4044 0.9112 -0.0791
vn -0.3477 -0.2154 -0.9125
vn -0.5550 0.4765 -0.6819
vn 0.4302 0.3132 0.8466
vn 0.4898 -0.8713 -0.0297
vn 0.4344 0.4738 0.7660
vn -0.5850 0.4631 -0.6658
vn -0.4284 0.8993 -0.0878
vn 0.5006 -0.8407 -0.2064
vn -0.3728 -0.2052 -0.9049
vn 0.5624 -0.7730 -0.2936
vn -0.5047 0.8622 -0.0439
vn 0.4962 0.5414 0.6787
vn -0.4492 -0.2414 -0.8602
vn -0.6831 0.4118 -0.6032
vn -0.4839 -0.2594 -0.8358
vn 0.5600 0.5752 0.5963
vn 0.6242 -0.7000 -0.3470
vn -0.7588 0.3623 -0.5413
vn -0.5393 0.8418 -0.0212
vn -0.7640 0.3584 -0.5365
vn 0.6803 -0.5909 -0.4337
vn -0.4683 -0.2428 -0.8495
vn -0.5234 0.8511 -0.0403
vn 0.6188 0.6299 0.4694
vn -0.5197 0.8530 -0.0483
vn -0.4650 -0.2355 -0.8534
vn -0.7656 0.3573 -0.5350
vn 0.6093 0.6843 0.4007
vn 0.6710 -0.5417 -0.5063
vn -0.4751 -0.3516 -0.8067
vn -0.7556 0.3646 -0.5442
vn -0.5351 0.8414 0.0759
vn 0.0552 -0.9862 0.1559
vn -0.0545 -0.8500 -0.5239
vn -0.0016 0.1412 0.9900
vn 0.0555 -0.5920 0.8040
vn -0.3897 0.9200 -0.0428
vn -0.1347 0.7436 0.6550
vn -0.3307 -0.2517 -0.9096
vn -0.4976 0.4996 -0.7091
vn -0.0396 0.7827 0.6211
vn 0.0107 0.5950 -0.8036
vn -0.0151 0.9926 -0.1208
vn 0.0436 -0.1740 -0.9838
vn -0.0059 -0.9858 0.1677
vn 0.0412 -0.8229 -0.5667
vn -0.0619 0.1259 0.9901
vn -0.0526 -0.5956 0.8015
vn 0.0406 -0.6160 0.7867
vn -0.0231 -0.9945 0.1022
vn 0.0356 0.8293 0.5577
vn 0.0666 0.1655 0.9840
vn 0.0351 0.5801 -0.8138
vn 0.0300 0.9820 -0.1866
vn -0.0254 -0.7825 -0.6221
vn 0.0127 -0.1390 -0.9902
vn -0.0679 -0.8363 -0.5440
vn 0.2057 0.2113 0.9555
vn -0.0539 0.9766 -0.2081
vn 0.0866 0.8372 0.5400
vn -0.1455 -0.1996 -0.9690
vn -0.1385 0.5426 -0.8285
vn 0.2079 -0.5224 0.8270
vn 0.0813 -0.9729 0.2164
vn 0.1350 -0.9595 0.2471
vn 0.1194 -0.8451 -0.5211
vn 0.0201 0.2165 0.9761
vn 0.0956 -0.5131 0.8530
vn -0.1310 0.9762 -0.1731
vn -0.0719 0.8259 0.5592
vn 0.0206 -0.1992 -0.9797
vn -0.0988 0.5660 -0.8185
vn 0.8684 -0.4644 0.1739
vn -0.5793 0.0694 -0.8122
vn -0.8692 0.4868 0.0866
vn 0.0298 0.9678 -0.2500
vn 0.4897 0.1715 -0.8549
vn 0.0041 -0.7874 -0.6164
vn -0.8124 -0.5502 -0.1929
vn 0.0243 0.6063 0.7948
vn 0.8219 0.5100 0.2538
vn 0.9023 -0.4188 -0.1026
vn -0.0540 -0.9505 0.3060
vn -0.6417 -0.2551 0.7233
vn 0.4740 -0.2718 0.8375
vn -0.2462 -0.9692 -0.0065
vn -0.3609 -0.4093 0.8380
vn -0.9939 -0.1093 0.0153
vn -0.5555 -0.3309 -0.7628
vn 0.5635 -0.5666 -0.6012
vn 0.6652 -0.6470 0.3727
vn -0.4391 0.6306 0.6399
vn -0.6485 0.6997 -0.2998
vn 0.1928 0.4087 -0.8921
vn 0.9944 0.1054 -0.0015
vn 0.5680 0.1150 0.8150
vn 0.4319 0.8982 0.0818
vn 0.1529 0.9547 0.2553
vn 0.8137 0.4281 -0.3933
vn -0.1803 0.5228 -0.8331
vn -0.8298 0.5564 0.0424
vn -0.2769 0.2821 0.9186
vn 0.6795 0.3405 0.6498
vn 0.2937 -0.5607 -0.7742
vn -0.5897 -0.4905 -0.6416
vn -0.8077 -0.5265 0.2655
vn 0.2322 -0.6591 0.7153
vn 0.8742 -0.4844 0.0333
vn -0.0051 -0.9885 -0.1509
vn -0.4211 -0.6988 0.5783
vn 0.4936 -0.3562 0.7934
vn -0.1944 0.5279 0.8267
vn -0.9749 0.1577 0.1568
vn -0.5579 -0.7554 -0.3437
vn 0.1893 -0.9781 0.0861
vn 0.7167 0.6486 0.2562
vn -0.1531 0.9855 -0.0727
vn -0.5736 0.3249 -0.7519
vn 0.3182 -0.6103 -0.7255
vn 0.8863 -0.4627 0.0207
vn 0.5586 0.4649 -0.6869
vn -0.2282 0.9625 0.1467
vn 0.4737 0.4689 0.7455
vn 0.8307 0.4955 -0.2537
vn -0.0811 0.5385 -0.8387
vn -0.9430 0.2691 -0.1955
vn -0.6201 0.3361 0.7088
vn 0.7909 -0.5814 0.1909
vn 0.5682 -0.5033 -0.6511
vn -0.3752 -0.5287 -0.7614
vn -0.7215 -0.6275 0.2928
vn 0.0079 -0.4831 0.8756
vn 0.0577 -0.9978 -0.0323
vn 0.2700 -0.0096 -0.9628
vn -0.7303 -0.0112 -0.6830
vn -0.2642 0.9107 -0.3177
vn 0.7843 0.5813 -0.2167
vn 0.8288 -0.5029 -0.2452
vn -0.0067 -0.7902 -0.6128
vn -0.8552 0.3136 0.4126
vn 0.0128 0.7361 0.6767
vn 0.7480 0.0761 0.6593
vn 0.2285 -0.9106 0.3445
vn -0.7166 -0.6962 0.0423
vn -0.2328 -0.2194 0.9474
vn 0.0461 0.5618 -0.8260
vn -0.7727 0.6163 -0.1522
vn 0.0812 0.9576 0.2764
vn 0.8618 0.4625 -0.2082
vn 0.4848 -0.4661 -0.7401
vn -0.5058 -0.2400 -0.8286
vn -0.4731 0.2598 0.8418
vn 0.4717 0.2797 0.8362
vn 0.8266 -0.4929 0.2716
vn -0.1573 -0.9643 -0.2130
vn -0.9181 -0.3917 0.0598
vn -0.0984 -0.6659 0.7395
vn 0.2863 0.9576 0.0331
vn 0.3316 0.3816 -0.8628
vn -0.7150 0.4932 -0.4955
vn -0.5438 0.5923 0.5945
vn 0.4719 0.3088 0.8258
vn 0.9503 0.3104 0.0234
vn -0.3395 -0.6341 -0.6947
vn -0.8702 -0.4927 0.0042
vn -0.3644 -0.5022 0.7842
vn 0.6305 -0.6639 0.4021
vn 0.6718 -0.5612 -0.4835
vn -0.1151 -0.9931 -0.0219
vn -0.7573 0.6461 -0.0947
vn -0.2553 0.2264 -0.9400
vn -0.7647 -0.5588 -0.3208
vn -0.7001 -0.1390 0.7004
vn -0.0797 0.7421 0.6655
vn 0.0678 0.9622 -0.2639
vn 0.3173 -0.6802 -0.6608
vn 0.0326 -0.9703 0.2397
vn 0.2959 -0.2857 0.9115
vn 0.7914 0.5703 0.2203
vn 0.6272 0.3460 -0.6978
vn 0.9058 -0.4232 0.0216
vn -0.0780 0.2979 0.9514
vn -0.9271 0.1260 0.3530
vn -0.4325 -0.7191 0.5439
vn 0.5686 -0.5533 0.6088
vn 0.7090 0.6089 0.3556
vn -0.1928 0.9243 0.3295
vn -0.6190 -0.6209 -0.4809
vn 0.1029 -0.9470 -0.3043
vn 0.8927 -0.3391 -0.2968
vn 0.3621 0.7781 -0.5133
vn -0.6424 0.5800 -0.5009
vn 0.1337 -0.1944 -0.9718
vn -0.9923 -0.0665 0.1043
vn -0.3902 -0.0612 0.9187
vn -0.3059 0.8578 0.4131
vn -0.5384 0.5940 -0.5977
vn -0.4853 -0.5068 -0.7124
vn -0.5406 -0.8239 0.1698
vn 0.6501 0.3751 0.6608
vn 0.5619 0.8106 -0.1648
vn 0.4123 0.1457 -0.8993
vn 0.3163 -0.8818 -0.3497
vn 0.3391 -0.7029 0.6253
vn 0.9832 -0.1447 -0.1112
vn -0.1797 0.9603 0.2132
vn 0.5454 0.4531 0.7051
vn 0.8150 0.4775 -0.3282
vn -0.1701 0.5971 -0.7839
vn -0.9498 0.3117 -0.0279
vn -0.5189 0.3621 0.7743
vn 0.7874 -0.6117 0.0760
vn 0.4549 -0.5045 -0.7338
vn -0.4901 -0.4538 -0.7442
vn -0.6678 -0.6655 0.3333
vn 0.0934 -0.5123 0.8537
vn 0.0709 -0.9875 -0.1406
vn -0.3316 -0.8589 -0.3903
vn -0.2737 -0.7148 0.6435
vn -0.9816 0.0063 0.1908
vn -0.5591 0.1100 -0.8218
vn 0.4061 -0.3495 -0.8444
vn 0.4692 -0.8802 -0.0717
vn -0.1986 0.3876 0.9002
vn -0.4289 0.8984 0.0948
vn 0.2138 0.7223 -0.6577
vn 0.9900 -0.0345 -0.1365
vn 0.5841 -0.3369 0.7384
vn 0.5337 0.7533 0.3843
vn -0.6916 0.3764 -0.6165
vn -0.8035 0.3185 0.5028
vn -0.6440 0.7328 -0.2197
vn 0.8820 -0.4712 0.0039
vn -0.3214 0.7413 -0.5892
vn -0.2419 0.8257 0.5096
vn -0.9443 -0.1408 0.2975
vn -0.9753 -0.1780 -0.1310
vn -0.8722 -0.0312 -0.4881
vn -0.1128 0.1092 -0.9876
vn 0.3707 0.6131 -0.6976
vn 0.5850 0.8110 0.0066
vn 0.3911 0.5718 0.7211
vn -0.0846 0.0346 0.9958
vn -0.5522 -0.4691 0.6892
vn -0.7577 -0.6525 0.0104
vn -0.5830 -0.4092 -0.7019
vn 0.4752 0.5182 -0.7111
vn -0.0450 0.0298 -0.9985
vn 0.6915 0.7224 0.0031
vn 0.4689 0.5182 0.7153
vn -0.0538 0.0298 0.9981
vn -0.5604 -0.4500 0.6952
vn -0.7635 -0.6458 -0.0034
vn -0.5543 -0.4500 -0.7002
vn 0.5278 0.4695 -0.7078
vn -0.0312 0.0324 -0.9990
vn 0.7583 0.6519 0.0033
vn 0.5215 0.4695 0.7124
vn -0.0400 0.0324 0.9987
vn -0.5927 -0.3995 0.6994
vn -0.8170 -0.5767 -0.0036
vn -0.5864 -0.3995 -0.7046
vn 0.5334 0.3897 -0.7508
vn -0.0459 0.0672 -0.9967
vn 0.8479 0.5302 0.0037
vn 0.5403 0.3868 0.7473
vn -0.0519 0.0566 0.9970
vn -0.6268 -0.3081 0.7157
vn -0.8782 -0.4783 -0.0039
vn -0.6163 -0.3008 -0.7278
vn 0.4348 0.0790 -0.8971
vn -0.2482 0.5476 -0.7991
vn 0.9774 -0.2115 0.0043
vn 0.4638 0.0622 0.8837
vn -0.2498 0.5173 0.8186
vn -0.4892 -0.2661 0.8306
vn -0.7345 -0.6786 -0.0040
vn -0.4695 -0.2357 -0.8509
vn -0.2887 -0.4793 0.8288
vn 0.0370 0.7403 0.6712
vn -0.3388 -0.9408 -0.0013
vn -0.2770 -0.4422 -0.8530
vn 0.0539 0.7627 -0.6445
vn -0.1276 -0.5858 0.8004
vn 0.0460 0.7226 0.6898
vn -0.1705 -0.9854 -0.0007
vn -0.1180 -0.5534 -0.8245
vn 0.0570 0.7483 -0.6610
vn -0.2356 -0.6082 0.7580
vn 0.1554 0.6503 0.7436
vn -0.4215 -0.9068 -0.0021
vn -0.2205 -0.5835 -0.7816
vn 0.1732 0.6807 -0.7118
vn -0.4263 -0.4618 0.7778
vn 0.3677 0.5779 0.7286
vn -0.6750 -0.7378 -0.0030
vn -0.4030 -0.4387 -0.8032
vn 0.3948 0.5999 -0.6959
vn -0.4677 -0.4154 0.7802
vn 0.5064 0.5329 0.6779
vn -0.7323 -0.6810 -0.0032
vn -0.4411 -0.3951 -0.8058
vn 0.5304 0.5490 -0.6460
vn 0.4870 -0.3252 -0.8106
vn -0.5204 0.5400 -0.6614
vn 0.8048 -0.5935 0.0032
vn 0.5034 -0.3477 0.7910
vn -0.5036 0.5245 0.6865
vn 0.5097 -0.2990 -0.8067
vn -0.5016 0.5563 -0.6625
vn 0.8070 -0.5906 0.0037
vn 0.5256 -0.3234 0.7869
vn -0.4834 0.5417 0.6877
vn 0.5206 -0.3357 -0.7850
vn -0.5670 0.4732 -0.6742
vn 0.8310 -0.5516 -0.0722
vn 0.3792 -0.2850 0.8803
vn -0.5487 0.4568 0.7002
vn 0.6699 -0.3409 -0.6595
vn -0.5344 0.4122 -0.7379
vn -0.0281 0.0341 0.9990
vn -0.5072 0.3929 0.7670
vn 0.0628 0.9479 -0.3122
vn -0.4989 0.6870 0.5283
vn 0.5202 0.4967 0.6947
vn 0.8895 0.3196 -0.3266
vn 0.0774 0.1272 -0.9889
vn -0.7270 0.4726 -0.4981
vn -0.2446 -0.3805 0.8918
vn 0.6454 -0.5850 0.4911
vn 0.5383 -0.7095 -0.4548
vn -0.5682 -0.5599 -0.6030
vn -0.9620 -0.1860 0.2001
vn -0.2770 -0.9478 0.1581
vt 0.730813 0.902914
vt 0.730813 0.902914
vt 0.730813 0.902915
vt 0.730813 0.902915
vt 0.730813 0.902915
vt 0.730813 0.902915
vt 0.730813 0.902915
vt 0.730813 0.902915
vt 0.730813 0.902915
vt 0.730813 0.902914
vt 0.730813 0.902914
vt 0.730813 0.902914
vt 0.730814 0.902914
vt 0.730813 0.902914
vt 0.730813 0.902915
vt 0.730814 0.902914
vt 0.730813 0.902914
vt 0.730813 0.902915
vt 0.730813 0.902915
vt 0.730813 0.902915
vt 0.730814 0.902914
vt 0.730813 0.902915
vt 0.730814 0.902914
vt 0.730814 0.902914
vt 0.730813 0.902914
vt 0.730813 0.902915
vt 0.730814 0.902914
vt 0.730814 0.902914
vt 0.730814 0.902914
vt 0.730813 0.902914
vt 0.730814 0.902914
vt 0.730813 0.902915
vt 0.730813 0.902915
vt 0.730814 0.902914
vt 0.730813 0.902915
vt 0.730814 0.902914
vt 0.730813 0.902914
vt 0.730813 0.902914
vt 0.730814 0.902914
vt 0.730813 0.902915
vt 0.730813 0.902915
vt 0.730813 0.902915
vt 0.730813 0.902915
vt 0.730813 0.902915
vt 0.730814 0.902915
vt 0.730814 0.902914
vt 0.730813 0.902915
vt 0.730813 0.902915
vt 0.730812 0.902915
vt 0.730812 0.902915
vt 0.730812 0.902916
vt 0.730812 0.902916
vt 0.730812 0.902916
vt 0.730812 0.902915
vt 0.730814 0.902914
vt 0.730814 0.902914
vt 0.730814 0.902913
vt 0.730813 0.902915
vt 0.730813 0.902915
vt 0.730815 0.902913
vt 0.730814 0.902914
vt 0.730815 0.902913
vt 0.730816 0.902912
vt 0.730815 0.902914
vt 0.730814 0.902913
vt 0.730815 0.902912
vt 0.730812 0.902915
vt 0.730813 0.902916
vt 0.730815 0.902912
vt 0.730815 0.902913
vt 0.730815 0.902913
vt 0.730815 0.902913
vt 0.730816 0.902912
vt 0.730816 0.902912
vt 0.730813 0.902914
vt 0.730812 0.902915
vt 0.730811 0.902917
vt 0.730809 0.902919
vt 0.730810 0.902917
vt 0.730815 0.902912
vt 0.730816 0.902911
vt 0.730813 0.902916
vt 0.730816 0.902911
vt 0.730816 0.902911
vt 0.730816 0.902911
vt 0.730813 0.902914
vt 0.730811 0.902917
vt 0.730812 0.902918
vt 0.730816 0.902914
vt 0.730818 0.902913
vt 0.730812 0.902920
vt 0.730817 0.902910
vt 0.730818 0.902909
vt 0.730812 0.902914
vt 0.730809 0.902920
vt 0.730818 0.902911
vt 0.730815 0.902911
vt 0.730822 0.902906
vt 0.730819 0.902906
vt 0.730822 0.902902
vt 0.730826 0.902900
vt 0.730807 0.902919
vt 0.730811 0.902914
vt 0.730807 0.902923
vt 0.730821 0.902908
vt 0.730815 0.902909
vt 0.730805 0.902923
vt 0.730810 0.902912
vt 0.730803 0.902921
vt 0.730802 0.902920
vt 0.730810 0.902911
vt 0.730815 0.902921
vt 0.730800 0.902932
vt 0.730829 0.902901
vt 0.730816 0.902906
vt 0.730798 0.902929
vt 0.730826 0.902907
vt 0.730818 0.902920
vt 0.730832 0.902902
vt 0.730857 0.902881
vt 0.730846 0.902912
vt 0.730795 0.902939
vt 0.730827 0.902897
vt 0.730831 0.902898
vt 0.730817 0.902904
vt 0.730795 0.902932
vt 0.730822 0.902900
vt 0.730822 0.902888
vt 0.730838 0.902883
vt 0.730826 0.902892
vt 0.730820 0.902894
vt 0.730821 0.902900
vt 0.730826 0.902897
vt 0.730799 0.902915
vt 0.730809 0.902911
vt 0.730768 0.902974
vt 0.730815 0.902905
vt 0.730779 0.902942
vt 0.730823 0.902897
vt 0.730820 0.902900
vt 0.730819 0.902901
vt 0.730821 0.902899
vt 0.730816 0.902903
vt 0.730813 0.902903
vt 0.730814 0.902905
vt 0.730816 0.902903
vt 0.730818 0.902901
vt 0.730819 0.902900
vt 0.730815 0.902904
vt 0.730821 0.902898
vt 0.730817 0.902900
vt 0.730821 0.902896
vt 0.730818 0.902901
vt 0.730818 0.902901
vt 0.730818 0.902901
vt 0.730818 0.902900
vt 0.730819 0.902899
vt 0.730819 0.902899
vt 0.730819 0.902899
vt 0.730819 0.902900
vt 0.730820 0.902899
vt 0.730818 0.902900
vt 0.730819 0.902900
vt 0.730818 0.902900
vt 0.730819 0.902900
vt 0.730819 0.902900
vt 0.730819 0.902900
vt 0.730819 0.902900
vt 0.730819 0.902900
vt 0.730819 0.902900
vt 0.730819 0.902900
vt 0.730819 0.902900
vt 0.730819 0.902900
vt 0.730819 0.902900
vt 0.730818 0.902900
vt 0.730819 0.902900
vt 0.730819 0.902900
vt 0.730819 0.902900
vt 0.730819 0.902900
vt 0.730819 0.902900
vt 0.730819 0.902899
vt 0.730858 0.902916
vt 0.730750 0.903003
vt 0.730881 0.902841
vt 0.730900 0.902852
vt 0.730783 0.902919
vt 0.730833 0.902869
vt 0.730746 0.902974
vt 0.730735 0.902947
vt 0.730849 0.902832
vt 0.730692 0.903094
vt 0.730662 0.903056
vt 0.731003 0.902784
vt 0.730911 0.902920
vt 0.730956 0.902770
vt 0.730531 0.903184
vt 0.730646 0.903002
vt 0.730995 0.902925
vt 0.730612 0.903230
vt 0.731079 0.902657
vt 0.731166 0.902678
vt 0.730866 0.902782
vt 0.731437 0.902495
vt 0.731148 0.902925
vt 0.730887 0.902703
vt 0.731292 0.902460
vt 0.730318 0.903387
vt 0.730480 0.903108
vt 0.730481 0.903457
vt 0.730045 0.903356
vt 0.730915 0.902450
vt 0.730269 0.903858
vt 0.729884 0.903793
vt 0.732013 0.902096
vt 0.731448 0.902918
vt 0.731838 0.901926
vt 0.730865 0.901868
vt 0.732822 0.900952
vt 0.729118 0.904599
vt 0.729216 0.903828
vt 0.731993 0.902957
vt 0.729963 0.904577
vt 0.733085 0.901435
vt 0.729409 0.906142
vt 0.727566 0.906166
vt 0.735312 0.899989
vt 0.733362 0.902990
vt 0.730500 0.900495
vt 0.734502 0.899008
vt 0.727598 0.904513
vt 0.737518 0.894715
vt 0.739858 0.896943
vt 0.724010 0.905488
vt 0.729074 0.897108
vt 0.728776 0.909521
vt 0.724433 0.909244
vt 0.736555 0.903317
vt 0.723761 0.887598
vt 0.742792 0.884204
vt 0.717896 0.915528
vt 0.715094 0.906292
vt 0.744397 0.904631
vt 0.728780 0.917085
vt 0.749403 0.890403
vt 0.696447 0.904977
vt 0.710120 0.867079
vt 0.732419 0.933102
vt 0.706030 0.927589
vt 0.767286 0.878738
vt 0.762021 0.909495
vt 0.749112 0.862978
vt 0.730820 0.902898
vt 0.730819 0.902899
vt 0.730820 0.902897
vt 0.730820 0.902898
vt 0.730820 0.902898
vt 0.730819 0.902899
vt 0.730819 0.902899
vt 0.730819 0.902899
vt 0.730819 0.902899
vt 0.730819 0.902899
vt 0.730819 0.902899
vt 0.730820 0.902898
vt 0.730819 0.902899
vt 0.730820 0.902898
vt 0.730819 0.902899
vt 0.730819 0.902899
vt 0.730819 0.902899
vt 0.730816 0.902911
vt 0.730816 0.902912
vt 0.730816 0.902912
vt 0.730816 0.902912
vt 0.730816 0.902912
vt 0.730816 0.902912
vt 0.730816 0.902911
vt 0.730816 0.902912
vt 0.730816 0.902912
vt 0.730816 0.902912
vt 0.730816 0.902912
vt 0.730816 0.902912
vt 0.730816 0.902912
vt 0.730816 0.902912
vt 0.730816 0.902912
vt 0.738828 0.888894
vt 0.738828 0.875286
vt 0.403505 0.933539
vt 0.418245 0.925029
vt 0.418245 0.942049
vt 0.403505 0.916518
vt 0.418245 0.908008
vt 0.403505 0.865457
vt 0.418245 0.856947
vt 0.418245 0.873968
vt 0.403505 0.882478
vt 0.418245 0.890988
vt 0.403505 0.899498
vt 0.432985 0.916518
vt 0.432985 0.933539
vt 0.432985 0.865457
vt 0.432985 0.882478
vt 0.432985 0.899498
vt 0.432985 0.950559
vt 0.447726 0.925029
vt 0.447726 0.942049
vt 0.447726 0.873968
vt 0.447726 0.890988
vt 0.447726 0.908008
vt 0.090909 0.933539
vt 0.105649 0.925028
vt 0.105649 0.942049
vt 0.090909 0.916518
vt 0.105649 0.908008
vt 0.090909 0.865457
vt 0.105649 0.856947
vt 0.105649 0.873968
vt 0.090909 0.882478
vt 0.105649 0.890988
vt 0.090909 0.899498
vt 0.120389 0.916518
vt 0.120389 0.933539
vt 0.120389 0.865457
vt 0.120389 0.882478
vt 0.120389 0.899498
vt 0.120389 0.950559
vt 0.135130 0.925028
vt 0.135130 0.942049
vt 0.135130 0.873968
vt 0.135130 0.890988
vt 0.135130 0.908008
vt 0.255779 0.891894
vt 0.270519 0.883384
vt 0.270519 0.900404
vt 0.255779 0.874874
vt 0.270519 0.866364
vt 0.255779 0.823813
vt 0.270519 0.815303
vt 0.270519 0.832323
vt 0.255779 0.840833
vt 0.270519 0.849343
vt 0.255779 0.857853
vt 0.285259 0.874874
vt 0.285259 0.891894
vt 0.285259 0.823813
vt 0.285259 0.840833
vt 0.285259 0.857853
vt 0.285259 0.908914
vt 0.299999 0.883384
vt 0.299999 0.900404
vt 0.299999 0.832323
vt 0.299999 0.849343
vt 0.299999 0.866364
vt 0.166465 0.891894
vt 0.181206 0.883384
vt 0.181206 0.900404
vt 0.166465 0.874874
vt 0.181206 0.866364
vt 0.166465 0.823813
vt 0.181206 0.815303
vt 0.181206 0.832323
vt 0.166465 0.840833
vt 0.181206 0.849343
vt 0.166465 0.857853
vt 0.195946 0.874874
vt 0.195946 0.891894
vt 0.195946 0.823813
vt 0.195946 0.840833
vt 0.195946 0.857853
vt 0.195946 0.908914
vt 0.210686 0.883384
vt 0.210686 0.900404
vt 0.210686 0.832323
vt 0.210686 0.849343
vt 0.210686 0.866364
vt 0.103610 0.917523
vt 0.118350 0.909012
vt 0.118350 0.926033
vt 0.103610 0.900502
vt 0.118350 0.891992
vt 0.103610 0.849441
vt 0.118350 0.840931
vt 0.118350 0.857952
vt 0.103610 0.866462
vt 0.118350 0.874972
vt 0.103610 0.883482
vt 0.133090 0.900502
vt 0.133090 0.917523
vt 0.133090 0.849441
vt 0.133090 0.866462
vt 0.133090 0.883482
vt 0.133090 0.934543
vt 0.147830 0.909012
vt 0.147830 0.926033
vt 0.147830 0.857952
vt 0.147830 0.874972
vt 0.147830 0.891992
vt 0.135566 0.933539
vt 0.150306 0.925028
vt 0.150306 0.942049
vt 0.135566 0.916518
vt 0.150306 0.908008
vt 0.135566 0.865457
vt 0.150306 0.856947
vt 0.150306 0.873968
vt 0.135566 0.882478
vt 0.150306 0.890988
vt 0.135566 0.899498
vt 0.165046 0.916518
vt 0.165046 0.933539
vt 0.165046 0.865457
vt 0.165046 0.882478
vt 0.165046 0.899498
vt 0.165046 0.950559
vt 0.179786 0.925028
vt 0.179786 0.942049
vt 0.179786 0.873968
vt 0.179786 0.890988
vt 0.179786 0.908008
vt 0.101750 0.931200
vt 0.116490 0.922690
vt 0.116490 0.939710
vt 0.101750 0.914180
vt 0.116490 0.905670
vt 0.101750 0.863119
vt 0.116490 0.854609
vt 0.116490 0.871629
vt 0.101750 0.880139
vt 0.116490 0.888649
vt 0.101750 0.897160
vt 0.131230 0.914180
vt 0.131230 0.931200
vt 0.131230 0.863119
vt 0.131230 0.880139
vt 0.131230 0.897160
vt 0.131230 0.948221
vt 0.145970 0.922690
vt 0.145970 0.939710
vt 0.145970 0.871629
vt 0.145970 0.888649
vt 0.145970 0.905670
vt 0.314192 0.933539
vt 0.328932 0.925028
vt 0.328932 0.942049
vt 0.314192 0.916518
vt 0.328932 0.908008
vt 0.314192 0.865457
vt 0.328932 0.856947
vt 0.328932 0.873968
vt 0.314192 0.882478
vt 0.328932 0.890988
vt 0.314192 0.899498
vt 0.343672 0.916518
vt 0.343672 0.933539
vt 0.343672 0.865457
vt 0.343672 0.882478
vt 0.343672 0.899498
vt 0.343672 0.950559
vt 0.358412 0.925028
vt 0.358412 0.942049
vt 0.358412 0.873968
vt 0.358412 0.890988
vt 0.358412 0.908008
vt 0.224879 0.933539
vt 0.239619 0.925028
vt 0.239619 0.942049
vt 0.224879 0.916518
vt 0.239619 0.908008
vt 0.224879 0.865457
vt 0.239619 0.856947
vt 0.239619 0.873968
vt 0.224879 0.882478
vt 0.239619 0.890988
vt 0.224879 0.899498
vt 0.254359 0.916518
vt 0.254359 0.933539
vt 0.254359 0.865457
vt 0.254359 0.882478
vt 0.254359 0.899498
vt 0.254359 0.950559
vt 0.269099 0.925028
vt 0.269099 0.942049
vt 0.269099 0.873968
vt 0.269099 0.890988
vt 0.269099 0.908008
vt 0.077152 0.891894
vt 0.091893 0.883384
vt 0.091893 0.900404
vt 0.077152 0.874874
vt 0.091893 0.866364
vt 0.077152 0.823813
vt 0.091893 0.815303
vt 0.091893 0.832323
vt 0.077152 0.840833
vt 0.091893 0.849343
vt 0.077152 0.857853
vt 0.106633 0.874874
vt 0.106633 0.891894
vt 0.106633 0.823813
vt 0.106633 0.840833
vt 0.106633 0.857853
vt 0.106633 0.908914
vt 0.121373 0.883384
vt 0.121373 0.900404
vt 0.121373 0.832323
vt 0.121373 0.849343
vt 0.121373 0.866364
vt 0.211122 0.891894
vt 0.225862 0.883384
vt 0.225862 0.900404
vt 0.211122 0.874874
vt 0.225862 0.866364
vt 0.211122 0.823813
vt 0.225862 0.815303
vt 0.225862 0.832323
vt 0.211122 0.840833
vt 0.225862 0.849343
vt 0.211122 0.857853
vt 0.240602 0.874874
vt 0.240602 0.891894
vt 0.240602 0.823813
vt 0.240602 0.840833
vt 0.240602 0.857853
vt 0.240602 0.908914
vt 0.255343 0.883384
vt 0.255343 0.900404
vt 0.255343 0.832323
vt 0.255343 0.849343
vt 0.255343 0.866364
vt 0.257033 0.963623
vt 0.271773 0.955113
vt 0.271773 0.972133
vt 0.257033 0.946603
vt 0.271773 0.938092
vt 0.257033 0.895542
vt 0.271773 0.887032
vt 0.271773 0.904052
vt 0.257033 0.912562
vt 0.271773 0.921072
vt 0.257033 0.929582
vt 0.286513 0.946603
vt 0.286513 0.963623
vt 0.286513 0.895542
vt 0.286513 0.912562
vt 0.286513 0.929582
vt 0.286513 0.980643
vt 0.301253 0.955113
vt 0.301253 0.972133
vt 0.301253 0.904052
vt 0.301253 0.921072
vt 0.301253 0.938092
vt 0.121809 0.891894
vt 0.136549 0.883384
vt 0.136549 0.900404
vt 0.121809 0.874874
vt 0.136549 0.866364
vt 0.121809 0.823813
vt 0.136549 0.815303
vt 0.136549 0.832323
vt 0.121809 0.840833
vt 0.136549 0.849343
vt 0.121809 0.857853
vt 0.151289 0.874874
vt 0.151289 0.891894
vt 0.151289 0.823813
vt 0.151289 0.840833
vt 0.151289 0.857853
vt 0.151289 0.908914
vt 0.166029 0.883384
vt 0.166029 0.900404
vt 0.166029 0.832323
vt 0.166029 0.849343
vt 0.166029 0.866364
vt 0.180222 0.933539
vt 0.194962 0.925029
vt 0.194962 0.942049
vt 0.180222 0.916518
vt 0.194962 0.908008
vt 0.180222 0.865457
vt 0.194962 0.856947
vt 0.194962 0.873968
vt 0.180222 0.882478
vt 0.194962 0.890988
vt 0.180222 0.899498
vt 0.209703 0.916518
vt 0.209703 0.933539
vt 0.209703 0.865457
vt 0.209703 0.882478
vt 0.209703 0.899498
vt 0.209703 0.950559
vt 0.224443 0.925029
vt 0.224443 0.942049
vt 0.224443 0.873968
vt 0.224443 0.890988
vt 0.224443 0.908008
vt 0.730812 0.902915
vt 0.684393 0.848068
vt 0.738828 0.848068
vt 0.738828 0.861677
vt 0.684393 0.861677
vt 0.684393 0.875286
vt 0.684393 0.888894
vt 0.738828 0.902503
vt 0.684393 0.902503
vt 0.738828 0.916112
vt 0.684393 0.916112
vt 0.738828 0.929720
vt 0.684393 0.929720
vt 0.738828 0.943329
vt 0.684393 0.943329
vt 0.738828 0.956938
vt 0.684393 0.956938
vt 0.358848 0.933539
vt 0.373589 0.925029
vt 0.373589 0.942049
vt 0.358848 0.916518
vt 0.373589 0.908008
vt 0.358848 0.865457
vt 0.373589 0.856947
vt 0.373589 0.873968
vt 0.358848 0.882478
vt 0.373589 0.890988
vt 0.358848 0.899498
vt 0.388329 0.916518
vt 0.388329 0.933539
vt 0.388329 0.865457
vt 0.388329 0.882478
vt 0.388329 0.899498
vt 0.388329 0.950559
vt 0.403069 0.925029
vt 0.403069 0.942049
vt 0.403069 0.873968
vt 0.403069 0.890988
vt 0.403069 0.908008
vt 0.046252 0.933539
vt 0.060993 0.925028
vt 0.060993 0.942049
vt 0.046252 0.916518
vt 0.060993 0.908008
vt 0.046252 0.865457
vt 0.060993 0.856947
vt 0.060993 0.873968
vt 0.046252 0.882478
vt 0.060993 0.890988
vt 0.046252 0.899498
vt 0.075733 0.916518
vt 0.075733 0.933539
vt 0.075733 0.865457
vt 0.075733 0.882478
vt 0.075733 0.899498
vt 0.075733 0.950559
vt 0.090473 0.925028
vt 0.090473 0.942049
vt 0.090473 0.873968
vt 0.090473 0.890988
vt 0.090473 0.908008
s 1
f 21/1/21 2/2/2 4/3/4 22/3/22
f 22/3/22 4/3/4 6/4/6 23/5/23
f 23/5/23 6/4/6 8/6/8 24/4/24
f 24/4/24 8/6/8 10/6/10 25/7/25
f 25/7/25 10/6/10 12/8/12 26/9/26
f 26/9/26 12/8/12 14/10/14 27/11/27
f 27/11/27 14/10/14 16/12/16 28/1/28
f 28/1/28 16/12/16 18/13/18 29/14/29
f 10/6/10 8/6/8 34/15/34 35/15/35
f 29/14/29 18/13/18 20/16/20 30/2/30
f 30/2/30 20/16/20 2/2/2 21/1/21
f 19/1/19 30/2/30 21/1/21 1/17/1
f 17/1/17 29/14/29 30/2/30 19/1/19
f 15/11/15 28/1/28 29/14/29 17/1/17
f 13/11/13 27/11/27 28/1/28 15/11/15
f 11/9/11 26/9/26 27/11/27 13/11/13
f 9/5/9 25/7/25 26/9/26 11/9/11
f 7/5/7 24/4/24 25/7/25 9/5/9
f 5/5/5 23/5/23 24/4/24 7/5/7
f 3/3/3 22/3/22 23/5/23 5/5/5
f 1/17/1 21/1/21 22/3/22 3/3/3
f 34/15/34 33/18/33 43/19/43 44/20/44
f 4/3/4 2/2/2 32/21/32 31/22/31
f 8/6/8 6/4/6 33/18/33 34/15/34
f 6/4/6 4/3/4 31/22/31 33/18/33
f 2/2/2 20/16/20 40/23/40 32/21/32
f 20/16/20 18/13/18 39/24/39 40/23/40
f 18/13/18 16/12/16 38/25/38 39/24/39
f 16/12/16 14/10/14 37/10/37 38/25/38
f 14/10/14 12/8/12 36/26/36 37/10/37
f 12/8/12 10/6/10 35/15/35 36/26/36
f 42/23/42 50/27/50 60/28/60 52/29/52
f 32/21/32 40/23/40 50/27/50 42/23/42
f 38/25/38 37/10/37 47/30/47 48/31/48
f 35/15/35 34/15/34 44/20/44 45/32/45
f 31/22/31 32/21/32 42/23/42 41/33/41
f 39/24/39 38/25/38 48/31/48 49/34/49
f 36/26/36 35/15/35 45/32/45 46/35/46
f 33/18/33 31/22/31 41/33/41 43/19/43
f 40/23/40 39/24/39 49/34/49 50/27/50
f 37/10/37 36/26/36 46/35/46 47/30/47
f 58/36/58 57/37/57 67/38/67 68/39/68
f 48/31/48 47/30/47 57/37/57 58/36/58
f 45/32/45 44/20/44 54/40/54 672/40/658 677/41/663 678/42/664 679/43/665 671/44/657 55/44/55
f 41/33/41 42/23/42 52/29/52 51/45/51
f 49/34/49 48/31/48 58/36/58 59/46/59
f 46/35/46 45/32/45 55/44/55 56/47/56
f 43/19/43 41/33/41 51/45/51 53/48/53
f 50/27/50 49/34/49 59/46/59 60/28/60
f 47/30/47 46/35/46 56/47/56 57/37/57
f 44/20/44 43/19/43 53/48/53 54/40/54
f 65/49/65 673/50/659 64/51/64 74/52/74 75/53/75
f 55/44/55 671/44/657 675/54/661 673/50/659 65/49/65
f 51/45/51 52/29/52 62/55/62 61/56/61
f 59/46/59 58/36/58 68/39/68 69/57/69
f 56/47/56 55/44/55 65/49/65 66/58/66
f 53/48/53 51/45/51 61/56/61 63/59/63
f 60/28/60 59/46/59 69/57/69 70/60/70
f 57/37/57 56/47/56 66/58/66 67/38/67
f 54/40/54 53/48/53 63/59/63 64/51/64
f 52/29/52 60/28/60 70/60/70 62/55/62
f 71/61/71 72/62/72 82/63/82 81/64/81
f 61/56/61 62/55/62 72/62/72 71/61/71
f 69/57/69 68/39/68 78/65/78 79/66/79
f 66/58/66 65/49/65 75/53/75 76/67/76
f 63/59/63 61/56/61 71/61/71 73/68/73
f 70/60/70 69/57/69 79/66/79 318/69/318 320/70/320 321/71/321 322/72/322 317/73/317 80/74/80
f 67/38/67 66/58/66 76/67/76 77/75/77
f 64/51/64 63/59/63 73/68/73 74/52/74
f 62/55/62 70/60/70 80/74/80 72/62/72
f 68/39/68 67/38/67 77/75/77 78/65/78
f 86/76/86 85/77/85 95/78/95 96/79/96
f 79/66/79 78/65/78 88/80/88 89/81/89
f 76/67/76 75/53/75 85/77/85 86/76/86
f 73/68/73 71/61/71 81/64/81 83/82/83
f 80/74/80 317/73/317 323/83/323 319/84/319 90/85/90
f 77/75/77 76/67/76 86/76/86 87/86/87
f 74/52/74 73/68/73 83/82/83 84/87/84
f 72/62/72 80/74/80 90/85/90 82/63/82
f 78/65/78 77/75/77 87/86/87 88/80/88
f 75/53/75 74/52/74 84/87/84 85/77/85
f 93/88/93 91/89/91 101/90/101 103/91/103
f 83/82/83 81/64/81 91/89/91 93/88/93
f 90/85/90 319/84/319 89/81/89 99/92/99 100/93/100
f 87/86/87 86/76/86 96/79/96 97/94/97
f 84/87/84 83/82/83 93/88/93 94/95/94
f 82/63/82 90/85/90 100/93/100 92/96/92
f 88/80/88 87/86/87 97/94/97 98/97/98
f 85/77/85 84/87/84 94/95/94 95/78/95
f 81/64/81 82/63/82 92/96/92 91/89/91
f 89/81/89 88/80/88 98/97/98 99/92/99
f 110/98/110 109/99/109 119/100/119 120/101/120
f 100/93/100 99/92/99 109/99/109 110/98/110
f 97/94/97 96/79/96 106/102/106 107/103/107
f 94/95/94 93/88/93 103/91/103 104/104/104
f 92/96/92 100/93/100 110/98/110 102/105/102
f 98/97/98 97/94/97 107/103/107 108/106/108
f 95/78/95 94/95/94 104/104/104 105/107/105
f 91/89/91 92/96/92 102/105/102 101/90/101
f 99/92/99 98/97/98 108/106/108 109/99/109
f 96/79/96 95/78/95 105/107/105 106/102/106
f 117/108/117 116/109/116 126/110/126 127/111/127
f 107/103/107 106/102/106 116/109/116 117/108/117
f 104/104/104 103/91/103 113/112/113 114/113/114
f 102/105/102 110/98/110 120/101/120 112/114/112
f 108/106/108 107/103/107 117/108/117 118/115/118
f 105/107/105 104/104/104 114/113/114 115/116/115
f 101/90/101 102/105/102 112/114/112 111/117/111
f 109/99/109 108/106/108 118/115/118 119/100/119
f 106/102/106 105/107/105 115/116/115 116/109/116
f 103/91/103 101/90/101 111/117/111 113/112/113
f 123/118/123 121/119/121 131/120/131 133/121/133
f 114/113/114 113/112/113 123/118/123 124/122/124
f 112/114/112 120/101/120 130/123/130 122/124/122
f 118/115/118 117/108/117 127/111/127 128/125/128
f 115/116/115 114/113/114 124/122/124 125/126/125
f 111/117/111 112/114/112 122/124/122 121/119/121
f 119/100/119 118/115/118 128/125/128 129/127/129
f 116/109/116 115/116/115 125/126/125 126/110/126
f 113/112/113 111/117/111 121/119/121 123/118/123
f 120/101/120 119/100/119 129/127/129 130/123/130
f 195/128/195 132/129/132 146/130/146 196/131/196
f 130/123/130 129/127/129 139/132/139 140/133/140
f 127/111/127 126/110/126 136/134/136 137/135/137
f 124/122/124 123/118/123 133/121/133 134/136/134
f 122/124/122 130/123/130 140/133/140 132/129/132
f 128/125/128 127/111/127 137/135/137 138/137/138
f 125/126/125 124/122/124 134/136/134 135/138/135
f 121/119/121 122/124/122 132/129/132 131/120/131
f 129/127/129 128/125/128 138/137/138 139/132/139
f 126/110/126 125/126/125 135/138/135 136/134/136
f 145/139/145 144/140/144 150/141/150 151/142/151
f 132/129/132 140/133/140 145/139/145 146/130/146
f 139/132/139 138/137/138 143/143/143 144/140/144
f 137/135/137 136/134/136 142/144/142 141/145/141
f 140/133/140 139/132/139 144/140/144 145/139/145
f 138/137/138 137/135/137 141/145/141 143/143/143
f 150/141/150 149/146/149 155/147/155 156/148/156
f 143/143/143 141/145/141 147/149/147 149/146/149
f 146/130/146 145/139/145 151/142/151 152/150/152
f 144/140/144 143/143/143 149/146/149 150/141/150
f 141/145/141 142/144/142 148/151/148 147/149/147
f 196/131/196 146/130/146 152/150/152 197/152/197
f 155/147/155 153/153/153 159/154/159 161/155/161
f 147/149/147 148/151/148 154/156/154 153/153/153
f 198/157/198 154/156/154 277/158/277 280/159/280
f 151/142/151 150/141/150 156/148/156 157/160/157
f 149/146/149 147/149/147 153/153/153 155/147/155
f 152/150/152 151/142/151 157/160/157 158/161/158
f 159/154/159 160/162/160 166/163/166 165/164/165
f 158/161/158 157/160/157 163/165/163 164/166/164
f 156/148/156 155/147/155 161/155/161 162/167/162
f 153/153/153 154/156/154 160/162/160 159/154/159
f 198/157/198 158/161/158 164/166/164 199/168/199
f 157/160/157 156/148/156 162/167/162 163/165/163
f 170/169/170 169/170/169 175/171/175 176/172/176
f 199/168/199 164/166/164 170/169/170 200/173/200
f 163/165/163 162/167/162 168/174/168 169/170/169
f 161/155/161 159/154/159 165/164/165 167/175/167
f 164/166/164 163/165/163 169/170/169 170/169/170
f 162/167/162 161/155/161 167/175/167 168/174/168
f 201/176/201 176/172/176 182/171/182 202/171/202
f 168/174/168 167/175/167 173/177/173 174/178/174
f 165/164/165 166/163/166 172/179/172 171/177/171
f 200/173/200 170/169/170 176/172/176 201/176/201
f 169/170/169 168/174/168 174/178/174 175/171/175
f 167/175/167 165/164/165 171/177/171 173/177/173
f 182/171/182 181/171/181 187/171/187 188/171/188
f 175/171/175 174/178/174 180/178/180 181/171/181
f 173/177/173 171/177/171 177/178/177 179/178/179
f 176/172/176 175/171/175 181/171/181 182/171/182
f 174/178/174 173/177/173 179/178/179 180/178/180
f 171/177/171 172/179/172 178/179/178 177/178/177
f 203/171/203 188/171/188 194/171/194 204/171/204
f 180/178/180 179/178/179 185/178/185 186/178/186
f 177/178/177 178/179/178 184/179/184 183/178/183
f 202/171/202 182/171/182 188/171/188 203/171/203
f 181/171/181 180/178/180 186/178/186 187/171/187
f 179/178/179 177/178/177 183/178/183 185/178/185
f 187/171/187 186/178/186 192/178/192 193/180/193
f 185/178/185 183/178/183 189/178/189 191/178/191
f 188/171/188 187/171/187 193/180/193 194/171/194
f 186/178/186 185/178/185 191/178/191 192/178/192
f 183/178/183 184/179/184 190/178/190 189/178/189
f 178/179/178 202/171/202 203/171/203 184/179/184
f 184/179/184 203/171/203 204/171/204 190/178/190
f 166/163/166 200/173/200 201/176/201 172/179/172
f 172/179/172 201/176/201 202/171/202 178/179/178
f 160/162/160 199/168/199 200/173/200 166/163/166
f 154/156/154 198/157/198 199/168/199 160/162/160
f 158/161/158 198/157/198 280/159/280 278/181/278
f 142/144/142 196/131/196 197/152/197 148/151/148
f 136/134/136 195/128/195 196/131/196 142/144/142
f 134/136/134 133/121/133 207/182/207 208/183/208
f 131/120/131 132/129/132 206/184/206 205/185/205
f 195/128/195 136/134/136 210/186/210 211/187/211
f 135/138/135 134/136/134 208/183/208 209/188/209
f 132/129/132 195/128/195 211/187/211 206/184/206
f 133/121/133 131/120/131 205/185/205 207/182/207
f 136/134/136 135/138/135 209/188/209 210/186/210
f 211/187/211 210/186/210 217/189/217 218/190/218
f 209/188/209 208/183/208 215/191/215 216/192/216
f 207/182/207 205/185/205 212/193/212 214/194/214
f 206/184/206 211/187/211 218/190/218 213/195/213
f 210/186/210 209/188/209 216/192/216 217/189/217
f 208/183/208 207/182/207 214/194/214 215/191/215
f 205/185/205 206/184/206 213/195/213 212/193/212
f 217/189/217 216/192/216 223/196/223 224/197/224
f 215/191/215 214/194/214 221/198/221 222/199/222
f 212/193/212 213/195/213 220/200/220 219/201/219
f 218/190/218 217/189/217 224/197/224 225/202/225
f 216/192/216 215/191/215 222/199/222 223/196/223
f 214/194/214 212/193/212 219/201/219 221/198/221
f 213/195/213 218/190/218 225/202/225 220/200/220
f 221/198/221 219/201/219 226/203/226 228/204/228
f 220/200/220 225/202/225 232/205/232 227/206/227
f 224/197/224 223/196/223 230/207/230 231/208/231
f 222/199/222 221/198/221 228/204/228 229/209/229
f 219/201/219 220/200/220 227/206/227 226/203/226
f 225/202/225 224/197/224 231/208/231 232/205/232
f 223/196/223 222/199/222 229/209/229 230/207/230
f 232/205/232 231/208/231 238/210/238 239/211/239
f 230/207/230 229/209/229 236/212/236 237/213/237
f 228/204/228 226/203/226 233/214/233 235/215/235
f 227/206/227 232/205/232 239/211/239 234/216/234
f 231/208/231 230/207/230 237/213/237 238/210/238
f 229/209/229 228/204/228 235/215/235 236/212/236
f 226/203/226 227/206/227 234/216/234 233/214/233
f 234/216/234 239/211/239 246/217/246 241/218/241
f 238/210/238 237/213/237 244/219/244 245/220/245
f 236/212/236 235/215/235 242/221/242 243/222/243
f 233/214/233 234/216/234 241/218/241 240/223/240
f 239/211/239 238/210/238 245/220/245 246/217/246
f 237/213/237 236/212/236 243/222/243 244/219/244
f 235/215/235 233/214/233 240/223/240 242/221/242
f 244/219/244 243/222/243 250/224/250 251/225/251
f 242/221/242 240/223/240 247/226/247 249/227/249
f 241/218/241 246/217/246 253/228/253 248/229/248
f 245/220/245 244/219/244 251/225/251 252/230/252
f 243/222/243 242/221/242 249/227/249 250/224/250
f 240/223/240 241/218/241 248/229/248 247/226/247
f 246/217/246 245/220/245 252/230/252 253/228/253
f 247/226/247 248/229/248 255/231/255 254/232/254
f 253/228/253 252/230/252 259/233/259 260/234/260
f 251/225/251 250/224/250 257/235/257 258/236/258
f 249/227/249 247/226/247 254/232/254 256/237/256
f 248/229/248 253/228/253 260/234/260 255/231/255
f 252/230/252 251/225/251 258/236/258 259/233/259
f 250/224/250 249/227/249 256/237/256 257/235/257
f 255/231/255 260/234/260 267/238/267 262/239/262
f 259/233/259 258/236/258 265/240/265 266/241/266
f 257/235/257 256/237/256 263/242/263 264/243/264
f 254/232/254 255/231/255 262/239/262 261/244/261
f 260/234/260 259/233/259 266/241/266 267/238/267
f 258/236/258 257/235/257 264/243/264 265/240/265
f 256/237/256 254/232/254 261/244/261 263/242/263
f 267/238/267 266/241/266 273/245/273 274/246/274
f 265/240/265 264/243/264 271/247/271 272/248/272
f 263/242/263 261/244/261 268/249/268 270/250/270
f 262/239/262 267/238/267 274/246/274 269/251/269
f 266/241/266 265/240/265 272/248/272 273/245/273
f 264/243/264 263/242/263 270/250/270 271/247/271
f 261/244/261 262/239/262 269/251/269 268/249/268
f 152/150/152 158/161/158 278/181/278 276/252/276
f 154/156/154 148/151/148 275/253/275 277/158/277
f 148/151/148 197/152/197 279/254/279 275/253/275
f 197/152/197 152/150/152 276/252/276 279/254/279
f 279/254/279 276/252/276 282/255/282 285/256/285
f 277/158/277 275/253/275 281/257/281 283/258/283
f 275/253/275 279/254/279 285/256/285 281/257/281
f 278/181/278 280/159/280 286/259/286 284/260/284
f 276/252/276 278/181/278 284/260/284 282/255/282
f 280/159/280 277/158/277 283/258/283 286/259/286
f 284/260/284 286/259/286 292/261/292 290/262/290
f 282/255/282 284/260/284 290/262/290 288/263/288
f 286/259/286 283/258/283 289/264/289 292/261/292
f 285/256/285 282/255/282 288/263/288 291/265/291
f 283/258/283 281/257/281 287/266/287 289/264/289
f 281/257/281 285/256/285 291/265/291 287/266/287
f 291/265/291 288/263/288 294/267/294 297/267/297
f 289/264/289 287/266/287 293/266/293 295/268/295
f 287/266/287 291/265/291 297/267/297 293/266/293
f 290/262/290 292/261/292 298/260/298 296/262/296
f 288/263/288 290/262/290 296/262/296 294/267/294
f 292/261/292 289/264/289 295/268/295 298/260/298
f 296/262/296 298/260/298 304/262/304 302/262/302
f 294/267/294 296/262/296 302/262/302 300/266/300
f 298/260/298 295/268/295 301/262/301 304/262/304
f 297/267/297 294/267/294 300/266/300 303/266/303
f 295/268/295 293/266/293 299/262/299 301/262/301
f 293/266/293 297/267/297 303/266/303 299/262/299
f 303/266/303 300/266/300 306/262/306 309/266/309
f 301/262/301 299/262/299 305/262/305 307/262/307
f 299/262/299 303/266/303 309/266/309 305/262/305
f 302/262/302 304/262/304 310/262/310 308/262/308
f 300/266/300 302/262/302 308/262/308 306/262/306
f 304/262/304 301/262/301 307/262/307 310/262/310
f 308/262/308 310/262/310 316/262/316 314/262/314
f 306/262/306 308/262/308 314/262/314 312/262/312
f 310/262/310 307/262/307 313/262/313 316/262/316
f 309/266/309 306/262/306 312/262/312 315/262/315
f 307/262/307 305/262/305 311/262/311 313/262/313
f 305/262/305 309/266/309 315/262/315 311/262/311
f 319/84/319 324/269/324 318/69/318 79/66/79 89/81/89
f 318/69/318 325/270/325 326/271/326 320/70/320
f 320/70/320 326/271/326 327/272/327 321/71/321
f 321/71/321 327/272/327 328/271/328 322/72/322
f 322/72/322 328/271/328 329/273/329 317/73/317
f 317/73/317 329/273/329 330/274/330 323/83/323
f 323/83/323 330/274/330 331/275/331 319/84/319
f 331/275/331 330/274/330 338/276/338 339/277/339
f 319/84/319 331/275/331 332/277/332 324/269/324
f 324/269/324 332/277/332 325/270/325 318/69/318
f 338/276/338 337/278/337 345/278/345 346/279/346
f 329/273/329 328/271/328 336/280/336 337/278/337
f 332/277/332 331/275/331 339/277/339 340/279/340
f 327/272/327 326/271/326 333/270/333 335/270/335
f 330/274/330 329/273/329 337/278/337 338/276/338
f 325/270/325 332/277/332 340/279/340 334/281/334
f 326/271/326 325/270/325 334/281/334 333/270/333
f 328/271/328 327/272/327 335/270/335 336/280/336
f 348/279/348 347/276/347 355/279/355 356/278/356
f 336/280/336 335/270/335 343/282/343 344/283/344
f 333/270/333 334/281/334 342/281/342 341/283/341
f 334/281/334 340/279/340 348/279/348 342/281/342
f 339/277/339 338/276/338 346/279/346 347/276/347
f 337/278/337 336/280/336 344/283/344 345/278/345
f 335/270/335 333/270/333 341/283/341 343/282/343
f 340/279/340 339/277/339 347/276/347 348/279/348
f 346/279/346 345/278/345 353/278/353 354/278/354
f 344/283/344 343/282/343 351/283/351 352/283/352
f 341/283/341 342/281/342 350/281/350 349/283/349
f 342/281/342 348/279/348 356/278/356 350/281/350
f 347/276/347 346/279/346 354/278/354 355/279/355
f 345/278/345 344/283/344 352/283/352 353/278/353
f 343/282/343 341/283/341 349/283/349 351/283/351
f 369/283/369 370/283/370 362/283/362 361/283/361
f 367/278/367 368/278/368 360/281/360 359/278/359
f 365/278/365 366/278/366 358/278/358 357/278/357
f 370/283/370 372/283/372 364/283/364 362/283/362
f 368/278/368 369/283/369 361/283/361 360/281/360
f 366/278/366 367/278/367 359/278/359 358/278/358
f 371/281/371 365/278/365 357/278/357 363/283/363
f 379/281/379 373/278/373 365/278/365 371/281/371
f 380/283/380 379/281/379 371/281/371 372/283/372
f 377/283/377 378/283/378 370/283/370 369/283/369
f 375/278/375 376/281/376 368/278/368 367/278/367
f 373/278/373 374/278/374 366/278/366 365/278/365
f 378/283/378 380/283/380 372/283/372 370/283/370
f 376/281/376 377/283/377 369/283/369 368/278/368
f 372/283/372 371/281/371 363/283/363 364/283/364
f 374/278/374 375/278/375 367/278/367 366/278/366
f 349/283/349 350/281/350 382/281/382 381/283/381
f 352/283/352 351/283/351 383/283/383 384/283/384
f 354/278/354 353/278/353 385/278/385 386/278/386
f 356/278/356 355/279/355 387/278/387 388/278/388
f 351/283/351 349/283/349 381/283/381 383/283/383
f 353/278/353 352/283/352 384/283/384 385/278/385
f 355/279/355 354/278/354 386/278/386 387/278/387
f 350/281/350 356/278/356 388/278/388 382/281/382
f 386/278/386 385/278/385 376/281/376 375/278/375
f 388/278/388 387/278/387 374/278/374 373/278/373
f 383/283/383 381/283/381 380/283/380 378/283/378
f 385/278/385 384/283/384 377/283/377 376/281/376
f 387/278/387 386/278/386 375/278/375 374/278/374
f 382/281/382 388/278/388 373/278/373 379/281/379
f 381/283/381 382/281/382 379/281/379 380/283/380
f 384/283/384 383/283/383 378/283/378 377/283/377
f 362/283/362 364/283/364 389/283/389 392/283/392
f 357/278/357 358/278/358 396/278/396 395/278/395
f 359/278/359 360/281/360 394/281/394 393/278/393
f 361/283/361 362/283/362 392/283/392 391/283/391
f 364/283/364 363/283/363 390/283/390 389/283/389
f 363/283/363 357/278/357 395/278/395 390/283/390
f 358/278/358 359/278/359 393/278/393 396/278/396
f 360/281/360 361/283/361 391/283/391 394/281/394
f 401/281/401 398/281/398 397/281/397 402/281/402
f 405/281/405 400/281/400 399/281/399 406/281/406
f 398/281/398 404/281/404 403/281/403 397/281/397
f 400/281/400 401/281/401 402/281/402 399/281/399
f 409/281/409 407/281/407 398/281/398 401/281/401
f 411/281/411 408/281/408 400/281/400 405/281/405
f 407/281/407 410/281/410 404/281/404 398/281/398
f 408/281/408 409/281/409 401/281/401 400/281/400
f 404/281/404 405/281/405 406/281/406 403/281/403
f 414/281/414 412/281/412 410/281/410 407/281/407
f 416/281/416 413/281/413 409/281/409 408/281/408
f 412/281/412 415/281/415 411/281/411 410/281/410
f 413/281/413 414/281/414 407/281/407 409/281/409
f 410/281/410 411/281/411 405/281/405 404/281/404
f 419/281/419 417/283/417 414/281/414 413/281/413
f 421/281/421 418/281/418 416/281/416 415/281/415
f 417/283/417 420/281/420 412/281/412 414/281/414
f 418/281/418 419/281/419 413/281/413 416/281/416
f 415/281/415 416/281/416 408/281/408 411/281/411
f 423/283/423 425/281/425 420/281/420 417/283/417
f 424/281/424 422/281/422 419/281/419 418/281/418
f 422/281/422 423/283/423 417/283/417 419/281/419
f 426/281/426 424/281/424 418/281/418 421/281/421
f 420/281/420 421/281/421 415/281/415 412/281/412
f 434/281/434 432/281/432 430/281/430 427/281/427
f 436/281/436 433/281/433 429/281/429 428/281/428
f 432/281/432 435/281/435 431/281/431 430/281/430
f 433/281/433 434/281/434 427/281/427 429/281/429
f 439/281/439 437/281/437 435/281/435 432/281/432
f 441/281/441 438/278/438 434/281/434 433/281/433
f 437/281/437 440/281/440 436/281/436 435/281/435
f 438/278/438 439/281/439 432/281/432 434/281/434
f 435/281/435 436/281/436 428/281/428 431/281/431
f 444/281/444 442/281/442 440/281/440 437/281/437
f 446/278/446 443/281/443 439/281/439 438/278/438
f 442/281/442 445/281/445 441/281/441 440/281/440
f 443/281/443 444/281/444 437/281/437 439/281/439
f 440/281/440 441/281/441 433/281/433 436/281/436
f 449/281/449 447/281/447 445/281/445 442/281/442
f 451/281/451 448/281/448 444/281/444 443/281/443
f 447/281/447 450/278/450 446/278/446 445/281/445
f 448/281/448 449/281/449 442/281/442 444/281/444
f 445/281/445 446/278/446 438/278/438 441/281/441
f 454/281/454 452/278/452 450/278/450 447/281/447
f 456/281/456 453/281/453 449/281/449 448/281/448
f 452/278/452 455/281/455 451/281/451 450/278/450
f 453/281/453 454/281/454 447/281/447 449/281/449
f 450/278/450 451/281/451 443/281/443 446/278/446
f 425/281/425 457/281/457 453/281/453 456/281/456
f 459/278/459 426/281/426 455/281/455 452/278/452
f 457/281/457 458/281/458 454/281/454 453/281/453
f 458/281/458 459/278/459 452/278/452 454/281/454
f 455/281/455 456/281/456 448/281/448 451/281/451
f 425/281/425 426/281/426 421/281/421 420/281/420
f 463/281/463 460/283/460 423/283/423 422/281/422
f 465/278/465 462/281/462 424/281/424 426/281/426
f 467/281/467 464/278/464 459/278/459 458/281/458
f 461/283/461 466/281/466 457/281/457 425/281/425
f 460/283/460 461/283/461 425/281/425 423/283/423
f 462/281/462 463/281/463 422/281/422 424/281/424
f 464/278/464 465/278/465 426/281/426 459/278/459
f 426/281/426 425/281/425 456/281/456 455/281/455
f 470/278/470 468/278/468 465/278/465 464/278/464
f 471/281/471 469/281/469 467/281/467 466/281/466
f 475/281/475 472/283/472 460/283/460 463/281/463
f 468/278/468 474/281/474 462/281/462 465/278/465
f 469/281/469 470/278/470 464/278/464 467/281/467
f 473/283/473 471/281/471 466/281/466 461/283/461
f 472/283/472 473/283/473 461/283/461 460/283/460
f 466/281/466 467/281/467 458/281/458 457/281/457
f 477/283/477 482/283/482 473/283/473 472/283/472
f 479/278/479 476/281/476 475/281/475 474/281/474
f 481/278/481 478/278/478 468/278/468 470/278/470
f 483/281/483 480/281/480 469/281/469 471/281/471
f 476/281/476 477/283/477 472/283/472 475/281/475
f 478/278/478 479/278/479 474/281/474 468/278/468
f 480/281/480 481/278/481 470/278/470 469/281/469
f 474/281/474 475/281/475 463/281/463 462/281/462
f 487/278/487 485/278/485 479/278/479 478/278/478
f 489/281/489 486/278/486 481/278/481 480/281/480
f 484/283/484 488/281/488 483/281/483 482/283/482
f 491/283/491 484/283/484 482/283/482 477/283/477
f 485/278/485 490/281/490 476/281/476 479/278/479
f 486/278/486 487/278/487 478/278/478 481/278/481
f 488/281/488 489/281/489 480/281/480 483/281/483
f 482/283/482 483/281/483 471/281/471 473/283/473
f 495/281/495 492/283/492 491/283/491 490/281/490
f 497/278/497 494/278/494 485/278/485 487/278/487
f 499/281/499 496/278/496 486/278/486 489/281/489
f 493/283/493 498/283/498 488/281/488 484/283/484
f 492/283/492 493/283/493 484/283/484 491/283/491
f 494/278/494 495/281/495 490/281/490 485/278/485
f 496/278/496 497/278/497 487/278/487 486/278/486
f 490/281/490 491/283/491 477/283/477 476/281/476
f 498/283/498 499/281/499 489/281/489 488/281/488
f 393/278/393 497/278/497 496/278/496 396/278/396
f 394/281/394 494/278/494 497/278/497 393/278/393
f 391/283/391 495/281/495 494/278/494 394/281/394
f 392/283/392 492/283/492 495/281/495 391/283/391
f 389/283/389 493/283/493 492/283/492 392/283/392
f 390/283/390 498/283/498 493/283/493 389/283/389
f 395/278/395 499/281/499 498/283/498 390/283/390
f 396/278/396 496/278/496 499/281/499 395/278/395
f 501/284/500 500/285/500 674/285/660 502/284/500
f 503/286/501 504/287/502 505/288/503
f 504/287/502 503/289/501 508/290/506
f 503/291/501 505/292/503 506/293/504
f 503/294/501 506/293/504 507/295/505
f 503/296/501 507/295/505 508/290/506
f 504/287/502 508/290/506 513/297/511
f 505/288/503 504/287/502 509/298/507
f 506/293/504 505/292/503 510/299/508
f 507/295/505 506/293/504 511/300/509
f 508/290/506 507/295/505 512/301/510
f 504/287/502 513/297/511 509/298/507
f 505/288/503 509/298/507 510/302/508
f 506/293/504 510/299/508 511/300/509
f 507/295/505 511/300/509 512/301/510
f 508/290/506 512/301/510 513/297/511
f 509/298/507 513/297/511 514/303/512
f 510/302/508 509/298/507 514/304/512
f 511/300/509 510/299/508 514/305/512
f 512/301/510 511/300/509 514/306/512
f 513/297/511 512/301/510 514/307/512
f 515/308/513 516/309/514 517/310/515
f 516/309/514 515/311/513 520/312/518
f 515/313/513 517/314/515 518/315/516
f 515/316/513 518/315/516 519/317/517
f 515/318/513 519/317/517 520/312/518
f 516/309/514 520/312/518 525/319/523
f 517/310/515 516/309/514 521/320/519
f 518/315/516 517/314/515 522/321/520
f 519/317/517 518/315/516 523/322/521
f 520/312/518 519/317/517 524/323/522
f 516/309/514 525/319/523 521/320/519
f 517/310/515 521/320/519 522/324/520
f 518/315/516 522/321/520 523/322/521
f 519/317/517 523/322/521 524/323/522
f 520/312/518 524/323/522 525/319/523
f 521/320/519 525/319/523 526/325/524
f 522/324/520 521/320/519 526/326/524
f 523/322/521 522/321/520 526/327/524
f 524/323/522 523/322/521 526/328/524
f 525/319/523 524/323/522 526/329/524
f 527/330/525 528/331/526 529/332/527
f 528/331/526 527/333/525 532/334/530
f 527/335/525 529/336/527 530/337/528
f 527/338/525 530/337/528 531/339/529
f 527/340/525 531/339/529 532/334/530
f 528/331/526 532/334/530 537/341/535
f 529/332/527 528/331/526 533/342/531
f 530/337/528 529/336/527 534/343/532
f 531/339/529 530/337/528 535/344/533
f 532/334/530 531/339/529 536/345/534
f 528/331/526 537/341/535 533/342/531
f 529/332/527 533/342/531 534/346/532
f 530/337/528 534/343/532 535/344/533
f 531/339/529 535/344/533 536/345/534
f 532/334/530 536/345/534 537/341/535
f 533/342/531 537/341/535 538/347/536
f 534/346/532 533/342/531 538/348/536
f 535/344/533 534/343/532 538/349/536
f 536/345/534 535/344/533 538/350/536
f 537/341/535 536/345/534 538/351/536
f 539/352/537 540/353/538 541/354/539
f 540/353/538 539/355/537 544/356/542
f 539/357/537 541/358/539 542/359/540
f 539/360/537 542/359/540 543/361/541
f 539/362/537 543/361/541 544/356/542
f 540/353/538 544/356/542 549/363/547
f 541/354/539 540/353/538 545/364/543
f 542/359/540 541/358/539 546/365/544
f 543/361/541 542/359/540 547/366/545
f 544/356/542 543/361/541 548/367/546
f 540/353/538 549/363/547 545/364/543
f 541/354/539 545/364/543 546/368/544
f 542/359/540 546/365/544 547/366/545
f 543/361/541 547/366/545 548/367/546
f 544/356/542 548/367/546 549/363/547
f 545/364/543 549/363/547 550/369/548
f 546/368/544 545/364/543 550/370/548
f 547/366/545 546/365/544 550/371/548
f 548/367/546 547/366/545 550/372/548
f 549/363/547 548/367/546 550/373/548
f 551/374/549 552/375/550 553/376/551
f 552/375/550 551/377/549 556/378/554
f 551/379/549 553/380/551 554/381/552
f 551/382/549 554/381/552 555/383/553
f 551/384/549 555/383/553 556/378/554
f 552/375/550 556/378/554 561/385/559
f 553/376/551 552/375/550 557/386/555
f 554/381/552 553/380/551 558/387/556
f 555/383/553 554/381/552 559/388/557
f 556/378/554 555/383/553 560/389/558
f 552/375/550 561/385/559 557/386/555
f 553/376/551 557/386/555 558/390/556
f 554/381/552 558/387/556 559/388/557
f 555/383/553 559/388/557 560/389/558
f 556/378/554 560/389/558 561/385/559
f 557/386/555 561/385/559 562/391/560
f 558/390/556 557/386/555 562/392/560
f 559/388/557 558/387/556 562/393/560
f 560/389/558 559/388/557 562/394/560
f 561/385/559 560/389/558 562/395/560
f 563/396/561 564/397/562 565/398/563
f 564/397/562 563/399/561 568/400/566
f 563/401/561 565/402/563 566/403/564
f 563/404/561 566/403/564 567/405/565
f 563/406/561 567/405/565 568/400/566
f 564/397/562 568/400/566 573/407/571
f 565/398/563 564/397/562 569/408/567
f 566/403/564 565/402/563 570/409/568
f 567/405/565 566/403/564 571/410/569
f 568/400/566 567/405/565 572/411/570
f 564/397/562 573/407/571 569/408/567
f 565/398/563 569/408/567 570/412/568
f 566/403/564 570/409/568 571/410/569
f 567/405/565 571/410/569 572/411/570
f 568/400/566 572/411/570 573/407/571
f 569/408/567 573/407/571 574/413/572
f 570/412/568 569/408/567 574/414/572
f 571/410/569 570/409/568 574/415/572
f 572/411/570 571/410/569 574/416/572
f 573/407/571 572/411/570 574/417/572
f 575/418/573 576/419/574 577/420/575
f 576/419/574 575/421/573 580/422/578
f 575/423/573 577/424/575 578/425/576
f 575/426/573 578/425/576 579/427/577
f 575/428/573 579/427/577 580/422/578
f 576/419/574 580/422/578 585/429/583
f 577/420/575 576/419/574 581/430/579
f 578/425/576 577/424/575 582/431/580
f 579/427/577 578/425/576 583/432/581
f 580/422/578 579/427/577 584/433/582
f 576/419/574 585/429/583 581/430/579
f 577/420/575 581/430/579 582/434/580
f 578/425/576 582/431/580 583/432/581
f 579/427/577 583/432/581 584/433/582
f 580/422/578 584/433/582 585/429/583
f 581/430/579 585/429/583 586/435/584
f 582/434/580 581/430/579 586/436/584
f 583/432/581 582/431/580 586/437/584
f 584/433/582 583/432/581 586/438/584
f 585/429/583 584/433/582 586/439/584
f 587/440/585 588/441/586 589/442/587
f 588/441/586 587/443/585 592/444/590
f 587/445/585 589/446/587 590/447/588
f 587/448/585 590/447/588 591/449/589
f 587/450/585 591/449/589 592/444/590
f 588/441/586 592/444/590 597/451/595
f 589/442/587 588/441/586 593/452/591
f 590/447/588 589/446/587 594/453/592
f 591/449/589 590/447/588 595/454/593
f 592/444/590 591/449/589 596/455/594
f 588/441/586 597/451/595 593/452/591
f 589/442/587 593/452/591 594/456/592
f 590/447/588 594/453/592 595/454/593
f 591/449/589 595/454/593 596/455/594
f 592/444/590 596/455/594 597/451/595
f 593/452/591 597/451/595 598/457/596
f 594/456/592 593/452/591 598/458/596
f 595/454/593 594/453/592 598/459/596
f 596/455/594 595/454/593 598/460/596
f 597/451/595 596/455/594 598/461/596
f 599/462/597 600/463/598 601/464/599
f 600/463/598 599/465/597 604/466/602
f 599/467/597 601/468/599 602/469/600
f 599/470/597 602/469/600 603/471/601
f 599/472/597 603/471/601 604/466/602
f 600/463/598 604/466/602 609/473/607
f 601/464/599 600/463/598 605/474/603
f 602/469/600 601/468/599 606/475/604
f 603/471/601 602/469/600 607/476/605
f 604/466/602 603/471/601 608/477/606
f 600/463/598 609/473/607 605/474/603
f 601/464/599 605/474/603 606/478/604
f 602/469/600 606/475/604 607/476/605
f 603/471/601 607/476/605 608/477/606
f 604/466/602 608/477/606 609/473/607
f 605/474/603 609/473/607 610/479/608
f 606/478/604 605/474/603 610/480/608
f 607/476/605 606/475/604 610/481/608
f 608/477/606 607/476/605 610/482/608
f 609/473/607 608/477/606 610/483/608
f 611/484/609 612/485/610 613/486/611
f 612/485/610 611/487/609 616/488/614
f 611/489/609 613/490/611 614/491/612
f 611/492/609 614/491/612 615/493/613
f 611/494/609 615/493/613 616/488/614
f 612/485/610 616/488/614 621/495/619
f 613/486/611 612/485/610 617/496/615
f 614/491/612 613/490/611 618/497/616
f 615/493/613 614/491/612 619/498/617
f 616/488/614 615/493/613 620/499/618
f 612/485/610 621/495/619 617/496/615
f 613/486/611 617/496/615 618/500/616
f 614/491/612 618/497/616 619/498/617
f 615/493/613 619/498/617 620/499/618
f 616/488/614 620/499/618 621/495/619
f 617/496/615 621/495/619 622/501/620
f 618/500/616 617/496/615 622/502/620
f 619/498/617 618/497/616 622/503/620
f 620/499/618 619/498/617 622/504/620
f 621/495/619 620/499/618 622/505/620
f 623/506/621 624/507/622 625/508/623
f 624/507/622 623/509/621 628/510/626
f 623/511/621 625/512/623 626/513/624
f 623/514/621 626/513/624 627/515/625
f 623/516/621 627/515/625 628/510/626
f 624/507/622 628/510/626 633/517/631
f 625/508/623 624/507/622 629/518/627
f 626/513/624 625/512/623 630/519/628
f 627/515/625 626/513/624 631/520/629
f 628/510/626 627/515/625 632/521/630
f 624/507/622 633/517/631 629/518/627
f 625/508/623 629/518/627 630/522/628
f 626/513/624 630/519/628 631/520/629
f 627/515/625 631/520/629 632/521/630
f 628/510/626 632/521/630 633/517/631
f 629/518/627 633/517/631 634/523/632
f 630/522/628 629/518/627 634/524/632
f 631/520/629 630/519/628 634/525/632
f 632/521/630 631/520/629 634/526/632
f 633/517/631 632/521/630 634/527/632
f 635/528/633 636/529/634 637/530/635
f 636/529/634 635/531/633 640/532/638
f 635/533/633 637/534/635 638/535/636
f 635/536/633 638/535/636 639/537/637
f 635/538/633 639/537/637 640/532/638
f 636/529/634 640/532/638 645/539/643
f 637/530/635 636/529/634 641/540/639
f 638/535/636 637/534/635 642/541/640
f 639/537/637 638/535/636 643/542/641
f 640/532/638 639/537/637 644/543/642
f 636/529/634 645/539/643 641/540/639
f 637/530/635 641/540/639 642/544/640
f 638/535/636 642/541/640 643/542/641
f 639/537/637 643/542/641 644/543/642
f 640/532/638 644/543/642 645/539/643
f 641/540/639 645/539/643 646/545/644
f 642/544/640 641/540/639 646/546/644
f 643/542/641 642/541/640 646/547/644
f 644/543/642 643/542/641 646/548/644
f 645/539/643 644/543/642 646/549/644
f 647/550/645 648/551/646 649/552/647
f 648/551/646 647/553/645 652/554/650
f 647/555/645 649/556/647 650/557/648
f 647/558/645 650/557/648 651/559/649
f 647/560/645 651/559/649 652/554/650
f 648/551/646 652/554/650 657/561/655
f 649/552/647 648/551/646 653/562/651
f 650/557/648 649/556/647 654/563/652
f 651/559/649 650/557/648 655/564/653
f 652/554/650 651/559/649 656/565/654
f 648/551/646 657/561/655 653/562/651
f 649/552/647 653/562/651 654/566/652
f 650/557/648 654/563/652 655/564/653
f 651/559/649 655/564/653 656/565/654
f 652/554/650 656/565/654 657/561/655
f 653/562/651 657/561/655 658/567/656
f 654/566/652 653/562/651 658/568/656
f 655/564/653 654/563/652 658/569/656
f 656/565/654 655/564/653 658/570/656
f 657/561/655 656/565/654 658/571/656
f 659/572/645 660/573/646 661/574/647
f 660/573/646 659/575/645 664/576/650
f 659/577/645 661/578/647 662/579/648
f 659/580/645 662/579/648 663/581/649
f 659/582/645 663/581/649 664/576/650
f 660/573/646 664/576/650 669/583/655
f 661/574/647 660/573/646 665/584/651
f 662/579/648 661/578/647 666/585/652
f 663/581/649 662/579/648 667/586/653
f 664/576/650 663/581/649 668/587/654
f 660/573/646 669/583/655 665/584/651
f 661/574/647 665/584/651 666/588/652
f 662/579/648 666/585/652 667/586/653
f 663/581/649 667/586/653 668/587/654
f 664/576/650 668/587/654 669/583/655
f 665/584/651 669/583/655 670/589/656
f 666/588/652 665/584/651 670/590/656
f 667/586/653 666/585/652 670/591/656
f 668/587/654 667/586/653 670/592/656
f 669/583/655 668/587/654 670/593/656
f 673/50/659 676/594/662 672/40/658 54/40/54 64/51/64
f 671/595/657 680/596/666 681/597/667 675/598/661
f 675/598/661 681/597/667 682/285/668 673/599/659
f 673/599/659 682/285/668 683/284/669 676/600/662
f 676/600/662 683/284/669 684/601/670 672/602/658
f 672/602/658 684/601/670 685/603/671 677/604/663
f 677/604/663 685/603/671 686/605/672 678/606/664
f 684/601/670 683/284/669 691/284/677 692/601/678
f 678/606/664 686/605/672 687/607/673 679/608/665
f 679/608/665 687/607/673 680/609/666 671/610/657
f 691/284/677 690/285/676 698/285/684 699/284/685
f 687/607/673 686/605/672 694/605/680 695/607/681
f 682/285/668 681/597/667 688/597/674 690/285/676
f 685/603/671 684/601/670 692/601/678 693/603/679
f 680/609/666 687/607/673 695/607/681 689/609/675
f 681/597/667 680/596/666 689/596/675 688/597/674
f 683/284/669 682/285/668 690/285/676 691/284/677
f 686/605/672 685/603/671 693/603/679 694/605/680
f 698/285/684 696/597/682 704/597/690 706/285/692
f 688/597/674 689/596/675 697/596/683 696/597/682
f 689/609/675 695/607/681 703/607/689 697/609/683
f 694/605/680 693/603/679 701/603/687 702/605/688
f 692/601/678 691/284/677 699/284/685 700/601/686
f 690/285/676 688/597/674 696/597/682 698/285/684
f 695/607/681 694/605/680 702/605/688 703/607/689
f 693/603/679 692/601/678 700/601/686 701/603/687
f 705/609/691 711/607/697 719/607/705 713/609/699
f 703/607/689 702/605/688 710/605/696 711/607/697
f 701/603/687 700/601/686 708/601/694 709/603/695
f 699/284/685 698/285/684 706/285/692 707/284/693
f 696/597/682 697/596/683 705/596/691 704/597/690
f 697/609/683 703/607/689 711/607/697 705/609/691
f 702/605/688 701/603/687 709/603/695 710/605/696
f 700/601/686 699/284/685 707/284/693 708/601/694
f 713/609/699 719/607/705 723/607/709 724/609/710
f 710/605/696 709/603/695 717/603/703 718/605/704
f 708/601/694 707/284/693 715/284/701 716/601/702
f 706/285/692 704/597/690 712/597/698 714/285/700
f 711/607/697 710/605/696 718/605/704 719/607/705
f 709/603/695 708/601/694 716/601/702 717/603/703
f 707/284/693 706/285/692 714/285/700 715/284/701
f 704/597/690 705/596/691 713/596/699 712/597/698
f 715/284/701 714/285/700 747/285/733 748/284/734
f 724/609/710 723/607/709 728/607/714 729/609/715
f 716/601/702 713/609/699 724/609/710 721/601/707
f 718/605/704 717/603/703 720/603/706 722/605/708
f 719/607/705 718/605/704 722/605/708 723/607/709
f 717/603/703 716/601/702 721/601/707 720/603/706
f 726/601/712 729/609/715 734/609/720 731/601/717
f 722/605/708 720/603/706 725/603/711 727/605/713
f 721/601/707 724/609/710 729/609/715 726/601/712
f 723/607/709 722/605/708 727/605/713 728/607/714
f 720/603/706 721/601/707 726/601/712 725/603/711
f 734/609/720 733/607/719 738/607/724 739/609/725
f 728/607/714 727/605/713 732/605/718 733/607/719
f 725/603/711 726/601/712 731/601/717 730/603/716
f 729/609/715 728/607/714 733/607/719 734/609/720
f 727/605/713 725/603/711 730/603/716 732/605/718
f 739/609/725 738/607/724 743/607/729 744/609/730
f 732/605/718 730/603/716 735/603/721 737/605/723
f 731/601/717 734/609/720 739/609/725 736/601/722
f 733/607/719 732/605/718 737/605/723 738/607/724
f 730/603/716 731/601/717 736/601/722 735/603/721
f 737/605/723 735/603/721 740/603/726 742/605/728
f 736/601/722 739/609/725 744/609/730 741/601/727
f 738/607/724 737/605/723 742/605/728 743/607/729
f 735/603/721 736/601/722 741/601/727 740/603/726
f 749/601/735 748/284/734 753/284/739 754/601/740
f 712/597/698 713/596/699 746/596/732 745/597/731
f 713/609/699 716/601/702 749/601/735 746/609/732
f 716/601/702 715/284/701 748/284/734 749/601/735
f 714/285/700 712/597/698 745/597/731 747/285/733
f 753/284/739 752/285/738 757/285/743 758/284/744
f 747/285/733 745/597/731 750/597/736 752/285/738
f 746/609/732 749/601/735 754/601/740 751/609/737
f 748/284/734 747/285/733 752/285/738 753/284/739
f 745/597/731 746/596/732 751/596/737 750/597/736
f 759/601/745 758/284/744 762/284/748 763/601/749
f 750/597/736 751/596/737 756/596/742 755/597/741
f 754/601/740 753/284/739 758/284/744 759/601/745
f 752/285/738 750/597/736 755/597/741 757/285/743
f 751/609/737 754/601/740 759/601/745 756/609/742
f 757/285/743 755/597/741 760/597/746 674/285/660
f 756/609/742 759/601/745 763/601/749 761/609/747
f 755/597/741 756/596/742 761/596/747 760/597/746
f 764/611/750 765/612/751 766/613/752
f 765/612/751 764/614/750 769/615/755
f 764/616/750 766/617/752 767/618/753
f 764/619/750 767/618/753 768/620/754
f 764/621/750 768/620/754 769/615/755
f 765/612/751 769/615/755 774/622/760
f 766/613/752 765/612/751 770/623/756
f 767/618/753 766/617/752 771/624/757
f 768/620/754 767/618/753 772/625/758
f 769/615/755 768/620/754 773/626/759
f 765/612/751 774/622/760 770/623/756
f 766/613/752 770/623/756 771/627/757
f 767/618/753 771/624/757 772/625/758
f 768/620/754 772/625/758 773/626/759
f 769/615/755 773/626/759 774/622/760
f 770/623/756 774/622/760 775/628/761
f 771/627/757 770/623/756 775/629/761
f 772/625/758 771/624/757 775/630/761
f 773/626/759 772/625/758 775/631/761
f 774/622/760 773/626/759 775/632/761
f 776/633/645 777/634/646 778/635/647
f 777/634/646 776/636/645 781/637/650
f 776/638/645 778/639/647 779/640/648
f 776/641/645 779/640/648 780/642/649
f 776/643/645 780/642/649 781/637/650
f 777/634/646 781/637/650 786/644/655
f 778/635/647 777/634/646 782/645/651
f 779/640/648 778/639/647 783/646/652
f 780/642/649 779/640/648 784/647/653
f 781/637/650 780/642/649 785/648/654
f 777/634/646 786/644/655 782/645/651
f 778/635/647 782/645/651 783/649/652
f 779/640/648 783/646/652 784/647/653
f 780/642/649 784/647/653 785/648/654
f 781/637/650 785/648/654 786/644/655
f 782/645/651 786/644/655 787/650/656
f 783/649/652 782/645/651 787/651/656
f 784/647/653 783/646/652 787/652/656
f 785/648/654 784/647/653 787/653/656
f 786/644/655 785/648/654 787/654/656
