# Blender 5.0.0
# www.blender.org
o Stone_Ring
v -0.073538 0.171000 0.672117
v -0.101209 0.111323 0.686944
v -0.108068 0.169863 0.612513
v 0.077656 0.217286 0.701888
v -0.147279 0.120998 0.625843
v -0.004283 0.221633 0.630476
v 0.016877 0.146829 0.732307
v 0.088476 0.095149 0.741460
v 0.137933 0.175126 0.733502
v -0.033097 0.057707 0.710257
v 0.089318 0.050645 0.717646
v -0.117485 0.088376 0.673475
v -0.001293 0.022669 0.672033
v -0.095239 0.045210 0.663277
v -0.145651 0.076782 0.627947
v -0.099628 0.042260 0.609405
v 0.022686 0.018161 0.616527
v -0.104377 0.066853 0.570733
v -0.005028 0.033245 0.575856
v 0.122332 0.060960 0.525878
v 0.138311 0.025433 0.590453
v -0.015267 0.070669 0.538316
v 0.011416 0.147628 0.518025
v 0.090819 0.212883 0.536245
v 0.171515 0.198097 0.521402
v -0.068258 0.158064 0.546010
v -0.128476 0.105445 0.567726
v 0.162297 0.144873 0.501514
v 0.194565 0.113750 0.507516
v 0.227219 0.148510 0.518020
v 0.218308 0.193642 0.533661
v 0.244887 0.177748 0.558038
v 0.234761 0.114677 0.529500
v 0.205005 0.073776 0.528967
v 0.242947 0.097531 0.562245
v 0.224316 0.076777 0.638850
v 0.249218 0.165280 0.602468
v 0.247382 0.115685 0.603890
v 0.206422 0.050662 0.579112
v 0.197541 0.050071 0.643958
v 0.125475 0.024353 0.665503
v 0.171170 0.054261 0.689054
v 0.163238 0.097582 0.724359
v 0.226141 0.126421 0.672498
v 0.214356 0.175431 0.684710
v 0.184082 0.215154 0.685238
v 0.221225 0.214749 0.623036
v 0.197289 0.225899 0.560396
v 0.184235 0.238780 0.623907
v 0.126515 0.247867 0.634916
v 0.079826 0.235263 0.572967
v -0.034408 0.199857 0.564543
v -0.117793 0.153073 0.577190
v -0.650227 0.217155 0.191645
v -0.689653 0.170971 0.162327
v -0.607264 0.211450 0.138093
v -0.616989 0.230017 0.348546
v -0.645729 0.177990 0.099314
v -0.576355 0.238600 0.248009
v -0.683895 0.185295 0.292805
v -0.685229 0.120858 0.353856
v -0.639357 0.182324 0.408840
v -0.705445 0.108699 0.225018
v -0.676445 0.073402 0.339049
v -0.689201 0.150371 0.138911
v -0.671300 0.059334 0.234890
v -0.685750 0.101894 0.148922
v -0.660077 0.136338 0.094692
v -0.639209 0.088293 0.124857
v -0.614987 0.036889 0.236046
v -0.598472 0.104125 0.110270
v -0.582307 0.048986 0.198158
v -0.489679 0.032601 0.301300
v -0.553599 0.009400 0.333912
v -0.540532 0.078530 0.180938
v -0.491404 0.140055 0.210052
v -0.464301 0.186011 0.299765
v -0.430307 0.148830 0.366194
v -0.538250 0.175783 0.148660
v -0.591884 0.145827 0.093047
v -0.430735 0.096502 0.342217
v -0.435327 0.060488 0.369194
v -0.424585 0.087528 0.408415
v -0.428276 0.135766 0.412937
v -0.446795 0.119586 0.443735
v -0.442556 0.056281 0.414249
v -0.463225 0.024934 0.380356
v -0.474688 0.045316 0.430997
v -0.555843 0.047268 0.438489
v -0.489323 0.116569 0.461917
v -0.505697 0.070548 0.453029
v -0.514941 0.013856 0.396281
v -0.576544 0.029821 0.411594
v -0.625799 0.028137 0.349223
v -0.624265 0.050258 0.404409
v -0.645981 0.100890 0.416693
v -0.571199 0.101087 0.460118
v -0.571537 0.152936 0.461358
v -0.569721 0.198014 0.439923
v -0.502087 0.174705 0.451377
v -0.449511 0.177302 0.408365
v -0.507248 0.206714 0.421456
v -0.532352 0.231991 0.373851
v -0.494374 0.217957 0.306494
v -0.532348 0.210937 0.192992
v -0.583209 0.190211 0.113712
v -0.685112 0.150019 -0.241649
v -0.691340 0.090342 -0.272417
v -0.618088 0.148882 -0.257546
v -0.757172 0.196306 -0.105439
v -0.619559 0.100018 -0.298935
v -0.665185 0.200653 -0.163335
v -0.768795 0.125848 -0.172404
v -0.798185 0.074169 -0.106476
v -0.804810 0.154145 -0.056823
v -0.733284 0.036726 -0.213908
v -0.775622 0.029665 -0.098810
v -0.673753 0.067396 -0.284124
v -0.705842 0.001688 -0.172442
v -0.670396 0.024230 -0.259884
v -0.622042 0.055801 -0.297982
v -0.617543 0.021279 -0.248569
v -0.659596 -0.002819 -0.133490
v -0.579142 0.045873 -0.241977
v -0.612665 0.012265 -0.148314
v -0.601492 0.039980 -0.011956
v -0.667933 0.004452 -0.015256
v -0.573767 0.049688 -0.147306
v -0.562022 0.126648 -0.115909
v -0.602343 0.191903 -0.045120
v -0.611373 0.177117 0.036432
v -0.565871 0.137084 -0.200267
v -0.569321 0.084464 -0.264188
v -0.589673 0.123892 0.033332
v -0.604715 0.092769 0.062504
v -0.624180 0.127529 0.090749
v -0.636591 0.172661 0.077710
v -0.667591 0.156768 0.096140
v -0.637346 0.093696 0.094664
v -0.628264 0.052796 0.066323
v -0.671061 0.076551 0.093070
v -0.739053 0.055796 0.053164
v -0.711386 0.144299 0.087489
v -0.712219 0.094705 0.085322
v -0.676692 0.029682 0.053235
v -0.736231 0.029090 0.026052
v -0.736104 0.003372 -0.049165
v -0.771820 0.033280 -0.012192
v -0.803343 0.076601 -0.029957
v -0.771800 0.105441 0.045219
v -0.780100 0.154450 0.030416
v -0.771884 0.194173 0.001272
v -0.723019 0.193769 0.054759
v -0.656138 0.204918 0.049881
v -0.713197 0.217799 0.019085
v -0.707113 0.226886 -0.039359
v -0.634341 0.214283 -0.066224
v -0.593370 0.178877 -0.173190
v -0.581460 0.132093 -0.256684
v -0.300176 0.150019 -0.559275
v -0.323664 0.090342 -0.538446
v -0.347564 0.148882 -0.609268
v -0.146197 0.196306 -0.565307
v -0.382625 0.100018 -0.587225
v -0.242440 0.200653 -0.615815
v -0.198285 0.125848 -0.521646
v -0.126511 0.074169 -0.529314
v -0.080239 0.154145 -0.548503
v -0.252006 0.036726 -0.531531
v -0.131205 0.029665 -0.552676
v -0.342616 0.067396 -0.547782
v -0.229912 0.001688 -0.576078
v -0.323334 0.024230 -0.562852
v -0.380554 0.055801 -0.585555
v -0.340072 0.021279 -0.614245
v -0.219431 -0.002819 -0.635627
v -0.353644 0.045873 -0.650768
v -0.255807 0.012265 -0.668779
v -0.143472 0.039980 -0.746878
v -0.112981 0.004452 -0.687755
v -0.274456 0.049688 -0.702930
v -0.253194 0.126648 -0.728846
v -0.171730 0.191903 -0.729498
v -0.096661 0.177117 -0.762616
v -0.324227 0.137084 -0.683180
v -0.377784 0.084464 -0.648116
v -0.110232 0.123892 -0.779830
v -0.077451 0.092769 -0.781460
v -0.043252 0.127529 -0.778799
v -0.048301 0.172661 -0.761521
v -0.016802 0.156768 -0.743957
v -0.033257 0.093696 -0.769376
v -0.062330 0.052796 -0.763008
v -0.017715 0.076551 -0.739415
v -0.018109 0.055796 -0.660578
v -0.002305 0.144299 -0.701735
v -0.003762 0.094705 -0.699927
v -0.049345 0.029682 -0.714553
v -0.042976 0.029090 -0.649412
v -0.108098 0.003372 -0.611772
v -0.058193 0.033280 -0.599436
v -0.057738 0.076601 -0.563255
v -0.008546 0.105441 -0.628266
v -0.017184 0.154450 -0.613658
v -0.046515 0.194173 -0.606138
v -0.024777 0.193769 -0.675247
v -0.062561 0.204918 -0.730646
v -0.060561 0.217799 -0.665838
v -0.114165 0.226886 -0.641769
v -0.173925 0.214283 -0.691230
v -0.287007 0.178877 -0.672984
v -0.365201 0.132093 -0.641382
v 0.035445 0.150019 -0.588229
v 0.004107 0.090342 -0.586388
v 0.029126 0.148882 -0.656822
v 0.160175 0.196306 -0.497740
v -0.012059 0.100018 -0.661184
v 0.115783 0.200653 -0.596952
v 0.092241 0.125848 -0.495645
v 0.153385 0.074169 -0.457281
v 0.201613 0.154145 -0.443743
v 0.056140 0.036726 -0.536636
v 0.164145 0.029665 -0.478542
v -0.005012 0.067396 -0.605445
v 0.101052 0.001688 -0.557979
v 0.019459 0.024230 -0.605362
v -0.011464 0.055801 -0.658591
v 0.038091 0.021279 -0.656100
v 0.146117 -0.002819 -0.598291
v 0.050014 0.045873 -0.693193
v 0.138036 0.012265 -0.646839
v 0.274611 0.039980 -0.638737
v 0.262006 0.004452 -0.573419
v 0.144501 0.049688 -0.685209
v 0.177237 0.126648 -0.692425
v 0.241657 0.191903 -0.642555
v 0.321130 0.177117 -0.622153
v 0.093176 0.137084 -0.700470
v 0.029404 0.084464 -0.706039
v 0.321111 0.123892 -0.644073
v 0.347879 0.092769 -0.625080
v 0.373107 0.127529 -0.601839
v 0.358454 0.172661 -0.591383
v 0.372344 0.156768 -0.558100
v 0.375134 0.093696 -0.588253
v 0.348350 0.052796 -0.601229
v 0.368817 0.076551 -0.555097
v 0.319750 0.055796 -0.493389
v 0.357624 0.144299 -0.515957
v 0.355360 0.094705 -0.515437
v 0.328586 0.029682 -0.555121
v 0.293304 0.029090 -0.499993
v 0.218851 0.003372 -0.510690
v 0.250438 0.033280 -0.470132
v 0.228419 0.076601 -0.441419
v 0.307282 0.105441 -0.462083
v 0.291459 0.154450 -0.455946
v 0.263760 0.194173 -0.468176
v 0.323583 0.193769 -0.509040
v 0.328153 0.204918 -0.575941
v 0.289644 0.217799 -0.523777
v 0.232635 0.226886 -0.538015
v 0.216264 0.214283 -0.613840
v 0.116119 0.178877 -0.669439
v 0.035128 0.132093 -0.692965
v 0.603240 0.150019 -0.290314
v 0.629295 0.090342 -0.272802
v 0.566733 0.148882 -0.231901
v 0.558775 0.196306 -0.437856
v 0.596866 0.100018 -0.203490
v 0.534025 0.200653 -0.332021
v 0.614107 0.125848 -0.398386
v 0.588680 0.074169 -0.465942
v 0.558497 0.154145 -0.505921
v 0.618014 0.036726 -0.343903
v 0.567242 0.029665 -0.455538
v 0.625011 0.067396 -0.252114
v 0.569349 0.001688 -0.354116
v 0.605587 0.024230 -0.266999
v 0.597963 0.055801 -0.205914
v 0.560035 0.021279 -0.237904
v 0.509074 -0.002819 -0.349324
v 0.528085 0.045873 -0.215605
v 0.486107 0.012265 -0.305796
v 0.382326 0.039980 -0.394947
v 0.431911 0.004452 -0.439295
v 0.457726 0.049688 -0.279176
v 0.427305 0.126648 -0.293257
v 0.406239 0.191903 -0.371953
v 0.355349 0.177117 -0.436314
v 0.489330 0.137084 -0.235951
v 0.536708 0.084464 -0.192902
v 0.342090 0.123893 -0.418859
v 0.332289 0.092769 -0.450183
v 0.326286 0.127529 -0.483956
v 0.344278 0.172661 -0.483403
v 0.353379 0.156768 -0.518301
v 0.332901 0.093696 -0.495995
v 0.346358 0.052796 -0.469449
v 0.358005 0.076551 -0.518555
v 0.434420 0.055796 -0.537950
v 0.390614 0.144299 -0.542925
v 0.392730 0.094705 -0.541968
v 0.390007 0.029682 -0.494174
v 0.451467 0.029090 -0.516680
v 0.504239 0.003372 -0.463082
v 0.503662 0.033280 -0.514485
v 0.538572 0.076601 -0.524002
v 0.463300 0.105441 -0.555313
v 0.479608 0.154450 -0.550615
v 0.494245 0.194173 -0.524109
v 0.421893 0.193769 -0.527816
v 0.377743 0.204918 -0.477343
v 0.439977 0.217799 -0.495536
v 0.476723 0.226886 -0.449684
v 0.443835 0.214283 -0.379428
v 0.489863 0.178877 -0.274538
v 0.540070 0.132093 -0.206772
v -0.551179 0.150019 -0.327979
v -0.559618 0.090342 -0.297742
v -0.618105 0.148882 -0.344283
v -0.425081 0.196306 -0.416551
v -0.635608 0.100018 -0.306749
v -0.533333 0.200653 -0.406793
v -0.445167 0.125848 -0.351621
v -0.389022 0.074169 -0.396986
v -0.360551 0.154145 -0.438202
v -0.495662 0.036726 -0.330792
v -0.405635 0.029665 -0.414070
v -0.580604 0.067396 -0.295308
v -0.501258 0.001688 -0.380201
v -0.572576 0.024230 -0.318425
v -0.632963 0.055801 -0.306469
v -0.614511 0.021279 -0.352528
v -0.524746 -0.002819 -0.435917
v -0.645719 0.045873 -0.375853
v -0.573287 0.012265 -0.444044
v -0.521260 0.039980 -0.570581
v -0.463578 0.004452 -0.537443
v -0.607476 0.049688 -0.462623
v -0.603667 0.126648 -0.495928
v -0.535576 0.191903 -0.540655
v -0.490464 0.177117 -0.609191
v -0.638582 0.137084 -0.419038
v -0.664563 0.084464 -0.360534
v -0.511202 0.123892 -0.616293
v -0.484544 0.092769 -0.635440
v -0.454368 0.127529 -0.651751
v -0.449240 0.172661 -0.634496
v -0.413250 0.156768 -0.636821
v -0.440860 0.093696 -0.649254
v -0.461833 0.052796 -0.628138
v -0.411554 0.076551 -0.632510
v -0.369131 0.055796 -0.566059
v -0.378173 0.144299 -0.609210
v -0.378416 0.094705 -0.606900
v -0.424645 0.029682 -0.594469
v -0.383968 0.029090 -0.543192
v -0.418269 0.003372 -0.476252
v -0.369651 0.033280 -0.492952
v -0.349647 0.076601 -0.462800
v -0.343574 0.105441 -0.544098
v -0.342909 0.154450 -0.527140
v -0.363473 0.194173 -0.504915
v -0.382688 0.193769 -0.574768
v -0.444477 0.204918 -0.600823
v -0.407651 0.217799 -0.547457
v -0.439635 0.226886 -0.498164
v -0.516667 0.214283 -0.507312
v -0.601781 0.178877 -0.430657
v -0.650339 0.132093 -0.361700
v 0.667882 0.150019 0.102647
v 0.680708 0.090342 0.131300
v 0.605978 0.148882 0.132861
v 0.708305 0.196305 -0.046053
v 0.616493 0.100018 0.172919
v 0.631259 0.200653 0.030613
v 0.734335 0.125848 0.016731
v 0.748545 0.074169 -0.054039
v 0.744116 0.154145 -0.103936
v 0.708795 0.036726 0.065015
v 0.724850 0.029665 -0.056568
v 0.666118 0.067396 0.146580
v 0.672924 0.001688 0.030579
v 0.657525 0.024230 0.123667
v 0.618707 0.055801 0.171445
v 0.603477 0.021279 0.124222
v 0.619259 -0.002819 0.002722
v 0.564566 0.045873 0.126216
v 0.576724 0.012265 0.027480
v 0.535908 0.039980 -0.103105
v 0.601454 0.004452 -0.114462
v 0.538552 0.049688 0.035030
v 0.520205 0.126648 0.006974
v 0.544014 0.191903 -0.070936
v 0.534933 0.177117 -0.152482
v 0.542467 0.137084 0.088433
v 0.559856 0.084464 0.150040
v 0.514442 0.123892 -0.144697
v 0.522718 0.092769 -0.176459
v 0.535511 0.127529 -0.208285
v 0.550481 0.172661 -0.198287
v 0.576683 0.156768 -0.223069
v 0.547499 0.093696 -0.214994
v 0.544855 0.052796 -0.185350
v 0.580742 0.076551 -0.220835
v 0.655832 0.055796 -0.196817
v 0.621308 0.144299 -0.224236
v 0.622596 0.094705 -0.222304
v 0.594974 0.029682 -0.183206
v 0.659027 0.029090 -0.169746
v 0.675404 0.003372 -0.096334
v 0.702138 0.033280 -0.140242
v 0.736791 0.076601 -0.129825
v 0.689524 0.105441 -0.196249
v 0.700869 0.154450 -0.183628
v 0.699247 0.194173 -0.153392
v 0.639838 0.193769 -0.194855
v 0.575658 0.204918 -0.175424
v 0.638082 0.217799 -0.157896
v 0.644968 0.226886 -0.099541
v 0.579863 0.214283 -0.057365
v 0.563356 0.178877 0.055983
v 0.570053 0.132093 0.140056
v 0.590594 0.150019 0.197697
v 0.594405 0.090342 0.166537
v 0.659207 0.148882 0.203787
v 0.479194 0.196306 0.304168
v 0.670888 0.100018 0.164054
v 0.584761 0.200653 0.278296
v 0.489321 0.125848 0.236960
v 0.440610 0.074169 0.290228
v 0.418638 0.154145 0.335245
v 0.536125 0.036726 0.208799
v 0.459595 0.029665 0.304629
v 0.614789 0.067396 0.160985
v 0.549063 0.001688 0.256812
v 0.610317 0.024230 0.185045
v 0.668230 0.055801 0.164173
v 0.656889 0.021279 0.212478
v 0.580636 -0.002819 0.308378
v 0.691241 0.045873 0.230862
v 0.629846 0.012265 0.309139
v 0.597370 0.039980 0.442044
v 0.535374 0.004452 0.417924
v 0.666433 0.049688 0.322384
v 0.667658 0.126648 0.355883
v 0.607040 0.191903 0.410310
v 0.572709 0.177117 0.484832
v 0.690656 0.137084 0.274629
v 0.707576 0.084464 0.212892
v 0.594277 0.123893 0.488747
v 0.570789 0.092769 0.511673
v 0.543399 0.127529 0.532322
v 0.535742 0.172661 0.516030
v 0.500507 0.156768 0.523723
v 0.529670 0.093696 0.531877
v 0.547241 0.052796 0.507856
v 0.498185 0.076551 0.519714
v 0.446282 0.055796 0.460372
v 0.461688 0.144299 0.501680
v 0.461583 0.094705 0.499360
v 0.505427 0.029682 0.480141
v 0.457524 0.029090 0.435540
v 0.481406 0.003372 0.364215
v 0.435839 0.033280 0.388012
v 0.411542 0.076601 0.361199
v 0.417722 0.105441 0.442489
v 0.414523 0.154450 0.425822
v 0.431525 0.194173 0.400766
v 0.460991 0.193769 0.466951
v 0.525987 0.204918 0.483451
v 0.481579 0.217799 0.436207
v 0.505814 0.226886 0.382678
v 0.583347 0.214283 0.380177
v 0.656012 0.178877 0.291632
v 0.693687 0.132093 0.216177
v -0.177439 0.167631 0.566131
v -0.490592 0.070407 0.562458
v -0.418954 0.057592 0.603838
v -0.465672 0.141504 0.606691
v -0.324576 0.144259 0.662633
v -0.464524 0.194729 0.584801
v -0.500158 0.190273 0.552089
v -0.516647 0.111308 0.548075
v -0.508575 0.094162 0.515302
v -0.493027 0.112317 0.476415
v -0.385842 0.050892 0.436759
v -0.456293 0.073408 0.456293
v -0.399040 0.211785 0.434097
v -0.335682 0.171757 0.413005
v -0.288242 0.091780 0.429091
v -0.300119 0.047276 0.449750
v -0.356458 0.020984 0.478940
v -0.371677 0.244498 0.505493
v -0.359365 0.231894 0.582082
v -0.177677 0.102076 0.684095
v -0.182696 0.149705 0.670736
v -0.146047 0.107954 0.565960
v -0.162388 0.041841 0.584091
v -0.174780 0.166494 0.634963
v -0.291502 0.067300 0.657169
v -0.197574 0.063484 0.670171
v -0.262321 0.196488 0.642932
v -0.386250 0.209514 0.609405
v -0.297176 0.213917 0.469132
v -0.491392 0.110381 0.586301
v -0.515347 0.145141 0.561750
v -0.512257 0.174379 0.518114
v -0.495314 0.161911 0.476813
v -0.426050 0.172062 0.420410
v -0.442176 0.123053 0.425696
v -0.362326 0.094213 0.409258
v -0.241061 0.154695 0.675141
v -0.468402 0.047293 0.517468
v -0.430236 0.046702 0.464296
v -0.402890 0.022064 0.539283
v -0.460954 0.211381 0.471718
v -0.469078 0.222530 0.538282
v -0.427847 0.235411 0.488241
v -0.137955 0.085007 0.585476
v -0.134341 0.073413 0.638890
v -0.133885 0.117629 0.641511
v -0.283004 0.029877 0.619198
v -0.288489 0.014793 0.570288
v -0.241343 0.019300 0.532431
v -0.183693 0.038891 0.633765
v -0.258127 0.218265 0.570566
v -0.229227 0.143460 0.470655
v -0.195358 0.054338 0.513510
v 0.381313 0.150019 0.561483
v 0.400662 0.090342 0.586204
v 0.328507 0.148882 0.605715
v 0.384738 0.196306 0.407424
v 0.348359 0.100018 0.642062
v 0.328422 0.200653 0.500387
v 0.425122 0.125848 0.462092
v 0.421871 0.074169 0.389983
v 0.405557 0.154145 0.342621
v 0.411960 0.036726 0.515106
v 0.398265 0.029665 0.393235
v 0.390181 0.067396 0.604548
v 0.368852 0.001688 0.490321
v 0.376323 0.024230 0.584378
v 0.350152 0.055801 0.640098
v 0.323999 0.021279 0.597932
v 0.310058 -0.002819 0.476207
v 0.286713 0.045873 0.609238
v 0.274737 0.012265 0.510480
v 0.203676 0.039980 0.393566
v 0.264559 0.004452 0.366759
v 0.239507 0.049688 0.526999
v 0.214943 0.126648 0.504187
v 0.219290 0.191903 0.422837
v 0.190839 0.177117 0.345877
v 0.256166 0.137084 0.577888
v 0.287879 0.084464 0.633495
v 0.172826 0.123893 0.358367
v 0.173210 0.092769 0.325547
v 0.177963 0.127529 0.291577
v 0.194900 0.172661 0.297676
v 0.214363 0.156768 0.267313
v 0.187982 0.093696 0.282179
v 0.192554 0.052796 0.311587
v 0.218840 0.076551 0.268504
v 0.297504 0.055796 0.273733
v 0.257394 0.144299 0.255434
v 0.259109 0.094705 0.256999
v 0.241715 0.029682 0.301599
v 0.307124 0.029090 0.299238
v 0.340698 0.003372 0.366546
v 0.356072 0.033280 0.317492
v 0.392213 0.076601 0.319257
v 0.330342 0.105441 0.266171
v 0.344393 0.154450 0.275688
v 0.350099 0.194173 0.305425
v 0.282454 0.193769 0.279488
v 0.224841 0.204918 0.313803
v 0.289650 0.217799 0.315783
v 0.310385 0.226886 0.370762
v 0.257352 0.214283 0.427375
v 0.268626 0.178877 0.541363
v 0.295372 0.132093 0.621348
vn -0.5060 0.6552 0.5610
vn -0.5732 0.1642 0.8028
vn -0.6258 0.7776 0.0607
vn -0.1325 0.7721 0.6215
vn -0.9453 0.2891 0.1509
vn -0.3340 0.9334 0.1312
vn -0.2617 0.2617 0.9290
vn 0.0318 -0.2102 0.9772
vn 0.2206 0.3401 0.9142
vn -0.2830 -0.4763 0.8325
vn 0.0824 -0.6805 0.7281
vn -0.6932 -0.1757 0.6990
vn -0.1218 -0.9364 0.3291
vn -0.4741 -0.7686 0.4295
vn -0.9060 -0.4149 0.0834
vn -0.4284 -0.8815 -0.1986
vn -0.0582 -0.9911 -0.1194
vn -0.4681 -0.5586 -0.6847
vn -0.1391 -0.8667 -0.4790
vn -0.0028 -0.6130 -0.7901
vn 0.1734 -0.9586 -0.2259
vn -0.2051 -0.4639 -0.8618
vn -0.2067 0.1455 -0.9675
vn -0.1006 0.6628 -0.7420
vn 0.0935 0.5629 -0.8212
vn -0.3946 0.3547 -0.8476
vn -0.7204 -0.0748 -0.6895
vn 0.0249 0.0893 -0.9957
vn 0.2250 -0.2203 -0.9491
vn 0.5987 0.1316 -0.7901
vn 0.5116 0.5548 -0.6561
vn 0.8987 0.3530 -0.2600
vn 0.7737 -0.2282 -0.5910
vn 0.4137 -0.6381 -0.6494
vn 0.9017 -0.3864 -0.1938
vn 0.8111 -0.5026 0.2993
vn 0.9735 0.1900 0.1270
vn 0.9733 -0.1933 0.1241
vn 0.5437 -0.8235 -0.1622
vn 0.5622 -0.7943 0.2304
vn 0.1969 -0.9413 0.2743
vn 0.4888 -0.6591 0.5716
vn 0.4579 -0.2627 0.8493
vn 0.8307 -0.1303 0.5412
vn 0.7416 0.2601 0.6184
vn 0.4223 0.6969 0.5797
vn 0.7381 0.6545 0.1639
vn 0.3635 0.8583 -0.3622
vn 0.3389 0.9365 0.0897
vn 0.0176 0.9915 0.1292
vn -0.1295 0.9353 -0.3292
vn -0.3539 0.7939 -0.4944
vn -0.6960 0.5425 -0.4704
vn -0.4719 0.8672 -0.1590
vn -0.8553 0.4741 -0.2093
vn -0.0203 0.9018 -0.4318
vn -0.3773 0.8985 0.2243
vn -0.3434 0.5398 -0.7685
vn 0.0515 0.9922 -0.1139
vn -0.8449 0.5169 0.1379
vn -0.9361 0.0098 0.3516
vn -0.6598 0.4683 0.5877
vn -0.9802 -0.1954 -0.0316
vn -0.8328 -0.5016 0.2343
vn -0.8979 0.1601 -0.4101
vn -0.6096 -0.7806 -0.1381
vn -0.7600 -0.5130 -0.3991
vn -0.4764 -0.1490 -0.8665
vn -0.2105 -0.7696 -0.6029
vn -0.2001 -0.9471 -0.2511
vn 0.3118 -0.5625 -0.7657
vn 0.1369 -0.8891 -0.4368
vn 0.5348 -0.7522 -0.3850
vn -0.0227 -0.9971 -0.0719
vn 0.5809 -0.5774 -0.5738
vn 0.8545 -0.0254 -0.5188
vn 0.8346 0.4862 -0.2589
vn 0.9369 0.3265 -0.1249
vn 0.7493 0.2449 -0.6152
vn 0.3800 -0.0448 -0.9239
vn 0.9350 -0.1419 -0.3250
vn 0.8639 -0.4732 -0.1725
vn 0.9383 -0.1985 0.2833
vn 0.9141 0.2519 0.3178
vn 0.6159 0.0534 0.7860
vn 0.7067 -0.5372 0.4605
vn 0.5285 -0.8478 0.0447
vn 0.3403 -0.6304 0.6977
vn -0.1679 -0.6085 0.7756
vn 0.2410 -0.0334 0.9700
vn 0.1312 -0.3955 0.9090
vn 0.0734 -0.9471 0.3123
vn -0.2676 -0.8374 0.4765
vn -0.4631 -0.8761 0.1340
vn -0.5595 -0.6164 0.5541
vn -0.7044 -0.1734 0.6883
vn -0.2718 -0.2087 0.9394
vn -0.2548 0.1987 0.9464
vn -0.1903 0.6811 0.7070
vn 0.2709 0.4712 0.8394
vn 0.6912 0.6398 0.3359
vn 0.2975 0.8196 0.4897
vn 0.1788 0.9596 0.2174
vn 0.5319 0.8417 -0.0930
vn 0.5708 0.7273 -0.3812
vn 0.3700 0.5800 -0.7258
vn -0.3915 0.6552 -0.6461
vn -0.6037 0.1642 -0.7801
vn 0.1221 0.7776 -0.6168
vn -0.5570 0.7721 -0.3059
vn 0.1278 0.2891 -0.9487
vn -0.0294 0.9334 -0.3576
vn -0.8142 0.2617 -0.5182
vn -0.9449 -0.2102 -0.2510
vn -0.9390 0.3401 -0.0521
vn -0.7157 -0.4763 -0.5108
vn -0.7209 -0.6805 -0.1308
vn -0.4697 -0.1757 -0.8652
vn -0.2801 -0.9364 -0.2115
vn -0.2747 -0.7686 -0.5778
vn 0.1811 -0.4149 -0.8916
vn 0.3135 -0.8815 -0.3531
vn 0.1311 -0.9911 -0.0213
vn 0.7906 -0.5586 -0.2510
vn 0.4988 -0.8667 0.0047
vn 0.7574 -0.6130 0.2249
vn 0.1664 -0.9586 0.2312
vn 0.8844 -0.4639 0.0518
vn 0.9861 0.1455 0.0807
vn 0.7396 0.6628 0.1174
vn 0.7595 0.5629 0.3261
vn 0.9254 0.3547 -0.1337
vn 0.8678 -0.0748 -0.4912
vn 0.9463 0.0893 0.3107
vn 0.8441 -0.2203 0.4889
vn 0.5842 0.1316 0.8009
vn 0.4810 0.5548 0.6789
vn -0.0099 0.3530 0.9356
vn 0.3431 -0.2282 0.9112
vn 0.5027 -0.6381 0.5832
vn -0.0742 -0.3864 0.9193
vn -0.5203 -0.5026 0.6905
vn -0.4020 0.1900 0.8957
vn -0.3992 -0.1933 0.8963
vn -0.0013 -0.8235 0.5674
vn -0.3825 -0.7943 0.4720
vn -0.3193 -0.9413 0.1095
vn -0.6881 -0.6591 0.3035
vn -0.9452 -0.2627 0.1938
vn -0.7576 -0.1303 0.6396
vn -0.8058 0.2601 0.5320
vn -0.6767 0.6969 0.2374
vn -0.3696 0.6545 0.6596
vn 0.2421 0.8583 0.4524
vn -0.1836 0.9365 0.2987
vn -0.1288 0.9915 -0.0203
vn 0.3526 0.9353 -0.0292
vn 0.5754 0.7939 -0.1965
vn 0.6510 0.5425 -0.5309
vn -0.3624 0.6552 0.6629
vn -0.3718 0.1642 0.9137
vn -0.5948 0.7776 0.2039
vn 0.0150 0.7721 0.6353
vn -0.8847 0.2891 0.3656
vn -0.2946 0.9334 0.2050
vn -0.0396 0.2617 0.9643
vn 0.2571 -0.2102 0.9433
vn 0.4262 0.3401 0.8383
vn -0.0826 -0.4763 0.8754
vn 0.2487 -0.6805 0.6892
vn -0.5126 -0.1757 0.8405
vn -0.0424 -0.9364 0.3484
vn -0.3619 -0.7686 0.5276
vn -0.8621 -0.4149 0.2908
vn -0.4627 -0.8815 -0.0940
vn -0.0842 -0.9911 -0.1027
vn -0.6139 -0.5586 -0.5578
vn -0.2462 -0.8667 -0.4338
vn -0.1856 -0.6130 -0.7680
vn 0.1165 -0.9586 -0.2599
vn -0.3990 -0.4639 -0.7909
vn -0.4250 0.1455 -0.8934
vn -0.2696 0.6628 -0.6986
vn -0.0991 0.5629 -0.8206
vn -0.5801 0.3547 -0.7333
vn -0.8604 -0.0748 -0.5041
vn -0.2062 0.0893 -0.9744
vn -0.0008 -0.2203 -0.9754
vn 0.3995 0.1316 -0.9072
vn 0.3458 0.5548 -0.7567
vn 0.8142 0.3530 -0.4610
vn 0.6159 -0.2282 -0.7540
vn 0.2522 -0.6381 -0.7275
vn 0.8324 -0.3864 -0.3972
vn 0.8583 -0.5026 0.1035
vn 0.9765 0.1900 -0.1018
vn 0.9756 -0.1933 -0.1045
vn 0.4914 -0.8235 -0.2836
vn 0.6003 -0.7943 0.0940
vn 0.2550 -0.9413 0.2212
vn 0.6078 -0.6591 0.4429
vn 0.6420 -0.2627 0.7203
vn 0.9334 -0.1303 0.3343
vn 0.8646 0.2601 0.4299
vn 0.5450 0.6969 0.4662
vn 0.7560 0.6545 -0.0114
vn 0.2698 0.8583 -0.4365
vn 0.3505 0.9365 0.0089
vn 0.0471 0.9915 0.1216
vn -0.2022 0.9353 -0.2903
vn -0.4587 0.7939 -0.3991
vn -0.7859 0.5425 -0.2966
vn -0.6947 0.6552 0.2968
vn -0.8572 0.1643 0.4880
vn -0.5935 0.7776 -0.2076
vn -0.3811 0.7721 0.5085
vn -0.9213 0.2891 -0.2599
vn -0.3582 0.9334 -0.0211
vn -0.6275 0.2617 0.7333
vn -0.3813 -0.2102 0.9002
vn -0.1836 0.3401 0.9223
vn -0.6063 -0.4763 0.6368
vn -0.2308 -0.6805 0.6954
vn -0.9226 -0.1757 0.3435
vn -0.2487 -0.9364 0.2476
vn -0.6106 -0.7686 0.1908
vn -0.8573 -0.4149 -0.3047
vn -0.3055 -0.8815 -0.3601
vn -0.0027 -0.9911 -0.1328
vn -0.1374 -0.5586 -0.8180
vn 0.0748 -0.8667 -0.4932
vn 0.3292 -0.6130 -0.7183
vn 0.2523 -0.9586 -0.1322
vn 0.1756 -0.4639 -0.8683
vn 0.2185 0.1455 -0.9649
vn 0.2202 0.6628 -0.7157
vn 0.4296 0.5629 -0.7061
vn -0.0023 0.3547 -0.9350
vn -0.3644 -0.0748 -0.9282
vn 0.4406 0.0893 -0.8933
vn 0.6027 -0.2203 -0.7670
vn 0.8750 0.1316 -0.4658
vn 0.7398 0.5548 -0.3808
vn 0.9249 0.3530 0.1413
vn 0.9503 -0.2282 -0.2116
vn 0.6481 -0.6381 -0.4157
vn 0.8998 -0.3864 0.2027
vn 0.6105 -0.5026 0.6121
vn 0.8303 0.1900 0.5239
vn 0.8313 -0.1933 0.5212
vn 0.5615 -0.8235 0.0810
vn 0.4136 -0.7943 0.4451
vn 0.0636 -0.9413 0.3316
vn 0.2037 -0.6591 0.7240
vn 0.0590 -0.2627 0.9631
vn 0.5268 -0.1303 0.8400
vn 0.4135 0.2601 0.8725
vn 0.1399 0.6969 0.7034
vn 0.6011 0.6545 0.4586
vn 0.4820 0.8583 -0.1761
vn 0.2699 0.9365 0.2237
vn -0.0382 0.9915 0.1246
vn 0.0207 0.9353 -0.3532
vn -0.1137 0.7939 -0.5973
vn -0.4342 0.5425 -0.7191
vn 0.7326 0.6552 0.1845
vn 0.9777 0.1642 0.1307
vn 0.3466 0.7776 0.5246
vn 0.6112 0.7721 -0.1739
vn 0.5758 0.2891 0.7648
vn 0.2723 0.9334 0.2337
vn 0.9434 0.2617 -0.2035
vn 0.8486 -0.2102 -0.4855
vn 0.7046 0.3401 -0.6228
vn 0.8681 -0.4763 -0.1396
vn 0.6048 -0.6805 -0.4136
vn 0.9422 -0.1757 0.2854
vn 0.3479 -0.9364 -0.0464
vn 0.6015 -0.7686 0.2179
vn 0.4978 -0.4149 0.7616
vn 0.0251 -0.8815 0.4715
vn -0.0783 -0.9911 0.1073
vn -0.3860 -0.5586 0.7342
vn -0.3582 -0.8667 0.3472
vn -0.6969 -0.6130 0.3723
vn -0.2808 -0.9586 -0.0475
vn -0.6656 -0.4639 0.5847
vn -0.7582 0.1455 0.6356
vn -0.6086 0.6628 0.4362
vn -0.7695 0.5629 0.3018
vn -0.5643 0.3547 0.7455
vn -0.2721 -0.0748 0.9593
vn -0.8915 0.0893 0.4441
vn -0.9441 -0.2203 0.2454
vn -0.9784 0.1316 -0.1592
vn -0.8193 0.5548 -0.1449
vn -0.6505 0.3531 -0.6725
vn -0.8844 -0.2282 -0.4071
vn -0.7675 -0.6381 -0.0616
vn -0.5933 -0.3864 -0.7061
vn -0.1151 -0.5026 -0.8568
vn -0.3435 0.1900 -0.9197
vn -0.3459 -0.1933 -0.9182
vn -0.3978 -0.8235 -0.4045
vn -0.0596 -0.7943 -0.6047
vn 0.1502 -0.9413 -0.3024
vn 0.2763 -0.6591 -0.6995
vn 0.5362 -0.2627 -0.8022
vn 0.0894 -0.1303 -0.9874
vn 0.1993 0.2601 -0.9448
vn 0.3146 0.6969 -0.6445
vn -0.2006 0.6545 -0.7290
vn -0.4902 0.8583 -0.1517
vn -0.0793 0.9365 -0.3415
vn 0.1059 0.9915 -0.0760
vn -0.2303 0.9353 0.2685
vn -0.2712 0.7939 0.5442
vn -0.0899 0.5425 0.8352
vn 0.0550 0.6552 0.7535
vn 0.1831 0.1642 0.9693
vn -0.3891 0.7776 0.4939
vn 0.3571 0.7721 0.5256
vn -0.5451 0.2891 0.7869
vn -0.1363 0.9334 0.3319
vn 0.4897 0.2617 0.8317
vn 0.7276 -0.2102 0.6531
vn 0.8127 0.3401 0.4732
vn 0.4053 -0.4763 0.7803
vn 0.5827 -0.6805 0.4442
vn 0.0251 -0.1757 0.9841
vn 0.1533 -0.9364 0.3157
vn -0.0179 -0.7686 0.6395
vn -0.5666 -0.4149 0.7119
vn -0.4398 -0.8815 0.1720
vn -0.1264 -0.9911 -0.0406
vn -0.8183 -0.5586 -0.1358
vn -0.4421 -0.8667 -0.2309
vn -0.5724 -0.6130 -0.5446
vn -0.0431 -0.9586 -0.2815
vn -0.7642 -0.4639 -0.4481
vn -0.8416 0.1455 -0.5201
vn -0.6054 0.6628 -0.4407
vn -0.5283 0.5629 -0.6357
vn -0.8850 0.3547 -0.3015
vn -0.9963 -0.0748 0.0431
vn -0.7017 0.0893 -0.7069
vn -0.5296 -0.2203 -0.8191
vn -0.1563 0.1316 -0.9789
vn -0.1198 0.5548 -0.8233
vn 0.4340 0.3531 -0.8288
vn 0.1086 -0.2282 -0.9675
vn -0.1827 -0.6381 -0.7480
vn 0.4839 -0.3864 -0.7851
vn 0.7773 -0.5026 -0.3785
vn 0.7652 0.1900 -0.6151
vn 0.7630 -0.1933 -0.6169
vn 0.2590 -0.8235 -0.5048
vn 0.5553 -0.7943 -0.2466
vn 0.3342 -0.9413 0.0476
vn 0.7509 -0.6591 0.0425
vn 0.9300 -0.2627 0.2570
vn 0.9655 -0.1303 -0.2254
vn 0.9596 0.2601 -0.1077
vn 0.7107 0.6969 0.0961
vn 0.6290 0.6545 -0.4195
vn -0.0100 0.8583 -0.5130
vn 0.2993 0.9365 -0.1826
vn 0.1055 0.9915 0.0766
vn -0.3273 0.9353 -0.1343
vn -0.6019 0.7939 -0.0865
vn -0.8212 0.5425 0.1771
vn 0.5237 0.6552 0.5445
vn 0.7601 0.1642 0.6287
vn 0.0162 0.7776 0.6286
vn 0.6105 0.7721 0.1762
vn 0.0834 0.2891 0.9537
vn 0.1072 0.9334 0.3425
vn 0.9081 0.2617 0.3270
vn 0.9769 -0.2102 0.0376
vn 0.9275 0.3401 -0.1551
vn 0.8103 -0.4763 0.3413
vn 0.7321 -0.6805 -0.0305
vn 0.6481 -0.1757 0.7410
vn 0.3196 -0.9364 0.1449
vn 0.3948 -0.7686 0.5034
vn 0.0189 -0.4149 0.9097
vn -0.2285 -0.8815 0.4132
vn -0.1232 -0.9911 0.0496
vn -0.7162 -0.5586 0.4183
vn -0.4877 -0.8667 0.1048
vn -0.7883 -0.6130 -0.0533
vn -0.2130 -0.9586 -0.1890
vn -0.8742 -0.4639 0.1434
vn -0.9797 0.1455 0.1376
vn -0.7473 0.6628 0.0477
vn -0.8125 0.5629 -0.1515
vn -0.8735 0.3547 0.3335
vn -0.7389 -0.0748 0.6696
vn -0.9914 0.0893 -0.0955
vn -0.9308 -0.2203 -0.2918
vn -0.7456 0.1316 -0.6532
vn -0.6182 0.5548 -0.5568
vn -0.1956 0.3530 -0.9149
vn -0.5346 -0.2282 -0.8137
vn -0.6184 -0.6381 -0.4587
vn -0.1293 -0.3864 -0.9132
vn 0.3561 -0.5026 -0.7878
vn 0.1957 0.1900 -0.9621
vn 0.1929 -0.1933 -0.9620
vn -0.1232 -0.8235 -0.5538
vn 0.2697 -0.7943 -0.5445
vn 0.2875 -0.9413 -0.1769
vn 0.6048 -0.6591 -0.4470
vn 0.8797 -0.2627 -0.3965
vn 0.5988 -0.1303 -0.7902
vn 0.6694 0.2601 -0.6959
vn 0.6082 0.6969 -0.3801
vn 0.2159 0.6545 -0.7246
vn -0.3355 0.8583 -0.3883
vn 0.1136 0.9365 -0.3317
vn 0.1301 0.9915 -0.0084
vn -0.3376 0.9353 0.1058
vn -0.5183 0.7939 0.3179
vn -0.5186 0.5425 0.6608
vn -0.1673 0.6552 -0.7367
vn -0.3263 0.1642 -0.9309
vn 0.3107 0.7776 -0.5466
vn -0.4319 0.7721 -0.4662
vn 0.4210 0.2891 -0.8597
vn 0.0850 0.9334 -0.3486
vn -0.6088 0.2617 -0.7489
vn -0.8172 -0.2102 -0.5367
vn -0.8744 0.3401 -0.3461
vn -0.5177 -0.4763 -0.7107
vn -0.6427 -0.6805 -0.3518
vn -0.1724 -0.1757 -0.9692
vn -0.1989 -0.9364 -0.2891
vn -0.0781 -0.7686 -0.6350
vn 0.4535 -0.4149 -0.7888
vn 0.4090 -0.8815 -0.2359
vn 0.1311 -0.9911 0.0212
vn 0.8294 -0.5586 0.0116
vn 0.4717 -0.8667 0.1621
vn 0.6476 -0.6130 0.4527
vn 0.0848 -0.9586 0.2719
vn 0.8227 -0.4639 0.3286
vn 0.9101 0.1455 0.3881
vn 0.6646 0.6628 0.3450
vn 0.6176 0.5629 0.5493
vn 0.9202 0.3547 0.1655
vn 0.9786 -0.0748 -0.1919
vn 0.7997 0.0893 0.5937
vn 0.6464 -0.2203 0.7305
vn 0.3012 0.1316 0.9444
vn 0.2419 0.5548 0.7961
vn -0.3049 0.3530 0.8845
vn 0.0377 -0.2282 0.9729
vn 0.2927 -0.6381 0.7121
vn -0.3608 -0.3864 0.8488
vn -0.7118 -0.5026 0.4908
vn -0.6644 0.1900 0.7228
vn -0.6619 -0.1933 0.7242
vn -0.1805 -0.8235 0.5379
vn -0.5121 -0.7943 0.3270
vn -0.3376 -0.9413 0.0030
vn -0.7488 -0.6591 0.0705
vn -0.9580 -0.2627 -0.1147
vn -0.9208 -0.1303 0.3675
vn -0.9326 0.2601 0.2503
vn -0.7171 0.6969 0.0115
vn -0.5590 0.6545 0.5090
vn 0.0868 0.8583 0.5057
vn -0.2685 0.9365 0.2254
vn -0.1158 0.9915 -0.0600
vn 0.3437 0.9353 0.0837
vn 0.6080 0.7939 -0.0047
vn 0.7853 0.5425 -0.2981
vn 0.7095 0.6552 -0.2594
vn -0.6693 -0.6381 0.3806
vn -0.3669 -0.6130 0.6997
vn -0.4875 0.0893 0.8685
vn -0.2696 0.1455 0.9519
vn -0.4666 0.5629 0.6823
vn -0.7590 0.5548 0.3409
vn -0.9603 -0.2282 0.1607
vn -0.8877 -0.3864 -0.2503
vn -0.8023 -0.1933 -0.5647
vn -0.1649 -0.6591 -0.7338
vn -0.5771 -0.5026 -0.6438
vn -0.1023 0.6969 -0.7098
vn 0.2324 0.3401 -0.9112
vn 0.4287 -0.2102 -0.8787
vn 0.2675 -0.6805 -0.6821
vn -0.0458 -0.9413 -0.3345
vn 0.0448 0.9915 -0.1224
vn -0.0394 0.9353 0.3516
vn 0.3144 -0.0748 0.9463
vn 0.3953 0.5425 0.7412
vn 0.8820 0.1643 -0.4417
vn 0.6199 -0.7686 -0.1580
vn 0.5816 0.7776 0.2389
vn -0.2216 -0.4639 0.8577
vn 0.0937 -0.5586 0.8241
vn 0.0817 0.7939 0.6025
vn -0.2580 0.6628 0.7030
vn 0.4077 0.7721 -0.4875
vn -0.6426 -0.2203 0.7338
vn -0.8986 0.1316 0.4186
vn -0.9160 0.3530 -0.1903
vn -0.8012 0.1900 -0.5674
vn -0.3665 0.2601 -0.8933
vn -0.4813 -0.1303 -0.8668
vn -0.0077 -0.2627 -0.9649
vn -0.0474 0.3547 0.9338
vn -0.5564 -0.8235 -0.1108
vn -0.3893 -0.7943 -0.4665
vn -0.2589 -0.9586 0.1186
vn -0.5758 0.6545 -0.4900
vn -0.4907 0.8583 0.1502
vn -0.2577 0.9365 -0.2378
vn 0.9396 -0.1757 -0.2939
vn 0.8399 -0.4149 0.3499
vn 0.9062 0.2891 0.3086
vn -0.1009 -0.8667 0.4885
vn -0.0044 -0.9911 0.1327
vn 0.2616 -0.9364 -0.2340
vn 0.2859 -0.8815 0.3758
vn 0.3566 0.9334 0.0402
vn 0.6657 0.2617 -0.6988
vn 0.6393 -0.4763 -0.6037
vn 0.6394 0.6552 0.4024
vn 0.8891 0.1642 0.4272
vn 0.1671 0.7776 0.6062
vn 0.6350 0.7721 0.0240
vn 0.3106 0.2891 0.9055
vn 0.1865 0.9334 0.3066
vn 0.9601 0.2617 0.0987
vn 0.9573 -0.2102 -0.1988
vn 0.8629 0.3401 -0.3739
vn 0.8687 -0.4763 0.1361
vn 0.7032 -0.6805 -0.2059
vn 0.8074 -0.1757 0.5632
vn 0.3451 -0.9364 0.0637
vn 0.5044 -0.7686 0.3935
vn 0.2374 -0.4149 0.8783
vn -0.1222 -0.8815 0.4561
vn -0.1076 -0.9911 0.0778
vn -0.5944 -0.5586 0.5785
vn -0.4481 -0.8667 0.2192
vn -0.7779 -0.6130 0.1381
vn -0.2523 -0.9586 -0.1322
vn -0.8139 -0.4639 0.3497
vn -0.9178 0.1455 0.3694
vn -0.7138 0.6628 0.2262
vn -0.8251 0.5629 0.0486
vn -0.7675 0.3547 0.5340
vn -0.5559 -0.0748 0.8279
vn -0.9852 0.0893 0.1461
vn -0.9736 -0.2203 -0.0591
vn -0.8810 0.1316 -0.4544
vn -0.7341 0.5548 -0.3916
vn -0.4102 0.3530 -0.8409
vn -0.7148 -0.2282 -0.6610
vn -0.7106 -0.6381 -0.2963
vn -0.3454 -0.3864 -0.8552
vn 0.1559 -0.5026 -0.8504
vn -0.0417 0.1900 -0.9809
vn -0.0445 -0.1933 -0.9801
vn -0.2529 -0.8235 -0.5079
vn 0.1306 -0.7943 -0.5934
vn 0.2365 -0.9413 -0.2410
vn 0.4794 -0.6591 -0.5795
vn 0.7583 -0.2627 -0.5966
vn 0.3909 -0.1303 -0.9112
vn 0.4821 0.2601 -0.8366
vn 0.4987 0.6969 -0.5154
vn 0.0350 0.6545 -0.7552
vn -0.4191 0.8583 -0.2961
vn 0.0303 0.9365 -0.3493
vn 0.1242 0.9915 -0.0395
vn -0.3022 0.9353 0.1840
vn -0.4265 0.7939 0.4334
vn -0.3442 0.5425 0.7663
vt 0.547486 0.744409
vt 0.666174 0.750496
vt 0.537228 0.779201
vt 0.617590 0.783372
vt 0.538354 0.860582
vt 0.748564 0.744548
vt 0.777195 0.749985
vt 0.616274 0.895980
vt 0.648615 0.726884
vt 0.461798 0.721229
vt 0.564797 0.698136
vt 0.415848 0.751674
vt 0.314933 0.741861
vt 0.389521 0.718991
vt 0.475920 0.792507
vt 0.331170 0.752118
vt 0.446146 0.864542
vt 0.381142 0.805223
vt 0.227308 0.749684
vt 0.375000 0.897480
vt 0.172954 0.745434
vt 0.234266 0.737788
vt 0.397405 0.977741
vt 0.148861 0.749956
vt 0.139057 0.714279
vt 0.125000 0.750000
vt 0.216742 0.679357
vt 0.515111 0.008385
vt 0.526488 0.081400
vt 0.397929 0.038053
vt 0.408086 0.001928
vt 0.485392 0.000096
vt 0.404058 0.000022
vt 0.614951 0.000279
vt 0.613269 0.009832
vt 0.557416 0.000655
vt 0.598834 0.083481
vt 0.460612 0.144353
vt 0.616601 0.177479
vt 0.532996 0.215576
vt 0.463799 0.267328
vt 0.598888 0.337983
vt 0.388153 0.190162
vt 0.429740 0.355793
vt 0.376412 0.539474
vt 0.230054 0.573523
vt 0.229437 0.500000
vt 0.475149 0.452295
vt 0.396457 0.518903
vt 0.591853 0.453280
vt 0.137181 0.561357
vt 0.329034 0.604482
vt 0.305359 0.694844
vt 0.377122 0.654460
vt 0.492838 0.566719
vt 0.454403 0.672133
vt 0.576582 0.606587
vt 0.702736 0.591898
vt 0.639906 0.657055
vt 0.805698 0.512825
vt 0.812031 0.629394
vt 0.734477 0.659030
vt 0.739587 0.708925
vt 0.830212 0.736371
vt 0.875000 0.739814
vt 0.854622 0.749572
vt 0.584291 0.000000
vt 0.858755 0.749996
vt 0.573764 0.970006
vt 0.477480 0.971413
vt 0.861667 0.568963
vt 0.875000 0.669191
s 1
f 7/1/7 1/2/1 2/3/2
f 2/3/2 1/4/1 5/5/5
f 6/6/6 3/7/3 1/2/1
f 1/4/1 3/8/3 5/5/5
f 7/1/7 4/9/4 1/2/1
f 6/6/6 1/2/1 4/9/4
f 8/10/8 9/11/9 7/1/7
f 8/10/8 7/1/7 10/12/10
f 9/11/9 4/9/4 7/1/7
f 10/12/10 7/1/7 2/3/2
f 13/13/13 11/14/11 10/12/10
f 11/14/11 8/10/8 10/12/10
f 10/12/10 12/15/12 14/16/14
f 2/3/2 12/15/12 10/12/10
f 13/13/13 10/12/10 14/16/14
f 12/15/12 15/17/15 14/18/14
f 16/19/16 13/13/13 14/16/14
f 15/17/15 16/20/16 14/18/14
f 19/21/19 17/22/17 16/19/16
f 17/22/17 13/13/13 16/19/16
f 15/17/15 18/23/18 16/20/16
f 19/21/19 16/19/16 18/24/18
f 20/25/20 19/21/19 22/26/22
f 21/27/21 19/21/19 20/25/20
f 21/27/21 17/22/17 19/21/19
f 19/21/19 18/24/18 22/26/22
f 23/28/23 28/29/28 20/30/20 22/31/22
f 27/32/27 23/28/23 22/31/22 18/33/18
f 52/34/52 24/35/24 23/28/23 26/36/26
f 24/35/24 25/37/25 23/28/23
f 23/28/23 25/37/25 28/29/28
f 23/28/23 27/32/27 26/36/26
f 28/29/28 29/38/29 20/30/20
f 31/39/31 30/40/30 28/29/28 25/37/25
f 28/29/28 30/40/30 29/38/29
f 30/40/30 33/41/33 29/38/29
f 30/40/30 31/39/31 32/42/32
f 30/40/30 32/42/32 33/41/33
f 29/38/29 33/41/33 34/43/34
f 34/43/34 33/41/33 35/44/35
f 32/42/32 35/44/35 33/41/33
f 36/45/36 39/46/39 35/47/35
f 35/44/35 38/48/38 36/49/36
f 32/42/32 37/50/37 35/44/35
f 37/50/37 38/48/38 35/44/35
f 35/47/35 39/46/39 34/51/34
f 39/46/39 21/27/21 34/51/34
f 36/45/36 40/52/40 39/46/39
f 40/52/40 41/53/41 39/46/39
f 39/46/39 41/53/41 21/27/21
f 41/53/41 11/14/11 13/13/13
f 42/54/42 11/14/11 41/53/41
f 21/27/21 41/53/41 17/22/17
f 40/52/40 42/54/42 41/53/41
f 17/22/17 41/53/41 13/13/13
f 36/49/36 42/54/42 40/52/40
f 44/55/44 42/54/42 36/49/36
f 42/54/42 43/56/43 11/14/11
f 44/55/44 43/56/43 42/54/42
f 44/55/44 37/50/37 45/57/45
f 37/50/37 44/55/44 38/48/38
f 38/48/38 44/55/44 36/49/36
f 44/55/44 45/57/45 43/56/43
f 37/50/37 47/58/47 45/57/45
f 45/57/45 47/58/47 46/59/46
f 45/57/45 46/59/46 9/11/9
f 43/56/43 45/57/45 9/11/9
f 37/50/37 32/60/32 47/58/47
f 32/60/32 48/61/48 47/58/47
f 47/58/47 48/61/48 49/62/49
f 46/59/46 47/58/47 49/62/49
f 49/62/49 48/61/48 50/63/50
f 46/59/46 49/62/49 50/63/50
f 4/9/4 50/63/50 6/6/6
f 46/59/46 50/63/50 4/9/4
f 50/63/50 48/61/48 51/64/51
f 51/64/51 6/6/6 50/63/50
f 24/65/24 51/64/51 48/61/48
f 24/65/24 52/66/52 51/64/51
f 51/64/51 52/66/52 6/6/6
f 26/36/26 53/67/53 52/34/52
f 6/6/6 52/66/52 3/7/3
f 52/66/52 53/68/53 3/7/3
f 5/5/5 53/69/53 27/70/27
f 27/32/27 53/67/53 26/36/26
f 3/8/3 53/69/53 5/5/5
f 31/71/31 25/72/25 48/61/48
f 32/60/32 31/71/31 48/61/48
f 48/61/48 25/72/25 24/65/24
f 9/11/9 46/59/46 4/9/4
f 43/56/43 8/10/8 11/14/11
f 43/56/43 9/11/9 8/10/8
f 21/27/21 20/25/20 34/51/34
f 20/30/20 29/38/29 34/43/34
f 15/17/15 27/70/27 18/23/18
f 5/5/5 27/70/27 15/17/15
f 12/15/12 5/5/5 15/17/15
f 12/15/12 2/3/2 5/5/5
f 60/1/60 54/2/54 55/3/55
f 55/3/55 54/4/54 58/5/58
f 59/6/59 56/7/56 54/2/54
f 54/4/54 56/8/56 58/5/58
f 60/1/60 57/9/57 54/2/54
f 59/6/59 54/2/54 57/9/57
f 61/10/61 62/11/62 60/1/60
f 61/10/61 60/1/60 63/12/63
f 62/11/62 57/9/57 60/1/60
f 63/12/63 60/1/60 55/3/55
f 66/13/66 64/14/64 63/12/63
f 64/14/64 61/10/61 63/12/63
f 63/12/63 65/15/65 67/16/67
f 55/3/55 65/15/65 63/12/63
f 66/13/66 63/12/63 67/16/67
f 65/15/65 68/17/68 67/18/67
f 69/19/69 66/13/66 67/16/67
f 68/17/68 69/20/69 67/18/67
f 72/21/72 70/22/70 69/19/69
f 70/22/70 66/13/66 69/19/69
f 68/17/68 71/23/71 69/20/69
f 72/21/72 69/19/69 71/24/71
f 73/25/73 72/21/72 75/26/75
f 74/27/74 72/21/72 73/25/73
f 74/27/74 70/22/70 72/21/72
f 72/21/72 71/24/71 75/26/75
f 76/28/76 81/29/81 73/30/73 75/31/75
f 80/32/80 76/28/76 75/31/75 71/33/71
f 105/34/105 77/35/77 76/28/76 79/36/79
f 77/35/77 78/37/78 76/28/76
f 76/28/76 78/37/78 81/29/81
f 76/28/76 80/32/80 79/36/79
f 81/29/81 82/38/82 73/30/73
f 84/39/84 83/40/83 81/29/81 78/37/78
f 81/29/81 83/40/83 82/38/82
f 83/40/83 86/41/86 82/38/82
f 83/40/83 84/39/84 85/42/85
f 83/40/83 85/42/85 86/41/86
f 82/38/82 86/41/86 87/43/87
f 87/43/87 86/41/86 88/44/88
f 85/42/85 88/44/88 86/41/86
f 89/45/89 92/46/92 88/47/88
f 88/44/88 91/48/91 89/49/89
f 85/42/85 90/50/90 88/44/88
f 90/50/90 91/48/91 88/44/88
f 88/47/88 92/46/92 87/51/87
f 92/46/92 74/27/74 87/51/87
f 89/45/89 93/52/93 92/46/92
f 93/52/93 94/53/94 92/46/92
f 92/46/92 94/53/94 74/27/74
f 94/53/94 64/14/64 66/13/66
f 95/54/95 64/14/64 94/53/94
f 74/27/74 94/53/94 70/22/70
f 93/52/93 95/54/95 94/53/94
f 70/22/70 94/53/94 66/13/66
f 89/49/89 95/54/95 93/52/93
f 97/55/97 95/54/95 89/49/89
f 95/54/95 96/56/96 64/14/64
f 97/55/97 96/56/96 95/54/95
f 97/55/97 90/50/90 98/57/98
f 90/50/90 97/55/97 91/48/91
f 91/48/91 97/55/97 89/49/89
f 97/55/97 98/57/98 96/56/96
f 90/50/90 100/58/100 98/57/98
f 98/57/98 100/58/100 99/59/99
f 98/57/98 99/59/99 62/11/62
f 96/56/96 98/57/98 62/11/62
f 90/50/90 85/60/85 100/58/100
f 85/60/85 101/61/101 100/58/100
f 100/58/100 101/61/101 102/62/102
f 99/59/99 100/58/100 102/62/102
f 102/62/102 101/61/101 103/63/103
f 99/59/99 102/62/102 103/63/103
f 57/9/57 103/63/103 59/6/59
f 99/59/99 103/63/103 57/9/57
f 103/63/103 101/61/101 104/64/104
f 104/64/104 59/6/59 103/63/103
f 77/65/77 104/64/104 101/61/101
f 77/65/77 105/66/105 104/64/104
f 104/64/104 105/66/105 59/6/59
f 79/36/79 106/67/106 105/34/105
f 59/6/59 105/66/105 56/7/56
f 105/66/105 106/68/106 56/7/56
f 58/5/58 106/69/106 80/70/80
f 80/32/80 106/67/106 79/36/79
f 56/8/56 106/69/106 58/5/58
f 84/71/84 78/72/78 101/61/101
f 85/60/85 84/71/84 101/61/101
f 101/61/101 78/72/78 77/65/77
f 62/11/62 99/59/99 57/9/57
f 96/56/96 61/10/61 64/14/64
f 96/56/96 62/11/62 61/10/61
f 74/27/74 73/25/73 87/51/87
f 73/30/73 82/38/82 87/43/87
f 68/17/68 80/70/80 71/23/71
f 58/5/58 80/70/80 68/17/68
f 65/15/65 58/5/58 68/17/68
f 65/15/65 55/3/55 58/5/58
f 113/1/113 107/2/107 108/3/108
f 108/3/108 107/4/107 111/5/111
f 112/6/112 109/7/109 107/2/107
f 107/4/107 109/8/109 111/5/111
f 113/1/113 110/9/110 107/2/107
f 112/6/112 107/2/107 110/9/110
f 114/10/114 115/11/115 113/1/113
f 114/10/114 113/1/113 116/12/116
f 115/11/115 110/9/110 113/1/113
f 116/12/116 113/1/113 108/3/108
f 119/13/119 117/14/117 116/12/116
f 117/14/117 114/10/114 116/12/116
f 116/12/116 118/15/118 120/16/120
f 108/3/108 118/15/118 116/12/116
f 119/13/119 116/12/116 120/16/120
f 118/15/118 121/17/121 120/18/120
f 122/19/122 119/13/119 120/16/120
f 121/17/121 122/20/122 120/18/120
f 125/21/125 123/22/123 122/19/122
f 123/22/123 119/13/119 122/19/122
f 121/17/121 124/23/124 122/20/122
f 125/21/125 122/19/122 124/24/124
f 126/25/126 125/21/125 128/26/128
f 127/27/127 125/21/125 126/25/126
f 127/27/127 123/22/123 125/21/125
f 125/21/125 124/24/124 128/26/128
f 129/28/129 134/29/134 126/30/126 128/31/128
f 133/32/133 129/28/129 128/31/128 124/33/124
f 158/34/158 130/35/130 129/28/129 132/36/132
f 130/35/130 131/37/131 129/28/129
f 129/28/129 131/37/131 134/29/134
f 129/28/129 133/32/133 132/36/132
f 134/29/134 135/38/135 126/30/126
f 137/39/137 136/40/136 134/29/134 131/37/131
f 134/29/134 136/40/136 135/38/135
f 136/40/136 139/41/139 135/38/135
f 136/40/136 137/39/137 138/42/138
f 136/40/136 138/42/138 139/41/139
f 135/38/135 139/41/139 140/43/140
f 140/43/140 139/41/139 141/44/141
f 138/42/138 141/44/141 139/41/139
f 142/45/142 145/46/145 141/47/141
f 141/44/141 144/48/144 142/49/142
f 138/42/138 143/50/143 141/44/141
f 143/50/143 144/48/144 141/44/141
f 141/47/141 145/46/145 140/51/140
f 145/46/145 127/27/127 140/51/140
f 142/45/142 146/52/146 145/46/145
f 146/52/146 147/53/147 145/46/145
f 145/46/145 147/53/147 127/27/127
f 147/53/147 117/14/117 119/13/119
f 148/54/148 117/14/117 147/53/147
f 127/27/127 147/53/147 123/22/123
f 146/52/146 148/54/148 147/53/147
f 123/22/123 147/53/147 119/13/119
f 142/49/142 148/54/148 146/52/146
f 150/55/150 148/54/148 142/49/142
f 148/54/148 149/56/149 117/14/117
f 150/55/150 149/56/149 148/54/148
f 150/55/150 143/50/143 151/57/151
f 143/50/143 150/55/150 144/48/144
f 144/48/144 150/55/150 142/49/142
f 150/55/150 151/57/151 149/56/149
f 143/50/143 153/58/153 151/57/151
f 151/57/151 153/58/153 152/59/152
f 151/57/151 152/59/152 115/11/115
f 149/56/149 151/57/151 115/11/115
f 143/50/143 138/60/138 153/58/153
f 138/60/138 154/61/154 153/58/153
f 153/58/153 154/61/154 155/62/155
f 152/59/152 153/58/153 155/62/155
f 155/62/155 154/61/154 156/63/156
f 152/59/152 155/62/155 156/63/156
f 110/9/110 156/63/156 112/6/112
f 152/59/152 156/63/156 110/9/110
f 156/63/156 154/61/154 157/64/157
f 157/64/157 112/6/112 156/63/156
f 130/65/130 157/64/157 154/61/154
f 130/65/130 158/66/158 157/64/157
f 157/64/157 158/66/158 112/6/112
f 132/36/132 159/67/159 158/34/158
f 112/6/112 158/66/158 109/7/109
f 158/66/158 159/68/159 109/7/109
f 111/5/111 159/69/159 133/70/133
f 133/32/133 159/67/159 132/36/132
f 109/8/109 159/69/159 111/5/111
f 137/71/137 131/72/131 154/61/154
f 138/60/138 137/71/137 154/61/154
f 154/61/154 131/72/131 130/65/130
f 115/11/115 152/59/152 110/9/110
f 149/56/149 114/10/114 117/14/117
f 149/56/149 115/11/115 114/10/114
f 127/27/127 126/25/126 140/51/140
f 126/30/126 135/38/135 140/43/140
f 121/17/121 133/70/133 124/23/124
f 111/5/111 133/70/133 121/17/121
f 118/15/118 111/5/111 121/17/121
f 118/15/118 108/3/108 111/5/111
f 166/1/166 160/2/160 161/3/161
f 161/3/161 160/4/160 164/5/164
f 165/6/165 162/7/162 160/2/160
f 160/4/160 162/8/162 164/5/164
f 166/1/166 163/9/163 160/2/160
f 165/6/165 160/2/160 163/9/163
f 167/10/167 168/11/168 166/1/166
f 167/10/167 166/1/166 169/12/169
f 168/11/168 163/9/163 166/1/166
f 169/12/169 166/1/166 161/3/161
f 172/13/172 170/14/170 169/12/169
f 170/14/170 167/10/167 169/12/169
f 169/12/169 171/15/171 173/16/173
f 161/3/161 171/15/171 169/12/169
f 172/13/172 169/12/169 173/16/173
f 171/15/171 174/17/174 173/18/173
f 175/19/175 172/13/172 173/16/173
f 174/17/174 175/20/175 173/18/173
f 178/21/178 176/22/176 175/19/175
f 176/22/176 172/13/172 175/19/175
f 174/17/174 177/23/177 175/20/175
f 178/21/178 175/19/175 177/24/177
f 179/25/179 178/21/178 181/26/181
f 180/27/180 178/21/178 179/25/179
f 180/27/180 176/22/176 178/21/178
f 178/21/178 177/24/177 181/26/181
f 182/28/182 187/29/187 179/30/179 181/31/181
f 186/32/186 182/28/182 181/31/181 177/33/177
f 211/34/211 183/35/183 182/28/182 185/36/185
f 183/35/183 184/37/184 182/28/182
f 182/28/182 184/37/184 187/29/187
f 182/28/182 186/32/186 185/36/185
f 187/29/187 188/38/188 179/30/179
f 190/39/190 189/40/189 187/29/187 184/37/184
f 187/29/187 189/40/189 188/38/188
f 189/40/189 192/41/192 188/38/188
f 189/40/189 190/39/190 191/42/191
f 189/40/189 191/42/191 192/41/192
f 188/38/188 192/41/192 193/43/193
f 193/43/193 192/41/192 194/44/194
f 191/42/191 194/44/194 192/41/192
f 195/45/195 198/46/198 194/47/194
f 194/44/194 197/48/197 195/49/195
f 191/42/191 196/50/196 194/44/194
f 196/50/196 197/48/197 194/44/194
f 194/47/194 198/46/198 193/51/193
f 198/46/198 180/27/180 193/51/193
f 195/45/195 199/52/199 198/46/198
f 199/52/199 200/53/200 198/46/198
f 198/46/198 200/53/200 180/27/180
f 200/53/200 170/14/170 172/13/172
f 201/54/201 170/14/170 200/53/200
f 180/27/180 200/53/200 176/22/176
f 199/52/199 201/54/201 200/53/200
f 176/22/176 200/53/200 172/13/172
f 195/49/195 201/54/201 199/52/199
f 203/55/203 201/54/201 195/49/195
f 201/54/201 202/56/202 170/14/170
f 203/55/203 202/56/202 201/54/201
f 203/55/203 196/50/196 204/57/204
f 196/50/196 203/55/203 197/48/197
f 197/48/197 203/55/203 195/49/195
f 203/55/203 204/57/204 202/56/202
f 196/50/196 206/58/206 204/57/204
f 204/57/204 206/58/206 205/59/205
f 204/57/204 205/59/205 168/11/168
f 202/56/202 204/57/204 168/11/168
f 196/50/196 191/60/191 206/58/206
f 191/60/191 207/61/207 206/58/206
f 206/58/206 207/61/207 208/62/208
f 205/59/205 206/58/206 208/62/208
f 208/62/208 207/61/207 209/63/209
f 205/59/205 208/62/208 209/63/209
f 163/9/163 209/63/209 165/6/165
f 205/59/205 209/63/209 163/9/163
f 209/63/209 207/61/207 210/64/210
f 210/64/210 165/6/165 209/63/209
f 183/65/183 210/64/210 207/61/207
f 183/65/183 211/66/211 210/64/210
f 210/64/210 211/66/211 165/6/165
f 185/36/185 212/67/212 211/34/211
f 165/6/165 211/66/211 162/7/162
f 211/66/211 212/68/212 162/7/162
f 164/5/164 212/69/212 186/70/186
f 186/32/186 212/67/212 185/36/185
f 162/8/162 212/69/212 164/5/164
f 190/71/190 184/72/184 207/61/207
f 191/60/191 190/71/190 207/61/207
f 207/61/207 184/72/184 183/65/183
f 168/11/168 205/59/205 163/9/163
f 202/56/202 167/10/167 170/14/170
f 202/56/202 168/11/168 167/10/167
f 180/27/180 179/25/179 193/51/193
f 179/30/179 188/38/188 193/43/193
f 174/17/174 186/70/186 177/23/177
f 164/5/164 186/70/186 174/17/174
f 171/15/171 164/5/164 174/17/174
f 171/15/171 161/3/161 164/5/164
f 219/1/219 213/2/213 214/3/214
f 214/3/214 213/4/213 217/5/217
f 218/6/218 215/7/215 213/2/213
f 213/4/213 215/8/215 217/5/217
f 219/1/219 216/9/216 213/2/213
f 218/6/218 213/2/213 216/9/216
f 220/10/220 221/11/221 219/1/219
f 220/10/220 219/1/219 222/12/222
f 221/11/221 216/9/216 219/1/219
f 222/12/222 219/1/219 214/3/214
f 225/13/225 223/14/223 222/12/222
f 223/14/223 220/10/220 222/12/222
f 222/12/222 224/15/224 226/16/226
f 214/3/214 224/15/224 222/12/222
f 225/13/225 222/12/222 226/16/226
f 224/15/224 227/17/227 226/18/226
f 228/19/228 225/13/225 226/16/226
f 227/17/227 228/20/228 226/18/226
f 231/21/231 229/22/229 228/19/228
f 229/22/229 225/13/225 228/19/228
f 227/17/227 230/23/230 228/20/228
f 231/21/231 228/19/228 230/24/230
f 232/25/232 231/21/231 234/26/234
f 233/27/233 231/21/231 232/25/232
f 233/27/233 229/22/229 231/21/231
f 231/21/231 230/24/230 234/26/234
f 235/28/235 240/29/240 232/30/232 234/31/234
f 239/32/239 235/28/235 234/31/234 230/33/230
f 264/34/264 236/35/236 235/28/235 238/36/238
f 236/35/236 237/37/237 235/28/235
f 235/28/235 237/37/237 240/29/240
f 235/28/235 239/32/239 238/36/238
f 240/29/240 241/38/241 232/30/232
f 243/39/243 242/40/242 240/29/240 237/37/237
f 240/29/240 242/40/242 241/38/241
f 242/40/242 245/41/245 241/38/241
f 242/40/242 243/39/243 244/42/244
f 242/40/242 244/42/244 245/41/245
f 241/38/241 245/41/245 246/43/246
f 246/43/246 245/41/245 247/44/247
f 244/42/244 247/44/247 245/41/245
f 248/45/248 251/46/251 247/47/247
f 247/44/247 250/48/250 248/49/248
f 244/42/244 249/50/249 247/44/247
f 249/50/249 250/48/250 247/44/247
f 247/47/247 251/46/251 246/51/246
f 251/46/251 233/27/233 246/51/246
f 248/45/248 252/52/252 251/46/251
f 252/52/252 253/53/253 251/46/251
f 251/46/251 253/53/253 233/27/233
f 253/53/253 223/14/223 225/13/225
f 254/54/254 223/14/223 253/53/253
f 233/27/233 253/53/253 229/22/229
f 252/52/252 254/54/254 253/53/253
f 229/22/229 253/53/253 225/13/225
f 248/49/248 254/54/254 252/52/252
f 256/55/256 254/54/254 248/49/248
f 254/54/254 255/56/255 223/14/223
f 256/55/256 255/56/255 254/54/254
f 256/55/256 249/50/249 257/57/257
f 249/50/249 256/55/256 250/48/250
f 250/48/250 256/55/256 248/49/248
f 256/55/256 257/57/257 255/56/255
f 249/50/249 259/58/259 257/57/257
f 257/57/257 259/58/259 258/59/258
f 257/57/257 258/59/258 221/11/221
f 255/56/255 257/57/257 221/11/221
f 249/50/249 244/60/244 259/58/259
f 244/60/244 260/61/260 259/58/259
f 259/58/259 260/61/260 261/62/261
f 258/59/258 259/58/259 261/62/261
f 261/62/261 260/61/260 262/63/262
f 258/59/258 261/62/261 262/63/262
f 216/9/216 262/63/262 218/6/218
f 258/59/258 262/63/262 216/9/216
f 262/63/262 260/61/260 263/64/263
f 263/64/263 218/6/218 262/63/262
f 236/65/236 263/64/263 260/61/260
f 236/65/236 264/66/264 263/64/263
f 263/64/263 264/66/264 218/6/218
f 238/36/238 265/67/265 264/34/264
f 218/6/218 264/66/264 215/7/215
f 264/66/264 265/68/265 215/7/215
f 217/5/217 265/69/265 239/70/239
f 239/32/239 265/67/265 238/36/238
f 215/8/215 265/69/265 217/5/217
f 243/71/243 237/72/237 260/61/260
f 244/60/244 243/71/243 260/61/260
f 260/61/260 237/72/237 236/65/236
f 221/11/221 258/59/258 216/9/216
f 255/56/255 220/10/220 223/14/223
f 255/56/255 221/11/221 220/10/220
f 233/27/233 232/25/232 246/51/246
f 232/30/232 241/38/241 246/43/246
f 227/17/227 239/70/239 230/23/230
f 217/5/217 239/70/239 227/17/227
f 224/15/224 217/5/217 227/17/227
f 224/15/224 214/3/214 217/5/217
f 272/1/272 266/2/266 267/3/267
f 267/3/267 266/4/266 270/5/270
f 271/6/271 268/7/268 266/2/266
f 266/4/266 268/8/268 270/5/270
f 272/1/272 269/9/269 266/2/266
f 271/6/271 266/2/266 269/9/269
f 273/10/273 274/11/274 272/1/272
f 273/10/273 272/1/272 275/12/275
f 274/11/274 269/9/269 272/1/272
f 275/12/275 272/1/272 267/3/267
f 278/13/278 276/14/276 275/12/275
f 276/14/276 273/10/273 275/12/275
f 275/12/275 277/15/277 279/16/279
f 267/3/267 277/15/277 275/12/275
f 278/13/278 275/12/275 279/16/279
f 277/15/277 280/17/280 279/18/279
f 281/19/281 278/13/278 279/16/279
f 280/17/280 281/20/281 279/18/279
f 284/21/284 282/22/282 281/19/281
f 282/22/282 278/13/278 281/19/281
f 280/17/280 283/23/283 281/20/281
f 284/21/284 281/19/281 283/24/283
f 285/25/285 284/21/284 287/26/287
f 286/27/286 284/21/284 285/25/285
f 286/27/286 282/22/282 284/21/284
f 284/21/284 283/24/283 287/26/287
f 288/28/288 293/29/293 285/30/285 287/31/287
f 292/32/292 288/28/288 287/31/287 283/33/283
f 317/34/317 289/35/289 288/28/288 291/36/291
f 289/35/289 290/37/290 288/28/288
f 288/28/288 290/37/290 293/29/293
f 288/28/288 292/32/292 291/36/291
f 293/29/293 294/38/294 285/30/285
f 296/39/296 295/40/295 293/29/293 290/37/290
f 293/29/293 295/40/295 294/38/294
f 295/40/295 298/41/298 294/38/294
f 295/40/295 296/39/296 297/42/297
f 295/40/295 297/42/297 298/41/298
f 294/38/294 298/41/298 299/43/299
f 299/43/299 298/41/298 300/44/300
f 297/42/297 300/44/300 298/41/298
f 301/45/301 304/46/304 300/47/300
f 300/44/300 303/48/303 301/49/301
f 297/42/297 302/50/302 300/44/300
f 302/50/302 303/48/303 300/44/300
f 300/47/300 304/46/304 299/51/299
f 304/46/304 286/27/286 299/51/299
f 301/45/301 305/52/305 304/46/304
f 305/52/305 306/53/306 304/46/304
f 304/46/304 306/53/306 286/27/286
f 306/53/306 276/14/276 278/13/278
f 307/54/307 276/14/276 306/53/306
f 286/27/286 306/53/306 282/22/282
f 305/52/305 307/54/307 306/53/306
f 282/22/282 306/53/306 278/13/278
f 301/49/301 307/54/307 305/52/305
f 309/55/309 307/54/307 301/49/301
f 307/54/307 308/56/308 276/14/276
f 309/55/309 308/56/308 307/54/307
f 309/55/309 302/50/302 310/57/310
f 302/50/302 309/55/309 303/48/303
f 303/48/303 309/55/309 301/49/301
f 309/55/309 310/57/310 308/56/308
f 302/50/302 312/58/312 310/57/310
f 310/57/310 312/58/312 311/59/311
f 310/57/310 311/59/311 274/11/274
f 308/56/308 310/57/310 274/11/274
f 302/50/302 297/60/297 312/58/312
f 297/60/297 313/61/313 312/58/312
f 312/58/312 313/61/313 314/62/314
f 311/59/311 312/58/312 314/62/314
f 314/62/314 313/61/313 315/63/315
f 311/59/311 314/62/314 315/63/315
f 269/9/269 315/63/315 271/6/271
f 311/59/311 315/63/315 269/9/269
f 315/63/315 313/61/313 316/64/316
f 316/64/316 271/6/271 315/63/315
f 289/65/289 316/64/316 313/61/313
f 289/65/289 317/66/317 316/64/316
f 316/64/316 317/66/317 271/6/271
f 291/36/291 318/67/318 317/34/317
f 271/6/271 317/66/317 268/7/268
f 317/66/317 318/68/318 268/7/268
f 270/5/270 318/69/318 292/70/292
f 292/32/292 318/67/318 291/36/291
f 268/8/268 318/69/318 270/5/270
f 296/71/296 290/72/290 313/61/313
f 297/60/297 296/71/296 313/61/313
f 313/61/313 290/72/290 289/65/289
f 274/11/274 311/59/311 269/9/269
f 308/56/308 273/10/273 276/14/276
f 308/56/308 274/11/274 273/10/273
f 286/27/286 285/25/285 299/51/299
f 285/30/285 294/38/294 299/43/299
f 280/17/280 292/70/292 283/23/283
f 270/5/270 292/70/292 280/17/280
f 277/15/277 270/5/270 280/17/280
f 277/15/277 267/3/267 270/5/270
f 325/1/325 319/2/319 320/3/320
f 320/3/320 319/4/319 323/5/323
f 324/6/324 321/7/321 319/2/319
f 319/4/319 321/8/321 323/5/323
f 325/1/325 322/9/322 319/2/319
f 324/6/324 319/2/319 322/9/322
f 326/10/326 327/11/327 325/1/325
f 326/10/326 325/1/325 328/12/328
f 327/11/327 322/9/322 325/1/325
f 328/12/328 325/1/325 320/3/320
f 331/13/331 329/14/329 328/12/328
f 329/14/329 326/10/326 328/12/328
f 328/12/328 330/15/330 332/16/332
f 320/3/320 330/15/330 328/12/328
f 331/13/331 328/12/328 332/16/332
f 330/15/330 333/17/333 332/18/332
f 334/19/334 331/13/331 332/16/332
f 333/17/333 334/20/334 332/18/332
f 337/21/337 335/22/335 334/19/334
f 335/22/335 331/13/331 334/19/334
f 333/17/333 336/23/336 334/20/334
f 337/21/337 334/19/334 336/24/336
f 338/25/338 337/21/337 340/26/340
f 339/27/339 337/21/337 338/25/338
f 339/27/339 335/22/335 337/21/337
f 337/21/337 336/24/336 340/26/340
f 341/28/341 346/29/346 338/30/338 340/31/340
f 345/32/345 341/28/341 340/31/340 336/33/336
f 370/34/370 342/35/342 341/28/341 344/36/344
f 342/35/342 343/37/343 341/28/341
f 341/28/341 343/37/343 346/29/346
f 341/28/341 345/32/345 344/36/344
f 346/29/346 347/38/347 338/30/338
f 349/39/349 348/40/348 346/29/346 343/37/343
f 346/29/346 348/40/348 347/38/347
f 348/40/348 351/41/351 347/38/347
f 348/40/348 349/39/349 350/42/350
f 348/40/348 350/42/350 351/41/351
f 347/38/347 351/41/351 352/43/352
f 352/43/352 351/41/351 353/44/353
f 350/42/350 353/44/353 351/41/351
f 354/45/354 357/46/357 353/47/353
f 353/44/353 356/48/356 354/49/354
f 350/42/350 355/50/355 353/44/353
f 355/50/355 356/48/356 353/44/353
f 353/47/353 357/46/357 352/51/352
f 357/46/357 339/27/339 352/51/352
f 354/45/354 358/52/358 357/46/357
f 358/52/358 359/53/359 357/46/357
f 357/46/357 359/53/359 339/27/339
f 359/53/359 329/14/329 331/13/331
f 360/54/360 329/14/329 359/53/359
f 339/27/339 359/53/359 335/22/335
f 358/52/358 360/54/360 359/53/359
f 335/22/335 359/53/359 331/13/331
f 354/49/354 360/54/360 358/52/358
f 362/55/362 360/54/360 354/49/354
f 360/54/360 361/56/361 329/14/329
f 362/55/362 361/56/361 360/54/360
f 362/55/362 355/50/355 363/57/363
f 355/50/355 362/55/362 356/48/356
f 356/48/356 362/55/362 354/49/354
f 362/55/362 363/57/363 361/56/361
f 355/50/355 365/58/365 363/57/363
f 363/57/363 365/58/365 364/59/364
f 363/57/363 364/59/364 327/11/327
f 361/56/361 363/57/363 327/11/327
f 355/50/355 350/60/350 365/58/365
f 350/60/350 366/61/366 365/58/365
f 365/58/365 366/61/366 367/62/367
f 364/59/364 365/58/365 367/62/367
f 367/62/367 366/61/366 368/63/368
f 364/59/364 367/62/367 368/63/368
f 322/9/322 368/63/368 324/6/324
f 364/59/364 368/63/368 322/9/322
f 368/63/368 366/61/366 369/64/369
f 369/64/369 324/6/324 368/63/368
f 342/65/342 369/64/369 366/61/366
f 342/65/342 370/66/370 369/64/369
f 369/64/369 370/66/370 324/6/324
f 344/36/344 371/67/371 370/34/370
f 324/6/324 370/66/370 321/7/321
f 370/66/370 371/68/371 321/7/321
f 323/5/323 371/69/371 345/70/345
f 345/32/345 371/67/371 344/36/344
f 321/8/321 371/69/371 323/5/323
f 349/71/349 343/72/343 366/61/366
f 350/60/350 349/71/349 366/61/366
f 366/61/366 343/72/343 342/65/342
f 327/11/327 364/59/364 322/9/322
f 361/56/361 326/10/326 329/14/329
f 361/56/361 327/11/327 326/10/326
f 339/27/339 338/25/338 352/51/352
f 338/30/338 347/38/347 352/43/352
f 333/17/333 345/70/345 336/23/336
f 323/5/323 345/70/345 333/17/333
f 330/15/330 323/5/323 333/17/333
f 330/15/330 320/3/320 323/5/323
f 378/1/378 372/2/372 373/3/373
f 373/3/373 372/4/372 376/5/376
f 377/6/377 374/7/374 372/2/372
f 372/4/372 374/8/374 376/5/376
f 378/1/378 375/9/375 372/2/372
f 377/6/377 372/2/372 375/9/375
f 379/10/379 380/11/380 378/1/378
f 379/10/379 378/1/378 381/12/381
f 380/11/380 375/9/375 378/1/378
f 381/12/381 378/1/378 373/3/373
f 384/13/384 382/14/382 381/12/381
f 382/14/382 379/10/379 381/12/381
f 381/12/381 383/15/383 385/16/385
f 373/3/373 383/15/383 381/12/381
f 384/13/384 381/12/381 385/16/385
f 383/15/383 386/17/386 385/18/385
f 387/19/387 384/13/384 385/16/385
f 386/17/386 387/20/387 385/18/385
f 390/21/390 388/22/388 387/19/387
f 388/22/388 384/13/384 387/19/387
f 386/17/386 389/23/389 387/20/387
f 390/21/390 387/19/387 389/24/389
f 391/25/391 390/21/390 393/26/393
f 392/27/392 390/21/390 391/25/391
f 392/27/392 388/22/388 390/21/390
f 390/21/390 389/24/389 393/26/393
f 394/28/394 399/29/399 391/30/391 393/31/393
f 398/32/398 394/28/394 393/31/393 389/33/389
f 423/34/423 395/35/395 394/28/394 397/36/397
f 395/35/395 396/37/396 394/28/394
f 394/28/394 396/37/396 399/29/399
f 394/28/394 398/32/398 397/36/397
f 399/29/399 400/38/400 391/30/391
f 402/39/402 401/40/401 399/29/399 396/37/396
f 399/29/399 401/40/401 400/38/400
f 401/40/401 404/41/404 400/38/400
f 401/40/401 402/39/402 403/42/403
f 401/40/401 403/42/403 404/41/404
f 400/38/400 404/41/404 405/43/405
f 405/43/405 404/41/404 406/44/406
f 403/42/403 406/44/406 404/41/404
f 407/45/407 410/46/410 406/47/406
f 406/44/406 409/48/409 407/49/407
f 403/42/403 408/50/408 406/44/406
f 408/50/408 409/48/409 406/44/406
f 406/47/406 410/46/410 405/51/405
f 410/46/410 392/27/392 405/51/405
f 407/45/407 411/52/411 410/46/410
f 411/52/411 412/53/412 410/46/410
f 410/46/410 412/53/412 392/27/392
f 412/53/412 382/14/382 384/13/384
f 413/54/413 382/14/382 412/53/412
f 392/27/392 412/53/412 388/22/388
f 411/52/411 413/54/413 412/53/412
f 388/22/388 412/53/412 384/13/384
f 407/49/407 413/54/413 411/52/411
f 415/55/415 413/54/413 407/49/407
f 413/54/413 414/56/414 382/14/382
f 415/55/415 414/56/414 413/54/413
f 415/55/415 408/50/408 416/57/416
f 408/50/408 415/55/415 409/48/409
f 409/48/409 415/55/415 407/49/407
f 415/55/415 416/57/416 414/56/414
f 408/50/408 418/58/418 416/57/416
f 416/57/416 418/58/418 417/59/417
f 416/57/416 417/59/417 380/11/380
f 414/56/414 416/57/416 380/11/380
f 408/50/408 403/60/403 418/58/418
f 403/60/403 419/61/419 418/58/418
f 418/58/418 419/61/419 420/62/420
f 417/59/417 418/58/418 420/62/420
f 420/62/420 419/61/419 421/63/421
f 417/59/417 420/62/420 421/63/421
f 375/9/375 421/63/421 377/6/377
f 417/59/417 421/63/421 375/9/375
f 421/63/421 419/61/419 422/64/422
f 422/64/422 377/6/377 421/63/421
f 395/65/395 422/64/422 419/61/419
f 395/65/395 423/66/423 422/64/422
f 422/64/422 423/66/423 377/6/377
f 397/36/397 424/67/424 423/34/423
f 377/6/377 423/66/423 374/7/374
f 423/66/423 424/68/424 374/7/374
f 376/5/376 424/69/424 398/70/398
f 398/32/398 424/67/424 397/36/397
f 374/8/374 424/69/424 376/5/376
f 402/71/402 396/72/396 419/61/419
f 403/60/403 402/71/402 419/61/419
f 419/61/419 396/72/396 395/65/395
f 380/11/380 417/59/417 375/9/375
f 414/56/414 379/10/379 382/14/382
f 414/56/414 380/11/380 379/10/379
f 392/27/392 391/25/391 405/51/405
f 391/30/391 400/38/400 405/43/405
f 386/17/386 398/70/398 389/23/389
f 376/5/376 398/70/398 386/17/386
f 383/15/383 376/5/376 386/17/386
f 383/15/383 373/3/373 376/5/376
f 431/1/431 425/2/425 426/3/426
f 426/3/426 425/4/425 429/5/429
f 430/6/430 427/7/427 425/2/425
f 425/4/425 427/8/427 429/5/429
f 431/1/431 428/9/428 425/2/425
f 430/6/430 425/2/425 428/9/428
f 432/10/432 433/11/433 431/1/431
f 432/10/432 431/1/431 434/12/434
f 433/11/433 428/9/428 431/1/431
f 434/12/434 431/1/431 426/3/426
f 437/13/437 435/14/435 434/12/434
f 435/14/435 432/10/432 434/12/434
f 434/12/434 436/15/436 438/16/438
f 426/3/426 436/15/436 434/12/434
f 437/13/437 434/12/434 438/16/438
f 436/15/436 439/17/439 438/18/438
f 440/19/440 437/13/437 438/16/438
f 439/17/439 440/20/440 438/18/438
f 443/21/443 441/22/441 440/19/440
f 441/22/441 437/13/437 440/19/440
f 439/17/439 442/23/442 440/20/440
f 443/21/443 440/19/440 442/24/442
f 444/25/444 443/21/443 446/26/446
f 445/27/445 443/21/443 444/25/444
f 445/27/445 441/22/441 443/21/443
f 443/21/443 442/24/442 446/26/446
f 447/28/447 452/29/452 444/30/444 446/31/446
f 451/32/451 447/28/447 446/31/446 442/33/442
f 476/34/476 448/35/448 447/28/447 450/36/450
f 448/35/448 449/37/449 447/28/447
f 447/28/447 449/37/449 452/29/452
f 447/28/447 451/32/451 450/36/450
f 452/29/452 453/38/453 444/30/444
f 455/39/455 454/40/454 452/29/452 449/37/449
f 452/29/452 454/40/454 453/38/453
f 454/40/454 457/41/457 453/38/453
f 454/40/454 455/39/455 456/42/456
f 454/40/454 456/42/456 457/41/457
f 453/38/453 457/41/457 458/43/458
f 458/43/458 457/41/457 459/44/459
f 456/42/456 459/44/459 457/41/457
f 460/45/460 463/46/463 459/47/459
f 459/44/459 462/48/462 460/49/460
f 456/42/456 461/50/461 459/44/459
f 461/50/461 462/48/462 459/44/459
f 459/47/459 463/46/463 458/51/458
f 463/46/463 445/27/445 458/51/458
f 460/45/460 464/52/464 463/46/463
f 464/52/464 465/53/465 463/46/463
f 463/46/463 465/53/465 445/27/445
f 465/53/465 435/14/435 437/13/437
f 466/54/466 435/14/435 465/53/465
f 445/27/445 465/53/465 441/22/441
f 464/52/464 466/54/466 465/53/465
f 441/22/441 465/53/465 437/13/437
f 460/49/460 466/54/466 464/52/464
f 468/55/468 466/54/466 460/49/460
f 466/54/466 467/56/467 435/14/435
f 468/55/468 467/56/467 466/54/466
f 468/55/468 461/50/461 469/57/469
f 461/50/461 468/55/468 462/48/462
f 462/48/462 468/55/468 460/49/460
f 468/55/468 469/57/469 467/56/467
f 461/50/461 471/58/471 469/57/469
f 469/57/469 471/58/471 470/59/470
f 469/57/469 470/59/470 433/11/433
f 467/56/467 469/57/469 433/11/433
f 461/50/461 456/60/456 471/58/471
f 456/60/456 472/61/472 471/58/471
f 471/58/471 472/61/472 473/62/473
f 470/59/470 471/58/471 473/62/473
f 473/62/473 472/61/472 474/63/474
f 470/59/470 473/62/473 474/63/474
f 428/9/428 474/63/474 430/6/430
f 470/59/470 474/63/474 428/9/428
f 474/63/474 472/61/472 475/64/475
f 475/64/475 430/6/430 474/63/474
f 448/65/448 475/64/475 472/61/472
f 448/65/448 476/66/476 475/64/475
f 475/64/475 476/66/476 430/6/430
f 450/36/450 477/67/477 476/34/476
f 430/6/430 476/66/476 427/7/427
f 476/66/476 477/68/477 427/7/427
f 429/5/429 477/69/477 451/70/451
f 451/32/451 477/67/477 450/36/450
f 427/8/427 477/69/477 429/5/429
f 455/71/455 449/72/449 472/61/472
f 456/60/456 455/71/455 472/61/472
f 472/61/472 449/72/449 448/65/448
f 433/11/433 470/59/470 428/9/428
f 467/56/467 432/10/432 435/14/435
f 467/56/467 433/11/433 432/10/432
f 445/27/445 444/25/444 458/51/458
f 444/30/444 453/38/453 458/43/458
f 439/17/439 451/70/451 442/23/442
f 429/5/429 451/70/451 439/17/439
f 436/15/436 429/5/429 439/17/439
f 436/15/436 426/3/426 429/5/429
f 481/29/481 507/38/507 480/30/480
f 481/29/481 508/40/508 507/38/507
f 508/40/508 485/41/485 507/38/507
f 505/35/505 483/37/483 482/28/482
f 479/43/479 485/41/485 486/44/486
f 509/42/509 486/44/486 485/41/485
f 510/50/510 487/48/487 486/44/486
f 486/44/486 487/48/487 489/49/489
f 510/50/510 512/55/512 487/48/487
f 512/55/512 488/54/488 489/49/489
f 512/55/512 511/57/511 513/56/513
f 487/48/487 512/55/512 489/49/489
f 511/57/511 490/59/490 491/11/491
f 513/56/513 491/11/491 492/10/492
f 513/56/513 492/10/492 493/14/493
f 497/32/497 498/67/498 514/36/514
f 514/36/514 498/67/498 504/34/504
f 516/52/516 494/53/494 515/46/515
f 517/27/517 480/25/480 479/51/479
f 489/45/489 515/46/515 486/47/486
f 488/54/488 493/14/493 494/53/494
f 509/60/509 484/71/484 519/61/519
f 509/60/509 519/61/519 518/58/518
f 520/62/520 519/61/519 495/63/495
f 484/71/484 483/72/483 519/61/519
f 505/65/505 496/64/496 519/61/519
f 490/59/490 495/63/495 506/9/506
f 510/50/510 518/58/518 511/57/511
f 521/15/521 522/17/522 500/18/500
f 499/3/499 478/4/478 523/5/523
f 523/5/523 497/70/497 522/17/522
f 501/8/501 498/69/498 523/5/523
f 478/4/478 501/8/501 523/5/523
f 522/17/522 527/20/527 500/18/500
f 525/22/525 526/13/526 527/19/527
f 524/21/524 527/19/527 503/24/503
f 517/27/517 494/53/494 525/22/525
f 494/53/494 493/14/493 526/13/526
f 526/13/526 530/12/530 500/16/500
f 524/21/524 503/24/503 502/26/502
f 496/64/496 528/6/528 495/63/495
f 528/6/528 478/2/478 506/9/506
f 504/66/504 498/68/498 501/7/501
f 493/14/493 492/10/492 530/12/530
f 492/10/492 529/1/529 530/12/530
f 529/1/529 478/2/478 499/3/499
f 491/11/491 506/9/506 529/1/529
f 499/3/499 521/15/521 530/12/530
f 480/30/480 507/38/507 479/43/479
f 482/28/482 481/29/481 480/30/480 502/31/502
f 507/38/507 485/41/485 479/43/479
f 482/28/482 483/37/483 481/29/481
f 508/40/508 484/39/484 509/42/509
f 508/40/508 509/42/509 485/41/485
f 509/42/509 510/50/510 486/44/486
f 512/55/512 510/50/510 511/57/511
f 512/55/512 513/56/513 488/54/488
f 513/56/513 511/57/511 491/11/491
f 491/11/491 490/59/490 506/9/506
f 488/54/488 513/56/513 493/14/493
f 504/34/504 505/35/505 482/28/482 514/36/514
f 497/32/497 482/28/482 502/31/502 503/33/503
f 482/28/482 497/32/497 514/36/514
f 489/45/489 516/52/516 515/46/515
f 515/46/515 517/27/517 479/51/479
f 515/46/515 494/53/494 517/27/517
f 516/52/516 488/54/488 494/53/494
f 486/47/486 515/46/515 479/51/479
f 489/49/489 488/54/488 516/52/516
f 510/50/510 509/60/509 518/58/518
f 490/59/490 518/58/518 520/62/520
f 518/58/518 519/61/519 520/62/520
f 490/59/490 520/62/520 495/63/495
f 519/61/519 483/72/483 505/65/505
f 495/63/495 519/61/519 496/64/496
f 511/57/511 518/58/518 490/59/490
f 521/15/521 523/5/523 522/17/522
f 521/15/521 499/3/499 523/5/523
f 522/17/522 497/70/497 503/23/503
f 523/5/523 498/69/498 497/70/497
f 522/17/522 503/23/503 527/20/527
f 525/22/525 494/53/494 526/13/526
f 524/21/524 525/22/525 527/19/527
f 527/19/527 526/13/526 500/16/500
f 517/27/517 524/21/524 480/25/480
f 517/27/517 525/22/525 524/21/524
f 526/13/526 493/14/493 530/12/530
f 480/25/480 524/21/524 502/26/502
f 506/9/506 495/63/495 528/6/528
f 496/64/496 504/66/504 528/6/528
f 528/6/528 501/7/501 478/2/478
f 528/6/528 504/66/504 501/7/501
f 505/65/505 504/66/504 496/64/496
f 492/10/492 491/11/491 529/1/529
f 484/39/484 508/40/508 481/29/481 483/37/483
f 530/12/530 529/1/529 499/3/499
f 529/1/529 506/9/506 478/2/478
f 530/12/530 521/15/521 500/16/500
f 537/1/537 531/2/531 532/3/532
f 532/3/532 531/4/531 535/5/535
f 536/6/536 533/7/533 531/2/531
f 531/4/531 533/8/533 535/5/535
f 537/1/537 534/9/534 531/2/531
f 536/6/536 531/2/531 534/9/534
f 538/10/538 539/11/539 537/1/537
f 538/10/538 537/1/537 540/12/540
f 539/11/539 534/9/534 537/1/537
f 540/12/540 537/1/537 532/3/532
f 543/13/543 541/14/541 540/12/540
f 541/14/541 538/10/538 540/12/540
f 540/12/540 542/15/542 544/16/544
f 532/3/532 542/15/542 540/12/540
f 543/13/543 540/12/540 544/16/544
f 542/15/542 545/17/545 544/18/544
f 546/19/546 543/13/543 544/16/544
f 545/17/545 546/20/546 544/18/544
f 549/21/549 547/22/547 546/19/546
f 547/22/547 543/13/543 546/19/546
f 545/17/545 548/23/548 546/20/546
f 549/21/549 546/19/546 548/24/548
f 550/25/550 549/21/549 552/26/552
f 551/27/551 549/21/549 550/25/550
f 551/27/551 547/22/547 549/21/549
f 549/21/549 548/24/548 552/26/552
f 553/28/553 558/29/558 550/30/550 552/31/552
f 557/32/557 553/28/553 552/31/552 548/33/548
f 582/34/582 554/35/554 553/28/553 556/36/556
f 554/35/554 555/37/555 553/28/553
f 553/28/553 555/37/555 558/29/558
f 553/28/553 557/32/557 556/36/556
f 558/29/558 559/38/559 550/30/550
f 561/39/561 560/40/560 558/29/558 555/37/555
f 558/29/558 560/40/560 559/38/559
f 560/40/560 563/41/563 559/38/559
f 560/40/560 561/39/561 562/42/562
f 560/40/560 562/42/562 563/41/563
f 559/38/559 563/41/563 564/43/564
f 564/43/564 563/41/563 565/44/565
f 562/42/562 565/44/565 563/41/563
f 566/45/566 569/46/569 565/47/565
f 565/44/565 568/48/568 566/49/566
f 562/42/562 567/50/567 565/44/565
f 567/50/567 568/48/568 565/44/565
f 565/47/565 569/46/569 564/51/564
f 569/46/569 551/27/551 564/51/564
f 566/45/566 570/52/570 569/46/569
f 570/52/570 571/53/571 569/46/569
f 569/46/569 571/53/571 551/27/551
f 571/53/571 541/14/541 543/13/543
f 572/54/572 541/14/541 571/53/571
f 551/27/551 571/53/571 547/22/547
f 570/52/570 572/54/572 571/53/571
f 547/22/547 571/53/571 543/13/543
f 566/49/566 572/54/572 570/52/570
f 574/55/574 572/54/572 566/49/566
f 572/54/572 573/56/573 541/14/541
f 574/55/574 573/56/573 572/54/572
f 574/55/574 567/50/567 575/57/575
f 567/50/567 574/55/574 568/48/568
f 568/48/568 574/55/574 566/49/566
f 574/55/574 575/57/575 573/56/573
f 567/50/567 577/58/577 575/57/575
f 575/57/575 577/58/577 576/59/576
f 575/57/575 576/59/576 539/11/539
f 573/56/573 575/57/575 539/11/539
f 567/50/567 562/60/562 577/58/577
f 562/60/562 578/61/578 577/58/577
f 577/58/577 578/61/578 579/62/579
f 576/59/576 577/58/577 579/62/579
f 579/62/579 578/61/578 580/63/580
f 576/59/576 579/62/579 580/63/580
f 534/9/534 580/63/580 536/6/536
f 576/59/576 580/63/580 534/9/534
f 580/63/580 578/61/578 581/64/581
f 581/64/581 536/6/536 580/63/580
f 554/65/554 581/64/581 578/61/578
f 554/65/554 582/66/582 581/64/581
f 581/64/581 582/66/582 536/6/536
f 556/36/556 583/67/583 582/34/582
f 536/6/536 582/66/582 533/7/533
f 582/66/582 583/68/583 533/7/533
f 535/5/535 583/69/583 557/70/557
f 557/32/557 583/67/583 556/36/556
f 533/8/533 583/69/583 535/5/535
f 561/71/561 555/72/555 578/61/578
f 562/60/562 561/71/561 578/61/578
f 578/61/578 555/72/555 554/65/554
f 539/11/539 576/59/576 534/9/534
f 573/56/573 538/10/538 541/14/541
f 573/56/573 539/11/539 538/10/538
f 551/27/551 550/25/550 564/51/564
f 550/30/550 559/38/559 564/43/564
f 545/17/545 557/70/557 548/23/548
f 535/5/535 557/70/557 545/17/545
f 542/15/542 535/5/535 545/17/545
f 542/15/542 532/3/532 535/5/535
