# Blender 5.0.0
# www.blender.org
o Jungle_Tree
v -2.722867 13.421427 2.069490
v -2.535588 14.129853 2.029611
v -2.614890 13.355178 -2.230523
v -2.648949 14.190724 -2.087806
v 2.175056 13.462706 2.133369
v 2.233699 14.293045 2.238840
v 2.079869 13.532001 -2.007978
v 2.088623 14.272059 -2.007715
v -2.897539 13.784487 -1.398634
v -3.127340 13.902246 -0.030556
v -2.682381 13.771796 1.305593
v -3.172621 13.129570 2.346644
v -3.329637 13.188830 2.488584
v -2.986032 13.702851 2.362768
v -2.818350 14.395503 1.249400
v -3.125889 14.489008 -0.040087
v -2.918499 14.456694 -1.282356
v -2.960586 13.668779 -2.485950
v -3.195214 13.040602 -2.665654
v -3.011070 12.977909 -2.538232
v 1.097121 13.704120 -2.307153
v -0.343847 13.873631 -2.456726
v -1.678732 13.590555 -2.309926
v -1.741332 14.299982 -2.318127
v -0.328360 14.363304 -2.490244
v 1.102214 14.413396 -2.306765
v 2.442436 13.821951 -2.300571
v 2.619849 13.247070 -2.448720
v 2.438527 13.190362 -2.301554
v 2.454897 13.726274 1.328803
v 2.596402 13.884507 0.013384
v 2.433821 13.732238 -1.200045
v 2.416375 14.411613 -1.166958
v 2.488423 14.405718 0.125994
v 2.409100 14.438565 1.408214
v 2.507865 13.801135 2.488777
v 2.682162 13.173834 2.487417
v 2.508560 13.104487 2.338713
v -1.844387 13.516996 2.323725
v -0.200781 13.797309 2.356266
v 1.381521 13.624558 2.316393
v 1.477576 14.389872 2.343405
v -0.096765 14.364895 2.305516
v -1.579220 14.159498 2.256174
v -3.497112 13.236219 1.368383
v -3.758881 13.247301 1.433758
v -3.265412 13.850251 1.430385
v -4.146133 13.158768 -0.092314
v -4.443551 13.133724 -0.089287
v -3.962605 13.837008 -0.047758
v -3.676271 13.149661 -1.145320
v -3.935180 13.172592 -1.157388
v -3.548217 13.883291 -1.338185
v -1.602893 12.918895 -2.860059
v -1.668795 12.930944 -3.057863
v -1.676640 13.601357 -2.878838
v -0.342288 13.287641 -3.139378
v -0.337784 13.280189 -3.370978
v -0.334777 13.895300 -3.140066
v 1.214576 12.994947 -2.950689
v 1.302618 13.000543 -3.164444
v 1.211511 13.703120 -2.942494
v 3.212760 12.995124 -1.328025
v 3.474909 12.998517 -1.401692
v 3.211249 13.707973 -1.307482
v 3.487431 13.218349 -0.016624
v 3.769205 13.224417 -0.014846
v 3.470540 13.886293 -0.005740
v 3.354229 12.914873 1.222174
v 3.624573 12.916688 1.278949
v 3.270800 13.698807 1.351215
v 1.370039 12.903086 2.899545
v 1.453067 12.908756 3.113861
v 1.492331 13.626663 2.906392
v -0.400714 13.198158 3.145688
v -0.385953 13.203929 3.378322
v -0.286022 13.807842 3.089405
v -2.266955 13.003862 2.992511
v -2.338364 13.034743 3.202591
v -2.001351 13.588022 2.963132
v -1.823176 14.379558 -1.313269
v -0.354764 14.491779 -1.458411
v 1.079014 14.348106 -1.201235
v -1.753800 14.725862 -0.091711
v -0.402666 14.675689 0.039946
v 0.801357 14.440030 0.425648
v -1.870526 14.376542 1.215099
v -0.361958 14.801426 1.301235
v 1.269349 14.408872 1.400311
v 1.069034 14.572376 -1.184041
v -0.334604 14.520332 -1.458074
v -1.791991 14.622594 -1.324295
v 0.821329 14.510064 0.426235
v -0.379632 14.872560 0.042951
v -1.733260 14.820074 -0.091521
v 1.257269 14.655478 1.406036
v -0.341931 14.860511 1.302599
v -1.881541 14.679866 1.209376
v 3.414334 11.436526 0.768142
v 3.339172 11.771461 0.717683
v 1.918973 11.405205 2.146377
v 1.978632 11.800241 2.110980
v 1.824389 11.456042 -0.915696
v 1.840899 11.848616 -0.970310
v 0.449744 11.488804 0.479304
v 0.446953 11.838694 0.476246
v 2.294399 11.608176 1.968607
v 2.834469 11.663851 1.596465
v 3.141673 11.602176 1.005752
v 3.656415 11.298541 0.829635
v 3.756268 11.326558 0.836236
v 3.600493 11.569580 0.760983
v 3.167336 11.897056 1.070403
v 2.830755 11.941264 1.599109
v 2.340771 11.925986 1.937462
v 1.946006 11.553472 2.347785
v 1.962201 11.256477 2.486571
v 1.944868 11.226838 2.382128
v 0.671543 11.570180 0.911384
v 1.094906 11.650322 1.449800
v 1.583979 11.516488 1.854683
v 1.601793 11.851894 1.878634
v 1.078431 11.881833 1.455572
v 0.670000 11.905516 0.909527
v 0.231110 11.625889 0.452491
v 0.122438 11.354094 0.441007
v 0.232062 11.327283 0.454141
v 1.459163 11.580654 -0.745963
v 0.966024 11.655464 -0.361173
v 0.607568 11.583473 0.093294
v 0.624541 11.904672 0.088330
v 1.039784 11.901886 -0.361568
v 1.501192 11.917416 -0.756545
v 1.835539 11.616047 -1.145628
v 1.777726 11.319468 -1.204353
v 1.784364 11.286682 -1.096486
v 3.211586 11.481710 0.386248
v 2.681816 11.614238 -0.182455
v 2.147632 11.532564 -0.706518
v 2.125196 11.894394 -0.748017
v 2.630360 11.882586 -0.201069
v 3.101402 11.785477 0.318452
v 3.431072 11.348963 1.261689
v 3.539400 11.354202 1.329046
v 3.375882 11.639268 1.162626
v 3.148730 11.312346 1.962661
v 3.247621 11.300506 2.062637
v 3.103467 11.633007 1.885693
v 2.636635 11.308040 2.149630
v 2.717730 11.318881 2.241500
v 2.529022 11.654889 2.169618
v 1.372258 11.198936 2.009954
v 1.326789 11.204634 2.097414
v 1.390148 11.521596 2.041170
v 0.862636 11.373273 1.673894
v 0.782527 11.369751 1.748571
v 0.859931 11.660567 1.671570
v 0.414418 11.234894 1.083260
v 0.312880 11.237538 1.123705
v 0.418209 11.569707 1.081604
v 0.307814 11.234976 -0.129040
v 0.196546 11.236580 -0.193799
v 0.315285 11.572001 -0.135287
v 0.662649 11.340514 -0.653798
v 0.570536 11.343383 -0.750044
v 0.671902 11.656308 -0.651645
v 1.127043 11.197035 -1.016196
v 1.057363 11.197893 -1.126657
v 1.198304 11.567668 -1.030332
v 2.349387 11.191463 -0.894503
v 2.394826 11.194143 -0.993210
v 2.311472 11.533560 -0.938273
v 3.015607 11.330968 -0.374333
v 3.089728 11.333696 -0.455891
v 2.958760 11.619219 -0.394751
v 3.577679 11.239108 0.309648
v 3.672497 11.253708 0.264765
v 3.480310 11.515290 0.229143
v 1.969868 11.889518 1.575777
v 1.437421 11.942574 1.125017
v 1.052955 11.874647 0.553635
v 2.361752 12.049565 1.150279
v 1.961866 12.006641 0.648255
v 1.696634 11.937310 0.112582
v 2.843815 11.865210 0.759908
v 2.376673 12.066089 0.219415
v 1.873537 11.903376 -0.367005
v 1.062075 11.980680 0.551366
v 1.430901 11.956073 1.118063
v 1.955863 12.004422 1.568818
v 1.690261 11.951219 0.105609
v 1.955307 12.122602 0.639446
v 2.355058 12.097787 1.143242
v 1.879455 12.019969 -0.364788
v 2.370546 12.116904 0.212167
v 2.845496 12.031499 0.765531
v -0.647178 0.000000 -0.631923
v -0.631923 0.000000 0.647178
v 0.647178 0.000000 0.631923
v 0.631923 0.000000 -0.647178
v -0.547979 0.592372 -0.535419
v -0.535968 0.629410 0.549273
v -0.501960 1.612243 -0.458380
v -0.496996 1.683281 0.328900
v 0.289437 1.762395 0.316803
v 0.284473 1.691357 -0.470477
v -0.543005 3.100843 -0.516243
v -0.538798 3.123889 0.061019
v 0.038877 3.116733 0.057088
v 0.034671 3.093686 -0.520173
v -0.333384 4.621818 -0.449757
v -0.332862 4.598031 0.086169
v 0.201358 4.549241 0.083486
v 0.200836 4.573028 -0.452440
v -0.190201 6.205435 -0.308215
v -0.190108 6.182352 0.124897
v 0.243194 6.188491 -0.309211
v -0.210884 11.501987 0.334617
v -0.242657 12.423572 -0.095854
v -0.621572 12.445691 0.282304
v -0.191352 13.607482 -0.108574
v -0.519992 13.631511 0.219433
v 1.025477 10.216406 0.014124
v 0.671131 10.486716 0.335561
v 1.597407 11.102786 0.276878
v 2.136859 12.038061 0.486194
v 2.100425 12.034401 0.671847
v 1.915101 12.023238 0.635258
v 1.951536 12.026901 0.449604
v -0.232655 14.642241 -0.124509
v -0.482685 14.670254 -0.124509
v -0.478689 14.705916 0.124513
v -0.228659 14.677905 0.124513
v 0.547979 0.683626 0.535419
v 0.535968 0.646588 -0.549273
v 0.243286 6.165408 0.123901
v -0.138369 8.042910 -0.202904
v -0.138167 8.032825 0.203043
v 0.267897 8.035415 0.202906
v 0.267695 8.045500 -0.203041
v -0.161093 8.720385 -0.203034
v 0.244756 8.733912 0.203036
v -0.161091 8.720385 0.203038
v 0.244754 8.733912 -0.203036
v -0.184026 9.408372 -0.203034
v -0.184024 9.408372 0.203038
v 0.221823 9.421900 0.203037
v 0.221821 9.421900 -0.203036
v 0.170808 10.146058 -0.167355
v -0.276823 10.069777 -0.176754
v -0.270967 10.040141 0.228193
v 0.133011 10.131240 0.230976
v -0.212468 11.508760 -0.071396
v -0.615124 11.456203 -0.070701
v -0.613540 11.449430 0.335312
v -0.242806 12.437288 0.282758
v -0.621423 12.431974 -0.096307
v 0.446378 9.796672 -0.113055
v 0.364929 9.796672 0.278660
v 0.763040 10.497427 -0.041817
v 0.933569 10.205696 0.391502
v 1.362295 11.263583 0.222242
v 1.284067 11.243857 0.500828
v 1.519179 11.083060 0.555463
v -0.519944 13.618055 -0.109054
v -0.191399 13.620936 0.219913
vn 0.3609 -0.8285 -0.4282
vn -0.3283 0.8173 0.4735
vn 0.3567 -0.7137 0.6028
vn -0.3500 0.7812 -0.5170
vn -0.4279 -0.7039 -0.5669
vn 0.3797 0.7818 0.4945
vn -0.3928 -0.7761 0.4933
vn 0.3522 0.8346 -0.4236
vn 0.5034 -0.7815 0.3687
vn 0.5614 -0.8274 -0.0182
vn 0.4779 -0.8153 -0.3268
vn 0.0314 -0.9888 -0.1461
vn -0.7669 -0.3125 0.5605
vn -0.5176 0.6671 0.5358
vn -0.4308 0.8558 0.2863
vn -0.4702 0.8820 0.0313
vn -0.4150 0.8735 -0.2545
vn -0.5065 0.5034 -0.7001
vn -0.6027 -0.4389 -0.6664
vn 0.0733 -0.9806 0.1817
vn -0.2385 -0.7810 0.5771
vn 0.0250 -0.7762 0.6300
vn 0.2358 -0.7238 0.6485
vn -0.1537 0.8393 -0.5215
vn -0.0259 0.8819 -0.4707
vn 0.1425 0.8848 -0.4437
vn 0.5437 0.5433 -0.6397
vn 0.5861 -0.3903 -0.7100
vn -0.1539 -0.9719 0.1782
vn -0.5240 -0.8041 -0.2809
vn -0.5092 -0.8604 0.0173
vn -0.4824 -0.8349 0.2650
vn 0.3740 0.9131 -0.1625
vn 0.3489 0.9371 -0.0124
vn 0.4022 0.9035 0.1482
vn 0.5500 0.4515 0.7026
vn 0.5920 -0.4323 0.6802
vn -0.1567 -0.9673 -0.1995
vn 0.2240 -0.7980 -0.5595
vn -0.0001 -0.7546 -0.6562
vn -0.2408 -0.7152 -0.6561
vn 0.1297 0.8292 0.5436
vn -0.0312 0.8469 0.5308
vn -0.1621 0.8401 0.5177
vn 0.2468 -0.9594 -0.1368
vn -0.8400 -0.4075 0.3582
vn -0.6785 0.6610 0.3205
vn 0.2467 -0.9690 0.0137
vn -0.9057 -0.4236 0.0169
vn -0.7648 0.6434 0.0334
vn 0.2655 -0.9507 0.1604
vn -0.8129 -0.4759 -0.3358
vn -0.7308 0.5906 -0.3421
vn 0.1794 -0.9274 0.3283
vn -0.1310 -0.6008 -0.7886
vn -0.2393 0.4769 -0.8458
vn 0.0540 -0.9367 0.3458
vn -0.0254 -0.4582 -0.8885
vn -0.0447 0.5460 -0.8366
vn -0.1086 -0.9489 0.2963
vn 0.2588 -0.5729 -0.7776
vn 0.2559 0.5118 -0.8201
vn -0.2540 -0.9627 0.0934
vn 0.7597 -0.5469 -0.3518
vn 0.7469 0.5737 -0.3361
vn -0.3027 -0.9529 -0.0160
vn 0.9056 -0.4204 -0.0560
vn 0.7702 0.6374 -0.0218
vn -0.2504 -0.9620 -0.1089
vn 0.7858 -0.5587 0.2652
vn 0.7791 0.5404 0.3179
vn -0.0860 -0.9445 -0.3172
vn 0.2377 -0.5947 0.7680
vn 0.2217 0.4395 0.8705
vn -0.0119 -0.9591 -0.2828
vn -0.0220 -0.4460 0.8948
vn -0.0099 0.6056 0.7957
vn 0.0435 -0.9844 -0.1702
vn -0.3434 -0.4388 0.8304
vn -0.2214 0.6334 0.7415
vn 0.2682 -0.8873 0.3753
vn -0.0315 -0.9316 0.3620
vn -0.2575 -0.9307 0.2597
vn 0.2853 -0.9580 0.0303
vn -0.0508 -0.9967 0.0639
vn -0.2694 -0.9612 0.0589
vn 0.3267 -0.8694 -0.3706
vn -0.0073 -0.9433 -0.3317
vn -0.2967 -0.9023 -0.3128
vn 0.0944 0.9917 -0.0874
vn 0.0284 0.9858 -0.1657
vn -0.0929 0.9717 -0.2173
vn 0.1485 0.9865 -0.0695
vn 0.0639 0.9950 -0.0763
vn -0.1225 0.9915 -0.0429
vn 0.1197 0.9869 0.1081
vn 0.0067 0.9796 0.2008
vn -0.1729 0.9491 0.2631
vn -0.5528 -0.8323 0.0403
vn 0.5685 0.8173 -0.0938
vn 0.1846 -0.7137 -0.6757
vn -0.1276 0.7812 0.6111
vn -0.1093 -0.7039 0.7019
vn 0.0908 0.7818 -0.6168
vn 0.6276 -0.7761 -0.0612
vn -0.5493 0.8346 0.0419
vn -0.0857 -0.7820 -0.6174
vn -0.4034 -0.8300 -0.3853
vn -0.5596 -0.8216 -0.1089
vn -0.1267 -0.9888 0.0791
vn 0.9362 -0.3125 0.1607
vn 0.7450 0.6671 -0.0012
vn 0.5054 0.8558 0.1101
vn 0.3497 0.8820 0.3159
vn 0.1060 0.8735 0.4751
vn -0.1502 0.5034 0.8509
vn -0.0591 -0.4389 0.8966
vn 0.0794 -0.9806 -0.1791
vn 0.5804 -0.7810 -0.2304
vn 0.4349 -0.7762 -0.4564
vn 0.3016 -0.7238 -0.6206
vn -0.2674 0.8393 0.4733
vn -0.3199 0.8819 0.3462
vn -0.4178 0.8848 0.2064
vn -0.8378 0.5433 0.0548
vn -0.9178 -0.3903 0.0733
vn 0.2351 -0.9719 -0.0135
vn 0.1624 -0.8012 0.5759
vn 0.3705 -0.8576 0.3567
vn 0.5296 -0.8328 0.1611
vn -0.3770 0.9131 -0.1555
vn -0.2517 0.9371 -0.2419
vn -0.1735 0.9035 -0.3919
vn 0.1218 0.4515 -0.8839
vn 0.0764 -0.4323 -0.8985
vn -0.0342 -0.9673 0.2514
vn -0.5497 -0.8042 0.2259
vn -0.4680 -0.7610 0.4493
vn -0.3037 -0.7176 0.6268
vn 0.3001 0.8292 -0.4715
vn 0.4028 0.8469 -0.3470
vn 0.4845 0.8401 -0.2439
vn -0.2700 -0.9594 -0.0821
vn 0.8419 -0.4075 0.3539
vn 0.7024 0.6610 0.2642
vn -0.1619 -0.9690 -0.1866
vn 0.6425 -0.4236 0.6386
vn 0.5563 0.6434 0.5259
vn -0.0696 -0.9507 -0.3023
vn 0.3246 -0.4759 0.8174
vn 0.2630 0.5906 0.7629
vn 0.1109 -0.9274 -0.3573
vn -0.4751 -0.6008 0.6429
vn -0.4408 0.4769 0.7605
vn 0.2108 -0.9367 -0.2795
vn -0.6203 -0.4582 0.6366
vn -0.5696 0.5460 0.6143
vn 0.2883 -0.9489 -0.1282
vn -0.7386 -0.5729 0.3553
vn -0.7670 0.5118 0.3870
vn 0.2439 -0.9627 0.1174
vn -0.7813 -0.5469 -0.3007
vn -0.7612 0.5737 -0.3024
vn 0.1992 -0.9529 0.2285
vn -0.6705 -0.4204 -0.6113
vn -0.5517 0.6374 -0.5379
vn 0.0961 -0.9620 0.2556
vn -0.3565 -0.5587 -0.7488
vn -0.3140 0.5404 -0.7806
vn -0.1679 -0.9445 0.2825
vn 0.3861 -0.5947 -0.7052
vn 0.4707 0.4395 -0.7650
vn -0.1948 -0.9591 0.2054
vn 0.6578 -0.4460 -0.6070
vn 0.5782 0.6056 -0.5467
vn -0.1525 -0.9844 0.0873
vn 0.8353 -0.4388 -0.3313
vn 0.6865 0.6334 -0.3570
vn 0.0819 -0.8906 -0.4473
vn 0.2758 -0.9334 -0.2296
vn 0.3646 -0.9311 -0.0026
vn -0.1778 -0.9617 -0.2086
vn 0.0619 -0.9981 -0.0069
vn 0.2072 -0.9676 0.1446
vn -0.4842 -0.8744 0.0310
vn -0.2452 -0.9423 0.2279
vn -0.0273 -0.9032 0.4283
vn -0.1285 0.9917 -0.0069
vn -0.1388 0.9858 0.0950
vn -0.0914 0.9717 0.2180
vn -0.1533 0.9865 -0.0582
vn -0.0993 0.9950 0.0072
vn 0.0544 0.9915 0.1178
vn -0.0057 0.9869 -0.1612
vn 0.1395 0.9796 -0.1445
vn 0.3093 0.9491 -0.0590
vn -0.6987 0.2178 -0.6815
vn -0.6842 0.2127 0.6976
vn 0.7002 0.2045 0.6840
vn 0.6816 0.2101 -0.7009
vn -0.7040 0.1563 -0.6928
vn -0.6735 0.1949 0.7131
vn -0.7199 0.0216 -0.6938
vn -0.6987 0.1441 0.7007
vn 0.6805 0.2802 0.6770
vn 0.6830 0.1610 -0.7124
vn -0.7192 0.0395 -0.6937
vn -0.7414 0.0971 0.6640
vn 0.7002 0.0879 0.7085
vn 0.6548 0.0261 -0.7553
vn -0.6914 0.1268 -0.7113
vn -0.6957 0.0647 0.7154
vn 0.7174 -0.0649 0.6936
vn 0.7103 -0.0029 -0.7039
vn -0.7017 0.0936 -0.7063
vn -0.6999 0.0178 0.7141
vn 0.7123 0.0373 -0.7009
vn 0.6538 0.0881 0.7515
vn 0.6968 -0.0165 -0.7170
vn -0.7168 0.0649 0.6943
vn 0.7155 -0.0117 -0.6985
vn -0.6940 0.0935 0.7139
vn 0.6784 -0.4830 -0.5535
vn -0.5857 0.5011 0.6371
vn 0.7749 -0.3307 -0.5387
vn 0.8464 -0.4114 -0.3380
vn 0.6050 -0.4475 0.6585
vn -0.5959 0.3593 0.7182
vn -0.2449 0.4385 -0.8647
vn 0.6980 0.0152 -0.7160
vn -0.7519 0.0180 -0.6591
vn -0.7066 0.0888 0.7020
vn 0.6665 0.0912 0.7399
vn 0.6947 0.2499 0.6745
vn 0.6933 0.2131 -0.6884
vn 0.7111 -0.0375 0.7021
vn -0.7070 0.0184 -0.7070
vn -0.6949 -0.0171 0.7189
vn 0.7079 -0.0079 0.7063
vn 0.7183 0.0271 -0.6952
vn -0.7067 -0.0236 -0.7071
vn 0.7067 0.0235 0.7071
vn -0.7067 -0.0236 0.7071
vn 0.7067 0.0235 -0.7071
vn -0.6890 -0.0440 -0.7234
vn -0.7071 -0.0975 0.7003
vn 0.6345 -0.2302 0.7379
vn 0.6341 -0.0988 -0.7669
vn 0.2160 0.3486 -0.9121
vn -0.6819 -0.0873 -0.7262
vn -0.6979 -0.1505 0.7002
vn 0.0701 0.3615 0.9297
vn 0.6891 0.1183 -0.7149
vn -0.7378 -0.0758 -0.6707
vn -0.7105 -0.0953 0.6972
vn 0.6981 0.0352 0.7151
vn -0.7145 0.0145 -0.6995
vn 0.6640 -0.3916 -0.6370
vn 0.3647 -0.4217 0.8302
vn -0.2275 0.5333 -0.8148
vn 0.3732 -0.5323 0.7598
vn -0.3424 0.5154 -0.7856
vn -0.6859 0.4406 0.5792
vn 0.4205 -0.3949 0.8169
vn -0.7006 0.0341 -0.7127
vn 0.7140 0.0469 0.6986
vt 0.866313 0.755849
vt 0.893750 0.745821
vt 0.988254 0.899276
vt 0.956411 0.903634
vt 0.119009 0.714013
vt 0.191944 0.747779
vt 0.086331 0.879487
vt 0.003286 0.846107
vt 0.071346 0.860866
vt 0.040460 0.858363
vt 0.103247 0.752749
vt 0.130185 0.755990
vt 0.992782 0.931120
vt 0.905493 0.957083
vt 0.845719 0.830340
vt 0.930396 0.821239
vt 0.768942 0.692017
vt 0.820884 0.651113
vt 0.762987 0.783398
vt 0.838253 0.634735
vt 0.191959 0.618717
vt 0.240505 0.661475
vt 0.285463 0.714072
vt 0.250645 0.791826
vt 0.192489 0.914051
vt 0.792393 0.975848
vt 0.763461 0.850038
vt 0.745804 0.766288
vt 0.792172 0.713877
vt 0.845892 0.666246
vt 0.190478 0.600856
vt 0.209864 0.614134
vt 0.236453 0.756483
vt 0.256713 0.660167
vt 0.197533 0.892077
vt 0.823755 0.922960
vt 0.349312 0.576742
vt 0.343504 0.557036
vt 0.488095 0.534189
vt 0.487789 0.558388
vt 0.701113 0.578372
vt 0.675366 0.647960
vt 0.536417 0.625042
vt 0.548943 0.557884
vt 0.660053 0.541564
vt 0.652676 0.563689
vt 0.383893 0.603229
vt 0.373486 0.527512
vt 0.354871 0.659853
vt 0.659284 0.737553
vt 0.523621 0.702237
vt 0.384902 0.697615
vt 0.287094 0.698922
vt 0.254059 0.646565
vt 0.224236 0.588958
vt 0.801887 0.610049
vt 0.783903 0.627306
vt 0.636175 0.656483
vt 0.741157 0.672390
vt 0.491643 0.654007
vt 0.877413 0.718097
vt 0.902989 0.707704
vt 0.945408 0.845588
vt 0.917182 0.847918
vt 0.089133 0.649118
vt 0.144902 0.706701
vt 0.071967 0.828823
vt 0.006232 0.782818
vt 0.049467 0.885522
vt 0.019170 0.882573
vt 0.048463 0.741097
vt 0.077135 0.750642
vt 0.994088 0.873274
vt 0.922977 0.904929
vt 0.873764 0.771135
vt 0.954413 0.735764
vt 0.779046 0.755719
vt 0.232696 0.767858
vt 0.178691 0.890598
vt 0.803279 0.922951
vt 0.767923 0.797778
vt 0.740941 0.727139
vt 0.776685 0.687295
vt 0.822359 0.640894
vt 0.169519 0.618874
vt 0.188567 0.637711
vt 0.202502 0.771749
vt 0.234514 0.680156
vt 0.167680 0.911781
vt 0.808605 0.875317
vt 0.320023 0.575715
vt 0.312447 0.552278
vt 0.515308 0.540171
vt 0.515831 0.565808
vt 0.701055 0.557091
vt 0.688241 0.632433
vt 0.513598 0.619531
vt 0.506473 0.551313
vt 0.728939 0.559837
vt 0.721334 0.582882
vt 0.342484 0.609460
vt 0.302439 0.549695
vt 0.324872 0.673120
vt 0.675568 0.721036
vt 0.528054 0.714686
vt 0.381558 0.701368
vt 0.671738 0.669743
vt 0.493074 0.674521
vt 0.353154 0.785723
vt 0.495025 0.769281
vt 0.499593 0.918667
vt 0.361596 0.911940
vt 0.635727 0.781598
vt 0.627240 0.943875
vt 0.656042 0.960920
vt 0.510832 0.951463
vt 0.504256 0.822983
vt 0.661055 0.817907
vt 0.376799 0.905432
vt 0.342508 0.795927
vt 0.362365 0.806676
vt 0.507604 0.806251
vt 0.485364 0.967110
vt 0.342409 0.975848
vt 0.652010 0.840697
vt 0.634641 0.972143
vt 0.621493 0.917968
vt 0.484195 0.953419
vt 0.498148 0.823903
vt 0.656788 0.813049
vt 0.339755 0.949621
vt 0.344364 0.815606
vt 0.320384 0.708247
vt 0.307743 0.712965
vt 0.263613 0.642371
vt 0.278309 0.640259
vt 0.704231 0.722343
vt 0.666009 0.704824
vt 0.720996 0.635713
vt 0.764507 0.653011
vt 0.259574 0.786820
vt 0.242233 0.785559
vt 0.276972 0.726008
vt 0.292100 0.727703
vt 0.763773 0.727579
vt 0.722076 0.749023
vt 0.679769 0.690581
vt 0.721749 0.677917
vt 0.365548 0.737419
vt 0.341700 0.756472
vt 0.368017 0.695208
vt 0.333732 0.764092
vt 0.666257 0.772340
vt 0.640776 0.750069
vt 0.617153 0.722642
vt 0.635213 0.681898
vt 0.665393 0.617843
vt 0.666634 0.769282
vt 0.640021 0.708376
vt 0.623117 0.667679
vt 0.641591 0.636747
vt 0.664240 0.607533
vt 0.325223 0.640402
vt 0.336157 0.647765
vt 0.351714 0.727488
vt 0.362641 0.673378
vt 0.330527 0.803745
vt 0.339533 0.630920
vt 0.414213 0.626179
vt 0.410872 0.615150
vt 0.491882 0.601732
vt 0.491809 0.615307
vt 0.582620 0.576848
vt 0.576215 0.614509
vt 0.503726 0.616136
vt 0.503673 0.580962
vt 0.588366 0.605189
vt 0.584315 0.617628
vt 0.424473 0.619614
vt 0.412002 0.582292
vt 0.417689 0.672765
vt 0.576603 0.661373
vt 0.504598 0.656415
vt 0.433967 0.667278
vt 0.384601 0.677247
vt 0.362902 0.653899
vt 0.342330 0.627588
vt 0.668192 0.643052
vt 0.658172 0.652802
vt 0.575423 0.669742
vt 0.634370 0.678257
vt 0.494357 0.668919
vt 0.710977 0.703364
vt 0.725283 0.697434
vt 0.749614 0.774610
vt 0.733791 0.776026
vt 0.279693 0.670887
vt 0.313393 0.694715
vt 0.288110 0.763450
vt 0.250470 0.746428
vt 0.696303 0.645944
vt 0.710268 0.647169
vt 0.697398 0.712451
vt 0.684153 0.708176
vt 0.246135 0.640764
vt 0.283272 0.624064
vt 0.309282 0.693957
vt 0.267162 0.712621
vt 0.655947 0.724851
vt 0.363636 0.717306
vt 0.347991 0.784551
vt 0.345854 0.614399
vt 0.364597 0.679810
vt 0.378852 0.716710
vt 0.360232 0.737625
vt 0.336431 0.761989
vt 0.642144 0.769238
vt 0.633299 0.760634
vt 0.626359 0.698986
vt 0.611983 0.741264
vt 0.641743 0.634376
vt 0.672996 0.791820
vt 0.572972 0.789656
vt 0.576542 0.800429
vt 0.483096 0.806651
vt 0.482773 0.794831
vt 0.400055 0.805589
vt 0.406609 0.766149
vt 0.497996 0.772553
vt 0.501858 0.808225
vt 0.384457 0.798305
vt 0.387891 0.787643
vt 0.587531 0.777482
vt 0.608598 0.808667
vt 0.570425 0.744809
vt 0.413063 0.719773
vt 0.490245 0.722803
vt 0.566908 0.729479
vt 0.410503 0.747386
vt 0.492956 0.744596
vt 0.417278 0.743337
vt 0.496714 0.733524
vt 0.500030 0.816967
vt 0.422465 0.813967
vt 0.575647 0.739929
vt 0.570857 0.831114
vt 0.416671 0.612964
vt 0.483794 0.617787
vt 0.487380 0.677298
vt 0.414185 0.679946
vt 0.544982 0.638457
vt 0.561963 0.688459
vt 0.432942 0.724607
vt 0.506392 0.710569
vt 0.510447 0.794080
vt 0.438944 0.812106
vt 0.582739 0.714256
vt 0.586460 0.782420
vt 0.440961 0.616645
vt 0.512715 0.597827
vt 0.505673 0.665609
vt 0.422705 0.671601
vt 0.588283 0.599527
vt 0.586138 0.669644
vt 0.046838 0.232739
vt 0.053226 0.118996
vt 0.106455 0.130926
vt 0.105435 0.227884
vt 0.027447 0.138752
vt 0.016594 0.222458
vt 0.059416 0.221904
vt 0.065908 0.150238
vt 0.789161 0.183512
vt 0.820607 0.188288
vt 0.813052 0.191806
vt 0.822409 0.171608
vt 0.072181 0.342863
vt 0.129671 0.320772
vt 0.028960 0.306021
vt 0.072980 0.293168
vt 0.689456 0.217161
vt 0.670252 0.256924
vt 0.692757 0.243944
vt 0.646967 0.219647
vt 0.646626 0.246316
vt 0.791779 0.196433
vt 0.815285 0.199287
vt 0.688420 0.190950
vt 0.645551 0.192912
vt 0.789863 0.170060
vt 0.131894 0.215626
vt 0.132117 0.162772
vt 0.142968 0.267212
vt 0.201809 0.211941
vt 0.220717 0.280251
vt 0.196911 0.140775
vt 0.229742 0.204821
vt 0.230738 0.166400
vt 0.232146 0.242781
vt 0.329624 0.189183
vt 0.336528 0.239301
vt 0.328301 0.138261
vt 0.328733 0.211924
vt 0.331894 0.176558
vt 0.327290 0.247505
vt 0.457823 0.190757
vt 0.459080 0.234851
vt 0.459567 0.146612
vt 0.434497 0.217730
vt 0.436363 0.189245
vt 0.433888 0.246169
vt 0.588289 0.190491
vt 0.589721 0.223617
vt 0.589057 0.157295
vt 0.556478 0.221440
vt 0.556725 0.195040
vt 0.556443 0.248010
vt 0.721560 0.188040
vt 0.723941 0.214035
vt 0.721687 0.161932
vt 0.601432 0.220570
vt 0.600801 0.194105
vt 0.601916 0.247006
vt 0.760635 0.185385
vt 0.763841 0.205197
vt 0.761083 0.165328
vt 0.810135 0.187447
vt 0.812100 0.169254
vt 0.871004 0.169567
vt 0.869827 0.188790
vt 0.780814 0.208994
vt 0.779527 0.183886
vt 0.782779 0.233993
vt 0.809907 0.197871
vt 0.867231 0.207905
vt 0.920963 0.173048
vt 0.918510 0.194239
vt 0.840714 0.206589
vt 0.840682 0.183134
vt 0.841451 0.230061
vt 0.915688 0.215544
vt 0.992552 0.183412
vt 0.990026 0.204099
vt 0.914605 0.207248
vt 0.914948 0.186563
vt 0.915439 0.227808
vt 0.988224 0.224984
vt 0.488310 0.210030
vt 0.488104 0.242016
vt 0.427897 0.239221
vt 0.429726 0.205283
vt 0.466617 0.127307
vt 0.463530 0.169783
vt 0.391717 0.170229
vt 0.392128 0.128224
vt 0.463641 0.212380
vt 0.388649 0.213017
vt 0.489876 0.178322
vt 0.431205 0.167049
vt 0.576158 0.207689
vt 0.577645 0.232069
vt 0.577630 0.150839
vt 0.571216 0.179940
vt 0.570497 0.209713
vt 0.575037 0.183264
vt 0.668583 0.200662
vt 0.670994 0.216478
vt 0.689263 0.179217
vt 0.674461 0.191827
vt 0.672310 0.211226
vt 0.658538 0.188218
vt 1.062184 0.192516
vt 1.058749 0.208940
vt 0.982303 0.205031
vt 0.980941 0.189329
vt 0.981664 0.220775
vt 1.060028 0.225857
s 1
f 45/1/45 46/2/46 49/3/49 48/4/48
f 46/5/46 47/6/47 50/7/50 49/8/49
f 48/9/48 49/10/49 52/11/52 51/12/51
f 49/13/49 50/14/50 53/15/53 52/16/52
f 1/17/1 12/18/12 45/1/45 11/19/11
f 12/18/12 13/20/13 46/2/46 45/1/45
f 13/21/13 14/22/14 47/6/47 46/5/46
f 14/22/14 2/23/2 15/24/15 47/6/47
f 47/6/47 15/24/15 16/25/16 50/7/50
f 50/14/50 16/26/16 17/27/17 53/15/53
f 53/15/53 17/27/17 4/28/4 18/29/18
f 52/16/52 53/15/53 18/29/18 19/30/19
f 51/12/51 52/11/52 19/31/19 20/32/20
f 9/33/9 51/12/51 20/32/20 3/34/3
f 10/35/10 48/9/48 51/12/51 9/33/9
f 11/19/11 45/1/45 48/4/48 10/36/10
f 54/37/54 55/38/55 58/39/58 57/40/57
f 55/41/55 56/42/56 59/43/59 58/44/58
f 57/40/57 58/39/58 61/45/61 60/46/60
f 58/44/58 59/43/59 62/47/62 61/48/61
f 3/34/3 20/32/20 54/37/54 23/49/23
f 20/32/20 19/31/19 55/38/55 54/37/54
f 19/30/19 18/29/18 56/42/56 55/41/55
f 18/29/18 4/28/4 24/50/24 56/42/56
f 56/42/56 24/50/24 25/51/25 59/43/59
f 59/43/59 25/51/25 26/52/26 62/47/62
f 62/47/62 26/52/26 8/53/8 27/54/27
f 61/48/61 62/47/62 27/54/27 28/55/28
f 60/46/60 61/45/61 28/56/28 29/57/29
f 21/58/21 60/46/60 29/57/29 7/59/7
f 22/60/22 57/40/57 60/46/60 21/58/21
f 23/49/23 54/37/54 57/40/57 22/60/22
f 63/61/63 64/62/64 67/63/67 66/64/66
f 64/65/64 65/66/65 68/67/68 67/68/67
f 66/69/66 67/70/67 70/71/70 69/72/69
f 67/73/67 68/74/68 71/75/71 70/76/70
f 7/59/7 29/57/29 63/61/63 32/77/32
f 29/57/29 28/56/28 64/62/64 63/61/63
f 28/55/28 27/54/27 65/66/65 64/65/64
f 27/54/27 8/53/8 33/78/33 65/66/65
f 65/66/65 33/78/33 34/79/34 68/67/68
f 68/74/68 34/80/34 35/81/35 71/75/71
f 71/75/71 35/81/35 6/82/6 36/83/36
f 70/76/70 71/75/71 36/83/36 37/84/37
f 69/72/69 70/71/70 37/85/37 38/86/38
f 30/87/30 69/72/69 38/86/38 5/88/5
f 31/89/31 66/69/66 69/72/69 30/87/30
f 32/77/32 63/61/63 66/64/66 31/90/31
f 72/91/72 73/92/73 76/93/76 75/94/75
f 73/95/73 74/96/74 77/97/77 76/98/76
f 75/94/75 76/93/76 79/99/79 78/100/78
f 76/98/76 77/97/77 80/101/80 79/102/79
f 5/88/5 38/86/38 72/91/72 41/103/41
f 38/86/38 37/85/37 73/92/73 72/91/72
f 37/84/37 36/83/36 74/96/74 73/95/73
f 36/83/36 6/82/6 42/104/42 74/96/74
f 74/96/74 42/104/42 43/105/43 77/97/77
f 77/97/77 43/105/43 44/106/44 80/101/80
f 80/101/80 44/106/44 2/23/2 14/22/14
f 79/102/79 80/101/80 14/22/14 13/21/13
f 78/100/78 79/99/79 13/20/13 12/18/12
f 39/107/39 78/100/78 12/18/12 1/17/1
f 40/108/40 75/94/75 78/100/78 39/107/39
f 41/103/41 72/91/72 75/94/75 40/108/40
f 81/109/81 82/110/82 85/111/85 84/112/84
f 82/110/82 83/113/83 86/114/86 85/111/85
f 84/115/84 85/116/85 88/117/88 87/118/87
f 85/116/85 86/119/86 89/120/89 88/117/88
f 3/34/3 23/49/23 81/109/81 9/33/9
f 23/49/23 22/60/22 82/110/82 81/109/81
f 22/60/22 21/58/21 83/113/83 82/110/82
f 21/58/21 7/59/7 32/77/32 83/113/83
f 83/113/83 32/77/32 31/90/31 86/114/86
f 86/119/86 31/89/31 30/87/30 89/120/89
f 89/120/89 30/87/30 5/88/5 41/103/41
f 88/117/88 89/120/89 41/103/41 40/108/40
f 87/118/87 88/117/88 40/108/40 39/107/39
f 11/19/11 87/118/87 39/107/39 1/17/1
f 10/36/10 84/115/84 87/118/87 11/19/11
f 9/33/9 81/109/81 84/112/84 10/35/10
f 90/121/90 91/122/91 94/123/94 93/124/93
f 91/122/91 92/125/92 95/126/95 94/123/94
f 93/127/93 94/128/94 97/129/97 96/130/96
f 94/128/94 95/131/95 98/132/98 97/129/97
f 8/53/8 26/52/26 90/121/90 33/78/33
f 26/52/26 25/51/25 91/122/91 90/121/90
f 25/51/25 24/50/24 92/125/92 91/122/91
f 24/50/24 4/28/4 17/27/17 92/125/92
f 92/125/92 17/27/17 16/26/16 95/126/95
f 95/131/95 16/25/16 15/24/15 98/132/98
f 98/132/98 15/24/15 2/23/2 44/106/44
f 97/129/97 98/132/98 44/106/44 43/105/43
f 96/130/96 97/129/97 43/105/43 42/104/42
f 35/81/35 96/130/96 42/104/42 6/82/6
f 34/80/34 93/127/93 96/130/96 35/81/35
f 33/78/33 90/121/90 93/124/93 34/79/34
f 143/133/143 144/134/144 147/135/147 146/136/146
f 144/137/144 145/138/145 148/139/148 147/140/147
f 146/141/146 147/142/147 150/143/150 149/144/149
f 147/145/147 148/146/148 151/147/151 150/148/150
f 99/149/99 110/150/110 143/133/143 109/151/109
f 110/150/110 111/152/111 144/134/144 143/133/143
f 111/153/111 112/154/112 145/138/145 144/137/144
f 112/154/112 100/155/100 113/156/113 145/138/145
f 145/138/145 113/156/113 114/157/114 148/139/148
f 148/146/148 114/158/114 115/159/115 151/147/151
f 151/147/151 115/159/115 102/160/102 116/161/116
f 150/148/150 151/147/151 116/161/116 117/162/117
f 149/144/149 150/143/150 117/163/117 118/164/118
f 107/165/107 149/144/149 118/164/118 101/166/101
f 108/167/108 146/141/146 149/144/149 107/165/107
f 109/151/109 143/133/143 146/136/146 108/168/108
f 152/169/152 153/170/153 156/171/156 155/172/155
f 153/173/153 154/174/154 157/175/157 156/176/156
f 155/172/155 156/171/156 159/177/159 158/178/158
f 156/176/156 157/175/157 160/179/160 159/180/159
f 101/166/101 118/164/118 152/169/152 121/181/121
f 118/164/118 117/163/117 153/170/153 152/169/152
f 117/162/117 116/161/116 154/174/154 153/173/153
f 116/161/116 102/160/102 122/182/122 154/174/154
f 154/174/154 122/182/122 123/183/123 157/175/157
f 157/175/157 123/183/123 124/184/124 160/179/160
f 160/179/160 124/184/124 106/185/106 125/186/125
f 159/180/159 160/179/160 125/186/125 126/187/126
f 158/178/158 159/177/159 126/188/126 127/189/127
f 119/190/119 158/178/158 127/189/127 105/191/105
f 120/192/120 155/172/155 158/178/158 119/190/119
f 121/181/121 152/169/152 155/172/155 120/192/120
f 161/193/161 162/194/162 165/195/165 164/196/164
f 162/197/162 163/198/163 166/199/166 165/200/165
f 164/201/164 165/202/165 168/203/168 167/204/167
f 165/205/165 166/206/166 169/207/169 168/208/168
f 105/191/105 127/189/127 161/193/161 130/209/130
f 127/189/127 126/188/126 162/194/162 161/193/161
f 126/187/126 125/186/125 163/198/163 162/197/162
f 125/186/125 106/185/106 131/210/131 163/198/163
f 163/198/163 131/210/131 132/211/132 166/199/166
f 166/206/166 132/212/132 133/213/133 169/207/169
f 169/207/169 133/213/133 104/214/104 134/215/134
f 168/208/168 169/207/169 134/215/134 135/216/135
f 167/204/167 168/203/168 135/217/135 136/218/136
f 128/219/128 167/204/167 136/218/136 103/220/103
f 129/221/129 164/201/164 167/204/167 128/219/128
f 130/209/130 161/193/161 164/196/164 129/222/129
f 170/223/170 171/224/171 174/225/174 173/226/173
f 171/227/171 172/228/172 175/229/175 174/230/174
f 173/226/173 174/225/174 177/231/177 176/232/176
f 174/230/174 175/229/175 178/233/178 177/234/177
f 103/220/103 136/218/136 170/223/170 139/235/139
f 136/218/136 135/217/135 171/224/171 170/223/170
f 135/216/135 134/215/134 172/228/172 171/227/171
f 134/215/134 104/214/104 140/236/140 172/228/172
f 172/228/172 140/236/140 141/237/141 175/229/175
f 175/229/175 141/237/141 142/238/142 178/233/178
f 178/233/178 142/238/142 100/155/100 112/154/112
f 177/234/177 178/233/178 112/154/112 111/153/111
f 176/232/176 177/231/177 111/152/111 110/150/110
f 137/239/137 176/232/176 110/150/110 99/149/99
f 138/240/138 173/226/173 176/232/176 137/239/137
f 139/235/139 170/223/170 173/226/173 138/240/138
f 179/241/179 180/242/180 183/243/183 182/244/182
f 180/242/180 181/245/181 184/246/184 183/243/183
f 182/247/182 183/248/183 186/249/186 185/250/185
f 183/248/183 184/251/184 187/252/187 186/249/186
f 101/166/101 121/181/121 179/241/179 107/165/107
f 121/181/121 120/192/120 180/242/180 179/241/179
f 120/192/120 119/190/119 181/245/181 180/242/180
f 119/190/119 105/191/105 130/209/130 181/245/181
f 181/245/181 130/209/130 129/222/129 184/246/184
f 184/251/184 129/221/129 128/219/128 187/252/187
f 187/252/187 128/219/128 103/220/103 139/235/139
f 186/249/186 187/252/187 139/235/139 138/240/138
f 185/250/185 186/249/186 138/240/138 137/239/137
f 109/151/109 185/250/185 137/239/137 99/149/99
f 108/168/108 182/247/182 185/250/185 109/151/109
f 107/165/107 179/241/179 182/244/182 108/167/108
f 188/253/188 189/254/189 192/255/192 191/256/191
f 189/254/189 190/257/190 193/258/193 192/255/192
f 191/259/191 192/260/192 195/261/195 194/262/194
f 192/260/192 193/263/193 196/264/196 195/261/195
f 106/185/106 124/184/124 188/253/188 131/210/131
f 124/184/124 123/183/123 189/254/189 188/253/188
f 123/183/123 122/182/122 190/257/190 189/254/189
f 122/182/122 102/160/102 115/159/115 190/257/190
f 190/257/190 115/159/115 114/158/114 193/258/193
f 193/263/193 114/157/114 113/156/113 196/264/196
f 196/264/196 113/156/113 100/155/100 142/238/142
f 195/261/195 196/264/196 142/238/142 141/237/141
f 194/262/194 195/261/195 141/237/141 140/236/140
f 133/213/133 194/262/194 140/236/140 104/214/104
f 132/212/132 191/259/191 194/262/194 133/213/133
f 131/210/131 188/253/188 191/256/191 132/211/132
f 200/265/200 197/266/197 201/267/201 235/268/235
f 197/269/197 198/270/198 202/271/202 201/272/201
f 248/273/248 249/274/249 258/275/258
f 248/273/248 250/276/250 249/274/249
f 199/277/199 200/265/200 235/268/235 234/278/234
f 198/270/198 199/279/199 234/280/234 202/271/202
f 251/281/251 259/282/259 252/283/252
f 246/284/246 247/285/247 259/282/259
f 251/281/251 246/284/246 259/282/259
f 247/286/247 248/273/248 258/275/258 259/287/259
f 246/284/246 251/281/251 250/288/250 245/289/245
f 245/290/245 250/276/250 248/273/248
f 201/272/201 202/271/202 204/291/204 203/292/203
f 202/271/202 234/280/234 205/293/205 204/291/204
f 234/278/234 235/268/235 206/294/206 205/295/205
f 235/268/235 201/267/201 203/296/203 206/294/206
f 203/292/203 204/291/204 208/297/208 207/298/207
f 204/291/204 205/293/205 209/299/209 208/297/208
f 205/295/205 206/294/206 210/300/210 209/301/209
f 206/294/206 203/296/203 207/302/207 210/300/210
f 207/298/207 208/297/208 212/303/212 211/304/211
f 208/297/208 209/299/209 213/305/213 212/303/212
f 209/301/209 210/300/210 214/306/214 213/307/213
f 210/300/210 207/302/207 211/308/211 214/306/214
f 211/304/211 212/303/212 216/309/216 215/310/215
f 212/303/212 213/305/213 236/311/236 216/309/216
f 213/307/213 214/306/214 217/312/217 236/313/236
f 214/306/214 211/308/211 215/314/215 217/312/217
f 215/310/215 216/309/216 238/315/238 237/316/237
f 216/309/216 236/311/236 239/317/239 238/315/238
f 236/313/236 217/312/217 240/318/240 239/319/239
f 217/312/217 215/314/215 237/320/237 240/318/240
f 237/316/237 238/315/238 243/321/243 241/322/241
f 238/315/238 239/317/239 242/323/242 243/321/243
f 239/319/239 240/318/240 244/324/244 242/325/242
f 240/318/240 237/320/237 241/326/241 244/324/244
f 241/322/241 243/321/243 246/284/246 245/289/245
f 243/321/243 242/323/242 247/285/247 246/284/246
f 242/325/242 244/324/244 248/273/248 247/286/247
f 244/324/244 241/326/241 245/290/245 248/273/248
f 249/327/249 250/328/250 254/329/254 253/330/253
f 250/288/250 251/281/251 255/331/255 254/332/254
f 251/281/251 252/283/252 218/333/218 255/331/255
f 252/334/252 249/327/249 253/330/253 218/335/218
f 253/330/253 254/329/254 257/336/257 219/337/219
f 254/332/254 255/331/255 220/338/220 257/339/257
f 255/331/255 218/333/218 256/340/256 220/338/220
f 218/335/218 253/330/253 219/337/219 256/341/256
f 219/337/219 257/336/257 265/342/265 221/343/221
f 257/339/257 220/338/220 222/344/222 265/345/265
f 220/338/220 256/340/256 266/346/266 222/344/222
f 256/341/256 219/337/219 221/343/221 266/347/266
f 223/348/223 261/349/261 259/350/259 258/351/258
f 261/352/261 224/353/224 252/354/252 259/355/259
f 224/353/224 260/356/260 249/357/249 252/354/252
f 260/358/260 223/348/223 258/351/258 249/359/249
f 225/360/225 264/361/264 261/349/261 223/348/223
f 264/362/264 263/363/263 224/353/224 261/352/261
f 263/363/263 262/364/262 260/356/260 224/353/224
f 262/365/262 225/360/225 223/348/223 260/358/260
f 226/366/226 227/367/227 264/361/264 225/360/225
f 227/368/227 228/369/228 263/363/263 264/362/264
f 228/369/228 229/370/229 262/364/262 263/363/263
f 229/371/229 226/366/226 225/360/225 262/365/262
f 221/343/221 265/342/265 231/372/231 230/373/230
f 265/345/265 222/344/222 232/374/232 231/375/231
f 222/344/222 266/346/266 233/376/233 232/374/232
f 266/347/266 221/343/221 230/373/230 233/377/233
