# Blender 5.0.0
# www.blender.org
o Palm_Tree.004
v -0.574610 0.009000 -0.576778
v -0.576794 0.002277 0.574661
v 0.576794 -0.002279 -0.574661
v -0.369753 1.497550 -0.377078
v -0.371214 1.493052 0.393135
v 0.400472 1.497202 -0.375619
v -0.308714 2.851276 -0.295850
v -0.309897 2.847634 0.327953
v 0.314891 2.867394 -0.294574
v -0.306793 4.052496 -0.235415
v -0.307773 4.049477 0.281557
v 0.209130 4.085546 -0.234244
v -0.352373 5.117273 -0.183963
v -0.353182 5.114784 0.242370
v 0.071546 5.162730 -0.182898
v -0.516546 6.562842 -0.151673
v -0.143115 6.621555 -0.150622
v -0.517263 6.560635 0.226340
v -0.701295 7.653643 -0.129763
v -0.701952 7.651621 0.216469
v -0.364645 7.734548 -0.128652
v -1.097942 9.093739 -0.090832
v -0.826054 9.174711 -0.089843
v -1.098480 9.092083 0.192853
v -1.001907 9.257973 -0.101909
v -1.101209 9.227871 -0.060490
v -1.139081 9.221659 0.046935
v -1.101210 9.235737 0.153616
v -1.120625 9.311543 0.043634
v -1.099620 9.307067 0.127793
v -1.099621 9.300905 -0.039971
v -1.033558 9.367297 0.041586
v -1.025399 9.336754 -0.059694
v -1.025399 9.344266 0.144833
v -0.930172 9.369476 0.041506
v -0.943401 9.348423 -0.041716
v -0.943401 9.354586 0.126048
v -0.864733 9.305110 0.043870
v -0.901837 9.288516 -0.062718
v -0.901838 9.296381 0.151388
v -0.826592 9.173055 0.193842
v -0.365301 7.732526 0.217580
v -1.001907 9.268795 0.192714
v -0.143832 6.619347 0.227391
v 0.070699 5.160502 0.243441
v 0.208150 4.082527 0.282728
v 0.313708 2.863752 0.329230
v 0.399012 1.492705 0.394593
v 0.574610 -0.009002 0.576778
v -4.941163 6.672367 0.943673
v -3.912582 7.733467 -0.624114
v -4.009957 8.286050 0.660839
v -3.432938 7.894934 1.877728
v -2.062606 8.893520 1.550565
v -2.542251 8.732054 -0.951278
v -1.068455 9.042855 0.048060
v -2.639626 9.284636 0.333676
v -3.936731 7.982237 0.653495
v -2.051499 8.878462 1.549451
v -2.531144 8.716995 -0.952392
v -1.030485 8.991375 0.044252
v -2.493526 8.871298 0.319025
v -0.883198 8.281760 -4.637712
v 0.257683 9.184970 -3.048852
v -1.123326 9.407249 -3.145489
v -2.210727 8.541127 -2.960730
v -2.259490 8.957371 -1.285502
v 0.208920 9.601213 -1.373625
v -0.920809 9.051198 -0.074187
v -1.172090 9.823492 -1.470263
v -0.970888 9.088940 -3.113770
v -2.254798 8.939872 -1.280691
v 0.213612 9.583714 -1.368814
v -0.904770 8.991375 -0.057739
v -1.110376 9.404562 -1.406977
v 2.694916 8.227156 -0.722394
v 1.656240 8.669130 0.496349
v 1.562035 9.106187 -0.487940
v 1.260267 8.672716 -1.431465
v -0.007588 8.984472 -1.170468
v 0.388386 8.980886 0.757347
v -0.757142 8.785980 -0.012177
v 0.294180 9.417943 -0.226943
v 1.538571 8.918652 -0.483515
v -0.011147 8.970481 -1.169797
v 0.384827 8.966895 0.758018
v -0.769309 8.738148 -0.009882
v 0.247367 9.176303 -0.218114
v -1.624300 7.356750 3.101865
v -2.257036 7.739183 1.786743
v -1.630304 8.349490 2.232538
v -0.663859 8.278334 2.391658
v -0.448591 8.826927 1.335748
v -2.041768 8.287777 0.730833
v -0.942513 8.607677 0.190969
v -1.415036 8.898085 1.176628
v -1.593792 8.144609 2.200985
v -0.443053 8.816032 1.330962
v -2.036230 8.276881 0.726047
v -0.923580 8.570428 0.174607
v -1.342188 8.613844 1.113674
v -1.460191 7.139781 -2.856978
v -0.512423 8.078080 -2.151652
v -1.483315 8.203059 -2.075823
v -2.170744 7.660053 -1.631994
v -2.009172 8.287970 -0.611279
v -0.350852 8.705997 -1.130938
v -0.939217 8.606938 -0.014620
v -1.321744 8.830976 -1.055110
v -1.453159 7.883076 -2.035549
v -2.004599 8.277290 -0.605171
v -0.346278 8.695317 -1.124829
v -0.923580 8.570428 0.006264
v -1.261578 8.500518 -0.974756
v 2.541906 9.557762 3.153456
v 0.404576 9.707565 2.927074
v 1.260592 10.285534 1.978853
v 2.127794 9.701735 1.044035
v 0.853996 9.672537 -0.121559
v -0.869221 9.678368 1.761480
v -0.857398 9.114155 0.044253
v -0.013205 10.256336 0.813258
v 1.260592 10.036431 1.978853
v 0.853996 9.653792 -0.121559
v -0.869221 9.659623 1.761480
v -0.857398 8.986123 0.044253
v -0.013205 10.009202 0.813258
vn -0.6929 0.1885 -0.6959
vn -0.6956 0.1803 0.6955
vn 0.6988 0.1745 -0.6937
vn -0.6975 0.1348 -0.7038
vn -0.7001 0.1266 0.7027
vn 0.7048 0.1329 -0.6969
vn -0.7017 0.0559 -0.7103
vn -0.7044 0.0476 0.7082
vn 0.7086 0.0910 -0.6998
vn -0.7021 0.0208 -0.7118
vn -0.7047 0.0125 0.7093
vn 0.7066 0.1096 -0.6991
vn -0.7004 -0.0290 -0.7132
vn -0.7031 -0.0373 0.7101
vn 0.7044 0.1214 -0.6993
vn -0.6945 -0.0829 -0.7147
vn 0.7021 0.1360 -0.6990
vn -0.6972 -0.0913 0.7110
vn -0.6797 -0.1336 -0.7212
vn -0.6824 -0.1420 0.7170
vn 0.6943 0.1954 -0.6927
vn -0.7031 -0.1199 -0.7009
vn 0.6587 0.2892 -0.6946
vn -0.7039 -0.1022 0.7029
vn -0.0814 0.2434 -0.9665
vn -0.7414 0.1800 -0.6464
vn -1.0000 0.0099 -0.0015
vn -0.7388 0.2197 0.6371
vn -0.8357 0.5488 -0.0202
vn -0.7001 0.5147 0.4949
vn -0.7002 0.4770 -0.5313
vn -0.2912 0.9560 -0.0351
vn -0.2251 0.7158 -0.6610
vn -0.2251 0.7624 0.6067
vn 0.3881 0.9210 -0.0338
vn 0.3050 0.7827 -0.5425
vn 0.3050 0.8204 0.4837
vn 0.8247 0.5653 -0.0160
vn 0.4991 0.5550 -0.6655
vn 0.5095 0.5970 0.6197
vn 0.6407 0.3010 0.7063
vn 0.6917 0.1873 0.6975
vn -0.0894 0.3202 0.9431
vn 0.6994 0.1278 0.7032
vn 0.7017 0.1132 0.7034
vn 0.7039 0.1014 0.7030
vn 0.7059 0.0828 0.7035
vn 0.7021 0.1248 0.7011
vn 0.6961 0.1664 0.6984
vn -0.6070 -0.7777 0.1635
vn -0.3002 -0.4662 -0.8322
vn -0.7226 0.6848 0.0943
vn 0.0389 -0.3498 0.9360
vn 0.1552 0.6687 0.7272
vn -0.1389 0.5679 -0.8113
vn 0.5901 0.7903 -0.1651
vn -0.2703 0.9627 -0.0104
vn 0.6740 -0.7345 -0.0791
vn 0.7090 -0.3326 0.6218
vn 0.4390 -0.4262 -0.7910
vn 0.9467 -0.2779 -0.1630
vn 0.3450 -0.9386 -0.0040
vn 0.1013 -0.4722 -0.8757
vn 0.9574 -0.0742 -0.2791
vn -0.2426 0.8721 -0.4250
vn -0.8224 -0.5320 -0.2016
vn -0.8945 0.3573 0.2687
vn 0.6237 0.7515 0.2148
vn -0.0999 0.5041 0.8579
vn -0.2472 0.9629 0.1083
vn 0.2380 -0.9083 0.3440
vn -0.5384 -0.7230 0.4328
vn 0.8505 -0.3627 0.3810
vn 0.1808 -0.5922 0.7853
vn 0.2563 -0.9657 -0.0426
vn 0.8521 -0.4928 -0.1760
vn 0.4242 -0.3436 0.8379
vn 0.4112 0.9078 -0.0827
vn 0.0592 -0.3402 -0.9385
vn -0.3980 0.5713 -0.7178
vn -0.0824 0.5668 0.8197
vn -0.8437 0.5075 0.1752
vn -0.1120 0.9934 0.0249
vn -0.3528 -0.9330 0.0707
vn -0.5365 -0.5905 -0.6028
vn -0.2560 -0.5947 0.7621
vn -0.7509 -0.6426 0.1522
vn 0.0789 -0.9967 -0.0180
vn -0.0701 -0.6681 0.7408
vn -0.7569 -0.6471 -0.0914
vn -0.4437 0.7338 0.5144
vn 0.8505 -0.0933 0.5176
vn 0.5582 0.8218 0.1147
vn -0.8401 0.3469 -0.4170
vn 0.0478 0.6782 -0.7333
vn -0.3302 0.9435 0.0287
vn 0.4460 -0.7733 -0.4507
vn 0.9560 -0.2101 -0.2046
vn -0.3206 -0.6482 -0.6907
vn 0.4378 -0.3798 -0.8149
vn 0.3576 -0.9294 -0.0909
vn -0.0509 -0.7101 -0.7023
vn 0.8963 -0.1238 -0.4258
vn -0.3677 0.7048 -0.6067
vn -0.8179 -0.5649 0.1095
vn -0.8509 0.4180 0.3183
vn 0.6059 0.7836 -0.1374
vn 0.0271 0.7366 0.6758
vn -0.2811 0.9505 -0.1325
vn 0.3719 -0.7581 0.5357
vn -0.4257 -0.5528 0.7164
vn 0.9338 -0.2084 0.2908
vn 0.3536 -0.3109 0.8822
vn 0.3102 -0.9218 0.2327
vn 0.7128 -0.2565 0.6528
vn -0.4180 -0.2742 0.8661
vn 0.1333 0.9839 0.1190
vn 0.8249 -0.2784 -0.4920
vn 0.2496 0.4885 -0.8361
vn -0.8099 0.4903 0.3218
vn -0.7094 0.2754 -0.6488
vn -0.2642 0.9330 -0.2446
vn -0.0901 -0.9928 -0.0792
vn 0.2869 -0.6832 -0.6715
vn -0.6444 -0.6815 0.3469
vn -0.4068 -0.8348 -0.3709
vn 0.2565 -0.9369 0.2377
vt 0.713371 0.166165
vt 0.796107 0.167834
vt 0.834443 0.005550
vt 0.711495 0.002942
vt 0.713588 0.313473
vt 0.779447 0.313284
vt 0.779484 0.313610
vt 0.659635 0.439942
vt 0.715012 0.442408
vt 0.727651 0.315552
vt 0.661910 0.310655
vt 0.715085 0.442503
vt 0.661609 0.310254
vt 0.660770 0.555578
vt 0.706496 0.556113
vt 0.665192 0.714261
vt 0.706187 0.713032
vt 0.710039 0.833941
vt 0.671933 0.836423
vt 0.689845 1.000031
vt 0.720470 0.997379
vt 0.605154 0.115985
vt 0.584135 0.133428
vt 0.570088 0.115697
vt 0.557161 0.133792
vt 0.534602 0.116031
vt 0.597008 0.133889
vt 0.543796 0.134626
vt 0.570863 0.133342
vt 0.570903 0.143002
vt 0.560196 0.143778
vt 0.549170 0.144371
vt 0.541453 0.202810
vt 0.552318 0.202961
vt 0.550466 0.212316
vt 0.541298 0.213962
vt 0.541608 0.191658
vt 0.550727 0.193558
vt 0.532440 0.193304
vt 0.530588 0.202659
vt 0.532179 0.212062
vt 0.605135 0.115994
vt 0.659371 1.004063
vt 0.633967 0.840198
vt 0.633964 0.839866
vt 0.591981 0.143806
vt 0.581269 0.143466
vt 0.622705 0.715396
vt 0.614798 0.557615
vt 0.603894 0.442092
vt 0.604611 0.441969
vt 0.595301 0.312302
vt 0.594914 0.311830
vt 0.647059 0.314028
vt 0.631174 0.166165
vt 0.597077 0.002389
vt 0.247789 0.507726
vt 0.252138 0.684931
vt 0.022112 0.680315
vt 0.471697 0.676649
vt 0.248452 0.834997
vt 0.255239 0.966634
vt 0.036110 0.854267
vt 0.469637 0.848058
vt 0.249320 0.507905
vt 0.253578 0.681380
vt 0.028395 0.676861
vt 0.468516 0.673273
vt 0.249970 0.828287
vt 0.256614 0.957153
vt 0.042098 0.847151
vt 0.466499 0.841074
vt 0.247798 0.507048
vt 0.252189 0.685973
vt 0.019930 0.681313
vt 0.473880 0.677611
vt 0.248467 0.837497
vt 0.255320 0.970412
vt 0.034063 0.856954
vt 0.471800 0.850685
vt 0.247791 0.508699
vt 0.252151 0.686349
vt 0.021547 0.681722
vt 0.472263 0.678047
vt 0.248456 0.836793
vt 0.255260 0.968761
vt 0.035580 0.856111
vt 0.470197 0.849887
vt 0.249299 0.507244
vt 0.253451 0.676440
vt 0.033821 0.672033
vt 0.463089 0.668533
vt 0.249933 0.819725
vt 0.256413 0.945414
vt 0.047186 0.838124
vt 0.461122 0.832196
vt 0.247827 0.502489
vt 0.252363 0.687330
vt 0.012426 0.682515
vt 0.481384 0.678691
vt 0.248519 0.843863
vt 0.255599 0.981172
vt 0.027026 0.863963
vt 0.479236 0.857487
s 1
f 5/1/5 4/2/4 1/3/1 2/4/2
f 4/2/4 6/1/6 3/4/3 1/3/1
f 8/5/8 7/6/7 4/2/4 5/1/5
f 7/7/7 9/5/9 6/1/6 4/2/4
f 11/8/11 10/9/10 7/10/7 8/11/8
f 10/12/10 12/8/12 9/13/9 7/10/7
f 14/14/14 13/15/13 10/9/10 11/8/11
f 13/15/13 15/14/15 12/8/12 10/12/10
f 18/16/18 16/17/16 13/15/13 14/14/14
f 16/17/16 17/16/17 15/14/15 13/15/13
f 19/18/19 21/19/21 17/16/17 16/17/16
f 20/19/20 19/18/19 16/17/16 18/16/18
f 24/20/24 22/21/22 19/18/19 20/19/20
f 22/21/22 23/20/23 21/19/21 19/18/19
f 22/22/22 25/23/25 23/24/23
f 24/24/24 27/25/27 22/26/22
f 22/22/22 26/27/26 25/23/25
f 22/26/22 27/25/27 26/28/26
f 28/29/28 27/25/27 24/24/24
f 28/29/28 30/30/30 29/31/29 27/25/27
f 27/25/27 29/31/29 31/32/31 26/28/26
f 32/33/32 29/34/29 30/35/30 34/36/34
f 33/37/33 31/38/31 29/34/29 32/33/32
f 36/39/36 33/37/33 32/33/32 35/40/35
f 35/40/35 32/33/32 34/36/34 37/41/37
f 39/29/39 36/30/36 35/31/35 38/25/38
f 38/25/38 35/31/35 37/32/37 40/28/40
f 23/24/23 38/25/38 41/26/41
f 23/24/23 39/29/39 38/25/38
f 41/26/41 38/25/38 40/28/40
f 41/42/41 43/23/43 24/24/24
f 41/43/41 24/20/24 20/19/20 42/44/42
f 23/20/23 41/43/41 42/45/42 21/19/21
f 41/42/41 40/27/40 43/23/43
f 43/23/43 28/29/28 24/24/24
f 40/27/40 37/46/37 34/47/34 43/23/43
f 43/23/43 34/47/34 30/30/30 28/29/28
f 21/19/21 42/45/42 44/48/44 17/16/17
f 42/44/42 20/19/20 18/16/18 44/48/44
f 44/48/44 18/16/18 14/14/14 45/49/45
f 17/16/17 44/48/44 45/49/45 15/14/15
f 15/14/15 45/49/45 46/50/46 12/8/12
f 45/49/45 14/14/14 11/8/11 46/51/46
f 46/51/46 11/8/11 8/11/8 47/52/47
f 12/8/12 46/50/46 47/53/47 9/13/9
f 9/5/9 47/54/47 48/55/48 6/1/6
f 47/54/47 8/5/8 5/1/5 48/55/48
f 6/1/6 48/55/48 49/56/49 3/4/3
f 48/55/48 5/1/5 2/4/2 49/56/49
f 23/24/23 25/23/25 39/29/39
f 25/23/25 33/47/33 36/30/36 39/29/39
f 26/27/26 31/46/31 33/47/33 25/23/25
f 50/57/50 52/58/52 51/59/51
f 50/57/50 53/60/53 52/58/52
f 57/61/57 56/62/56 55/63/55
f 55/63/55 51/59/51 52/58/52 57/61/57
f 54/64/54 56/62/56 57/61/57
f 57/61/57 52/58/52 53/60/53 54/64/54
f 50/57/50 51/59/51 58/58/58
f 50/57/50 58/58/58 53/60/53
f 62/61/62 60/63/60 61/62/61
f 60/63/60 62/61/62 58/58/58 51/59/51
f 59/64/59 62/61/62 61/62/61
f 62/61/62 59/64/59 53/60/53 58/58/58
f 51/59/51 55/63/55 60/63/60
f 56/62/56 54/64/54 59/64/59 61/62/61
f 55/63/55 56/62/56 61/62/61 60/63/60
f 54/64/54 53/60/53 59/64/59
f 63/65/63 65/66/65 64/67/64
f 63/65/63 66/68/66 65/66/65
f 70/69/70 69/70/69 68/71/68
f 68/71/68 64/67/64 65/66/65 70/69/70
f 67/72/67 69/70/69 70/69/70
f 70/69/70 65/66/65 66/68/66 67/72/67
f 63/65/63 64/67/64 71/66/71
f 63/65/63 71/66/71 66/68/66
f 75/69/75 73/71/73 74/70/74
f 73/71/73 75/69/75 71/66/71 64/67/64
f 72/72/72 75/69/75 74/70/74
f 75/69/75 72/72/72 66/68/66 71/66/71
f 64/67/64 68/71/68 73/71/73
f 69/70/69 67/72/67 72/72/72 74/70/74
f 68/71/68 69/70/69 74/70/74 73/71/73
f 67/72/67 66/68/66 72/72/72
f 76/73/76 78/74/78 77/75/77
f 76/73/76 79/76/79 78/74/78
f 83/77/83 82/78/82 81/79/81
f 81/79/81 77/75/77 78/74/78 83/77/83
f 80/80/80 82/78/82 83/77/83
f 83/77/83 78/74/78 79/76/79 80/80/80
f 76/73/76 77/75/77 84/74/84
f 76/73/76 84/74/84 79/76/79
f 88/77/88 86/79/86 87/78/87
f 86/79/86 88/77/88 84/74/84 77/75/77
f 85/80/85 88/77/88 87/78/87
f 88/77/88 85/80/85 79/76/79 84/74/84
f 77/75/77 81/79/81 86/79/86
f 82/78/82 80/80/80 85/80/85 87/78/87
f 81/79/81 82/78/82 87/78/87 86/79/86
f 80/80/80 79/76/79 85/80/85
f 89/81/89 91/82/91 90/83/90
f 89/81/89 92/84/92 91/82/91
f 96/85/96 95/86/95 94/87/94
f 94/87/94 90/83/90 91/82/91 96/85/96
f 93/88/93 95/86/95 96/85/96
f 96/85/96 91/82/91 92/84/92 93/88/93
f 89/81/89 90/83/90 97/82/97
f 89/81/89 97/82/97 92/84/92
f 101/85/101 99/87/99 100/86/100
f 99/87/99 101/85/101 97/82/97 90/83/90
f 98/88/98 101/85/101 100/86/100
f 101/85/101 98/88/98 92/84/92 97/82/97
f 90/83/90 94/87/94 99/87/99
f 95/86/95 93/88/93 98/88/98 100/86/100
f 94/87/94 95/86/95 100/86/100 99/87/99
f 93/88/93 92/84/92 98/88/98
f 102/89/102 104/90/104 103/91/103
f 102/89/102 105/92/105 104/90/104
f 109/93/109 108/94/108 107/95/107
f 107/95/107 103/91/103 104/90/104 109/93/109
f 106/96/106 108/94/108 109/93/109
f 109/93/109 104/90/104 105/92/105 106/96/106
f 102/89/102 103/91/103 110/90/110
f 102/89/102 110/90/110 105/92/105
f 114/93/114 112/95/112 113/94/113
f 112/95/112 114/93/114 110/90/110 103/91/103
f 111/96/111 114/93/114 113/94/113
f 114/93/114 111/96/111 105/92/105 110/90/110
f 103/91/103 107/95/107 112/95/112
f 108/94/108 106/96/106 111/96/111 113/94/113
f 107/95/107 108/94/108 113/94/113 112/95/112
f 106/96/106 105/92/105 111/96/111
f 115/97/115 117/98/117 116/99/116
f 115/97/115 118/100/118 117/98/117
f 122/101/122 121/102/121 120/103/120
f 120/103/120 116/99/116 117/98/117 122/101/122
f 119/104/119 121/102/121 122/101/122
f 122/101/122 117/98/117 118/100/118 119/104/119
f 115/97/115 116/99/116 123/98/123
f 115/97/115 123/98/123 118/100/118
f 127/101/127 125/103/125 126/102/126
f 125/103/125 127/101/127 123/98/123 116/99/116
f 124/104/124 127/101/127 126/102/126
f 127/101/127 124/104/124 118/100/118 123/98/123
f 116/99/116 120/103/120 125/103/125
f 121/102/121 119/104/119 124/104/124 126/102/126
f 120/103/120 121/102/121 126/102/126 125/103/125
f 119/104/119 118/100/118 124/104/124
