# Blender 5.0.0
# www.blender.org
o Cylinder
v -0.924614 -0.110430 2.956081
v -0.924614 -0.010005 2.938832
v -0.918184 -0.110430 2.956715
v -0.914818 -0.010005 2.939796
v -0.912000 -0.110430 2.958591
v -0.903047 -0.020640 2.946693
v -0.906301 -0.110430 2.961637
v -0.896718 -0.010005 2.947294
v -0.901306 -0.110430 2.965736
v -0.889109 -0.010005 2.953539
v -0.897207 -0.110430 2.970731
v -0.882864 -0.010005 2.961148
v -0.894161 -0.110430 2.976430
v -0.878224 -0.010005 2.969829
v -0.892285 -0.110430 2.982614
v -0.889796 -0.018795 2.976104
v -0.891651 -0.110430 2.989044
v -0.874402 -0.010005 2.989044
v -0.892285 -0.110430 2.995475
v -0.875367 -0.010005 2.998841
v -0.894161 -0.110430 3.001659
v -0.878224 -0.010005 3.008260
v -0.897207 -0.110430 3.007358
v -0.882864 -0.010005 3.016941
v -0.901306 -0.110430 3.012353
v -0.889109 -0.010005 3.024550
v -0.906301 -0.110430 3.016452
v -0.896718 -0.010005 3.030795
v -0.912000 -0.110430 3.019498
v -0.905399 -0.010005 3.035435
v -0.918184 -0.110430 3.021374
v -0.914818 -0.010005 3.038292
v -0.924614 -0.110430 3.022007
v -0.924614 -0.010005 3.039257
v -0.931045 -0.110430 3.021374
v -0.934410 -0.010005 3.038292
v -0.937229 -0.110430 3.019498
v -0.943830 -0.010005 3.035435
v -0.942928 -0.110430 3.016452
v -0.950000 0.002623 3.027926
v -0.947923 -0.110430 3.012353
v -0.960120 -0.010005 3.024550
v -0.952022 -0.110430 3.007358
v -0.966365 -0.010005 3.016941
v -0.955068 -0.110430 3.001659
v -0.971005 -0.010005 3.008260
v -0.956944 -0.110430 2.995475
v -0.973862 -0.010005 2.998841
v -0.957578 -0.110430 2.989044
v -0.968762 -0.008190 2.993626
v -0.956944 -0.110430 2.982614
v -0.973862 -0.010005 2.979248
v -0.955068 -0.110430 2.976430
v -0.971005 -0.010005 2.969829
v -0.952022 -0.110430 2.970731
v -0.966365 -0.010005 2.961148
v -0.947923 -0.110430 2.965736
v -0.960120 -0.010005 2.953539
v -0.942928 -0.110430 2.961637
v -0.952511 -0.010005 2.947294
v -0.937229 -0.110430 2.958591
v -0.929420 -0.018823 2.950936
v -0.931045 -0.110430 2.956715
v -0.934410 -0.010005 2.939796
v -2.058934 -0.098742 -0.988828
v -0.717163 2.813152 -1.433617
v 0.697736 -0.098742 -1.926853
v -0.720443 2.813152 -1.444282
v -1.120909 -0.098742 1.767842
v 0.217366 2.813130 1.312362
v 1.635762 -0.098742 0.829817
v 0.217582 2.813152 1.312388
v 2.288499 -0.110430 1.850715
v 2.271250 -0.010005 1.850715
v 2.289132 -0.110430 1.844284
v 2.272214 -0.010005 1.840918
v 2.291008 -0.110430 1.838100
v 2.279111 -0.020640 1.829147
v 2.294054 -0.110430 1.832401
v 2.279712 -0.010005 1.822818
v 2.298154 -0.110430 1.827406
v 2.285957 -0.010005 1.815209
v 2.303149 -0.110430 1.823307
v 2.293566 -0.010005 1.808964
v 2.308848 -0.110430 1.820261
v 2.302247 -0.010005 1.804324
v 2.315031 -0.110430 1.818385
v 2.308522 -0.018795 1.815896
v 2.321462 -0.110430 1.817751
v 2.321462 -0.010005 1.800502
v 2.327893 -0.110430 1.818385
v 2.331258 -0.010005 1.801467
v 2.334077 -0.110430 1.820261
v 2.340678 -0.010005 1.804324
v 2.339776 -0.110430 1.823307
v 2.349359 -0.010005 1.808964
v 2.344771 -0.110430 1.827406
v 2.356968 -0.010005 1.815209
v 2.348870 -0.110430 1.832401
v 2.363212 -0.010005 1.822818
v 2.351916 -0.110430 1.838100
v 2.367853 -0.010005 1.831499
v 2.353792 -0.110430 1.844284
v 2.370710 -0.010005 1.840918
v 2.354425 -0.110430 1.850715
v 2.371675 -0.010005 1.850715
v 2.353792 -0.110430 1.857145
v 2.370710 -0.010005 1.860511
v 2.351916 -0.110430 1.863329
v 2.367853 -0.010005 1.869930
v 2.348870 -0.110430 1.869028
v 2.360344 0.002623 1.876100
v 2.344771 -0.110430 1.874023
v 2.356968 -0.010005 1.886220
v 2.339776 -0.110430 1.878122
v 2.349359 -0.010005 1.892465
v 2.334077 -0.110430 1.881168
v 2.340678 -0.010005 1.897105
v 2.327893 -0.110430 1.883044
v 2.331258 -0.010005 1.899962
v 2.321462 -0.110430 1.883678
v 2.326044 -0.008190 1.894862
v 2.315031 -0.110430 1.883044
v 2.311666 -0.010005 1.899962
v 2.308848 -0.110430 1.881168
v 2.302247 -0.010005 1.897105
v 2.303149 -0.110430 1.878122
v 2.293566 -0.010005 1.892465
v 2.298154 -0.110430 1.874023
v 2.285957 -0.010005 1.886220
v 2.294054 -0.110430 1.869028
v 2.279712 -0.010005 1.878611
v 2.291008 -0.110430 1.863329
v 2.283354 -0.018823 1.855520
v 2.289132 -0.110430 1.857145
v 2.272214 -0.010005 1.860511
v 0.354513 -0.110430 -3.291370
v 0.350049 -0.010005 -3.308032
v 0.360889 -0.110430 -3.292423
v 0.359761 -0.010005 -3.309635
v 0.367347 -0.110430 -3.292212
v 0.372916 -0.020640 -3.306021
v 0.373640 -0.110430 -3.290745
v 0.379185 -0.010005 -3.307078
v 0.379526 -0.110430 -3.288077
v 0.388151 -0.010005 -3.303016
v 0.384779 -0.110430 -3.284313
v 0.396152 -0.010005 -3.297282
v 0.389196 -0.110430 -3.279597
v 0.402881 -0.010005 -3.290098
v 0.392609 -0.110430 -3.274110
v 0.393328 -0.018795 -3.281042
v 0.394885 -0.110430 -3.268062
v 0.411547 -0.010005 -3.272527
v 0.395937 -0.110430 -3.261687
v 0.413150 -0.010005 -3.262815
v 0.395726 -0.110430 -3.255228
v 0.412828 -0.010005 -3.252976
v 0.394259 -0.110430 -3.248935
v 0.410593 -0.010005 -3.243390
v 0.391592 -0.110430 -3.243049
v 0.406530 -0.010005 -3.234424
v 0.387828 -0.110430 -3.237797
v 0.400797 -0.010005 -3.226423
v 0.383111 -0.110430 -3.233379
v 0.393612 -0.010005 -3.219694
v 0.377624 -0.110430 -3.229967
v 0.385253 -0.010005 -3.214496
v 0.371576 -0.110430 -3.227690
v 0.376041 -0.010005 -3.211029
v 0.365201 -0.110430 -3.226638
v 0.366329 -0.010005 -3.209425
v 0.358742 -0.110430 -3.226850
v 0.356491 -0.010005 -3.209747
v 0.352449 -0.110430 -3.228317
v 0.348588 0.002623 -3.215404
v 0.346563 -0.110430 -3.230983
v 0.337939 -0.010005 -3.216045
v 0.341311 -0.110430 -3.234747
v 0.329937 -0.010005 -3.221779
v 0.336893 -0.110430 -3.239464
v 0.323208 -0.010005 -3.228963
v 0.333481 -0.110430 -3.244951
v 0.318011 -0.010005 -3.237322
v 0.331205 -0.110430 -3.250999
v 0.321587 -0.008190 -3.243679
v 0.330152 -0.110430 -3.257375
v 0.312940 -0.010005 -3.256246
v 0.330364 -0.110430 -3.263833
v 0.313262 -0.010005 -3.266084
v 0.331831 -0.110430 -3.270126
v 0.315497 -0.010005 -3.275671
v 0.334498 -0.110430 -3.276012
v 0.319559 -0.010005 -3.284637
v 0.338262 -0.110430 -3.281264
v 0.325293 -0.010005 -3.292638
v 0.342978 -0.110430 -3.285682
v 0.348540 -0.018823 -3.295096
v 0.348466 -0.110430 -3.289094
v 0.340836 -0.010005 -3.304565
v -2.911579 -0.110430 -2.104719
v -2.926517 -0.010005 -2.096094
v -2.914245 -0.110430 -2.110605
v -2.930580 -0.010005 -2.105060
v -2.915713 -0.110430 -2.116898
v -2.930493 -0.020640 -2.118703
v -2.915924 -0.110430 -2.123356
v -2.933137 -0.010005 -2.124485
v -2.914872 -0.110430 -2.129732
v -2.931533 -0.010005 -2.134197
v -2.912596 -0.110430 -2.135780
v -2.928066 -0.010005 -2.143409
v -2.909183 -0.110430 -2.141267
v -2.922868 -0.010005 -2.151768
v -2.904766 -0.110430 -2.145983
v -2.911648 -0.018795 -2.144884
v -2.899513 -0.110430 -2.149747
v -2.908138 -0.010005 -2.164686
v -2.893627 -0.110430 -2.152414
v -2.899172 -0.010005 -2.168748
v -2.887334 -0.110430 -2.153881
v -2.889586 -0.010005 -2.170984
v -2.880876 -0.110430 -2.154093
v -2.879748 -0.010005 -2.171306
v -2.874500 -0.110430 -2.153040
v -2.870036 -0.010005 -2.169702
v -2.868453 -0.110430 -2.150764
v -2.860823 -0.010005 -2.166235
v -2.862965 -0.110430 -2.147352
v -2.852464 -0.010005 -2.161037
v -2.858249 -0.110430 -2.142935
v -2.845280 -0.010005 -2.154308
v -2.854485 -0.110430 -2.137682
v -2.839546 -0.010005 -2.146307
v -2.851818 -0.110430 -2.131796
v -2.835484 -0.010005 -2.137341
v -2.850351 -0.110430 -2.125503
v -2.833249 -0.010005 -2.127754
v -2.850139 -0.110430 -2.119045
v -2.836667 0.002623 -2.118657
v -2.851192 -0.110430 -2.112669
v -2.834530 -0.010005 -2.108205
v -2.853468 -0.110430 -2.106621
v -2.837997 -0.010005 -2.098992
v -2.856880 -0.110430 -2.101134
v -2.843195 -0.010005 -2.090633
v -2.861298 -0.110430 -2.096417
v -2.849924 -0.010005 -2.083449
v -2.866550 -0.110430 -2.092654
v -2.856990 -0.008190 -2.085258
v -2.872436 -0.110430 -2.089987
v -2.866891 -0.010005 -2.073653
v -2.878729 -0.110430 -2.088519
v -2.876477 -0.010005 -2.071417
v -2.885188 -0.110430 -2.088308
v -2.886316 -0.010005 -2.071095
v -2.891563 -0.110430 -2.089360
v -2.896028 -0.010005 -2.072699
v -2.897611 -0.110430 -2.091637
v -2.905240 -0.010005 -2.076166
v -2.903098 -0.110430 -2.095049
v -2.913632 -0.018823 -2.097985
v -2.907815 -0.110430 -2.099467
v -2.920784 -0.010005 -2.088093
vn 0.0966 -0.1685 -0.9810
vn 0.3538 -0.1625 -0.9211
vn 0.4161 -0.1639 -0.8944
vn 0.6253 -0.1685 -0.7620
vn 0.7620 -0.1685 -0.6253
vn 0.8693 -0.1685 -0.4647
vn 0.8008 -0.0360 0.5978
vn 0.7886 -0.1016 -0.6064
vn 0.9810 -0.1685 0.0966
vn 0.9433 -0.1685 0.2861
vn 0.8693 -0.1685 0.4647
vn 0.7620 -0.1685 0.6253
vn 0.6253 -0.1685 0.7620
vn 0.4646 -0.1685 0.8693
vn 0.2862 -0.1685 0.9433
vn 0.0966 -0.1685 0.9810
vn -0.0966 -0.1685 0.9810
vn -0.2862 -0.1685 0.9433
vn -0.7337 -0.1326 0.6664
vn -0.3469 -0.1342 0.9282
vn -0.7620 -0.1685 0.6253
vn -0.8693 -0.1685 0.4647
vn -0.9433 -0.1685 0.2861
vn -0.9217 -0.1132 -0.3711
vn -0.9663 -0.1353 0.2192
vn -0.9433 -0.1685 -0.2861
vn -0.8693 -0.1685 -0.4647
vn -0.7620 -0.1685 -0.6253
vn -0.6253 -0.1685 -0.7620
vn -0.0143 -0.1139 -0.9934
vn 0.0237 0.9989 -0.0395
vn -0.9965 0.0125 -0.0829
vn -0.0966 -0.1685 -0.9810
vn -0.0000 -1.0000 -0.0000
vn -0.3258 0.0019 -0.9455
vn 0.8418 0.4575 -0.2865
vn 0.3221 -0.0000 0.9467
vn -0.8516 0.4367 0.2898
vn -0.0386 0.9992 0.0132
vn -0.9810 -0.1685 -0.0966
vn -0.9211 -0.1624 -0.3538
vn -0.8944 -0.1639 -0.4162
vn -0.7619 -0.1685 -0.6253
vn -0.4647 -0.1685 -0.8693
vn 0.5978 -0.0360 -0.8008
vn -0.6064 -0.1016 -0.7886
vn 0.2861 -0.1685 -0.9433
vn 0.4647 -0.1685 -0.8693
vn 0.6253 -0.1685 -0.7619
vn 0.9433 -0.1685 -0.2861
vn 0.9810 -0.1685 -0.0966
vn 0.6664 -0.1326 0.7337
vn 0.9282 -0.1342 0.3469
vn 0.4647 -0.1685 0.8693
vn 0.2861 -0.1685 0.9433
vn -0.3711 -0.1132 0.9216
vn 0.2192 -0.1353 0.9663
vn -0.2861 -0.1685 0.9433
vn -0.4647 -0.1685 0.8693
vn -0.6253 -0.1685 0.7620
vn -0.9934 -0.1139 0.0143
vn -0.0395 0.9989 -0.0237
vn -0.0829 0.0125 0.9965
vn -0.9810 -0.1685 0.0966
vn -0.1606 -0.1685 -0.9725
vn 0.1033 -0.1624 -0.9813
vn 0.1705 -0.1639 -0.9716
vn 0.4068 -0.1685 -0.8978
vn 0.5742 -0.1685 -0.8012
vn 0.7194 -0.1685 -0.6738
vn 0.9283 -0.0360 0.3702
vn 0.6048 -0.1016 -0.7898
vn 0.9725 -0.1685 -0.1606
vn 0.9852 -0.1685 0.0322
vn 0.9600 -0.1685 0.2238
vn 0.8978 -0.1685 0.4068
vn 0.8012 -0.1685 0.5741
vn 0.6738 -0.1685 0.7194
vn 0.5205 -0.1685 0.8371
vn 0.3472 -0.1685 0.9225
vn 0.1605 -0.1685 0.9725
vn -0.0322 -0.1685 0.9852
vn -0.5362 -0.1326 0.8336
vn -0.0948 -0.1342 0.9864
vn -0.5742 -0.1685 0.8012
vn -0.7194 -0.1685 0.6738
vn -0.8371 -0.1685 0.5205
vn -0.9863 -0.1133 -0.1200
vn -0.8766 -0.1353 0.4618
vn -0.9852 -0.1685 -0.0322
vn -0.9600 -0.1685 -0.2238
vn -0.8978 -0.1685 -0.4068
vn -0.8012 -0.1685 -0.5742
vn -0.2710 -0.1139 -0.9558
vn 0.0127 0.9989 -0.0443
vn -0.9840 0.0125 0.1779
vn -0.3472 -0.1685 -0.9225
vn -0.8978 -0.1685 0.4068
vn -0.9746 -0.1625 0.1542
vn -0.9826 -0.1639 0.0868
vn -0.9725 -0.1685 -0.1606
vn -0.9225 -0.1685 -0.3472
vn -0.8371 -0.1685 -0.5205
vn 0.1173 -0.0360 -0.9924
vn -0.9195 -0.1016 -0.3798
vn -0.4068 -0.1685 -0.8979
vn -0.2238 -0.1685 -0.9599
vn -0.0322 -0.1685 -0.9852
vn 0.1605 -0.1685 -0.9725
vn 0.3472 -0.1685 -0.9225
vn 0.5205 -0.1685 -0.8371
vn 0.6738 -0.1685 -0.7194
vn 0.8012 -0.1685 -0.5742
vn 0.8978 -0.1685 -0.4068
vn 0.9600 -0.1685 -0.2238
vn 0.9440 -0.1326 0.3022
vn 0.9773 -0.1342 -0.1637
vn 0.9225 -0.1685 0.3472
vn 0.8371 -0.1685 0.5205
vn 0.7194 -0.1685 0.6738
vn 0.1394 -0.1132 0.9837
vn 0.6730 -0.1353 0.7272
vn 0.2239 -0.1685 0.9599
vn 0.0322 -0.1685 0.9852
vn -0.1606 -0.1685 0.9725
vn -0.3472 -0.1685 0.9225
vn -0.8531 -0.1139 0.5091
vn -0.0460 0.9989 -0.0008
vn 0.4265 0.0125 0.9044
vn -0.8012 -0.1685 0.5742
vt 0.341364 0.399055
vt 0.341013 0.387021
vt 0.342136 0.387002
vt 0.342101 0.399043
vt 0.343449 0.388328
vt 0.342786 0.399055
vt 0.344104 0.387075
vt 0.343393 0.399091
vt 0.688234 0.013878
vt 0.689889 0.004127
vt 0.690754 0.004682
vt 0.688801 0.014243
vt 0.691742 0.005176
vt 0.689450 0.014567
vt 0.692816 0.005591
vt 0.690155 0.014840
vt 0.342458 0.460678
vt 0.342458 0.448780
vt 0.343803 0.450021
vt 0.342515 0.460574
vt 0.690889 0.015050
vt 0.693002 0.005880
vt 0.695053 0.006123
vt 0.691624 0.015189
vt 0.696130 0.006219
vt 0.692331 0.015252
vt 0.697125 0.006196
vt 0.692984 0.015237
vt 0.689658 0.111183
vt 0.688234 0.099233
vt 0.689097 0.099123
vt 0.690225 0.111111
vt 0.690097 0.099042
vt 0.690881 0.111058
vt 0.691193 0.098992
vt 0.691600 0.111025
vt 0.692344 0.098975
vt 0.692356 0.111014
vt 0.693506 0.098992
vt 0.693119 0.111025
vt 0.694633 0.099042
vt 0.693859 0.111058
vt 0.695684 0.099123
vt 0.694548 0.111111
vt 0.696616 0.099233
vt 0.695161 0.111183
vt 0.401668 0.818376
vt 0.392508 0.627827
vt 0.411749 0.605015
vt 0.411749 0.817913
vt 0.341026 0.472732
vt 0.341026 0.459314
vt 0.342160 0.460807
vt 0.341425 0.472793
vt 0.236042 0.799729
vt 0.214261 0.610139
vt 0.232252 0.608395
vt 0.247853 0.798584
vt 0.250648 0.607194
vt 0.259929 0.797795
vt 0.268742 0.606582
vt 0.271808 0.797393
vt 0.272815 0.605015
vt 0.283032 0.797393
vt 0.301282 0.607194
vt 0.293169 0.797795
vt 0.314478 0.608395
vt 0.301832 0.798584
vt 0.324918 0.610139
vt 0.308686 0.799729
vt 0.324918 0.795923
vt 0.324918 0.605227
vt 0.337540 0.605015
vt 0.333204 0.795784
vt 0.352495 0.605506
vt 0.343022 0.796106
vt 0.392508 0.628791
vt 0.353995 0.796878
vt 0.164954 0.781457
vt 0.147924 0.788508
vt 0.129850 0.792103
vt 0.133325 0.769946
vt 0.093359 0.788508
vt 0.076344 0.781457
vt 0.061035 0.771219
vt 0.048021 0.758190
vt 0.037801 0.742869
vt 0.039038 0.714237
vt 0.027192 0.707772
vt 0.027212 0.689346
vt 0.030825 0.671273
vt 0.037894 0.654249
vt 0.053392 0.641971
vt 0.061189 0.625898
vt 0.076519 0.615661
vt 0.093549 0.608609
vt 0.111623 0.605015
vt 0.130048 0.605015
vt 0.148114 0.608609
vt 0.165129 0.615661
vt 0.180438 0.625898
vt 0.193452 0.638928
vt 0.203672 0.654249
vt 0.210705 0.671273
vt 0.190692 0.703328
vt 0.214261 0.707772
vt 0.210648 0.725845
vt 0.203579 0.742869
vt 0.193326 0.758190
vt 0.182992 0.763322
vt 0.047235 0.976726
vt 0.027192 0.811519
vt 0.047235 0.792103
vt 0.045243 0.978938
vt 0.050616 0.982844
vt 0.065655 0.792103
vt 0.062708 0.982844
vt 0.360065 0.693898
vt 0.359773 0.693193
vt 0.359624 0.692444
vt 0.359624 0.691680
vt 0.359773 0.690931
vt 0.360065 0.690226
vt 0.360489 0.689591
vt 0.361029 0.689051
vt 0.361664 0.688626
vt 0.362370 0.688334
vt 0.363119 0.688185
vt 0.363882 0.688185
vt 0.364631 0.688334
vt 0.365337 0.688626
vt 0.365972 0.689051
vt 0.366512 0.689591
vt 0.366936 0.690226
vt 0.367228 0.690931
vt 0.367377 0.691680
vt 0.367377 0.692444
vt 0.367228 0.693193
vt 0.366936 0.693898
vt 0.366512 0.694533
vt 0.365972 0.695073
vt 0.365337 0.695497
vt 0.364631 0.695790
vt 0.363882 0.695939
vt 0.363119 0.695939
vt 0.362370 0.695790
vt 0.361664 0.695497
vt 0.361029 0.695073
vt 0.360489 0.694533
vt 0.786668 0.965316
vt 0.817826 0.904252
vt 0.817796 0.904216
vt 0.847727 0.965316
vt 0.786668 0.904216
vt 0.786668 0.834689
vt 0.848493 0.834689
vt 0.848493 0.904216
vt 0.848493 0.896511
vt 0.909637 0.928159
vt 0.909637 0.928163
vt 0.848493 0.958327
vt 0.966331 0.960091
vt 0.909638 0.958008
vt 0.909637 0.896511
vt 0.966331 0.898355
vt 0.344117 0.000018
vt -0.000000 0.000018
vt 0.001318 0.000000
vt 0.344106 0.000010
vt 0.231602 0.817209
vt 0.220638 0.654772
vt 0.231769 0.653771
vt 0.238909 0.816552
vt 0.251123 0.670687
vt 0.247496 0.816217
vt 0.259377 0.653260
vt 0.257033 0.816217
vt 0.274793 0.653771
vt 0.267153 0.816552
vt 0.290505 0.654772
vt 0.277467 0.817209
vt 0.305909 0.656225
vt 0.287579 0.818163
vt 0.693108 0.029421
vt 0.688234 0.019775
vt 0.689995 0.020357
vt 0.693229 0.029749
vt 0.358207 0.816258
vt 0.337077 0.671371
vt 0.366891 0.653260
vt 0.366891 0.816204
vt 0.690949 0.196372
vt 0.689888 0.184379
vt 0.691008 0.184294
vt 0.691684 0.196317
vt 0.692050 0.184251
vt 0.692368 0.196288
vt 0.692976 0.184251
vt 0.692976 0.196288
vt 0.694988 0.030474
vt 0.691098 0.021380
vt 0.692125 0.021378
vt 0.695663 0.030473
vt 0.693224 0.021259
vt 0.696384 0.030394
vt 0.694351 0.021026
vt 0.697124 0.030241
vt 0.695464 0.020689
vt 0.697854 0.030020
vt 0.696520 0.020261
vt 0.698547 0.029739
vt 0.697478 0.019758
vt 0.699176 0.029409
vt 0.698301 0.019200
vt 0.699717 0.029043
vt 0.691092 0.086661
vt 0.688234 0.074971
vt 0.689134 0.073325
vt 0.691646 0.086522
vt 0.690060 0.074556
vt 0.692291 0.086389
vt 0.691142 0.074374
vt 0.693001 0.086270
vt 0.692282 0.074218
vt 0.693750 0.086167
vt 0.693438 0.074095
vt 0.694508 0.086086
vt 0.693800 0.073955
vt 0.695247 0.086029
vt 0.695616 0.073962
vt 0.695938 0.085999
vt 0.310321 0.816066
vt 0.305909 0.653431
vt 0.321652 0.653260
vt 0.320655 0.815954
vt 0.337078 0.653431
vt 0.330782 0.816066
vt 0.688769 0.184108
vt 0.689048 0.172072
vt 0.690007 0.172101
vt 0.689398 0.184127
vt 0.078457 0.976700
vt 0.078457 0.813847
vt 0.091531 0.813763
vt 0.087039 0.976645
vt 0.052846 0.975227
vt 0.052846 0.813763
vt 0.078457 0.828428
vt 0.055018 0.974023
vt 0.147258 0.812206
vt 0.131594 0.813763
vt 0.115930 0.812235
vt 0.124246 0.794981
vt 0.086987 0.800280
vt 0.074820 0.790311
vt 0.064835 0.778159
vt 0.057415 0.764292
vt 0.052846 0.749242
vt 0.060932 0.726141
vt 0.052846 0.717929
vt 0.057415 0.702870
vt 0.064835 0.688989
vt 0.074821 0.676819
vt 0.090523 0.670612
vt 0.100869 0.659398
vt 0.115931 0.654818
vt 0.131595 0.653261
vt 0.147259 0.654789
vt 0.162321 0.659341
vt 0.176202 0.666744
vt 0.188369 0.676713
vt 0.198354 0.688864
vt 0.205774 0.702732
vt 0.210342 0.717782
vt 0.211885 0.733437
vt 0.187604 0.754696
vt 0.205773 0.764154
vt 0.198354 0.778035
vt 0.188368 0.790205
vt 0.176201 0.800197
vt 0.166485 0.801838
vt 0.098095 0.976582
vt 0.091531 0.831226
vt 0.103864 0.813763
vt 0.103864 0.976668
vt 0.225855 0.818163
vt 0.211885 0.656225
vt 0.375130 0.691680
vt 0.375130 0.692444
vt 0.374981 0.693193
vt 0.374689 0.693898
vt 0.374265 0.694533
vt 0.373725 0.695073
vt 0.373090 0.695497
vt 0.372385 0.695790
vt 0.371636 0.695939
vt 0.370872 0.695939
vt 0.370123 0.695790
vt 0.369417 0.695497
vt 0.368782 0.695073
vt 0.368243 0.694533
vt 0.367818 0.693898
vt 0.367526 0.693193
vt 0.367377 0.692444
vt 0.367377 0.691680
vt 0.367526 0.690931
vt 0.367818 0.690226
vt 0.368243 0.689591
vt 0.368783 0.689051
vt 0.369417 0.688626
vt 0.370123 0.688334
vt 0.370872 0.688185
vt 0.371636 0.688185
vt 0.372385 0.688334
vt 0.373090 0.688626
vt 0.373725 0.689051
vt 0.374265 0.689591
vt 0.374689 0.690226
vt 0.374982 0.690931
vt 0.284829 0.816318
vt 0.280495 0.683936
vt 0.293267 0.683737
vt 0.293213 0.816187
vt 0.309875 0.698309
vt 0.301535 0.816318
vt 0.318037 0.684527
vt 0.309474 0.816705
vt 0.083743 0.968912
vt 0.088958 0.800445
vt 0.105216 0.801213
vt 0.094416 0.969416
vt 0.121049 0.802460
vt 0.104810 0.970235
vt 0.282376 0.196266
vt 0.293618 0.145495
vt 0.298586 0.148379
vt 0.285637 0.198159
vt 0.074374 0.920346
vt 0.074233 0.908541
vt 0.075498 0.909682
vt 0.074233 0.920212
vt 0.344052 0.803222
vt 0.320444 0.653595
vt 0.351487 0.635118
vt 0.351487 0.803447
vt 0.293073 0.201144
vt 0.309913 0.152927
vt 0.315836 0.154416
vt 0.296961 0.202122
vt 0.321631 0.155298
vt 0.300766 0.202701
vt 0.327074 0.155540
vt 0.304339 0.202860
vt 0.288828 0.679812
vt 0.282376 0.616287
vt 0.286694 0.615768
vt 0.291662 0.679471
vt 0.291789 0.615411
vt 0.295007 0.679236
vt 0.297465 0.615229
vt 0.298733 0.679116
vt 0.303504 0.615229
vt 0.302698 0.679116
vt 0.309674 0.615411
vt 0.306749 0.679236
vt 0.315738 0.615768
vt 0.310729 0.679471
vt 0.321463 0.616287
vt 0.314487 0.679812
vt 0.072303 0.934114
vt 0.071629 0.922130
vt 0.072679 0.920646
vt 0.072679 0.934052
vt 0.074233 0.896603
vt 0.074233 0.883166
vt 0.075497 0.884630
vt 0.074785 0.896642
vt 0.290047 0.485265
vt 0.282377 0.421842
vt 0.287194 0.421262
vt 0.293210 0.484884
vt 0.208071 0.818686
vt 0.192777 0.687117
vt 0.205362 0.685879
vt 0.216333 0.817873
vt 0.218119 0.685026
vt 0.224707 0.817313
vt 0.222251 0.683737
vt 0.232872 0.817028
vt 0.242196 0.684591
vt 0.240514 0.817028
vt 0.252593 0.685026
vt 0.247339 0.817313
vt 0.261345 0.685879
vt 0.253084 0.817873
vt 0.268118 0.687117
vt 0.257530 0.818686
vt 0.062999 0.946224
vt 0.062999 0.813992
vt 0.071626 0.813653
vt 0.068663 0.946001
vt 0.100175 0.829029
vt 0.075407 0.946122
vt 0.065489 0.729748
vt 0.070380 0.717926
vt 0.077479 0.707287
vt 0.086656 0.719861
vt 0.097144 0.691130
vt 0.108952 0.686233
vt 0.121488 0.683737
vt 0.134271 0.683737
vt 0.146808 0.686233
vt 0.160261 0.700884
vt 0.169246 0.698238
vt 0.178286 0.707286
vt 0.185388 0.717925
vt 0.190281 0.729747
vt 0.188708 0.743380
vt 0.192777 0.755092
vt 0.190285 0.767642
vt 0.185395 0.779464
vt 0.178294 0.790103
vt 0.169257 0.799151
vt 0.158630 0.806260
vt 0.146821 0.811156
vt 0.134285 0.813653
vt 0.121503 0.813653
vt 0.108966 0.811156
vt 0.097157 0.806260
vt 0.091232 0.780709
vt 0.077488 0.790103
vt 0.070386 0.779464
vt 0.065493 0.767642
vt 0.062999 0.755093
vt 0.065548 0.747500
vt 0.113801 0.942592
vt 0.100174 0.827698
vt 0.113801 0.813653
vt 0.113684 0.943961
vt 0.276703 0.816705
vt 0.268117 0.684527
vt 0.359624 0.692444
vt 0.359475 0.693193
vt 0.359182 0.693898
vt 0.358758 0.694533
vt 0.358218 0.695073
vt 0.357583 0.695498
vt 0.356878 0.695790
vt 0.356129 0.695939
vt 0.355365 0.695939
vt 0.354616 0.695790
vt 0.353911 0.695497
vt 0.353276 0.695073
vt 0.352736 0.694533
vt 0.352311 0.693898
vt 0.352019 0.693193
vt 0.351870 0.692444
vt 0.351870 0.691680
vt 0.352019 0.690931
vt 0.352312 0.690226
vt 0.352736 0.689591
vt 0.353276 0.689051
vt 0.353911 0.688626
vt 0.354616 0.688334
vt 0.355365 0.688185
vt 0.356129 0.688185
vt 0.356878 0.688334
vt 0.357583 0.688627
vt 0.358218 0.689051
vt 0.358758 0.689591
vt 0.359183 0.690226
vt 0.359475 0.690931
vt 0.359624 0.691680
vt 0.226961 0.812281
vt 0.213630 0.649119
vt 0.229385 0.648103
vt 0.237305 0.811614
vt 0.250766 0.665091
vt 0.247585 0.811274
vt 0.260011 0.647585
vt 0.257409 0.811274
vt 0.273705 0.648103
vt 0.266399 0.811614
vt 0.285601 0.649119
vt 0.274207 0.812281
vt 0.295241 0.650594
vt 0.280537 0.813250
vt 0.112699 0.971551
vt 0.112699 0.808080
vt 0.129731 0.825921
vt 0.118677 0.971263
vt 0.353471 0.808767
vt 0.330944 0.663386
vt 0.356323 0.647585
vt 0.356323 0.809898
vt 0.051071 0.972533
vt 0.037908 0.809352
vt 0.051185 0.808509
vt 0.059787 0.971979
vt 0.065882 0.808080
vt 0.069435 0.971697
vt 0.081433 0.808080
vt 0.079644 0.971697
vt 0.097242 0.808509
vt 0.090021 0.971979
vt 0.112699 0.809352
vt 0.100168 0.972533
vt 0.693013 0.159890
vt 0.693777 0.147873
vt 0.694652 0.147958
vt 0.693587 0.159945
vt 0.695478 0.060980
vt 0.691478 0.051987
vt 0.692532 0.051919
vt 0.696171 0.060936
vt 0.693641 0.051734
vt 0.696898 0.060814
vt 0.694761 0.051437
vt 0.697634 0.060619
vt 0.695850 0.051041
vt 0.698349 0.060359
vt 0.696202 0.049192
vt 0.699016 0.060044
vt 0.697770 0.050015
vt 0.699609 0.059686
vt 0.689766 0.073325
vt 0.688234 0.061396
vt 0.688989 0.061274
vt 0.690262 0.073244
vt 0.689902 0.061178
vt 0.690862 0.073181
vt 0.690939 0.061112
vt 0.691542 0.073138
vt 0.691654 0.060980
vt 0.692277 0.073116
vt 0.693218 0.061078
vt 0.693038 0.073116
vt 0.694373 0.061112
vt 0.693796 0.073138
vt 0.695479 0.061178
vt 0.694523 0.073181
vt 0.696494 0.061274
vt 0.695189 0.073244
vt 0.697379 0.061396
vt 0.695770 0.073325
vt 0.295242 0.811203
vt 0.295242 0.647585
vt 0.330944 0.665794
vt 0.303579 0.811165
vt 0.156152 0.798916
vt 0.141549 0.804980
vt 0.126048 0.808080
vt 0.129008 0.789069
vt 0.094739 0.805029
vt 0.080137 0.798995
vt 0.066995 0.790226
vt 0.055819 0.779060
vt 0.047038 0.765926
vt 0.048074 0.741363
vt 0.037907 0.735827
vt 0.037907 0.720020
vt 0.040990 0.704514
vt 0.047040 0.689903
vt 0.060324 0.679356
vt 0.066998 0.665561
vt 0.080140 0.656765
vt 0.094743 0.650701
vt 0.110244 0.647601
vt 0.126050 0.647585
vt 0.141553 0.650652
vt 0.156155 0.656686
vt 0.169296 0.665455
vt 0.180473 0.676621
vt 0.189254 0.689755
vt 0.195302 0.704353
vt 0.178162 0.731869
vt 0.198385 0.735661
vt 0.195301 0.751168
vt 0.189252 0.765778
vt 0.180471 0.778931
vt 0.171610 0.783342
vt 0.341661 0.496709
vt 0.341026 0.486079
vt 0.342020 0.484754
vt 0.342020 0.496753
vt 0.216954 0.813250
vt 0.198385 0.650594
vt 0.351429 0.693898
vt 0.351005 0.694533
vt 0.350465 0.695073
vt 0.349830 0.695497
vt 0.349124 0.695790
vt 0.348375 0.695939
vt 0.347612 0.695939
vt 0.346863 0.695790
vt 0.346157 0.695497
vt 0.345522 0.695073
vt 0.344982 0.694533
vt 0.344558 0.693898
vt 0.344266 0.693193
vt 0.344117 0.692444
vt 0.344117 0.691680
vt 0.344266 0.690931
vt 0.344558 0.690226
vt 0.344982 0.689591
vt 0.345522 0.689051
vt 0.346157 0.688626
vt 0.346863 0.688334
vt 0.347612 0.688185
vt 0.348375 0.688185
vt 0.349124 0.688334
vt 0.349830 0.688626
vt 0.350465 0.689051
vt 0.351005 0.689591
vt 0.351429 0.690226
vt 0.351721 0.690931
vt 0.351870 0.691680
vt 0.351870 0.692444
vt 0.351721 0.693193
s 0
f 1/1/1 2/2/1 4/3/1 3/4/1
f 3/4/2 4/3/2 6/5/2 5/6/2
f 5/6/3 6/5/3 8/7/3 7/8/3
f 7/9/4 8/10/4 10/11/4 9/12/4
f 9/12/5 10/11/5 12/13/5 11/14/5
f 11/14/6 12/13/6 14/15/6 13/16/6
f 13/17/7 14/18/7 16/19/7 15/20/7
f 15/21/8 16/22/8 18/23/8 17/24/8
f 17/24/9 18/23/9 20/25/9 19/26/9
f 19/26/10 20/25/10 22/27/10 21/28/10
f 21/29/11 22/30/11 24/31/11 23/32/11
f 23/32/12 24/31/12 26/33/12 25/34/12
f 25/34/13 26/33/13 28/35/13 27/36/13
f 27/36/14 28/35/14 30/37/14 29/38/14
f 29/38/15 30/37/15 32/39/15 31/40/15
f 31/40/16 32/39/16 34/41/16 33/42/16
f 33/42/17 34/41/17 36/43/17 35/44/17
f 35/44/18 36/43/18 38/45/18 37/46/18
f 37/47/19 38/48/19 40/49/19 39/50/19
f 39/51/20 40/52/20 42/53/20 41/54/20
f 41/55/21 42/56/21 44/57/21 43/58/21
f 43/58/22 44/57/22 46/59/22 45/60/22
f 45/60/23 46/59/23 48/61/23 47/62/23
f 47/62/24 48/61/24 50/63/24 49/64/24
f 49/64/25 50/63/25 52/65/25 51/66/25
f 51/66/26 52/65/26 54/67/26 53/68/26
f 53/68/27 54/67/27 56/69/27 55/70/27
f 55/71/28 56/72/28 58/73/28 57/74/28
f 57/74/29 58/73/29 60/75/29 59/76/29
f 59/76/30 60/75/30 62/77/30 61/78/30
f 4/79/31 2/80/31 64/81/31 62/82/31 60/83/31 58/84/31 56/85/31 54/86/31 52/87/31 50/88/31 48/89/31 46/90/31 44/91/31 42/92/31 40/93/31 38/94/31 36/95/31 34/96/31 32/97/31 30/98/31 28/99/31 26/100/31 24/101/31 22/102/31 20/103/31 18/104/31 16/105/31 14/106/31 12/107/31 10/108/31 8/109/31 6/110/31
f 61/111/32 62/112/32 64/113/32 63/114/32
f 63/115/33 64/113/33 2/116/33 1/117/33
f 1/118/34 3/119/34 5/120/34 7/121/34 9/122/34 11/123/34 13/124/34 15/125/34 17/126/34 19/127/34 21/128/34 23/129/34 25/130/34 27/131/34 29/132/34 31/133/34 33/134/34 35/135/34 37/136/34 39/137/34 41/138/34 43/139/34 45/140/34 47/141/34 49/142/34 51/143/34 53/144/34 55/145/34 57/146/34 59/147/34 61/148/34 63/149/34
f 65/150/35 66/151/35 68/152/35 67/153/35
f 67/154/36 68/155/36 72/156/36 71/157/36
f 71/158/37 72/159/37 70/160/37 69/161/37
f 69/162/38 70/163/38 66/164/38 65/165/38
f 72/166/39 68/167/39 66/168/39 70/169/39
f 73/170/40 74/171/40 76/172/40 75/173/40
f 75/173/41 76/172/41 78/174/41 77/175/41
f 77/175/42 78/174/42 80/176/42 79/177/42
f 79/177/43 80/176/43 82/178/43 81/179/43
f 81/179/29 82/178/29 84/180/29 83/181/29
f 83/181/44 84/180/44 86/182/44 85/183/44
f 85/184/45 86/185/45 88/186/45 87/187/45
f 87/188/46 88/189/46 90/190/46 89/191/46
f 89/192/1 90/193/1 92/194/1 91/195/1
f 91/195/47 92/194/47 94/196/47 93/197/47
f 93/197/48 94/196/48 96/198/48 95/199/48
f 95/200/49 96/201/49 98/202/49 97/203/49
f 97/203/5 98/202/5 100/204/5 99/205/5
f 99/205/6 100/204/6 102/206/6 101/207/6
f 101/207/50 102/206/50 104/208/50 103/209/50
f 103/209/51 104/208/51 106/210/51 105/211/51
f 105/211/9 106/210/9 108/212/9 107/213/9
f 107/213/10 108/212/10 110/214/10 109/215/10
f 109/216/52 110/217/52 112/218/52 111/219/52
f 111/219/53 112/218/53 114/220/53 113/221/53
f 113/221/13 114/220/13 116/222/13 115/223/13
f 115/223/54 116/222/54 118/224/54 117/225/54
f 117/225/55 118/224/55 120/226/55 119/227/55
f 119/227/56 120/226/56 122/228/56 121/229/56
f 121/229/57 122/228/57 124/230/57 123/231/57
f 123/232/58 124/233/58 126/234/58 125/235/58
f 125/235/59 126/234/59 128/236/59 127/237/59
f 127/238/60 128/239/60 130/240/60 129/241/60
f 129/242/21 130/243/21 132/244/21 131/245/21
f 131/246/61 132/247/61 134/248/61 133/249/61
f 76/250/62 74/251/62 136/252/62 134/253/62 132/254/62 130/255/62 128/256/62 126/257/62 124/258/62 122/259/62 120/260/62 118/261/62 116/262/62 114/263/62 112/264/62 110/265/62 108/266/62 106/267/62 104/268/62 102/269/62 100/270/62 98/271/62 96/272/62 94/273/62 92/274/62 90/275/62 88/276/62 86/277/62 84/278/62 82/279/62 80/280/62 78/281/62
f 133/282/63 134/283/63 136/284/63 135/285/63
f 135/286/64 136/287/64 74/171/64 73/170/64
f 73/288/34 75/289/34 77/290/34 79/291/34 81/292/34 83/293/34 85/294/34 87/295/34 89/296/34 91/297/34 93/298/34 95/299/34 97/300/34 99/301/34 101/302/34 103/303/34 105/304/34 107/305/34 109/306/34 111/307/34 113/308/34 115/309/34 117/310/34 119/311/34 121/312/34 123/313/34 125/314/34 127/315/34 129/316/34 131/317/34 133/318/34 135/319/34
f 137/320/65 138/321/65 140/322/65 139/323/65
f 139/323/66 140/322/66 142/324/66 141/325/66
f 141/325/67 142/324/67 144/326/67 143/327/67
f 143/328/68 144/329/68 146/330/68 145/331/68
f 145/331/69 146/330/69 148/332/69 147/333/69
f 147/334/70 148/335/70 150/336/70 149/337/70
f 149/338/71 150/339/71 152/340/71 151/341/71
f 151/342/72 152/343/72 154/344/72 153/345/72
f 153/346/73 154/347/73 156/348/73 155/349/73
f 155/349/74 156/348/74 158/350/74 157/351/74
f 157/351/75 158/350/75 160/352/75 159/353/75
f 159/354/76 160/355/76 162/356/76 161/357/76
f 161/357/77 162/356/77 164/358/77 163/359/77
f 163/359/78 164/358/78 166/360/78 165/361/78
f 165/361/79 166/360/79 168/362/79 167/363/79
f 167/363/80 168/362/80 170/364/80 169/365/80
f 169/365/81 170/364/81 172/366/81 171/367/81
f 171/367/82 172/366/82 174/368/82 173/369/82
f 173/370/83 174/371/83 176/372/83 175/373/83
f 175/374/84 176/375/84 178/376/84 177/377/84
f 177/378/85 178/379/85 180/380/85 179/381/85
f 179/382/86 180/383/86 182/384/86 181/385/86
f 181/385/87 182/384/87 184/386/87 183/387/87
f 183/387/88 184/386/88 186/388/88 185/389/88
f 185/389/89 186/388/89 188/390/89 187/391/89
f 187/391/90 188/390/90 190/392/90 189/393/90
f 189/393/91 190/392/91 192/394/91 191/395/91
f 191/395/92 192/394/92 194/396/92 193/397/92
f 193/398/93 194/399/93 196/400/93 195/401/93
f 195/401/94 196/400/94 198/402/94 197/403/94
f 140/404/95 138/405/95 200/406/95 198/407/95 196/408/95 194/409/95 192/410/95 190/411/95 188/412/95 186/413/95 184/414/95 182/415/95 180/416/95 178/417/95 176/418/95 174/419/95 172/420/95 170/421/95 168/422/95 166/423/95 164/424/95 162/425/95 160/426/95 158/427/95 156/428/95 154/429/95 152/430/95 150/431/95 148/432/95 146/433/95 144/434/95 142/435/95
f 197/436/96 198/437/96 200/438/96 199/439/96
f 199/440/97 200/441/97 138/321/97 137/320/97
f 137/442/34 139/443/34 141/444/34 143/445/34 145/446/34 147/447/34 149/448/34 151/449/34 153/450/34 155/451/34 157/452/34 159/453/34 161/454/34 163/455/34 165/456/34 167/457/34 169/458/34 171/459/34 173/460/34 175/461/34 177/462/34 179/463/34 181/464/34 183/465/34 185/466/34 187/467/34 189/468/34 191/469/34 193/470/34 195/471/34 197/472/34 199/473/34
f 201/474/98 202/475/98 204/476/98 203/477/98
f 203/477/99 204/476/99 206/478/99 205/479/99
f 205/479/100 206/478/100 208/480/100 207/481/100
f 207/481/101 208/480/101 210/482/101 209/483/101
f 209/483/102 210/482/102 212/484/102 211/485/102
f 211/485/103 212/484/103 214/486/103 213/487/103
f 213/488/104 214/489/104 216/490/104 215/491/104
f 215/492/105 216/493/105 218/494/105 217/495/105
f 217/496/106 218/497/106 220/498/106 219/499/106
f 219/499/107 220/498/107 222/500/107 221/501/107
f 221/501/108 222/500/108 224/502/108 223/503/108
f 223/503/109 224/502/109 226/504/109 225/505/109
f 225/505/110 226/504/110 228/506/110 227/507/110
f 227/508/111 228/509/111 230/510/111 229/511/111
f 229/512/112 230/513/112 232/514/112 231/515/112
f 231/515/113 232/514/113 234/516/113 233/517/113
f 233/517/114 234/516/114 236/518/114 235/519/114
f 235/519/115 236/518/115 238/520/115 237/521/115
f 237/521/116 238/520/116 240/522/116 239/523/116
f 239/523/117 240/522/117 242/524/117 241/525/117
f 241/526/118 242/527/118 244/528/118 243/529/118
f 243/529/119 244/528/119 246/530/119 245/531/119
f 245/531/120 246/530/120 248/532/120 247/533/120
f 247/533/121 248/532/121 250/534/121 249/535/121
f 249/535/122 250/534/122 252/536/122 251/537/122
f 251/537/123 252/536/123 254/538/123 253/539/123
f 253/539/124 254/538/124 256/540/124 255/541/124
f 255/541/125 256/540/125 258/542/125 257/543/125
f 257/543/126 258/542/126 260/544/126 259/545/126
f 259/546/127 260/547/127 262/548/127 261/549/127
f 204/550/128 202/551/128 264/552/128 262/553/128 260/554/128 258/555/128 256/556/128 254/557/128 252/558/128 250/559/128 248/560/128 246/561/128 244/562/128 242/563/128 240/564/128 238/565/128 236/566/128 234/567/128 232/568/128 230/569/128 228/570/128 226/571/128 224/572/128 222/573/128 220/574/128 218/575/128 216/576/128 214/577/128 212/578/128 210/579/128 208/580/128 206/581/128
f 261/582/129 262/583/129 264/584/129 263/585/129
f 263/586/130 264/587/130 202/475/130 201/474/130
f 201/588/34 203/589/34 205/590/34 207/591/34 209/592/34 211/593/34 213/594/34 215/595/34 217/596/34 219/597/34 221/598/34 223/599/34 225/600/34 227/601/34 229/602/34 231/603/34 233/604/34 235/605/34 237/606/34 239/607/34 241/608/34 243/609/34 245/610/34 247/611/34 249/612/34 251/613/34 253/614/34 255/615/34 257/616/34 259/617/34 261/618/34 263/619/34
