# Blender 5.0.0
# www.blender.org
o Trunk
v -1.880342 0.008986 -4.547067
v -1.658860 3.095551 -3.920112
v 2.267545 0.008986 -5.031638
v 0.927064 3.095551 -4.059897
v 6.698493 0.008986 -4.244274
v 3.101284 3.095551 -2.653017
v 4.611764 -0.064938 -0.268121
v 4.033321 3.095551 -0.236853
v 6.305107 0.008986 4.363290
v 3.367170 3.095551 2.265703
v 0.701783 0.008986 4.706212
v 1.357277 3.095551 3.898759
v -2.824284 0.008986 6.715589
v -1.228647 3.095551 4.038544
v -3.448480 -0.006948 3.182820
v -3.402867 3.095551 2.631664
v -4.781911 0.008986 0.520686
v -4.334905 3.095551 0.215500
v -7.649675 0.008986 -5.397512
v -3.668753 3.095551 -2.287056
v -2.177687 1.485388 -4.050260
v 1.324298 1.465015 -3.930724
v 4.467680 1.515307 -3.430526
v 4.137918 1.640102 -0.350332
v 4.836139 1.631786 3.314496
v 1.059896 1.426447 4.083449
v -2.026466 1.508883 5.377066
v -3.425673 1.544302 2.907242
v -4.507890 1.584980 0.179251
v -5.336443 1.623176 -3.865983
v 0.814901 3.606314 -3.667181
v -1.525494 3.606314 -3.540669
v 2.782682 3.606314 -2.393883
v 3.626224 3.606314 -0.207130
v 3.023323 3.606314 2.057812
v 1.204266 3.606314 3.535812
v -1.136129 3.606314 3.662324
v -3.103909 3.606314 2.389025
v -3.947451 3.606314 0.202272
v -3.344550 3.606314 -2.062670
v 0.625851 4.504335 -3.098327
v -1.361590 4.504335 -2.990894
v 2.296873 4.504335 -2.017054
v 3.013201 4.504335 -0.160083
v 2.501223 4.504335 1.763284
v 0.956497 4.504335 3.018388
v -1.030945 4.504335 3.125821
v -2.701966 4.504335 2.044548
v -3.418294 4.504335 0.187577
v -2.906316 4.504335 -1.735790
v 0.430191 5.352467 -2.852168
v -1.435774 5.352467 -2.751301
v 1.999077 5.352467 -1.836984
v 2.671622 5.352467 -0.093514
v 2.190937 5.352467 1.712294
v 0.740627 5.352467 2.890683
v -1.125339 5.352467 2.991550
v -2.694224 5.352467 1.976366
v -3.366769 5.352467 0.232897
v -2.886084 5.352467 -1.572911
v 0.281367 5.976093 -2.488630
v -1.366725 5.976093 -2.399540
v 1.667068 5.976093 -1.591980
v 2.261085 5.976093 -0.052080
v 1.836526 5.976093 1.542879
v 0.555556 5.976093 2.583678
v -1.092537 5.976093 2.672768
v -2.478237 5.976093 1.776118
v -3.072255 5.976093 0.236218
v -2.647695 5.976093 -1.358741
v 0.575393 6.824224 -2.419884
v -0.943051 6.824224 -2.337803
v 1.852086 6.824224 -1.593770
v 2.399375 6.824224 -0.175007
v 2.008214 6.824224 1.294484
v 0.828013 6.824224 2.253408
v -0.690432 6.824224 2.335489
v -1.967125 6.824224 1.509374
v -2.514414 6.824224 0.090612
v -2.123253 6.824224 -1.378879
v 0.575393 7.547630 -2.419884
v -0.943051 7.547630 -2.337803
v 1.852086 7.547630 -1.593770
v 2.399375 7.547630 -0.175007
v 2.008214 7.547630 1.294484
v 0.828013 7.547630 2.253408
v -0.690432 7.547630 2.335489
v -1.967125 7.547630 1.509374
v -2.514414 7.547630 0.090612
v -2.123253 7.547630 -1.378879
v 0.704886 8.445651 -2.319692
v -0.706701 8.445651 -2.243387
v 1.891734 8.445651 -1.551714
v 2.400508 8.445651 -0.232794
v 2.036874 8.445651 1.133284
v 0.939727 8.445651 2.024725
v -0.471859 8.445651 2.101030
v -1.658707 8.445651 1.333052
v -2.167482 8.445651 0.014133
v -1.803848 8.445651 -1.351945
v 0.659883 9.393562 -2.150630
v -0.643737 9.393562 -2.080162
v 1.755955 9.393562 -1.441392
v 2.225815 9.393562 -0.223351
v 1.889994 9.393562 1.038241
v 0.876763 9.393562 1.861500
v -0.426857 9.393562 1.931969
v -1.522928 9.393562 1.222730
v -1.992788 9.393562 0.004689
v -1.656968 9.393562 -1.256903
v 0.393153 10.441255 -1.930811
v -0.827249 10.441255 -1.864841
v 1.419256 10.441255 -1.266847
v 1.859123 10.441255 -0.126561
v 1.544738 10.441255 1.054496
v 0.596188 10.441255 1.825202
v -0.624215 10.441255 1.891172
v -1.650316 10.441255 1.227208
v -2.090183 10.441255 0.086922
v -1.775800 10.441255 -1.094136
v 0.308995 10.757802 -1.883500
v -0.900840 10.757802 -1.818101
v 1.326214 10.757802 -1.225285
v 1.762271 10.757802 -0.094872
v 1.450609 10.757802 1.075959
v 0.510272 10.757802 1.839992
v -0.699564 10.757802 1.905390
v -1.716781 10.757802 1.247176
v -2.152839 10.757802 0.116763
v -1.841178 10.757802 -1.054069
v 0.312713 11.500840 -1.673310
v -0.863168 11.628112 -0.773450
v 1.258871 11.500840 -1.199308
v 1.694929 11.500840 -0.068895
v 1.312207 11.500840 0.917724
v 0.287300 11.628112 1.089017
v -0.482282 11.053396 2.089660
v -1.592839 10.868251 1.754300
v -2.299684 10.868251 0.610004
v -2.102451 11.053396 -0.533193
v -1.074713 11.262704 2.059133
v -0.517284 12.012228 1.390595
v -1.900677 10.928569 1.824388
v -2.500155 10.928569 0.853905
v -2.340342 11.262704 0.010234
v -1.493001 12.012228 -0.188972
v -1.091810 11.490737 2.168849
v -1.064185 12.312467 1.364685
v -1.900879 11.097893 2.134782
v -2.706711 11.097893 1.379544
v -2.793093 11.490737 0.574377
v -2.737772 12.312467 0.708665
v -2.269902 11.861294 3.068598
v -1.526888 12.695779 2.029011
v -2.799682 11.393014 2.924574
v -3.436648 11.393014 2.327599
v -3.614673 11.861294 1.808256
v -2.849766 12.695779 1.510465
v -2.515601 12.019492 3.114815
v -2.557828 12.746629 2.827734
v -3.064021 11.628278 3.141229
v -3.731048 11.628278 2.702358
v -3.923841 12.019492 2.188265
v -3.643488 12.746629 2.113425
v -2.791704 12.286244 3.476024
v -2.775661 12.928565 3.113765
v -3.360306 11.958610 3.563869
v -4.001917 11.958610 3.141721
v -4.146282 12.286244 2.584779
v -3.819952 12.928565 2.426673
v -3.130509 12.735209 3.798762
v -3.093724 13.251047 3.449005
v -3.653712 12.483515 3.918769
v -4.211717 12.483515 3.551630
v -4.308578 12.735209 3.023652
v -4.001938 13.251047 2.851445
v -3.370594 13.174247 4.127579
v -3.322288 13.646236 3.768577
v -3.895188 12.951445 4.268692
v -4.437499 12.951445 3.911879
v -4.515528 13.174247 3.374270
v -4.204957 13.646236 3.187825
v -3.534873 13.608068 4.377262
v -3.458633 14.020645 3.975804
v -4.078053 13.427728 4.546623
v -4.620362 13.427728 4.189810
v -4.679807 13.608068 3.623954
v -4.341302 14.020645 3.395052
v -3.707045 14.144970 4.532920
v -3.614977 14.446866 4.131692
v -4.224277 14.031523 4.718648
v -4.720470 14.031523 4.392179
v -4.754614 14.144970 3.843672
v -4.422584 14.446866 3.600327
v -3.810722 14.654618 4.636793
v -3.703756 14.853782 4.225223
v -4.316179 14.604213 4.832889
v -4.789011 14.604213 4.521789
v -4.808973 14.654618 3.979994
v -4.473342 14.853782 3.718874
v -3.881623 15.114337 4.657804
v -3.776226 15.220074 4.268489
v -4.354387 15.116529 4.849872
v -4.789485 15.116529 4.563599
v -4.800207 15.114337 4.053421
v -4.484395 15.220074 3.802550
v -3.908317 15.499092 4.622451
v -3.812398 15.565106 4.264935
v -4.349319 15.520476 4.806206
v -4.751390 15.520476 4.541662
v -4.757177 15.499092 4.063943
v -4.466814 15.565106 3.834363
v -3.924735 15.872702 4.591185
v -3.838226 15.934702 4.260849
v -4.342489 15.892785 4.769197
v -4.720106 15.892785 4.520744
v -4.721966 15.872702 4.066648
v -4.452839 15.934696 3.856464
v -0.300216 11.916829 0.165370
v -0.857763 12.300941 0.509774
v -1.671168 12.601181 0.450401
v -2.291698 12.984494 2.033449
v -3.005443 13.035345 2.325864
v -3.202590 13.217280 2.625504
v -3.452615 13.539764 3.005510
v -3.668407 13.934954 3.333486
v -3.804752 14.309362 3.540713
v -3.923566 14.735579 3.721294
v -3.985399 14.969268 3.815273
v -4.027160 15.335560 3.878745
v -4.036456 15.680593 3.892874
v -4.018579 15.934696 3.865703
v 0.630301 11.845653 -1.441010
v -0.086251 12.157530 -1.001172
v 1.437539 11.715891 -1.155805
v 1.798096 11.715891 -0.221116
v 1.391515 11.845653 0.532321
v 0.565211 12.157530 0.687641
v -0.058840 12.287633 -0.041688
v 0.972114 12.206547 -1.572864
v 0.263929 12.518424 -1.136254
v 1.787719 12.076785 -1.290887
v 2.148276 12.076785 -0.356198
v 1.733328 12.206547 0.400466
v 0.915390 12.518424 0.552559
v 0.291340 12.648527 -0.176770
v 1.230041 12.561377 -1.672360
v 0.504848 12.788310 -1.229189
v 2.060868 12.485354 -1.396255
v 2.421425 12.485354 -0.461566
v 1.991255 12.561377 0.300970
v 1.156309 12.788310 0.459625
v 0.526026 12.906117 -0.267301
v 1.408471 12.937893 -1.741189
v 0.668737 13.053990 -1.292410
v 2.248226 12.931153 -1.468528
v 2.608783 12.931153 -0.533839
v 2.169685 12.937893 0.232141
v 1.320199 13.053990 0.396404
v 0.683565 13.155341 -0.328072
v 1.511764 13.389663 -1.693060
v 0.838240 13.496749 -1.282505
v 2.295138 13.383447 -1.444955
v 2.627710 13.383447 -0.582811
v 2.213897 13.389663 0.127111
v 1.439139 13.496749 0.275232
v 0.838119 13.594268 -0.387691
v 1.614496 13.812348 -1.649094
v 1.004000 13.910872 -1.274904
v 2.344408 13.806629 -1.424364
v 2.650389 13.806629 -0.631155
v 2.260489 13.812348 0.025542
v 1.556852 13.910872 0.158281
v 0.989673 14.004748 -0.446153
v 1.636160 14.270085 -1.601272
v 1.064190 14.335369 -1.250043
v 2.328877 14.281732 -1.391764
v 2.616988 14.281732 -0.644881
v 2.244424 14.270085 -0.024440
v 1.584754 14.335369 0.099439
v 1.039054 14.422646 -0.465202
v 1.660570 14.744421 -1.531674
v 1.144693 14.770375 -1.213476
v 2.300036 14.775801 -1.343213
v 2.563013 14.775801 -0.661486
v 2.215771 14.744421 -0.092401
v 1.619845 14.770375 0.018281
v 1.104902 14.849442 -0.490603
v 1.653889 15.236736 -1.477403
v 1.175542 15.261066 -1.181136
v 2.258642 15.266154 -1.302760
v 2.505175 15.266154 -0.663660
v 2.174374 15.236736 -0.128126
v 1.620983 15.261066 -0.026399
v 1.127122 15.338440 -0.499175
v 1.648559 15.671620 -1.412861
v 1.215642 15.693990 -1.143128
v 2.211419 15.698668 -1.254946
v 2.438075 15.698668 -0.667373
v 2.127080 15.671620 -0.172368
v 1.625170 15.693990 -0.081490
v 1.156792 15.769316 -0.510620
v 1.642403 16.077444 -1.354601
v 1.250084 16.098059 -1.108586
v 2.167760 16.102369 -1.211634
v 2.376640 16.102369 -0.670145
v 2.083394 16.077444 -0.211401
v 1.627492 16.098059 -0.130214
v 1.181906 16.136906 -0.520308
v -1.069453 12.962077 1.378125
v -2.743040 12.962077 0.722106
v -1.532156 13.128853 2.042451
v -2.855034 13.128853 1.523904
v -1.676437 13.034256 0.463841
v -2.296966 13.215467 2.046889
v -1.200963 13.513160 1.444417
v -2.691610 13.513160 0.860107
v -1.618764 13.516446 2.050605
v -2.797038 13.516446 1.588741
v -1.750604 13.689818 0.653051
v -2.303768 13.540843 2.064241
v -1.298223 13.919830 1.538435
v -2.684149 13.919830 0.995174
v -1.686671 13.922887 2.102037
v -2.782170 13.922887 1.672620
v -1.809250 14.084079 0.802665
v -2.323553 13.945571 2.114716
v -1.455869 14.349753 1.698984
v -2.677597 14.349753 1.220086
v -1.794345 14.237450 2.185733
v -2.760054 14.237450 1.807191
v -1.919789 14.577719 1.084663
v -2.355681 14.214940 2.196679
v -1.622444 14.708673 1.931550
v -2.713434 14.708673 1.503899
v -1.918463 14.543252 2.350303
v -2.780831 14.543252 2.012268
v -2.047316 14.956625 1.410002
v -2.418214 14.498720 2.356207
v -1.777421 15.028715 2.196763
v -2.779965 15.028715 1.803782
v -2.037259 14.799492 2.550486
v -2.829715 14.799492 2.239856
v -2.183990 15.305887 1.758672
v -2.492940 14.729184 2.546843
v -1.888056 15.288559 2.479005
v -2.890600 15.288559 2.086024
v -2.147894 15.059336 2.832728
v -2.940349 15.059336 2.522098
v -2.294624 15.565732 2.040915
v -2.603574 14.989028 2.829085
v -2.067420 15.540261 2.786703
v -2.968111 15.540261 2.433647
v -2.300859 15.334329 3.104489
v -3.012806 15.334329 2.825418
v -2.432683 15.789275 2.393120
v -2.710246 15.271164 3.101216
v -2.158988 6.865212 -1.244630
v -2.483345 6.876663 -0.026106
v -2.304499 7.595222 -0.632963
v -2.620537 6.509579 -0.234155
v -2.599496 6.342301 -0.697812
v -2.392289 6.497654 -1.119044
v -2.204067 7.396405 -1.075282
v -2.436851 7.408998 -0.200771
v -3.566308 7.317088 -0.317531
v -3.656407 6.935979 -0.507422
v -3.623311 6.778119 -0.911656
v -3.486405 6.935979 -1.293437
v -3.325889 7.317088 -1.429124
v -3.235790 7.698195 -1.239233
v -3.268886 7.856056 -0.835000
v -3.405792 7.698195 -0.453218
v -4.238668 7.241684 -0.658878
v -4.154159 7.599148 -0.480768
v -4.207624 7.093617 -1.038033
v -4.079213 7.241684 -1.396129
v -3.928655 7.599148 -1.523398
v -3.844146 7.956612 -1.345288
v -3.875189 8.104678 -0.966133
v -4.003601 7.956612 -0.608037
v -4.687838 7.514478 -0.771582
v -4.606735 7.857531 -0.600652
v -4.658046 7.372380 -1.135451
v -4.534811 7.514478 -1.479111
v -4.390323 7.857531 -1.601249
v -4.309220 8.200583 -1.430319
v -4.339012 8.342681 -1.066450
v -4.462247 8.200583 -0.722791
v -4.899323 7.595632 -0.861169
v -4.927858 7.914720 -0.732113
v -4.831623 7.463461 -1.172993
v -4.764416 7.595632 -1.484925
v -4.737069 7.914720 -1.614238
v -4.765604 8.233809 -1.485182
v -4.833303 8.365980 -1.173357
v -4.900511 8.233809 -0.861425
v -5.211649 7.652649 -0.986006
v -5.263990 7.914033 -0.885828
v -5.143894 7.544381 -1.240532
v -5.100414 7.652649 -1.500309
v -5.106680 7.914033 -1.613163
v -5.159021 8.175416 -1.512985
v -5.226777 8.283686 -1.258459
v -5.270257 8.175416 -0.998682
v -5.551213 7.648903 -1.089585
v -5.541248 7.880463 -0.988414
v -5.514423 7.552988 -1.320672
v -5.452432 7.648903 -1.546308
v -5.401549 7.880463 -1.634318
v -5.391584 8.112021 -1.533148
v -5.428373 8.207936 -1.302060
v -5.490366 8.112021 -1.076424
v -5.909509 7.839965 -1.167078
v -5.827856 8.048949 -1.050402
v -5.902413 7.753402 -1.404588
v -5.810727 7.839965 -1.623801
v -5.688157 8.048949 -1.696307
v -5.606503 8.257933 -1.579632
v -5.613598 8.344497 -1.342122
v -5.705286 8.257933 -1.122908
v -6.276694 8.118306 -1.246494
v -6.126984 8.274115 -1.115099
v -6.297790 8.053767 -1.490101
v -6.177913 8.118306 -1.703218
v -5.987285 8.274115 -1.761004
v -5.837574 8.429923 -1.629608
v -5.816478 8.494461 -1.386001
v -5.936355 8.429923 -1.172884
v -6.492958 8.365550 -1.293268
v -6.343247 8.521360 -1.161873
v -6.514054 8.301013 -1.536875
v -6.394176 8.365550 -1.749992
v -6.203549 8.521360 -1.807778
v -6.053838 8.677169 -1.676383
v -6.032742 8.741707 -1.432776
v -6.152620 8.677169 -1.219659
v -6.679265 8.735232 -1.333563
v -6.492855 8.834188 -1.194230
v -6.715562 8.694243 -1.580458
v -6.580484 8.735232 -1.790287
v -6.353157 8.834188 -1.840135
v -6.166746 8.933142 -1.700803
v -6.130449 8.974130 -1.453908
v -6.265528 8.933142 -1.244079
v -6.884642 9.110911 -1.344325
v -6.594403 9.447196 -1.091094
v -6.934262 9.090051 -1.627759
v -6.771951 9.110911 -1.865357
v -6.403009 9.447196 -1.976018
v -6.123806 9.156525 -1.779974
v -6.064214 9.181575 -1.439582
v -6.259142 9.156525 -1.154239
v -6.038980 9.389489 -1.699728
v -6.265413 9.625221 -1.858718
v -5.990652 9.409804 -1.423672
v -6.148737 9.389489 -1.192260
v -6.420632 9.625221 -1.141050
v -5.970932 9.567161 -1.646402
v -6.200654 9.719071 -1.790112
v -5.935065 9.602859 -1.411649
v -6.064735 9.567161 -1.212700
v -6.333311 9.719071 -1.176764
v -5.911675 9.738358 -1.603753
v -6.119301 9.855293 -1.730327
v -5.882696 9.774186 -1.400323
v -5.993151 9.738358 -1.227050
v -6.234524 9.855293 -1.197587
v -5.826539 10.010091 -1.557406
v -6.004747 10.110459 -1.666047
v -5.801664 10.040842 -1.382797
v -5.896470 10.010091 -1.234073
v -6.103645 10.110459 -1.208785
v -5.793121 10.245053 -1.522776
v -5.952736 10.304181 -1.616044
v -5.776484 10.278031 -1.377351
v -5.851729 10.245053 -1.251799
v -6.035620 10.304181 -1.232825
v -5.782900 10.514338 -1.506735
v -5.926950 10.567699 -1.590909
v -5.767885 10.544100 -1.375491
v -5.835793 10.514338 -1.262182
v -6.001751 10.567699 -1.245059
v -5.794985 10.760974 -1.494281
v -5.922076 10.808055 -1.568546
v -5.781737 10.787232 -1.378487
v -5.841651 10.760974 -1.278517
v -5.988072 10.808055 -1.263409
v -7.050781 9.342128 -1.418658
v -6.801413 9.631059 -1.201086
v -7.093414 9.324205 -1.662182
v -6.953959 9.342128 -1.866322
v -6.636970 9.631059 -1.961400
v -7.246550 9.616839 -1.508188
v -7.047404 9.847580 -1.334435
v -7.280597 9.602528 -1.702666
v -7.169229 9.616839 -1.865692
v -6.916080 9.847580 -1.941622
v -7.362462 9.756376 -1.533258
v -7.221510 10.034312 -1.372092
v -7.391313 9.725272 -1.726612
v -7.285140 9.756376 -1.890762
v -7.090186 10.034312 -1.979278
v -7.517434 9.896334 -1.594974
v -7.447305 10.157013 -1.468818
v -7.535534 9.858603 -1.757805
v -7.451765 9.896334 -1.898603
v -7.335771 10.157013 -1.984503
v -7.721937 9.984791 -1.639204
v -7.670661 10.251727 -1.517126
v -7.737208 9.943357 -1.801423
v -7.656267 9.984791 -1.942833
v -7.559127 10.251727 -2.032812
v -7.934042 10.091548 -1.700566
v -7.877784 10.329329 -1.588227
v -7.949343 10.056080 -1.847305
v -7.874771 10.091548 -1.974605
v -7.777119 10.329329 -2.053656
v -8.160675 10.196868 -1.771899
v -8.113172 10.397654 -1.677038
v -8.173596 10.166918 -1.895807
v -8.110626 10.196868 -2.003301
v -8.028169 10.397654 -2.070052
v 2.154716 5.236061 1.483594
v 3.070663 5.972338 1.438624
v 1.873574 5.644750 1.242388
v 2.843637 6.302358 1.243848
v 1.800442 5.814034 0.722539
v 2.784583 6.439056 0.824064
v 1.978161 5.644750 0.228568
v 2.928092 6.302358 0.425177
v 2.302625 5.236061 0.049837
v 3.190100 5.972338 0.280850
v 2.583767 4.827372 0.291043
v 3.417126 5.642316 0.475627
v 2.656899 4.658087 0.810892
v 3.476181 5.505617 0.895410
v 2.479180 4.827372 1.304863
v 3.332671 5.642316 1.294297
v 3.334438 6.732257 1.261273
v 3.586088 6.466179 1.444835
v 3.262375 6.842470 0.873354
v 3.412114 6.732257 0.508317
v 3.695939 6.466179 0.379995
v 3.947590 6.200100 0.563557
v 4.019652 6.089887 0.951476
v 3.869913 6.200100 1.316513
v 3.851651 7.313742 1.287588
v 4.119879 7.107425 1.461659
v 3.770434 7.399200 0.925766
v 3.923806 7.313742 0.588145
v 4.221923 7.107425 0.472498
v 4.490151 6.901109 0.646570
v 4.571368 6.815650 1.008391
v 4.417996 6.901109 1.346013
v 4.372503 7.980969 1.311232
v 4.617898 7.792216 1.470486
v 4.298201 8.059154 0.980211
v 4.438516 7.980969 0.671331
v 4.711255 7.792216 0.565528
v 4.956651 7.603463 0.724782
v 5.030953 7.525279 1.055803
v 4.890637 7.603463 1.364684
v 4.651638 8.577468 1.327250
v 5.085626 8.858567 1.312856
v 4.565837 8.626676 1.007821
v 4.715042 8.577468 0.712636
v 5.141242 8.858567 0.773740
v 5.282398 8.339874 0.771165
v 5.368199 8.290667 1.090594
v 5.218993 8.339874 1.385779
v 5.668941 8.554323 0.887608
v 5.636963 8.954287 0.897103
v 5.724680 8.501832 1.125239
v 5.621602 8.554323 1.346487
v 5.595439 8.954287 1.299614
v 6.228392 8.658509 0.974444
v 6.200542 9.006845 0.982714
v 6.276937 8.612795 1.181401
v 6.187164 8.658509 1.374089
v 6.164378 9.006845 1.333267
v 6.791827 8.732396 1.032569
v 6.636343 9.045416 1.027672
v 6.852359 8.715997 1.240762
v 6.750599 8.732396 1.432213
v 6.600180 9.045416 1.378224
v 7.204827 9.012674 1.106817
v 7.013855 9.234979 1.096464
v 7.256881 9.016253 1.281613
v 7.170238 9.012674 1.442101
v 6.983515 9.234979 1.390563
v 7.626456 9.464469 1.162772
v 7.449919 9.669970 1.153202
v 7.674575 9.467777 1.324356
v 7.594482 9.464469 1.472713
v 7.421873 9.669970 1.425071
v 4.433011 8.838705 1.304696
v 4.848438 9.146479 1.288387
v 4.344347 8.880335 0.984972
v 4.496416 8.838705 0.690082
v 4.904054 9.146479 0.749272
v 4.203083 9.166283 1.233382
v 4.579259 9.394404 1.221852
v 4.131372 9.211131 0.961747
v 4.257027 9.166283 0.710472
v 4.626577 9.394404 0.763175
v 3.959064 9.472654 1.203120
v 4.349384 9.657187 1.193992
v 3.893781 9.526555 0.937102
v 4.011997 9.472654 0.690015
v 4.395815 9.657187 0.743917
v 3.793725 9.758695 1.181244
v 4.208877 9.844801 1.175572
v 3.744630 9.831538 0.921589
v 3.845700 9.758695 0.677425
v 4.254467 9.844801 0.733641
v 3.767893 10.048365 1.132137
v 4.093881 10.172030 1.125881
v 3.718854 10.097674 0.917706
v 3.810636 10.048365 0.717802
v 4.131374 10.172030 0.762442
v 3.730273 10.359200 1.128256
v 4.068163 10.445253 1.123228
v 3.687269 10.416241 0.914448
v 3.773016 10.359200 0.713921
v 4.105656 10.445253 0.759789
v 3.754813 10.666329 1.089832
v 4.043275 10.706848 1.086269
v 3.724445 10.719655 0.911788
v 3.790521 10.666329 0.743694
v 4.074597 10.706848 0.782650
v 3.867115 12.024947 1.479038
v 4.801695 11.665854 0.333938
v 3.088403 11.236760 -0.293087
v 2.444180 10.882468 1.313113
v 3.656500 10.766903 2.482661
v 4.937400 11.232932 1.750223
v 4.161747 10.068134 -0.367435
v 2.760653 9.657495 0.023483
v 2.748930 9.502030 1.523826
v 4.727232 9.917084 2.046621
v 5.481397 10.469838 0.942035
v 4.105674 9.470238 0.755940
v 8.880960 8.713173 1.908253
v 8.809975 8.850918 0.347589
v 10.088291 9.949786 1.216830
v 9.053246 10.227563 2.703401
v 7.536182 9.646291 2.530265
v 7.534721 8.894026 1.094862
v 8.588023 10.537744 0.033258
v 8.876463 11.351469 1.343539
v 7.799379 11.257716 2.411953
v 6.543557 10.025453 1.162524
v 7.242139 9.462312 -0.020272
v 7.297239 11.118126 0.639229
v -5.347598 10.853120 -0.583888
v -5.007620 11.131128 -1.272580
v -5.770710 11.537955 -1.035006
v -6.222026 10.874254 -0.616662
v -5.842605 10.191511 -0.789578
v -5.159486 10.424070 -1.174154
v -5.665743 11.173814 -1.849716
v -6.360682 11.113276 -1.480331
v -6.498764 10.450032 -1.207957
v -5.628005 10.047888 -1.557988
v -5.107711 10.527595 -1.823252
v -5.988778 10.530467 -1.912803
v -9.453675 9.762400 0.550473
v -9.680099 9.337858 -1.121857
v -8.056437 9.651469 -0.271656
v -7.802808 10.660368 0.868135
v -9.185126 11.554855 0.580086
v -10.171990 10.674287 -0.632406
v -8.313198 10.269205 -2.090092
v -7.145018 10.907047 -0.968165
v -7.573037 12.088851 -0.060313
v -9.610581 12.002924 -1.195091
v -10.035425 10.816697 -2.043784
v -8.348493 11.842247 -1.940003
v 3.102388 12.041617 1.299506
v 4.786674 13.189315 0.090699
v 2.411171 12.944381 -1.428936
v 0.670310 13.107400 0.648728
v 1.785295 14.006376 3.016941
v 4.165517 13.955153 2.340264
v 3.361283 15.371390 -0.954801
v 1.306262 15.370666 -0.904652
v 0.442141 15.652831 1.408449
v 3.191001 16.068996 3.016190
v 4.952102 15.485324 1.479959
v 2.539422 16.070461 0.863299
v 4.416748 14.136353 -2.877641
v 1.783024 15.069024 -3.788166
v 3.774232 17.740435 -3.788398
v 5.899696 16.532679 -0.740512
v 4.648797 14.127948 0.828336
v 2.029163 14.149180 -1.229754
v 0.960760 18.065929 -1.642216
v 3.231894 19.080465 -0.063716
v 4.540803 17.358202 2.440416
v 1.414890 14.485507 1.915379
v -0.064327 14.721781 -0.937153
v 0.947259 17.620390 1.790979
v -5.633937 16.064688 3.083260
v -6.899515 14.906921 1.479765
v -7.838479 15.007126 3.718636
v -5.953621 14.967998 5.396778
v -4.292135 14.414344 4.241997
v -5.014889 14.389606 1.929594
v -7.665007 12.776809 2.668210
v -7.271678 12.912629 4.851518
v -5.399050 12.847251 5.482108
v -4.467236 12.557181 2.722998
v -5.873859 12.856780 1.135564
v -6.095825 12.378193 3.380915
v -2.539652 16.703728 0.848071
v -0.317560 16.526438 0.425656
v -1.328067 18.890375 -0.478314
v -3.636120 18.013184 -1.147101
v -3.658295 15.496957 -1.223242
v -1.593101 14.874962 -0.356257
v 0.112890 17.124990 -2.194712
v -1.843209 18.220932 -2.979202
v -3.446236 16.842642 -3.234667
v -1.979596 14.297655 -2.391120
v -0.038991 14.614379 -1.455102
v -1.080772 15.851281 -3.489196
v -2.167601 20.588030 6.309088
v 1.700413 20.833271 3.880600
v -1.901945 21.827732 1.488099
v -5.598651 19.873882 3.170243
v -4.260867 16.323105 5.497090
v 0.032568 17.529318 5.940417
v 0.304899 19.126486 -0.609505
v -3.470273 19.156607 -1.107818
v -5.357040 16.245279 1.015610
v -1.014112 14.281734 3.505227
v 2.281536 16.537476 2.930933
v -1.124333 15.499449 -0.406507
v -0.650302 17.892452 5.134435
v -1.362974 16.189661 7.762118
v 2.118781 16.659872 6.879145
v 1.942312 16.607000 3.264989
v -0.712711 15.658503 2.379915
v -2.433292 15.460045 5.240866
v 0.709265 13.495803 7.268334
v 2.766564 13.778102 5.047509
v 1.654427 13.610659 2.370787
v -1.873513 13.064410 3.638293
v -2.513806 13.379061 6.537778
v 0.171851 13.078722 4.953322
v -2.222307 18.525715 4.672036
v -4.237778 17.155926 7.483698
v -1.984976 14.154383 5.558756
v -2.387951 15.788249 1.350402
v -4.577228 18.753624 1.248438
v -5.467760 19.171690 4.816732
v -6.253541 14.055563 5.927951
v -5.119532 12.991288 2.746692
v -5.808729 15.155252 0.032171
v -8.044761 18.279806 2.736643
v -7.570877 17.670685 6.053604
v -8.307548 14.960175 3.206530
v -4.034161 17.020697 -2.857262
v -2.138504 16.967857 -1.094707
v -3.382444 15.020249 -1.995652
v -6.217208 15.078579 -2.254776
v -6.384549 17.771940 -1.303336
v -3.823175 18.700521 -0.611977
v -3.211483 15.342246 1.243551
v -5.362989 14.819437 0.395545
v -7.364547 15.563051 0.151397
v -5.411517 18.662962 1.332675
v -3.053727 18.424595 1.463424
v -5.234485 16.338238 2.310040
v 4.869948 18.415941 2.772757
v 3.606760 18.164255 0.557446
v 3.445279 20.504505 1.865432
v 3.687633 19.848295 4.519759
v 3.563736 17.614729 4.658869
v 3.562104 16.843664 2.186785
v 1.543711 19.222229 1.028211
v 1.545334 20.311693 3.140784
v 1.678787 19.028311 5.035325
v 1.949796 16.556757 3.268189
v 2.096389 16.682152 0.870079
v 0.766499 18.164652 2.732052
v 1.064318 19.366016 -1.280323
v 0.145335 18.351477 -2.632121
v -0.608803 18.765730 -0.523259
v 1.054929 18.805706 0.885134
v 2.245694 17.899538 -0.408495
v 1.659858 17.748322 -2.349233
v -0.293561 16.638332 -1.585651
v -0.100456 16.920631 0.453571
v 1.450067 16.812601 0.929544
v 2.148237 16.179438 -1.669234
v 1.157108 16.495291 -2.992315
v 0.931850 16.225513 -1.004224
v 5.548513 12.955714 1.182159
v 7.097637 14.247008 2.887754
v 8.021210 13.933241 0.220937
v 5.443484 13.831623 -1.402607
v 3.612921 14.662868 0.129667
v 4.843286 14.919716 2.656166
v 7.718308 16.408249 1.502154
v 6.960886 16.080563 -0.951972
v 4.560530 16.079575 -1.503953
v 4.018807 16.858488 1.780905
v 5.832270 16.563385 3.496266
v 5.725309 16.811785 0.817628
v 4.157266 13.693110 4.526356
v 4.038838 13.922909 1.922712
v 6.171446 15.756143 3.372861
v 4.444690 16.219557 5.852896
v 1.913782 15.249824 5.564053
v 1.911343 13.994823 3.169382
v 3.668560 16.737028 1.398316
v 4.149762 18.094559 3.584248
v 2.352872 17.938154 5.366675
v 0.257793 15.882378 3.282262
v 1.423232 14.942893 1.309013
v 1.515155 17.705276 2.409253
vn -0.0033 0.0004 -1.0000
vn 0.3133 0.3503 -0.8827
vn 0.8820 0.4588 -0.1071
vn 0.8808 0.4735 -0.0039
vn 0.3288 0.4499 0.8304
vn 0.2346 0.3461 0.9084
vn -0.6444 0.4763 0.5983
vn -0.9273 0.0877 0.3638
vn 0.7711 0.6027 0.2053
vn -0.8566 0.5154 0.0243
vn -0.2512 0.5995 -0.7599
vn -0.0026 -1.0000 -0.0003
vn 0.0717 0.5142 -0.8547
vn -0.7929 0.5325 0.2962
vn -0.8994 0.1652 0.4048
vn -0.8719 0.3907 0.2952
vn 0.4157 0.3882 0.8225
vn 0.0907 0.5050 0.8583
vn 0.8704 0.4217 -0.2542
vn 0.7671 0.5872 0.2585
vn 0.1260 0.6302 -0.7661
vn -0.0410 0.4646 -0.8846
vn 0.7802 0.5484 -0.3010
vn -0.0431 0.6030 -0.7966
vn 0.7412 0.6074 -0.2859
vn 0.4315 0.6075 -0.6669
vn -0.5066 0.5955 -0.6235
vn -0.7819 0.5877 -0.2081
vn -0.7582 0.5827 0.2925
vn -0.4415 0.5826 0.6824
vn 0.0437 0.5874 0.8081
vn 0.5068 0.5951 0.6237
vn -0.6223 0.1619 -0.7659
vn -0.5431 0.5083 -0.6684
vn -0.4729 0.4921 0.7309
vn 0.8116 0.5427 0.2160
vn -0.0459 0.5277 -0.8482
vn -0.8155 0.4857 0.3146
vn 0.5357 0.5277 0.6593
vn 0.4563 0.5427 -0.7052
vn -0.8413 0.4921 -0.2239
vn 0.0465 0.5083 0.8599
vn -0.4940 0.4162 0.7634
vn -0.5418 0.0723 0.8374
vn 0.9066 0.3462 0.2413
vn -0.0520 0.2673 -0.9622
vn -0.9323 0.0374 0.3596
vn 0.6077 0.2673 0.7479
vn 0.5097 0.3462 -0.7877
vn -0.9638 0.0723 -0.2566
vn 0.0533 0.1619 0.9854
vn 0.8651 0.3746 -0.3337
vn 0.9594 -0.1194 0.2554
vn 0.8216 0.5264 0.2187
vn -0.0469 0.4947 -0.8678
vn -0.8544 0.4017 0.3296
vn 0.5480 0.4947 0.6745
vn 0.4619 0.5264 -0.7138
vn -0.8787 0.4162 -0.2339
vn 0.0481 0.4526 0.8904
vn 0.7865 0.5379 -0.3034
vn -0.5623 0.4526 -0.6921
vn -0.0540 -0.0000 -0.9985
vn -0.0537 0.0992 -0.9936
vn -0.7731 0.5597 0.2982
vn 0.6275 0.0992 0.7723
vn 0.5394 -0.1194 -0.8336
vn -0.8352 0.5034 -0.2214
vn 0.0506 0.3482 0.9360
vn 0.9141 -0.2002 -0.3526
vn -0.5911 0.3482 -0.7275
vn -0.4676 0.5091 0.7226
vn 0.6262 0.1184 0.7707
vn -0.9330 -0.0000 0.3599
vn 0.6306 -0.0000 0.7761
vn 0.5433 -0.0000 -0.8396
vn -0.9678 0.0124 -0.2515
vn 0.0540 -0.0000 0.9985
vn 0.9330 -0.0000 -0.3599
vn -0.6306 -0.0000 -0.7761
vn -0.5433 -0.0000 0.8396
vn 0.9663 -0.0000 0.2572
vn 0.5351 0.1729 -0.8269
vn 0.5432 0.0153 -0.8395
vn -0.9117 0.3315 -0.2427
vn 0.0524 0.2403 0.9693
vn 0.9327 -0.0243 -0.3598
vn -0.6121 0.2403 -0.7534
vn -0.5125 0.3315 0.7921
vn 0.9662 0.0153 0.2572
vn -0.0536 0.1184 -0.9915
vn -0.8689 0.3642 0.3352
vn -0.9640 -0.0695 -0.2566
vn -0.9518 0.1729 -0.2534
vn 0.0532 0.1729 0.9835
vn 0.9189 0.1729 -0.3545
vn -0.6211 0.1729 -0.7644
vn -0.5351 0.1729 0.8269
vn 0.9518 0.1729 0.2534
vn -0.0532 0.1729 -0.9835
vn -0.9189 0.1729 0.3545
vn 0.6211 0.1729 0.7644
vn 0.0539 -0.0320 0.9980
vn 0.0539 0.0490 0.9973
vn 0.8779 0.3385 -0.3386
vn -0.6298 0.0490 -0.7752
vn -0.5419 -0.0695 0.8375
vn 0.9218 0.3000 0.2454
vn -0.0530 0.1921 -0.9799
vn -0.9269 -0.1142 0.3575
vn 0.6189 0.1921 0.7617
vn 0.5182 0.3000 -0.8009
vn 0.4934 0.1571 -0.8555
vn 0.8882 0.3061 -0.3426
vn -0.6303 -0.0320 -0.7757
vn -0.5358 -0.1647 0.8281
vn 0.9330 0.2606 0.2483
vn -0.0535 0.1337 -0.9896
vn -0.9115 -0.2136 0.3516
vn 0.6249 0.1337 0.7691
vn 0.5245 0.2606 -0.8106
vn -0.9531 -0.1647 -0.2537
vn 0.2045 0.8666 -0.4552
vn -0.9102 -0.3458 -0.2278
vn 0.3359 0.4131 0.8465
vn 0.9286 0.0967 -0.3582
vn -0.4458 0.6863 -0.5747
vn -0.1948 -0.8008 0.5664
vn 0.9401 0.1571 0.3026
vn -0.2740 0.5948 -0.7557
vn -0.3804 -0.9049 0.1911
vn 0.3950 0.5166 0.7597
vn 0.8838 -0.0122 -0.4677
vn -0.7887 -0.5488 -0.2771
vn -0.4929 0.5541 -0.6708
vn -0.1684 -0.9802 0.1040
vn 0.3792 0.5541 0.7411
vn -0.8144 -0.5086 -0.2793
vn -0.1148 -0.5086 0.8533
vn -0.1645 -0.9706 0.1755
vn 0.2031 -0.7072 0.6772
vn -0.5690 0.2952 -0.7675
vn -0.3423 -0.8973 0.2788
vn 0.5372 0.4616 0.7059
vn -0.0681 0.7243 -0.6861
vn 0.1900 -0.3631 0.9122
vn 0.7263 0.3321 0.6019
vn -0.0041 -0.0405 0.9992
vn -0.6925 -0.6602 -0.2910
vn 0.3352 -0.6602 0.6722
vn -0.7976 0.3462 -0.4940
vn 0.8449 0.2423 0.4769
vn -0.6209 0.2373 -0.7471
vn -0.3123 -0.8649 0.3931
vn 0.5528 0.3814 0.7409
vn -0.1816 0.8950 -0.4074
vn -0.7336 -0.6282 -0.2592
vn -0.7860 0.2711 -0.5555
vn -0.1760 0.7956 -0.5797
vn -0.8328 -0.5440 -0.1029
vn 0.4241 -0.5439 0.7240
vn -0.7723 0.2423 -0.5872
vn -0.2964 -0.8422 0.4505
vn -0.1051 0.6067 -0.7880
vn -0.4143 -0.6573 0.6296
vn 0.8213 0.2711 0.5020
vn -0.1580 0.7274 -0.6678
vn -0.9307 -0.3657 0.0116
vn 0.3576 -0.3657 0.8593
vn -0.6749 0.1566 -0.7211
vn -0.9118 -0.4094 -0.0327
vn 0.3908 -0.4094 0.8244
vn -0.7133 0.2021 -0.6711
vn -0.4069 -0.6724 0.6184
vn 0.8986 0.2021 0.3895
vn 0.0041 0.4132 -0.9106
vn -0.4506 -0.5726 0.6849
vn 0.9293 0.1566 0.3344
vn -0.0193 0.4788 -0.8777
vn -0.9365 -0.3506 -0.0114
vn 0.3811 -0.3506 0.8555
vn -0.6582 0.1307 -0.7414
vn -0.9854 -0.1656 0.0391
vn 0.3541 -0.1656 0.9204
vn -0.6943 0.1934 -0.6932
vn -0.5153 -0.3479 0.7832
vn 0.9114 0.1934 0.3632
vn 0.1274 0.2041 -0.9706
vn -0.5326 -0.2470 0.8095
vn 0.9414 0.1307 0.3111
vn 0.0742 0.3257 -0.9425
vn -0.9922 -0.1203 0.0312
vn 0.3641 -0.1203 0.9236
vn -0.6350 0.0972 -0.7664
vn -0.9996 0.0050 0.0294
vn 0.3686 0.0050 0.9296
vn -0.6515 0.1400 -0.7456
vn -0.5484 -0.0685 0.8334
vn 0.9426 0.1400 0.3032
vn -0.9960 0.0889 0.0042
vn -0.5471 0.0967 0.8315
vn 0.9551 0.0972 0.2798
vn 0.1334 0.0642 -0.9890
vn -0.9946 0.1025 0.0142
vn 0.3806 0.1025 0.9190
vn 0.3903 0.0889 0.9164
vn -0.6260 0.0674 -0.7769
vn -0.5473 0.0927 0.8318
vn 0.9612 0.0674 0.2675
vn 0.0797 -0.0122 -0.9967
vn 0.8554 0.0642 -0.5139
vn 0.8362 0.3257 -0.4412
vn 0.8410 0.2041 -0.5011
vn 0.8137 0.4788 -0.3296
vn 0.8347 0.4132 -0.3642
vn 0.6758 0.7274 -0.1192
vn 0.7652 0.6067 -0.2153
vn 0.6020 0.7956 -0.0677
vn 0.2768 0.8911 0.3596
vn -0.6759 -0.0405 0.7358
vn 0.3980 0.9135 0.0838
vn 0.4986 0.8666 0.0209
vn 0.7635 -0.5747 -0.2945
vn -0.4108 0.5182 -0.7501
vn -0.5130 0.6638 0.5442
vn 0.9093 0.0931 0.4055
vn -0.6532 0.7563 0.0363
vn 0.4014 0.0931 -0.9112
vn 0.2730 0.5795 0.7679
vn -0.4922 0.6807 0.5426
vn 0.7159 -0.5099 0.4771
vn 0.2100 -0.5099 -0.8342
vn -0.7291 0.6807 -0.0715
vn 0.2312 0.1347 0.9635
vn 0.6467 -0.7208 -0.2495
vn -0.4758 0.1347 -0.8692
vn 0.2214 0.1212 0.9676
vn 0.7584 -0.5825 -0.2925
vn -0.4857 0.1212 -0.8657
vn -0.5134 0.6555 0.5538
vn 0.7734 -0.4077 0.4854
vn 0.2470 -0.4077 -0.8791
vn -0.7523 0.6555 -0.0656
vn 0.2864 -0.2844 -0.9149
vn -0.8521 0.5215 -0.0434
vn 0.2053 0.0909 0.9745
vn 0.8507 -0.4107 -0.3281
vn -0.5023 0.0909 -0.8599
vn -0.6022 0.5215 0.6044
vn 0.8267 -0.2844 0.4855
vn -0.6759 0.3434 0.6521
vn 0.8657 0.0247 0.5000
vn 0.3056 0.0247 -0.9518
vn -0.9387 0.3434 -0.0293
vn 0.2118 0.2031 0.9560
vn 0.9302 -0.0778 -0.3588
vn -0.4851 0.2031 -0.8505
vn -0.9332 0.3562 -0.0474
vn 0.2104 0.2081 0.9552
vn 0.9291 -0.0907 -0.3584
vn -0.4856 0.2081 -0.8491
vn -0.6596 0.3562 0.6618
vn 0.8619 0.0192 0.5067
vn 0.2983 0.0192 -0.9543
vn 0.8557 0.0803 0.5112
vn 0.2907 0.0803 -0.9534
vn -0.9909 0.1292 -0.0387
vn 0.1973 0.1174 0.9733
vn 0.9316 0.0551 -0.3594
vn -0.5074 0.1174 -0.8537
vn -0.7082 0.1292 0.6941
vn -0.5079 0.1575 -0.8469
vn -0.6881 0.1679 0.7059
vn 0.8477 0.1175 0.5172
vn 0.2808 0.1175 -0.9526
vn -0.9839 0.1679 -0.0609
vn 0.1924 0.1575 0.9686
vn 0.9292 0.0895 -0.3585
vn -0.9961 0.0556 -0.0687
vn 0.1847 0.0876 0.9789
vn 0.9276 0.1078 -0.3578
vn -0.5205 0.0876 -0.8494
vn -0.6919 0.0556 0.7199
vn 0.8449 0.1055 0.5244
vn 0.2738 0.1055 -0.9560
vn -0.6745 0.0829 0.7336
vn 0.8371 0.1396 0.5290
vn 0.2650 0.1396 -0.9541
vn -0.9924 0.0829 -0.0906
vn 0.1834 0.1208 0.9756
vn 0.9238 0.1403 -0.3563
vn -0.5193 0.1208 -0.8460
vn 0.9240 0.1382 -0.3565
vn -0.5221 0.1151 -0.8451
vn -0.6598 0.0800 0.7472
vn 0.8335 0.1359 0.5355
vn 0.2580 0.1359 -0.9565
vn -0.9906 0.0800 -0.1106
vn 0.1806 0.1151 0.9768
vn -0.9907 -0.0063 -0.1362
vn 0.8193 -0.0063 0.5733
vn 0.8349 0.0218 -0.5500
vn -0.2388 0.0218 -0.9708
vn -0.2479 0.2492 -0.9362
vn 0.8221 0.1474 0.5500
vn 0.8180 0.2492 -0.5184
vn -0.6863 -0.0345 0.7265
vn -0.9768 0.1474 -0.1552
vn 0.0098 -0.0345 0.9994
vn -0.6856 -0.1230 0.7175
vn -0.9875 0.0657 -0.1432
vn 0.0154 -0.1230 0.9923
vn -0.2593 0.3087 -0.9151
vn 0.8218 0.0657 0.5660
vn 0.8121 0.3087 -0.4951
vn -0.2770 0.4382 -0.8551
vn 0.8130 0.1017 0.5733
vn 0.7843 0.4382 -0.4391
vn -0.6683 -0.2687 0.6936
vn -0.9860 0.1017 -0.1319
vn 0.0189 -0.2687 0.9630
vn -0.6309 -0.4706 0.6168
vn -0.9911 0.0129 -0.1323
vn 0.0437 -0.4706 0.8813
vn -0.3115 0.5630 -0.7655
vn 0.8170 0.0129 0.5765
vn 0.7487 0.5630 -0.3499
vn -0.3308 0.6030 -0.7259
vn 0.8249 -0.0619 0.5619
vn 0.7360 0.6030 -0.3077
vn -0.5929 -0.6061 0.5301
vn -0.9870 -0.0619 -0.1483
vn 0.0747 -0.6061 0.7918
vn -0.5490 -0.7110 0.4394
vn -0.9608 -0.1846 -0.2067
vn 0.1041 -0.7110 0.6954
vn -0.3421 0.6207 -0.7055
vn 0.8453 -0.1846 0.5013
vn 0.7304 0.6207 -0.2851
vn -0.3750 0.7091 -0.5971
vn 0.8287 -0.0857 0.5532
vn 0.6809 0.7091 -0.1832
vn -0.5708 -0.6715 0.4724
vn -0.9838 -0.0857 -0.1573
vn 0.0977 -0.6715 0.7345
vn -0.9647 0.0129 -0.2629
vn -0.3711 -0.3457 0.8619
vn -0.4274 -0.8550 0.2937
vn -0.2697 -0.8524 -0.4480
vn 0.0166 -0.3372 -0.9413
vn 0.2605 0.3426 -0.9027
vn 0.3114 0.8923 -0.3268
vn 0.4168 0.8578 -0.3008
vn 0.1531 0.8911 0.4273
vn -0.1242 0.3443 0.9306
vn 0.3440 0.3523 -0.8704
vn -0.0080 -0.3324 -0.9431
vn 0.2552 0.8578 0.4462
vn -0.5023 -0.8186 0.2786
vn 0.3082 0.3649 -0.8786
vn -0.0824 0.3649 0.9274
vn -0.3970 -0.3324 0.8555
vn -0.3423 -0.8186 -0.4612
vn -0.0426 0.9260 0.3750
vn -0.3898 -0.7933 -0.4678
vn -0.4118 -0.3265 0.8508
vn -0.0464 0.3523 0.9347
vn 0.4856 0.8270 -0.2832
vn -0.0234 -0.3265 -0.9449
vn -0.5482 -0.7933 0.2649
vn 0.3252 0.8270 0.4586
vn -0.1033 0.9064 -0.4095
vn 0.1219 0.4016 -0.9077
vn -0.3117 -0.8409 -0.4423
vn -0.4347 -0.3428 0.8328
vn -0.2641 0.4016 0.8769
vn 0.1162 0.9260 -0.3591
vn -0.0517 -0.3428 -0.9380
vn -0.4666 -0.8409 0.2740
vn -0.2717 -0.3838 0.8825
vn -0.0120 -0.3846 -0.9230
vn -0.2956 -0.9027 0.3125
vn -0.2633 0.9064 0.3302
vn 0.0041 0.3678 -0.9299
vn -0.1401 -0.9027 -0.4068
vn -0.3923 -0.3846 0.8355
vn -0.3805 0.3678 0.8485
vn 0.4404 0.7669 0.4667
vn -0.3798 0.3784 0.8441
vn -0.2210 0.8811 -0.4181
vn 0.1172 -0.3838 -0.9159
vn -0.1013 -0.9247 0.3670
vn -0.3740 0.8811 0.2894
vn 0.0030 0.3784 -0.9257
vn 0.0594 -0.9247 -0.3760
vn -0.6190 -0.7440 0.2517
vn 0.3971 0.3391 -0.8528
vn -0.3348 -0.8255 -0.4543
vn -0.3785 -0.3458 0.8586
vn 0.0091 0.3391 0.9407
vn 0.5939 0.7669 -0.2430
vn 0.0101 -0.3458 -0.9382
vn -0.4926 -0.8255 0.2753
vn 0.0834 0.2552 0.9633
vn 0.4519 0.7499 0.4832
vn 0.4192 0.3136 -0.8520
vn -0.4597 -0.7440 -0.4850
vn -0.4204 -0.3126 0.8518
vn 0.0296 0.3136 0.9491
vn 0.6111 0.7499 -0.2533
vn -0.0309 -0.3126 -0.9494
vn -0.7232 -0.4273 -0.5426
vn 0.7538 0.6161 -0.2285
vn -0.0834 -0.2552 -0.9633
vn -0.7538 -0.6161 0.2285
vn 0.5920 0.6161 0.5196
vn 0.4740 0.2552 -0.8427
vn -0.5920 -0.6161 -0.5196
vn -0.4740 -0.2552 0.8427
vn 0.8189 -0.2616 0.5109
vn -0.5339 -0.1747 0.8273
vn 0.1496 0.1663 0.9747
vn 0.9083 0.3743 -0.1868
vn -0.1443 -0.1747 -0.9740
vn -0.8828 -0.4273 0.1952
vn 0.7499 0.3743 0.5455
vn 0.5390 0.1663 -0.8257
vn -0.7284 0.6668 -0.1575
vn 0.5131 -0.2098 -0.8323
vn -0.7082 -0.4613 -0.5345
vn -0.4853 -0.2295 0.8437
vn 0.1233 -0.2098 0.9699
vn 0.9568 -0.2616 -0.1268
vn -0.0933 -0.2295 -0.9688
vn -0.8658 -0.4613 0.1941
vn 0.6175 0.7751 0.1336
vn -0.7525 0.6382 -0.1627
vn 0.9448 -0.2945 -0.1437
vn 0.8009 -0.2945 0.5213
vn 0.6089 0.0510 -0.7916
vn 0.2274 0.0510 0.9725
vn 0.5401 0.0332 -0.8409
vn 0.8118 -0.2942 0.5045
vn 0.5925 0.0706 -0.8025
vn 0.2079 0.0706 0.9756
vn 0.9477 -0.2942 -0.1239
vn 0.9548 -0.2845 -0.0859
vn 0.1443 0.0332 0.9890
vn 0.9509 -0.2953 -0.0925
vn -0.8096 0.5603 -0.1751
vn 0.8277 -0.2953 0.4772
vn 0.8560 -0.1136 0.5043
vn -0.8770 0.4415 -0.1897
vn 0.8340 -0.2845 0.4728
vn 0.5143 -0.0149 -0.8575
vn 0.1140 -0.0149 0.9934
vn 0.1126 0.0316 0.9931
vn 0.5330 0.0604 -0.8440
vn 0.1366 0.0604 0.9888
vn 0.9879 -0.1136 -0.1055
vn -0.9317 0.3022 -0.2015
vn -0.9766 0.0395 -0.2112
vn 0.9938 -0.0314 -0.1066
vn -0.9709 0.1150 -0.2100
vn 0.8609 -0.0314 0.5077
vn 0.5130 0.0316 -0.8578
vn 0.2217 0.9739 0.0480
vn 0.8500 0.0549 0.5239
vn 0.5221 0.0685 -0.8501
vn 0.1242 0.0685 0.9899
vn 0.9905 0.0549 -0.1258
vn 0.6134 0.7786 0.1327
vn -0.1683 -0.1366 -0.9762
vn -0.8253 -0.5339 0.1838
vn -0.6756 -0.5339 -0.5084
vn -0.5567 -0.1366 0.8194
vn -0.0715 -0.2492 -0.9658
vn -0.6778 -0.5300 -0.5096
vn -0.5600 -0.1325 0.8178
vn -0.1720 -0.1325 -0.9761
vn -0.8278 -0.5300 0.1839
vn 0.4433 0.8913 0.0959
vn -0.7598 -0.6199 0.1958
vn 0.7072 0.6902 0.1530
vn -0.6110 -0.6199 -0.4923
vn -0.4642 -0.2492 0.8499
vn 0.3742 0.9238 0.0809
vn -0.5398 -0.6840 -0.4906
vn -0.5098 -0.2408 0.8259
vn -0.1229 -0.2408 -0.9628
vn -0.6943 -0.6840 0.2237
vn -0.0171 -0.3116 -0.9501
vn -0.2820 -0.8683 -0.4081
vn -0.3346 -0.3370 0.8800
vn 0.0589 -0.3370 -0.9396
vn -0.4254 -0.8683 0.2551
vn 0.2588 0.9643 0.0560
vn -0.4944 -0.8308 0.2557
vn 0.3285 0.9418 0.0710
vn -0.3446 -0.8308 -0.4372
vn -0.4082 -0.3116 0.8581
vn -0.9131 0.3566 -0.1975
vn -0.3252 -0.8444 -0.4258
vn -0.4127 -0.3074 0.8574
vn -0.0215 -0.3074 -0.9513
vn -0.4721 -0.8444 0.2533
vn -0.2463 0.3613 0.8993
vn -0.5302 0.7814 0.3290
vn -0.4519 0.7814 -0.4304
vn -0.0575 0.3613 -0.9307
vn 0.4193 -0.2299 -0.8782
vn 0.6991 -0.6451 -0.3084
vn -0.1230 0.3174 -0.9403
vn 0.6214 -0.6451 0.4446
vn 0.2312 -0.2299 0.9454
vn -0.7977 -0.5974 -0.0823
vn -0.6388 0.6245 -0.4494
vn 0.6341 -0.6307 0.4473
vn -0.6307 0.7076 0.3187
vn 0.4017 -0.2386 -0.8841
vn 0.2128 -0.2386 0.9475
vn -0.3124 0.3174 0.8954
vn -0.5524 0.7076 -0.4407
vn 0.7121 -0.6307 -0.3084
vn -0.7556 0.5790 0.3064
vn -0.3600 0.2780 0.8906
vn 0.2248 -0.2140 0.9506
vn 0.7701 -0.5609 -0.3038
vn -0.1706 0.2780 -0.9453
vn -0.7171 0.6245 0.3096
vn 0.6919 -0.5609 0.4547
vn 0.4141 -0.2140 -0.8847
vn 0.1194 0.0224 0.9926
vn 0.7311 -0.5042 0.4597
vn 0.4296 -0.1869 -0.8835
vn -0.6771 0.5790 -0.4542
vn -0.3756 0.2617 0.8890
vn 0.2402 -0.1869 0.9526
vn 0.8095 -0.5042 -0.3008
vn -0.1862 0.2617 -0.9470
vn 0.0124 0.1314 0.9912
vn 0.8812 -0.3733 -0.2900
vn -0.0869 0.1838 -0.9791
vn -0.8698 0.3976 0.2920
vn 0.8034 -0.3733 0.4638
vn 0.3516 -0.0152 -0.9360
vn -0.7919 0.3976 -0.4634
vn -0.2289 0.1842 0.9559
vn -0.7202 -0.6394 -0.2693
vn -0.0690 0.1117 0.9914
vn -0.1850 0.9826 -0.0191
vn 0.5194 -0.8076 -0.2794
vn 0.4541 -0.8057 0.3805
vn 0.2427 0.0585 -0.9684
vn -0.0872 0.9961 -0.0090
vn 0.2155 -0.9417 -0.2586
vn -0.0914 0.9958 -0.0094
vn 0.1589 -0.9414 0.2974
vn 0.1469 0.0352 -0.9885
vn -0.1031 0.1295 0.9862
vn 0.1277 -0.9671 0.2200
vn 0.0989 0.0325 -0.9946
vn -0.1144 0.1116 0.9872
vn 0.1699 -0.9671 -0.1893
vn -0.1654 0.0888 0.9822
vn 0.5859 -0.7857 -0.1985
vn -0.4416 0.8960 -0.0456
vn 0.5337 -0.7851 0.3143
vn 0.1412 0.0632 -0.9880
vn 0.6911 0.7192 0.0713
vn 0.7282 -0.6544 -0.2035
vn -0.6997 0.7108 -0.0722
vn 0.6716 -0.6542 0.3480
vn 0.0946 0.0349 -0.9949
vn 0.0630 0.1156 -0.9913
vn -0.0147 0.0732 0.9972
vn 0.7661 0.6378 0.0790
vn 0.1280 0.0213 -0.9915
vn -0.7600 -0.6394 0.1166
vn -0.7560 -0.6049 -0.2501
vn -0.8304 -0.5376 0.1466
vn 0.6666 0.7422 0.0688
vn -0.7823 -0.5389 -0.3125
vn -0.0786 0.1672 0.9828
vn 0.1261 0.0341 -0.9914
vn -0.0193 0.0857 0.9961
vn 0.1223 0.0330 -0.9919
vn -0.7912 -0.6048 0.0905
vn 0.7464 0.6611 0.0770
vn 0.0973 0.1355 -0.9860
vn -0.8821 -0.4643 0.0800
vn 0.7939 0.6026 0.0819
vn -0.8471 -0.4644 -0.2583
vn -0.0084 0.0794 0.9968
vn 0.9903 0.0942 0.1022
vn -0.9802 -0.0735 0.1840
vn 0.9344 0.3430 0.0964
vn -0.9221 -0.0760 -0.3795
vn -0.0271 0.1520 0.9880
vn 0.1166 0.0943 -0.9887
vn -0.9192 -0.1054 -0.3795
vn 0.0130 0.0126 0.9998
vn 0.1361 0.0037 -0.9907
vn -0.9773 -0.1054 0.1839
vn -0.0385 0.9992 -0.0040
vn -0.9705 0.1125 0.2134
vn 0.9888 0.1085 0.1020
vn -0.9092 0.0994 -0.4042
vn -0.0130 0.1314 0.9912
vn -0.0966 0.9245 -0.3687
vn 0.5510 0.8114 0.1952
vn -0.6189 0.7818 -0.0758
vn -0.5367 0.5793 0.6135
vn 0.2335 0.5822 0.7788
vn 0.8491 0.5224 0.0783
vn 0.2612 0.2984 -0.9180
vn -0.9301 0.1237 -0.3458
vn -0.6958 -0.0442 0.7169
vn 0.4578 0.1252 0.8802
vn 0.6988 0.0338 -0.7146
vn -0.2259 -0.1462 -0.9631
vn -0.9750 -0.2199 -0.0304
vn -0.1024 -0.5532 0.8267
vn 0.8271 -0.0055 0.5620
vn 0.5798 -0.7309 -0.3601
vn 0.1287 -0.8781 -0.4609
vn -0.0817 -0.9913 -0.1034
vn 0.1294 -0.9546 0.2682
vn 0.5881 -0.8088 -0.0032
vn 0.6853 -0.7221 -0.0949
vn -0.0827 -0.9930 -0.0839
vn 0.7225 -0.3840 0.5748
vn 0.0800 -0.4705 0.8788
vn -0.3711 -0.8223 0.4313
vn -0.2555 -0.8869 -0.3849
vn 0.6010 -0.0693 -0.7962
vn 0.7142 0.5823 0.3884
vn -0.1493 0.0966 0.9841
vn -0.6995 -0.6327 0.3323
vn 0.1661 -0.1595 -0.9731
vn 0.6298 0.5901 -0.5051
vn 0.4622 0.7121 0.5285
vn -0.7742 0.1712 0.6093
vn -0.7494 -0.6485 -0.1339
vn -0.2561 0.3650 -0.8951
vn 0.1191 0.8315 -0.5426
vn -0.1278 0.9909 -0.0418
vn -0.7712 0.6134 0.1701
vn -0.7739 0.2564 -0.5791
vn 0.5217 0.6701 0.5280
vn 0.9091 -0.1407 0.3920
vn -0.0184 0.5421 0.8401
vn -0.0425 -0.2674 0.9626
vn 0.5392 -0.5902 0.6008
vn 0.9780 -0.2037 0.0455
vn 0.3567 0.8692 -0.3425
vn -0.6944 0.6571 0.2933
vn -0.5975 -0.4924 0.6329
vn 0.4483 -0.8477 0.2836
vn 0.5937 0.4864 -0.6410
vn -0.2985 0.8564 -0.4212
vn -0.9300 0.2876 0.2289
vn -0.3986 -0.9152 0.0597
vn 0.6576 -0.7504 -0.0672
vn 0.1012 0.0467 -0.9938
vn -0.4667 0.3154 -0.8263
vn -0.8038 -0.0750 -0.5901
vn -0.5177 -0.7232 -0.4571
vn 0.0827 -0.5495 -0.8314
vn 0.0628 -0.9693 0.2376
vn -0.8854 -0.4077 0.2234
vn 0.2918 -0.7475 0.5967
vn -0.1958 0.0131 0.9806
vn -0.8089 0.1117 0.5773
vn -0.9451 -0.3032 -0.1220
vn 0.3490 -0.8712 -0.3452
vn 0.8440 -0.4808 0.2377
vn 0.1613 0.5195 0.8391
vn -0.8180 0.4799 0.3172
vn -0.1974 -0.5523 -0.8099
vn 0.6726 -0.6665 -0.3214
vn 0.9357 0.0738 0.3451
vn -0.1978 0.9381 0.2842
vn -0.9276 0.3698 -0.0525
vn 0.0035 0.0951 -0.9955
vn 0.6654 0.0857 -0.7415
vn 0.7388 0.5579 -0.3780
vn 0.0396 0.9885 -0.1460
vn -0.3364 0.6247 -0.7047
vn -0.3266 0.8695 0.3705
vn -0.6940 0.6011 -0.3963
vn 0.3430 0.9143 0.2156
vn 0.4564 0.7391 -0.4954
vn -0.2161 0.5564 -0.8023
vn -0.9002 0.2711 -0.3409
vn -0.5418 0.0482 0.8391
vn 0.7573 0.2113 0.6179
vn 0.8477 0.2200 -0.4826
vn -0.2654 0.1805 -0.9471
vn -0.8011 -0.2665 0.5359
vn 0.0240 -0.2007 0.9794
vn 0.9357 -0.0212 0.3521
vn 0.5119 -0.3492 -0.7849
vn -0.6691 -0.0719 -0.7397
vn -0.2844 -0.9309 0.2294
vn 0.0092 -0.9319 0.3625
vn 0.2424 -0.9480 0.2062
vn 0.1811 -0.9819 -0.0555
vn -0.2533 -0.9644 0.0760
vn 0.2588 -0.1930 -0.9464
vn -0.2198 -0.9246 -0.3113
vn 0.8206 0.0019 -0.5715
vn 0.8705 -0.4891 -0.0556
vn -0.0067 -1.0000 -0.0019
vn -0.2904 -0.9090 -0.2989
vn -0.5283 0.3937 -0.7523
vn 0.6582 0.7338 -0.1682
vn 0.8860 -0.1830 0.4260
vn -0.0793 -0.9927 0.0907
vn -0.8382 0.1462 -0.5253
vn -0.1644 0.9203 -0.3550
vn 0.7013 0.7032 0.1171
vn 0.2455 -0.4263 0.8706
vn -0.2565 -0.9651 0.0531
vn -0.9534 0.2997 0.0351
vn -0.4691 0.8760 0.1118
vn -0.0460 0.8117 0.5823
vn -0.1769 0.0127 0.9841
vn -0.8858 -0.1143 0.4499
vn -0.4749 0.8475 -0.2371
vn 0.3388 0.6154 -0.7117
vn -0.3124 0.8744 0.3713
vn 0.5363 0.7316 0.4209
vn 0.8308 0.4895 -0.2649
vn 0.2989 0.3015 -0.9054
vn -0.9146 0.1119 -0.3886
vn -0.6461 0.2204 0.7308
vn 0.6021 0.1887 0.7758
vn 0.9427 0.1535 -0.2963
vn -0.6333 -0.1909 -0.7500
vn -0.9693 -0.1624 0.1847
vn -0.3202 -0.0457 0.9462
vn 0.8740 -0.3543 0.3324
vn 0.7403 -0.0684 -0.6688
vn -0.1451 -0.9647 -0.2200
vn -0.2920 -0.9499 0.1117
vn -0.1190 -0.9599 0.2537
vn 0.1715 -0.9721 0.1601
vn 0.0242 -0.9782 -0.2061
vn 0.2017 0.4239 0.8830
vn 0.1229 -0.5007 0.8569
vn -0.4273 0.6301 0.6484
vn -0.8782 -0.0067 0.4782
vn -0.4530 -0.6419 0.6186
vn 0.3813 -0.6194 0.6862
vn 0.8541 0.4588 0.2451
vn -0.3008 0.9349 -0.1883
vn -0.9952 0.0117 -0.0971
vn -0.3937 -0.8620 0.3193
vn 0.9872 -0.0128 0.1592
vn 0.5575 0.7661 -0.3199
vn -0.5406 0.7119 -0.4483
vn -0.7045 -0.5533 -0.4444
vn 0.0280 -0.9630 0.2679
vn 0.8128 -0.2093 -0.5436
vn 0.5060 0.3340 -0.7952
vn -0.0197 0.2043 -0.9787
vn -0.2772 -0.4424 -0.8529
vn 0.4077 -0.6725 -0.6177
vn 0.0978 0.9625 0.2529
vn 0.5013 0.2612 0.8249
vn -0.3802 0.9006 0.2106
vn -0.6836 0.2020 0.7013
vn -0.0569 -0.1597 0.9855
vn 0.7967 -0.0257 0.6038
vn 0.4980 0.7478 -0.4390
vn -0.5641 0.7215 -0.4016
vn -0.9502 -0.2034 0.2360
vn 0.0924 -0.6162 0.7821
vn 0.9106 0.2028 -0.3601
vn 0.1033 0.6613 -0.7429
vn -0.8587 0.2182 -0.4638
vn -0.4694 -0.8734 0.1300
vn 0.5227 -0.6128 0.5926
vn 0.7115 -0.3155 -0.6279
vn 0.1293 -0.1061 -0.9859
vn -0.3543 -0.3902 -0.8498
vn -0.2572 -0.9247 -0.2806
vn 0.5118 -0.8161 -0.2685
vn 0.0263 0.8356 0.5486
vn -0.7918 0.5877 0.1661
vn 0.4242 0.9049 -0.0340
vn -0.0679 0.7756 -0.6275
vn -0.7438 0.5273 -0.4108
vn -0.9172 0.2357 0.3212
vn 0.2445 0.0103 0.9696
vn 0.9670 0.2497 -0.0509
vn 0.2208 0.2594 -0.9402
vn -0.8530 0.1375 -0.5035
vn -0.1982 -0.3221 0.9257
vn 0.7266 -0.2447 0.6420
vn 0.9226 0.0262 -0.3850
vn -0.2770 -0.3162 -0.9073
vn -0.9745 -0.0903 -0.2054
vn -0.0048 -0.9839 0.1784
vn 0.2547 -0.9603 0.1139
vn 0.2616 -0.9640 -0.0484
vn 0.1002 -0.9843 -0.1452
vn -0.0546 -0.9939 0.0958
vn 0.7604 0.1685 0.6272
vn 0.1877 0.8233 0.5357
vn 0.9960 0.0377 -0.0807
vn 0.7212 0.5165 -0.4617
vn 0.1919 0.9791 -0.0668
vn -0.1590 0.7510 0.6409
vn 0.0863 -0.4911 0.8668
vn 0.5811 -0.7384 -0.3423
vn 0.3190 0.2037 -0.9256
vn -0.2021 0.9656 -0.1636
vn -0.4113 -0.1809 0.8934
vn 0.0506 -0.9416 0.3330
vn 0.3701 -0.6783 -0.6347
vn -0.4062 0.4143 -0.8145
vn -0.4754 0.8508 0.2241
vn -0.8054 -0.3110 0.5045
vn -0.5119 -0.8529 0.1029
vn -0.5153 -0.7291 -0.4504
vn -0.7847 -0.0255 -0.6193
vn -0.9822 0.1002 0.1587
vn 0.6765 -0.0942 -0.7304
vn 0.5221 0.6586 -0.5418
vn 0.0768 -0.3732 -0.9246
vn -0.4703 0.2678 -0.8409
vn -0.1318 0.7996 -0.5859
vn 0.6852 0.7107 -0.1595
vn 0.8407 -0.5414 0.0094
vn -0.0119 -0.9955 -0.0935
vn -0.8898 0.1018 -0.4448
vn -0.2819 0.9357 -0.2122
vn 0.9249 -0.0739 0.3730
vn 0.2030 -0.9754 0.0862
vn -0.3505 -0.9363 0.0214
vn -0.8614 0.4839 0.1544
vn 0.0948 0.9908 0.0966
vn 0.4311 -0.0861 0.8982
vn -0.0559 -0.7804 0.6228
vn -0.3422 -0.7248 0.5980
vn -0.7327 0.2156 0.6455
vn -0.0120 0.3868 0.9221
vn 0.8026 0.3323 -0.4954
vn 0.7750 -0.5012 -0.3850
vn 0.8096 0.5827 0.0701
vn 0.8241 -0.0104 0.5663
vn 0.7123 -0.6702 0.2086
vn 0.5406 -0.6608 -0.5207
vn 0.0527 0.4900 -0.8701
vn 0.0589 0.9703 0.2345
vn 0.2300 0.0478 0.9720
vn 0.3466 -0.8955 0.2791
vn -0.2157 0.0139 -0.9764
vn -0.3696 0.8260 -0.4257
vn -0.1858 0.8074 0.5600
vn -0.2808 -0.5784 0.7659
vn 0.1472 -0.9882 -0.0427
vn -0.8584 -0.1564 -0.4886
vn -0.9112 0.3664 -0.1882
vn -0.9229 0.2856 0.2584
vn -0.7797 -0.4185 0.4658
vn -0.7899 -0.6080 -0.0801
vn -0.4458 0.8347 -0.3234
vn 0.3720 0.6032 -0.7056
vn -0.2283 0.9428 0.2430
vn 0.7115 0.6795 0.1789
vn 0.8221 0.4920 -0.2865
vn 0.3009 0.3371 -0.8921
vn -0.9391 0.0317 -0.3421
vn -0.6336 0.2184 0.7422
vn 0.7812 0.1683 0.6012
vn 0.9407 0.1642 -0.2968
vn -0.6876 -0.2420 -0.6845
vn -0.9716 -0.2040 0.1202
vn -0.2956 -0.0373 0.9546
vn 0.9078 -0.2802 0.3121
vn 0.7989 -0.0119 -0.6013
vn -0.2472 -0.9560 -0.1577
vn -0.3833 -0.9093 0.1622
vn -0.1651 -0.9306 0.3268
vn 0.1071 -0.9590 0.2624
vn -0.1173 -0.9822 -0.1466
vn -0.4393 0.8618 -0.2535
vn 0.2646 0.6378 -0.7233
vn -0.2379 0.9169 0.3204
vn 0.5632 0.7893 0.2446
vn 0.7186 0.5637 -0.4073
vn 0.1982 0.3489 -0.9160
vn -0.9413 0.0570 -0.3327
vn -0.5285 0.1909 0.8272
vn 0.6887 0.3003 0.6599
vn 0.8786 0.1725 -0.4454
vn -0.7174 -0.2181 -0.6616
vn -0.9077 -0.2751 0.3169
vn -0.2239 -0.0440 0.9736
vn 0.9106 -0.3423 0.2314
vn 0.6834 -0.0385 -0.7291
vn -0.1699 -0.9819 -0.0843
vn -0.2619 -0.9427 0.2067
vn -0.0766 -0.9392 0.3346
vn 0.1130 -0.9624 0.2469
vn -0.0774 -0.9930 -0.0890
vt 1.000000 0.750000
vt 1.000000 1.000000
vt 0.900000 1.000000
vt 0.900000 0.750000
vt 0.800000 1.000000
vt 0.800000 0.750000
vt 0.700000 1.000000
vt 0.700000 0.750000
vt 0.600000 1.000000
vt 0.600000 0.750000
vt 0.500000 1.000000
vt 0.500000 0.750000
vt 0.400000 1.000000
vt 0.400000 0.750000
vt 0.300000 1.000000
vt 0.300000 0.750000
vt 0.200000 1.000000
vt 0.200000 0.750000
vt 0.100000 1.000000
vt 0.100000 0.750000
vt -0.000000 1.000000
vt -0.000000 0.750000
vt 0.750000 0.490000
vt 0.891068 0.444164
vt 0.978254 0.324164
vt 0.978254 0.175836
vt 0.891068 0.055836
vt 0.750000 0.010000
vt 0.608932 0.055836
vt 0.521746 0.175836
vt 0.521746 0.324164
vt 0.608932 0.444164
vt 0.100000 0.500000
vt -0.000000 0.500000
vt 0.200000 0.500000
vt 0.300000 0.500000
vt 0.400000 0.500000
vt 0.500000 0.500000
vt 0.600000 0.500000
vt 0.700000 0.500000
vt 0.800000 0.500000
vt 0.900000 0.500000
vt 1.000000 0.500000
vt 0.190906 1.000000
vt 0.175213 1.000000
vt 0.143640 1.000000
vt 0.116649 1.000000
vt 0.110281 1.000000
vt 0.107990 1.000000
vt 0.120660 1.000000
vt 0.143395 1.000000
vt 0.158704 1.000000
vt 0.250000 1.000000
vt 0.180171 1.000000
vt 0.875000 1.000000
vt 0.875000 0.500000
vt 0.750000 1.000000
vt 0.750000 0.500000
vt 0.625000 1.000000
vt 0.625000 0.500000
vt 0.500000 1.000000
vt 0.500000 0.500000
vt 0.375000 1.000000
vt 0.375000 0.500000
vt 0.250000 1.000000
vt 0.250000 0.500000
vt 0.125000 1.000000
vt 0.125000 0.500000
vt 0.000000 1.000000
vt 0.000000 0.500000
vt 0.919706 0.419706
vt 0.990000 0.250000
vt 0.919706 0.080294
vt 0.580294 0.080294
vt 0.510000 0.250000
vt 0.580294 0.419706
vt 0.181819 0.000000
vt 0.272728 0.157461
vt 0.090910 0.157461
vt 0.363637 0.000000
vt 0.454546 0.157461
vt 0.909091 0.000000
vt 1.000000 0.157461
vt 0.818182 0.157461
vt 0.727273 0.000000
vt 0.636364 0.157461
vt 0.545455 0.000000
vt 0.363637 0.314921
vt 0.181819 0.314921
vt 0.909091 0.314921
vt 0.727273 0.314921
vt 0.545455 0.314921
vt 0.000000 0.314921
vt 0.272728 0.472382
vt 0.090910 0.472382
vt 0.818182 0.472382
vt 0.636364 0.472382
vt 0.454546 0.472382
s 0
f 21/1/1 2/2/1 4/3/1 22/4/1
f 22/4/2 4/3/2 6/5/2 23/6/2
f 23/6/3 6/5/3 8/7/3 24/8/3
f 24/8/4 8/7/4 10/9/4 25/10/4
f 25/10/5 10/9/5 12/11/5 26/12/5
f 26/12/6 12/11/6 14/13/6 27/14/6
f 27/14/7 14/13/7 16/15/7 28/16/7
f 28/16/8 16/15/8 18/17/8 29/18/8
f 10/9/9 8/7/9 34/7/9 35/9/9
f 29/18/10 18/17/10 20/19/10 30/20/10
f 30/20/11 20/19/11 2/21/11 21/22/11
f 1/23/12 3/24/12 5/25/12 7/26/12 9/27/12 11/28/12 13/29/12 15/30/12 17/31/12 19/32/12
f 19/33/13 30/20/13 21/22/13 1/34/13
f 17/35/14 29/18/14 30/20/14 19/33/14
f 15/36/15 28/16/15 29/18/15 17/35/15
f 13/37/16 27/14/16 28/16/16 15/36/16
f 11/38/17 26/12/17 27/14/17 13/37/17
f 9/39/18 25/10/18 26/12/18 11/38/18
f 7/40/19 24/8/19 25/10/19 9/39/19
f 5/41/20 23/6/20 24/8/20 7/40/20
f 3/42/21 22/4/21 23/6/21 5/41/21
f 1/43/22 21/1/22 22/4/22 3/42/22
f 34/7/23 33/5/23 43/5/23 44/7/23
f 4/3/24 2/2/24 32/2/24 31/3/24
f 8/7/25 6/5/25 33/5/25 34/7/25
f 6/5/26 4/3/26 31/3/26 33/5/26
f 2/21/27 20/19/27 40/19/27 32/21/27
f 20/19/28 18/17/28 39/17/28 40/19/28
f 18/17/29 16/15/29 38/15/29 39/17/29
f 16/15/30 14/13/30 37/13/30 38/15/30
f 14/13/31 12/11/31 36/11/31 37/13/31
f 12/11/32 10/9/32 35/9/32 36/11/32
f 42/21/33 50/19/33 60/19/33 52/21/33
f 32/21/34 40/19/34 50/19/34 42/21/34
f 38/15/35 37/13/35 47/13/35 48/15/35
f 35/9/36 34/7/36 44/7/36 45/9/36
f 31/3/37 32/2/37 42/2/37 41/3/37
f 39/17/38 38/15/38 48/15/38 49/17/38
f 36/11/39 35/9/39 45/9/39 46/11/39
f 33/5/40 31/3/40 41/3/40 43/5/40
f 40/19/41 39/17/41 49/17/41 50/19/41
f 37/13/42 36/11/42 46/11/42 47/13/42
f 58/15/43 57/13/43 67/13/43 68/15/43
f 48/15/44 47/13/44 57/13/44 58/15/44
f 45/9/45 44/7/45 54/7/45 55/9/45
f 41/3/46 42/2/46 52/2/46 51/3/46
f 49/17/47 48/15/47 58/15/47 59/17/47
f 46/11/48 45/9/48 55/9/48 56/11/48
f 43/5/49 41/3/49 51/3/49 53/5/49
f 50/19/50 49/17/50 59/17/50 60/19/50
f 47/13/51 46/11/51 56/11/51 57/13/51
f 44/7/52 43/5/52 53/5/52 54/7/52
f 65/9/53 64/7/53 74/7/53 75/9/53
f 55/9/54 54/7/54 64/7/54 65/9/54
f 51/3/55 52/2/55 62/2/55 61/3/55
f 59/17/56 58/15/56 68/15/56 69/17/56
f 56/11/57 55/9/57 65/9/57 66/11/57
f 53/5/58 51/3/58 61/3/58 63/5/58
f 60/19/59 59/17/59 69/17/59 70/19/59
f 57/13/60 56/11/60 66/11/60 67/13/60
f 54/7/61 53/5/61 63/5/61 64/7/61
f 52/21/62 60/19/62 70/19/62 62/21/62
f 71/3/63 72/2/63 82/2/63 81/3/63
f 61/3/64 62/2/64 72/2/64 71/3/64
f 69/17/65 68/15/65 78/15/65 79/17/65
f 66/11/66 65/9/66 75/9/66 76/11/66
f 63/5/67 61/3/67 71/3/67 73/5/67
f 70/19/68 69/17/68 79/17/68 359/44/68 361/45/68 362/46/68 363/47/68 358/48/68 80/19/68
f 67/13/69 66/11/69 76/11/69 77/13/69
f 64/7/70 63/5/70 73/5/70 74/7/70
f 62/21/71 70/19/71 80/19/71 72/21/71
f 68/15/72 67/13/72 77/13/72 78/15/72
f 86/11/73 85/9/73 95/9/73 96/11/73
f 79/17/74 78/15/74 88/15/74 89/17/74
f 76/11/75 75/9/75 85/9/75 86/11/75
f 73/5/76 71/3/76 81/3/76 83/5/76
f 80/19/77 358/49/77 364/50/77 360/51/77 90/19/77
f 77/13/78 76/11/78 86/11/78 87/13/78
f 74/7/79 73/5/79 83/5/79 84/7/79
f 72/21/80 80/19/80 90/19/80 82/21/80
f 78/15/81 77/13/81 87/13/81 88/15/81
f 75/9/82 74/7/82 84/7/82 85/9/82
f 93/5/83 91/3/83 101/3/83 103/5/83
f 83/5/84 81/3/84 91/3/84 93/5/84
f 90/19/85 360/52/85 89/17/85 99/17/85 100/19/85
f 87/13/86 86/11/86 96/11/86 97/13/86
f 84/7/87 83/5/87 93/5/87 94/7/87
f 82/21/88 90/19/88 100/19/88 92/21/88
f 88/15/89 87/13/89 97/13/89 98/15/89
f 85/9/90 84/7/90 94/7/90 95/9/90
f 81/3/91 82/2/91 92/2/91 91/3/91
f 89/17/92 88/15/92 98/15/92 99/17/92
f 110/19/93 109/17/93 119/17/93 120/19/93
f 100/19/94 99/17/94 109/17/94 110/19/94
f 97/13/95 96/11/95 106/11/95 107/13/95
f 94/7/96 93/5/96 103/5/96 104/7/96
f 92/21/97 100/19/97 110/19/97 102/21/97
f 98/15/98 97/13/98 107/13/98 108/15/98
f 95/9/99 94/7/99 104/7/99 105/9/99
f 91/3/100 92/2/100 102/2/100 101/3/100
f 99/17/101 98/15/101 108/15/101 109/17/101
f 96/11/102 95/9/102 105/9/102 106/11/102
f 117/13/103 116/11/103 126/11/103 127/13/103
f 107/13/104 106/11/104 116/11/104 117/13/104
f 104/7/105 103/5/105 113/5/105 114/7/105
f 102/21/106 110/19/106 120/19/106 112/21/106
f 108/15/107 107/13/107 117/13/107 118/15/107
f 105/9/108 104/7/108 114/7/108 115/9/108
f 101/3/109 102/2/109 112/2/109 111/3/109
f 109/17/110 108/15/110 118/15/110 119/17/110
f 106/11/111 105/9/111 115/9/111 116/11/111
f 103/5/112 101/3/112 111/3/112 113/5/112
f 123/5/113 121/3/113 131/3/113 133/5/113
f 114/7/114 113/5/114 123/5/114 124/7/114
f 112/21/115 120/19/115 130/19/115 122/21/115
f 118/15/116 117/13/116 127/13/116 128/15/116
f 115/9/117 114/7/117 124/7/117 125/9/117
f 111/3/118 112/2/118 122/2/118 121/3/118
f 119/17/119 118/15/119 128/15/119 129/17/119
f 116/11/120 115/9/120 125/9/120 126/11/120
f 113/5/121 111/3/121 121/3/121 123/5/121
f 120/19/122 119/17/122 129/17/122 130/19/122
f 219/53/123 132/21/123 146/21/123 220/53/123
f 130/19/124 129/17/124 139/17/124 140/19/124
f 127/13/125 126/11/125 136/11/125 137/13/125
f 124/7/126 123/5/126 133/5/126 134/7/126
f 122/21/127 130/19/127 140/19/127 132/21/127
f 128/15/128 127/13/128 137/13/128 138/15/128
f 125/9/129 124/7/129 134/7/129 135/9/129
f 121/3/130 122/2/130 132/2/130 131/3/130
f 129/17/131 128/15/131 138/15/131 139/17/131
f 126/11/132 125/9/132 135/9/132 136/11/132
f 208/11/133 231/53/133 232/53/133 214/11/133
f 145/19/134 144/17/134 150/17/134 151/19/134
f 132/21/135 140/19/135 145/19/135 146/21/135
f 139/17/136 138/15/136 143/15/136 144/17/136
f 137/13/137 136/11/137 142/11/137 141/13/137
f 140/19/138 139/17/138 144/17/138 145/19/138
f 138/15/139 137/13/139 141/13/139 143/15/139
f 150/17/140 149/15/140 155/15/140 156/17/140
f 143/15/141 141/13/141 147/13/141 149/15/141
f 146/21/142 145/19/142 151/19/142 152/21/142
f 144/17/143 143/15/143 149/15/143 150/17/143
f 141/13/144 142/11/144 148/11/144 147/13/144
f 220/53/145 146/21/145 152/21/145 221/53/145
f 155/15/146 153/13/146 159/13/146 161/15/146
f 147/13/147 148/11/147 154/11/147 153/13/147
f 222/53/148 154/11/148 312/11/148 315/53/148
f 151/19/149 150/17/149 156/17/149 157/19/149
f 149/15/150 147/13/150 153/13/150 155/15/150
f 152/21/151 151/19/151 157/19/151 158/21/151
f 159/13/152 160/11/152 166/11/152 165/13/152
f 158/21/153 157/19/153 163/19/153 164/21/153
f 156/17/154 155/15/154 161/15/154 162/17/154
f 153/13/155 154/11/155 160/11/155 159/13/155
f 222/53/156 158/21/156 164/21/156 223/53/156
f 157/19/157 156/17/157 162/17/157 163/19/157
f 170/21/158 169/19/158 175/19/158 176/21/158
f 223/53/159 164/21/159 170/21/159 224/53/159
f 163/19/160 162/17/160 168/17/160 169/19/160
f 161/15/161 159/13/161 165/13/161 167/15/161
f 164/21/162 163/19/162 169/19/162 170/21/162
f 162/17/163 161/15/163 167/15/163 168/17/163
f 225/53/164 176/21/164 182/21/164 226/53/164
f 168/17/165 167/15/165 173/15/165 174/17/165
f 165/13/166 166/11/166 172/11/166 171/13/166
f 224/53/167 170/21/167 176/21/167 225/53/167
f 169/19/168 168/17/168 174/17/168 175/19/168
f 167/15/169 165/13/169 171/13/169 173/15/169
f 182/21/170 181/19/170 187/19/170 188/21/170
f 175/19/171 174/17/171 180/17/171 181/19/171
f 173/15/172 171/13/172 177/13/172 179/15/172
f 176/21/173 175/19/173 181/19/173 182/21/173
f 174/17/174 173/15/174 179/15/174 180/17/174
f 171/13/175 172/11/175 178/11/175 177/13/175
f 227/53/176 188/21/176 194/21/176 228/53/176
f 180/17/177 179/15/177 185/15/177 186/17/177
f 177/13/178 178/11/178 184/11/178 183/13/178
f 226/53/179 182/21/179 188/21/179 227/53/179
f 181/19/180 180/17/180 186/17/180 187/19/180
f 179/15/181 177/13/181 183/13/181 185/15/181
f 194/21/182 193/19/182 199/19/182 200/21/182
f 187/19/183 186/17/183 192/17/183 193/19/183
f 185/15/184 183/13/184 189/13/184 191/15/184
f 188/21/185 187/19/185 193/19/185 194/21/185
f 186/17/186 185/15/186 191/15/186 192/17/186
f 183/13/187 184/11/187 190/11/187 189/13/187
f 229/53/188 200/21/188 206/21/188 230/53/188
f 192/17/189 191/15/189 197/15/189 198/17/189
f 189/13/190 190/11/190 196/11/190 195/13/190
f 228/53/191 194/21/191 200/21/191 229/53/191
f 193/19/192 192/17/192 198/17/192 199/19/192
f 191/15/193 189/13/193 195/13/193 197/15/193
f 206/21/194 205/19/194 211/19/194 212/21/194
f 199/19/195 198/17/195 204/17/195 205/19/195
f 197/15/196 195/13/196 201/13/196 203/15/196
f 200/21/197 199/19/197 205/19/197 206/21/197
f 198/17/198 197/15/198 203/15/198 204/17/198
f 195/13/199 196/11/199 202/11/199 201/13/199
f 211/19/200 210/17/200 216/17/200 217/19/200
f 204/17/201 203/15/201 209/15/201 210/17/201
f 201/13/202 202/11/202 208/11/202 207/13/202
f 230/53/203 206/21/203 212/21/203 231/53/203
f 205/19/204 204/17/204 210/17/204 211/19/204
f 203/15/205 201/13/205 207/13/205 209/15/205
f 209/15/206 207/13/206 213/13/206 215/15/206
f 212/21/207 211/19/207 217/19/207 218/21/207
f 210/17/208 209/15/208 215/15/208 216/17/208
f 207/13/209 208/11/209 214/11/209 213/13/209
f 231/53/210 212/21/210 218/21/210 232/53/210
f 202/11/211 230/53/211 231/53/211 208/11/211
f 190/11/212 228/53/212 229/53/212 196/11/212
f 196/11/213 229/53/213 230/53/213 202/11/213
f 178/11/214 226/53/214 227/53/214 184/11/214
f 184/11/215 227/53/215 228/53/215 190/11/215
f 166/11/216 224/53/216 225/53/216 172/11/216
f 172/11/217 225/53/217 226/53/217 178/11/217
f 160/11/218 223/53/218 224/53/218 166/11/218
f 154/11/219 222/53/219 223/53/219 160/11/219
f 158/21/220 222/53/220 315/53/220 313/21/220
f 142/11/221 220/53/221 221/53/221 148/11/221
f 136/11/222 219/53/222 220/53/222 142/11/222
f 134/7/223 133/5/223 235/5/223 236/7/223
f 131/3/224 132/2/224 234/2/224 233/3/224
f 219/53/225 136/11/225 238/11/225 239/53/225
f 135/9/226 134/7/226 236/7/226 237/9/226
f 132/21/227 219/53/227 239/53/227 234/21/227
f 133/5/228 131/3/228 233/3/228 235/5/228
f 136/11/229 135/9/229 237/9/229 238/11/229
f 239/53/230 238/11/230 245/11/230 246/53/230
f 237/9/231 236/7/231 243/7/231 244/9/231
f 235/5/232 233/3/232 240/3/232 242/5/232
f 234/21/233 239/53/233 246/53/233 241/21/233
f 238/11/234 237/9/234 244/9/234 245/11/234
f 236/7/235 235/5/235 242/5/235 243/7/235
f 233/3/236 234/2/236 241/2/236 240/3/236
f 245/11/237 244/9/237 251/9/237 252/11/237
f 243/7/238 242/5/238 249/5/238 250/7/238
f 240/3/239 241/2/239 248/2/239 247/3/239
f 246/53/240 245/11/240 252/11/240 253/53/240
f 244/9/241 243/7/241 250/7/241 251/9/241
f 242/5/242 240/3/242 247/3/242 249/5/242
f 241/21/243 246/53/243 253/53/243 248/21/243
f 249/5/244 247/3/244 254/3/244 256/5/244
f 248/21/245 253/53/245 260/53/245 255/21/245
f 252/11/246 251/9/246 258/9/246 259/11/246
f 250/7/247 249/5/247 256/5/247 257/7/247
f 247/3/248 248/2/248 255/2/248 254/3/248
f 253/53/249 252/11/249 259/11/249 260/53/249
f 251/9/250 250/7/250 257/7/250 258/9/250
f 260/53/251 259/11/251 266/11/251 267/53/251
f 258/9/252 257/7/252 264/7/252 265/9/252
f 256/5/253 254/3/253 261/3/253 263/5/253
f 255/21/254 260/53/254 267/53/254 262/21/254
f 259/11/255 258/9/255 265/9/255 266/11/255
f 257/7/256 256/5/256 263/5/256 264/7/256
f 254/3/257 255/2/257 262/2/257 261/3/257
f 262/21/258 267/53/258 274/53/258 269/21/258
f 266/11/259 265/9/259 272/9/259 273/11/259
f 264/7/260 263/5/260 270/5/260 271/7/260
f 261/3/261 262/2/261 269/2/261 268/3/261
f 267/53/262 266/11/262 273/11/262 274/53/262
f 265/9/263 264/7/263 271/7/263 272/9/263
f 263/5/264 261/3/264 268/3/264 270/5/264
f 272/9/265 271/7/265 278/7/265 279/9/265
f 270/5/266 268/3/266 275/3/266 277/5/266
f 269/21/267 274/53/267 281/53/267 276/21/267
f 273/11/268 272/9/268 279/9/268 280/11/268
f 271/7/269 270/5/269 277/5/269 278/7/269
f 268/3/270 269/2/270 276/2/270 275/3/270
f 274/53/271 273/11/271 280/11/271 281/53/271
f 275/3/272 276/2/272 283/2/272 282/3/272
f 281/53/273 280/11/273 287/11/273 288/53/273
f 279/9/274 278/7/274 285/7/274 286/9/274
f 277/5/275 275/3/275 282/3/275 284/5/275
f 276/21/276 281/53/276 288/53/276 283/21/276
f 280/11/277 279/9/277 286/9/277 287/11/277
f 278/7/278 277/5/278 284/5/278 285/7/278
f 283/21/279 288/53/279 295/53/279 290/21/279
f 287/11/280 286/9/280 293/9/280 294/11/280
f 285/7/281 284/5/281 291/5/281 292/7/281
f 282/3/282 283/2/282 290/2/282 289/3/282
f 288/53/283 287/11/283 294/11/283 295/53/283
f 286/9/284 285/7/284 292/7/284 293/9/284
f 284/5/285 282/3/285 289/3/285 291/5/285
f 295/53/286 294/11/286 301/11/286 302/53/286
f 293/9/287 292/7/287 299/7/287 300/9/287
f 291/5/288 289/3/288 296/3/288 298/5/288
f 290/21/289 295/53/289 302/53/289 297/21/289
f 294/11/290 293/9/290 300/9/290 301/11/290
f 292/7/291 291/5/291 298/5/291 299/7/291
f 289/3/292 290/2/292 297/2/292 296/3/292
f 299/7/293 298/5/293 305/5/293 306/7/293
f 296/3/294 297/2/294 304/2/294 303/3/294
f 302/53/295 301/11/295 308/11/295 309/53/295
f 300/9/296 299/7/296 306/7/296 307/9/296
f 298/5/297 296/3/297 303/3/297 305/5/297
f 297/21/298 302/53/298 309/53/298 304/21/298
f 301/11/299 300/9/299 307/9/299 308/11/299
f 152/21/300 158/21/300 313/21/300 311/21/300
f 154/11/301 148/11/301 310/11/301 312/11/301
f 148/11/302 221/53/302 314/53/302 310/11/302
f 221/53/303 152/21/303 311/21/303 314/53/303
f 314/53/304 311/21/304 317/21/304 320/53/304
f 312/11/305 310/11/305 316/11/305 318/11/305
f 310/11/306 314/53/306 320/53/306 316/11/306
f 313/21/307 315/53/307 321/53/307 319/21/307
f 311/21/308 313/21/308 319/21/308 317/21/308
f 315/53/309 312/11/309 318/11/309 321/53/309
f 319/21/310 321/53/310 327/53/310 325/21/310
f 317/21/311 319/21/311 325/21/311 323/21/311
f 321/53/312 318/11/312 324/11/312 327/53/312
f 320/53/313 317/21/313 323/21/313 326/53/313
f 318/11/314 316/11/314 322/11/314 324/11/314
f 316/11/315 320/53/315 326/53/315 322/11/315
f 326/53/316 323/21/316 329/21/316 332/53/316
f 324/11/317 322/11/317 328/11/317 330/11/317
f 322/11/318 326/53/318 332/53/318 328/11/318
f 325/21/319 327/53/319 333/53/319 331/21/319
f 323/21/320 325/21/320 331/21/320 329/21/320
f 327/53/321 324/11/321 330/11/321 333/53/321
f 331/21/322 333/53/322 339/53/322 337/21/322
f 329/21/323 331/21/323 337/21/323 335/21/323
f 333/53/324 330/11/324 336/11/324 339/53/324
f 332/53/325 329/21/325 335/21/325 338/53/325
f 330/11/326 328/11/326 334/11/326 336/11/326
f 328/11/327 332/53/327 338/53/327 334/11/327
f 338/53/328 335/21/328 341/21/328 344/53/328
f 336/11/329 334/11/329 340/11/329 342/11/329
f 334/11/330 338/53/330 344/53/330 340/11/330
f 337/21/331 339/53/331 345/53/331 343/21/331
f 335/21/332 337/21/332 343/21/332 341/21/332
f 339/53/333 336/11/333 342/11/333 345/53/333
f 343/21/334 345/53/334 351/53/334 349/21/334
f 341/21/335 343/21/335 349/21/335 347/21/335
f 345/53/336 342/11/336 348/11/336 351/53/336
f 344/53/337 341/21/337 347/21/337 350/53/337
f 342/11/338 340/11/338 346/11/338 348/11/338
f 340/11/339 344/53/339 350/53/339 346/11/339
f 350/53/340 347/21/340 353/21/340 356/53/340
f 348/11/341 346/11/341 352/11/341 354/11/341
f 346/11/342 350/53/342 356/53/342 352/11/342
f 349/21/343 351/53/343 357/53/343 355/21/343
f 347/21/344 349/21/344 355/21/344 353/21/344
f 351/53/345 348/11/345 354/11/345 357/53/345
f 360/52/346 365/54/346 359/44/346 79/17/346 89/17/346
f 359/43/347 366/2/347 367/55/347 361/56/347
f 361/56/348 367/55/348 368/57/348 362/58/348
f 362/58/349 368/57/349 369/59/349 363/60/349
f 363/60/350 369/59/350 370/61/350 358/62/350
f 358/62/351 370/61/351 371/63/351 364/64/351
f 364/64/352 371/63/352 372/65/352 360/66/352
f 372/65/353 371/63/353 379/63/353 380/65/353
f 360/66/354 372/65/354 373/67/354 365/68/354
f 365/68/355 373/67/355 366/69/355 359/70/355
f 379/63/356 378/61/356 386/61/356 387/63/356
f 370/61/357 369/59/357 377/59/357 378/61/357
f 373/67/358 372/65/358 380/65/358 381/67/358
f 368/57/359 367/55/359 374/55/359 376/57/359
f 371/63/360 370/61/360 378/61/360 379/63/360
f 366/69/361 373/67/361 381/67/361 375/69/361
f 367/55/362 366/2/362 375/2/362 374/55/362
f 369/59/363 368/57/363 376/57/363 377/59/363
f 389/67/364 388/65/364 396/65/364 397/67/364
f 377/59/365 376/57/365 384/57/365 385/59/365
f 374/55/366 375/2/366 383/2/366 382/55/366
f 375/69/367 381/67/367 389/67/367 383/69/367
f 380/65/368 379/63/368 387/63/368 388/65/368
f 378/61/369 377/59/369 385/59/369 386/61/369
f 376/57/370 374/55/370 382/55/370 384/57/370
f 381/67/371 380/65/371 388/65/371 389/67/371
f 396/65/372 395/63/372 403/63/372 404/65/372
f 387/63/373 386/61/373 394/61/373 395/63/373
f 385/59/374 384/57/374 392/57/374 393/59/374
f 382/55/375 383/2/375 391/2/375 390/55/375
f 383/69/376 389/67/376 397/67/376 391/69/376
f 388/65/377 387/63/377 395/63/377 396/65/377
f 386/61/378 385/59/378 393/59/378 394/61/378
f 384/57/379 382/55/379 390/55/379 392/57/379
f 398/55/380 399/2/380 407/2/380 406/55/380
f 394/61/381 393/59/381 401/59/381 402/61/381
f 392/57/382 390/55/382 398/55/382 400/57/382
f 397/67/383 396/65/383 404/65/383 405/67/383
f 395/63/384 394/61/384 402/61/384 403/63/384
f 393/59/385 392/57/385 400/57/385 401/59/385
f 390/55/386 391/2/386 399/2/386 398/55/386
f 391/69/387 397/67/387 405/67/387 399/69/387
f 413/67/388 412/65/388 420/65/388 421/67/388
f 399/69/389 405/67/389 413/67/389 407/69/389
f 404/65/390 403/63/390 411/63/390 412/65/390
f 402/61/391 401/59/391 409/59/391 410/61/391
f 400/57/392 398/55/392 406/55/392 408/57/392
f 405/67/393 404/65/393 412/65/393 413/67/393
f 403/63/394 402/61/394 410/61/394 411/63/394
f 401/59/395 400/57/395 408/57/395 409/59/395
f 416/57/396 414/55/396 422/55/396 424/57/396
f 411/63/397 410/61/397 418/61/397 419/63/397
f 409/59/398 408/57/398 416/57/398 417/59/398
f 406/55/399 407/2/399 415/2/399 414/55/399
f 407/69/400 413/67/400 421/67/400 415/69/400
f 412/65/401 411/63/401 419/63/401 420/65/401
f 410/61/402 409/59/402 417/59/402 418/61/402
f 408/57/403 406/55/403 414/55/403 416/57/403
f 423/69/404 429/67/404 437/67/404 431/69/404
f 421/67/405 420/65/405 428/65/405 429/67/405
f 419/63/406 418/61/406 426/61/406 427/63/406
f 417/59/407 416/57/407 424/57/407 425/59/407
f 414/55/408 415/2/408 423/2/408 422/55/408
f 415/69/409 421/67/409 429/67/409 423/69/409
f 420/65/410 419/63/410 427/63/410 428/65/410
f 418/61/411 417/59/411 425/59/411 426/61/411
f 433/59/412 432/57/412 440/57/412 441/59/412
f 428/65/413 427/63/413 435/63/413 436/65/413
f 426/61/414 425/59/414 433/59/414 434/61/414
f 424/57/415 422/55/415 430/55/415 432/57/415
f 429/67/416 428/65/416 436/65/416 437/67/416
f 427/63/417 426/61/417 434/61/417 435/63/417
f 425/59/418 424/57/418 432/57/418 433/59/418
f 422/55/419 423/2/419 431/2/419 430/55/419
f 445/67/420 444/65/420 452/65/420 453/67/420
f 430/55/421 431/2/421 439/2/421 438/55/421
f 431/69/422 437/67/422 445/67/422 439/69/422
f 436/65/423 435/63/423 443/63/423 444/65/423
f 434/61/424 433/59/424 441/59/424 442/61/424
f 432/57/425 430/55/425 438/55/425 440/57/425
f 437/67/426 436/65/426 444/65/426 445/67/426
f 435/63/427 434/61/427 442/61/427 443/63/427
f 450/61/428 447/69/428 458/69/428 455/61/428
f 443/63/429 442/61/429 450/61/429 451/63/429
f 441/59/430 440/57/430 448/57/430 449/59/430
f 438/55/431 439/2/431 447/2/431 446/55/431
f 439/69/432 445/67/432 453/67/432 447/69/432
f 444/65/433 443/63/433 451/63/433 452/65/433
f 442/61/434 441/59/434 449/59/434 450/61/434
f 440/57/435 438/55/435 446/55/435 448/57/435
f 447/69/436 450/61/436 493/61/436 490/69/436
f 455/61/437 458/69/437 463/69/437 460/61/437
f 452/65/438 451/63/438 454/63/438 456/65/438
f 453/67/439 452/65/439 456/65/439 457/67/439
f 451/63/440 450/61/440 455/61/440 454/63/440
f 447/69/441 453/67/441 457/67/441 458/69/441
f 459/63/442 460/61/442 465/61/442 464/63/442
f 457/67/443 456/65/443 461/65/443 462/67/443
f 454/63/444 455/61/444 460/61/444 459/63/444
f 458/69/445 457/67/445 462/67/445 463/69/445
f 456/65/446 454/63/446 459/63/446 461/65/446
f 466/65/447 464/63/447 469/63/447 471/65/447
f 463/69/448 462/67/448 467/67/448 468/69/448
f 461/65/449 459/63/449 464/63/449 466/65/449
f 460/61/450 463/69/450 468/69/450 465/61/450
f 462/67/451 461/65/451 466/65/451 467/67/451
f 472/67/452 471/65/452 476/65/452 477/67/452
f 465/61/453 468/69/453 473/69/453 470/61/453
f 467/67/454 466/65/454 471/65/454 472/67/454
f 464/63/455 465/61/455 470/61/455 469/63/455
f 468/69/456 467/67/456 472/67/456 473/69/456
f 478/69/457 477/67/457 482/67/457 483/69/457
f 469/63/458 470/61/458 475/61/458 474/63/458
f 473/69/459 472/67/459 477/67/459 478/69/459
f 471/65/460 469/63/460 474/63/460 476/65/460
f 470/61/461 473/69/461 478/69/461 475/61/461
f 480/61/462 483/69/462 488/69/462 485/61/462
f 476/65/463 474/63/463 479/63/463 481/65/463
f 475/61/464 478/69/464 483/69/464 480/61/464
f 477/67/465 476/65/465 481/65/465 482/67/465
f 474/63/466 475/61/466 480/61/466 479/63/466
f 484/63/467 485/61/467 488/69/467 487/67/467 486/65/467
f 482/67/468 481/65/468 486/65/468 487/67/468
f 479/63/469 480/61/469 485/61/469 484/63/469
f 483/69/470 482/67/470 487/67/470 488/69/470
f 481/65/471 479/63/471 484/63/471 486/65/471
f 490/69/472 493/61/472 498/61/472 495/69/472
f 450/61/473 449/59/473 492/59/473 493/61/473
f 448/57/474 446/55/474 489/55/474 491/57/474
f 449/59/475 448/57/475 491/57/475 492/59/475
f 446/55/476 447/2/476 490/2/476 489/55/476
f 498/61/477 497/59/477 502/59/477 503/61/477
f 492/59/478 491/57/478 496/57/478 497/59/478
f 489/55/479 490/2/479 495/2/479 494/55/479
f 493/61/480 492/59/480 497/59/480 498/61/480
f 491/57/481 489/55/481 494/55/481 496/57/481
f 500/69/482 503/61/482 508/61/482 505/69/482
f 496/57/483 494/55/483 499/55/483 501/57/483
f 495/69/484 498/61/484 503/61/484 500/69/484
f 497/59/485 496/57/485 501/57/485 502/59/485
f 494/55/486 495/2/486 500/2/486 499/55/486
f 505/69/487 508/61/487 513/61/487 510/69/487
f 502/59/488 501/57/488 506/57/488 507/59/488
f 499/55/489 500/2/489 505/2/489 504/55/489
f 503/61/490 502/59/490 507/59/490 508/61/490
f 501/57/491 499/55/491 504/55/491 506/57/491
f 513/61/492 512/59/492 517/59/492 518/61/492
f 507/59/493 506/57/493 511/57/493 512/59/493
f 504/55/494 505/2/494 510/2/494 509/55/494
f 508/61/495 507/59/495 512/59/495 513/61/495
f 506/57/496 504/55/496 509/55/496 511/57/496
f 515/69/497 518/61/497 523/61/497 520/69/497
f 511/57/498 509/55/498 514/55/498 516/57/498
f 510/69/499 513/61/499 518/61/499 515/69/499
f 512/59/500 511/57/500 516/57/500 517/59/500
f 509/55/501 510/2/501 515/2/501 514/55/501
f 519/55/502 520/69/502 523/61/502 522/59/502 521/57/502
f 517/59/503 516/57/503 521/57/503 522/59/503
f 514/55/504 515/2/504 520/2/504 519/55/504
f 518/61/505 517/59/505 522/59/505 523/61/505
f 516/57/506 514/55/506 519/55/506 521/57/506
f 524/43/507 525/2/507 527/55/507 526/56/507
f 526/56/508 527/55/508 529/57/508 528/58/508
f 528/58/509 529/57/509 531/59/509 530/60/509
f 530/60/510 531/59/510 533/61/510 532/62/510
f 532/62/511 533/61/511 535/63/511 534/64/511
f 534/64/512 535/63/512 537/65/512 536/66/512
f 533/61/513 531/59/513 543/59/513 544/61/513
f 536/66/514 537/65/514 539/67/514 538/68/514
f 538/68/515 539/67/515 525/69/515 524/70/515
f 524/23/516 526/71/516 528/72/516 530/73/516 532/28/516 534/74/516 536/75/516 538/76/516
f 543/59/517 542/57/517 550/57/517 551/59/517
f 539/67/518 537/65/518 546/65/518 547/67/518
f 529/57/519 527/55/519 540/55/519 542/57/519
f 535/63/520 533/61/520 544/61/520 545/63/520
f 525/69/521 539/67/521 547/67/521 541/69/521
f 527/55/522 525/2/522 541/2/522 540/55/522
f 531/59/523 529/57/523 542/57/523 543/59/523
f 537/65/524 535/63/524 545/63/524 546/65/524
f 550/57/525 548/55/525 556/55/525 558/57/525
f 540/55/526 541/2/526 549/2/526 548/55/526
f 541/69/527 547/67/527 555/67/527 549/69/527
f 546/65/528 545/63/528 553/63/528 554/65/528
f 544/61/529 543/59/529 551/59/529 552/61/529
f 542/57/530 540/55/530 548/55/530 550/57/530
f 547/67/531 546/65/531 554/65/531 555/67/531
f 545/63/532 544/61/532 552/61/532 553/63/532
f 557/69/533 563/67/533 571/67/533 565/69/533
f 555/67/534 554/65/534 562/65/534 563/67/534
f 553/63/535 552/61/535 560/61/535 561/63/535
f 551/59/536 550/57/536 558/57/536 559/59/536
f 548/55/537 549/2/537 557/2/537 556/55/537
f 549/69/538 555/67/538 563/67/538 557/69/538
f 554/65/539 553/63/539 561/63/539 562/65/539
f 552/61/540 551/59/540 559/59/540 560/61/540
f 565/69/541 571/67/541 575/67/541 576/69/541
f 562/65/542 561/63/542 569/63/542 570/65/542
f 560/61/543 559/59/543 567/59/543 568/61/543
f 558/57/544 556/55/544 564/55/544 566/57/544
f 563/67/545 562/65/545 570/65/545 571/67/545
f 561/63/546 560/61/546 568/61/546 569/63/546
f 559/59/547 558/57/547 566/57/547 567/59/547
f 556/55/548 557/2/548 565/2/548 564/55/548
f 567/59/549 566/57/549 599/57/549 600/59/549
f 576/69/550 575/67/550 580/67/550 581/69/550
f 568/61/551 565/69/551 576/69/551 573/61/551
f 570/65/552 569/63/552 572/63/552 574/65/552
f 571/67/553 570/65/553 574/65/553 575/67/553
f 569/63/554 568/61/554 573/61/554 572/63/554
f 578/61/555 581/69/555 586/69/555 583/61/555
f 574/65/556 572/63/556 577/63/556 579/65/556
f 573/61/557 576/69/557 581/69/557 578/61/557
f 575/67/558 574/65/558 579/65/558 580/67/558
f 572/63/559 573/61/559 578/61/559 577/63/559
f 586/69/560 585/67/560 590/67/560 591/69/560
f 580/67/561 579/65/561 584/65/561 585/67/561
f 577/63/562 578/61/562 583/61/562 582/63/562
f 581/69/563 580/67/563 585/67/563 586/69/563
f 579/65/564 577/63/564 582/63/564 584/65/564
f 591/69/565 590/67/565 595/67/565 596/69/565
f 584/65/566 582/63/566 587/63/566 589/65/566
f 583/61/567 586/69/567 591/69/567 588/61/567
f 585/67/568 584/65/568 589/65/568 590/67/568
f 582/63/569 583/61/569 588/61/569 587/63/569
f 592/63/570 593/61/570 596/69/570 595/67/570 594/65/570
f 589/65/571 587/63/571 592/63/571 594/65/571
f 588/61/572 591/69/572 596/69/572 593/61/572
f 590/67/573 589/65/573 594/65/573 595/67/573
f 587/63/574 588/61/574 593/61/574 592/63/574
f 601/61/575 600/59/575 605/59/575 606/61/575
f 564/55/576 565/2/576 598/2/576 597/55/576
f 565/69/577 568/61/577 601/61/577 598/69/577
f 568/61/578 567/59/578 600/59/578 601/61/578
f 566/57/579 564/55/579 597/55/579 599/57/579
f 605/59/580 604/57/580 609/57/580 610/59/580
f 599/57/581 597/55/581 602/55/581 604/57/581
f 598/69/582 601/61/582 606/61/582 603/69/582
f 600/59/583 599/57/583 604/57/583 605/59/583
f 597/55/584 598/2/584 603/2/584 602/55/584
f 611/61/585 610/59/585 615/59/585 616/61/585
f 602/55/586 603/2/586 608/2/586 607/55/586
f 606/61/587 605/59/587 610/59/587 611/61/587
f 604/57/588 602/55/588 607/55/588 609/57/588
f 603/69/589 606/61/589 611/61/589 608/69/589
f 616/61/590 615/59/590 620/59/590 621/61/590
f 609/57/591 607/55/591 612/55/591 614/57/591
f 608/69/592 611/61/592 616/61/592 613/69/592
f 610/59/593 609/57/593 614/57/593 615/59/593
f 607/55/594 608/2/594 613/2/594 612/55/594
f 618/69/595 621/61/595 626/61/595 623/69/595
f 614/57/596 612/55/596 617/55/596 619/57/596
f 613/69/597 616/61/597 621/61/597 618/69/597
f 615/59/598 614/57/598 619/57/598 620/59/598
f 612/55/599 613/2/599 618/2/599 617/55/599
f 626/61/600 625/59/600 630/59/600 631/61/600
f 620/59/601 619/57/601 624/57/601 625/59/601
f 617/55/602 618/2/602 623/2/602 622/55/602
f 621/61/603 620/59/603 625/59/603 626/61/603
f 619/57/604 617/55/604 622/55/604 624/57/604
f 627/55/605 628/69/605 631/61/605 630/59/605 629/57/605
f 624/57/606 622/55/606 627/55/606 629/57/606
f 623/69/607 626/61/607 631/61/607 628/69/607
f 625/59/608 624/57/608 629/57/608 630/59/608
f 622/55/609 623/2/609 628/2/609 627/55/609
f 632/77/610 633/78/610 634/79/610
f 633/78/611 632/80/611 637/81/611
f 632/82/612 634/83/612 635/84/612
f 632/85/613 635/84/613 636/86/613
f 632/87/614 636/86/614 637/81/614
f 633/78/615 637/81/615 642/88/615
f 634/79/616 633/78/616 638/89/616
f 635/84/617 634/83/617 639/90/617
f 636/86/618 635/84/618 640/91/618
f 637/81/619 636/86/619 641/92/619
f 633/78/620 642/88/620 638/89/620
f 634/79/621 638/89/621 639/93/621
f 635/84/622 639/90/622 640/91/622
f 636/86/623 640/91/623 641/92/623
f 637/81/624 641/92/624 642/88/624
f 638/89/625 642/88/625 643/94/625
f 639/93/626 638/89/626 643/95/626
f 640/91/627 639/90/627 643/96/627
f 641/92/628 640/91/628 643/97/628
f 642/88/629 641/92/629 643/98/629
f 644/77/630 645/78/630 646/79/630
f 645/78/631 644/80/631 649/81/631
f 644/82/632 646/83/632 647/84/632
f 644/85/633 647/84/633 648/86/633
f 644/87/634 648/86/634 649/81/634
f 645/78/635 649/81/635 654/88/635
f 646/79/636 645/78/636 650/89/636
f 647/84/637 646/83/637 651/90/637
f 648/86/638 647/84/638 652/91/638
f 649/81/639 648/86/639 653/92/639
f 645/78/640 654/88/640 650/89/640
f 646/79/641 650/89/641 651/93/641
f 647/84/642 651/90/642 652/91/642
f 648/86/643 652/91/643 653/92/643
f 649/81/644 653/92/644 654/88/644
f 650/89/645 654/88/645 655/94/645
f 651/93/646 650/89/646 655/95/646
f 652/91/647 651/90/647 655/96/647
f 653/92/648 652/91/648 655/97/648
f 654/88/649 653/92/649 655/98/649
f 656/77/650 657/78/650 658/79/650
f 657/78/651 656/80/651 661/81/651
f 656/82/652 658/83/652 659/84/652
f 656/85/653 659/84/653 660/86/653
f 656/87/654 660/86/654 661/81/654
f 657/78/655 661/81/655 666/88/655
f 658/79/656 657/78/656 662/89/656
f 659/84/657 658/83/657 663/90/657
f 660/86/658 659/84/658 664/91/658
f 661/81/659 660/86/659 665/92/659
f 657/78/660 666/88/660 662/89/660
f 658/79/661 662/89/661 663/93/661
f 659/84/662 663/90/662 664/91/662
f 660/86/663 664/91/663 665/92/663
f 661/81/664 665/92/664 666/88/664
f 662/89/665 666/88/665 667/94/665
f 663/93/666 662/89/666 667/95/666
f 664/91/667 663/90/667 667/96/667
f 665/92/668 664/91/668 667/97/668
f 666/88/669 665/92/669 667/98/669
f 668/77/670 669/78/670 670/79/670
f 669/78/671 668/80/671 673/81/671
f 668/82/672 670/83/672 671/84/672
f 668/85/673 671/84/673 672/86/673
f 668/87/674 672/86/674 673/81/674
f 669/78/675 673/81/675 678/88/675
f 670/79/676 669/78/676 674/89/676
f 671/84/677 670/83/677 675/90/677
f 672/86/678 671/84/678 676/91/678
f 673/81/679 672/86/679 677/92/679
f 669/78/680 678/88/680 674/89/680
f 670/79/681 674/89/681 675/93/681
f 671/84/682 675/90/682 676/91/682
f 672/86/683 676/91/683 677/92/683
f 673/81/684 677/92/684 678/88/684
f 674/89/685 678/88/685 679/94/685
f 675/93/686 674/89/686 679/95/686
f 676/91/687 675/90/687 679/96/687
f 677/92/688 676/91/688 679/97/688
f 678/88/689 677/92/689 679/98/689
f 680/77/690 681/78/690 682/79/690
f 681/78/691 680/80/691 685/81/691
f 680/82/692 682/83/692 683/84/692
f 680/85/693 683/84/693 684/86/693
f 680/87/694 684/86/694 685/81/694
f 681/78/695 685/81/695 690/88/695
f 682/79/696 681/78/696 686/89/696
f 683/84/697 682/83/697 687/90/697
f 684/86/698 683/84/698 688/91/698
f 685/81/699 684/86/699 689/92/699
f 681/78/700 690/88/700 686/89/700
f 682/79/701 686/89/701 687/93/701
f 683/84/702 687/90/702 688/91/702
f 684/86/703 688/91/703 689/92/703
f 685/81/704 689/92/704 690/88/704
f 686/89/705 690/88/705 691/94/705
f 687/93/706 686/89/706 691/95/706
f 688/91/707 687/90/707 691/96/707
f 689/92/708 688/91/708 691/97/708
f 690/88/709 689/92/709 691/98/709
f 692/77/710 693/78/710 694/79/710
f 693/78/711 692/80/711 697/81/711
f 692/82/712 694/83/712 695/84/712
f 692/85/713 695/84/713 696/86/713
f 692/87/714 696/86/714 697/81/714
f 693/78/715 697/81/715 702/88/715
f 694/79/716 693/78/716 698/89/716
f 695/84/717 694/83/717 699/90/717
f 696/86/718 695/84/718 700/91/718
f 697/81/719 696/86/719 701/92/719
f 693/78/720 702/88/720 698/89/720
f 694/79/721 698/89/721 699/93/721
f 695/84/722 699/90/722 700/91/722
f 696/86/723 700/91/723 701/92/723
f 697/81/724 701/92/724 702/88/724
f 698/89/725 702/88/725 703/94/725
f 699/93/726 698/89/726 703/95/726
f 700/91/727 699/90/727 703/96/727
f 701/92/728 700/91/728 703/97/728
f 702/88/729 701/92/729 703/98/729
f 704/77/730 705/78/730 706/79/730
f 705/78/731 704/80/731 709/81/731
f 704/82/732 706/83/732 707/84/732
f 704/85/733 707/84/733 708/86/733
f 704/87/734 708/86/734 709/81/734
f 705/78/735 709/81/735 714/88/735
f 706/79/736 705/78/736 710/89/736
f 707/84/737 706/83/737 711/90/737
f 708/86/738 707/84/738 712/91/738
f 709/81/739 708/86/739 713/92/739
f 705/78/740 714/88/740 710/89/740
f 706/79/741 710/89/741 711/93/741
f 707/84/742 711/90/742 712/91/742
f 708/86/743 712/91/743 713/92/743
f 709/81/744 713/92/744 714/88/744
f 710/89/745 714/88/745 715/94/745
f 711/93/746 710/89/746 715/95/746
f 712/91/747 711/90/747 715/96/747
f 713/92/748 712/91/748 715/97/748
f 714/88/749 713/92/749 715/98/749
f 716/77/750 717/78/750 718/79/750
f 717/78/751 716/80/751 721/81/751
f 716/82/752 718/83/752 719/84/752
f 716/85/753 719/84/753 720/86/753
f 716/87/754 720/86/754 721/81/754
f 717/78/755 721/81/755 726/88/755
f 718/79/756 717/78/756 722/89/756
f 719/84/757 718/83/757 723/90/757
f 720/86/758 719/84/758 724/91/758
f 721/81/759 720/86/759 725/92/759
f 717/78/760 726/88/760 722/89/760
f 718/79/761 722/89/761 723/93/761
f 719/84/762 723/90/762 724/91/762
f 720/86/763 724/91/763 725/92/763
f 721/81/764 725/92/764 726/88/764
f 722/89/765 726/88/765 727/94/765
f 723/93/766 722/89/766 727/95/766
f 724/91/767 723/90/767 727/96/767
f 725/92/768 724/91/768 727/97/768
f 726/88/769 725/92/769 727/98/769
f 728/77/770 729/78/770 730/79/770
f 729/78/771 728/80/771 733/81/771
f 728/82/772 730/83/772 731/84/772
f 728/85/773 731/84/773 732/86/773
f 728/87/774 732/86/774 733/81/774
f 729/78/775 733/81/775 738/88/775
f 730/79/776 729/78/776 734/89/776
f 731/84/777 730/83/777 735/90/777
f 732/86/778 731/84/778 736/91/778
f 733/81/779 732/86/779 737/92/779
f 729/78/780 738/88/780 734/89/780
f 730/79/781 734/89/781 735/93/781
f 731/84/782 735/90/782 736/91/782
f 732/86/783 736/91/783 737/92/783
f 733/81/784 737/92/784 738/88/784
f 734/89/785 738/88/785 739/94/785
f 735/93/786 734/89/786 739/95/786
f 736/91/787 735/90/787 739/96/787
f 737/92/788 736/91/788 739/97/788
f 738/88/789 737/92/789 739/98/789
f 740/77/790 741/78/790 742/79/790
f 741/78/791 740/80/791 745/81/791
f 740/82/792 742/83/792 743/84/792
f 740/85/793 743/84/793 744/86/793
f 740/87/794 744/86/794 745/81/794
f 741/78/795 745/81/795 750/88/795
f 742/79/796 741/78/796 746/89/796
f 743/84/797 742/83/797 747/90/797
f 744/86/798 743/84/798 748/91/798
f 745/81/799 744/86/799 749/92/799
f 741/78/800 750/88/800 746/89/800
f 742/79/801 746/89/801 747/93/801
f 743/84/802 747/90/802 748/91/802
f 744/86/803 748/91/803 749/92/803
f 745/81/804 749/92/804 750/88/804
f 746/89/805 750/88/805 751/94/805
f 747/93/806 746/89/806 751/95/806
f 748/91/807 747/90/807 751/96/807
f 749/92/808 748/91/808 751/97/808
f 750/88/809 749/92/809 751/98/809
f 752/77/810 753/78/810 754/79/810
f 753/78/811 752/80/811 757/81/811
f 752/82/812 754/83/812 755/84/812
f 752/85/813 755/84/813 756/86/813
f 752/87/814 756/86/814 757/81/814
f 753/78/815 757/81/815 762/88/815
f 754/79/816 753/78/816 758/89/816
f 755/84/817 754/83/817 759/90/817
f 756/86/818 755/84/818 760/91/818
f 757/81/819 756/86/819 761/92/819
f 753/78/820 762/88/820 758/89/820
f 754/79/821 758/89/821 759/93/821
f 755/84/822 759/90/822 760/91/822
f 756/86/823 760/91/823 761/92/823
f 757/81/824 761/92/824 762/88/824
f 758/89/825 762/88/825 763/94/825
f 759/93/826 758/89/826 763/95/826
f 760/91/827 759/90/827 763/96/827
f 761/92/828 760/91/828 763/97/828
f 762/88/829 761/92/829 763/98/829
f 764/77/830 765/78/830 766/79/830
f 765/78/831 764/80/831 769/81/831
f 764/82/832 766/83/832 767/84/832
f 764/85/833 767/84/833 768/86/833
f 764/87/834 768/86/834 769/81/834
f 765/78/835 769/81/835 774/88/835
f 766/79/836 765/78/836 770/89/836
f 767/84/837 766/83/837 771/90/837
f 768/86/838 767/84/838 772/91/838
f 769/81/839 768/86/839 773/92/839
f 765/78/840 774/88/840 770/89/840
f 766/79/841 770/89/841 771/93/841
f 767/84/842 771/90/842 772/91/842
f 768/86/843 772/91/843 773/92/843
f 769/81/844 773/92/844 774/88/844
f 770/89/845 774/88/845 775/94/845
f 771/93/846 770/89/846 775/95/846
f 772/91/847 771/90/847 775/96/847
f 773/92/848 772/91/848 775/97/848
f 774/88/849 773/92/849 775/98/849
f 776/77/850 777/78/850 778/79/850
f 777/78/851 776/80/851 781/81/851
f 776/82/852 778/83/852 779/84/852
f 776/85/853 779/84/853 780/86/853
f 776/87/854 780/86/854 781/81/854
f 777/78/855 781/81/855 786/88/855
f 778/79/856 777/78/856 782/89/856
f 779/84/857 778/83/857 783/90/857
f 780/86/858 779/84/858 784/91/858
f 781/81/859 780/86/859 785/92/859
f 777/78/860 786/88/860 782/89/860
f 778/79/861 782/89/861 783/93/861
f 779/84/862 783/90/862 784/91/862
f 780/86/863 784/91/863 785/92/863
f 781/81/864 785/92/864 786/88/864
f 782/89/865 786/88/865 787/94/865
f 783/93/866 782/89/866 787/95/866
f 784/91/867 783/90/867 787/96/867
f 785/92/868 784/91/868 787/97/868
f 786/88/869 785/92/869 787/98/869
f 788/77/870 789/78/870 790/79/870
f 789/78/871 788/80/871 793/81/871
f 788/82/872 790/83/872 791/84/872
f 788/85/873 791/84/873 792/86/873
f 788/87/874 792/86/874 793/81/874
f 789/78/875 793/81/875 798/88/875
f 790/79/876 789/78/876 794/89/876
f 791/84/877 790/83/877 795/90/877
f 792/86/878 791/84/878 796/91/878
f 793/81/879 792/86/879 797/92/879
f 789/78/880 798/88/880 794/89/880
f 790/79/881 794/89/881 795/93/881
f 791/84/882 795/90/882 796/91/882
f 792/86/883 796/91/883 797/92/883
f 793/81/884 797/92/884 798/88/884
f 794/89/885 798/88/885 799/94/885
f 795/93/886 794/89/886 799/95/886
f 796/91/887 795/90/887 799/96/887
f 797/92/888 796/91/888 799/97/888
f 798/88/889 797/92/889 799/98/889
f 800/77/890 801/78/890 802/79/890
f 801/78/891 800/80/891 805/81/891
f 800/82/892 802/83/892 803/84/892
f 800/85/893 803/84/893 804/86/893
f 800/87/894 804/86/894 805/81/894
f 801/78/895 805/81/895 810/88/895
f 802/79/896 801/78/896 806/89/896
f 803/84/897 802/83/897 807/90/897
f 804/86/898 803/84/898 808/91/898
f 805/81/899 804/86/899 809/92/899
f 801/78/900 810/88/900 806/89/900
f 802/79/901 806/89/901 807/93/901
f 803/84/902 807/90/902 808/91/902
f 804/86/903 808/91/903 809/92/903
f 805/81/904 809/92/904 810/88/904
f 806/89/905 810/88/905 811/94/905
f 807/93/906 806/89/906 811/95/906
f 808/91/907 807/90/907 811/96/907
f 809/92/908 808/91/908 811/97/908
f 810/88/909 809/92/909 811/98/909
f 812/77/630 813/78/630 814/79/630
f 813/78/631 812/80/631 817/81/631
f 812/82/632 814/83/632 815/84/632
f 812/85/633 815/84/633 816/86/633
f 812/87/634 816/86/634 817/81/634
f 813/78/635 817/81/635 822/88/635
f 814/79/636 813/78/636 818/89/636
f 815/84/637 814/83/637 819/90/637
f 816/86/638 815/84/638 820/91/638
f 817/81/639 816/86/639 821/92/639
f 813/78/640 822/88/640 818/89/640
f 814/79/641 818/89/641 819/93/641
f 815/84/642 819/90/642 820/91/642
f 816/86/643 820/91/643 821/92/643
f 817/81/644 821/92/644 822/88/644
f 818/89/645 822/88/645 823/94/645
f 819/93/646 818/89/646 823/95/646
f 820/91/647 819/90/647 823/96/647
f 821/92/648 820/91/648 823/97/648
f 822/88/649 821/92/649 823/98/649
