# Blender 5.0.0
# www.blender.org
o Tent
v -30.129646 -0.110430 2.495408
v -30.124043 -0.010005 2.479094
v -30.123770 -0.110430 2.498096
v -30.115091 -0.010005 2.483188
v -30.118530 -0.110430 2.501879
v -30.106197 -0.020640 2.493535
v -30.114130 -0.110430 2.506611
v -30.100407 -0.010005 2.496159
v -30.110737 -0.110430 2.512110
v -30.095240 -0.010005 2.504537
v -30.108482 -0.110430 2.518167
v -30.091806 -0.010005 2.513762
v -30.107454 -0.110430 2.524546
v -30.090237 -0.010005 2.523480
v -30.107689 -0.110430 2.531003
v -30.103220 -0.018795 2.525656
v -30.109179 -0.110430 2.537291
v -30.092865 -0.010005 2.542895
v -30.111866 -0.110430 2.543167
v -30.096958 -0.010005 2.551846
v -30.115650 -0.110430 2.548406
v -30.102722 -0.010005 2.559827
v -30.120380 -0.110430 2.552807
v -30.109930 -0.010005 2.566529
v -30.125881 -0.110430 2.556199
v -30.118307 -0.010005 2.571697
v -30.131937 -0.110430 2.558454
v -30.127533 -0.010005 2.575132
v -30.138317 -0.110430 2.559483
v -30.137249 -0.010005 2.576700
v -30.144773 -0.110430 2.559249
v -30.147087 -0.010005 2.576343
v -30.151062 -0.110430 2.557759
v -30.156666 -0.010005 2.574073
v -30.156939 -0.110430 2.555071
v -30.165617 -0.010005 2.569978
v -30.162176 -0.110430 2.551288
v -30.173597 -0.010005 2.564216
v -30.166576 -0.110430 2.546556
v -30.176992 0.002623 2.555110
v -30.169970 -0.110430 2.541056
v -30.185469 -0.010005 2.548630
v -30.172224 -0.110430 2.535000
v -30.188902 -0.010005 2.539405
v -30.173254 -0.110430 2.528621
v -30.190470 -0.010005 2.529687
v -30.173019 -0.110430 2.522163
v -30.190113 -0.010005 2.519850
v -30.171530 -0.110430 2.515875
v -30.183596 -0.008190 2.516575
v -30.168840 -0.110430 2.509999
v -30.183748 -0.010005 2.501320
v -30.165058 -0.110430 2.504760
v -30.177986 -0.010005 2.493340
v -30.160326 -0.110430 2.500360
v -30.170778 -0.010005 2.486637
v -30.154827 -0.110430 2.496967
v -30.162399 -0.010005 2.481469
v -30.148771 -0.110430 2.494713
v -30.153175 -0.010005 2.478035
v -30.142391 -0.110430 2.493683
v -30.132519 -0.018823 2.488981
v -30.135933 -0.110430 2.493918
v -30.133621 -0.010005 2.476824
v -29.920963 -0.098742 -1.604036
v -28.507471 2.813152 -1.588835
v -27.009081 -0.098742 -1.595698
v -28.507109 2.813152 -1.599988
v -29.929300 -0.098742 1.307845
v -28.515644 2.813130 1.311799
v -27.017420 -0.098742 1.316183
v -28.515448 2.813152 1.311894
v -26.731716 -0.110430 2.493753
v -26.748030 -0.010005 2.488150
v -26.729027 -0.110430 2.487877
v -26.743935 -0.010005 2.479198
v -26.725245 -0.110430 2.482638
v -26.733589 -0.020640 2.470306
v -26.720512 -0.110430 2.478238
v -26.730965 -0.010005 2.464515
v -26.715012 -0.110430 2.474845
v -26.722586 -0.010005 2.459347
v -26.708958 -0.110430 2.472591
v -26.713362 -0.010005 2.455913
v -26.702578 -0.110430 2.471561
v -26.703644 -0.010005 2.454345
v -26.696119 -0.110430 2.471796
v -26.701468 -0.018795 2.467327
v -26.689833 -0.110430 2.473286
v -26.684229 -0.010005 2.456972
v -26.683956 -0.110430 2.475974
v -26.675278 -0.010005 2.461066
v -26.678717 -0.110430 2.479757
v -26.667297 -0.010005 2.466829
v -26.674316 -0.110430 2.484489
v -26.660593 -0.010005 2.474037
v -26.670923 -0.110430 2.489989
v -26.655426 -0.010005 2.482415
v -26.668671 -0.110430 2.496044
v -26.651993 -0.010005 2.491640
v -26.667641 -0.110430 2.502424
v -26.650423 -0.010005 2.501358
v -26.667875 -0.110430 2.508881
v -26.650782 -0.010005 2.511194
v -26.669365 -0.110430 2.515169
v -26.653049 -0.010005 2.520773
v -26.672052 -0.110430 2.521045
v -26.657145 -0.010005 2.529724
v -26.675835 -0.110430 2.526284
v -26.662907 -0.010005 2.537704
v -26.680569 -0.110430 2.530685
v -26.672012 0.002623 2.541100
v -26.686068 -0.110430 2.534077
v -26.678493 -0.010005 2.549575
v -26.692123 -0.110430 2.536332
v -26.687717 -0.010005 2.553010
v -26.698502 -0.110430 2.537361
v -26.697437 -0.010005 2.554578
v -26.704960 -0.110430 2.537127
v -26.707273 -0.010005 2.554221
v -26.711248 -0.110430 2.535637
v -26.710548 -0.008190 2.547703
v -26.717125 -0.110430 2.532949
v -26.725803 -0.010005 2.547856
v -26.722363 -0.110430 2.529166
v -26.733784 -0.010005 2.542094
v -26.726763 -0.110430 2.524434
v -26.740486 -0.010005 2.534885
v -26.730156 -0.110430 2.518934
v -26.745653 -0.010005 2.526508
v -26.732410 -0.110430 2.512878
v -26.749088 -0.010005 2.517283
v -26.733440 -0.110430 2.506499
v -26.738142 -0.018823 2.496627
v -26.733206 -0.110430 2.500041
v -26.750299 -0.010005 2.497728
v -26.890432 -0.110430 -2.997708
v -26.889242 -0.010005 -3.014916
v -26.884062 -0.110430 -2.996633
v -26.879538 -0.010005 -3.013278
v -26.878021 -0.110430 -2.994335
v -26.868269 -0.020640 -3.005586
v -26.872547 -0.110430 -2.990903
v -26.861996 -0.010005 -3.004550
v -26.867846 -0.110430 -2.986468
v -26.854836 -0.010005 -2.997795
v -26.864101 -0.110430 -2.981202
v -26.849133 -0.010005 -2.989773
v -26.861456 -0.110430 -2.975307
v -26.845102 -0.010005 -2.980793
v -26.860010 -0.110430 -2.969009
v -26.857079 -0.018795 -2.975331
v -26.859823 -0.110430 -2.962549
v -26.842615 -0.010005 -2.961359
v -26.860899 -0.110430 -2.956177
v -26.844254 -0.010005 -2.951653
v -26.863195 -0.110430 -2.950138
v -26.847754 -0.010005 -2.942453
v -26.866629 -0.110430 -2.944663
v -26.852982 -0.010005 -2.934113
v -26.871063 -0.110430 -2.939963
v -26.859735 -0.010005 -2.926953
v -26.876329 -0.110430 -2.936218
v -26.867758 -0.010005 -2.921248
v -26.882225 -0.110430 -2.933572
v -26.876738 -0.010005 -2.917218
v -26.888523 -0.110430 -2.932127
v -26.886332 -0.010005 -2.915017
v -26.894981 -0.110430 -2.931939
v -26.896172 -0.010005 -2.914730
v -26.901354 -0.110430 -2.933015
v -26.905878 -0.010005 -2.916369
v -26.907393 -0.110430 -2.935313
v -26.915077 -0.010005 -2.919869
v -26.912868 -0.110430 -2.938745
v -26.920715 0.002623 -2.927786
v -26.917568 -0.110430 -2.943178
v -26.930578 -0.010005 -2.931852
v -26.921314 -0.110430 -2.948445
v -26.936283 -0.010005 -2.939874
v -26.923960 -0.110430 -2.954340
v -26.940313 -0.010005 -2.948854
v -26.925404 -0.110430 -2.960639
v -26.942514 -0.010005 -2.958449
v -26.925592 -0.110430 -2.967098
v -26.937065 -0.008190 -2.963299
v -26.924517 -0.110430 -2.973469
v -26.941162 -0.010005 -2.977993
v -26.922218 -0.110430 -2.979509
v -26.937662 -0.010005 -2.987194
v -26.918787 -0.110430 -2.984984
v -26.932434 -0.010005 -2.995534
v -26.914352 -0.110430 -2.989685
v -26.925678 -0.010005 -3.002694
v -26.909086 -0.110430 -2.993429
v -26.917658 -0.010005 -3.008399
v -26.903191 -0.110430 -2.996075
v -26.894873 -0.018823 -3.003172
v -26.896893 -0.110430 -2.997519
v -26.899082 -0.010005 -3.014630
v -30.364874 -0.110430 -2.936387
v -30.381804 -0.010005 -2.933083
v -30.365484 -0.110430 -2.942820
v -30.382734 -0.010005 -2.942882
v -30.364828 -0.110430 -2.949248
v -30.378220 -0.020640 -2.955757
v -30.362930 -0.110430 -2.955425
v -30.378841 -0.010005 -2.962084
v -30.359863 -0.110430 -2.961113
v -30.374170 -0.010005 -2.970748
v -30.355745 -0.110430 -2.966093
v -30.367899 -0.010005 -2.978335
v -30.350735 -0.110430 -2.970175
v -30.360268 -0.010005 -2.984552
v -30.345026 -0.110430 -2.973200
v -30.351892 -0.018795 -2.974396
v -30.338837 -0.110430 -2.975054
v -30.342140 -0.010005 -2.991984
v -30.332403 -0.110430 -2.975664
v -30.332340 -0.010005 -2.992913
v -30.325974 -0.110430 -2.975008
v -30.322548 -0.010005 -2.991914
v -30.319798 -0.110430 -2.973109
v -30.313139 -0.010005 -2.989022
v -30.314110 -0.110430 -2.970043
v -30.304474 -0.010005 -2.984351
v -30.309130 -0.110430 -2.965926
v -30.296888 -0.010005 -2.978079
v -30.305048 -0.110430 -2.960916
v -30.290670 -0.010005 -2.970447
v -30.302023 -0.110430 -2.955206
v -30.286062 -0.010005 -2.961750
v -30.300169 -0.110430 -2.949016
v -30.283237 -0.010005 -2.952320
v -30.299559 -0.110430 -2.942583
v -30.282309 -0.010005 -2.942521
v -30.300215 -0.110430 -2.936154
v -30.283310 -0.010005 -2.932728
v -30.302113 -0.110430 -2.929977
v -30.289497 0.002623 -2.925234
v -30.305180 -0.110430 -2.924289
v -30.290871 -0.010005 -2.914655
v -30.309298 -0.110430 -2.919309
v -30.297144 -0.010005 -2.907068
v -30.314306 -0.110430 -2.915228
v -30.304775 -0.010005 -2.900851
v -30.320017 -0.110430 -2.912202
v -30.313473 -0.010005 -2.896242
v -30.326206 -0.110430 -2.910349
v -30.319569 -0.008190 -2.900249
v -30.332640 -0.110430 -2.909739
v -30.332703 -0.010005 -2.892489
v -30.339067 -0.110430 -2.910395
v -30.342495 -0.010005 -2.893489
v -30.345245 -0.110430 -2.912293
v -30.351904 -0.010005 -2.896380
v -30.350933 -0.110430 -2.915359
v -30.360567 -0.010005 -2.901052
v -30.355913 -0.110430 -2.919477
v -30.368155 -0.010005 -2.907324
v -30.359995 -0.110430 -2.924487
v -30.369003 -0.018823 -2.930685
v -30.363020 -0.110430 -2.930197
v -30.378981 -0.010005 -2.923653
v -28.361708 -0.247228 1.892896
v -28.333166 -0.153046 1.731719
v -28.505699 -0.081539 -2.583419
vn 0.4100 -0.1685 -0.8964
vn 0.6338 -0.1625 -0.7562
vn 0.6841 -0.1639 -0.7107
vn 0.8389 -0.1685 -0.5175
vn 0.9238 -0.1685 -0.3439
vn 0.9731 -0.1685 -0.1570
vn 0.5632 -0.0360 0.8255
vn 0.9429 -0.1016 -0.3173
vn 0.8964 -0.1685 0.4101
vn 0.7992 -0.1685 0.5770
vn 0.6712 -0.1685 0.7219
vn 0.5175 -0.1685 0.8389
vn 0.3439 -0.1685 0.9238
vn 0.1570 -0.1685 0.9731
vn -0.0358 -0.1685 0.9851
vn -0.2273 -0.1685 0.9591
vn -0.4100 -0.1685 0.8964
vn -0.5771 -0.1685 0.7991
vn -0.9104 -0.1326 0.3920
vn -0.6296 -0.1342 0.7652
vn -0.9238 -0.1685 0.3439
vn -0.9731 -0.1685 0.1571
vn -0.9851 -0.1685 -0.0358
vn -0.7511 -0.1132 -0.6504
vn -0.9851 -0.1353 -0.1066
vn -0.7992 -0.1685 -0.5770
vn -0.6712 -0.1685 -0.7219
vn -0.5175 -0.1685 -0.8389
vn -0.3439 -0.1685 -0.9238
vn 0.3092 -0.1139 -0.9442
vn 0.0353 0.9989 -0.0296
vn -0.9155 0.0124 -0.4021
vn 0.2273 -0.1685 -0.9591
vn -0.0000 -1.0000 -0.0000
vn -0.5542 0.2702 -0.7873
vn 0.8892 0.4575 0.0025
vn 0.2920 0.1516 0.9443
vn -0.8996 0.4367 -0.0026
vn -0.0411 0.9992 -0.0001
vn -0.8964 -0.1685 -0.4100
vn -0.7562 -0.1624 -0.6338
vn -0.7107 -0.1639 -0.6841
vn -0.1571 -0.1685 -0.9731
vn 0.8255 -0.0360 -0.5632
vn -0.3173 -0.1016 -0.9429
vn 0.4101 -0.1685 -0.8964
vn 0.5770 -0.1685 -0.7992
vn 0.7218 -0.1685 -0.6712
vn 0.9731 -0.1685 -0.1571
vn 0.9850 -0.1685 0.0358
vn 0.9591 -0.1685 0.2273
vn 0.3919 -0.1326 0.9104
vn 0.7652 -0.1342 0.6296
vn 0.1571 -0.1685 0.9731
vn -0.6504 -0.1132 0.7511
vn -0.1066 -0.1353 0.9851
vn -0.5770 -0.1685 0.7991
vn -0.7218 -0.1685 0.6712
vn -0.8389 -0.1685 0.5175
vn -0.9442 -0.1139 -0.3092
vn -0.0296 0.9989 -0.0353
vn -0.4021 0.0125 0.9155
vn -0.9591 -0.1685 -0.2273
vn 0.1640 -0.1685 -0.9720
vn 0.4165 -0.1624 -0.8945
vn 0.4769 -0.1639 -0.8636
vn 0.6764 -0.1685 -0.7170
vn 0.8033 -0.1685 -0.5713
vn 0.8993 -0.1685 -0.4036
vn 0.7577 -0.0360 0.6516
vn 0.8286 -0.1016 -0.5505
vn 0.9720 -0.1685 0.1641
vn 0.9213 -0.1685 0.3505
vn 0.8352 -0.1685 0.5235
vn 0.7170 -0.1685 0.6764
vn 0.5713 -0.1685 0.8033
vn 0.4036 -0.1685 0.8993
vn 0.2204 -0.1685 0.9608
vn 0.0287 -0.1685 0.9853
vn -0.1641 -0.1685 0.9719
vn -0.3505 -0.1685 0.9213
vn -0.7779 -0.1326 0.6142
vn -0.4101 -0.1342 0.9021
vn -0.8033 -0.1685 0.5713
vn -0.8993 -0.1685 0.4036
vn -0.9608 -0.1685 0.2204
vn -0.8938 -0.1133 -0.4338
vn -0.9791 -0.1353 0.1520
vn -0.9213 -0.1685 -0.3505
vn -0.8352 -0.1685 -0.5235
vn -0.7170 -0.1685 -0.6764
vn -0.5713 -0.1685 -0.8033
vn 0.0542 -0.1139 -0.9920
vn 0.0264 0.9989 -0.0377
vn -0.9884 0.0125 -0.1514
vn -0.0287 -0.1685 -0.9853
vn -0.9813 -0.1685 0.0931
vn -0.9718 -0.1625 -0.1708
vn -0.9576 -0.1639 -0.2371
vn -0.8676 -0.1685 -0.4678
vn -0.7597 -0.1685 -0.6281
vn -0.6226 -0.1685 -0.7642
vn 0.4334 -0.0360 -0.9005
vn -0.7462 -0.1016 -0.6579
vn -0.0931 -0.1685 -0.9813
vn 0.1001 -0.1685 -0.9806
vn 0.2895 -0.1685 -0.9422
vn 0.4678 -0.1685 -0.8676
vn 0.6281 -0.1685 -0.7597
vn 0.7642 -0.1685 -0.6226
vn 0.8710 -0.1685 -0.4615
vn 0.9443 -0.1685 -0.2827
vn 0.9813 -0.1685 -0.0931
vn 0.9806 -0.1685 0.1002
vn 0.7946 -0.1326 0.5925
vn 0.9775 -0.1342 0.1626
vn 0.7597 -0.1685 0.6280
vn 0.6226 -0.1685 0.7642
vn 0.4615 -0.1685 0.8710
vn -0.1877 -0.1132 0.9757
vn 0.4002 -0.1353 0.9064
vn -0.1001 -0.1685 0.9806
vn -0.2895 -0.1685 0.9422
vn -0.4678 -0.1685 0.8676
vn -0.6281 -0.1685 0.7597
vn -0.9722 -0.1139 0.2044
vn -0.0433 0.9989 -0.0157
vn 0.1095 0.0125 0.9939
vn -0.9443 -0.1685 0.2827
vn -0.3319 0.1598 0.9297
vn 0.5321 0.2726 -0.8016
vt 0.341364 0.399055
vt 0.341013 0.387021
vt 0.342136 0.387002
vt 0.342101 0.399043
vt 0.343449 0.388328
vt 0.342786 0.399055
vt 0.344104 0.387075
vt 0.343393 0.399091
vt 0.688234 0.013878
vt 0.689889 0.004127
vt 0.690754 0.004682
vt 0.688801 0.014243
vt 0.691742 0.005176
vt 0.689450 0.014567
vt 0.692816 0.005591
vt 0.690155 0.014840
vt 0.342458 0.460678
vt 0.342458 0.448780
vt 0.343803 0.450021
vt 0.342515 0.460574
vt 0.690889 0.015050
vt 0.693002 0.005880
vt 0.695053 0.006123
vt 0.691624 0.015189
vt 0.696130 0.006219
vt 0.692331 0.015252
vt 0.697125 0.006196
vt 0.692984 0.015237
vt 0.689658 0.111183
vt 0.688234 0.099233
vt 0.689097 0.099123
vt 0.690225 0.111111
vt 0.690097 0.099042
vt 0.690881 0.111058
vt 0.691193 0.098992
vt 0.691600 0.111025
vt 0.692344 0.098975
vt 0.692356 0.111014
vt 0.693506 0.098992
vt 0.693119 0.111025
vt 0.694633 0.099042
vt 0.693859 0.111058
vt 0.695684 0.099123
vt 0.694548 0.111111
vt 0.696616 0.099233
vt 0.695161 0.111183
vt 0.401668 0.818376
vt 0.392508 0.627827
vt 0.411749 0.605015
vt 0.411749 0.817913
vt 0.341026 0.472732
vt 0.341026 0.459314
vt 0.342160 0.460807
vt 0.341425 0.472793
vt 0.236042 0.799729
vt 0.214261 0.610139
vt 0.232252 0.608395
vt 0.247853 0.798584
vt 0.250648 0.607194
vt 0.259929 0.797795
vt 0.268742 0.606582
vt 0.271808 0.797393
vt 0.272815 0.605015
vt 0.283032 0.797393
vt 0.301282 0.607194
vt 0.293169 0.797795
vt 0.314478 0.608395
vt 0.301832 0.798584
vt 0.324918 0.610139
vt 0.308686 0.799729
vt 0.324918 0.795923
vt 0.324918 0.605227
vt 0.337540 0.605015
vt 0.333204 0.795784
vt 0.352495 0.605506
vt 0.343022 0.796106
vt 0.392508 0.628791
vt 0.353995 0.796878
vt 0.164954 0.781457
vt 0.147924 0.788508
vt 0.129850 0.792103
vt 0.133325 0.769946
vt 0.093359 0.788508
vt 0.076344 0.781457
vt 0.061035 0.771219
vt 0.048021 0.758190
vt 0.037801 0.742869
vt 0.039038 0.714237
vt 0.027192 0.707772
vt 0.027212 0.689346
vt 0.030825 0.671273
vt 0.037894 0.654249
vt 0.053392 0.641971
vt 0.061189 0.625898
vt 0.076519 0.615661
vt 0.093549 0.608609
vt 0.111623 0.605015
vt 0.130048 0.605015
vt 0.148114 0.608609
vt 0.165129 0.615661
vt 0.180438 0.625898
vt 0.193452 0.638928
vt 0.203672 0.654249
vt 0.210705 0.671273
vt 0.190692 0.703328
vt 0.214261 0.707772
vt 0.210648 0.725845
vt 0.203579 0.742869
vt 0.193326 0.758190
vt 0.182992 0.763322
vt 0.047235 0.976726
vt 0.027192 0.811519
vt 0.047235 0.792103
vt 0.045243 0.978938
vt 0.050616 0.982844
vt 0.065655 0.792103
vt 0.062708 0.982844
vt 0.360065 0.693898
vt 0.359773 0.693193
vt 0.359624 0.692444
vt 0.359624 0.691680
vt 0.359773 0.690931
vt 0.360065 0.690226
vt 0.360489 0.689591
vt 0.361029 0.689051
vt 0.361664 0.688626
vt 0.362370 0.688334
vt 0.363119 0.688185
vt 0.363882 0.688185
vt 0.364631 0.688334
vt 0.365337 0.688626
vt 0.365972 0.689051
vt 0.366512 0.689591
vt 0.366936 0.690226
vt 0.367228 0.690931
vt 0.367377 0.691680
vt 0.367377 0.692444
vt 0.367228 0.693193
vt 0.366936 0.693898
vt 0.366512 0.694533
vt 0.365972 0.695073
vt 0.365337 0.695497
vt 0.364631 0.695790
vt 0.363882 0.695939
vt 0.363119 0.695939
vt 0.362370 0.695790
vt 0.361664 0.695497
vt 0.361029 0.695073
vt 0.360489 0.694533
vt 0.918741 0.875628
vt 0.269598 0.518653
vt 0.269226 0.519018
vt 0.911580 0.521926
vt 0.563245 -0.018245
vt 0.559174 0.524370
vt -0.000468 0.524370
vt 0.003602 -0.018245
vt 0.859143 0.963595
vt 0.000449 0.519136
vt 0.859143 0.738051
vt 0.545450 1.004484
vt 0.551412 0.534956
vt 0.999653 0.524948
vt 0.995430 0.994445
vt 0.344117 0.000018
vt -0.000000 0.000018
vt 0.001318 0.000000
vt 0.344106 0.000010
vt 0.231602 0.817209
vt 0.220638 0.654772
vt 0.231769 0.653771
vt 0.238909 0.816552
vt 0.251123 0.670687
vt 0.247496 0.816217
vt 0.259377 0.653260
vt 0.257033 0.816217
vt 0.274793 0.653771
vt 0.267153 0.816552
vt 0.290505 0.654772
vt 0.277467 0.817209
vt 0.305909 0.656225
vt 0.287579 0.818163
vt 0.693108 0.029421
vt 0.688234 0.019775
vt 0.689995 0.020357
vt 0.693229 0.029749
vt 0.358207 0.816258
vt 0.337077 0.671371
vt 0.366891 0.653260
vt 0.366891 0.816204
vt 0.690949 0.196372
vt 0.689888 0.184379
vt 0.691008 0.184294
vt 0.691684 0.196317
vt 0.692050 0.184251
vt 0.692368 0.196288
vt 0.692976 0.184251
vt 0.692976 0.196288
vt 0.694988 0.030474
vt 0.691098 0.021380
vt 0.692125 0.021378
vt 0.695663 0.030473
vt 0.693224 0.021259
vt 0.696384 0.030394
vt 0.694351 0.021026
vt 0.697124 0.030241
vt 0.695464 0.020689
vt 0.697854 0.030020
vt 0.696520 0.020261
vt 0.698547 0.029739
vt 0.697478 0.019758
vt 0.699176 0.029409
vt 0.698301 0.019200
vt 0.699717 0.029043
vt 0.691092 0.086661
vt 0.688234 0.074971
vt 0.689134 0.073325
vt 0.691646 0.086522
vt 0.690060 0.074556
vt 0.692291 0.086389
vt 0.691142 0.074374
vt 0.693001 0.086270
vt 0.692282 0.074218
vt 0.693750 0.086167
vt 0.693438 0.074095
vt 0.694508 0.086086
vt 0.693800 0.073955
vt 0.695247 0.086029
vt 0.695616 0.073962
vt 0.695938 0.085999
vt 0.310321 0.816066
vt 0.305909 0.653431
vt 0.321652 0.653260
vt 0.320655 0.815954
vt 0.337078 0.653431
vt 0.330782 0.816066
vt 0.688769 0.184108
vt 0.689048 0.172072
vt 0.690007 0.172101
vt 0.689398 0.184127
vt 0.078457 0.976700
vt 0.078457 0.813847
vt 0.091531 0.813763
vt 0.087039 0.976645
vt 0.052846 0.975227
vt 0.052846 0.813763
vt 0.078457 0.828428
vt 0.055018 0.974023
vt 0.147258 0.812206
vt 0.131594 0.813763
vt 0.115930 0.812235
vt 0.124246 0.794981
vt 0.086987 0.800280
vt 0.074820 0.790311
vt 0.064835 0.778159
vt 0.057415 0.764292
vt 0.052846 0.749242
vt 0.060932 0.726141
vt 0.052846 0.717929
vt 0.057415 0.702870
vt 0.064835 0.688989
vt 0.074821 0.676819
vt 0.090523 0.670612
vt 0.100869 0.659398
vt 0.115931 0.654818
vt 0.131595 0.653261
vt 0.147259 0.654789
vt 0.162321 0.659341
vt 0.176202 0.666744
vt 0.188369 0.676713
vt 0.198354 0.688864
vt 0.205774 0.702732
vt 0.210342 0.717782
vt 0.211885 0.733437
vt 0.187604 0.754696
vt 0.205773 0.764154
vt 0.198354 0.778035
vt 0.188368 0.790205
vt 0.176201 0.800197
vt 0.166485 0.801838
vt 0.098095 0.976582
vt 0.091531 0.831226
vt 0.103864 0.813763
vt 0.103864 0.976668
vt 0.225855 0.818163
vt 0.211885 0.656225
vt 0.375130 0.691680
vt 0.375130 0.692444
vt 0.374981 0.693193
vt 0.374689 0.693898
vt 0.374265 0.694533
vt 0.373725 0.695073
vt 0.373090 0.695497
vt 0.372385 0.695790
vt 0.371636 0.695939
vt 0.370872 0.695939
vt 0.370123 0.695790
vt 0.369417 0.695497
vt 0.368782 0.695073
vt 0.368243 0.694533
vt 0.367818 0.693898
vt 0.367526 0.693193
vt 0.367377 0.692444
vt 0.367377 0.691680
vt 0.367526 0.690931
vt 0.367818 0.690226
vt 0.368243 0.689591
vt 0.368783 0.689051
vt 0.369417 0.688626
vt 0.370123 0.688334
vt 0.370872 0.688185
vt 0.371636 0.688185
vt 0.372385 0.688334
vt 0.373090 0.688626
vt 0.373725 0.689051
vt 0.374265 0.689591
vt 0.374689 0.690226
vt 0.374982 0.690931
vt 0.284829 0.816318
vt 0.280495 0.683936
vt 0.293267 0.683737
vt 0.293213 0.816187
vt 0.309875 0.698309
vt 0.301535 0.816318
vt 0.318037 0.684527
vt 0.309474 0.816705
vt 0.083743 0.968912
vt 0.088958 0.800445
vt 0.105216 0.801213
vt 0.094416 0.969416
vt 0.121049 0.802460
vt 0.104810 0.970235
vt 0.282376 0.196266
vt 0.293618 0.145495
vt 0.298586 0.148379
vt 0.285637 0.198159
vt 0.074374 0.920346
vt 0.074233 0.908541
vt 0.075498 0.909682
vt 0.074233 0.920212
vt 0.344052 0.803222
vt 0.320444 0.653595
vt 0.351487 0.635118
vt 0.351487 0.803447
vt 0.293073 0.201144
vt 0.309913 0.152927
vt 0.315836 0.154416
vt 0.296961 0.202122
vt 0.321631 0.155298
vt 0.300766 0.202701
vt 0.327074 0.155540
vt 0.304339 0.202860
vt 0.288828 0.679812
vt 0.282376 0.616287
vt 0.286694 0.615768
vt 0.291662 0.679471
vt 0.291789 0.615411
vt 0.295007 0.679236
vt 0.297465 0.615229
vt 0.298733 0.679116
vt 0.303504 0.615229
vt 0.302698 0.679116
vt 0.309674 0.615411
vt 0.306749 0.679236
vt 0.315738 0.615768
vt 0.310729 0.679471
vt 0.321463 0.616287
vt 0.314487 0.679812
vt 0.072303 0.934114
vt 0.071629 0.922130
vt 0.072679 0.920646
vt 0.072679 0.934052
vt 0.074233 0.896603
vt 0.074233 0.883166
vt 0.075497 0.884630
vt 0.074785 0.896642
vt 0.290047 0.485265
vt 0.282377 0.421842
vt 0.287194 0.421262
vt 0.293210 0.484884
vt 0.208071 0.818686
vt 0.192777 0.687117
vt 0.205362 0.685879
vt 0.216333 0.817873
vt 0.218119 0.685026
vt 0.224707 0.817313
vt 0.222251 0.683737
vt 0.232872 0.817028
vt 0.242196 0.684591
vt 0.240514 0.817028
vt 0.252593 0.685026
vt 0.247339 0.817313
vt 0.261345 0.685879
vt 0.253084 0.817873
vt 0.268118 0.687117
vt 0.257530 0.818686
vt 0.062999 0.946224
vt 0.062999 0.813992
vt 0.071626 0.813653
vt 0.068663 0.946001
vt 0.100175 0.829029
vt 0.075407 0.946122
vt 0.065489 0.729748
vt 0.070380 0.717926
vt 0.077479 0.707287
vt 0.086656 0.719861
vt 0.097144 0.691130
vt 0.108952 0.686233
vt 0.121488 0.683737
vt 0.134271 0.683737
vt 0.146808 0.686233
vt 0.160261 0.700884
vt 0.169246 0.698238
vt 0.178286 0.707286
vt 0.185388 0.717925
vt 0.190281 0.729747
vt 0.188708 0.743380
vt 0.192777 0.755092
vt 0.190285 0.767642
vt 0.185395 0.779464
vt 0.178294 0.790103
vt 0.169257 0.799151
vt 0.158630 0.806260
vt 0.146821 0.811156
vt 0.134285 0.813653
vt 0.121503 0.813653
vt 0.108966 0.811156
vt 0.097157 0.806260
vt 0.091232 0.780709
vt 0.077488 0.790103
vt 0.070386 0.779464
vt 0.065493 0.767642
vt 0.062999 0.755093
vt 0.065548 0.747500
vt 0.113801 0.942592
vt 0.100174 0.827698
vt 0.113801 0.813653
vt 0.113684 0.943961
vt 0.276703 0.816705
vt 0.268117 0.684527
vt 0.359624 0.692444
vt 0.359475 0.693193
vt 0.359182 0.693898
vt 0.358758 0.694533
vt 0.358218 0.695073
vt 0.357583 0.695498
vt 0.356878 0.695790
vt 0.356129 0.695939
vt 0.355365 0.695939
vt 0.354616 0.695790
vt 0.353911 0.695497
vt 0.353276 0.695073
vt 0.352736 0.694533
vt 0.352311 0.693898
vt 0.352019 0.693193
vt 0.351870 0.692444
vt 0.351870 0.691680
vt 0.352019 0.690931
vt 0.352312 0.690226
vt 0.352736 0.689591
vt 0.353276 0.689051
vt 0.353911 0.688626
vt 0.354616 0.688334
vt 0.355365 0.688185
vt 0.356129 0.688185
vt 0.356878 0.688334
vt 0.357583 0.688627
vt 0.358218 0.689051
vt 0.358758 0.689591
vt 0.359183 0.690226
vt 0.359475 0.690931
vt 0.359624 0.691680
vt 0.226961 0.812281
vt 0.213630 0.649119
vt 0.229385 0.648103
vt 0.237305 0.811614
vt 0.250766 0.665091
vt 0.247585 0.811274
vt 0.260011 0.647585
vt 0.257409 0.811274
vt 0.273705 0.648103
vt 0.266399 0.811614
vt 0.285601 0.649119
vt 0.274207 0.812281
vt 0.295241 0.650594
vt 0.280537 0.813250
vt 0.112699 0.971551
vt 0.112699 0.808080
vt 0.129731 0.825921
vt 0.118677 0.971263
vt 0.353471 0.808767
vt 0.330944 0.663386
vt 0.356323 0.647585
vt 0.356323 0.809898
vt 0.051071 0.972533
vt 0.037908 0.809352
vt 0.051185 0.808509
vt 0.059787 0.971979
vt 0.065882 0.808080
vt 0.069435 0.971697
vt 0.081433 0.808080
vt 0.079644 0.971697
vt 0.097242 0.808509
vt 0.090021 0.971979
vt 0.112699 0.809352
vt 0.100168 0.972533
vt 0.693013 0.159890
vt 0.693777 0.147873
vt 0.694652 0.147958
vt 0.693587 0.159945
vt 0.695478 0.060980
vt 0.691478 0.051987
vt 0.692532 0.051919
vt 0.696171 0.060936
vt 0.693641 0.051734
vt 0.696898 0.060814
vt 0.694761 0.051437
vt 0.697634 0.060619
vt 0.695850 0.051041
vt 0.698349 0.060359
vt 0.696202 0.049192
vt 0.699016 0.060044
vt 0.697770 0.050015
vt 0.699609 0.059686
vt 0.689766 0.073325
vt 0.688234 0.061396
vt 0.688989 0.061274
vt 0.690262 0.073244
vt 0.689902 0.061178
vt 0.690862 0.073181
vt 0.690939 0.061112
vt 0.691542 0.073138
vt 0.691654 0.060980
vt 0.692277 0.073116
vt 0.693218 0.061078
vt 0.693038 0.073116
vt 0.694373 0.061112
vt 0.693796 0.073138
vt 0.695479 0.061178
vt 0.694523 0.073181
vt 0.696494 0.061274
vt 0.695189 0.073244
vt 0.697379 0.061396
vt 0.695770 0.073325
vt 0.295242 0.811203
vt 0.295242 0.647585
vt 0.330944 0.665794
vt 0.303579 0.811165
vt 0.156152 0.798916
vt 0.141549 0.804980
vt 0.126048 0.808080
vt 0.129008 0.789069
vt 0.094739 0.805029
vt 0.080137 0.798995
vt 0.066995 0.790226
vt 0.055819 0.779060
vt 0.047038 0.765926
vt 0.048074 0.741363
vt 0.037907 0.735827
vt 0.037907 0.720020
vt 0.040990 0.704514
vt 0.047040 0.689903
vt 0.060324 0.679356
vt 0.066998 0.665561
vt 0.080140 0.656765
vt 0.094743 0.650701
vt 0.110244 0.647601
vt 0.126050 0.647585
vt 0.141553 0.650652
vt 0.156155 0.656686
vt 0.169296 0.665455
vt 0.180473 0.676621
vt 0.189254 0.689755
vt 0.195302 0.704353
vt 0.178162 0.731869
vt 0.198385 0.735661
vt 0.195301 0.751168
vt 0.189252 0.765778
vt 0.180471 0.778931
vt 0.171610 0.783342
vt 0.341661 0.496709
vt 0.341026 0.486079
vt 0.342020 0.484754
vt 0.342020 0.496753
vt 0.216954 0.813250
vt 0.198385 0.650594
vt 0.351429 0.693898
vt 0.351005 0.694533
vt 0.350465 0.695073
vt 0.349830 0.695497
vt 0.349124 0.695790
vt 0.348375 0.695939
vt 0.347612 0.695939
vt 0.346863 0.695790
vt 0.346157 0.695497
vt 0.345522 0.695073
vt 0.344982 0.694533
vt 0.344558 0.693898
vt 0.344266 0.693193
vt 0.344117 0.692444
vt 0.344117 0.691680
vt 0.344266 0.690931
vt 0.344558 0.690226
vt 0.344982 0.689591
vt 0.345522 0.689051
vt 0.346157 0.688626
vt 0.346863 0.688334
vt 0.347612 0.688185
vt 0.348375 0.688185
vt 0.349124 0.688334
vt 0.349830 0.688626
vt 0.350465 0.689051
vt 0.351005 0.689591
vt 0.351429 0.690226
vt 0.351721 0.690931
vt 0.351870 0.691680
vt 0.351870 0.692444
vt 0.351721 0.693193
vt 0.859143 0.516921
vt 0.000459 0.519079
vt 0.859143 0.095459
vt 0.903992 0.147166
s 0
f 1/1/1 2/2/1 4/3/1 3/4/1
f 3/4/2 4/3/2 6/5/2 5/6/2
f 5/6/3 6/5/3 8/7/3 7/8/3
f 7/9/4 8/10/4 10/11/4 9/12/4
f 9/12/5 10/11/5 12/13/5 11/14/5
f 11/14/6 12/13/6 14/15/6 13/16/6
f 13/17/7 14/18/7 16/19/7 15/20/7
f 15/21/8 16/22/8 18/23/8 17/24/8
f 17/24/9 18/23/9 20/25/9 19/26/9
f 19/26/10 20/25/10 22/27/10 21/28/10
f 21/29/11 22/30/11 24/31/11 23/32/11
f 23/32/12 24/31/12 26/33/12 25/34/12
f 25/34/13 26/33/13 28/35/13 27/36/13
f 27/36/14 28/35/14 30/37/14 29/38/14
f 29/38/15 30/37/15 32/39/15 31/40/15
f 31/40/16 32/39/16 34/41/16 33/42/16
f 33/42/17 34/41/17 36/43/17 35/44/17
f 35/44/18 36/43/18 38/45/18 37/46/18
f 37/47/19 38/48/19 40/49/19 39/50/19
f 39/51/20 40/52/20 42/53/20 41/54/20
f 41/55/21 42/56/21 44/57/21 43/58/21
f 43/58/22 44/57/22 46/59/22 45/60/22
f 45/60/23 46/59/23 48/61/23 47/62/23
f 47/62/24 48/61/24 50/63/24 49/64/24
f 49/64/25 50/63/25 52/65/25 51/66/25
f 51/66/26 52/65/26 54/67/26 53/68/26
f 53/68/27 54/67/27 56/69/27 55/70/27
f 55/71/28 56/72/28 58/73/28 57/74/28
f 57/74/29 58/73/29 60/75/29 59/76/29
f 59/76/30 60/75/30 62/77/30 61/78/30
f 4/79/31 2/80/31 64/81/31 62/82/31 60/83/31 58/84/31 56/85/31 54/86/31 52/87/31 50/88/31 48/89/31 46/90/31 44/91/31 42/92/31 40/93/31 38/94/31 36/95/31 34/96/31 32/97/31 30/98/31 28/99/31 26/100/31 24/101/31 22/102/31 20/103/31 18/104/31 16/105/31 14/106/31 12/107/31 10/108/31 8/109/31 6/110/31
f 61/111/32 62/112/32 64/113/32 63/114/32
f 63/115/33 64/113/33 2/116/33 1/117/33
f 1/118/34 3/119/34 5/120/34 7/121/34 9/122/34 11/123/34 13/124/34 15/125/34 17/126/34 19/127/34 21/128/34 23/129/34 25/130/34 27/131/34 29/132/34 31/133/34 33/134/34 35/135/34 37/136/34 39/137/34 41/138/34 43/139/34 45/140/34 47/141/34 49/142/34 51/143/34 53/144/34 55/145/34 57/146/34 59/147/34 61/148/34 63/149/34
f 65/150/35 66/151/35 68/152/35 267/153/35
f 67/154/36 68/155/36 72/156/36 71/157/36
f 71/158/37 72/159/37 266/160/37
f 69/161/38 70/162/38 66/163/38 65/164/38
f 72/165/39 68/166/39 66/167/39 70/168/39
f 73/169/40 74/170/40 76/171/40 75/172/40
f 75/172/41 76/171/41 78/173/41 77/174/41
f 77/174/42 78/173/42 80/175/42 79/176/42
f 79/176/28 80/175/28 82/177/28 81/178/28
f 81/178/29 82/177/29 84/179/29 83/180/29
f 83/180/43 84/179/43 86/181/43 85/182/43
f 85/183/44 86/184/44 88/185/44 87/186/44
f 87/187/45 88/188/45 90/189/45 89/190/45
f 89/191/46 90/192/46 92/193/46 91/194/46
f 91/194/47 92/193/47 94/195/47 93/196/47
f 93/196/48 94/195/48 96/197/48 95/198/48
f 95/199/4 96/200/4 98/201/4 97/202/4
f 97/202/5 98/201/5 100/203/5 99/204/5
f 99/204/49 100/203/49 102/205/49 101/206/49
f 101/206/50 102/205/50 104/207/50 103/208/50
f 103/208/51 104/207/51 106/209/51 105/210/51
f 105/210/9 106/209/9 108/211/9 107/212/9
f 107/212/10 108/211/10 110/213/10 109/214/10
f 109/215/52 110/216/52 112/217/52 111/218/52
f 111/218/53 112/217/53 114/219/53 113/220/53
f 113/220/13 114/219/13 116/221/13 115/222/13
f 115/222/54 116/221/54 118/223/54 117/224/54
f 117/224/15 118/223/15 120/225/15 119/226/15
f 119/226/55 120/225/55 122/227/55 121/228/55
f 121/228/56 122/227/56 124/229/56 123/230/56
f 123/231/57 124/232/57 126/233/57 125/234/57
f 125/234/58 126/233/58 128/235/58 127/236/58
f 127/237/59 128/238/59 130/239/59 129/240/59
f 129/241/21 130/242/21 132/243/21 131/244/21
f 131/245/60 132/246/60 134/247/60 133/248/60
f 76/249/61 74/250/61 136/251/61 134/252/61 132/253/61 130/254/61 128/255/61 126/256/61 124/257/61 122/258/61 120/259/61 118/260/61 116/261/61 114/262/61 112/263/61 110/264/61 108/265/61 106/266/61 104/267/61 102/268/61 100/269/61 98/270/61 96/271/61 94/272/61 92/273/61 90/274/61 88/275/61 86/276/61 84/277/61 82/278/61 80/279/61 78/280/61
f 133/281/62 134/282/62 136/283/62 135/284/62
f 135/285/63 136/286/63 74/170/63 73/169/63
f 73/287/34 75/288/34 77/289/34 79/290/34 81/291/34 83/292/34 85/293/34 87/294/34 89/295/34 91/296/34 93/297/34 95/298/34 97/299/34 99/300/34 101/301/34 103/302/34 105/303/34 107/304/34 109/305/34 111/306/34 113/307/34 115/308/34 117/309/34 119/310/34 121/311/34 123/312/34 125/313/34 127/314/34 129/315/34 131/316/34 133/317/34 135/318/34
f 137/319/64 138/320/64 140/321/64 139/322/64
f 139/322/65 140/321/65 142/323/65 141/324/65
f 141/324/66 142/323/66 144/325/66 143/326/66
f 143/327/67 144/328/67 146/329/67 145/330/67
f 145/330/68 146/329/68 148/331/68 147/332/68
f 147/333/69 148/334/69 150/335/69 149/336/69
f 149/337/70 150/338/70 152/339/70 151/340/70
f 151/341/71 152/342/71 154/343/71 153/344/71
f 153/345/72 154/346/72 156/347/72 155/348/72
f 155/348/73 156/347/73 158/349/73 157/350/73
f 157/350/74 158/349/74 160/351/74 159/352/74
f 159/353/75 160/354/75 162/355/75 161/356/75
f 161/356/76 162/355/76 164/357/76 163/358/76
f 163/358/77 164/357/77 166/359/77 165/360/77
f 165/360/78 166/359/78 168/361/78 167/362/78
f 167/362/79 168/361/79 170/363/79 169/364/79
f 169/364/80 170/363/80 172/365/80 171/366/80
f 171/366/81 172/365/81 174/367/81 173/368/81
f 173/369/82 174/370/82 176/371/82 175/372/82
f 175/373/83 176/374/83 178/375/83 177/376/83
f 177/377/84 178/378/84 180/379/84 179/380/84
f 179/381/85 180/382/85 182/383/85 181/384/85
f 181/384/86 182/383/86 184/385/86 183/386/86
f 183/386/87 184/385/87 186/387/87 185/388/87
f 185/388/88 186/387/88 188/389/88 187/390/88
f 187/390/89 188/389/89 190/391/89 189/392/89
f 189/392/90 190/391/90 192/393/90 191/394/90
f 191/394/91 192/393/91 194/395/91 193/396/91
f 193/397/92 194/398/92 196/399/92 195/400/92
f 195/400/93 196/399/93 198/401/93 197/402/93
f 140/403/94 138/404/94 200/405/94 198/406/94 196/407/94 194/408/94 192/409/94 190/410/94 188/411/94 186/412/94 184/413/94 182/414/94 180/415/94 178/416/94 176/417/94 174/418/94 172/419/94 170/420/94 168/421/94 166/422/94 164/423/94 162/424/94 160/425/94 158/426/94 156/427/94 154/428/94 152/429/94 150/430/94 148/431/94 146/432/94 144/433/94 142/434/94
f 197/435/95 198/436/95 200/437/95 199/438/95
f 199/439/96 200/440/96 138/320/96 137/319/96
f 137/441/34 139/442/34 141/443/34 143/444/34 145/445/34 147/446/34 149/447/34 151/448/34 153/449/34 155/450/34 157/451/34 159/452/34 161/453/34 163/454/34 165/455/34 167/456/34 169/457/34 171/458/34 173/459/34 175/460/34 177/461/34 179/462/34 181/463/34 183/464/34 185/465/34 187/466/34 189/467/34 191/468/34 193/469/34 195/470/34 197/471/34 199/472/34
f 201/473/97 202/474/97 204/475/97 203/476/97
f 203/476/98 204/475/98 206/477/98 205/478/98
f 205/478/99 206/477/99 208/479/99 207/480/99
f 207/480/100 208/479/100 210/481/100 209/482/100
f 209/482/101 210/481/101 212/483/101 211/484/101
f 211/484/102 212/483/102 214/485/102 213/486/102
f 213/487/103 214/488/103 216/489/103 215/490/103
f 215/491/104 216/492/104 218/493/104 217/494/104
f 217/495/105 218/496/105 220/497/105 219/498/105
f 219/498/106 220/497/106 222/499/106 221/500/106
f 221/500/107 222/499/107 224/501/107 223/502/107
f 223/502/108 224/501/108 226/503/108 225/504/108
f 225/504/109 226/503/109 228/505/109 227/506/109
f 227/507/110 228/508/110 230/509/110 229/510/110
f 229/511/111 230/512/111 232/513/111 231/514/111
f 231/514/112 232/513/112 234/515/112 233/516/112
f 233/516/113 234/515/113 236/517/113 235/518/113
f 235/518/114 236/517/114 238/519/114 237/520/114
f 237/520/115 238/519/115 240/521/115 239/522/115
f 239/522/116 240/521/116 242/523/116 241/524/116
f 241/525/117 242/526/117 244/527/117 243/528/117
f 243/528/118 244/527/118 246/529/118 245/530/118
f 245/530/119 246/529/119 248/531/119 247/532/119
f 247/532/120 248/531/120 250/533/120 249/534/120
f 249/534/121 250/533/121 252/535/121 251/536/121
f 251/536/122 252/535/122 254/537/122 253/538/122
f 253/538/123 254/537/123 256/539/123 255/540/123
f 255/540/124 256/539/124 258/541/124 257/542/124
f 257/542/125 258/541/125 260/543/125 259/544/125
f 259/545/126 260/546/126 262/547/126 261/548/126
f 204/549/127 202/550/127 264/551/127 262/552/127 260/553/127 258/554/127 256/555/127 254/556/127 252/557/127 250/558/127 248/559/127 246/560/127 244/561/127 242/562/127 240/563/127 238/564/127 236/565/127 234/566/127 232/567/127 230/568/127 228/569/127 226/570/127 224/571/127 222/572/127 220/573/127 218/574/127 216/575/127 214/576/127 212/577/127 210/578/127 208/579/127 206/580/127
f 261/581/128 262/582/128 264/583/128 263/584/128
f 263/585/129 264/586/129 202/474/129 201/473/129
f 201/587/34 203/588/34 205/589/34 207/590/34 209/591/34 211/592/34 213/593/34 215/594/34 217/595/34 219/596/34 221/597/34 223/598/34 225/599/34 227/600/34 229/601/34 231/602/34 233/603/34 235/604/34 237/605/34 239/606/34 241/607/34 243/608/34 245/609/34 247/610/34 249/611/34 251/612/34 253/613/34 255/614/34 257/615/34 259/616/34 261/617/34 263/618/34
f 265/619/130 72/159/130 70/620/130 69/621/130
f 267/153/131 68/152/131 67/622/131
