# Blender 5.0.0
# www.blender.org
o Bug_Collision
v -35.716145 0.065970 -0.134621
v -35.716145 0.066592 0.134762
v -35.583317 0.455174 0.091531
v -35.716145 0.553397 0.091531
v -35.422611 0.076573 0.091531
v -35.508583 -0.302027 0.091531
v -35.716145 -0.458848 0.091531
v -35.923706 -0.302027 0.091531
v -36.009678 0.076573 0.091531
v -35.848972 0.455174 0.091531
v -35.716145 0.553397 -0.091531
v -35.583317 0.455174 -0.091531
v -35.422611 0.076573 -0.091531
v -35.508583 -0.302027 -0.091531
v -35.716145 -0.458848 -0.091531
v -35.923706 -0.302027 -0.091531
v -36.009678 0.076573 -0.091531
v -35.848972 0.455174 -0.091531
vn 0.5946 0.8040 -0.0000
vn 0.9205 0.3907 -0.0000
vn 0.9752 -0.2214 -0.0000
vn 0.6028 -0.7979 -0.0000
vn -0.6028 -0.7979 -0.0000
vn -0.9752 -0.2214 -0.0000
vn -0.9205 0.3907 -0.0000
vn -0.5946 0.8040 -0.0000
vn 0.0653 0.0883 0.9940
vn 0.1434 0.0609 0.9878
vn 0.1467 -0.0333 0.9886
vn 0.0618 -0.0818 0.9947
vn -0.0618 -0.0818 0.9947
vn -0.1467 -0.0333 0.9886
vn -0.1434 0.0609 0.9878
vn -0.0653 0.0883 0.9940
vn 0.0650 0.0879 -0.9940
vn 0.1428 0.0606 -0.9879
vn 0.1463 -0.0332 -0.9887
vn 0.0617 -0.0817 -0.9947
vn -0.0617 -0.0817 -0.9947
vn -0.1463 -0.0332 -0.9887
vn -0.1428 0.0606 -0.9879
vn -0.0650 0.0879 -0.9940
vt 1.000000 0.500000
vt 1.000000 1.000000
vt 0.875000 1.000000
vt 0.875000 0.500000
vt 0.750000 1.000000
vt 0.750000 0.500000
vt 0.625000 1.000000
vt 0.625000 0.500000
vt 0.500000 1.000000
vt 0.500000 0.500000
vt 0.375000 1.000000
vt 0.375000 0.500000
vt 0.250000 1.000000
vt 0.250000 0.500000
vt 0.125000 1.000000
vt 0.125000 0.500000
vt 0.000000 1.000000
vt 0.000000 0.500000
vt 0.391259 0.403640
vt 0.419706 0.419706
vt 0.250000 0.490000
vt 0.467294 0.246714
vt 0.490000 0.250000
vt 0.402706 0.097646
vt 0.419706 0.080294
vt 0.250000 0.034473
vt 0.250000 0.010000
vt 0.097294 0.097646
vt 0.080294 0.080294
vt 0.032706 0.246714
vt 0.010000 0.250000
vt 0.108741 0.403640
vt 0.080294 0.419706
vt 0.250000 0.459191
vt 0.750000 0.452178
vt 0.750000 0.490000
vt 0.919706 0.419706
vt 0.884926 0.399734
vt 0.990000 0.250000
vt 0.961855 0.245951
vt 0.919706 0.080294
vt 0.898741 0.101714
vt 0.750000 0.010000
vt 0.750000 0.040207
vt 0.580294 0.080294
vt 0.601259 0.101714
vt 0.510000 0.250000
vt 0.538145 0.245951
vt 0.580294 0.419706
vt 0.615074 0.399734
s 0
f 11/1/1 4/2/1 3/3/1 12/4/1
f 12/4/2 3/3/2 5/5/2 13/6/2
f 13/6/3 5/5/3 6/7/3 14/8/3
f 14/8/4 6/7/4 7/9/4 15/10/4
f 15/10/5 7/9/5 8/11/5 16/12/5
f 16/12/6 8/11/6 9/13/6 17/14/6
f 17/14/7 9/13/7 10/15/7 18/16/7
f 18/16/8 10/15/8 4/17/8 11/18/8
f 2/19/9 3/20/9 4/21/9
f 2/22/10 5/23/10 3/20/10
f 2/24/11 6/25/11 5/23/11
f 2/26/12 7/27/12 6/25/12
f 2/28/13 8/29/13 7/27/13
f 2/30/14 9/31/14 8/29/14
f 2/32/15 10/33/15 9/31/15
f 2/34/16 4/21/16 10/33/16
f 1/35/17 11/36/17 12/37/17
f 1/38/18 12/37/18 13/39/18
f 1/40/19 13/39/19 14/41/19
f 1/42/20 14/41/20 15/43/20
f 1/44/21 15/43/21 16/45/21
f 1/46/22 16/45/22 17/47/22
f 1/48/23 17/47/23 18/49/23
f 1/50/24 18/49/24 11/36/24
