# Blender 5.0.0
# www.blender.org
o Jungle_Tree_Collision
v -0.638670 -0.003110 0.638670
v -0.514095 1.191732 0.468157
v -0.638670 -0.003110 -0.638670
v -0.514095 1.191732 -0.468157
v 0.638670 -0.003110 0.638670
v 0.422219 1.191732 0.468157
v 0.638670 -0.003110 -0.638670
v 0.422219 1.191732 -0.468157
v -0.535811 3.119138 0.055905
v -0.535811 3.119138 -0.535388
v 0.055481 3.119138 -0.535388
v 0.055481 3.119138 0.055905
v -0.341841 4.572423 0.102264
v -0.341841 4.572423 -0.448365
v 0.208788 4.572423 -0.448365
v 0.208788 4.572423 0.102264
v -0.136855 8.101135 0.201989
v -0.136855 8.101135 -0.207105
v 0.272239 8.101135 -0.207105
v 0.272239 8.101135 0.201989
v -0.192715 9.410123 0.204119
v -0.192715 9.410123 -0.209236
v 0.220640 9.410123 -0.209236
v 0.220640 9.410123 0.204119
v -0.257637 9.803624 0.229148
v -0.230509 9.803624 -0.195356
v 0.413054 9.803624 -0.154230
v 0.385926 9.803624 0.270274
v -0.290457 10.148376 0.246313
v -0.293880 10.148376 -0.192418
v 0.150964 10.148376 -0.180036
v 0.154387 10.148376 0.258695
v -0.619254 11.460562 0.327877
v -0.622389 11.460088 -0.078408
v -0.215074 11.521683 -0.066942
v -0.211939 11.522157 0.339344
v -0.618663 12.421965 0.274165
v -0.621591 12.421935 -0.101084
v -0.241133 12.425706 -0.090493
v -0.238204 12.425735 0.284755
v -0.476420 14.633536 0.130298
v -0.478467 14.633516 -0.131997
v -0.212530 14.636151 -0.124594
v -0.210483 14.636173 0.137701
v 1.038434 10.226691 0.018781
v 0.978576 10.254545 0.415143
v 0.737745 10.495420 -0.054169
v 0.704970 10.529936 0.357545
v 2.166518 12.063331 0.505918
v 2.140942 12.075233 0.675277
v 2.038039 12.178154 0.474748
v 2.024035 12.192903 0.650666
vn -0.9946 0.1037 -0.0000
vn -0.0000 0.1413 -0.9900
vn 0.9840 0.1783 -0.0000
vn -0.0000 0.1413 0.9900
vn -0.0000 -0.0319 0.9995
vn 0.9824 0.1869 -0.0000
vn -0.9999 -0.0113 -0.0000
vn -0.0000 0.2092 0.9779
vn -0.0000 -0.0349 -0.9994
vn -0.0000 0.0682 -0.9977
vn -0.0000 0.0598 -0.9982
vn 0.9945 -0.1049 -0.0000
vn -0.9912 0.1323 -0.0000
vn 0.9992 0.0394 -0.0000
vn 0.9998 -0.0180 -0.0000
vn -0.9983 0.0580 -0.0000
vn -0.0000 -0.0282 0.9996
vn -0.0386 -0.1101 0.9932
vn -0.9991 -0.0426 -0.0000
vn -0.0000 -0.0016 1.0000
vn -0.0000 -0.0016 -1.0000
vn -0.5313 0.8456 -0.0527
vn 0.0388 0.0796 -0.9961
vn 0.9083 -0.4173 0.0294
vn -0.9913 -0.1278 -0.0321
vn 0.9661 0.2581 -0.0076
vn -0.9902 -0.1373 -0.0272
vn -0.0491 -0.0269 0.9984
vn 0.0491 -0.0099 -0.9987
vn -0.0327 0.0575 0.9978
vn -0.9699 -0.2435 0.0077
vn -0.0231 -0.0662 0.9975
vn 0.0214 0.0898 -0.9957
vn 0.9999 -0.0131 -0.0078
vn 0.0300 -0.0244 -0.9993
vn 0.9996 0.0286 -0.0078
vn -1.0000 0.0010 0.0078
vn -0.9979 0.0647 0.0078
vn -0.0284 0.0667 0.9974
vn 0.0280 -0.0158 -0.9995
vn -0.2109 -0.0050 0.9775
vn 0.5655 -0.8201 0.0878
vn -0.1816 -0.0383 0.9826
vn 0.2151 0.0402 -0.9758
vn -0.7685 0.6296 -0.1140
vn 0.2951 0.0715 -0.9528
vn 0.8210 -0.5473 0.1624
vt 0.375000 0.000000
vt 0.625000 0.000000
vt 0.625000 0.250000
vt 0.375000 0.250000
vt 0.625000 0.500000
vt 0.375000 0.500000
vt 0.625000 0.750000
vt 0.375000 0.750000
vt 0.625000 1.000000
vt 0.375000 1.000000
s 0
f 1/1/1 2/2/1 4/3/1 3/4/1
f 3/4/2 4/3/2 8/5/2 7/6/2
f 7/6/3 8/5/3 6/7/3 5/8/3
f 5/8/4 6/7/4 2/9/4 1/10/4
f 9/9/5 12/7/5 16/7/5 13/9/5
f 6/7/6 8/5/6 11/5/6 12/7/6
f 4/3/7 2/2/7 9/2/7 10/3/7
f 2/9/8 6/7/8 12/7/8 9/9/8
f 8/5/9 4/3/9 10/3/9 11/5/9
f 15/5/10 14/3/10 18/3/10 19/5/10
f 11/5/11 10/3/11 14/3/11 15/5/11
f 12/7/12 11/5/12 15/5/12 16/7/12
f 10/3/13 9/2/13 13/2/13 14/3/13
f 20/7/14 19/5/14 23/5/14 24/7/14
f 16/7/15 15/5/15 19/5/15 20/7/15
f 14/3/16 13/2/16 17/2/16 18/3/16
f 13/9/17 16/7/17 20/7/17 17/9/17
f 21/9/18 24/7/18 28/7/18 25/9/18
f 18/3/19 17/2/19 21/2/19 22/3/19
f 17/9/20 20/7/20 24/7/20 21/9/20
f 19/5/21 18/3/21 22/3/21 23/5/21
f 31/5/22 32/7/22 48/7/22 47/5/22
f 23/5/23 22/3/23 26/3/23 27/5/23
f 24/7/24 23/5/24 27/5/24 28/7/24
f 22/3/25 21/2/25 25/2/25 26/3/25
f 32/7/26 31/5/26 35/5/26 36/7/26
f 26/3/27 25/2/27 29/2/27 30/3/27
f 25/9/28 28/7/28 32/7/28 29/9/28
f 27/5/29 26/3/29 30/3/29 31/5/29
f 33/9/30 36/7/30 40/7/30 37/9/30
f 30/3/31 29/2/31 33/2/31 34/3/31
f 29/9/32 32/7/32 36/7/32 33/9/32
f 31/5/33 30/3/33 34/3/33 35/5/33
f 40/7/34 39/5/34 43/5/34 44/7/34
f 35/5/35 34/3/35 38/3/35 39/5/35
f 36/7/36 35/5/36 39/5/36 40/7/36
f 34/3/37 33/2/37 37/2/37 38/3/37
f 38/3/38 37/2/38 41/2/38 42/3/38
f 37/9/39 40/7/39 44/7/39 41/9/39
f 39/5/40 38/3/40 42/3/40 43/5/40
f 48/7/41 46/7/41 50/7/41 52/7/41
f 28/7/42 27/5/42 45/5/42 46/7/42
f 32/7/43 28/7/43 46/7/43 48/7/43
f 27/5/44 31/5/44 47/5/44 45/5/44
f 47/5/45 48/7/45 52/7/45 51/5/45
f 45/5/46 47/5/46 51/5/46 49/5/46
f 46/7/47 45/5/47 49/5/47 50/7/47
