# Blender 5.0.0
# www.blender.org
o Palm_Tree_Collision
v 6.285017 0.009079 0.596477
v 6.511245 1.436743 0.408263
v 6.285017 0.009079 -0.596477
v 6.511245 1.436743 -0.376490
v 7.477971 0.009079 0.596477
v 7.295998 1.436743 0.408263
v 7.477971 0.009079 -0.596477
v 7.295998 1.436743 -0.376490
v 6.560059 2.877942 0.325266
v 6.560059 2.877942 -0.293493
v 7.178471 2.898678 -0.293493
v 7.178471 2.898678 0.325266
v 6.565426 4.055412 0.280443
v 6.565426 4.055412 -0.248670
v 7.094242 4.073144 -0.248670
v 7.094242 4.073144 0.280443
v 6.517004 5.221040 0.253923
v 6.517004 5.221040 -0.175153
v 6.943165 5.270960 -0.175153
v 6.943165 5.270960 0.253923
v 6.355641 6.589980 0.231432
v 6.355641 6.589980 -0.152662
v 6.734671 6.652140 -0.152662
v 6.734671 6.652140 0.231432
v 6.166463 7.670049 0.214961
v 6.166463 7.670049 -0.136191
v 6.509434 7.745406 -0.136191
v 6.509434 7.745406 0.214961
v 5.777347 9.053306 0.202208
v 5.777347 9.053306 -0.104988
v 6.066299 9.157589 -0.104988
v 6.066299 9.157589 0.202208
v 5.770940 9.307041 0.131897
v 5.770940 9.307041 -0.034677
v 5.927622 9.363588 -0.034677
v 5.927622 9.363588 0.131897
vn -0.9877 0.1565 -0.0000
vn -0.0000 0.1523 -0.9883
vn 0.9920 0.1264 -0.0000
vn -0.0000 0.1307 0.9914
vn -0.0000 -1.0000 -0.0000
vn 0.9968 0.0801 -0.0000
vn 0.9974 0.0715 -0.0000
vn -0.9994 0.0339 -0.0000
vn -0.0008 0.0571 0.9984
vn -0.0008 0.0571 -0.9984
vn -0.0016 0.0223 0.9997
vn -1.0000 0.0046 -0.0000
vn -0.0013 0.0380 0.9993
vn -0.0013 0.0380 -0.9993
vn 0.9888 0.1493 -0.0000
vn -0.0044 0.0617 -0.9981
vn 0.9921 0.1251 -0.0000
vn -0.9991 -0.0415 -0.0000
vn -0.9850 -0.1725 -0.0000
vn -0.9931 -0.1171 -0.0000
vn -0.0022 0.0161 0.9999
vn -0.0022 0.0161 -0.9999
vn -0.0024 0.0084 1.0000
vn -0.0028 0.0146 0.9999
vn -0.0028 0.0146 -0.9999
vn 0.9794 0.2018 -0.0000
vn 0.8295 0.5584 -0.0000
vn -0.0058 0.0206 -0.9998
vn 0.9541 0.2994 -0.0000
vn -0.9626 -0.2708 -0.0000
vn -0.3395 0.9406 -0.0000
vn -0.9997 -0.0252 -0.0000
vn -0.0951 0.2636 0.9599
vn -0.0951 0.2636 -0.9599
vt 0.375000 0.000000
vt 0.625000 0.000000
vt 0.625000 0.250000
vt 0.375000 0.250000
vt 0.625000 0.500000
vt 0.375000 0.500000
vt 0.625000 0.750000
vt 0.375000 0.750000
vt 0.625000 1.000000
vt 0.375000 1.000000
vt 0.125000 0.500000
vt 0.125000 0.750000
vt 0.875000 0.500000
vt 0.875000 0.750000
s 0
f 1/1/1 2/2/1 4/3/1 3/4/1
f 3/4/2 4/3/2 8/5/2 7/6/2
f 7/6/3 8/5/3 6/7/3 5/8/3
f 5/8/4 6/7/4 2/9/4 1/10/4
f 3/11/5 7/6/5 5/8/5 1/12/5
f 6/7/6 8/5/6 11/5/6 12/7/6
f 12/7/7 11/5/7 15/5/7 16/7/7
f 4/3/8 2/2/8 9/2/8 10/3/8
f 2/9/9 6/7/9 12/7/9 9/9/9
f 8/5/10 4/3/10 10/3/10 11/5/10
f 13/9/11 16/7/11 20/7/11 17/9/11
f 10/3/12 9/2/12 13/2/12 14/3/12
f 9/9/13 12/7/13 16/7/13 13/9/13
f 11/5/14 10/3/14 14/3/14 15/5/14
f 20/7/15 19/5/15 23/5/15 24/7/15
f 15/5/16 14/3/16 18/3/16 19/5/16
f 16/7/17 15/5/17 19/5/17 20/7/17
f 14/3/18 13/2/18 17/2/18 18/3/18
f 22/3/19 21/2/19 25/2/19 26/3/19
f 18/3/20 17/2/20 21/2/20 22/3/20
f 17/9/21 20/7/21 24/7/21 21/9/21
f 19/5/22 18/3/22 22/3/22 23/5/22
f 25/9/23 28/7/23 32/7/23 29/9/23
f 21/9/24 24/7/24 28/7/24 25/9/24
f 23/5/25 22/3/25 26/3/25 27/5/25
f 24/7/26 23/5/26 27/5/26 28/7/26
f 32/7/27 31/5/27 35/5/27 36/7/27
f 27/5/28 26/3/28 30/3/28 31/5/28
f 28/7/29 27/5/29 31/5/29 32/7/29
f 26/3/30 25/2/30 29/2/30 30/3/30
f 35/5/31 34/13/31 33/14/31 36/7/31
f 30/3/32 29/2/32 33/2/32 34/3/32
f 29/9/33 32/7/33 36/7/33 33/9/33
f 31/5/34 30/3/34 34/3/34 35/5/34
