# Blender 5.0.0
# www.blender.org
o Temple_Collision
v 69.560722 2.182798 -13.966681
v 73.517014 -0.892046 -17.922977
v 69.560722 2.182798 13.990077
v 73.517014 -0.892046 17.946375
v 41.603962 2.182798 -13.966681
v 37.647667 -0.892046 -17.922977
v 41.603962 2.182798 13.990077
v 37.647667 -0.892046 17.946375
v 71.553711 2.182798 15.983066
v 39.610973 2.182798 15.983066
v 71.553711 2.182798 -15.959669
v 39.610973 2.182798 -15.959669
v 65.531082 5.041719 9.960438
v 45.633602 5.041719 9.960438
v 65.531082 5.041719 -9.937040
v 45.633602 5.041719 -9.937040
v 67.516129 5.041719 11.945481
v 43.648560 5.041719 11.945481
v 67.516129 5.041719 -11.922085
v 43.648560 5.041719 -11.922085
v 61.637695 8.062467 6.067049
v 49.526993 8.062467 6.067049
v 61.637695 8.062467 -6.043653
v 49.526993 8.062467 -6.043653
v 63.539814 8.062467 7.969172
v 47.624870 8.062467 7.969172
v 63.539814 8.062467 -7.945776
v 47.624870 8.062467 -7.945776
v 57.507492 11.137156 1.936847
v 53.657196 11.137156 1.936847
v 57.507492 11.137156 -1.913450
v 53.657196 11.137156 -1.913450
v 59.541500 11.137156 3.970854
v 51.623184 11.137156 3.970854
v 59.541500 11.137156 -3.947458
v 51.623184 11.137156 -3.947458
v 71.567825 2.182798 -4.220331
v 73.517014 -0.892046 -5.056799
v 39.573582 2.182798 -4.220331
v 37.647667 -0.892046 -5.056799
v 69.560722 2.182798 -3.938713
v 41.603962 2.182798 -3.938713
v 67.534225 5.041719 -3.080399
v 43.607193 5.041719 -3.080399
v 65.531082 5.041719 -2.799902
v 45.633602 5.041719 -2.799902
v 63.599373 8.062467 -1.968374
v 47.542046 8.062467 -1.968374
v 61.637695 8.062467 -1.699596
v 49.526993 8.062467 -1.699596
v 59.541500 11.137156 -1.107193
v 51.623184 11.137156 -1.107193
v 71.567825 2.182798 5.383120
v 37.647667 -0.892046 6.444788
v 69.560722 2.182798 5.025681
v 67.534225 5.041719 3.936281
v 65.531082 5.041719 3.580268
v 63.599373 8.062467 2.524868
v 61.637695 8.062467 2.183726
v 59.541500 11.137156 1.431830
v 73.517014 -0.892046 6.444789
v 39.573582 2.182798 5.383121
v 41.603962 2.182798 5.025681
v 43.607193 5.041719 3.936281
v 45.633602 5.041719 3.580268
v 47.542046 8.062467 2.524868
v 49.526993 8.062467 2.183726
v 51.623184 11.137156 1.431830
v 59.434780 2.182798 16.559877
v 60.583843 -0.892046 17.946375
v 59.758430 2.182798 -16.555542
v 60.583843 -0.892046 -17.922977
v 59.324455 2.182798 13.990077
v 59.480537 2.182798 -13.966681
v 58.633568 5.041719 12.526267
v 58.633568 5.041719 -12.521933
v 58.107048 5.041719 9.960438
v 58.356781 5.041719 -9.937040
v 57.536243 8.062467 8.591417
v 57.536243 8.062467 -8.587082
v 57.271019 8.062467 6.067049
v 57.271019 8.062467 -6.043653
v 56.686447 11.137156 3.970854
v 56.686447 11.137156 -3.947458
v 50.445168 2.182798 16.559877
v 49.115753 -0.892046 -17.922977
v 50.542252 2.182798 13.990077
v 51.637321 5.041719 12.526267
v 51.995190 5.041719 9.960438
v 53.056084 8.062467 8.591417
v 53.399006 8.062467 6.067049
v 54.154816 11.137156 3.970854
v 49.115753 -0.892046 17.946375
v 50.182953 2.182798 -16.555542
v 50.542252 2.182798 -13.966681
v 51.637321 5.041719 -12.521933
v 51.995190 5.041719 -9.937040
v 53.056084 8.062467 -8.587082
v 53.399006 8.062467 -6.043653
v 54.154816 11.137156 -3.947458
v 49.555412 11.137156 1.431830
v 49.555412 11.137156 -1.107193
v 75.538254 -0.892046 6.444789
v 61.562733 11.137156 -1.107193
v 75.538254 -0.892046 -5.056799
v 35.579891 -0.892046 4.944581
v 49.555412 11.137156 1.100654
v 35.579891 -0.892046 -5.056799
v 35.579891 -0.892046 6.444788
v 49.115753 -0.892046 21.092987
v 60.583843 -0.892046 21.092987
v 56.686447 11.137156 7.117468
v 54.154816 11.137156 7.117468
v 54.580139 11.137156 -3.947458
v 54.580139 11.137156 3.970854
v 51.042439 -0.892046 21.092987
v 54.580139 11.137156 7.117468
v 56.298836 11.137156 -3.947458
v 58.828007 -0.892046 21.092987
v 56.298836 11.137156 3.970854
v 56.298836 11.137156 7.117468
v 56.298836 11.137156 5.882754
v 54.580139 11.137156 5.882754
v 51.042439 -0.892046 19.858273
v 58.828007 -0.892046 19.858273
v 56.298836 11.137156 -7.132193
v 56.686447 11.137156 -7.132193
v 60.583843 -0.892046 -21.107712
v 51.042439 -0.892046 -21.107712
v 49.115753 -0.892046 -21.107712
v 54.154816 11.137156 -7.132193
v 54.580139 11.137156 -7.132193
v 58.828007 -0.892046 -21.107712
v 58.828007 -0.892046 -19.883568
v 51.042439 -0.892046 -19.883568
v 54.580139 11.137156 -5.908047
v 56.298836 11.137156 -5.908047
v 51.623184 11.137156 1.100654
v 61.562733 11.137156 1.431830
v 75.538254 -0.892046 4.944582
v 59.541500 11.137156 1.100654
v 61.562733 11.137156 1.100654
v 51.623184 11.137156 -0.770504
v 61.562733 11.137156 -0.770504
v 49.555412 11.137156 -0.770504
v 75.538254 -0.892046 -3.531616
v 59.541500 11.137156 -0.770504
v 35.579891 -0.892046 -3.531616
v 60.896076 11.137156 1.100654
v 74.871597 -0.892046 4.944582
v 60.896076 11.137156 -0.770504
v 74.871597 -0.892046 -3.531616
v 50.615814 11.137156 1.100654
v 36.640293 -0.892046 4.944581
v 36.640293 -0.892046 -3.531616
v 50.615814 11.137156 -0.770504
v 53.657196 13.416951 -1.913450
v 57.507492 13.450375 1.936847
v 53.657196 13.416933 1.936847
v 57.507492 13.435589 -1.913450
v 57.577675 13.435589 -2.030420
v 57.577675 14.103962 -2.030420
v 57.577675 13.450375 2.030421
v 57.577675 14.103962 2.030421
v 53.563618 14.103962 -2.030420
v 53.563618 13.416951 -2.030420
v 53.563618 13.416933 2.030421
v 53.563618 14.103962 2.030421
v 52.708786 7.685212 11.127935
v 50.955139 3.498915 15.991571
v 59.288620 3.105624 16.448496
v 58.040855 6.956814 11.974188
v 67.245766 6.245577 3.470310
v 71.447586 2.628927 4.977486
v 71.497025 2.586373 -3.914713
v 67.239120 6.251296 -2.711391
v 57.893124 7.412783 -11.459167
v 59.067139 3.789219 -15.669022
v 52.461655 7.095261 -11.828064
v 50.989151 3.580109 -15.911964
v 44.136841 6.473209 -2.638529
v 39.765102 2.710306 -3.874022
v 43.794273 6.178349 3.498325
v 39.729641 2.679783 4.956291
v 46.057770 8.126617 -2.095657
vn -0.8449 0.5349 -0.0013
vn 0.0211 0.4835 -0.8751
vn 0.8436 0.5370 0.0005
vn -0.8157 0.5785 0.0020
vn -0.0226 0.4875 0.8728
vn -0.0000 1.0000 -0.0000
vn -0.8388 0.5444 0.0059
vn 0.8144 0.5803 -0.0008
vn -0.0300 0.5326 -0.8458
vn 0.0257 0.5317 0.8465
vn -0.0000 0.5633 -0.8263
vn 0.8379 0.5458 -0.0038
vn -0.0470 0.5015 -0.8639
vn 0.0401 0.4986 0.8659
vn -0.0000 0.5633 0.8263
vn -0.8263 0.5633 -0.0000
vn 0.8263 0.5633 -0.0000
vn -0.0000 -0.0000 1.0000
vn -0.0830 0.2348 0.9685
vn -1.0000 -0.0000 -0.0000
vn 0.0650 0.1882 -0.9800
vn -0.8390 0.5441 -0.0053
vn -0.8158 0.5784 -0.0018
vn 0.8436 0.5369 -0.0005
vn 0.6524 0.7579 -0.0000
vn -0.8448 0.5350 0.0014
vn 0.8144 0.5803 0.0009
vn 0.8377 0.5461 0.0042
vn 1.0000 -0.0000 -0.0000
vn 0.0421 0.4985 -0.8659
vn 0.9783 0.2020 0.0453
vn -0.9646 0.2571 -0.0583
vn 0.0268 0.5306 -0.8472
vn -0.9252 0.3765 0.0475
vn 0.0201 0.4861 0.8737
vn -0.0236 0.4851 -0.8741
vn -0.0290 0.5343 0.8448
vn -0.0455 0.5030 0.8631
vn -0.0000 -0.0000 -1.0000
vn -0.0898 0.4273 0.8997
vn -0.6524 0.7579 -0.0000
vn 0.0815 0.2360 0.9683
vn 0.1029 0.2181 -0.9705
vn -0.0000 0.7579 0.6524
vn 0.9594 -0.2821 -0.0000
vn 0.9784 0.2016 -0.0458
vn -0.9786 -0.2058 -0.0000
vn -0.0000 0.7579 -0.6524
vn -0.1254 0.2692 0.9549
vn -0.0661 0.1872 -0.9801
vn -0.1005 0.2157 -0.9713
vn -0.0000 -0.3044 -0.9525
vn -0.0000 -0.2237 0.9747
vn 0.0006 -1.0000 0.0037
vn 0.0047 -1.0000 -0.0005
vn -0.9480 0.3018 -0.1007
vn -0.9351 0.3532 -0.0279
vn -0.9242 0.3818 -0.0121
vn 0.9551 0.2933 -0.0432
vn 0.9722 0.2305 -0.0421
vn 0.9737 0.2001 -0.1093
vn -0.0527 0.3683 0.9282
vn 0.0913 0.4283 0.8990
vn 0.0740 0.3496 -0.9340
vn -0.0420 0.2988 -0.9534
vn 0.9676 0.2403 0.0775
vn 0.9539 0.2976 0.0396
vn 0.9423 0.3305 -0.0524
vn -0.9645 0.2575 0.0577
vn -0.9472 0.3058 0.0962
vn -0.9100 0.4097 -0.0634
vn 0.0428 0.2975 -0.9538
vn -0.0739 0.3501 -0.9338
vn 0.1231 0.2717 0.9545
vn 0.0529 0.3686 0.9281
vn 0.0085 -1.0000 0.0011
vn -0.0000 -1.0000 -0.0000
vn 0.0926 0.2119 -0.9729
vt 0.362805 0.077464
vt 0.364317 0.222831
vt 0.046818 0.225872
vt 0.046392 0.078985
vt 0.046111 0.078719
vt 0.046139 0.222781
vt 0.363190 0.220611
vt 0.363653 0.078746
vt 0.813062 0.058674
vt 0.816983 0.222713
vt 0.481048 0.222977
vt 0.477928 0.057372
vt 0.483024 0.057616
vt 0.814193 0.057616
vt 0.812203 0.296756
vt 0.482570 0.297626
vt 0.363322 0.078153
vt 0.363411 0.221658
vt 0.047389 0.221527
vt 0.046167 0.078153
vt 0.416226 0.396637
vt 0.409485 0.479010
vt 0.351131 0.466950
vt 0.363041 0.351667
vt 0.500148 0.408080
vt 0.420189 0.402425
vt 0.423243 0.358669
vt 0.516843 0.365598
vt 0.393908 0.392799
vt 0.393908 0.495325
vt 0.365392 0.487267
vt 0.365392 0.364283
vt 0.506088 0.557675
vt 0.506088 0.468580
vt 0.533808 0.478523
vt 0.533808 0.585395
vt 0.554811 0.973929
vt 0.079578 0.973929
vt 0.227644 0.781435
vt 0.633187 0.783876
vt 0.045873 0.078961
vt 0.363537 0.078683
vt 0.362948 0.298438
vt 0.046319 0.297971
vt 0.814431 0.059536
vt 0.481877 0.059125
vt 0.482853 0.296986
vt 0.815021 0.298705
vt 0.048671 0.080975
vt 0.359117 0.080553
vt 0.358735 0.296154
vt 0.049515 0.296915
vt 0.418837 0.541079
vt 0.483917 0.545930
vt 0.480537 0.586184
vt 0.403598 0.579703
vt 0.514390 0.572103
vt 0.511010 0.377246
vt 0.528874 0.378158
vt 0.528874 0.609120
vt 0.409652 0.413100
vt 0.409652 0.529871
vt 0.358521 0.515421
vt 0.358522 0.361969
vt 0.415995 0.404208
vt 0.420482 0.622624
vt 0.397247 0.615664
vt 0.397247 0.356908
vt 0.454334 0.977472
vt 0.161165 0.977472
vt 0.317595 0.776273
vt 0.509278 0.776273
vt 0.564015 0.974357
vt 0.034258 0.974357
vt 0.181896 0.782539
vt 0.625580 0.784290
vt 0.550915 0.974244
vt 0.051932 0.974244
vt 0.205924 0.771505
vt 0.633128 0.790664
vt 0.607301 0.947179
vt 0.136705 0.947179
vt 0.259781 0.783488
vt 0.641931 0.797563
vt 0.414450 0.561839
vt 0.533639 0.553015
vt 0.530044 0.602767
vt 0.365277 0.602767
vt 0.385096 0.576665
vt 0.480460 0.576665
vt 0.473102 0.603051
vt 0.358710 0.603051
vt 0.504210 0.393845
vt 0.408615 0.393845
vt 0.419371 0.364016
vt 0.534039 0.364016
vt 0.562229 0.974291
vt 0.241722 0.974291
vt 0.395579 0.779195
vt 0.605135 0.779196
vt 0.441488 0.978812
vt 0.139108 0.978812
vt 0.302044 0.771852
vt 0.499748 0.771852
vt 0.493867 0.972133
vt 0.171428 0.972133
vt 0.326842 0.774849
vt 0.537662 0.774849
vt 0.705540 0.789758
vt 0.812215 0.790227
vt 0.812367 0.939307
vt 0.705463 0.939532
vt 0.485967 0.403075
vt 0.363638 0.403075
vt 0.385305 0.342981
vt 0.546061 0.342981
vt 0.363091 0.521636
vt 0.388625 0.496177
vt 0.407607 0.495059
vt 0.382306 0.521408
vt 0.202759 0.796095
vt 0.498317 0.796095
vt 0.538396 0.976929
vt 0.345152 0.976929
vt 0.812224 0.790154
vt 0.705205 0.790029
vt 0.705483 0.939387
vt 0.812415 0.939134
vt 0.360199 0.602338
vt 0.381820 0.559194
vt 0.403389 0.547376
vt 0.382554 0.590815
vt 0.054150 0.785742
vt 0.539740 0.785742
vt 0.596120 0.959341
vt 0.189420 0.961570
vt 0.049051 0.080211
vt 0.360321 0.081713
vt 0.359587 0.296247
vt 0.049536 0.297742
vt 0.816559 0.057080
vt 0.816880 0.209807
vt 0.478753 0.212008
vt 0.479528 0.058197
vt 0.515000 0.225715
vt 0.701272 0.233827
vt 0.700184 0.235618
vt 0.622874 0.234890
vt 0.565715 0.234352
vt 0.510068 0.233827
vt 0.478548 0.058601
vt 0.480385 0.222966
vt 0.818513 0.219336
vt 0.812516 0.060813
vt 0.818248 0.059210
vt 0.479779 0.059429
vt 0.479179 0.299653
vt 0.816088 0.297722
vt 0.094159 0.793944
vt 0.515433 0.793944
vt 0.584967 0.963022
vt 0.225478 0.964580
vt 0.199889 0.803310
vt 0.456299 0.803310
vt 0.505771 0.978808
vt 0.338123 0.978808
vt 0.461384 0.358713
vt 0.475475 0.358713
vt 0.475475 0.596178
vt 0.461384 0.596178
vt 0.416277 0.449570
vt 0.416277 0.317616
vt 0.416277 0.361138
vt 0.460794 0.361138
vt 0.460794 0.317616
vt 0.460794 0.449570
vt 0.705764 0.790255
vt 0.812111 0.790829
vt 0.812034 0.938770
vt 0.706086 0.938522
vt 0.046020 0.787633
vt 0.568536 0.787633
vt 0.627460 0.958124
vt 0.189215 0.975862
vt 0.189099 0.798228
vt 0.472346 0.798229
vt 0.508508 0.970572
vt 0.323314 0.970572
vt 0.519255 0.432063
vt 0.491816 0.439228
vt 0.510463 0.405430
vt 0.544641 0.397322
vt 0.551617 0.408238
vt 0.523593 0.438200
vt 0.496270 0.440801
vt 0.518028 0.410207
vt 0.478395 0.058636
vt 0.815911 0.058712
vt 0.816674 0.296571
vt 0.479792 0.296771
vt 0.396569 0.452231
vt 0.423650 0.454275
vt 0.444272 0.481593
vt 0.455571 0.501198
vt 0.406265 0.466365
vt 0.046351 0.077085
vt 0.046294 0.223498
vt 0.362963 0.224987
vt 0.363356 0.077810
vt 0.480096 0.057916
vt 0.478854 0.218849
vt 0.816978 0.216729
vt 0.817822 0.057638
vt 0.363172 0.080115
vt 0.046338 0.079703
vt 0.045475 0.298471
vt 0.362597 0.299057
vt 0.074340 0.784057
vt 0.535630 0.784057
vt 0.611631 0.954272
vt 0.216764 0.971481
vt 0.207572 0.783445
vt 0.460104 0.783445
vt 0.507493 0.956756
vt 0.342381 0.956756
vt 0.397402 0.429456
vt 0.345098 0.376488
vt 0.418829 0.377105
vt 0.428839 0.377189
vt 0.473225 0.377560
vt 0.484209 0.377652
vt 0.549588 0.378198
vt 0.496836 0.430288
vt 0.812172 0.790599
vt 0.705338 0.789548
vt 0.705436 0.939445
vt 0.812194 0.939427
vt 0.368949 0.422301
vt 0.397078 0.454290
vt 0.400161 0.460188
vt 0.345701 0.421268
vt 0.489335 0.358713
vt 0.489335 0.596178
vt 0.749211 0.242576
vt 0.502944 0.243625
vt 0.504445 0.237567
vt 0.567404 0.231953
vt 0.601981 0.228870
vt 0.680674 0.224372
vt 0.754810 0.222694
vt 0.487092 0.222366
vt 0.567132 0.222366
vt 0.645529 0.222366
vt 0.756648 0.222366
vt 0.758901 0.228286
vt 0.497299 0.249184
vt 0.522657 0.522277
vt 0.552359 0.553374
vt 0.529111 0.552342
vt 0.499964 0.520211
vt 0.423100 0.505129
vt 0.445122 0.493046
vt 0.439813 0.511113
vt 0.419514 0.539368
vt 0.542238 0.218670
vt 0.719056 0.236947
vt 0.717075 0.242124
vt 0.664328 0.242124
vt 0.600360 0.242124
vt 0.533265 0.242124
vt 0.415962 0.616827
vt 0.391041 0.616827
vt 0.391041 0.358712
vt 0.415962 0.358712
vt 0.419961 0.457283
vt 0.419961 0.335296
vt 0.419961 0.383163
vt 0.467554 0.383163
vt 0.467554 0.335296
vt 0.467554 0.457283
vt 0.799123 0.234274
vt 0.479374 0.234274
vt 0.499399 0.221441
vt 0.819148 0.221441
vt 0.415962 0.358712
vt 0.438673 0.358712
vt 0.438673 0.619954
vt 0.415962 0.619954
vt 0.411954 0.435570
vt 0.411954 0.306212
vt 0.411954 0.355935
vt 0.461819 0.355935
vt 0.461819 0.306212
vt 0.461819 0.435570
vt 0.366120 0.358712
vt 0.391041 0.358712
vt 0.391041 0.619954
vt 0.366120 0.619954
vt 0.535822 0.226397
vt 0.591019 0.226397
vt 0.644194 0.226397
vt 0.701913 0.226397
vt 0.703243 0.230891
vt 0.541846 0.246756
vt 0.461384 0.616827
vt 0.438673 0.616827
vt 0.438673 0.358712
vt 0.461384 0.358712
vt 0.255364 0.359266
vt 0.256876 0.719849
vt 0.218117 0.719849
vt 0.216605 0.359266
vt 0.373228 0.429486
vt 0.345109 0.401479
vt 0.378305 0.402063
vt 0.400144 0.430502
vt 0.477864 0.222300
vt 0.800117 0.222300
vt 0.820530 0.235124
vt 0.498277 0.235124
vt 0.541640 0.221038
vt 0.720798 0.238648
vt 0.719322 0.243637
vt 0.662239 0.243637
vt 0.606701 0.243637
vt 0.534952 0.243637
vt 0.534231 0.221750
vt 0.608972 0.221750
vt 0.667719 0.221750
vt 0.735269 0.221750
vt 0.737435 0.227413
vt 0.544045 0.247403
vt 0.797709 0.238306
vt 0.481566 0.238306
vt 0.501421 0.225832
vt 0.817564 0.225832
vt 0.256325 0.362696
vt 0.248766 0.723279
vt 0.210006 0.723279
vt 0.217565 0.362696
vt 0.483390 0.229989
vt 0.785536 0.229989
vt 0.804296 0.242011
vt 0.502151 0.242011
vt 0.431788 0.469229
vt 0.451179 0.468068
vt 0.446074 0.478427
vt 0.517287 0.590833
vt 0.503426 0.590833
vt 0.503426 0.358713
vt 0.517287 0.358713
vt 0.517757 0.525668
vt 0.545197 0.559018
vt 0.522831 0.555605
vt 0.495856 0.521663
vt 0.452794 0.496941
vt 0.447760 0.484365
vt 0.470129 0.488470
vt 0.477636 0.225127
vt 0.798129 0.225127
vt 0.815296 0.236207
vt 0.494803 0.236207
vt 0.489335 0.590833
vt 0.489335 0.358713
vt 0.538658 0.227998
vt 0.589682 0.227998
vt 0.643442 0.227998
vt 0.715112 0.227998
vt 0.714574 0.230166
vt 0.536221 0.237818
vt 0.234266 0.357436
vt 0.233480 0.719509
vt 0.189377 0.722176
vt 0.184449 0.357436
vt 0.484881 0.228131
vt 0.796546 0.228131
vt 0.807182 0.234839
vt 0.495516 0.234839
vt 0.808407 0.238270
vt 0.476871 0.238270
vt 0.488035 0.231064
vt 0.819571 0.231064
vt 0.264091 0.359998
vt 0.262579 0.722697
vt 0.220382 0.722698
vt 0.221893 0.359998
vt 0.802317 0.233082
vt 0.487703 0.233082
vt 0.504780 0.222310
vt 0.819393 0.222310
vt 0.468012 0.286920
vt 0.468012 0.433699
vt 0.419607 0.433699
vt 0.419607 0.286920
vt 0.419607 0.362191
vt 0.468012 0.362191
vt 0.481151 0.059470
vt 0.695925 0.063774
vt 0.697911 0.214307
vt 0.480315 0.210931
vt 0.396977 0.528890
vt 0.344225 0.580979
vt 0.344505 0.515408
vt 0.344541 0.506856
vt 0.344748 0.458533
vt 0.344785 0.449838
vt 0.525411 0.351667
vt 0.531213 0.406047
vt 0.216253 0.591253
vt 0.216253 0.658747
vt 0.674240 0.085479
vt 0.674240 0.218422
vt 0.541297 0.218422
vt 0.541297 0.085479
vt 0.501770 0.347745
vt 0.505297 0.397161
vt 0.711280 0.221545
vt 0.710410 0.061411
vt 0.479691 0.060193
vt 0.480560 0.222154
vt 0.686561 0.206333
vt 0.477266 0.207951
vt 0.476812 0.058213
vt 0.688684 0.058387
vt 0.707205 0.058860
vt 0.707233 0.215008
vt 0.478804 0.214431
vt 0.478782 0.058287
vt 0.283747 0.591253
vt 0.534039 0.492664
vt 0.504210 0.501094
vt 0.549275 0.451548
vt 0.549238 0.460243
vt 0.549032 0.508566
vt 0.548995 0.517119
vt 0.548715 0.582689
vt 0.496411 0.529721
vt 0.483336 0.582142
vt 0.472352 0.582050
vt 0.427967 0.581679
vt 0.417957 0.581595
vt 0.546061 0.523335
vt 0.485967 0.540318
vt 0.427247 0.585395
vt 0.417252 0.557675
vt 0.403598 0.363563
vt 0.422291 0.363019
vt 0.355793 0.496742
vt 0.408845 0.486127
vt 0.358710 0.501321
vt 0.385096 0.491856
vt 0.455343 0.614288
vt 0.452201 0.576246
vt 0.512772 0.361969
vt 0.527031 0.413100
vt 0.489016 0.364283
vt 0.496968 0.392799
vt 0.516843 0.362932
vt 0.516843 0.621345
vt 0.496088 0.625965
vt 0.500148 0.405414
vt 0.475758 0.470753
vt 0.447975 0.473424
vt 0.468221 0.446662
vt 0.426667 0.502148
vt 0.399129 0.504045
vt 0.407818 0.490871
vt 0.378050 0.535272
vt 0.344462 0.537241
vt 0.496528 0.486404
vt 0.493582 0.478155
vt 0.550961 0.516029
vt 0.517765 0.515445
vt 0.448115 0.459444
vt 0.438306 0.441668
vt 0.469299 0.485700
vt 0.420482 0.457882
vt 0.476039 0.443361
vt 0.495469 0.442196
vt 0.493222 0.446648
vt 0.519908 0.415938
vt 0.539122 0.415710
vt 0.398752 0.448316
vt 0.400258 0.452936
vt 0.350396 0.411170
vt 0.372762 0.414584
vt 0.421166 0.452431
vt 0.474356 0.472193
vt 0.446467 0.479494
vt 0.460257 0.453359
vt 0.428111 0.511302
vt 0.400178 0.518615
vt 0.411410 0.499992
vt 0.382483 0.552128
vt 0.348305 0.560236
vt 0.512266 0.541251
vt 0.491184 0.512143
vt 0.517779 0.514122
vt 0.545152 0.542450
vt 0.471310 0.483632
vt 0.343535 0.422049
vt 0.376421 0.423248
vt 0.465936 0.451763
vt 0.488001 0.439655
vt 0.486010 0.446809
vt 0.507881 0.396772
vt 0.530236 0.385249
vt 0.453504 0.498309
vt 0.448956 0.486603
vt 0.472131 0.488737
vt 0.420300 0.456431
vt 0.283747 0.658747
s 0
f 40/1/1 39/2/1 12/3/1 6/4/1
f 72/5/2 71/6/2 11/7/2 2/8/2
f 61/9/3 53/10/3 9/11/3 4/12/3
f 63/13/4 7/14/4 18/15/4 64/16/4
f 93/17/5 85/18/5 10/19/5 8/20/5
f 22/21/6 67/22/6 66/23/6 26/24/6
f 1/25/6 41/26/6 37/27/6 11/28/6
f 15/29/6 45/30/6 43/31/6 19/32/6
f 14/33/6 65/34/6 64/35/6 18/36/6
f 65/37/7 14/38/7 26/39/7 66/40/7
f 41/41/8 1/42/8 19/43/8 43/44/8
f 95/45/9 5/46/9 20/47/9 96/48/9
f 73/49/10 3/50/10 17/51/10 75/52/10
f 7/53/6 63/54/6 62/55/6 10/56/6
f 3/57/6 73/58/6 69/59/6 9/60/6
f 23/61/6 49/62/6 47/63/6 27/64/6
f 5/65/6 95/66/6 94/67/6 12/68/6
f 99/69/11 24/70/11 36/71/11 100/72/11
f 45/73/12 15/74/12 27/75/12 47/76/12
f 97/77/13 16/78/13 28/79/13 98/80/13
f 77/81/14 13/82/14 25/83/14 79/84/14
f 21/85/6 81/86/6 79/87/6 25/88/6
f 13/89/6 77/90/6 75/91/6 17/92/6
f 16/93/6 97/94/6 96/95/6 20/96/6
f 81/97/15 21/98/15 33/99/15 83/100/15
f 67/101/16 22/102/16 34/103/16 68/104/16
f 49/105/17 23/106/17 35/107/17 51/108/17
f 30/109/18 29/110/18 158/111/18 159/112/18
f 24/113/6 99/114/6 98/115/6 28/116/6
f 60/117/19 59/118/19 58/119/19 139/120/19
f 24/121/16 50/122/16 52/123/16 36/124/16
f 32/125/20 30/126/20 159/127/20 157/128/20
f 52/129/21 50/130/21 48/131/21 102/132/21
f 16/133/22 46/134/22 48/135/22 28/136/22
f 5/137/23 42/138/23 44/139/23 20/140/23
f 2/141/24 11/142/24 37/143/24 38/144/24
f 140/145/25 142/146/25 139/147/25 173/148/25 174/149/25 103/150/25
f 8/151/26 10/152/26 62/153/26 54/154/26
f 3/155/27 55/156/27 56/157/27 17/158/27
f 13/159/28 57/160/28 58/161/28 25/162/28
f 21/163/17 59/164/17 60/165/17 33/166/17
f 143/167/6 52/168/6 102/169/6 145/170/6
f 141/171/6 142/172/6 149/173/6 151/174/6 144/175/6 147/176/6
f 29/177/29 31/178/29 160/179/29 158/180/29
f 15/181/30 78/182/30 80/183/30 27/184/30
f 23/185/11 82/186/11 84/187/11 35/188/11
f 82/189/31 80/190/31 127/191/31 84/192/31
f 92/193/32 91/194/32 90/195/32 113/196/32
f 1/197/33 74/198/33 76/199/33 19/200/33
f 94/201/34 95/202/34 96/203/34 179/204/34 180/205/34
f 4/206/35 9/207/35 69/208/35 70/209/35
f 6/210/36 12/211/36 94/212/36 86/213/36
f 7/214/37 87/215/37 88/216/37 18/217/37
f 14/218/38 89/219/38 90/220/38 26/221/38
f 22/222/15 91/223/15 92/224/15 34/225/15
f 31/226/6 35/227/6 84/228/6 118/229/6 114/230/6 100/231/6 36/232/6 32/233/6
f 31/234/39 32/235/39 157/236/39 160/237/39
f 54/238/40 62/239/40 184/240/40 109/241/40
f 68/168/6 138/242/6 107/243/6 101/169/6
f 148/244/41 145/245/41 102/246/41 185/247/41 181/248/41 182/249/41 108/250/41
f 109/251/41 184/252/41 183/253/41 101/254/41 107/255/41 106/256/41
f 67/257/42 68/258/42 101/259/42 66/260/42
f 46/261/43 44/262/43 181/263/43 185/264/43 48/131/43
f 116/265/44 117/266/44 113/267/44 169/268/44 170/269/44 110/270/44
f 115/271/6 92/272/6 113/273/6 117/274/6
f 115/275/6 117/276/6 123/277/6 122/278/6 121/279/6 120/280/6
f 117/281/45 116/282/45 124/283/45 123/284/45
f 118/285/6 84/286/6 127/287/6 126/288/6
f 118/289/6 126/290/6 137/291/6 136/292/6 132/293/6 114/294/6
f 100/295/6 114/296/6 132/297/6 131/298/6
f 111/299/44 171/300/44 172/301/44 112/302/44 121/303/44 119/304/44
f 83/305/6 120/306/6 121/307/6 112/308/6
f 125/309/44 122/310/44 123/311/44 124/312/44
f 81/313/46 83/314/46 112/315/46 79/316/46
f 119/317/47 121/318/47 122/319/47 125/320/47
f 133/321/48 126/322/48 127/323/48 177/324/48 178/325/48 128/326/48
f 130/327/48 180/328/48 179/329/48 131/330/48 132/331/48 129/332/48
f 126/333/47 133/334/47 134/335/47 137/336/47
f 135/337/48 136/338/48 137/339/48 134/340/48
f 129/341/45 132/342/45 136/343/45 135/344/45
f 139/120/49 58/119/49 57/345/49 56/346/49 173/347/49
f 141/348/6 60/349/6 139/350/6 142/351/6
f 49/352/50 51/353/50 104/354/50 47/355/50
f 47/355/51 104/354/51 176/356/51 43/357/51 45/358/51
f 106/359/52 107/360/52 153/361/52 154/362/52
f 51/349/6 147/363/6 144/364/6 104/350/6
f 105/365/25 175/366/25 176/367/25 104/368/25 144/369/25 146/370/25
f 152/371/25 151/372/25 149/373/25 150/374/25
f 146/375/53 144/376/53 151/377/53 152/378/53
f 142/379/52 140/380/52 150/381/52 149/382/52
f 154/383/41 153/384/41 156/385/41 155/386/41
f 145/387/53 148/388/53 155/389/53 156/390/53
f 107/391/6 138/392/6 143/393/6 145/394/6 156/395/6 153/396/6
f 165/397/39 162/398/39 161/399/39 166/400/39
f 29/401/6 33/402/6 60/403/6 141/404/6 147/405/6 51/406/6 35/227/6 31/226/6
f 26/24/6 90/407/6 91/408/6 22/21/6
f 160/409/54 161/409/54 163/410/54 158/410/54
f 165/411/6 168/412/6 164/413/6 162/414/6
f 12/68/6 39/415/6 42/416/6 5/65/6
f 163/417/18 164/418/18 168/419/18 167/420/18
f 166/421/20 167/422/20 168/423/20 165/424/20
f 164/425/29 163/426/29 161/427/29 162/428/29
f 166/429/55 161/409/55 160/409/55 157/429/55
f 20/96/6 44/430/6 46/431/6 16/93/6
f 32/233/6 36/232/6 52/432/6 143/433/6 138/434/6 68/435/6 34/436/6 30/437/6
f 30/437/6 34/436/6 92/438/6 115/439/6 120/440/6 83/441/6 33/402/6 29/401/6
f 28/116/6 48/442/6 50/443/6 24/113/6
f 18/36/6 88/444/6 89/445/6 14/33/6
f 10/56/6 85/446/6 87/447/6 7/53/6
f 25/88/6 58/448/6 59/449/6 21/85/6
f 17/92/6 56/450/6 57/451/6 13/89/6
f 9/60/6 53/452/6 55/453/6 3/57/6
f 27/64/6 80/454/6 82/455/6 23/61/6
f 19/32/6 76/456/6 78/457/6 15/29/6
f 11/458/6 71/459/6 74/460/6 1/461/6
f 113/196/56 90/195/56 89/462/56 88/463/56 169/464/56
f 169/464/57 88/463/57 87/465/57 85/466/57 170/467/57
f 170/467/58 85/466/58 93/468/58 110/469/58
f 69/470/59 171/471/59 111/472/59 70/473/59
f 75/474/60 172/475/60 171/471/60 69/470/60 73/476/60
f 79/316/61 112/315/61 172/475/61 75/474/61 77/477/61
f 173/347/62 56/346/62 55/478/62 53/479/62 174/480/62
f 174/480/63 53/479/63 61/481/63 103/482/63
f 37/483/64 175/484/64 105/485/64 38/486/64
f 43/357/65 176/356/65 175/484/65 37/483/65 41/487/65
f 127/191/66 80/190/66 78/488/66 76/489/66 177/490/66
f 177/490/67 76/489/67 74/491/67 71/492/67 178/493/67
f 178/493/68 71/492/68 72/494/68 128/495/68
f 131/496/69 98/497/69 99/498/69 100/499/69
f 179/204/70 96/203/70 97/500/70 98/497/70 131/496/70
f 180/205/71 130/501/71 86/502/71 94/201/71
f 181/263/72 44/262/72 42/503/72 39/504/72 182/505/72
f 182/505/73 39/504/73 40/506/73 108/507/73
f 183/508/74 64/509/74 65/510/74 66/260/74 101/259/74
f 184/240/75 62/239/75 63/511/75 64/509/75 183/508/75
f 158/410/76 163/410/76 167/512/76 159/512/76
f 159/512/77 167/512/77 166/429/77 157/429/77
f 48/131/78 185/264/78 102/132/78
