# Blender 5.0.0
# www.blender.org
o Tent_Collision
v -29.920963 -0.098742 -1.604036
v -28.507471 2.813152 -1.588835
v -27.009081 -0.098742 -1.595698
v -28.507109 2.813152 -1.599988
v -29.929300 -0.098742 1.307845
v -28.515644 2.813130 1.311799
v -27.017420 -0.098742 1.316183
v -28.515448 2.813152 1.311894
v -28.361708 -0.247228 1.892896
v -28.333166 -0.153046 1.731719
v -28.505699 -0.081539 -2.583419
v -30.140385 -0.109923 2.489502
v -30.140385 -0.006995 2.474833
v -30.114033 -0.109923 2.500418
v -30.103659 -0.006995 2.490045
v -30.103117 -0.109923 2.526771
v -30.088448 -0.006995 2.526771
v -30.114033 -0.109923 2.553124
v -30.103659 -0.006995 2.563497
v -30.140385 -0.109923 2.564039
v -30.140385 -0.006995 2.578709
v -30.166737 -0.109923 2.553124
v -30.177111 -0.006995 2.563497
v -30.177652 -0.109923 2.526771
v -30.192322 -0.006995 2.526771
v -30.166737 -0.109923 2.500418
v -30.177111 -0.006995 2.490045
v -30.330448 -0.109923 -2.979376
v -30.330448 -0.006995 -2.994045
v -30.304096 -0.109923 -2.968460
v -30.293722 -0.006995 -2.978833
v -30.293180 -0.109923 -2.942107
v -30.278511 -0.006995 -2.942107
v -30.304096 -0.109923 -2.915755
v -30.293722 -0.006995 -2.905382
v -30.330448 -0.109923 -2.904839
v -30.330448 -0.006995 -2.890169
v -30.356800 -0.109923 -2.915755
v -30.367174 -0.006995 -2.905382
v -30.367716 -0.109923 -2.942107
v -30.382385 -0.006995 -2.942107
v -30.356800 -0.109923 -2.968460
v -30.367174 -0.006995 -2.978833
v -26.892735 -0.109923 -2.999944
v -26.892735 -0.006995 -3.014614
v -26.866383 -0.109923 -2.989029
v -26.856009 -0.006995 -2.999402
v -26.855467 -0.109923 -2.962676
v -26.840797 -0.006995 -2.962676
v -26.866383 -0.109923 -2.936323
v -26.856009 -0.006995 -2.925950
v -26.892735 -0.109923 -2.925408
v -26.892735 -0.006995 -2.910738
v -26.919086 -0.109923 -2.936323
v -26.929461 -0.006995 -2.925950
v -26.930002 -0.109923 -2.962676
v -26.944672 -0.006995 -2.962676
v -26.919086 -0.109923 -2.989029
v -26.929461 -0.006995 -2.999402
v -26.702881 -0.109923 2.468930
v -26.702881 -0.006995 2.454260
v -26.676529 -0.109923 2.479845
v -26.666155 -0.006995 2.469472
v -26.665613 -0.109923 2.506198
v -26.650944 -0.006995 2.506198
v -26.676529 -0.109923 2.532551
v -26.666155 -0.006995 2.542924
v -26.702881 -0.109923 2.543467
v -26.702881 -0.006995 2.558136
v -26.729233 -0.109923 2.532551
v -26.739607 -0.006995 2.542924
v -26.740149 -0.109923 2.506198
v -26.754818 -0.006995 2.506198
v -26.729233 -0.109923 2.479845
v -26.739607 -0.006995 2.469472
vn -0.5542 0.2702 -0.7873
vn 0.8892 0.4575 0.0025
vn 0.2920 0.1516 0.9443
vn -0.8996 0.4367 -0.0026
vn -0.0411 0.9992 -0.0001
vn -0.3319 0.1598 0.9297
vn 0.5321 0.2726 -0.8016
vn 0.3794 -0.1305 -0.9160
vn 0.9160 -0.1305 -0.3794
vn 0.9160 -0.1305 0.3794
vn 0.3794 -0.1305 0.9160
vn -0.3794 -0.1305 0.9160
vn -0.9160 -0.1305 0.3794
vn -0.0000 1.0000 -0.0000
vn -0.9160 -0.1305 -0.3794
vn -0.3794 -0.1305 -0.9160
vn -0.0000 -1.0000 -0.0000
vt 0.918741 0.875628
vt 0.269598 0.518653
vt 0.269226 0.519018
vt 0.911580 0.521926
vt 0.563245 -0.018245
vt 0.559174 0.524370
vt -0.000468 0.524370
vt 0.003602 -0.018245
vt 0.859143 0.963595
vt 0.000449 0.519136
vt 0.859143 0.738051
vt 0.545450 1.004484
vt 0.551412 0.534956
vt 0.999653 0.524948
vt 0.995430 0.994445
vt 0.344117 0.000018
vt -0.000000 0.000018
vt 0.001318 0.000000
vt 0.344106 0.000010
vt 0.859143 0.516921
vt 0.000459 0.519079
vt 0.859143 0.095459
vt 0.903992 0.147166
vt 1.000000 0.500000
vt 1.000000 1.000000
vt 0.875000 1.000000
vt 0.875000 0.500000
vt 0.750000 1.000000
vt 0.750000 0.500000
vt 0.625000 1.000000
vt 0.625000 0.500000
vt 0.500000 1.000000
vt 0.500000 0.500000
vt 0.375000 1.000000
vt 0.375000 0.500000
vt 0.250000 1.000000
vt 0.250000 0.500000
vt 0.419706 0.419706
vt 0.250000 0.490000
vt 0.080294 0.419706
vt 0.010000 0.250000
vt 0.080294 0.080294
vt 0.250000 0.010000
vt 0.419706 0.080294
vt 0.490000 0.250000
vt 0.125000 1.000000
vt 0.125000 0.500000
vt 0.000000 1.000000
vt 0.000000 0.500000
vt 0.750000 0.490000
vt 0.919706 0.419706
vt 0.990000 0.250000
vt 0.919706 0.080294
vt 0.750000 0.010000
vt 0.580294 0.080294
vt 0.510000 0.250000
vt 0.580294 0.419706
s 0
f 1/1/1 2/2/1 4/3/1 11/4/1
f 3/5/2 4/6/2 8/7/2 7/8/2
f 7/9/3 8/10/3 10/11/3
f 5/12/4 6/13/4 2/14/4 1/15/4
f 8/16/5 4/17/5 2/18/5 6/19/5
f 9/20/6 8/10/6 6/21/6 5/22/6
f 11/4/7 4/3/7 3/23/7
f 12/24/8 13/25/8 15/26/8 14/27/8
f 14/27/9 15/26/9 17/28/9 16/29/9
f 16/29/10 17/28/10 19/30/10 18/31/10
f 18/31/11 19/30/11 21/32/11 20/33/11
f 20/33/12 21/32/12 23/34/12 22/35/12
f 22/35/13 23/34/13 25/36/13 24/37/13
f 15/38/14 13/39/14 27/40/14 25/41/14 23/42/14 21/43/14 19/44/14 17/45/14
f 24/37/15 25/36/15 27/46/15 26/47/15
f 26/47/16 27/46/16 13/48/16 12/49/16
f 12/50/17 14/51/17 16/52/17 18/53/17 20/54/17 22/55/17 24/56/17 26/57/17
f 28/24/8 29/25/8 31/26/8 30/27/8
f 30/27/9 31/26/9 33/28/9 32/29/9
f 32/29/10 33/28/10 35/30/10 34/31/10
f 34/31/11 35/30/11 37/32/11 36/33/11
f 36/33/12 37/32/12 39/34/12 38/35/12
f 38/35/13 39/34/13 41/36/13 40/37/13
f 31/38/14 29/39/14 43/40/14 41/41/14 39/42/14 37/43/14 35/44/14 33/45/14
f 40/37/15 41/36/15 43/46/15 42/47/15
f 42/47/16 43/46/16 29/48/16 28/49/16
f 28/50/17 30/51/17 32/52/17 34/53/17 36/54/17 38/55/17 40/56/17 42/57/17
f 44/24/8 45/25/8 47/26/8 46/27/8
f 46/27/9 47/26/9 49/28/9 48/29/9
f 48/29/10 49/28/10 51/30/10 50/31/10
f 50/31/11 51/30/11 53/32/11 52/33/11
f 52/33/12 53/32/12 55/34/12 54/35/12
f 54/35/13 55/34/13 57/36/13 56/37/13
f 47/38/14 45/39/14 59/40/14 57/41/14 55/42/14 53/43/14 51/44/14 49/45/14
f 56/37/15 57/36/15 59/46/15 58/47/15
f 58/47/16 59/46/16 45/48/16 44/49/16
f 44/50/17 46/51/17 48/52/17 50/53/17 52/54/17 54/55/17 56/56/17 58/57/17
f 60/24/8 61/25/8 63/26/8 62/27/8
f 62/27/9 63/26/9 65/28/9 64/29/9
f 64/29/10 65/28/10 67/30/10 66/31/10
f 66/31/11 67/30/11 69/32/11 68/33/11
f 68/33/12 69/32/12 71/34/12 70/35/12
f 70/35/13 71/34/13 73/36/13 72/37/13
f 63/38/14 61/39/14 75/40/14 73/41/14 71/42/14 69/43/14 67/44/14 65/45/14
f 72/37/15 73/36/15 75/46/15 74/47/15
f 74/47/16 75/46/16 61/48/16 60/49/16
f 60/50/17 62/51/17 64/52/17 66/53/17 68/54/17 70/55/17 72/56/17 74/57/17
