# Blender 5.0.0
# www.blender.org
o Stone_Ring_Collision
v -0.662822 0.009111 0.373206
v -0.662822 0.238531 0.373206
v -0.696701 0.117652 0.129408
v -0.696701 0.198672 0.129408
v -0.459297 0.009111 0.267324
v -0.459297 0.238531 0.267324
v -0.624826 0.117652 0.092015
v -0.624826 0.198672 0.092015
v -0.536739 0.073083 0.476948
v -0.536739 0.174559 0.476948
v -0.446717 0.174559 0.430115
v -0.446717 0.073083 0.430115
v -0.695951 0.048140 0.259729
v -0.695951 0.227168 0.259729
v -0.524525 0.048140 0.170547
v -0.524525 0.227168 0.170547
v -0.810074 0.009111 -0.101796
v -0.810074 0.217873 -0.101796
v -0.665520 0.042358 -0.291459
v -0.665520 0.123378 -0.291459
v -0.572822 0.009111 -0.053438
v -0.572822 0.217873 -0.053438
v -0.586133 0.042358 -0.275278
v -0.586133 0.123378 -0.275278
v -0.777393 0.073083 0.058177
v -0.777393 0.187581 0.058177
v -0.657090 0.187581 0.082697
v -0.657090 0.073083 0.082697
v -0.750655 0.007918 -0.199248
v -0.750655 0.196187 -0.199248
v -0.560876 0.007918 -0.160567
v -0.560876 0.196187 -0.160567
v -0.374809 0.009111 -0.406674
v -0.374809 0.218489 -0.406674
v -0.588936 0.042358 -0.286623
v -0.588936 0.123378 -0.286623
v -0.569727 0.009111 -0.546831
v -0.569727 0.218489 -0.546831
v -0.654716 0.042358 -0.333922
v -0.654716 0.123378 -0.333922
v -0.324112 0.028749 -0.555246
v -0.324112 0.178009 -0.555246
v -0.453666 0.178009 -0.648403
v -0.453666 0.028749 -0.648403
v -0.471466 0.025735 -0.339166
v -0.471466 0.190360 -0.339166
v -0.626182 0.025735 -0.450415
v -0.626182 0.190360 -0.450415
v -0.084487 0.009111 -0.542432
v -0.084487 0.228199 -0.542432
v -0.350865 0.030293 -0.545964
v -0.350865 0.135443 -0.545964
v -0.143807 0.009111 -0.769115
v -0.143807 0.228199 -0.769115
v -0.377485 0.030293 -0.647689
v -0.377485 0.135443 -0.647689
v 0.017606 0.021519 -0.585671
v 0.017606 0.167865 -0.585671
v -0.027219 0.167865 -0.756966
v -0.027219 0.021519 -0.756966
v -0.212846 0.003542 -0.525740
v -0.212846 0.200297 -0.525740
v -0.264078 0.003542 -0.721519
v -0.264078 0.200297 -0.721519
v 0.198761 0.009111 -0.443648
v 0.198761 0.221481 -0.443648
v -0.017858 0.030293 -0.596179
v -0.017858 0.135443 -0.596179
v 0.280390 0.009111 -0.657152
v 0.280390 0.221481 -0.657152
v 0.019693 0.030293 -0.694395
v 0.019693 0.135443 -0.694395
v 0.323565 0.062515 -0.462860
v 0.323565 0.167865 -0.462860
v 0.372808 0.167865 -0.591656
v 0.372808 0.062515 -0.591656
v 0.086230 0.003542 -0.508873
v 0.086230 0.200297 -0.508873
v 0.154884 0.003542 -0.688438
v 0.154884 0.200297 -0.688438
v 0.571240 0.009111 -0.479306
v 0.571240 0.223461 -0.479306
v 0.617175 0.037649 -0.216895
v 0.617175 0.127930 -0.216895
v 0.365220 0.009111 -0.381686
v 0.365220 0.223461 -0.381686
v 0.543356 0.037649 -0.181917
v 0.543356 0.127930 -0.181917
v 0.485117 0.021519 -0.559905
v 0.485117 0.181905 -0.559905
v 0.325107 0.181905 -0.484086
v 0.325107 0.021519 -0.484086
v 0.619275 0.003542 -0.359979
v 0.619275 0.192157 -0.359979
v 0.449374 0.003542 -0.279473
v 0.449374 0.192157 -0.279473
v 0.745089 0.002328 -0.100742
v 0.745089 0.223461 -0.100742
v 0.653953 0.037649 0.159921
v 0.653953 0.127930 0.159921
v 0.520077 0.002328 -0.091727
v 0.520077 0.223461 -0.091727
v 0.572330 0.037649 0.163191
v 0.572330 0.127930 0.163191
v 0.679411 0.046323 -0.207912
v 0.679411 0.181905 -0.207912
v 0.532360 0.181905 -0.202021
v 0.532360 0.046323 -0.202021
v 0.726376 0.003542 0.028514
v 0.726376 0.192157 0.028514
v 0.527792 0.003542 0.036470
v 0.527792 0.192157 0.036470
v 0.418408 0.002328 0.328767
v 0.418408 0.223461 0.328767
v 0.618486 0.037300 0.149946
v 0.618486 0.132745 0.149946
v 0.610727 0.002328 0.445923
v 0.610727 0.223461 0.445923
v 0.703987 0.037300 0.202032
v 0.703987 0.132745 0.202032
v 0.413711 0.046323 0.454374
v 0.413711 0.181905 0.454374
v 0.539395 0.181905 0.530938
v 0.539395 0.046323 0.530938
v 0.505597 0.003542 0.231528
v 0.505597 0.192157 0.231529
v 0.673292 0.003542 0.333685
v 0.673292 0.192157 0.333685
v 0.400828 0.002328 0.350388
v 0.400828 0.223461 0.350388
v 0.398865 0.037300 0.615377
v 0.398865 0.132745 0.615377
v 0.194290 0.002328 0.401340
v 0.194290 0.223461 0.401340
v 0.301662 0.037300 0.639357
v 0.301662 0.132745 0.639357
v 0.327100 0.046323 0.255573
v 0.327100 0.181905 0.255573
v 0.184215 0.181905 0.290823
v 0.184215 0.046323 0.290823
v 0.420506 0.003542 0.477786
v 0.420506 0.192157 0.477786
v 0.229860 0.003542 0.524818
v 0.229860 0.192157 0.524818
v 0.147996 0.023432 0.730882
v 0.147996 0.244565 0.730882
v -0.121967 0.058403 0.671565
v -0.121967 0.153849 0.671565
v 0.111832 0.023432 0.510353
v 0.111832 0.244565 0.510353
v -0.138168 0.058403 0.572767
v -0.138168 0.153849 0.572767
v 0.246780 0.072572 0.655293
v 0.246780 0.208153 0.655293
v 0.224803 0.208153 0.521275
v 0.224803 0.072572 0.521275
v 0.017700 0.024646 0.729798
v 0.017700 0.219507 0.729798
v -0.014994 0.024646 0.530421
v -0.014994 0.219507 0.530421
v -0.322338 0.026885 0.412958
v -0.322338 0.240785 0.412958
v -0.125894 0.061857 0.601351
v -0.125894 0.157303 0.601351
v -0.436179 0.026885 0.619915
v -0.436179 0.240785 0.619915
v -0.174147 0.061857 0.689072
v -0.174147 0.157303 0.689072
v -0.452707 0.070880 0.422324
v -0.452707 0.206462 0.422324
v -0.520154 0.206462 0.544939
v -0.520154 0.070880 0.544939
v -0.215332 0.028100 0.484841
v -0.215332 0.216715 0.484841
v -0.310731 0.028100 0.658271
v -0.310731 0.216715 0.658271
vn -1.0000 -0.0000 0.0058
vn -0.4615 -0.0000 -0.8871
vn 0.8292 -0.0000 -0.5589
vn -0.6354 -0.0000 0.7722
vn -0.1472 -0.9478 -0.2830
vn -0.0450 0.9952 -0.0865
vn 0.4615 -0.0000 0.8871
vn 0.1808 -0.9200 0.3476
vn 0.1808 0.9200 0.3476
vn 0.9970 -0.0000 -0.0770
vn -0.1101 0.9711 -0.2117
vn -0.2373 -0.8577 -0.4561
vn 0.6165 -0.0000 -0.7874
vn -0.9599 -0.0000 0.2802
vn -0.7347 -0.0000 -0.6784
vn 0.1997 -0.0000 -0.9799
vn 0.9938 -0.0000 0.1108
vn -0.9798 -0.0000 0.2002
vn -0.0022 -0.9999 0.0109
vn 0.0395 0.9802 -0.1940
vn -0.1997 -0.0000 0.9799
vn -0.0782 -0.9200 0.3839
vn -0.0395 0.9803 0.1937
vn 0.8503 -0.0000 0.5263
vn 0.1121 0.8276 -0.5500
vn 0.0610 -0.9522 -0.2993
vn 0.9766 -0.0000 -0.2150
vn -0.8538 -0.0000 -0.5206
vn 0.4083 -0.0000 0.9128
vn -0.5838 -0.0000 0.8119
vn -0.8630 -0.0000 -0.5053
vn 0.9464 -0.0000 0.3229
vn -0.0863 -0.9890 0.1200
vn -0.1431 0.9695 0.1990
vn 0.5838 -0.0000 -0.8119
vn 0.0757 -0.9916 -0.1052
vn 0.1519 0.9656 -0.2112
vn -0.6586 -0.0000 -0.7525
vn -0.3012 0.8567 0.4188
vn -0.9713 -0.0000 -0.2379
vn 0.5726 -0.0000 0.8198
vn -0.1450 -0.0000 0.9894
vn -0.9674 -0.0000 0.2532
vn -0.3680 -0.0000 -0.9298
vn 0.3900 -0.0000 0.9208
vn 0.0419 -0.9991 -0.0110
vn -0.2054 0.9772 0.0538
vn 0.9674 -0.0000 -0.2532
vn 0.1087 -0.9937 -0.0284
vn 0.4662 0.8762 -0.1220
vn 0.1036 -0.0000 -0.9946
vn -0.4361 0.8926 0.1141
vn -0.1973 -0.9790 0.0516
vn -0.5456 -0.0000 -0.8380
vn 0.1290 -0.0000 0.9916
vn -0.6426 -0.0000 0.7662
vn -0.9341 -0.0000 -0.3571
vn 0.2419 -0.0000 -0.9703
vn 0.1521 -0.0000 0.9884
vn 0.0405 -0.9991 0.0155
vn -0.1520 0.9867 -0.0581
vn 0.9341 -0.0000 0.3571
vn 0.4088 -0.8991 0.1563
vn 0.4101 0.8985 0.1568
vn 0.5782 -0.0000 -0.8159
vn -0.4211 0.8926 -0.1610
vn -0.1905 -0.9790 -0.0728
vn 0.0440 -0.0000 -0.9990
vn -0.5015 -0.0000 0.8652
vn 0.9999 -0.0000 0.0147
vn 0.4282 -0.0000 0.9037
vn -0.7720 -0.0000 0.6356
vn 0.6833 -0.0000 -0.7301
vn -0.0186 -0.9991 -0.0392
vn 0.1014 0.9715 0.2140
vn -0.4282 -0.0000 -0.9037
vn -0.0481 -0.9937 -0.1016
vn -0.1517 0.9352 -0.3201
vn -0.9311 -0.0000 0.3647
vn 0.1916 0.8944 0.4043
vn 0.1099 -0.9665 0.2320
vn -0.7202 -0.0000 0.6938
vn 0.9277 -0.0000 -0.3734
vn 0.8758 -0.0000 0.4827
vn 0.0400 -0.0000 0.9992
vn -0.9982 -0.0000 0.0601
vn 0.8526 -0.0000 -0.5225
vn 0.0004 -1.0000 0.0094
vn 0.0095 0.9715 0.2367
vn -0.0400 -0.0000 -0.9992
vn -0.0149 -0.9282 -0.3719
vn -0.0142 0.9352 -0.3539
vn -0.9939 -0.0000 -0.1107
vn 0.0179 0.8944 0.4470
vn 0.0103 -0.9665 0.2565
vn -0.9434 -0.0000 0.3316
vn 0.9897 -0.0000 0.1433
vn -0.5857 -0.0000 -0.8105
vn 0.5202 -0.0000 -0.8540
vn 0.8735 -0.0000 0.4869
vn -0.9993 -0.0000 -0.0374
vn 0.0049 -1.0000 -0.0081
vn 0.1232 0.9715 -0.2023
vn -0.5202 -0.0000 0.8540
vn -0.1936 -0.9282 0.3179
vn -0.1843 0.9352 0.3025
vn 0.7661 -0.0000 0.6428
vn 0.2185 0.9076 -0.3586
vn 0.1323 -0.9671 -0.2171
vn 0.9739 -0.0000 0.2271
vn -0.7445 -0.0000 -0.6676
vn 0.9879 -0.0000 0.1554
vn 0.2395 -0.0000 0.9709
vn -0.9609 -0.0000 0.2768
vn 0.7894 -0.0000 -0.6139
vn 0.0023 -1.0000 0.0092
vn 0.0567 0.9715 0.2300
vn -0.2395 -0.0000 -0.9709
vn -0.0891 -0.9282 -0.3614
vn -0.0848 0.9352 -0.3439
vn -0.9959 -0.0000 0.0908
vn 0.1006 0.9076 0.4077
vn 0.0609 -0.9671 0.2469
vn -0.8473 -0.0000 0.5311
vn 0.9883 -0.0000 -0.1526
vn -0.3848 -0.0000 0.9230
vn -0.9868 -0.0000 0.1618
vn -0.1563 -0.0000 -0.9877
vn 0.6077 -0.0000 0.7942
vn -0.0093 -1.0000 0.0015
vn -0.1890 0.9815 0.0310
vn 0.9868 -0.0000 -0.1618
vn 0.4034 -0.9126 -0.0661
vn 0.3108 0.9491 -0.0510
vn 0.0962 -0.0000 -0.9954
vn -0.4493 0.8904 0.0737
vn -0.2509 -0.9671 0.0411
vn -0.3251 -0.0000 -0.9457
vn -0.0083 -0.0000 1.0000
vn 0.7932 -0.0000 -0.6089
vn 0.8762 -0.0000 0.4820
vn -0.2924 -0.0000 0.9563
vn -0.0717 -0.0000 -0.9974
vn 0.0083 -1.0000 0.0046
vn 0.1614 0.9829 0.0888
vn -0.8762 -0.0000 -0.4820
vn -0.3261 -0.9282 -0.1794
vn -0.2616 0.9544 -0.1439
vn -0.6660 -0.0000 0.7459
vn 0.3540 0.9148 0.1947
vn 0.2133 -0.9699 0.1173
vn -0.2200 -0.0000 0.9755
vn 0.5576 -0.0000 -0.8301
vt 0.375000 0.125000
vt 0.625000 0.125000
vt 0.625000 0.250000
vt 0.375000 0.250000
vt 0.625000 0.500000
vt 0.375000 0.500000
vt 0.375000 0.625000
vt 0.625000 0.625000
vt 0.625000 0.750000
vt 0.375000 0.750000
vt 0.625000 0.000000
vt 0.375000 0.000000
vt 0.125000 0.625000
vt 0.125000 0.750000
vt 0.875000 0.625000
vt 0.875000 0.750000
vt 0.625000 1.000000
vt 0.375000 1.000000
vt 0.875000 0.500000
vt 0.125000 0.500000
vt 0.375000 0.625000
vt 0.625000 0.625000
vt 0.375000 0.625000
vt 0.625000 0.625000
s 0
f 13/1/1 14/2/1 4/3/1 3/4/1
f 3/4/2 4/3/2 8/5/2 7/6/2
f 15/7/3 16/8/3 6/9/3 5/10/3
f 2/11/4 1/12/4 9/12/4 10/11/4
f 13/13/5 15/7/5 5/10/5 1/14/5
f 16/8/6 14/15/6 2/16/6 6/9/6
f 12/10/7 11/9/7 10/17/7 9/18/7
f 1/14/8 5/10/8 12/10/8 9/14/8
f 6/9/9 2/16/9 10/16/9 11/9/9
f 5/10/10 6/9/10 11/9/10 12/10/10
f 8/5/11 4/19/11 14/15/11 16/8/11
f 3/20/12 7/6/12 15/7/12 13/13/12
f 7/6/13 8/5/13 16/8/13 15/7/13
f 1/12/14 2/11/14 14/2/14 13/1/14
f 29/1/15 30/2/15 20/3/15 19/4/15
f 19/4/16 20/3/16 24/5/16 23/6/16
f 31/21/17 32/22/17 22/9/17 21/10/17
f 18/11/18 17/12/18 25/12/18 26/11/18
f 29/13/19 31/21/19 21/10/19 17/14/19
f 32/22/20 30/15/20 18/16/20 22/9/20
f 28/10/21 27/9/21 26/17/21 25/18/21
f 17/14/22 21/10/22 28/10/22 25/14/22
f 22/9/23 18/16/23 26/16/23 27/9/23
f 21/10/24 22/9/24 27/9/24 28/10/24
f 24/5/25 20/19/25 30/15/25 32/22/25
f 19/20/26 23/6/26 31/21/26 29/13/26
f 23/6/27 24/5/27 32/22/27 31/21/27
f 17/12/28 18/11/28 30/2/28 29/1/28
f 45/1/29 46/2/29 36/3/29 35/4/29
f 35/4/30 36/3/30 40/5/30 39/6/30
f 47/23/31 48/22/31 38/9/31 37/10/31
f 34/11/32 33/12/32 41/12/32 42/11/32
f 45/13/33 47/23/33 37/10/33 33/14/33
f 48/22/34 46/15/34 34/16/34 38/9/34
f 44/10/35 43/9/35 42/17/35 41/18/35
f 33/14/36 37/10/36 44/10/36 41/14/36
f 38/9/37 34/16/37 42/16/37 43/9/37
f 37/10/38 38/9/38 43/9/38 44/10/38
f 40/5/39 36/19/39 46/15/39 48/22/39
f 35/20/33 39/6/33 47/23/33 45/13/33
f 39/6/40 40/5/40 48/22/40 47/23/40
f 33/12/41 34/11/41 46/2/41 45/1/41
f 61/1/42 62/2/42 52/3/42 51/4/42
f 51/4/43 52/3/43 56/5/43 55/6/43
f 63/7/44 64/24/44 54/9/44 53/10/44
f 50/11/45 49/12/45 57/12/45 58/11/45
f 61/13/46 63/7/46 53/10/46 49/14/46
f 64/24/47 62/15/47 50/16/47 54/9/47
f 60/10/48 59/9/48 58/17/48 57/18/48
f 49/14/49 53/10/49 60/10/49 57/14/49
f 54/9/50 50/16/50 58/16/50 59/9/50
f 53/10/51 54/9/51 59/9/51 60/10/51
f 56/5/52 52/19/52 62/15/52 64/24/52
f 51/20/53 55/6/53 63/7/53 61/13/53
f 55/6/54 56/5/54 64/24/54 63/7/54
f 49/12/55 50/11/55 62/2/55 61/1/55
f 77/1/56 78/2/56 68/3/56 67/4/56
f 67/4/57 68/3/57 72/5/57 71/6/57
f 79/7/58 80/24/58 70/9/58 69/10/58
f 66/11/59 65/12/59 73/12/59 74/11/59
f 77/13/60 79/7/60 69/10/60 65/14/60
f 80/24/61 78/15/61 66/16/61 70/9/61
f 76/10/62 75/9/62 74/17/62 73/18/62
f 65/14/63 69/10/63 76/10/63 73/14/63
f 70/9/64 66/16/64 74/16/64 75/9/64
f 69/10/65 70/9/65 75/9/65 76/10/65
f 72/5/66 68/19/66 78/15/66 80/24/66
f 67/20/67 71/6/67 79/7/67 77/13/67
f 71/6/68 72/5/68 80/24/68 79/7/68
f 65/12/69 66/11/69 78/2/69 77/1/69
f 93/1/70 94/2/70 84/3/70 83/4/70
f 83/4/71 84/3/71 88/5/71 87/6/71
f 95/7/72 96/24/72 86/9/72 85/10/72
f 82/11/73 81/12/73 89/12/73 90/11/73
f 93/13/74 95/7/74 85/10/74 81/14/74
f 96/24/75 94/15/75 82/16/75 86/9/75
f 92/10/76 91/9/76 90/17/76 89/18/76
f 81/14/77 85/10/77 92/10/77 89/14/77
f 86/9/78 82/16/78 90/16/78 91/9/78
f 85/10/79 86/9/79 91/9/79 92/10/79
f 88/5/80 84/19/80 94/15/80 96/24/80
f 83/20/81 87/6/81 95/7/81 93/13/81
f 87/6/82 88/5/82 96/24/82 95/7/82
f 81/12/83 82/11/83 94/2/83 93/1/83
f 109/1/84 110/2/84 100/3/84 99/4/84
f 99/4/85 100/3/85 104/5/85 103/6/85
f 111/7/86 112/24/86 102/9/86 101/10/86
f 98/11/87 97/12/87 105/12/87 106/11/87
f 109/13/88 111/7/88 101/10/88 97/14/88
f 112/24/89 110/15/89 98/16/89 102/9/89
f 108/10/90 107/9/90 106/17/90 105/18/90
f 97/14/91 101/10/91 108/10/91 105/14/91
f 102/9/92 98/16/92 106/16/92 107/9/92
f 101/10/93 102/9/93 107/9/93 108/10/93
f 104/5/94 100/19/94 110/15/94 112/24/94
f 99/20/95 103/6/95 111/7/95 109/13/95
f 103/6/96 104/5/96 112/24/96 111/7/96
f 97/12/97 98/11/97 110/2/97 109/1/97
f 125/1/98 126/2/98 116/3/98 115/4/98
f 115/4/99 116/3/99 120/5/99 119/6/99
f 127/7/100 128/24/100 118/9/100 117/10/100
f 114/11/101 113/12/101 121/12/101 122/11/101
f 125/13/102 127/7/102 117/10/102 113/14/102
f 128/24/103 126/15/103 114/16/103 118/9/103
f 124/10/104 123/9/104 122/17/104 121/18/104
f 113/14/105 117/10/105 124/10/105 121/14/105
f 118/9/106 114/16/106 122/16/106 123/9/106
f 117/10/107 118/9/107 123/9/107 124/10/107
f 120/5/108 116/19/108 126/15/108 128/24/108
f 115/20/109 119/6/109 127/7/109 125/13/109
f 119/6/110 120/5/110 128/24/110 127/7/110
f 113/12/111 114/11/111 126/2/111 125/1/111
f 141/1/112 142/2/112 132/3/112 131/4/112
f 131/4/113 132/3/113 136/5/113 135/6/113
f 143/7/114 144/24/114 134/9/114 133/10/114
f 130/11/115 129/12/115 137/12/115 138/11/115
f 141/13/116 143/7/116 133/10/116 129/14/116
f 144/24/117 142/15/117 130/16/117 134/9/117
f 140/10/118 139/9/118 138/17/118 137/18/118
f 129/14/119 133/10/119 140/10/119 137/14/119
f 134/9/120 130/16/120 138/16/120 139/9/120
f 133/10/121 134/9/121 139/9/121 140/10/121
f 136/5/122 132/19/122 142/15/122 144/24/122
f 131/20/123 135/6/123 143/7/123 141/13/123
f 135/6/124 136/5/124 144/24/124 143/7/124
f 129/12/125 130/11/125 142/2/125 141/1/125
f 157/1/126 158/2/126 148/3/126 147/4/126
f 147/4/127 148/3/127 152/5/127 151/6/127
f 159/7/128 160/24/128 150/9/128 149/10/128
f 146/11/129 145/12/129 153/12/129 154/11/129
f 157/13/130 159/7/130 149/10/130 145/14/130
f 160/24/131 158/15/131 146/16/131 150/9/131
f 156/10/132 155/9/132 154/17/132 153/18/132
f 145/14/133 149/10/133 156/10/133 153/14/133
f 150/9/134 146/16/134 154/16/134 155/9/134
f 149/10/135 150/9/135 155/9/135 156/10/135
f 152/5/136 148/19/136 158/15/136 160/24/136
f 147/20/137 151/6/137 159/7/137 157/13/137
f 151/6/138 152/5/138 160/24/138 159/7/138
f 145/12/139 146/11/139 158/2/139 157/1/139
f 173/1/140 174/2/140 164/3/140 163/4/140
f 163/4/141 164/3/141 168/5/141 167/6/141
f 175/7/142 176/24/142 166/9/142 165/10/142
f 162/11/143 161/12/143 169/12/143 170/11/143
f 173/13/144 175/7/144 165/10/144 161/14/144
f 176/24/145 174/15/145 162/16/145 166/9/145
f 172/10/146 171/9/146 170/17/146 169/18/146
f 161/14/147 165/10/147 172/10/147 169/14/147
f 166/9/148 162/16/148 170/16/148 171/9/148
f 165/10/149 166/9/149 171/9/149 172/10/149
f 168/5/150 164/19/150 174/15/150 176/24/150
f 163/20/151 167/6/151 175/7/151 173/13/151
f 167/6/152 168/5/152 176/24/152 175/7/152
f 161/12/153 162/11/153 174/2/153 173/1/153
