# Blender 5.0.0
# www.blender.org
o Map
v 92.163284 -8.183403 57.490574
v 92.163284 -8.183403 -57.490574
v -87.104713 0.000000 0.000000
v -0.423865 8.884299 15.288580
v -0.423865 8.884299 -14.815963
v -87.104713 0.000000 10.139969
v 58.062675 -8.183403 48.179550
v -87.104713 0.000000 -10.139969
v 58.062675 -8.183403 -48.179550
v -19.084864 8.879827 15.113903
v -19.084864 8.879827 -14.773459
v 75.112968 -8.183403 57.512306
v 75.112968 -8.183403 -57.512306
v 110.312576 -8.268393 48.020256
v 110.312576 -8.268393 -49.586861
v 125.308693 -8.268393 28.016775
v 125.308693 -8.268393 -31.268347
v 125.308693 -8.268393 -1.625784
v 125.308693 -8.268393 -16.447063
v 125.308693 -8.268393 13.195497
v -53.004108 0.000000 -30.678305
v -70.054413 0.000000 -41.141430
v -106.399269 0.000000 -20.279938
v -87.104713 0.000000 -52.703667
v -125.659309 0.000000 -30.678305
v -125.659309 0.000000 -41.141430
v -125.659309 0.000000 -52.703667
v -106.399269 0.000000 -65.573479
v -87.104713 0.000000 60.652592
v -53.004108 0.000000 60.652592
v -136.947220 0.000000 60.652592
v -137.464508 13.328341 91.401909
v -110.862770 13.328341 91.401909
v -70.054413 0.000000 91.401909
v -110.345482 0.000000 60.652592
v -110.345482 0.000000 20.279938
v -137.464508 13.328341 129.090591
v -110.862770 13.328341 129.090591
v -87.622002 13.328341 129.090591
v 92.163284 23.127609 57.490574
v 92.163284 23.127609 -57.490574
v -87.104713 31.311010 0.000000
v -0.423865 28.530342 15.288580
v -0.423865 28.530342 -14.815963
v -87.104713 31.311010 10.139969
v 58.062675 23.127609 48.179550
v -87.104713 31.311010 -10.139969
v 58.062675 23.127609 -48.179550
v -19.084864 28.525864 15.113903
v -19.084864 28.525864 -14.773459
v 75.112968 23.127609 57.512306
v 75.112968 23.127609 -57.512306
v 110.312576 23.042618 48.020256
v 110.312576 23.042618 -49.586861
v 125.308693 23.042618 28.016775
v 125.308693 23.042618 -31.268347
v 125.308693 23.042618 -1.625784
v 125.308693 23.042618 -16.447063
v 125.308693 23.042618 13.195497
v -53.004108 31.311010 -30.678305
v -70.054413 31.311010 -41.141430
v -106.399269 31.311010 -20.279938
v -87.104713 31.311010 -52.703667
v -125.659309 31.311010 -30.678305
v -125.659309 31.311010 -41.141430
v -125.659309 31.311010 -52.703667
v -106.399269 31.311010 -65.573479
v -53.004108 31.311010 60.652592
v -136.947220 31.311010 60.652592
v -137.464508 44.639351 91.401909
v -70.054413 31.311010 91.401909
v -110.345482 31.311010 20.279938
v -137.464508 44.639351 129.090591
v -110.862770 44.639351 129.090591
v -87.622002 44.639351 129.090591
v -65.152397 0.000000 91.401909
v -53.004108 0.000000 87.789558
v -63.042870 0.000000 91.347031
v -60.997437 0.000000 91.184059
v -59.078255 0.000000 90.917953
v -57.343624 0.000000 90.556786
v -55.846268 0.000000 90.111534
v -54.631672 0.000000 89.595734
v -53.736740 0.000000 89.025055
v -53.188671 0.000000 88.416840
v -53.004108 31.311010 87.789558
v -65.152397 31.311010 91.401909
v -53.188671 31.311010 88.416840
v -53.736740 31.311010 89.025055
v -54.631672 31.311010 89.595734
v -55.846268 31.311010 90.111534
v -57.343624 31.311010 90.556786
v -59.078255 31.311010 90.917953
v -60.997437 31.311010 91.184059
v -63.042870 31.311010 91.347031
v -53.004108 0.000000 24.130562
v -46.152378 1.793738 17.012474
v -53.004108 0.000000 16.429316
v -52.900021 0.027250 23.412268
v -52.590900 0.108176 22.616518
v -52.086155 0.240315 21.767494
v -51.401104 0.419655 20.890985
v -50.556583 0.640746 20.013634
v -49.578239 0.896869 19.162090
v -48.495808 1.180243 18.362232
v -47.342167 1.482258 17.638361
v -46.152374 33.104748 17.012474
v -53.004108 31.311010 24.130562
v -47.342163 32.793270 17.638361
v -48.495804 32.491253 18.362232
v -49.578236 32.207878 19.162090
v -50.556580 31.951757 20.013634
v -51.401104 31.730667 20.890985
v -52.086147 31.551327 21.767494
v -52.590893 31.419188 22.616518
v -52.900009 31.338263 23.412268
v -87.104713 0.000000 17.265265
v -97.243042 0.000000 20.279938
v -87.299530 0.000000 17.853397
v -87.876457 0.000000 18.418930
v -88.813339 0.000000 18.940128
v -90.074165 0.000000 19.396961
v -91.610489 0.000000 19.771875
v -93.363274 0.000000 20.050461
v -95.265152 0.000000 20.222013
v -97.243042 31.311010 20.279938
v -87.104713 31.311010 17.265265
v -95.265152 31.311010 20.222013
v -93.363274 31.311010 20.050461
v -91.610489 31.311010 19.771875
v -90.074165 31.311010 19.396961
v -88.813339 31.311010 18.940128
v -87.876457 31.311010 18.418930
v -87.299530 31.311010 17.853397
v -130.103592 0.000000 20.279938
v -136.947220 0.000000 22.314920
v -131.874847 0.000000 20.349279
v -133.525406 0.000000 20.552572
v -134.942764 0.000000 20.875971
v -136.030350 0.000000 21.297430
v -136.714020 0.000000 21.788231
v -136.947220 31.311010 22.314920
v -130.103592 31.311010 20.279938
v -136.714020 31.311010 21.788231
v -136.030350 31.311010 21.297430
v -134.942764 31.311010 20.875971
v -133.525406 31.311010 20.552572
v -131.874847 31.311010 20.349279
v -75.991989 0.000000 -41.141430
v -87.104713 0.000000 -44.445850
v -77.730408 0.000000 -41.182117
v -79.426025 0.000000 -41.303165
v -81.037071 0.000000 -41.501591
v -82.523895 0.000000 -41.772526
v -83.849892 0.000000 -42.109276
v -84.982384 0.000000 -42.503563
v -85.893517 0.000000 -42.945675
v -86.560829 0.000000 -43.424732
v -86.967911 0.000000 -43.928928
v -87.104713 31.311010 -44.445850
v -75.991989 31.311010 -41.141430
v -86.967911 31.311010 -43.928928
v -86.560829 31.311010 -43.424732
v -85.893517 31.311010 -42.945675
v -84.982384 31.311010 -42.503563
v -83.849892 31.311010 -42.109276
v -82.523895 31.311010 -41.772526
v -81.037071 31.311010 -41.501591
v -79.426025 31.311010 -41.303165
v -77.730408 31.311010 -41.182117
v -53.004108 0.000000 -36.946487
v -67.111671 0.000000 -41.141430
v -53.275181 0.000000 -37.764877
v -54.077980 0.000000 -38.551823
v -55.381660 0.000000 -39.277073
v -57.136116 0.000000 -39.912762
v -59.273922 0.000000 -40.434452
v -61.712936 0.000000 -40.822109
v -64.359413 0.000000 -41.060825
v -67.111671 31.311010 -41.141430
v -53.004108 31.311010 -36.946487
v -64.359413 31.311010 -41.060825
v -61.712936 31.311010 -40.822109
v -59.273922 31.311010 -40.434452
v -57.136116 31.311010 -39.912762
v -55.381660 31.311010 -39.277073
v -54.077980 31.311010 -38.551823
v -53.275181 31.311010 -37.764877
v -106.399269 0.000000 -13.134902
v -96.327339 0.000000 -10.139969
v -106.275269 0.000000 -12.666391
v -105.906319 0.000000 -12.209416
v -105.301491 0.000000 -11.775231
v -104.475700 0.000000 -11.374524
v -103.449265 0.000000 -11.017165
v -102.247467 0.000000 -10.711950
v -100.899895 0.000000 -10.466397
v -99.439735 0.000000 -10.286552
v -97.902931 0.000000 -10.176842
v -96.327339 31.311010 -10.139969
v -106.399269 31.311010 -13.134902
v -97.902931 31.311010 -10.176842
v -99.439735 31.311010 -10.286552
v -100.899895 31.311010 -10.466397
v -102.247467 31.311010 -10.711950
v -103.449265 31.311010 -11.017165
v -104.475700 31.311010 -11.374524
v -105.301491 31.311010 -11.775231
v -105.906319 31.311010 -12.209416
v -106.275269 31.311010 -12.666391
v -119.857491 0.000000 -30.678305
v -106.399269 0.000000 -26.676441
v -118.100853 0.000000 -30.644068
v -116.374245 0.000000 -30.541946
v -114.707253 0.000000 -30.373680
v -113.128380 0.000000 -30.142159
v -111.664635 0.000000 -29.851336
v -110.341087 0.000000 -29.506187
v -109.180367 0.000000 -29.112625
v -108.202324 0.000000 -28.677374
v -107.423714 0.000000 -28.207890
v -106.857841 0.000000 -27.712200
v -106.514412 0.000000 -27.198790
v -106.399269 31.311010 -26.676441
v -119.857491 31.311010 -30.678305
v -106.514412 31.311010 -27.198790
v -106.857841 31.311010 -27.712200
v -107.423714 31.311010 -28.207890
v -108.202324 31.311010 -28.677374
v -109.180367 31.311010 -29.112625
v -110.341087 31.311010 -29.506187
v -111.664635 31.311010 -29.851336
v -113.128380 31.311010 -30.142159
v -114.707253 31.311010 -30.373680
v -116.374245 31.311010 -30.541946
v -118.100853 31.311010 -30.644068
v -45.742630 1.901006 -16.733736
v -53.004108 0.000000 -24.431786
v -53.004108 0.000000 -16.128092
v -47.159275 1.530138 -17.505344
v -48.521477 1.173522 -18.406851
v -49.776890 0.844863 -19.403616
v -50.877274 0.556791 -20.457329
v -51.780327 0.320378 -21.527502
v -52.451359 0.144706 -22.573006
v -52.864586 0.036527 -23.553661
v -53.004108 31.311010 -24.431786
v -45.742630 33.212017 -16.733736
v -52.864586 31.347538 -23.553661
v -52.451359 31.455717 -22.573006
v -51.780327 31.631388 -21.527502
v -50.877274 31.867802 -20.457329
v -49.776890 32.155876 -19.403616
v -48.521477 32.484535 -18.406851
v -47.159275 32.841148 -17.505344
v -87.104713 0.000000 -62.496567
v -97.418930 0.000000 -65.563545
v -87.261406 0.000000 -63.029133
v -87.726738 0.000000 -63.545532
v -88.486557 0.000000 -64.030052
v -89.517776 0.000000 -64.467979
v -90.789070 0.000000 -64.846001
v -92.261818 0.000000 -65.152641
v -93.891258 0.000000 -65.378578
v -95.627876 0.000000 -65.516945
v -97.418930 31.311010 -65.563545
v -87.104713 31.311010 -62.496567
v -95.627876 31.311010 -65.516945
v -93.891258 31.311010 -65.378578
v -92.261818 31.311010 -65.152641
v -90.789070 31.311010 -64.846001
v -89.517776 31.311010 -64.467979
v -88.486557 31.311010 -64.030052
v -87.726738 31.311010 -63.545532
v -87.261406 31.311010 -63.029133
v -106.399269 0.000000 -65.573479
v -125.659309 0.000000 -59.115627
v -110.685020 0.000000 -65.411560
v -114.755882 0.000000 -64.933945
v -118.407700 0.000000 -64.164574
v -121.457367 0.000000 -63.142025
v -123.751961 0.000000 -61.917580
v -125.176422 0.000000 -60.552628
v -125.659309 31.311010 -59.115627
v -106.399269 31.311010 -65.573479
v -125.176422 31.311010 -60.552628
v -123.751961 31.311010 -61.917580
v -121.457367 31.311010 -63.142025
v -118.407700 31.311010 -64.164574
v -114.755882 31.311010 -64.933945
v -110.685020 31.311010 -65.411560
v -87.622002 13.328341 95.746063
v -73.012680 2.244407 91.401909
v -87.255722 13.050446 94.779388
v -86.175224 12.230684 93.861198
v -84.434715 10.910178 93.037521
v -82.121452 9.155128 92.349663
v -79.351433 7.053548 91.832108
v -76.263565 4.710811 91.510818
v -73.012680 33.555420 91.401909
v -87.622002 44.639351 95.746063
v -76.263565 36.021824 91.510818
v -79.351433 38.364563 91.832108
v -82.121452 40.466141 92.349663
v -84.434715 42.221191 93.037521
v -86.175224 43.541695 93.861198
v -87.255722 44.361458 94.779388
v 36.245117 -6.219758 18.424204
v 42.416496 -8.183403 22.577526
v 41.012371 -8.183403 17.944723
v 37.526817 -6.727985 18.982790
v 38.816856 -7.201579 19.659889
v 40.027328 -7.608263 20.409353
v 41.075737 -7.920322 21.180109
v 41.890636 -8.116492 21.919632
v 42.416496 23.127609 22.577526
v 36.245117 25.091251 18.424204
v 41.890636 23.194519 21.919632
v 41.075737 23.390690 21.180109
v 40.027328 23.702747 20.409353
v 38.816856 24.109432 19.659889
v 37.526817 24.583025 18.982790
v 42.677971 -8.183403 -23.005384
v 35.450108 -5.892290 -18.057835
v 41.012371 -8.183403 -17.509857
v 42.057346 -8.105332 -22.224268
v 41.099964 -7.876451 -21.344954
v 39.871059 -7.512348 -20.427364
v 38.454384 -7.037846 -19.534025
v 36.946476 -6.485272 -18.725824
v 35.450108 25.418720 -18.057835
v 42.677971 23.127609 -23.005384
v 36.946476 24.825739 -18.725824
v 38.454384 24.273165 -19.534025
v 39.871059 23.798664 -20.427364
v 41.099964 23.434563 -21.344954
v 42.057346 23.205679 -22.224268
v -3.321196 8.884299 15.288580
v -3.321196 8.884299 -14.815963
v -16.187532 8.879827 15.113903
v -16.187532 8.879827 -14.773459
v -3.321196 28.530342 15.288580
v -3.321196 28.530342 -14.815963
v -16.187532 28.525864 15.113903
v -16.187532 28.525864 -14.773459
v -15.846189 8.879945 -1.757971
v -15.684958 8.880001 -3.476018
v -15.425085 8.880092 -5.105185
v -15.073793 8.880214 -6.629766
v -14.638319 8.880365 -8.033972
v -14.125896 8.880544 -9.302053
v -13.543749 8.880746 -10.418279
v -12.899119 8.880969 -11.366871
v -12.199234 8.881213 -12.132084
v -11.451320 8.881474 -12.698170
v -10.662617 8.881746 -13.049380
v -9.840355 8.882033 -13.169955
v -9.018093 8.882318 -13.049380
v -8.229391 8.882592 -12.698168
v -7.481476 8.882854 -12.132081
v -6.781590 8.883097 -11.366867
v -6.136961 8.883321 -10.418274
v -5.554814 8.883523 -9.302048
v -5.042390 8.883701 -8.033966
v -4.606917 8.883853 -6.629760
v -4.255629 8.883974 -5.105193
v -3.995752 8.884065 -3.476012
v -3.834520 8.884121 -1.757962
v -3.779173 8.884140 0.033175
v -3.834520 8.884121 1.824314
v -3.995753 8.884065 3.542361
v -4.255625 8.883974 5.171541
v -4.606916 8.883853 6.696107
v -5.042391 8.883700 8.100312
v -5.554816 8.883523 9.368396
v -6.136956 8.883321 10.484622
v -6.781590 8.883097 11.433212
v -7.481477 8.882854 12.198425
v -8.229390 8.882593 12.764511
v -9.018093 8.882318 13.115706
v -9.840355 8.882033 13.236280
v -10.662617 8.881747 13.115705
v -11.451321 8.881473 12.764510
v -12.199233 8.881213 12.198421
v -12.899119 8.880970 11.433210
v -13.543750 8.880746 10.484616
v -14.125896 8.880544 9.368390
v -14.638319 8.880365 8.100307
v -15.073790 8.880214 6.696101
v -15.425085 8.880092 5.171533
v -15.684958 8.880001 3.542356
v -15.846189 8.879945 1.824305
v -15.901537 8.879926 0.033166
v -9.840356 8.128881 0.033170
v -9.289982 -8.167119 74.046745
v 136.810104 -8.167119 74.046745
v -9.289982 -8.167119 -72.053337
v 136.810104 -8.167119 -72.053337
v -149.953186 -0.242852 136.517960
v -3.297760 -0.242852 136.517960
v -149.953186 -0.242852 -103.056961
v -3.297760 -0.242852 -103.056961
v -149.953186 -0.242852 16.730499
v -3.297760 -0.242852 16.730499
vn -0.3819 0.7076 0.5945
vn -0.3767 0.7069 -0.5986
vn -0.1163 0.6765 -0.7272
vn -0.1178 0.6768 0.7267
vn 0.1143 0.5482 -0.8285
vn 0.2059 0.5193 -0.8294
vn 0.1804 0.9121 -0.3681
vn -0.0498 0.5957 -0.8017
vn 0.2691 0.4989 -0.8238
vn 0.2189 0.2885 -0.9321
vn 0.3477 0.4698 -0.8114
vn 0.3194 0.4822 -0.8157
vn 0.1694 0.6511 0.7399
vn 0.1672 0.6507 -0.7407
vn 0.4485 0.6561 -0.6069
vn 0.4524 0.6559 0.6043
vn 0.0098 0.9781 -0.2078
vn 0.0177 0.9223 -0.3861
vn 0.8659 0.4612 -0.1937
vn 0.7581 0.6401 -0.1250
vn 0.5774 0.5774 -0.5774
vn -0.0000 0.7071 -0.7071
vn -0.2391 -0.0000 -0.9710
vn 0.2472 -0.0000 -0.9690
vn -0.2385 -0.0000 -0.9712
vn 1.0000 -0.0000 0.0094
vn 1.0000 -0.0000 0.0072
vn 1.0000 -0.0000 -0.0000
vn 0.7071 -0.0000 -0.7071
vn -0.2048 -0.0000 0.9788
vn -0.6037 -0.0000 0.7972
vn -0.6031 -0.0000 0.7976
vn -0.2043 -0.0000 0.9789
vn -0.6477 -0.0000 -0.7619
vn -0.6472 -0.0000 -0.7623
vn -0.9418 -0.0000 0.3363
vn -1.0000 -0.0000 -0.0000
vn -0.9487 -0.0000 -0.3161
vn -0.0000 -0.0000 -1.0000
vn 0.6900 -0.0000 -0.7238
vn -0.5774 0.5774 -0.5774
vn -0.7071 -0.0000 -0.7071
vn 0.2472 -0.0000 0.9690
vn 0.6900 -0.0000 0.7238
vn -0.0130 -0.0000 -0.9999
vn -0.0527 -0.0000 -0.9986
vn -0.1084 -0.0000 -0.9941
vn -0.1707 -0.0000 -0.9853
vn -0.2446 -0.0000 -0.9696
vn -0.3385 -0.0000 -0.9410
vn -0.4659 -0.0000 -0.8848
vn -0.6461 -0.0000 -0.7632
vn -0.8728 -0.0000 -0.4880
vn -0.9898 -0.0000 -0.1426
vn -0.9965 0.0458 -0.0701
vn -0.9974 -0.0000 -0.0727
vn -0.9659 -0.0000 -0.2589
vn -0.7517 0.6421 -0.1505
vn -0.8963 -0.0000 -0.4434
vn -0.7180 0.6441 -0.2636
vn -0.8221 -0.0000 -0.5694
vn -0.8288 -0.0000 -0.5596
vn -0.7515 -0.0000 -0.6597
vn -0.6457 0.6446 -0.4093
vn -0.6854 -0.0000 -0.7282
vn -0.6123 0.6414 -0.4623
vn -0.6219 -0.0000 -0.7831
vn -0.5762 0.6446 -0.5024
vn -0.5591 -0.0000 -0.8291
vn -0.5398 0.6484 -0.5368
vn -0.4942 -0.0000 -0.8693
vn -0.5017 0.6529 -0.5674
vn -0.2692 -0.0000 -0.9631
vn -0.0368 -0.0000 -0.9993
vn 0.0146 -0.0000 0.9999
vn 0.0596 -0.0000 0.9982
vn 0.1235 -0.0000 0.9923
vn 0.1972 -0.0000 0.9804
vn 0.2893 -0.0000 0.9572
vn 0.4147 -0.0000 0.9099
vn 0.5984 -0.0000 0.8012
vn 0.8485 -0.0000 0.5292
vn 0.9872 -0.0000 0.1593
vn -0.0000 -0.0000 1.0000
vn 0.9784 -0.0000 0.2069
vn 0.7760 -0.0000 0.6307
vn 0.4761 -0.0000 0.8794
vn 0.2927 -0.0000 0.9562
vn 0.1726 -0.0000 0.9850
vn 0.0808 -0.0000 0.9967
vn 0.0196 -0.0000 0.9998
vn -0.0117 -0.0000 0.9999
vn -0.0473 -0.0000 0.9989
vn -0.0968 -0.0000 0.9953
vn -0.1508 -0.0000 0.9886
vn -0.2128 -0.0000 0.9771
vn -0.2877 -0.0000 0.9577
vn -0.3833 -0.0000 0.9236
vn -0.5117 -0.0000 0.8591
vn -0.6868 -0.0000 0.7268
vn -0.8920 -0.0000 0.4520
vn -0.9916 -0.0000 0.1290
vn -0.9872 -0.0000 0.1592
vn -0.8485 -0.0000 0.5292
vn -0.5984 -0.0000 0.8012
vn -0.4147 -0.0000 0.9099
vn -0.2893 -0.0000 0.9572
vn -0.1972 -0.0000 0.9804
vn -0.1235 -0.0000 0.9923
vn -0.0596 -0.0000 0.9982
vn -0.0146 -0.0000 0.9999
vn 0.0117 -0.0000 -0.9999
vn 0.0473 -0.0000 -0.9989
vn 0.0968 -0.0000 -0.9953
vn 0.1508 -0.0000 -0.9886
vn 0.2128 -0.0000 -0.9771
vn 0.2877 -0.0000 -0.9577
vn 0.3833 -0.0000 -0.9236
vn 0.5117 -0.0000 -0.8591
vn 0.6868 -0.0000 -0.7268
vn 0.8920 -0.0000 -0.4520
vn 0.9916 -0.0000 -0.1290
vn 0.0097 -0.0000 -1.0000
vn 0.0393 -0.0000 -0.9992
vn 0.0798 -0.0000 -0.9968
vn 0.1228 -0.0000 -0.9924
vn 0.1700 -0.0000 -0.9854
vn 0.2237 -0.0000 -0.9747
vn 0.2869 -0.0000 -0.9580
vn 0.3642 -0.0000 -0.9313
vn 0.4624 -0.0000 -0.8867
vn 0.5899 -0.0000 -0.8074
vn 0.7515 -0.0000 -0.6597
vn 0.9198 -0.0000 -0.3924
vn 0.9941 -0.0000 -0.1083
vn -0.9968 -0.0000 0.0797
vn -0.9958 0.0502 0.0765
vn -0.7475 0.6443 0.1618
vn -0.9601 -0.0000 0.2798
vn -0.7146 0.6396 0.2834
vn -0.8817 -0.0000 0.4717
vn -0.6746 0.6392 0.3693
vn -0.8008 -0.0000 0.5989
vn -0.6340 0.6410 0.4326
vn -0.7249 -0.0000 0.6889
vn -0.5941 0.6440 0.4820
vn -0.6531 -0.0000 0.7573
vn -0.5538 0.6480 0.5229
vn -0.5828 -0.0000 0.8126
vn -0.5116 0.6529 0.5586
vn -0.5104 -0.0000 0.8599
vn -0.2782 -0.0000 0.9605
vn -0.0386 -0.0000 0.9993
vn -0.9898 -0.0000 0.1426
vn -0.8729 -0.0000 0.4880
vn -0.6461 -0.0000 0.7632
vn -0.4659 -0.0000 0.8848
vn -0.3385 -0.0000 0.9410
vn -0.2446 -0.0000 0.9696
vn -0.1707 -0.0000 0.9853
vn -0.1084 -0.0000 0.9941
vn -0.0527 -0.0000 0.9986
vn -0.0136 -0.0000 0.9999
vn -0.0011 -0.0000 1.0000
vn 0.9869 -0.0000 0.1614
vn 0.8443 -0.0000 0.5358
vn 0.5868 -0.0000 0.8097
vn 0.3957 -0.0000 0.9184
vn 0.2625 -0.0000 0.9649
vn 0.1615 -0.0000 0.9869
vn 0.0772 -0.0000 0.9970
vn 0.0378 -0.0000 0.9993
vn -0.0000 1.0000 -0.0000
vn -0.6755 0.6882 -0.2646
vn -0.5365 0.5897 -0.6037
vn -0.9865 -0.0000 -0.1637
vn -0.8556 -0.0000 -0.5176
vn -0.5823 -0.0000 -0.8129
vn -0.3855 -0.0000 -0.9227
vn -0.2552 -0.0000 -0.9669
vn -0.1601 -0.0000 -0.9871
vn -0.0830 -0.0000 -0.9966
vn -0.0237 -0.0000 -0.9997
vn 0.5270 0.6091 -0.5928
vn 0.3628 0.9312 -0.0351
vn 0.5499 0.6005 -0.5806
vn 0.5722 0.6001 -0.5591
vn 0.5934 0.6109 -0.5241
vn 0.5994 0.6538 -0.4618
vn 0.8184 0.1201 -0.5620
vn 0.8179 -0.0000 -0.5753
vn 0.7246 -0.0000 -0.6892
vn 0.6279 -0.0000 -0.7783
vn 0.5545 -0.0000 -0.8322
vn 0.4901 -0.0000 -0.8717
vn 0.4256 -0.0000 -0.9049
vn 0.2212 -0.0000 -0.9752
vn 0.0413 -0.0000 -0.9991
vn 0.3628 0.9312 0.0350
vn 0.8192 0.1192 0.5611
vn 0.6006 0.6539 0.4601
vn 0.5958 0.6108 0.5215
vn 0.5755 0.5997 0.5561
vn 0.5538 0.5999 0.5774
vn 0.5313 0.6084 0.5896
vn 0.2279 -0.0000 0.9737
vn 0.4336 -0.0000 0.9011
vn 0.4975 -0.0000 0.8674
vn 0.5611 -0.0000 0.8278
vn 0.6332 -0.0000 0.7740
vn 0.7278 -0.0000 0.6858
vn 0.8188 -0.0000 0.5741
vn 0.0438 -0.0000 0.9990
vn -0.2533 0.9674 -0.0000
vn 0.0068 -0.0000 -1.0000
vn 0.0047 0.7087 -0.7055
vn 0.0010 0.7067 0.7075
vn 0.0047 0.7055 -0.7087
vn 0.0010 0.7075 0.7067
vn 0.0017 -0.0000 1.0000
vn 0.0475 0.9987 0.0180
vn 0.0509 0.9986 0.0147
vn -0.0003 1.0000 -0.0000
vn -0.0288 0.9993 -0.0238
vn -0.0368 0.9991 -0.0230
vn -0.0482 0.9987 0.0180
vn -0.0415 0.9989 0.0201
vn 0.0577 0.9983 -0.0078
vn 0.0560 0.9984 -0.0117
vn 0.0408 0.9990 0.0201
vn -0.0231 0.9994 -0.0265
vn -0.0516 0.9986 0.0146
vn 0.0608 0.9981 -0.0041
vn 0.0361 0.9991 0.0230
vn -0.0145 0.9996 -0.0256
vn -0.0567 0.9983 0.0117
vn 0.0602 0.9982 -0.0000
vn 0.0281 0.9993 0.0238
vn -0.0080 0.9996 -0.0283
vn -0.0584 0.9983 0.0078
vn 0.0608 0.9981 0.0041
vn 0.0224 0.9994 0.0265
vn -0.0003 0.9997 -0.0258
vn -0.0615 0.9981 0.0041
vn 0.0139 0.9996 0.0256
vn 0.0073 0.9996 -0.0283
vn -0.0609 0.9981 -0.0000
vn 0.0073 0.9996 0.0283
vn 0.0139 0.9996 -0.0256
vn -0.0615 0.9981 -0.0041
vn -0.0003 0.9997 0.0258
vn 0.0224 0.9994 -0.0265
vn -0.0584 0.9983 -0.0078
vn -0.0080 0.9996 0.0283
vn 0.0281 0.9993 -0.0238
vn -0.0567 0.9983 -0.0117
vn -0.0145 0.9996 0.0256
vn 0.0361 0.9991 -0.0230
vn -0.0516 0.9986 -0.0146
vn -0.0231 0.9994 0.0265
vn 0.0408 0.9990 -0.0201
vn 0.0577 0.9983 0.0078
vn -0.0482 0.9987 -0.0180
vn -0.0288 0.9993 0.0238
vn 0.0475 0.9987 -0.0180
vn 0.0560 0.9984 0.0117
vn -0.0415 0.9989 -0.0201
vn -0.0368 0.9991 0.0230
vn 0.0509 0.9986 -0.0147
vt 0.233609 0.844174
vt 0.235472 0.562621
vt 0.368974 0.582065
vt 0.365531 0.831375
vt 0.574866 0.708653
vt 0.587393 0.718194
vt 0.561254 0.966322
vt 0.565688 0.699319
vt 0.602658 0.727466
vt 0.655079 0.749422
vt 0.638271 0.743394
vt 0.619903 0.736008
vt 0.544264 0.820122
vt 0.547228 0.605476
vt 0.713953 0.587611
vt 0.706752 0.847631
vt 0.450861 0.714423
vt 0.453463 0.966775
vt 0.330079 0.966775
vt 0.327814 0.713837
vt 0.450861 0.729892
vt 0.327814 0.729388
vt 0.328608 0.485079
vt 0.451780 0.485864
vt 0.704853 0.252048
vt 0.762640 0.252048
vt 0.762640 0.400923
vt 0.704853 0.400923
vt 0.594344 0.287312
vt 0.675610 0.248057
vt 0.675803 0.344946
vt 0.594537 0.403690
vt 0.367747 0.257229
vt 0.415722 0.257039
vt 0.416369 0.391466
vt 0.368394 0.391657
vt 0.202487 0.252048
vt 0.269578 0.252048
vt 0.269578 0.400923
vt 0.202487 0.400923
vt 0.635471 0.252048
vt 0.635471 0.400923
vt 0.349813 0.252048
vt 0.400045 0.252048
vt 0.400045 0.400923
vt 0.349813 0.400923
vt 0.450277 0.252048
vt 0.500508 0.252048
vt 0.500508 0.400923
vt 0.450277 0.400923
vt 0.352696 0.257029
vt 0.402142 0.256955
vt 0.402386 0.391393
vt 0.352940 0.391467
vt 0.550740 0.252048
vt 0.550740 0.400923
vt 0.456783 0.256874
vt 0.457026 0.391311
vt 0.319772 0.257419
vt 0.320420 0.391847
vt 0.390735 0.253733
vt 0.472130 0.253456
vt 0.472381 0.398066
vt 0.390986 0.398343
vt 0.828516 0.252048
vt 0.828516 0.400923
vt 0.319316 0.253976
vt 0.319567 0.398585
vt 0.144700 0.252048
vt 0.144700 0.400923
vt 0.582131 0.253082
vt 0.582382 0.397692
vt 0.078824 0.252048
vt 0.078824 0.400923
vt 0.569259 0.254477
vt 0.569259 0.398215
vt 0.562339 0.398215
vt 0.562339 0.254477
vt 0.555611 0.398215
vt 0.555611 0.254477
vt 0.549258 0.398215
vt 0.549258 0.254477
vt 0.543448 0.398215
vt 0.543448 0.254477
vt 0.538326 0.398215
vt 0.538326 0.254477
vt 0.533999 0.398215
vt 0.533999 0.254477
vt 0.530518 0.398215
vt 0.530518 0.254477
vt 0.527834 0.398215
vt 0.527834 0.254477
vt 0.525690 0.398215
vt 0.525690 0.254477
vt 0.436707 0.254477
vt 0.436707 0.398215
vt 0.585333 0.254477
vt 0.585333 0.398215
vt 0.604011 0.257975
vt 0.603497 0.393522
vt 0.599917 0.393496
vt 0.600431 0.257949
vt 0.595691 0.393464
vt 0.596205 0.257917
vt 0.590780 0.393428
vt 0.591294 0.257881
vt 0.585227 0.393386
vt 0.585741 0.257839
vt 0.579127 0.393341
vt 0.579642 0.257794
vt 0.572612 0.393293
vt 0.573126 0.257745
vt 0.565834 0.393242
vt 0.566348 0.257695
vt 0.558959 0.393191
vt 0.559473 0.257644
vt 0.552158 0.393141
vt 0.552672 0.257593
vt 0.316950 0.254477
vt 0.316950 0.398215
vt 0.426804 0.275387
vt 0.542539 0.252407
vt 0.542101 0.391661
vt 0.426366 0.390800
vt 0.610588 0.397192
vt 0.610502 0.255919
vt 0.617878 0.255912
vt 0.617963 0.397186
vt 0.624996 0.255906
vt 0.625081 0.397179
vt 0.631611 0.255900
vt 0.631696 0.397174
vt 0.637505 0.255895
vt 0.637591 0.397168
vt 0.642504 0.255891
vt 0.642589 0.397164
vt 0.646500 0.255887
vt 0.646585 0.397160
vt 0.649511 0.255884
vt 0.649596 0.397158
vt 0.651820 0.255882
vt 0.651906 0.397156
vt 0.286061 0.257553
vt 0.286708 0.391981
vt 0.561666 0.255962
vt 0.561751 0.397235
vt 0.460250 0.397325
vt 0.460165 0.256052
vt 0.462312 0.256050
vt 0.462397 0.397323
vt 0.465449 0.256047
vt 0.465534 0.397320
vt 0.469796 0.256043
vt 0.469881 0.397317
vt 0.475215 0.256038
vt 0.475300 0.397312
vt 0.481414 0.256033
vt 0.481499 0.397306
vt 0.488021 0.256027
vt 0.488106 0.397300
vt 0.317268 0.256178
vt 0.317353 0.397451
vt 0.489213 0.253309
vt 0.489629 0.394781
vt 0.482605 0.394807
vt 0.482189 0.253335
vt 0.475738 0.394832
vt 0.475322 0.253360
vt 0.469182 0.394856
vt 0.468766 0.253385
vt 0.463077 0.394879
vt 0.462661 0.253407
vt 0.457551 0.394899
vt 0.457135 0.253427
vt 0.452707 0.394917
vt 0.452291 0.253445
vt 0.448617 0.394932
vt 0.448201 0.253460
vt 0.445299 0.394944
vt 0.444882 0.253472
vt 0.442681 0.394954
vt 0.442265 0.253482
vt 0.440521 0.394962
vt 0.440105 0.253490
vt 0.513196 0.253221
vt 0.513612 0.394693
vt 0.406750 0.253613
vt 0.407166 0.395084
vt 0.587388 0.252948
vt 0.587804 0.394420
vt 0.584322 0.394432
vt 0.583906 0.252961
vt 0.579781 0.394449
vt 0.579365 0.252978
vt 0.573755 0.394471
vt 0.573339 0.253000
vt 0.566218 0.394499
vt 0.565802 0.253027
vt 0.557329 0.394532
vt 0.556913 0.253060
vt 0.547354 0.394568
vt 0.546938 0.253097
vt 0.536620 0.394608
vt 0.536204 0.253136
vt 0.525499 0.394649
vt 0.525082 0.253177
vt 0.612707 0.252855
vt 0.613123 0.394326
vt 0.460004 0.391293
vt 0.459356 0.256866
vt 0.466813 0.256836
vt 0.467460 0.391264
vt 0.474102 0.256807
vt 0.474750 0.391235
vt 0.481063 0.256779
vt 0.481710 0.391207
vt 0.487544 0.256754
vt 0.488191 0.391181
vt 0.493410 0.256730
vt 0.494058 0.391158
vt 0.498552 0.256710
vt 0.499200 0.391138
vt 0.502895 0.256693
vt 0.503543 0.391121
vt 0.506418 0.256679
vt 0.507065 0.391107
vt 0.509196 0.256668
vt 0.509844 0.391096
vt 0.511489 0.256659
vt 0.512137 0.391086
vt 0.545295 0.256525
vt 0.545942 0.390952
vt 0.645241 0.256128
vt 0.645888 0.390556
vt 0.637576 0.390589
vt 0.636928 0.256161
vt 0.629392 0.390621
vt 0.628745 0.256194
vt 0.621465 0.390653
vt 0.620818 0.256225
vt 0.613915 0.390683
vt 0.613268 0.256255
vt 0.606855 0.390711
vt 0.606207 0.256283
vt 0.600383 0.390736
vt 0.599736 0.256309
vt 0.594584 0.390759
vt 0.593937 0.256332
vt 0.589520 0.390780
vt 0.588872 0.256352
vt 0.585218 0.390797
vt 0.584570 0.256369
vt 0.581659 0.390811
vt 0.581011 0.256383
vt 0.578736 0.390822
vt 0.578089 0.256395
vt 0.576205 0.390832
vt 0.575558 0.256405
vt 0.672691 0.256019
vt 0.673338 0.390447
vt 0.058413 0.387197
vt 0.058413 0.253685
vt 0.062732 0.253685
vt 0.062732 0.387197
vt 0.067924 0.253685
vt 0.067924 0.387197
vt 0.074015 0.253685
vt 0.074015 0.387197
vt 0.080908 0.253685
vt 0.080908 0.387197
vt 0.088435 0.253685
vt 0.088435 0.387197
vt 0.096378 0.253685
vt 0.096378 0.387197
vt 0.104494 0.253685
vt 0.104494 0.387197
vt 0.112529 0.253685
vt 0.112529 0.387197
vt 0.119935 0.254472
vt 0.239008 0.271669
vt 0.239008 0.390411
vt 0.119935 0.390411
vt 0.637938 0.252762
vt 0.638354 0.394234
vt 0.684087 0.256533
vt 0.684331 0.390970
vt 0.681708 0.390974
vt 0.681464 0.256537
vt 0.678423 0.390979
vt 0.678179 0.256542
vt 0.674164 0.390986
vt 0.673920 0.256549
vt 0.668869 0.390994
vt 0.668626 0.256557
vt 0.662602 0.391003
vt 0.662358 0.256566
vt 0.655493 0.391014
vt 0.655249 0.256577
vt 0.647719 0.391025
vt 0.647475 0.256588
vt 0.639486 0.391038
vt 0.639242 0.256601
vt 0.631019 0.391050
vt 0.630775 0.256613
vt 0.588580 0.391114
vt 0.588336 0.256677
vt 0.367194 0.253758
vt 0.367610 0.395230
vt 0.487328 0.391265
vt 0.487084 0.256828
vt 0.494248 0.256818
vt 0.494492 0.391255
vt 0.503571 0.256804
vt 0.503815 0.391241
vt 0.515862 0.256785
vt 0.516106 0.391222
vt 0.531062 0.256762
vt 0.531306 0.391200
vt 0.548699 0.256736
vt 0.548943 0.391173
vt 0.568069 0.256707
vt 0.568312 0.391144
vt 0.034365 0.019614
vt 0.034351 0.019598
vt 0.045630 0.000056
vt 0.045644 0.000072
vt 0.558522 0.683100
vt 0.560274 0.690656
vt 0.661495 0.254477
vt 0.661495 0.398215
vt 0.657985 0.398215
vt 0.657985 0.254477
vt 0.652614 0.398215
vt 0.652614 0.254477
vt 0.644958 0.398215
vt 0.644958 0.254477
vt 0.635173 0.398215
vt 0.635173 0.254477
vt 0.623647 0.398215
vt 0.623647 0.254477
vt 0.610894 0.398215
vt 0.610894 0.254477
vt 0.597509 0.398215
vt 0.597509 0.254477
vt 0.559421 0.486741
vt 0.558522 0.702954
vt 0.209315 0.254350
vt 0.209566 0.398960
vt 0.719815 0.583785
vt 0.735541 0.591614
vt 0.725709 0.579115
vt 0.731234 0.573918
vt 0.736012 0.568549
vt 0.739717 0.563375
vt 0.742098 0.558746
vt 0.098752 0.389769
vt 0.099266 0.254222
vt 0.103430 0.254253
vt 0.102916 0.389800
vt 0.108939 0.254294
vt 0.108425 0.389841
vt 0.115533 0.254343
vt 0.115019 0.389890
vt 0.122830 0.254397
vt 0.122316 0.389944
vt 0.130380 0.254454
vt 0.129866 0.390001
vt 0.137712 0.254508
vt 0.137197 0.390055
vt 0.930207 0.252048
vt 0.930207 0.400923
vt 0.154666 0.253982
vt 0.307729 0.281062
vt 0.307308 0.391972
vt 0.154245 0.390834
vt 0.732049 0.844406
vt 0.738746 0.883784
vt 0.736089 0.878141
vt 0.731909 0.871756
vt 0.726488 0.865065
vt 0.720198 0.858524
vt 0.713466 0.852577
vt 0.521254 0.387197
vt 0.521254 0.253685
vt 0.529713 0.253685
vt 0.529713 0.387197
vt 0.538440 0.253685
vt 0.538440 0.387197
vt 0.546890 0.253685
vt 0.546890 0.387197
vt 0.554542 0.253685
vt 0.554542 0.387197
vt 0.560949 0.253685
vt 0.560949 0.387197
vt 0.565807 0.253685
vt 0.565807 0.387197
vt 0.346612 0.274066
vt 0.511640 0.252571
vt 0.511640 0.393646
vt 0.346612 0.393646
vt 0.197805 0.838154
vt 0.201556 0.566572
vt -0.021167 0.252048
vt -0.021167 0.400923
vt 0.159963 0.927225
vt 0.159063 0.935542
vt 0.160152 0.856690
vt 0.199793 0.891989
vt 0.197639 0.900114
vt 0.203229 0.883357
vt 0.207813 0.874551
vt 0.213371 0.865907
vt 0.219688 0.857760
vt 0.226521 0.850422
vt 0.229667 0.557241
vt 0.224051 0.551049
vt 0.218795 0.544233
vt 0.214060 0.536999
vt 0.209989 0.529568
vt 0.204310 0.515016
vt 0.202874 0.508337
vt 0.141579 0.425649
vt 0.139711 0.508164
vt 0.140968 0.417139
vt 0.416747 0.256583
vt 0.416233 0.392130
vt 0.401954 0.392024
vt 0.402468 0.256477
vt 0.531674 0.819782
vt 0.534639 0.605136
vt 0.246413 0.387197
vt 0.246413 0.253685
vt 0.260478 0.253685
vt 0.260478 0.387197
vt 0.336998 0.253685
vt 0.336998 0.387197
vt 0.322934 0.387197
vt 0.322934 0.253685
vt 0.324262 0.391446
vt 0.324776 0.255899
vt 0.339055 0.256005
vt 0.338541 0.391552
vt 0.383703 0.582463
vt 0.380260 0.831772
vt 0.119137 0.033209
vt 0.139408 0.025472
vt 0.236325 0.115637
vt 0.401558 0.167434
vt 0.387899 0.178753
vt 0.120095 0.200000
vt 0.101698 0.191246
vt 0.286510 0.013628
vt 0.310106 0.017950
vt 0.100842 0.042268
vt 0.412559 0.155178
vt 0.140454 0.207401
vt 0.261638 0.011032
vt 0.084751 0.052521
vt 0.420674 0.142110
vt 0.162545 0.213324
vt 0.235720 0.010285
vt 0.071092 0.063839
vt 0.425676 0.128359
vt 0.186141 0.217645
vt 0.209813 0.011462
vt 0.060092 0.076096
vt 0.427338 0.114052
vt 0.211012 0.220241
vt 0.051976 0.089163
vt 0.425512 0.099775
vt 0.236931 0.220989
vt 0.046974 0.102914
vt 0.420352 0.086108
vt 0.262838 0.219812
vt 0.045312 0.117221
vt 0.412088 0.073176
vt 0.287678 0.216803
vt 0.047139 0.131499
vt 0.400948 0.061103
vt 0.311221 0.212090
vt 0.052298 0.145165
vt 0.387159 0.050012
vt 0.333243 0.205802
vt 0.060563 0.158097
vt 0.370953 0.040028
vt 0.184973 0.014470
vt 0.353514 0.198064
vt 0.071703 0.170170
vt 0.352556 0.031273
vt 0.161429 0.019183
vt 0.371809 0.189005
vt 0.085491 0.181261
vt 0.332197 0.023873
vt 0.443751 0.810431
vt 0.447486 0.807829
vt 0.470271 0.824741
vt 0.439883 0.811255
vt 0.451052 0.803569
vt 0.454415 0.797771
vt 0.457537 0.790555
vt 0.460385 0.782042
vt 0.462922 0.772352
vt 0.465113 0.761605
vt 0.466922 0.749921
vt 0.468313 0.737421
vt 0.469252 0.724225
vt 0.469701 0.710454
vt 0.473469 0.593157
vt 0.469632 0.696668
vt 0.469059 0.683431
vt 0.468014 0.670866
vt 0.466529 0.659093
vt 0.464636 0.648236
vt 0.462369 0.638416
vt 0.459758 0.629756
vt 0.456837 0.622377
vt 0.453637 0.616402
vt 0.450191 0.611953
vt 0.446531 0.609151
vt 0.442689 0.608120
vt 0.413132 0.592873
vt 0.438821 0.608943
vt 0.435086 0.611545
vt 0.431520 0.615805
vt 0.428158 0.621603
vt 0.425035 0.628819
vt 0.422187 0.637332
vt 0.419650 0.647022
vt 0.417459 0.657769
vt 0.415650 0.669453
vt 0.414259 0.681953
vt 0.413321 0.695149
vt 0.412871 0.708920
vt 0.409957 0.822787
vt 0.412940 0.722706
vt 0.413513 0.735943
vt 0.414559 0.748508
vt 0.416043 0.760281
vt 0.417936 0.771138
vt 0.420203 0.780958
vt 0.422814 0.789618
vt 0.425735 0.796997
vt 0.428935 0.802972
vt 0.432381 0.807422
vt 0.436041 0.810223
vt 0.101308 1.278190
vt 0.101484 0.454651
vt 0.689726 0.454897
vt 0.689550 1.278436
vt 0.013177 0.437068
vt 0.664331 0.439248
vt 0.659995 1.203004
vt 0.008841 1.200823
vt 0.662327 1.200281
vt 0.009818 1.199225
vt 0.012921 0.436932
vt 0.665430 0.437987
s 1
f 237/1/1 97/2/2 10/3/3 11/4/4
f 296/5/5 297/6/6 29/7/7
f 295/8/8 296/5/5 29/7/7
f 297/6/6 298/9/9 29/7/7
f 34/10/10 29/7/7 293/11/11
f 299/12/12 293/11/11 29/7/7
f 5/13/13 4/14/14 308/15/15 324/16/16
f 33/17/17 35/18/18 31/19/19 32/20/20
f 33/21/17 32/22/20 37/23/21 38/24/22
f 1/25/23 12/26/24 51/27/24 40/28/25
f 32/29/20 31/30/19 69/31/26 70/32/27
f 3/33/28 8/34/29 47/35/29 42/36/28
f 2/37/30 15/38/31 54/39/32 41/40/33
f 14/41/34 1/25/23 40/28/25 53/42/35
f 17/43/36 19/44/37 58/45/37 56/46/36
f 18/47/37 20/48/37 59/49/37 57/50/37
f 19/44/37 18/47/37 57/50/37 58/45/37
f 25/51/29 26/52/28 65/53/28 64/54/29
f 20/48/37 16/55/38 55/56/38 59/49/37
f 26/52/28 27/57/28 66/58/28 65/53/28
f 6/59/28 3/33/28 42/36/28 45/60/28
f 15/38/31 17/43/36 56/46/36 54/39/32
f 38/61/22 37/62/21 73/63/29 74/64/39
f 16/55/38 14/41/34 53/42/35 55/56/38
f 12/26/24 7/65/40 46/66/40 51/27/24
f 39/67/41 38/61/22 74/64/39 75/68/42
f 13/69/43 2/37/30 41/40/33 52/70/43
f 37/62/21 32/71/20 70/72/27 73/63/29
f 9/73/44 13/69/43 52/70/43 48/74/44
f 76/75/45 87/76/45 95/77/46 78/78/46
f 78/78/46 95/77/46 94/79/47 79/80/47
f 79/80/47 94/79/47 93/81/48 80/82/48
f 80/82/48 93/81/48 92/83/49 81/84/49
f 81/84/49 92/83/49 91/85/50 82/86/50
f 82/86/50 91/85/50 90/87/51 83/88/51
f 83/88/51 90/87/51 89/89/52 84/90/52
f 84/90/52 89/89/52 88/91/53 85/92/53
f 85/92/53 88/91/53 86/93/54 77/94/54
f 30/95/37 77/94/54 86/93/54 68/96/37
f 76/75/45 34/97/10 71/98/39 87/76/45
f 96/99/55 108/100/56 116/101/57 99/102/58
f 99/102/58 116/101/57 115/103/59 100/104/60
f 100/104/60 115/103/59 114/105/61 101/106/62
f 101/106/62 114/105/61 113/107/63 102/108/64
f 102/108/64 113/107/63 112/109/65 103/110/66
f 103/110/66 112/109/65 111/111/67 104/112/68
f 104/112/68 111/111/67 110/113/69 105/114/70
f 105/114/70 110/113/69 109/115/71 106/116/72
f 106/116/72 109/115/71 107/117/73 97/118/2
f 298/9/9 299/12/12 29/7/7
f 96/119/55 30/95/37 68/96/37 108/120/56
f 10/121/3 97/122/2 107/123/73 49/124/74
f 126/125/75 118/126/75 125/127/76 128/128/76
f 128/128/76 125/127/76 124/129/77 129/130/77
f 129/130/77 124/129/77 123/131/78 130/132/78
f 130/132/78 123/131/78 122/133/79 131/134/79
f 131/134/79 122/133/79 121/135/80 132/136/80
f 132/136/80 121/135/80 120/137/81 133/138/81
f 133/138/81 120/137/81 119/139/82 134/140/82
f 134/140/82 119/139/82 117/141/83 127/142/83
f 117/143/83 6/59/28 45/60/28 127/144/83
f 36/145/84 118/126/75 126/125/75 72/146/84
f 142/147/85 136/148/85 141/149/86 144/150/86
f 144/150/86 141/149/86 140/151/87 145/152/87
f 145/152/87 140/151/87 139/153/88 146/154/88
f 146/154/88 139/153/88 138/155/89 147/156/89
f 147/156/89 138/155/89 137/157/90 148/158/90
f 148/158/90 137/157/90 135/159/91 143/160/91
f 135/159/91 36/145/84 72/146/84 143/160/91
f 31/161/19 136/148/85 142/147/85 69/162/26
f 149/163/92 161/164/92 170/165/93 151/166/93
f 151/166/93 170/165/93 169/167/94 152/168/94
f 152/168/94 169/167/94 168/169/95 153/170/95
f 153/170/95 168/169/95 167/171/96 154/172/96
f 154/172/96 167/171/96 166/173/97 155/174/97
f 155/174/97 166/173/97 165/175/98 156/176/98
f 156/176/98 165/175/98 164/177/99 157/178/99
f 157/178/99 164/177/99 163/179/100 158/180/100
f 158/180/100 163/179/100 162/181/101 159/182/101
f 159/182/101 162/181/101 160/183/102 150/184/102
f 149/163/92 22/185/84 61/186/84 161/164/92
f 24/187/37 150/184/102 160/183/102 63/188/37
f 171/189/103 181/190/103 188/191/104 173/192/104
f 173/192/104 188/191/104 187/193/105 174/194/105
f 174/194/105 187/193/105 186/195/106 175/196/106
f 175/196/106 186/195/106 185/197/107 176/198/107
f 176/198/107 185/197/107 184/199/108 177/200/108
f 177/200/108 184/199/108 183/201/109 178/202/109
f 178/202/109 183/201/109 182/203/110 179/204/110
f 179/204/110 182/203/110 180/205/111 172/206/111
f 22/185/84 172/206/111 180/205/111 61/186/84
f 171/189/103 21/207/37 60/208/37 181/190/103
f 200/209/112 190/210/112 199/211/113 202/212/113
f 202/212/113 199/211/113 198/213/114 203/214/114
f 203/214/114 198/213/114 197/215/115 204/216/115
f 204/216/115 197/215/115 196/217/116 205/218/116
f 205/218/116 196/217/116 195/219/117 206/220/117
f 206/220/117 195/219/117 194/221/118 207/222/118
f 207/222/118 194/221/118 193/223/119 208/224/119
f 208/224/119 193/223/119 192/225/120 209/226/120
f 209/226/120 192/225/120 191/227/121 210/228/121
f 210/228/121 191/227/121 189/229/122 201/230/122
f 189/229/122 23/231/28 62/232/28 201/230/122
f 8/34/29 190/210/112 200/209/112 47/35/29
f 211/233/123 225/234/123 236/235/124 213/236/124
f 213/236/124 236/235/124 235/237/125 214/238/125
f 214/238/125 235/237/125 234/239/126 215/240/126
f 215/240/126 234/239/126 233/241/127 216/242/127
f 216/242/127 233/241/127 232/243/128 217/244/128
f 217/244/128 232/243/128 231/245/129 218/246/129
f 218/246/129 231/245/129 230/247/130 219/248/130
f 219/248/130 230/247/130 229/249/131 220/250/131
f 220/250/131 229/249/131 228/251/132 221/252/132
f 221/252/132 228/251/132 227/253/133 222/254/133
f 222/254/133 227/253/133 226/255/134 223/256/134
f 223/256/134 226/255/134 224/257/135 212/258/135
f 23/231/28 212/258/135 224/257/135 62/232/28
f 211/233/123 25/259/29 64/260/29 225/234/123
f 247/261/136 238/262/137 246/263/138 249/264/139
f 249/264/139 246/263/138 245/265/140 250/266/141
f 250/266/141 245/265/140 244/267/142 251/268/143
f 251/268/143 244/267/142 243/269/144 252/270/145
f 252/270/145 243/269/144 242/271/146 253/272/147
f 253/272/147 242/271/146 241/273/148 254/274/149
f 254/274/149 241/273/148 240/275/150 255/276/151
f 255/276/151 240/275/150 237/277/1 248/278/152
f 237/279/1 11/280/4 50/281/153 248/282/152
f 21/207/37 238/283/137 247/284/136 60/208/37
f 256/285/154 267/286/154 275/287/155 258/288/155
f 258/288/155 275/287/155 274/289/156 259/290/156
f 259/290/156 274/289/156 273/291/157 260/292/157
f 260/292/157 273/291/157 272/293/158 261/294/158
f 261/294/158 272/293/158 271/295/159 262/296/159
f 262/296/159 271/295/159 270/297/160 263/298/160
f 263/298/160 270/297/160 269/299/161 264/300/161
f 264/300/161 269/299/161 268/301/162 265/302/162
f 265/302/162 268/301/162 266/303/163 257/304/163
f 285/305/164 276/306/164 257/304/163 266/303/163
f 256/307/154 24/187/37 63/188/37 267/308/154
f 284/309/165 277/310/165 283/311/166 286/312/166
f 286/312/166 283/311/166 282/313/167 287/314/167
f 287/314/167 282/313/167 281/315/168 288/316/168
f 288/316/168 281/315/168 280/317/169 289/318/169
f 289/318/169 280/317/169 279/319/170 290/320/170
f 290/320/170 279/319/170 278/321/171 291/322/171
f 291/322/171 278/321/171 276/306/172 285/305/172
f 276/323/173 28/324/173 67/325/173 285/326/173
f 27/57/28 277/310/165 284/309/165 66/58/28
f 292/327/174 294/328/175 29/7/7
f 292/329/174 301/330/176 307/331/177 294/332/175
f 294/332/175 307/331/177 306/333/178 295/334/8
f 295/334/8 306/333/178 305/335/179 296/336/5
f 296/336/5 305/335/179 304/337/180 297/338/6
f 297/338/6 304/337/180 303/339/181 298/340/9
f 298/340/9 303/339/181 302/341/182 299/342/12
f 299/342/12 302/341/182 300/343/183 293/344/11
f 292/327/174 29/7/7 35/18/18 33/17/17
f 294/328/175 295/8/8 29/7/7
f 39/345/41 292/346/174 33/21/17 38/24/22
f 292/347/174 39/67/41 75/68/42 301/348/176
f 34/97/10 293/344/11 300/343/183 71/98/39
f 308/15/15 311/349/184 310/350/185
f 311/349/184 312/351/186 310/350/185
f 312/351/186 313/352/187 310/350/185
f 313/352/187 314/353/188 310/350/185
f 314/353/188 315/354/189 310/350/185
f 315/354/189 309/355/190 310/350/185
f 316/356/191 309/357/190 315/358/189 318/359/192
f 318/359/192 315/358/189 314/360/188 319/361/193
f 319/361/193 314/360/188 313/362/187 320/363/194
f 320/363/194 313/362/187 312/364/186 321/365/195
f 321/365/195 312/364/186 311/366/184 322/367/196
f 322/367/196 311/366/184 308/368/15 317/369/197
f 7/65/40 309/370/190 316/371/191 46/66/40
f 308/372/15 4/373/14 43/374/198 317/375/197
f 310/350/185 325/376/199 324/16/16 308/15/15
f 323/377/200 326/378/201 325/376/199
f 326/378/201 327/379/202 325/376/199
f 327/379/202 328/380/203 325/376/199
f 328/380/203 329/381/204 325/376/199
f 329/381/204 330/382/205 325/376/199
f 330/382/205 324/16/16 325/376/199
f 331/383/206 324/384/16 330/385/205 333/386/207
f 333/386/207 330/385/205 329/387/204 334/388/208
f 334/388/208 329/387/204 328/389/203 335/390/209
f 335/390/209 328/389/203 327/391/202 336/392/210
f 336/392/210 327/391/202 326/393/201 337/394/211
f 337/394/211 326/393/201 323/395/200 332/396/212
f 5/397/13 324/398/16 331/399/206 44/400/213
f 237/1/1 239/401/214 98/402/214 97/2/2
f 323/403/200 9/73/44 48/74/44 332/404/212
f 246/405/138 238/406/137 239/407/214
f 245/408/140 246/409/138 239/401/214
f 244/410/142 245/408/140 239/401/214
f 243/411/144 244/410/142 239/401/214
f 242/412/146 243/411/144 239/401/214
f 241/413/148 242/412/146 239/401/214
f 240/414/150 241/413/148 239/401/214
f 237/1/1 240/414/150 239/401/214
f 106/415/72 97/2/2 98/402/214
f 105/416/70 106/415/72 98/402/214
f 104/417/68 105/416/70 98/402/214
f 103/418/66 104/417/68 98/402/214
f 102/419/64 103/418/66 98/402/214
f 102/419/64 98/402/214 100/420/60
f 99/421/58 100/420/60 98/402/214
f 99/422/58 98/423/214 96/424/55
f 10/425/3 49/426/74 344/427/215 340/428/216
f 4/14/14 5/13/13 339/429/217 338/430/218
f 50/431/153 11/432/4 341/433/219 345/434/220
f 5/435/13 44/436/213 343/437/220 339/438/217
f 43/439/198 4/440/14 338/441/218 342/442/215
f 11/4/4 10/3/3 340/443/216 341/444/219
f 339/438/217 343/437/220 345/434/220 341/433/219
f 342/442/215 338/441/218 340/428/216 344/427/215
f 350/445/221 349/446/222 394/447/223
f 377/448/224 376/449/225 394/447/223
f 364/450/226 363/451/227 394/447/223
f 391/452/228 390/453/229 394/447/223
f 351/454/230 350/445/221 394/447/223
f 378/455/231 377/448/224 394/447/223
f 365/456/232 364/450/226 394/447/223
f 392/457/233 391/452/228 394/447/223
f 352/458/234 351/454/230 394/447/223
f 379/459/235 378/455/231 394/447/223
f 366/460/236 365/456/232 394/447/223
f 393/461/237 392/457/233 394/447/223
f 353/462/238 352/458/234 394/447/223
f 380/463/239 379/459/235 394/447/223
f 367/464/240 366/460/236 394/447/223
f 346/465/241 393/461/237 394/447/223
f 354/466/242 353/462/238 394/447/223
f 381/467/243 380/463/239 394/447/223
f 368/468/244 367/464/240 394/447/223
f 355/469/245 354/466/242 394/447/223
f 382/470/246 381/467/243 394/447/223
f 369/471/247 368/468/244 394/447/223
f 356/472/248 355/469/245 394/447/223
f 383/473/249 382/470/246 394/447/223
f 370/474/250 369/471/247 394/447/223
f 357/475/251 356/472/248 394/447/223
f 384/476/252 383/473/249 394/447/223
f 371/477/253 370/474/250 394/447/223
f 358/478/254 357/475/251 394/447/223
f 385/479/255 384/476/252 394/447/223
f 372/480/256 371/477/253 394/447/223
f 359/481/257 358/478/254 394/447/223
f 386/482/258 385/479/255 394/447/223
f 373/483/259 372/480/256 394/447/223
f 360/484/260 359/481/257 394/447/223
f 387/485/261 386/482/258 394/447/223
f 347/486/262 346/465/241 394/447/223
f 374/487/263 373/483/259 394/447/223
f 361/488/264 360/484/260 394/447/223
f 388/489/265 387/485/261 394/447/223
f 348/490/266 347/486/262 394/447/223
f 375/491/267 374/487/263 394/447/223
f 362/492/268 361/488/264 394/447/223
f 389/493/269 388/489/265 394/447/223
f 349/446/222 348/490/266 394/447/223
f 376/449/225 375/491/267 394/447/223
f 363/451/227 362/492/268 394/447/223
f 390/453/229 389/493/269 394/447/223
f 358/494/254 359/495/257 339/496/217 357/497/251
f 360/498/260 361/499/264 339/496/217 359/495/257
f 362/500/268 363/501/227 339/496/217 361/499/264
f 364/502/226 365/503/232 339/496/217 363/501/227
f 366/504/236 367/505/240 339/496/217 365/503/232
f 368/506/244 369/507/247 339/496/217 367/505/240
f 339/496/217 369/507/247 338/508/218
f 370/509/250 371/510/253 338/508/218 369/507/247
f 372/511/256 373/512/259 338/508/218 371/510/253
f 374/513/263 375/514/267 338/508/218 373/512/259
f 376/515/225 377/516/224 338/508/218 375/514/267
f 378/517/231 379/518/235 338/508/218 377/516/224
f 380/519/239 381/520/243 338/508/218 379/518/235
f 340/521/216 338/508/218 381/520/243
f 382/522/246 383/523/249 340/521/216 381/520/243
f 384/524/252 385/525/255 340/521/216 383/523/249
f 386/526/258 387/527/261 340/521/216 385/525/255
f 388/528/265 389/529/269 340/521/216 387/527/261
f 390/530/229 391/531/228 340/521/216 389/529/269
f 392/532/233 393/533/237 340/521/216 391/531/228
f 341/534/219 340/521/216 393/533/237
f 346/535/241 347/536/262 341/534/219 393/533/237
f 348/537/266 349/538/222 341/534/219 347/536/262
f 350/539/221 351/540/230 341/534/219 349/538/222
f 352/541/234 353/542/238 341/534/219 351/540/230
f 354/543/242 355/544/245 341/534/219 353/542/238
f 356/545/248 357/497/251 341/534/219 355/544/245
f 339/496/217 341/534/219 357/497/251
s 0
f 395/546/173 396/547/173 398/548/173 397/549/173
f 403/550/173 404/551/173 402/552/173 401/553/173
f 399/554/173 400/555/173 404/556/173 403/557/173
