# Blender 5.0.0
# www.blender.org
o Bug
v 0.000000 0.416343 -0.050827
v -0.002110 0.140138 -0.108568
v -0.002110 0.065277 -0.115261
v -0.002110 -0.012575 -0.117521
v -0.002110 -0.090428 -0.115261
v -0.002110 -0.165289 -0.108568
v -0.002110 -0.294753 -0.083072
v -0.002110 -0.381258 -0.044915
v 0.038316 0.416343 -0.047395
v 0.050497 0.401994 -0.062461
v 0.070800 0.318655 -0.087575
v 0.083252 0.250366 -0.102977
v 0.092504 0.172455 -0.114422
v 0.098202 0.087917 -0.121470
v 0.100126 0.000000 -0.123850
v 0.098202 -0.087917 -0.121470
v 0.092504 -0.172455 -0.114422
v 0.083252 -0.250366 -0.102977
v 0.070800 -0.318655 -0.087575
v 0.055627 -0.374699 -0.068807
v 0.038316 -0.416343 -0.047395
v 0.019534 -0.441987 -0.024162
v 0.071458 0.416343 -0.037562
v 0.094173 0.401994 -0.049502
v 0.132037 0.318655 -0.069405
v 0.155260 0.250366 -0.081612
v 0.172515 0.172455 -0.090683
v 0.183141 0.087917 -0.096268
v 0.186729 0.000000 -0.098154
v 0.183141 -0.087917 -0.096268
v 0.172515 -0.172455 -0.090683
v 0.155260 -0.250366 -0.081612
v 0.132037 -0.318655 -0.069405
v 0.103741 -0.374699 -0.054531
v 0.071458 -0.416343 -0.037562
v 0.036429 -0.441987 -0.019149
v 0.094949 0.416343 -0.022656
v 0.125132 0.401994 -0.029858
v 0.175443 0.318655 -0.041862
v 0.206299 0.250366 -0.049225
v 0.229227 0.172455 -0.054696
v 0.243346 0.087917 -0.058065
v 0.248114 0.000000 -0.059202
v 0.243346 -0.087917 -0.058065
v 0.229227 -0.172455 -0.054696
v 0.206299 -0.250366 -0.049225
v 0.175443 -0.318655 -0.041862
v 0.137845 -0.374699 -0.032891
v 0.094949 -0.416343 -0.022656
v 0.048405 -0.441987 -0.011550
v 0.105616 0.416343 -0.004690
v 0.139190 0.401994 -0.006181
v 0.195154 0.318655 -0.008666
v 0.229476 0.250366 -0.010190
v 0.254981 0.172455 -0.011322
v 0.270686 0.087917 -0.012019
v 0.275989 0.000000 -0.012255
v 0.270686 -0.087917 -0.012019
v 0.254981 -0.172455 -0.011322
v 0.229476 -0.250366 -0.010190
v 0.195154 -0.318655 -0.008666
v 0.153331 -0.374699 -0.006808
v 0.105616 -0.416343 -0.004690
v 0.053843 -0.441987 -0.002391
v 0.102020 0.416343 0.013910
v 0.134450 0.401994 0.018331
v 0.188508 0.318655 0.025702
v 0.221662 0.250366 0.030222
v 0.246297 0.172455 0.033581
v 0.261468 0.087917 0.035649
v 0.266590 0.000000 0.036348
v 0.261468 -0.087917 0.035649
v 0.246297 -0.172455 0.033581
v 0.221662 -0.250366 0.030222
v 0.188508 -0.318655 0.025702
v 0.148110 -0.374699 0.020194
v 0.102020 -0.416343 0.013910
v 0.052009 -0.441987 0.007091
v 0.084645 0.416343 0.030630
v 0.111552 0.401994 0.040367
v 0.156403 0.318655 0.056598
v 0.183911 0.250366 0.066552
v 0.204351 0.172455 0.073948
v 0.216937 0.087917 0.078503
v 0.221187 0.000000 0.080041
v 0.216937 -0.087917 0.078503
v 0.204351 -0.172455 0.073948
v 0.183911 -0.250366 0.066552
v 0.156403 -0.318655 0.056598
v 0.122885 -0.374699 0.044468
v 0.084645 -0.416343 0.030630
v 0.043152 -0.441987 0.015615
v 0.055838 0.416343 0.043214
v 0.073588 0.401994 0.056951
v 0.103175 0.318655 0.079850
v 0.121321 0.250366 0.093893
v 0.134805 0.172455 0.104329
v 0.143108 0.087917 0.110755
v 0.145912 0.000000 0.112925
v 0.143108 -0.087917 0.110755
v 0.134805 -0.172455 0.104329
v 0.121321 -0.250366 0.093893
v 0.103175 -0.318655 0.079850
v 0.081064 -0.374699 0.062738
v 0.055838 -0.416343 0.043214
v 0.028466 -0.441987 0.022030
v 0.019490 0.416343 0.049962
v 0.025686 0.401994 0.065844
v 0.029781 0.269602 0.081844
v 0.035389 0.209130 0.096221
v 0.039557 0.140138 0.106905
v 0.042124 0.065277 0.113484
v 0.042990 -0.012575 0.115705
v 0.042124 -0.090428 0.113484
v 0.039557 -0.165289 0.106905
v 0.035389 -0.234281 0.096221
v 0.029781 -0.294753 0.081844
v 0.022946 -0.344381 0.064324
v 0.015149 -0.381258 0.044336
v 0.006689 -0.403967 0.022648
v -0.019490 0.416343 0.049962
v -0.025686 0.401994 0.065844
v -0.034000 0.269602 0.081844
v -0.039609 0.209130 0.096221
v -0.043777 0.140138 0.106905
v -0.046343 0.065277 0.113484
v -0.047210 -0.012575 0.115705
v -0.046343 -0.090428 0.113484
v -0.043777 -0.165289 0.106905
v -0.039609 -0.234281 0.096221
v -0.034000 -0.294753 0.081844
v -0.027166 -0.344381 0.064324
v -0.019369 -0.381258 0.044336
v -0.010908 -0.403967 0.022648
v -0.002110 -0.411634 0.000094
v -0.055838 0.416343 0.043214
v -0.073588 0.401994 0.056951
v -0.103175 0.318655 0.079850
v -0.121321 0.250366 0.093893
v -0.134805 0.172455 0.104329
v -0.143108 0.087917 0.110755
v -0.145912 0.000000 0.112925
v -0.143108 -0.087917 0.110755
v -0.134805 -0.172455 0.104329
v -0.121321 -0.250366 0.093893
v -0.103175 -0.318655 0.079850
v -0.081064 -0.374699 0.062738
v -0.055838 -0.416343 0.043214
v -0.028466 -0.441987 0.022030
v -0.084645 0.416343 0.030630
v -0.111552 0.401994 0.040367
v -0.156403 0.318655 0.056598
v -0.183911 0.250366 0.066552
v -0.204351 0.172455 0.073948
v -0.216937 0.087917 0.078503
v -0.221187 0.000000 0.080041
v -0.216937 -0.087917 0.078503
v -0.204351 -0.172455 0.073948
v -0.183911 -0.250366 0.066552
v -0.156403 -0.318655 0.056598
v -0.122885 -0.374699 0.044468
v -0.084645 -0.416343 0.030630
v -0.043152 -0.441987 0.015615
v -0.102020 0.416343 0.013910
v -0.134450 0.401994 0.018331
v -0.188508 0.318655 0.025702
v -0.221662 0.250366 0.030222
v -0.246297 0.172455 0.033581
v -0.261468 0.087917 0.035649
v -0.266590 0.000000 0.036348
v -0.261468 -0.087917 0.035649
v -0.246297 -0.172455 0.033581
v -0.221662 -0.250366 0.030222
v -0.188508 -0.318655 0.025702
v -0.148110 -0.374699 0.020194
v -0.102020 -0.416343 0.013910
v -0.052009 -0.441987 0.007091
v -0.105616 0.416343 -0.004690
v -0.139190 0.401994 -0.006181
v -0.195154 0.318655 -0.008666
v -0.229476 0.250366 -0.010190
v -0.254981 0.172455 -0.011322
v -0.270686 0.087917 -0.012019
v -0.275989 0.000000 -0.012255
v -0.270686 -0.087917 -0.012019
v -0.254981 -0.172455 -0.011322
v -0.229476 -0.250366 -0.010190
v -0.195154 -0.318655 -0.008666
v -0.153331 -0.374699 -0.006808
v -0.105616 -0.416343 -0.004690
v -0.053843 -0.441987 -0.002391
v -0.094949 0.416343 -0.022656
v -0.125132 0.401994 -0.029858
v -0.175443 0.318655 -0.041862
v -0.206299 0.250366 -0.049225
v -0.229227 0.172455 -0.054696
v -0.243346 0.087917 -0.058065
v -0.248114 0.000000 -0.059202
v -0.243346 -0.087917 -0.058065
v -0.229227 -0.172455 -0.054696
v -0.206299 -0.250366 -0.049225
v -0.175443 -0.318655 -0.041862
v -0.137845 -0.374699 -0.032891
v -0.094949 -0.416343 -0.022656
v -0.048405 -0.441987 -0.011550
v -0.071458 0.416343 -0.037562
v -0.094173 0.401994 -0.049502
v -0.132037 0.318655 -0.069405
v -0.155260 0.250366 -0.081612
v -0.172515 0.172455 -0.090683
v -0.183141 0.087917 -0.096268
v -0.186729 0.000000 -0.098154
v -0.183141 -0.087917 -0.096268
v -0.172515 -0.172455 -0.090683
v -0.155260 -0.250366 -0.081612
v -0.132037 -0.318655 -0.069405
v -0.103741 -0.374699 -0.054531
v -0.071458 -0.416343 -0.037562
v -0.036429 -0.441987 -0.019149
v -0.038316 0.416343 -0.047395
v -0.050497 0.401994 -0.062461
v -0.065115 0.284195 -0.104276
v -0.076142 0.223723 -0.117915
v -0.084025 0.140138 -0.101230
v -0.089070 0.065277 -0.107471
v -0.090774 -0.012575 -0.109578
v -0.089070 -0.090428 -0.107471
v -0.084025 -0.165289 -0.101230
v -0.075831 -0.234281 -0.091095
v -0.064805 -0.294753 -0.077456
v -0.051369 -0.344381 -0.060837
v -0.036040 -0.381258 -0.041876
v -0.019407 -0.403967 -0.021302
v 0.000000 0.401994 -0.066985
v -0.002110 0.269602 -0.083072
v -0.002110 0.209130 -0.097699
v -0.002110 -0.234281 -0.097699
v -0.002110 -0.344381 -0.065249
v -0.002110 -0.403967 -0.022852
v 0.022397 0.529031 -0.024162
v 0.031651 0.502829 -0.034145
v -0.000000 0.502829 -0.036618
v 0.041769 0.529031 -0.019149
v 0.059028 0.502829 -0.027061
v 0.055501 0.529031 -0.011550
v 0.078432 0.502829 -0.016322
v 0.061736 0.529031 -0.002391
v 0.087244 0.502829 -0.003379
v 0.059634 0.529031 0.007091
v 0.084273 0.502829 0.010021
v 0.049478 0.529031 0.040132
v 0.069921 0.502829 0.046584
v 0.032639 0.529031 0.046548
v 0.046125 0.502829 0.055650
v 0.011393 0.529031 0.025470
v 0.016100 0.502829 0.035994
v -0.011393 0.529031 0.025470
v -0.016100 0.502829 0.035994
v -0.032639 0.529031 0.046548
v -0.046125 0.502829 0.055650
v -0.049478 0.529031 0.040132
v -0.069921 0.502829 0.046584
v -0.059634 0.529031 0.007091
v -0.084273 0.502829 0.010021
v -0.061736 0.529031 -0.002391
v -0.087244 0.502829 -0.003379
v -0.055501 0.529031 -0.011550
v -0.078432 0.502829 -0.016322
v -0.041769 0.529031 -0.019149
v -0.059028 0.502829 -0.027061
v -0.022397 0.529031 -0.024162
v -0.031651 0.502829 -0.034145
v 0.000000 0.549622 -0.000000
v -0.000000 0.529031 -0.025912
v 0.022905 0.459586 0.055319
v -0.083977 0.459586 -0.041589
v 0.083977 0.459586 -0.041589
v 0.045029 0.459586 -0.052477
v -0.022905 0.459586 0.055319
v -0.065620 0.459586 0.072365
v -0.000000 0.459586 -0.056277
v -0.045029 0.459586 -0.052477
v 0.119892 0.459586 0.015401
v -0.099473 0.459586 0.058432
v 0.124119 0.459586 -0.005193
v 0.111583 0.459586 -0.025085
v -0.119892 0.459586 0.015401
v 0.065620 0.459586 0.072365
v 0.099473 0.459586 0.058432
v -0.111583 0.459586 -0.025085
v -0.124119 0.459586 -0.005193
v 0.089011 0.427936 -0.045902
v 0.000050 0.431321 -0.062113
v 0.129352 0.419311 0.016998
v 0.133451 0.417502 -0.005731
v 0.069595 0.429342 0.052809
v -0.119870 0.420069 -0.027686
v 0.024317 0.430455 0.061055
v -0.089050 0.428992 -0.045902
v 0.047796 0.430499 -0.057918
v -0.024320 0.430715 0.061055
v -0.069627 0.430196 0.052809
v -0.047761 0.429913 -0.057918
v -0.105636 0.425972 0.037431
v 0.121293 0.422869 -0.027686
v -0.128396 0.417854 0.016998
v 0.105427 0.427309 0.037431
v -0.132733 0.416727 -0.005731
v 0.445512 0.373712 -0.179733
v 0.450445 0.346655 -0.185836
v 0.512714 0.198579 -0.187365
v 0.514972 0.165084 -0.190158
v 0.506718 -0.113177 -0.188095
v 0.505956 -0.148011 -0.187153
v 0.469775 0.373712 -0.172534
v 0.478976 0.346655 -0.177371
v 0.544416 0.198579 -0.177959
v 0.548626 0.165084 -0.180172
v 0.541032 -0.113177 -0.177914
v 0.539611 -0.148011 -0.177167
v -0.483987 0.372210 -0.177042
v -0.493188 0.345152 -0.181879
v -0.626246 0.197077 -0.183970
v -0.630456 0.163581 -0.186183
v -0.631878 -0.111674 -0.179417
v -0.630456 -0.146509 -0.178670
v -0.457348 0.352774 -0.180232
v -0.461717 0.328814 -0.185636
v -0.591184 0.184272 -0.188149
v -0.593183 0.154611 -0.190622
v -0.593858 -0.116657 -0.183944
v -0.593183 -0.147504 -0.183109
v -0.261387 0.325781 -0.108926
v -0.308012 0.345432 -0.076486
v -0.324224 0.297759 -0.085008
v -0.269085 0.283565 -0.118447
v -0.406799 0.125749 -0.094488
v -0.341127 0.109944 -0.102309
v -0.337605 0.162205 -0.097952
v -0.399381 0.184766 -0.090588
v -0.342316 -0.064616 -0.100023
v -0.409303 -0.055837 -0.092048
v -0.341127 -0.118966 -0.098552
v -0.406799 -0.117213 -0.090731
v 0.365884 0.126500 -0.091482
v 0.358466 0.185517 -0.087583
v 0.302609 0.185517 -0.104156
v 0.306587 0.126500 -0.109076
v 0.302079 -0.117964 -0.107573
v 0.361376 -0.117964 -0.089980
v 0.363881 -0.056588 -0.091296
v 0.303422 -0.056588 -0.109235
v 0.300906 0.346184 -0.074232
v 0.258156 0.346184 -0.086916
v 0.266849 0.298510 -0.097669
v 0.317118 0.298510 -0.082754
vn -0.0635 -0.0835 -0.9945
vn 0.0594 0.7464 -0.6629
vn -0.0797 -0.1448 -0.9862
vn -0.0719 0.1813 -0.9808
vn -0.1143 -0.2151 -0.9699
vn -0.1776 0.2072 -0.9620
vn -0.1816 -0.2984 -0.9370
vn -0.1187 0.1418 -0.9827
vn -0.3137 -0.3909 -0.8653
vn -0.0847 0.0826 -0.9930
vn -0.5606 -0.4396 -0.7017
vn -0.0665 0.0271 -0.9974
vn -0.8600 -0.4840 -0.1617
vn -0.0597 -0.0272 -0.9978
vn 0.3389 0.0555 -0.9392
vn 0.2831 -0.0986 -0.9540
vn 0.1779 0.7804 -0.5995
vn 0.2802 -0.1720 -0.9444
vn 0.2678 0.3372 -0.9025
vn 0.2747 -0.2589 -0.9260
vn 0.2953 0.8840 -0.3625
vn 0.2643 -0.3698 -0.8907
vn 0.2802 0.1720 -0.9444
vn 0.2427 -0.5215 -0.8180
vn -0.3705 0.0523 -0.9273
vn 0.1936 -0.7328 -0.6524
vn 0.2843 0.0322 -0.9582
vn -0.2043 -0.6959 0.6885
vn 0.4803 -0.4433 -0.7568
vn 0.5236 0.2120 -0.8252
vn 0.4267 -0.6048 -0.6724
vn 0.5318 0.1222 -0.8380
vn 0.3207 -0.8010 -0.5054
vn 0.5354 0.0399 -0.8437
vn -0.3404 -0.7723 0.5364
vn 0.5354 -0.0399 -0.8437
vn 0.5318 -0.1222 -0.8380
vn 0.2904 0.8404 -0.4576
vn 0.5236 -0.2120 -0.8252
vn 0.4895 0.4066 -0.7714
vn 0.5083 -0.3161 -0.8011
vn 0.5083 0.3161 -0.8011
vn 0.8485 -0.1618 -0.5038
vn 0.3748 0.9000 -0.2225
vn 0.8261 -0.2775 -0.4905
vn 0.7397 0.5098 -0.4392
vn 0.7860 -0.4055 -0.4667
vn 0.7860 0.4055 -0.4667
vn 0.7181 -0.5500 -0.4264
vn 0.8261 0.2775 -0.4905
vn 0.6046 -0.7110 -0.3590
vn 0.8485 0.1618 -0.5038
vn 0.4208 -0.8720 -0.2499
vn 0.8586 0.0532 -0.5098
vn -0.4503 -0.8519 0.2674
vn 0.8586 -0.0532 -0.5098
vn 0.9355 0.3036 0.1809
vn 0.6554 -0.7445 0.1267
vn 0.9661 0.1779 0.1868
vn 0.4453 -0.8912 0.0861
vn 0.9801 0.0586 0.1895
vn -0.4780 -0.8735 -0.0924
vn 0.9801 -0.0586 0.1895
vn 0.9661 -0.1779 0.1868
vn 0.3947 0.9156 0.0763
vn 0.9355 -0.3036 0.1809
vn 0.8218 0.5471 0.1589
vn 0.8819 -0.4395 0.1705
vn 0.8819 0.4395 0.1705
vn 0.7944 -0.5877 0.1536
vn 0.6865 -0.1407 0.7134
vn 0.3383 0.8729 0.3515
vn 0.6727 -0.2428 0.6990
vn 0.6168 0.4568 0.6410
vn 0.6473 -0.3588 0.6726
vn 0.6473 0.3588 0.6726
vn 0.6023 -0.4956 0.6258
vn 0.6727 0.2428 0.6990
vn 0.5215 -0.6590 0.5419
vn 0.6865 0.1407 0.7134
vn 0.3770 -0.8393 0.3917
vn 0.6927 0.0461 0.7198
vn -0.4026 -0.8142 -0.4183
vn 0.6927 -0.0461 0.7198
vn 0.3322 -0.5578 0.7606
vn 0.3980 0.1083 0.9110
vn 0.2583 -0.7640 0.5912
vn 0.4001 0.0354 0.9158
vn -0.2739 -0.7292 -0.6271
vn 0.4001 -0.0354 0.9158
vn 0.3980 -0.1083 0.9110
vn 0.2357 0.8082 0.5396
vn 0.3931 -0.1886 0.8999
vn 0.3725 0.3665 0.8526
vn 0.3840 -0.2828 0.8790
vn 0.3840 0.2828 0.8790
vn 0.3667 -0.4010 0.8395
vn 0.3931 0.1886 0.8999
vn 0.0084 -0.1433 0.9896
vn 0.0156 0.1798 0.9836
vn -0.0264 -0.2108 0.9772
vn -0.0866 0.1995 0.9761
vn -0.0924 -0.2871 0.9534
vn -0.0295 0.1388 0.9899
vn -0.2165 -0.3646 0.9056
vn 0.0041 0.0816 0.9967
vn -0.4374 -0.3930 0.8088
vn 0.0223 0.0270 0.9994
vn -0.7704 -0.4486 0.4530
vn 0.0290 -0.0271 0.9992
vn 0.0250 -0.0830 0.9962
vn 0.1188 0.7594 0.6397
vn -0.0000 -0.6907 0.7232
vn -0.0000 0.0285 0.9996
vn -0.0000 -0.9468 0.3219
vn -0.0000 -0.0285 0.9996
vn -0.4385 0.2288 0.8691
vn -0.0000 -0.0875 0.9962
vn -0.0000 0.7420 0.6704
vn -0.0000 -0.1530 0.9882
vn -0.0000 0.1200 0.9928
vn -0.0000 -0.2313 0.9729
vn -0.0000 0.2313 0.9729
vn -0.0000 -0.3329 0.9430
vn -0.0000 0.1530 0.9882
vn -0.0000 -0.4765 0.8792
vn -0.0000 0.0875 0.9962
vn -0.0160 0.1801 0.9835
vn 0.0278 -0.2106 0.9772
vn 0.0909 0.1986 0.9758
vn 0.0981 -0.2856 0.9533
vn 0.0309 0.1386 0.9899
vn 0.2318 -0.3577 0.9046
vn -0.0043 0.0816 0.9967
vn 0.4688 -0.3656 0.8041
vn -0.0233 0.0270 0.9994
vn -0.0000 0.4080 0.9130
vn 0.8100 -0.3813 0.4456
vn -0.0303 -0.0271 0.9992
vn -0.4356 0.4951 -0.7517
vn -0.0261 -0.0831 0.9962
vn -0.1188 0.7594 0.6397
vn -0.0088 -0.1433 0.9896
vn -0.4001 0.0354 0.9158
vn -0.2355 0.4347 -0.8693
vn 0.2817 -0.7106 -0.6448
vn -0.4001 -0.0354 0.9158
vn 0.0743 0.4107 -0.9087
vn -0.3980 -0.1083 0.9110
vn -0.2357 0.8082 0.5396
vn -0.3931 -0.1886 0.8999
vn -0.3725 0.3665 0.8526
vn -0.3840 -0.2828 0.8790
vn -0.3840 0.2828 0.8790
vn -0.3667 -0.4010 0.8395
vn -0.3931 0.1886 0.8999
vn -0.3322 -0.5578 0.7606
vn -0.3980 0.1083 0.9110
vn -0.2583 -0.7640 0.5912
vn -0.6473 -0.3588 0.6726
vn -0.6473 0.3588 0.6726
vn -0.6023 -0.4956 0.6258
vn -0.6727 0.2428 0.6990
vn -0.5215 -0.6590 0.5419
vn -0.6865 0.1407 0.7134
vn -0.3770 -0.8393 0.3917
vn -0.6927 0.0461 0.7198
vn 0.4356 0.4951 -0.7517
vn 0.4215 -0.7940 -0.4380
vn -0.6927 -0.0461 0.7198
vn 0.2355 0.4347 -0.8693
vn -0.6865 -0.1407 0.7134
vn -0.3383 0.8729 0.3515
vn -0.6727 -0.2428 0.6990
vn -0.6168 0.4568 0.6410
vn 0.4385 0.2288 0.8691
vn 0.5071 -0.8563 -0.0981
vn -0.9801 -0.0586 0.1895
vn 0.7260 0.6102 0.3171
vn -0.9661 -0.1779 0.1868
vn -0.3947 0.9156 0.0763
vn -0.9355 -0.3036 0.1809
vn -0.8218 0.5471 0.1589
vn -0.8819 -0.4395 0.1705
vn -0.8819 0.4395 0.1705
vn -0.7944 -0.5877 0.1536
vn -0.9355 0.3036 0.1809
vn -0.6554 -0.7445 0.1267
vn -0.9661 0.1779 0.1868
vn -0.4453 -0.8912 0.0861
vn -0.9801 0.0586 0.1895
vn -0.7860 0.4055 -0.4667
vn -0.7181 -0.5500 -0.4264
vn -0.8261 0.2775 -0.4905
vn -0.6046 -0.7110 -0.3590
vn -0.8485 0.1618 -0.5038
vn -0.4208 -0.8720 -0.2499
vn -0.8586 0.0532 -0.5098
vn -0.3292 0.4592 0.8251
vn 0.4754 -0.8333 0.2822
vn -0.8586 -0.0532 -0.5098
vn -0.0743 0.4107 -0.9087
vn -0.8485 -0.1618 -0.5038
vn -0.3748 0.9000 -0.2225
vn -0.8261 -0.2775 -0.4905
vn -0.7397 0.5098 -0.4392
vn -0.7860 -0.4055 -0.4667
vn -0.5354 -0.0399 -0.8437
vn 0.7533 0.6380 0.1595
vn -0.5318 -0.1222 -0.8380
vn -0.2904 0.8404 -0.4576
vn -0.5236 -0.2120 -0.8252
vn -0.4895 0.4066 -0.7714
vn -0.5083 -0.3161 -0.8011
vn -0.5083 0.3161 -0.8011
vn -0.4803 -0.4433 -0.7568
vn -0.5236 0.2120 -0.8252
vn -0.4267 -0.6048 -0.6724
vn -0.5318 0.1222 -0.8380
vn -0.3207 -0.8010 -0.5054
vn -0.5354 0.0399 -0.8437
vn -0.7260 0.6102 0.3171
vn 0.3531 -0.7521 0.5565
vn 0.0123 -0.2811 -0.9596
vn -0.2703 -0.0033 -0.9628
vn 0.1409 -0.3401 -0.9298
vn -0.2172 -0.9673 0.1307
vn 0.3521 -0.3300 -0.8759
vn -0.1132 0.0275 -0.9932
vn 0.6722 0.5977 -0.4370
vn 0.6694 -0.3372 -0.6620
vn -0.0540 0.9818 0.1821
vn -0.7533 0.6380 0.1595
vn -0.1157 -0.0848 -0.9897
vn -0.1779 0.7804 -0.5995
vn -0.0973 -0.1456 -0.9846
vn -0.2789 0.3475 -0.8953
vn -0.0590 -0.2115 -0.9756
vn 0.4374 -0.0044 0.8993
vn -0.0889 -0.0887 -0.9921
vn -0.0594 0.7464 -0.6629
vn -0.0881 -0.1550 -0.9840
vn 0.1687 0.2115 -0.9627
vn -0.0867 -0.2342 -0.9683
vn 0.3206 0.1878 -0.9284
vn -0.0840 -0.3368 -0.9378
vn 0.0783 -0.0420 -0.9960
vn -0.0782 -0.4814 -0.8730
vn -0.0889 0.0887 -0.9921
vn -0.0641 -0.6954 -0.7157
vn -0.0892 0.0289 -0.9956
vn 0.3292 0.4592 0.8251
vn -0.0284 -0.9481 -0.3168
vn -0.0892 -0.0289 -0.9956
vn -0.6722 0.5977 -0.4370
vn 0.0485 0.7820 -0.6214
vn 0.0721 0.3773 -0.9233
vn 0.2278 0.4159 -0.8804
vn 0.1450 0.8154 -0.5604
vn 0.2356 0.8737 -0.4256
vn 0.4183 0.5037 -0.7558
vn 0.6373 0.6368 -0.4339
vn 0.3024 0.9307 -0.2059
vn 0.3181 0.9454 0.0705
vn 0.7106 0.6858 0.1575
vn 0.3146 0.9443 0.0967
vn 0.7113 0.6567 0.2505
vn 0.1246 0.9368 0.3270
vn 0.3174 0.4528 0.8332
vn -0.6328 0.4389 0.6379
vn -0.6202 0.0771 0.7807
vn -0.0000 0.7777 0.6287
vn -0.0000 0.3727 0.9280
vn 0.6328 0.4389 0.6379
vn 0.6202 0.0771 0.7807
vn -0.1246 0.9368 0.3270
vn -0.3174 0.4528 0.8332
vn -0.3146 0.9443 0.0967
vn -0.7113 0.6567 0.2505
vn -0.3181 0.9454 0.0705
vn -0.7106 0.6858 0.1575
vn -0.3024 0.9307 -0.2059
vn -0.6373 0.6368 -0.4339
vn -0.4183 0.5037 -0.7558
vn -0.2356 0.8737 -0.4256
vn -0.1450 0.8154 -0.5604
vn -0.2278 0.4159 -0.8804
vn -0.0485 0.7820 -0.6214
vn -0.0721 0.3773 -0.9233
vn -0.8456 0.1925 -0.4979
vn 0.3290 -0.4766 0.8152
vn -0.9627 0.1971 0.1852
vn 0.8516 0.2247 -0.4737
vn -0.8277 0.0166 0.5610
vn 0.9594 0.2212 0.1751
vn -0.0871 0.1942 -0.9771
vn -0.3153 -0.4771 0.8203
vn 0.8208 0.0217 0.5708
vn 0.0980 -0.2383 0.9662
vn 0.2754 0.1868 -0.9430
vn 0.5043 0.1939 -0.8415
vn 0.0859 0.1963 -0.9768
vn -0.2716 0.1879 -0.9439
vn -0.5227 0.1818 -0.8329
vn 0.0005 0.1940 0.9810
vn -0.0997 -0.2341 0.9671
vn 0.1278 -0.6555 0.7443
vn -0.0018 -0.6145 0.7889
vn -0.1680 -0.8474 -0.5037
vn -0.1941 -0.6969 -0.6905
vn 0.0641 -0.6114 -0.7887
vn 0.2066 -0.8535 -0.4784
vn 0.1799 -0.6972 -0.6939
vn -0.1345 -0.6420 0.7548
vn 0.1800 -0.9013 0.3941
vn -0.2178 -0.7547 0.6189
vn -0.0593 -0.6182 -0.7838
vn 0.0724 -0.9957 0.0571
vn -0.1429 -0.9235 0.3561
vn 0.1160 -0.9735 -0.1972
vn -0.0341 -0.9988 0.0338
vn 0.2385 -0.7586 0.6064
vn -0.0642 -0.9906 -0.1208
vn 0.2843 -0.0322 -0.9582
vn 0.2747 0.2589 -0.9260
vn 0.2831 0.0986 -0.9540
vn -0.0933 0.0828 -0.9922
vn -0.1204 -0.0277 -0.9923
vn 0.0034 0.1959 -0.9806
vn -0.0621 -0.9759 0.2093
vn 0.4396 0.0013 0.8982
vn 0.0945 -0.9432 -0.3184
vn -0.4946 0.0129 0.8690
vn 0.1111 0.9206 -0.3743
vn 0.0338 0.8009 -0.5979
vn -0.3658 -0.0172 -0.9306
vn 0.3199 -0.0186 -0.9473
vn 0.0095 -0.9557 0.2942
vn -0.3812 -0.0132 0.9244
vn -0.0265 0.9956 0.0894
vn 0.2470 0.8361 -0.4898
vn 0.5011 0.0157 0.8652
vn -0.2908 -0.9512 0.1037
vn -0.3665 0.0050 0.9304
vn 0.0771 -0.9626 -0.2599
vn -0.4546 0.1163 -0.8831
vn 0.3558 0.1434 -0.9235
vn 0.0672 0.2079 -0.9759
vn -0.2842 -0.9587 0.0142
vn -0.0632 -0.1547 0.9859
vn 0.1768 0.8911 -0.4180
vn 0.0190 0.3568 -0.9340
vn -0.0031 -0.0655 0.9978
vn -0.1366 -0.8331 0.5360
vn -0.0056 0.0835 -0.9965
vn 0.0218 0.0223 0.9995
vn 0.0881 -0.5114 0.8548
vn -0.0322 -0.0277 -0.9991
vn -0.0849 0.2324 -0.9689
vn 0.1796 -0.7755 -0.6053
vn -0.0720 0.9674 0.2427
vn -0.0119 -0.0674 0.9977
vn 0.0433 0.0859 -0.9954
vn 0.0638 -0.0284 -0.9976
vn 0.2249 0.6122 -0.7580
vn -0.0314 0.0227 0.9992
vn -0.1588 -0.8298 0.5351
vn -0.0282 0.2150 -0.9762
vn 0.0539 -0.1579 0.9860
vn 0.2033 -0.6996 -0.6850
vn -0.1318 0.8862 0.4441
vt 0.705882 0.375000
vt 0.705882 0.437500
vt 0.647059 0.437500
vt 0.647059 0.375000
vt 0.190348 0.868230
vt 0.190348 0.889765
vt 0.131525 0.889765
vt 0.131525 0.868230
vt 0.705882 0.312500
vt 0.647059 0.312500
vt 0.705882 0.750000
vt 0.705882 0.853465
vt 0.647059 0.853465
vt 0.647059 0.750000
vt 0.705882 0.250000
vt 0.647059 0.250000
vt 0.705882 0.687500
vt 0.647059 0.687500
vt 0.705882 0.187500
vt 0.647059 0.187500
vt 0.705882 0.625000
vt 0.647059 0.625000
vt 0.705882 0.125000
vt 0.647059 0.125000
vt 0.705882 0.562500
vt 0.647059 0.562500
vt 0.705882 0.062500
vt 0.647059 0.062500
vt 0.705882 0.500000
vt 0.647059 0.500000
vt 0.842158 0.112133
vt 0.853054 0.135288
vt 0.831261 0.135288
vt 0.330378 0.654529
vt 0.330378 0.592029
vt 0.330378 0.654529
vt 0.588235 0.437500
vt 0.588235 0.375000
vt 0.072701 0.889765
vt 0.072701 0.868230
vt 0.588235 0.312500
vt 0.588235 0.853465
vt 0.588235 0.750000
vt 0.588235 0.250000
vt 0.389201 0.779529
vt 0.330378 0.779529
vt 0.389201 0.779529
vt 0.588235 0.187500
vt 0.588235 0.687500
vt 0.588235 0.625000
vt 0.588235 0.125000
vt 0.212731 0.592029
vt 0.212731 0.654529
vt 0.212731 0.654529
vt 0.212731 0.592029
vt 0.588235 0.062500
vt 0.588235 0.562500
vt 0.588235 0.500000
vt 0.820365 0.112133
vt 0.809468 0.135288
vt 0.529412 0.250000
vt 0.529412 0.187500
vt 0.529412 0.687500
vt 0.529412 0.625000
vt 0.529412 0.125000
vt 0.529412 0.562500
vt 0.529412 0.062500
vt 0.529412 0.500000
vt 0.798572 0.112133
vt 0.787675 0.135288
vt 0.529412 0.437500
vt 0.529412 0.375000
vt 0.110843 0.873151
vt 0.110843 0.894686
vt 0.052020 0.894686
vt 0.052020 0.873151
vt 0.529412 0.312500
vt 0.529412 0.853465
vt 0.529412 0.750000
vt 0.673368 0.378691
vt 0.673368 0.441191
vt 0.614544 0.441191
vt 0.614544 0.378691
vt 0.157834 0.871921
vt 0.157834 0.893456
vt 0.099010 0.893456
vt 0.099010 0.871921
vt 0.673368 0.316191
vt 0.614544 0.316191
vt 0.673368 0.753691
vt 0.673368 0.857156
vt 0.614544 0.857156
vt 0.614544 0.753691
vt 0.673368 0.253691
vt 0.614544 0.253691
vt 0.673368 0.691191
vt 0.614544 0.691191
vt 0.673368 0.191191
vt 0.614544 0.191191
vt 0.673368 0.628691
vt 0.614544 0.628691
vt 0.673368 0.128691
vt 0.614544 0.128691
vt 0.673368 0.566191
vt 0.614544 0.566191
vt 0.673368 0.066191
vt 0.614544 0.066191
vt 0.673368 0.503691
vt 0.614544 0.503691
vt 0.776779 0.112133
vt 0.765882 0.135288
vt 0.988583 0.637304
vt 0.988583 0.699804
vt 0.929760 0.699804
vt 0.929760 0.637304
vt 0.988583 0.137304
vt 0.988583 0.199804
vt 0.929760 0.199804
vt 0.929760 0.137304
vt 0.988583 0.574804
vt 0.929760 0.574804
vt 0.988583 0.074804
vt 0.929760 0.074804
vt 0.988583 0.512304
vt 0.929760 0.512304
vt 0.754986 0.112133
vt 0.744089 0.135288
vt 0.988583 0.449804
vt 0.929760 0.449804
vt 0.988583 0.387304
vt 0.929760 0.387304
vt 0.470588 0.853465
vt 0.470588 0.875000
vt 0.411765 0.875000
vt 0.411765 0.853465
vt 0.988583 0.324804
vt 0.929760 0.324804
vt 0.988583 0.762304
vt 0.988583 0.865769
vt 0.929760 0.865769
vt 0.929760 0.762304
vt 0.988583 0.262304
vt 0.929760 0.262304
vt 0.411765 0.375000
vt 0.411765 0.437500
vt 0.352941 0.437500
vt 0.352941 0.375000
vt 0.352941 0.875000
vt 0.352941 0.853465
vt 0.870936 0.387304
vt 0.870936 0.324804
vt 0.870936 0.865769
vt 0.870936 0.762304
vt 0.411765 0.250000
vt 0.411765 0.312500
vt 0.352941 0.312500
vt 0.352941 0.250000
vt 0.870936 0.699804
vt 0.870936 0.262304
vt 0.870936 0.199804
vt 0.870936 0.637304
vt 0.870936 0.137304
vt 0.870936 0.574804
vt 0.870936 0.074804
vt 0.870936 0.512304
vt 0.733193 0.112133
vt 0.722296 0.135288
vt 0.870936 0.449804
vt 0.812112 0.199804
vt 0.812112 0.137304
vt 0.352941 0.562500
vt 0.352941 0.625000
vt 0.294118 0.625000
vt 0.294118 0.562500
vt 0.812113 0.074804
vt 0.812113 0.574804
vt 0.812113 0.512304
vt 0.653274 0.078745
vt 0.682686 0.141245
vt 0.623863 0.141245
vt 0.812113 0.449804
vt 0.812112 0.387304
vt 0.294118 0.875000
vt 0.294118 0.853465
vt 0.812113 0.324804
vt 0.812112 0.865769
vt 0.812113 0.762304
vt 0.812113 0.262304
vt 0.812113 0.699804
vt 0.812112 0.637304
vt 0.753289 0.387304
vt 0.753289 0.324804
vt 0.753289 0.865769
vt 0.753289 0.762304
vt 0.753289 0.262304
vt 0.294118 0.687500
vt 0.294118 0.750000
vt 0.235294 0.750000
vt 0.235294 0.687500
vt 0.753289 0.199804
vt 0.753289 0.699804
vt 0.753289 0.637304
vt 0.753289 0.137304
vt 0.753289 0.574804
vt 0.753289 0.074804
vt 0.753289 0.512304
vt 0.881514 0.116692
vt 0.892410 0.139847
vt 0.870617 0.139847
vt 0.753289 0.449804
vt 0.235294 0.875000
vt 0.235294 0.853465
vt 0.694465 0.137304
vt 0.694465 0.074804
vt 0.364485 0.610735
vt 0.364485 0.673235
vt 0.305662 0.673235
vt 0.305662 0.610735
vt 0.859721 0.116692
vt 0.848824 0.139847
vt 0.694465 0.512304
vt 0.694465 0.449804
vt 0.753289 0.863293
vt 0.812113 0.863293
vt 0.812113 0.881115
vt 0.753289 0.881115
vt 0.694465 0.387304
vt 0.176471 0.875000
vt 0.176471 0.853465
vt 0.694465 0.324804
vt 0.694465 0.865769
vt 0.694465 0.762304
vt 0.694465 0.262304
vt 0.694465 0.699804
vt 0.694465 0.199804
vt 0.694465 0.637304
vt 0.694465 0.574804
vt 0.635642 0.865769
vt 0.635642 0.762304
vt 0.635642 0.324804
vt 0.635642 0.262304
vt 0.635642 0.699804
vt 0.635642 0.199804
vt 0.635642 0.637304
vt 0.635642 0.137304
vt 0.176471 0.562500
vt 0.176471 0.625000
vt 0.117647 0.625000
vt 0.117647 0.562500
vt 0.635642 0.074804
vt 0.635642 0.574804
vt 0.635642 0.512304
vt 0.694465 0.863293
vt 0.694465 0.881115
vt 0.837928 0.116692
vt 0.827031 0.139847
vt 0.635642 0.449804
vt 0.823529 0.892822
vt 0.882353 0.892822
vt 0.882353 0.910644
vt 0.823529 0.910644
vt 0.635642 0.387304
vt 0.117647 0.875000
vt 0.117647 0.853465
vt 0.176471 0.312500
vt 0.176471 0.375000
vt 0.117647 0.375000
vt 0.117647 0.312500
vt 0.576818 0.574804
vt 0.576818 0.512304
vt 0.764706 0.892822
vt 0.764706 0.910644
vt 0.624228 0.112133
vt 0.635124 0.135288
vt 0.613331 0.135288
vt 0.576818 0.449804
vt 0.647059 0.892822
vt 0.705882 0.892822
vt 0.705882 0.910644
vt 0.647059 0.910644
vt 0.576818 0.387304
vt 0.058824 0.875000
vt 0.058824 0.853465
vt 0.576818 0.324804
vt 0.576818 0.865769
vt 0.576818 0.762304
vt 0.576818 0.262304
vt 0.576818 0.699804
vt 0.576818 0.199804
vt 0.576818 0.637304
vt 0.576818 0.137304
vt 0.576818 0.074804
vt 0.517995 0.324804
vt 0.517995 0.262304
vt 0.156024 0.697343
vt 0.156024 0.759843
vt 0.097201 0.759843
vt 0.097201 0.697343
vt 0.517995 0.199804
vt 0.517995 0.699804
vt 0.517995 0.637304
vt 0.517995 0.137304
vt 0.517995 0.574804
vt 0.517995 0.074804
vt 0.517995 0.512304
vt 0.529412 0.892822
vt 0.588235 0.892822
vt 0.588235 0.910644
vt 0.529412 0.910644
vt 0.602435 0.112133
vt 0.591538 0.135288
vt 0.517995 0.449804
vt 0.156024 0.384843
vt 0.156024 0.447343
vt 0.097201 0.447343
vt 0.097201 0.384843
vt 0.000000 0.875000
vt 0.000000 0.853465
vt 0.517995 0.387304
vt 0.517995 0.865769
vt 0.517995 0.762304
vt 0.635642 0.863293
vt 0.635642 0.881115
vt 0.970588 0.000000
vt 1.000000 0.062500
vt 0.941176 0.062500
vt 1.000000 0.437500
vt 1.000000 0.500000
vt 0.941176 0.500000
vt 0.941176 0.437500
vt 0.870936 0.863293
vt 0.929760 0.863293
vt 0.929760 0.881115
vt 0.870936 0.881115
vt 1.000000 0.375000
vt 0.941176 0.375000
vt 0.484466 0.868230
vt 0.484466 0.889765
vt 0.425642 0.889765
vt 0.425642 0.868230
vt 1.000000 0.312500
vt 0.941176 0.312500
vt 1.000000 0.750000
vt 1.000000 0.853465
vt 0.941176 0.853465
vt 0.941176 0.750000
vt 1.000000 0.250000
vt 0.941176 0.250000
vt 1.000000 0.687500
vt 0.941176 0.687500
vt 1.000000 0.187500
vt 0.941176 0.187500
vt 1.000000 0.625000
vt 0.941176 0.625000
vt 1.000000 0.125000
vt 0.941176 0.125000
vt 1.000000 0.562500
vt 0.941176 0.562500
vt 0.882353 0.750000
vt 0.882353 0.687500
vt 0.882353 0.250000
vt 0.882353 0.187500
vt 0.882353 0.625000
vt 0.882353 0.125000
vt 0.882353 0.562500
vt 0.882353 0.062500
vt 0.882353 0.500000
vt 0.058824 0.892822
vt 0.117647 0.892822
vt 0.117647 0.910644
vt 0.058824 0.910644
vt 0.929330 0.112133
vt 0.940226 0.135288
vt 0.918433 0.135288
vt 0.882353 0.437500
vt 0.882353 0.375000
vt 0.366819 0.889765
vt 0.366819 0.868230
vt 0.882353 0.312500
vt 0.882353 0.853465
vt 0.823529 0.500000
vt 0.823529 0.437500
vt 0.988583 0.863293
vt 0.988583 0.881115
vt 0.823529 0.375000
vt 0.307995 0.889765
vt 0.307995 0.868230
vt 0.823529 0.312500
vt 0.823529 0.853465
vt 0.823529 0.750000
vt 0.823529 0.250000
vt 0.823529 0.687500
vt 0.823529 0.187500
vt 0.823529 0.625000
vt 0.823529 0.125000
vt 0.823529 0.562500
vt 0.823529 0.062500
vt 0.517995 0.863293
vt 0.576818 0.863293
vt 0.576818 0.881115
vt 0.517995 0.881115
vt 0.907537 0.112133
vt 0.896640 0.135288
vt 0.764706 0.250000
vt 0.764706 0.187500
vt 0.764706 0.687500
vt 0.764706 0.625000
vt 0.764706 0.125000
vt 0.389201 0.592029
vt 0.389201 0.592029
vt 0.764706 0.062500
vt 0.764706 0.562500
vt 0.764706 0.500000
vt 0.614544 0.896513
vt 0.673368 0.896513
vt 0.673368 0.914335
vt 0.614544 0.914335
vt 0.885744 0.112133
vt 0.874847 0.135288
vt 0.212731 0.779529
vt 0.153907 0.779529
vt 0.153907 0.779529
vt 0.212731 0.779529
vt 0.941176 0.892822
vt 1.000000 0.892822
vt 1.000000 0.910644
vt 0.941176 0.910644
vt 0.764706 0.437500
vt 0.764706 0.375000
vt 0.249172 0.889765
vt 0.249172 0.868230
vt 0.764706 0.312500
vt 0.764706 0.853465
vt 0.764706 0.750000
vt 0.153907 0.654529
vt 0.153907 0.592029
vt 0.153907 0.592029
vt 0.153907 0.654529
vt 0.294118 0.892822
vt 0.352941 0.892822
vt 0.352941 0.910644
vt 0.294118 0.910644
vt 0.863951 0.112133
vt 0.705882 0.937500
vt 0.676471 1.000000
vt 0.647059 0.937500
vt 0.588235 0.937500
vt 0.617647 1.000000
vt 0.558824 1.000000
vt 0.529412 0.937500
vt 0.673368 0.941191
vt 0.614544 0.941191
vt 0.500000 1.000000
vt 0.470588 0.937500
vt 0.988583 0.907971
vt 0.959171 0.970471
vt 0.929760 0.907971
vt 0.900348 0.970471
vt 0.870936 0.907971
vt 0.841524 0.970471
vt 0.812113 0.907971
vt 0.782701 0.970471
vt 0.753289 0.907971
vt 0.723877 0.970471
vt 0.694465 0.907971
vt 0.665054 0.970471
vt 0.635642 0.907971
vt 0.606230 0.970471
vt 0.576818 0.907971
vt 0.547407 0.970471
vt 0.517995 0.907971
vt 1.000000 0.937500
vt 0.970588 1.000000
vt 0.941176 0.937500
vt 0.911765 1.000000
vt 0.882353 0.937500
vt 0.823529 0.937500
vt 0.852941 1.000000
vt 0.794118 1.000000
vt 0.764706 0.937500
vt 0.735294 1.000000
vt 0.882353 0.880009
vt 0.941177 0.880009
vt 0.812113 0.850480
vt 0.870936 0.850480
vt 1.000000 0.880009
vt 0.614544 0.883700
vt 0.673368 0.883700
vt 0.517995 0.850480
vt 0.576818 0.850480
vt 0.929760 0.850480
vt 0.988583 0.850480
vt 0.705882 0.880009
vt 0.764706 0.880009
vt 0.635642 0.850480
vt 0.694465 0.850480
vt 0.588235 0.880009
vt 0.647059 0.880009
vt 0.529412 0.880009
vt 0.823529 0.880009
vt 0.753289 0.850480
vt 0.294118 0.880009
vt 0.235294 0.880009
vt 0.176471 0.880009
vt 0.304304 0.850392
vt 0.363128 0.850392
vt 0.363128 0.855401
vt 0.304304 0.855401
vt 0.245481 0.850392
vt 0.245481 0.855401
vt 0.127834 0.850392
vt 0.186657 0.850392
vt 0.186657 0.855401
vt 0.127834 0.855401
vt 0.010186 0.850392
vt 0.069010 0.850392
vt 0.069010 0.855401
vt 0.010186 0.855401
vt 0.117647 0.880009
vt 0.411765 0.880009
vt 0.352941 0.880009
vt 0.058824 0.880009
vt 0.470588 0.880009
vt 0.000000 0.880009
vt 0.095319 0.854083
vt 0.154142 0.854083
vt 0.154142 0.859093
vt 0.095319 0.859093
vt 0.421951 0.850392
vt 0.480775 0.850392
vt 0.480775 0.855401
vt 0.421951 0.855401
vt 0.212731 0.467029
vt 0.212731 0.529529
vt 0.153907 0.529529
vt 0.153907 0.467029
vt 0.212731 0.717029
vt 0.153907 0.717029
vt 0.389201 0.654529
vt 0.389201 0.467029
vt 0.389201 0.529529
vt 0.330378 0.529529
vt 0.330378 0.467029
vt 0.389201 0.717029
vt 0.330378 0.717029
vt 0.153907 0.467029
vt 0.153907 0.529529
vt 0.153907 0.717029
vt 0.212731 0.529529
vt 0.389201 0.529529
vt 0.330378 0.529529
vt 0.330378 0.467029
vt 0.389201 0.467029
vt 0.389201 0.654529
s 0
f 6/1/1 5/2/1 16/3/1 17/4/1
f 234/5/2 1/6/2 9/7/2 10/8/2
f 237/9/3 6/1/3 17/4/3 18/10/3
f 235/11/4 234/12/4 10/13/4 11/14/4
f 7/15/5 237/9/5 18/10/5 19/16/5
f 236/17/6 235/11/6 11/14/6 12/18/6
f 238/19/7 7/15/7 19/16/7 20/20/7
f 2/21/8 236/17/8 12/18/8 13/22/8
f 8/23/9 238/19/9 20/20/9 21/24/9
f 3/25/10 2/21/10 13/22/10 14/26/10
f 239/27/11 8/23/11 21/24/11 22/28/11
f 4/29/12 3/25/12 14/26/12 15/30/12
f 135/31/13 239/32/13 22/33/13
f 5/2/14 4/29/14 15/30/14 16/3/14
f 339/34/15 338/35/15 330/35/15 329/36/15
f 17/4/16 16/3/16 30/37/16 31/38/16
f 10/8/17 9/7/17 23/39/17 24/40/17
f 18/10/18 17/4/18 31/38/18 32/41/18
f 11/14/19 10/13/19 24/42/19 25/43/19
f 19/16/20 18/10/20 32/41/20 33/44/20
f 334/45/21 333/46/21 327/46/21 321/47/21
f 20/20/22 19/16/22 33/44/22 34/48/22
f 13/22/23 12/18/23 26/49/23 27/50/23
f 21/24/24 20/20/24 34/48/24 35/51/24
f 348/52/25 347/53/25 311/54/25 312/55/25
f 22/28/26 21/24/26 35/51/26 36/56/26
f 15/30/27 14/26/27 28/57/27 29/58/27
f 135/59/28 22/33/28 36/60/28
f 34/48/29 33/44/29 47/61/29 48/62/29
f 27/50/30 26/49/30 40/63/30 41/64/30
f 35/51/31 34/48/31 48/62/31 49/65/31
f 28/57/32 27/50/32 41/64/32 42/66/32
f 36/56/33 35/51/33 49/65/33 50/67/33
f 29/58/34 28/57/34 42/66/34 43/68/34
f 135/69/35 36/60/35 50/70/35
f 30/37/36 29/58/36 43/68/36 44/71/36
f 31/38/37 30/37/37 44/71/37 45/72/37
f 24/73/38 23/74/38 37/75/38 38/76/38
f 32/41/39 31/38/39 45/72/39 46/77/39
f 25/43/40 24/42/40 38/78/40 39/79/40
f 33/44/41 32/41/41 46/77/41 47/61/41
f 26/49/42 25/43/42 39/79/42 40/63/42
f 45/80/43 44/81/43 58/82/43 59/83/43
f 38/84/44 37/85/44 51/86/44 52/87/44
f 46/88/45 45/80/45 59/83/45 60/89/45
f 39/90/46 38/91/46 52/92/46 53/93/46
f 47/94/47 46/88/47 60/89/47 61/95/47
f 40/96/48 39/90/48 53/93/48 54/97/48
f 48/98/49 47/94/49 61/95/49 62/99/49
f 41/100/50 40/96/50 54/97/50 55/101/50
f 49/102/51 48/98/51 62/99/51 63/103/51
f 42/104/52 41/100/52 55/101/52 56/105/52
f 50/106/53 49/102/53 63/103/53 64/107/53
f 43/108/54 42/104/54 56/105/54 57/109/54
f 135/110/55 50/70/55 64/111/55
f 44/81/56 43/108/56 57/109/56 58/82/56
f 55/112/57 54/113/57 68/114/57 69/115/57
f 63/116/58 62/117/58 76/118/58 77/119/58
f 56/120/59 55/112/59 69/115/59 70/121/59
f 64/122/60 63/116/60 77/119/60 78/123/60
f 57/124/61 56/120/61 70/121/61 71/125/61
f 135/126/62 64/111/62 78/127/62
f 58/128/63 57/124/63 71/125/63 72/129/63
f 59/130/64 58/128/64 72/129/64 73/131/64
f 52/132/65 51/133/65 65/134/65 66/135/65
f 60/136/66 59/130/66 73/131/66 74/137/66
f 53/138/67 52/139/67 66/140/67 67/141/67
f 61/142/68 60/136/68 74/137/68 75/143/68
f 54/113/69 53/138/69 67/141/69 68/114/69
f 62/117/70 61/142/70 75/143/70 76/118/70
f 73/144/71 72/145/71 86/146/71 87/147/71
f 66/135/72 65/134/72 79/148/72 80/149/72
f 74/137/73 73/131/73 87/150/73 88/151/73
f 67/141/74 66/140/74 80/152/74 81/153/74
f 75/154/75 74/155/75 88/156/75 89/157/75
f 68/114/76 67/141/76 81/153/76 82/158/76
f 76/118/77 75/143/77 89/159/77 90/160/77
f 69/115/78 68/114/78 82/158/78 83/161/78
f 77/119/79 76/118/79 90/160/79 91/162/79
f 70/121/80 69/115/80 83/161/80 84/163/80
f 78/123/81 77/119/81 91/162/81 92/164/81
f 71/125/82 70/121/82 84/163/82 85/165/82
f 135/166/83 78/127/83 92/167/83
f 72/129/84 71/125/84 85/165/84 86/168/84
f 91/162/85 90/160/85 104/169/85 105/170/85
f 84/171/86 83/172/86 97/173/86 98/174/86
f 92/164/87 91/162/87 105/170/87 106/175/87
f 85/165/88 84/163/88 98/176/88 99/177/88
f 135/178/89 92/179/89 106/180/89
f 86/168/90 85/165/90 99/177/90 100/181/90
f 87/150/91 86/168/91 100/181/91 101/182/91
f 80/149/92 79/148/92 93/183/92 94/184/92
f 88/151/93 87/150/93 101/182/93 102/185/93
f 81/153/94 80/152/94 94/186/94 95/187/94
f 89/159/95 88/151/95 102/185/95 103/188/95
f 82/158/96 81/153/96 95/187/96 96/189/96
f 90/160/97 89/159/97 103/188/97 104/169/97
f 83/161/98 82/158/98 96/189/98 97/190/98
f 102/185/99 101/182/99 115/191/99 116/192/99
f 95/187/100 94/186/100 108/193/100 109/194/100
f 103/188/101 102/185/101 116/192/101 117/195/101
f 96/196/102 95/197/102 109/198/102 110/199/102
f 104/169/103 103/188/103 117/195/103 118/200/103
f 97/190/104 96/189/104 110/201/104 111/202/104
f 105/170/105 104/169/105 118/200/105 119/203/105
f 98/176/106 97/190/106 111/202/106 112/204/106
f 106/175/107 105/170/107 119/203/107 120/205/107
f 99/177/108 98/176/108 112/204/108 113/206/108
f 135/207/109 106/208/109 120/209/109
f 100/181/110 99/177/110 113/206/110 114/210/110
f 101/182/111 100/181/111 114/210/111 115/191/111
f 94/184/112 93/183/112 107/211/112 108/212/112
f 120/205/113 119/203/113 133/213/113 134/214/113
f 113/215/114 112/216/114 126/217/114 127/218/114
f 135/219/115 120/209/115 134/220/115
f 114/210/116 113/206/116 127/221/116 128/222/116
f 275/223/117 288/224/117 254/225/117 256/226/117
f 115/191/118 114/210/118 128/222/118 129/227/118
f 108/212/119 107/211/119 121/228/119 122/229/119
f 116/192/120 115/191/120 129/227/120 130/230/120
f 109/194/121 108/193/121 122/231/121 123/232/121
f 117/195/122 116/192/122 130/230/122 131/233/122
f 110/201/123 109/194/123 123/232/123 124/234/123
f 118/200/124 117/195/124 131/233/124 132/235/124
f 111/202/125 110/201/125 124/234/125 125/236/125
f 119/203/126 118/200/126 132/235/126 133/213/126
f 112/204/127 111/202/127 125/236/127 126/237/127
f 123/232/128 122/231/128 137/238/128 138/239/128
f 131/233/129 130/230/129 145/240/129 146/241/129
f 124/234/130 123/232/130 138/239/130 139/242/130
f 132/235/131 131/233/131 146/241/131 147/243/131
f 125/236/132 124/234/132 139/242/132 140/244/132
f 133/213/133 132/235/133 147/243/133 148/245/133
f 126/246/134 125/247/134 140/248/134 141/249/134
f 134/214/135 133/213/135 148/245/135 149/250/135
f 127/221/136 126/237/136 141/251/136 142/252/136
f 279/253/137 275/223/137 256/226/137 258/254/137
f 135/255/138 134/220/138 149/256/138
f 128/222/139 127/221/139 142/252/139 143/257/139
f 276/258/140 290/259/140 268/260/140 270/261/140
f 129/227/141 128/222/141 143/257/141 144/262/141
f 122/229/142 121/228/142 136/263/142 137/264/142
f 130/265/143 129/266/143 144/267/143 145/268/143
f 142/252/144 141/251/144 155/269/144 156/270/144
f 282/271/145 276/258/145 270/261/145 272/272/145
f 135/273/146 149/274/146 163/275/146
f 143/257/147 142/252/147 156/270/147 157/276/147
f 278/277/148 281/278/148 242/279/148 241/280/148
f 144/262/149 143/257/149 157/276/149 158/281/149
f 137/264/150 136/263/150 150/282/150 151/283/150
f 145/240/151 144/262/151 158/281/151 159/284/151
f 138/239/152 137/238/152 151/285/152 152/286/152
f 146/241/153 145/240/153 159/284/153 160/287/153
f 139/242/154 138/239/154 152/286/154 153/288/154
f 147/243/155 146/241/155 160/287/155 161/289/155
f 140/244/156 139/242/156 153/288/156 154/290/156
f 148/245/157 147/243/157 161/289/157 162/291/157
f 141/251/158 140/244/158 154/290/158 155/269/158
f 149/250/159 148/245/159 162/291/159 163/292/159
f 160/287/160 159/284/160 173/293/160 174/294/160
f 153/295/161 152/296/161 166/297/161 167/298/161
f 161/289/162 160/287/162 174/294/162 175/299/162
f 154/290/163 153/288/163 167/300/163 168/301/163
f 162/291/164 161/289/164 175/299/164 176/302/164
f 155/269/165 154/290/165 168/301/165 169/303/165
f 163/292/166 162/291/166 176/302/166 177/304/166
f 156/270/167 155/269/167 169/303/167 170/305/167
f 286/306/168 277/307/168 244/308/168 246/309/168
f 135/310/169 163/275/169 177/311/169
f 157/276/170 156/270/170 170/305/170 171/312/170
f 277/307/171 278/277/171 241/280/171 244/308/171
f 158/313/172 157/314/172 171/315/172 172/316/172
f 151/283/173 150/282/173 164/317/173 165/318/173
f 159/284/174 158/281/174 172/319/174 173/293/174
f 152/286/175 151/285/175 165/320/175 166/321/175
f 280/322/176 279/253/176 258/254/176 260/323/176
f 135/324/177 177/325/177 191/326/177
f 171/327/178 170/328/178 184/329/178 185/330/178
f 289/331/179 283/332/179 250/333/179 252/334/179
f 172/335/180 171/327/180 185/330/180 186/336/180
f 165/337/181 164/338/181 178/339/181 179/340/181
f 173/341/182 172/335/182 186/336/182 187/342/182
f 166/343/183 165/344/183 179/345/183 180/346/183
f 174/347/184 173/341/184 187/342/184 188/348/184
f 167/349/185 166/343/185 180/346/185 181/350/185
f 175/351/186 174/347/186 188/348/186 189/352/186
f 168/353/187 167/349/187 181/350/187 182/354/187
f 176/355/188 175/351/188 189/352/188 190/356/188
f 169/357/189 168/353/189 182/354/189 183/358/189
f 177/325/190 176/355/190 190/356/190 191/326/190
f 170/328/191 169/357/191 183/358/191 184/329/191
f 181/350/192 180/346/192 194/359/192 195/360/192
f 189/352/193 188/348/193 202/361/193 203/362/193
f 182/354/194 181/350/194 195/360/194 196/363/194
f 190/356/195 189/352/195 203/362/195 204/364/195
f 183/358/196 182/354/196 196/363/196 197/365/196
f 191/326/197 190/356/197 204/364/197 205/366/197
f 184/329/198 183/358/198 197/365/198 198/367/198
f 284/368/199 280/369/199 260/370/199 262/371/199
f 135/372/200 191/373/200 205/374/200
f 185/330/201 184/329/201 198/367/201 199/375/201
f 281/278/202 282/271/202 272/272/202 242/279/202
f 186/336/203 185/330/203 199/375/203 200/376/203
f 179/340/204 178/339/204 192/377/204 193/378/204
f 187/342/205 186/336/205 200/376/205 201/379/205
f 180/346/206 179/345/206 193/380/206 194/359/206
f 188/348/207 187/342/207 201/379/207 202/361/207
f 199/375/208 198/367/208 212/381/208 213/382/208
f 283/332/209 285/383/209 248/384/209 250/333/209
f 200/376/210 199/375/210 213/382/210 214/385/210
f 193/378/211 192/377/211 206/386/211 207/387/211
f 201/379/212 200/376/212 214/385/212 215/388/212
f 194/359/213 193/380/213 207/389/213 208/390/213
f 202/361/214 201/379/214 215/388/214 216/391/214
f 195/360/215 194/359/215 208/390/215 209/392/215
f 203/362/216 202/361/216 216/391/216 217/393/216
f 196/363/217 195/360/217 209/392/217 210/394/217
f 204/364/218 203/362/218 217/393/218 218/395/218
f 197/365/219 196/363/219 210/394/219 211/396/219
f 205/366/220 204/364/220 218/395/220 219/397/220
f 198/367/221 197/365/221 211/396/221 212/381/221
f 287/398/222 284/399/222 262/400/222 264/401/222
f 135/402/223 205/374/223 219/403/223
f 217/393/224 216/391/224 230/404/224 231/405/224
f 210/394/225 209/392/225 223/406/225 224/407/225
f 218/395/226 217/393/226 231/405/226 232/408/226
f 338/35/227 337/409/227 324/410/227 330/35/227
f 219/397/228 218/395/228 232/408/228 233/411/228
f 212/381/229 211/396/229 225/412/229 226/413/229
f 285/414/230 286/415/230 246/416/230 248/417/230
f 135/418/231 219/403/231 233/419/231
f 354/420/232 353/421/232 315/422/232 309/423/232
f 291/424/233 287/425/233 264/426/233 266/427/233
f 214/385/234 213/382/234 227/428/234 228/429/234
f 207/387/235 206/386/235 220/430/235 221/431/235
f 215/388/236 214/385/236 228/429/236 229/432/236
f 208/390/237 207/389/237 221/433/237 222/434/237
f 216/391/238 215/388/238 229/432/238 230/404/238
f 346/435/239 345/436/239 318/437/239 317/438/239
f 228/429/240 227/428/240 5/2/240 6/1/240
f 221/431/241 220/430/241 1/6/241 234/5/241
f 229/432/242 228/429/242 6/1/242 237/9/242
f 222/434/243 221/433/243 234/12/243 235/11/243
f 230/404/244 229/432/244 237/9/244 7/15/244
f 223/406/245 222/434/245 235/11/245 236/17/245
f 231/405/246 230/404/246 7/15/246 238/19/246
f 224/407/247 223/406/247 236/17/247 2/21/247
f 232/408/248 231/405/248 238/19/248 8/23/248
f 225/412/249 224/407/249 2/21/249 3/25/249
f 233/411/250 232/408/250 8/23/250 239/27/250
f 226/413/251 225/412/251 3/25/251 4/29/251
f 288/439/252 289/440/252 252/441/252 254/442/252
f 135/443/253 233/419/253 239/32/253
f 227/428/254 226/413/254 4/29/254 5/2/254
f 290/259/255 291/424/255 266/427/255 268/260/255
f 274/444/256 273/445/256 240/446/256
f 242/279/257 274/444/257 240/446/257 241/280/257
f 241/280/258 240/446/258 243/447/258 244/308/258
f 240/446/259 273/448/259 243/447/259
f 243/447/260 273/449/260 245/450/260
f 244/308/261 243/447/261 245/450/261 246/309/261
f 246/416/262 245/451/262 247/452/262 248/417/262
f 245/450/263 273/453/263 247/454/263
f 247/455/264 273/456/264 249/457/264
f 248/384/265 247/455/265 249/457/265 250/333/265
f 249/457/266 273/458/266 251/459/266
f 250/333/267 249/457/267 251/459/267 252/334/267
f 251/459/268 273/460/268 253/461/268
f 252/334/269 251/459/269 253/461/269 254/225/269
f 253/461/270 273/462/270 255/463/270
f 254/225/271 253/461/271 255/463/271 256/226/271
f 255/463/272 273/464/272 257/465/272
f 256/226/273 255/463/273 257/465/273 258/254/273
f 257/465/274 273/466/274 259/467/274
f 258/254/275 257/465/275 259/467/275 260/323/275
f 259/467/276 273/468/276 261/469/276
f 260/323/277 259/467/277 261/469/277 262/400/277
f 261/469/278 273/470/278 263/471/278
f 262/400/279 261/469/279 263/471/279 264/401/279
f 263/472/280 273/473/280 265/474/280
f 264/426/281 263/472/281 265/474/281 266/427/281
f 265/474/282 273/475/282 267/476/282
f 266/427/283 265/474/283 267/476/283 268/260/283
f 268/260/284 267/476/284 269/477/284 270/261/284
f 267/476/285 273/478/285 269/477/285
f 269/477/286 273/479/286 271/480/286
f 270/261/287 269/477/287 271/480/287 272/272/287
f 271/480/288 273/481/288 274/444/288
f 272/272/289 271/480/289 274/444/289 242/279/289
f 297/482/290 308/483/290 291/424/290 290/259/290
f 296/484/291 307/485/291 289/331/291 288/224/291
f 308/483/292 306/486/292 287/425/292 291/424/292
f 295/487/293 305/488/293 286/415/293 285/414/293
f 306/489/294 304/490/294 284/399/294 287/398/294
f 294/491/295 295/492/295 285/383/295 283/332/295
f 293/493/296 303/494/296 282/271/296 281/278/296
f 304/490/297 302/495/297 280/322/297 284/399/297
f 307/485/298 294/491/298 283/332/298 289/331/298
f 302/495/299 301/496/299 279/253/299 280/322/299
f 292/497/300 300/498/300 278/277/300 277/307/300
f 305/499/301 292/497/301 277/307/301 286/306/301
f 300/498/302 293/493/302 281/278/302 278/277/302
f 303/494/303 299/500/303 276/258/303 282/271/303
f 299/500/304 297/482/304 290/259/304 276/258/304
f 301/496/305 298/501/305 275/223/305 279/253/305
f 298/501/306 296/484/306 288/224/306 275/223/306
f 107/211/307 93/183/307 296/502/307 298/503/307
f 121/228/308 107/211/308 298/503/308 301/504/308
f 206/505/309 192/506/309 297/507/309 299/508/309
f 220/509/310 206/505/310 299/508/310 303/510/310
f 9/511/311 1/512/311 293/513/311 300/514/311
f 37/515/312 23/516/312 292/517/312 305/518/312
f 23/516/313 9/511/313 300/514/313 292/517/313
f 136/263/314 121/228/314 301/504/314 302/519/314
f 79/148/315 65/134/315 294/520/315 307/521/315
f 150/282/316 136/263/316 302/519/316 304/522/316
f 1/512/317 220/509/317 303/510/317 293/513/317
f 65/134/318 51/133/318 295/523/318 294/520/318
f 164/317/319 150/282/319 304/522/319 306/524/319
f 51/525/320 37/526/320 305/527/320 295/528/320
f 178/529/321 164/530/321 306/531/321 308/532/321
f 93/183/322 79/148/322 307/521/322 296/502/322
f 192/506/323 178/529/323 308/532/323 297/507/323
f 314/533/324 313/534/324 319/535/324 320/536/324
f 310/537/325 309/423/325 315/422/325 316/538/325
f 312/55/326 311/54/326 317/438/326 318/437/326
f 324/410/327 323/539/327 329/36/327 330/35/327
f 326/540/328 325/541/328 331/542/328 332/543/328
f 322/544/329 321/47/329 327/46/329 328/545/329
f 350/546/330 349/533/330 314/533/330 320/536/330
f 351/547/331 350/546/331 320/536/331 319/535/331
f 356/548/332 355/537/332 310/537/332 316/538/332
f 335/544/333 334/45/333 321/47/333 322/544/333
f 352/549/334 351/547/334 319/535/334 313/534/334
f 342/550/335 341/551/335 331/542/335 325/541/335
f 349/533/336 352/549/336 313/534/336 314/533/336
f 341/551/337 343/552/337 332/543/337 331/542/337
f 343/552/338 344/553/338 326/540/338 332/543/338
f 337/409/339 340/554/339 323/539/339 324/410/339
f 347/53/340 346/435/340 317/438/340 311/54/340
f 340/554/341 339/34/341 329/36/341 323/539/341
f 353/421/342 356/548/342 316/538/342 315/422/342
f 336/545/343 335/544/343 322/544/343 328/545/343
f 344/553/344 342/550/344 325/541/344 326/540/344
f 345/436/345 348/52/345 312/55/345 318/437/345
f 355/537/346 354/420/346 309/423/346 310/537/346
f 333/46/347 336/545/347 328/545/347 327/46/347
f 222/46/348 223/545/348 336/545/348 333/46/348
f 223/545/349 209/544/349 335/544/349 336/545/349
f 209/544/350 208/47/350 334/45/350 335/544/350
f 208/47/351 222/46/351 333/46/351 334/45/351
f 210/539/352 224/36/352 339/34/352 340/554/352
f 211/410/353 210/539/353 340/554/353 337/409/353
f 225/35/354 211/410/354 337/409/354 338/35/354
f 224/36/355 225/35/355 338/35/355 339/34/355
f 213/540/356 212/541/356 342/550/356 344/553/356
f 227/543/357 213/540/357 344/553/357 343/552/357
f 226/542/358 227/543/358 343/552/358 341/551/358
f 212/541/359 226/542/359 341/551/359 342/550/359
f 28/437/360 14/55/360 348/52/360 345/436/360
f 13/54/361 27/438/361 346/435/361 347/53/361
f 27/438/362 28/437/362 345/436/362 346/435/362
f 14/55/363 13/54/363 347/53/363 348/52/363
f 16/533/364 15/534/364 352/549/364 349/533/364
f 15/534/365 29/535/365 351/547/365 352/549/365
f 29/535/366 30/536/366 350/546/366 351/547/366
f 30/536/367 16/533/367 349/533/367 350/546/367
f 12/537/368 11/423/368 354/420/368 355/537/368
f 25/422/369 26/538/369 356/548/369 353/421/369
f 26/538/370 12/537/370 355/537/370 356/548/370
f 11/423/371 25/422/371 353/421/371 354/420/371
