# Blender 5.0.0
# www.blender.org
o Deku_Tree_Collision
v 0.120697 -0.011055 -5.769556
v 0.894464 1.988945 -5.237264
v 2.151485 -0.011055 -7.269639
v 1.686349 1.988945 -5.376377
v 3.470527 -0.011055 -3.346169
v 3.166198 1.988945 -3.216635
v 4.440564 -0.011055 -1.484229
v 4.110225 1.988945 -1.371936
v 5.777533 -0.011055 0.466527
v 4.623013 1.988945 0.543376
v 8.092804 -0.011055 4.179735
v 5.138885 1.988945 2.810057
v 3.852848 -0.011055 4.045639
v 3.794791 1.988945 3.100124
v 2.317612 -0.011055 3.956221
v 2.277262 1.988945 3.489060
v 0.506679 -0.011055 4.370006
v 0.508745 1.988945 3.610238
v -1.304255 -0.011055 4.670026
v -1.273155 1.988945 3.458923
v -2.839491 -0.011055 4.691775
v -3.423400 1.988945 3.107907
v -6.205966 -0.011055 4.505515
v -3.871440 1.988945 2.876889
v -4.582737 -0.011055 0.000000
v -4.067678 1.988945 -0.252744
v -6.691070 -0.011055 -4.007113
v -4.336433 1.988945 -1.779464
v -3.106243 -0.011055 -4.633892
v -3.904100 1.988945 -3.384460
v -1.304255 -0.011055 -4.899764
v -1.211692 1.988945 -4.265228
v 1.802880 1.988945 -5.653473
v 0.818376 1.988945 -5.480523
v 3.383838 1.988945 -3.346169
v 4.347446 1.988945 -1.463209
v 4.868404 1.988945 0.482625
v 5.442061 1.988945 3.003203
v 3.852848 1.988945 3.346169
v 2.317612 1.988945 3.739643
v 0.506679 1.988945 3.863727
v -1.304255 1.988945 3.709946
v -3.503643 1.988945 3.350908
v -4.114726 1.988945 3.035823
v -4.319054 1.988945 -0.222832
v -4.595099 1.988945 -1.790966
v -4.112603 1.988945 -3.582188
v -1.304255 1.988945 -4.500883
v 1.672612 3.130140 -4.103111
v 0.873441 3.130140 -4.383476
v 2.955851 3.130140 -3.047344
v 3.848079 3.130140 -1.303865
v 3.911588 3.130140 0.504360
v 3.419159 3.130140 1.958677
v 2.928822 3.130140 2.471551
v 2.157529 3.130140 3.235544
v 0.510866 3.130140 3.403796
v -1.201396 3.130140 3.201195
v -2.763983 3.130140 2.493385
v -3.101347 3.130140 1.939803
v -3.799569 3.130140 -0.281435
v -3.669993 3.130140 -1.695994
v -2.838468 3.130140 -3.099600
v -1.123393 3.130140 -4.012730
v 1.804373 3.130140 -4.337057
v 0.894464 3.130140 -4.656271
v 3.166198 3.130140 -3.216635
v 4.110225 3.130140 -1.371936
v 4.177495 3.130140 0.543376
v 3.650765 3.130140 2.098996
v 3.117428 3.130140 2.656847
v 2.277262 3.130140 3.489060
v 0.508745 3.130140 3.669763
v -1.273155 3.130140 3.458923
v -2.947318 3.130140 2.700571
v -3.343884 3.130140 2.049845
v -4.067678 3.130140 -0.252744
v -3.927828 3.130140 -1.779464
v -3.028143 3.130140 -3.298124
v -1.211692 3.130140 -4.265228
v 1.459987 4.529203 -3.160663
v 0.680438 4.529203 -3.514759
v 2.475076 4.529203 -2.658897
v 3.191585 4.529203 -1.256057
v 3.200871 4.529203 0.453468
v 2.667080 4.529203 1.404845
v 2.179847 4.529203 1.860449
v 1.688666 4.529203 2.293250
v 0.492181 4.529203 2.596275
v -0.991107 4.529203 2.507235
v -2.072716 4.529203 1.805522
v -2.413435 4.529203 1.335712
v -2.931572 4.529203 -0.311158
v -2.926799 4.529203 -1.270441
v -2.070490 4.529203 -2.505791
v -0.837591 4.529203 -3.357816
v 1.544230 4.529203 -3.338350
v 0.713230 4.529203 -3.715816
v 2.620565 4.529203 -2.806310
v 3.387948 4.529203 -1.303865
v 3.397770 4.529203 0.504360
v 2.823637 4.529203 1.527639
v 2.312016 4.529203 2.006049
v 1.783002 4.529203 2.472185
v 0.510866 4.529203 2.794371
v -1.054633 4.529203 2.700395
v -2.210412 4.529203 1.950564
v -2.591388 4.529203 1.425242
v -3.128342 4.529203 -0.281435
v -3.123112 4.529203 -1.332364
v -2.211703 4.529203 -2.647205
v -0.907926 4.529203 -3.548213
v 1.395750 5.936059 -2.901338
v 0.665371 5.936059 -3.182943
v 2.311089 5.936059 -2.440430
v 3.028984 5.936059 -1.220203
v 2.870100 5.936059 0.400146
v 2.380204 5.936059 1.165321
v 1.959888 5.936059 1.588803
v 1.477406 5.936059 1.980501
v 0.498888 5.936059 2.154831
v -0.923456 5.936059 1.777906
v -1.498363 5.936059 1.376525
v -1.785347 5.936059 0.970125
v -2.264707 5.936059 -0.339420
v -2.266957 5.936059 -1.222995
v -1.631555 5.936059 -2.183516
v -0.664033 5.936059 -2.934671
v 1.459987 5.936059 -3.046257
v 0.680438 5.936059 -3.346820
v 2.423918 5.936059 -2.560881
v 3.191585 5.936059 -1.256057
v 3.023957 5.936059 0.453468
v 2.504453 5.936059 1.264888
v 2.066275 5.936059 1.706366
v 1.545442 5.936059 2.129199
v 0.492181 5.936059 2.316845
v -0.991107 5.936059 1.923769
v -1.611712 5.936059 1.490484
v -1.926800 5.936059 1.044285
v -2.422961 5.936059 -0.311158
v -2.425404 5.936059 -1.270441
v -1.749229 5.936059 -2.292598
v -0.730818 5.936059 -3.083263
v -0.909430 7.060232 -2.522526
v -1.619366 7.060232 -1.939637
v -2.133982 7.060232 -1.148402
v -2.303760 7.060232 -0.347424
v -1.933411 7.060232 0.871099
v -1.680131 7.060232 1.229772
v -1.155828 7.060232 1.595822
v 0.174403 7.060232 2.054260
v 1.057444 7.060232 1.887159
v 1.613656 7.060232 1.431568
v 2.027718 7.060232 1.041700
v 2.338179 7.060232 0.342358
v 2.486159 7.060232 -1.166794
v 1.830439 7.060232 -2.281341
v 0.335303 7.060232 -2.696779
v 1.004057 7.060232 -2.697455
v 0.975447 8.315203 -2.248722
v 0.383116 8.315203 -2.515087
v 1.590722 8.315203 -1.889363
v 2.034884 8.315203 -0.978945
v 2.175593 8.315203 0.339624
v 2.028784 8.315203 0.834983
v 1.572118 8.315203 1.248768
v 1.138339 8.315203 1.712151
v 0.105822 8.315203 2.043294
v -1.135081 8.315203 1.749755
v -1.682408 8.315203 1.391065
v -2.068530 8.315203 0.764683
v -2.305322 8.315203 -0.344951
v -2.211820 8.315203 -1.162828
v -1.533643 8.315203 -2.006534
v -0.741212 8.315203 -2.421154
v 0.933349 9.263869 -2.141496
v 0.372452 9.263869 -2.393726
v 1.515971 9.263869 -1.801209
v 1.936562 9.263869 -0.939107
v 2.069803 9.263869 0.309486
v 1.930785 9.263869 0.778556
v 1.498354 9.263869 1.170382
v 1.087596 9.263869 1.609173
v 0.327117 9.263869 1.847504
v -1.065174 9.263869 1.560024
v -1.583454 9.263869 1.305127
v -1.949084 9.263869 0.711988
v -2.173311 9.263869 -0.338759
v -2.084770 9.263869 -1.113231
v -1.442584 9.263869 -1.912161
v -0.692207 9.263869 -2.304777
v 0.975547 10.546901 -2.109827
v 0.450966 10.546901 -2.345726
v 1.520447 10.546901 -1.791571
v 1.913806 10.546901 -0.985287
v 1.970858 10.546901 0.182464
v 1.750882 10.546901 0.621164
v 1.503971 10.546901 0.987621
v 1.119807 10.546901 1.398003
v 0.408566 10.546901 1.498775
v -0.893580 10.546901 1.291975
v -1.254957 10.546901 1.002824
v -1.593518 10.546901 0.558906
v -1.826291 10.546901 -0.423809
v -1.670190 10.546901 -1.148137
v -1.246554 10.546901 -1.786334
v -0.544761 10.546901 -2.205298
v 1.347949 11.148787 -2.533218
v 0.549075 11.393096 -2.345726
v 2.064568 10.909790 -1.791571
v 2.207321 10.846395 -0.985287
v 2.206397 11.156235 -0.325132
v 1.744718 11.393096 0.118580
v 1.321000 11.393096 0.275997
v 0.918981 11.393096 0.544498
v 0.506675 11.393096 0.816721
v -0.615197 11.393096 1.208895
v -1.156847 11.393096 0.919360
v -1.414189 11.393096 0.443239
v -1.669033 11.393096 -0.423809
v -1.445562 11.393096 -1.031629
v -0.913516 11.393096 -1.535733
v -0.323626 11.393096 -1.871629
v 0.297677 11.949243 -0.663565
v 0.714392 11.806493 -0.059534
v -0.012974 11.891116 -1.267597
v 2.298283 11.502620 -3.569264
v 1.639868 12.098913 -3.226079
v 3.134318 11.402391 -3.032012
v 3.184410 11.601840 -2.091367
v 2.922223 11.718375 -1.591772
v 2.707185 12.019017 -1.362997
v 2.028485 12.240528 -0.860861
v 1.072993 12.657614 -1.716034
v 1.559149 12.581199 -1.011346
v 1.123820 12.446176 -2.233089
v 2.936821 12.155850 -4.423079
v 2.320588 12.934640 -3.974863
v 3.810235 12.024947 -3.721400
v 3.505323 12.285437 -2.756742
v 3.000344 12.590417 -2.205561
v 2.889604 12.830292 -1.804259
v 2.112157 13.119596 -1.200225
v 1.118039 13.664331 -2.002666
v 1.752983 13.564530 -1.082308
v 1.477993 13.388183 -2.677966
v 3.294899 13.309548 -5.141780
v 2.565646 13.815966 -4.266582
v 4.055294 12.906273 -4.013120
v 3.750381 13.166762 -3.048462
v 3.323276 13.580617 -2.542400
v 3.134662 13.711617 -2.095978
v 2.357215 14.249459 -1.491945
v 1.363097 14.545657 -2.294386
v 1.998041 14.445856 -1.530529
v 1.723051 14.269508 -2.969686
v 3.521709 14.343697 -5.590189
v 2.792457 14.850114 -4.714991
v 4.282104 13.940421 -4.461528
v 3.977191 14.200911 -3.496870
v 3.550086 14.614765 -2.990809
v 3.361472 14.745766 -2.544387
v 2.584025 15.283607 -1.940353
v 1.589907 15.579805 -2.742794
v 2.224852 15.480004 -1.978938
v 1.949861 15.303657 -3.418094
v -0.368251 12.502214 1.010593
v -1.181693 12.293649 1.386326
v -1.637126 12.293649 1.142878
v -2.024949 12.293649 0.742544
v -2.186014 12.293649 0.013507
v -1.879885 12.293649 -0.497563
v -1.432527 12.408053 -0.882540
v -0.414125 12.696318 -0.188086
v -0.147985 12.641244 0.319800
v -0.675329 12.712397 -0.496030
v -0.808014 13.344708 1.219408
v -1.597734 13.142225 1.476836
v -2.039886 13.142225 1.347835
v -2.416400 13.142225 0.959175
v -2.572768 13.142225 0.251400
v -2.275566 13.142225 -0.244767
v -1.841254 13.253294 -0.618517
v -0.852550 13.533151 0.055685
v -0.594172 13.479684 0.548760
v -1.106137 13.548761 -0.243278
v -0.980101 13.889869 1.247780
v -1.689685 13.707932 1.479085
v -2.086970 13.707932 1.363175
v -2.327761 13.707932 1.013954
v -2.565778 13.707932 0.377999
v -2.298734 13.707932 -0.067820
v -1.908493 13.807731 -0.403645
v -0.938945 14.059190 0.202144
v -0.787958 14.011148 0.645184
v -1.247972 14.073216 -0.066482
v -1.174323 14.607962 1.072321
v -1.812112 14.444433 1.280223
v -2.169200 14.444433 1.176040
v -2.385628 14.444433 0.862153
v -2.599563 14.444433 0.290543
v -2.359538 14.444433 -0.110168
v -2.008782 14.534134 -0.412014
v -1.137332 14.760151 0.132482
v -1.001621 14.716970 0.530695
v -1.415091 14.772758 -0.108966
v -1.717066 7.060232 -2.027071
v -2.255741 7.060232 -1.198845
v -2.051307 7.060232 0.928772
v -1.772895 7.060232 1.522672
v 0.164702 7.060232 2.187968
v 1.113994 7.060232 2.008330
v 2.135551 7.060232 1.118137
v 2.465092 7.060232 0.375817
v 2.619231 7.060232 -1.196136
v 1.922777 7.060232 -2.379917
v 1.034777 7.060232 -2.827059
v 0.326213 7.060232 -2.826342
v -0.963485 7.060232 -2.645794
v -2.437433 7.060232 -0.341660
v -1.215159 7.060232 1.886884
v 1.699222 7.060232 1.528971
v 2.198796 6.910277 -0.501656
v 3.395036 7.251163 -0.451198
v 2.327543 6.490269 -0.319693
v 3.515935 6.857291 -0.268405
v 2.380871 6.316297 0.119604
v 3.546599 6.726177 0.119418
v 2.327543 6.490269 0.558901
v 3.488380 6.889732 0.568107
v 2.198796 6.910277 0.740864
v 3.409936 7.280772 0.719830
v 2.070049 7.330284 0.558901
v 3.279820 7.675224 0.552960
v 2.016720 7.504257 0.119604
v 3.226870 7.825803 0.137196
v 2.070049 7.330284 -0.319693
v 3.264995 7.681241 -0.261075
v 4.187563 7.177133 -0.173435
v 4.071578 7.554996 -0.348798
v 4.216980 7.051348 0.198625
v 4.161127 7.208255 0.629076
v 4.085872 7.583401 0.774633
v 3.961045 7.961820 0.614545
v 3.910247 8.106278 0.215680
v 3.946822 7.967592 -0.166403
v 4.732431 7.479098 -0.086439
v 4.624301 7.831370 -0.249925
v 4.759856 7.361832 0.260423
v 4.707786 7.508112 0.661722
v 4.637627 7.857852 0.797421
v 4.521254 8.210643 0.648175
v 4.473896 8.345317 0.276323
v 4.507994 8.216023 -0.079883
v 5.001030 7.544775 -0.019277
v 4.955466 7.879197 -0.169018
v 5.008451 7.434720 0.298422
v 4.983050 7.574650 0.665981
v 4.971433 7.901159 0.790271
v 4.918495 8.237271 0.653573
v 4.895634 8.366014 0.312985
v 4.907306 8.244099 -0.013272
v 5.413063 7.444381 0.029137
v 5.436289 7.762443 -0.112351
v 5.398419 7.341190 0.329324
v 5.402280 7.475513 0.676623
v 5.455341 7.779625 0.794062
v 5.472080 8.100690 0.664899
v 5.476104 8.224173 0.343084
v 5.463072 8.109187 0.034810
v 6.186115 7.437459 0.167336
v 6.185224 7.680261 0.059614
v 6.181007 7.358271 0.395887
v 6.176116 7.460464 0.660306
v 6.198686 7.694415 0.749719
v 6.192695 7.939119 0.651380
v 6.188559 8.033092 0.406363
v 6.185362 7.945045 0.171656
v 6.763346 7.550992 0.211187
v 6.762455 7.793794 0.103464
v 6.758238 7.471804 0.439737
v 6.753347 7.573996 0.704156
v 6.775917 7.807947 0.793570
v 6.769927 8.052651 0.695230
v 6.765789 8.146625 0.450214
v 6.762593 8.058578 0.215506
v 7.403204 7.578399 0.118036
v 7.402313 7.821201 0.010313
v 7.398097 7.499211 0.346586
v 7.393206 7.601404 0.611005
v 7.415775 7.835355 0.700419
v 7.409785 8.080058 0.602079
v 7.405648 8.174032 0.357063
v 7.402452 8.085985 0.122356
v 8.020419 7.588352 0.141399
v 8.019527 7.831154 0.033676
v 8.015311 7.509164 0.369949
v 8.010420 7.611357 0.634368
v 8.032990 7.845308 0.723782
v 8.026999 8.090012 0.625442
v 8.022862 8.183985 0.380426
v 8.019667 8.095938 0.145719
v 8.440300 7.688773 -0.099667
v 8.439006 8.046277 -0.297751
v 8.432879 7.535164 0.278505
v 8.425774 7.633287 0.616476
v 8.458562 7.998046 0.695239
v 8.506485 8.366763 0.462408
v 8.443850 8.427278 0.247570
v 8.439206 8.485475 -0.093392
v 8.659491 7.976148 0.185670
v 8.590426 8.214196 0.276236
v 8.648423 7.832460 0.006815
v 8.869394 7.667274 0.026760
v 8.774011 7.563432 0.311157
v 8.775711 7.611789 0.603350
v 8.780924 7.939737 0.727891
v 8.822373 8.291057 0.495059
v 8.916804 7.954648 0.218321
v 8.847741 8.149165 0.352023
v 8.905737 7.810961 0.109880
v 9.363322 7.621681 0.264382
v 9.363934 7.596053 0.390189
v 9.282537 7.624011 0.662959
v 9.287031 7.851351 0.770353
v 9.322774 8.154302 0.569577
v 9.404204 7.864209 0.330940
v 9.344649 8.031945 0.446234
v 9.394660 7.740304 0.237429
v 9.844368 7.499928 0.548351
v 9.795682 7.488779 0.639547
v 9.659757 7.552297 0.816025
v 9.696820 7.727748 0.912549
v 9.879151 7.930086 0.797296
v 9.924015 7.672944 0.627725
v 9.897106 7.823964 0.704959
v 9.910507 7.577213 0.546999
v 8.686338 8.137919 -0.388610
v 8.507662 8.265731 -0.394407
v 8.761020 8.517989 0.004364
v 8.640409 8.533467 -0.070451
v 8.537582 8.559053 -0.196986
v 8.779920 8.293053 -0.133702
v 8.779593 8.408895 -0.073575
v 8.776539 8.190064 -0.270295
v 8.952566 8.326818 -0.580785
v 8.746710 8.434557 -0.585671
v 8.921729 8.647202 -0.249523
v 8.820059 8.660249 -0.312589
v 8.733380 8.681817 -0.419253
v 8.937661 8.457588 -0.365907
v 8.937387 8.555239 -0.315222
v 8.934812 8.370773 -0.481050
v 9.224960 8.561898 -0.822676
v 9.128796 8.610851 -0.827040
v 9.285102 8.800759 -0.526833
v 9.194303 8.812412 -0.583156
v 9.116893 8.831674 -0.678415
v 9.299332 8.631420 -0.630773
v 9.299086 8.718630 -0.585507
v 9.296786 8.553887 -0.733605
v -2.614033 5.419824 -1.702864
v -3.532405 6.273697 -1.468353
v -2.403925 5.876652 -1.494585
v -3.268860 6.563800 -1.317778
v -2.316895 6.065876 -0.991756
v -3.159696 6.683965 -0.925840
v -2.403925 5.876652 -0.488927
v -3.268860 6.563800 -0.533902
v -2.614033 5.419824 -0.280649
v -3.532405 6.273697 -0.371555
v -2.824141 4.962996 -0.488927
v -3.795949 5.983594 -0.533902
v -2.911171 4.773772 -0.991756
v -3.905113 5.863430 -0.925840
v -2.824141 4.962996 -1.494585
v -3.795949 5.983594 -1.317778
v -3.751088 7.065499 -1.293715
v -3.997652 6.794087 -1.442019
v -3.648958 7.177921 -0.927030
v -3.751088 7.065499 -0.560345
v -3.997652 6.794087 -0.408459
v -4.244217 6.522676 -0.560345
v -4.346347 6.410254 -0.927030
v -4.244217 6.522676 -1.293715
v -4.214498 7.653151 -1.259581
v -4.482224 7.446630 -1.399637
v -4.103601 7.738694 -0.921456
v -4.214498 7.653151 -0.583330
v -4.482224 7.446630 -0.443274
v -4.749952 7.240109 -0.583330
v -4.860848 7.154565 -0.921456
v -4.749952 7.240109 -1.259581
v -4.586021 8.193761 -1.240950
v -4.867369 8.046824 -1.340723
v -4.469483 8.254624 -0.923544
v -4.586021 8.193761 -0.606137
v -4.867369 8.046824 -0.474663
v -5.148718 7.899888 -0.606137
v -5.265256 7.839025 -0.923544
v -5.148718 7.899888 -1.240950
v -4.764540 8.583006 -1.238892
v -5.062761 8.474327 -1.271523
v -4.641013 8.628023 -0.921486
v -4.764540 8.583006 -0.604079
v -5.062761 8.474327 -0.577269
v -5.360982 8.365647 -0.604079
v -5.484509 8.320631 -0.921486
v -5.360982 8.365647 -1.238892
v -5.215292 8.895668 -0.924396
v -5.165411 8.758413 -0.622181
v -5.190182 8.731087 -1.207756
v -4.516750 8.880010 -1.252674
v -4.448988 8.844810 -0.935267
v -4.516750 8.880010 -0.617860
v -4.930075 9.165227 -0.938177
v -4.917621 9.169138 -0.635962
v -4.942392 9.149603 -1.195535
v -4.325539 9.154727 -1.200658
v -4.268395 9.121670 -0.926239
v -4.325539 9.154727 -0.651819
v -4.671335 9.417270 -0.928755
v -4.660426 9.420159 -0.667469
v -4.682586 9.404258 -1.151258
v -3.888373 9.739354 -1.197111
v -3.822555 9.734243 -0.922692
v -3.888373 9.739354 -0.648272
v -4.313679 9.826641 -0.925208
v -4.305090 9.833962 -0.663922
v -4.318201 9.810045 -1.147711
v -5.644835 8.511694 -0.685029
v -5.743533 8.455393 -0.908159
v -5.644835 8.511694 -1.183870
v -5.597728 8.956816 -0.910674
v -5.535288 8.874727 -0.673131
v -5.552422 8.847847 -1.155568
v -5.945179 8.588309 -0.726632
v -6.038725 8.549077 -0.908773
v -5.945179 8.588309 -1.121312
v -5.900529 8.985645 -0.911157
v -5.841348 8.932399 -0.686009
v -5.857587 8.906921 -1.143271
v -6.293351 8.647090 -0.737531
v -6.377967 8.599236 -0.912075
v -6.293351 8.647090 -1.115749
v -6.295528 9.030244 -0.914359
v -6.233222 8.986223 -0.698602
v -6.245811 8.960152 -1.136793
v -6.813211 8.718843 -0.750532
v -6.906870 8.692806 -0.925076
v -6.813211 8.718843 -1.128750
v -6.722929 9.091215 -0.927361
v -6.673075 9.033468 -0.711604
v -6.691581 9.011202 -1.149794
v -7.088398 8.910468 -0.763987
v -7.173556 8.886794 -0.922689
v -7.088398 8.910468 -1.107877
v -6.964606 9.186388 -0.924766
v -6.960982 9.168295 -0.736582
v -6.977808 9.176291 -1.127010
v -7.421699 9.178438 -0.776352
v -7.502330 9.177832 -0.921132
v -7.421699 9.178438 -1.090075
v -7.247076 9.392030 -0.923027
v -7.248184 9.375232 -0.751351
v -7.261102 9.386274 -1.107530
v -7.699254 9.459901 -0.775989
v -7.776822 9.459316 -0.915269
v -7.699254 9.459901 -1.077794
v -7.531264 9.665379 -0.917092
v -7.533084 9.649863 -0.772717
v -7.544005 9.659197 -1.073806
vn -0.4410 0.4170 -0.7948
vn 0.8755 0.2599 -0.4075
vn 0.8877 0.0423 -0.4584
vn 0.8796 0.2243 -0.4194
vn 0.7484 0.5654 -0.3468
vn 0.0321 0.4418 0.8966
vn 0.0961 0.2222 0.9703
vn 0.1446 0.1760 0.9737
vn 0.0379 0.3439 0.9382
vn -0.0785 0.4873 0.8697
vn -0.1004 0.5957 0.7969
vn -0.8788 0.4494 -0.1606
vn -0.8688 0.3274 0.3716
vn -0.3910 0.6438 -0.6577
vn -0.3732 0.1777 -0.9106
vn -0.2391 0.2773 -0.9306
vn -0.4502 0.2270 -0.8636
vn -0.0000 1.0000 -0.0000
vn 0.3329 0.4567 -0.8250
vn 0.0850 -0.0260 0.9960
vn 0.0862 0.5738 -0.8145
vn -0.2992 0.2354 -0.9247
vn -0.1011 -0.0259 0.9945
vn 0.7317 0.2508 -0.6339
vn -0.2715 0.2237 0.9361
vn 0.8902 -0.0000 -0.4556
vn -0.5939 0.5689 0.5689
vn 0.9708 0.1895 -0.1470
vn -0.9473 0.2771 0.1604
vn 0.7627 0.6468 0.0022
vn -0.9835 0.1761 0.0415
vn 0.3134 0.6483 0.6939
vn -0.8119 0.4700 -0.3462
vn 0.4394 0.2952 0.8484
vn 0.9970 0.0627 0.0462
vn -0.1365 0.3739 -0.9174
vn -0.0837 0.3713 0.9247
vn 0.5200 0.3639 -0.7728
vn -0.4314 0.4081 0.8046
vn 0.8546 0.2806 -0.4370
vn -0.7367 0.4654 0.4905
vn 0.9443 0.3287 -0.0191
vn -0.8674 0.4163 0.2727
vn 0.8453 0.3912 0.3639
vn -0.9134 0.4041 -0.0499
vn 0.6208 0.4700 0.6275
vn -0.7498 0.4547 -0.4807
vn 0.5990 0.4903 0.6331
vn -0.4722 0.3996 -0.7857
vn 0.1479 0.4515 0.8799
vn 0.9362 0.3393 0.0918
vn -0.8890 0.3456 0.3003
vn 0.8514 0.1280 0.5087
vn -0.9412 0.3379 -0.0011
vn 0.6890 0.1419 0.7107
vn -0.7958 0.2736 -0.5402
vn 0.6389 0.1438 0.7557
vn -0.5745 0.2239 -0.7873
vn 0.2103 0.1626 0.9640
vn 0.3855 0.0921 -0.9181
vn -0.1403 0.1590 -0.9773
vn -0.1535 0.2897 0.9447
vn 0.4451 0.0755 -0.8923
vn -0.5225 0.3359 0.7837
vn 0.8764 0.0327 -0.4804
vn -0.7551 0.3708 0.5406
vn 0.8197 0.3091 -0.4822
vn 0.4407 0.1993 -0.8752
vn -0.1572 0.2310 -0.9602
vn 0.1805 0.0294 0.9831
vn 0.6214 0.1833 0.7617
vn 0.6853 0.1875 0.7037
vn 0.8484 0.2598 0.4612
vn -0.7722 0.1359 -0.6207
vn -0.8359 0.0164 -0.5487
vn -0.9923 -0.0703 -0.1023
vn -0.9333 -0.1760 0.3131
vn -0.8480 -0.2262 0.4793
vn -0.5451 -0.2288 0.8065
vn -0.2333 -0.1259 0.9642
vn 0.1860 0.2405 -0.9527
vn -0.6220 0.0483 -0.7815
vn 0.9960 0.0419 -0.0784
vn 0.7254 0.1125 0.6791
vn -0.4596 0.1315 -0.8784
vn 0.3004 0.1220 0.9460
vn 0.4071 0.1204 -0.9054
vn -0.0826 0.1255 -0.9886
vn -0.2099 0.2255 0.9514
vn 0.5007 0.1191 -0.8574
vn -0.4919 0.1679 0.8543
vn 0.8932 0.1109 -0.4358
vn -0.8435 0.1351 0.5199
vn 0.9887 0.1069 -0.1055
vn -0.9692 0.1335 0.2068
vn 0.9524 0.1152 0.2823
vn -0.9841 0.1377 -0.1125
vn 0.6672 0.1127 0.7363
vn 0.6035 -0.7632 -0.2307
vn -0.9377 0.2763 0.2107
vn 0.9207 0.1404 0.3641
vn -0.9490 0.2744 -0.1549
vn 0.7377 0.1377 0.6609
vn -0.7857 0.2076 -0.5827
vn 0.7268 0.0937 0.6804
vn -0.4830 0.1405 -0.8643
vn 0.2201 0.1986 0.9550
vn 0.4101 0.0090 -0.9120
vn -0.1104 0.0667 -0.9916
vn -0.1749 0.2464 0.9533
vn 0.5043 0.0047 -0.8635
vn -0.5050 0.2799 0.8165
vn 0.8987 0.0002 -0.4385
vn -0.7879 0.3050 0.5350
vn 0.0992 0.9943 -0.0384
vn -0.8228 0.1976 0.5329
vn 0.8759 -0.4795 0.0544
vn -0.9464 0.2053 0.2495
vn 0.7972 0.2544 0.5475
vn -0.9360 0.2296 -0.2667
vn 0.5199 0.5356 0.6655
vn -0.7141 0.3649 -0.5974
vn 0.4984 0.6468 0.5772
vn -0.4578 0.4204 -0.7834
vn 0.2365 0.6607 0.7124
vn -0.0158 -0.2759 -0.9611
vn -0.3034 0.2391 -0.9224
vn 0.0700 0.3980 0.9147
vn 0.4049 -0.6616 -0.6311
vn -0.5288 0.1988 0.8251
vn -0.5084 -0.3999 -0.7626
vn 0.7750 0.2489 0.5809
vn 0.5912 -0.8046 0.0564
vn 0.0481 -0.9494 -0.3103
vn 0.5016 0.5770 0.6446
vn -0.5272 0.8497 -0.0080
vn -0.1847 -0.7049 -0.6848
vn 0.3311 -0.8665 -0.3735
vn -0.7072 0.4447 -0.5496
vn 0.8290 -0.4371 0.3488
vn 0.7966 -0.1982 -0.5711
vn 0.8278 0.2140 0.5185
vn -0.6606 -0.1951 -0.7250
vn 0.9357 -0.0613 0.3474
vn 0.9164 0.1009 0.3873
vn 0.2406 -0.8388 -0.4885
vn -0.1442 -0.1924 -0.9707
vn 0.6390 0.2373 0.7317
vn -0.8723 0.4357 -0.2218
vn -0.8337 0.1241 -0.5381
vn 0.7486 -0.0045 0.6630
vn -0.7465 -0.1050 -0.6570
vn 0.8663 -0.0775 0.4935
vn 0.9108 -0.1468 0.3859
vn 0.5717 -0.4945 -0.6547
vn -0.3279 -0.2548 -0.9097
vn 0.6346 0.0687 0.7698
vn -0.9308 0.1482 -0.3342
vn -0.8301 0.0469 -0.5557
vn 0.6938 -0.4341 -0.5746
vn -0.7901 -0.0897 -0.6064
vn 0.8839 0.0089 0.4675
vn 0.9176 -0.0294 0.3963
vn 0.6807 -0.4120 -0.6058
vn -0.1066 -0.3758 -0.9206
vn 0.6737 0.1646 0.7205
vn -0.9456 0.0696 -0.3177
vn -0.8449 -0.0458 -0.5329
vn 0.6729 -0.4135 -0.6134
vn 0.7949 0.0860 0.6005
vn -0.6722 -0.5508 0.4948
vn -0.0116 -0.6176 0.7864
vn -0.7894 -0.5784 0.2057
vn -0.5333 -0.7610 0.3695
vn 0.3594 0.0861 0.9292
vn -0.8776 -0.2395 -0.4154
vn -0.4266 -0.4256 0.7981
vn 0.7399 0.5451 0.3942
vn -0.6173 -0.7473 0.2461
vn -0.6750 0.1157 -0.7287
vn -0.2802 -0.4070 0.8694
vn -0.7820 -0.5129 0.3542
vn -0.8714 -0.4511 0.1925
vn 0.3631 0.0189 0.9316
vn -0.6696 -0.5085 0.5414
vn -0.8329 -0.2397 -0.4989
vn -0.3622 -0.3267 0.8729
vn 0.8635 0.3643 0.3487
vn -0.6402 -0.0706 -0.7649
vn -0.6401 -0.4536 0.6201
vn -0.8818 -0.3144 0.3515
vn -0.9589 0.0359 0.2814
vn 0.2992 0.0448 0.9531
vn -0.6751 -0.3470 0.6510
vn -0.8512 0.1246 -0.5099
vn -0.2797 -0.0493 0.9588
vn 0.9014 0.2668 0.3411
vn -0.6680 0.1971 -0.7176
vn -0.7669 -0.0116 0.6416
vn -0.2968 -0.3762 0.8777
vn -0.9366 -0.0013 0.3505
vn 0.2289 0.2890 0.9295
vn -0.6549 -0.1110 0.7475
vn -0.8536 -0.0999 -0.5113
vn -0.2740 0.2080 0.9390
vn 0.8810 0.3228 0.3459
vn -0.6349 -0.0965 -0.7665
vn -0.8221 0.0522 0.5669
vn -0.4380 -0.0501 0.8976
vn -0.9278 -0.2337 0.2909
vn -0.1117 0.1209 -0.9864
vn -0.5519 0.0673 -0.8312
vn -0.9865 -0.0320 -0.1604
vn -0.8077 -0.0166 -0.5893
vn -0.9668 -0.0422 0.2521
vn -0.5574 -0.0994 0.8242
vn -0.8374 -0.0577 0.5436
vn 0.6774 0.0934 0.7297
vn 0.2511 0.0703 0.9654
vn -0.2802 -0.0599 0.9581
vn 0.9302 0.0896 0.3560
vn 0.6730 0.1240 0.7292
vn 0.9714 0.2374 0.0025
vn 0.8288 0.3322 -0.4502
vn 0.4477 0.3267 -0.8324
vn 0.2003 0.2372 -0.9506
vn 0.3095 0.8303 0.4634
vn 0.3068 0.8307 0.4646
vn -0.2823 0.8064 -0.5197
vn -0.2928 0.8062 -0.5141
vn -0.1446 0.9879 0.0569
vn -0.2337 0.9687 0.0832
vn 0.4357 -0.8276 -0.3538
vn -0.4827 -0.8252 0.2934
vn 0.4353 0.8831 -0.1748
vn 0.4089 0.9104 -0.0634
vn 0.5500 0.8300 -0.0926
vn 0.5344 0.8432 -0.0588
vn 0.1479 -0.3663 -0.9186
vn 0.2997 -0.8848 -0.3568
vn 0.3037 -0.8773 0.3716
vn 0.1188 -0.3517 0.9286
vn -0.0977 0.3654 0.9257
vn -0.2483 0.8950 0.3706
vn 0.3724 -0.8554 0.3601
vn -0.2396 0.8985 -0.3679
vn -0.0686 0.3824 -0.9214
vn 0.6459 -0.5434 0.5363
vn -0.3336 0.8754 -0.3497
vn -0.3895 0.8490 0.3571
vn 0.0794 -0.3467 0.9346
vn -0.3210 0.8800 -0.3501
vn 0.4439 -0.8376 -0.3183
vn -0.2174 0.3186 0.9226
vn -0.0381 0.3944 -0.9182
vn 0.2846 -0.3303 -0.9000
vn 0.3056 -0.8959 -0.3225
vn -0.1999 0.3251 0.9243
vn 0.4326 -0.8276 0.3578
vn 0.3183 -0.3169 -0.8934
vn -0.0336 0.3956 -0.9178
vn -0.3970 0.8456 0.3568
vn 0.1287 -0.3362 0.9330
vn 0.4981 -0.8087 -0.3128
vn 0.1857 0.3895 -0.9021
vn -0.0122 0.9381 -0.3461
vn -0.0338 0.3761 0.9260
vn 0.2128 -0.9085 0.3596
vn 0.2859 -0.3440 -0.8944
vn 0.1375 0.4201 -0.8970
vn -0.0720 0.9332 0.3521
vn 0.0677 -0.3509 0.9340
vn -0.0104 -0.9327 0.3606
vn 0.2122 0.9153 0.3425
vn -0.1005 -0.3503 0.9312
vn -0.1923 -0.9270 -0.3222
vn 0.2446 0.9082 -0.3396
vn 0.0805 0.3776 0.9225
vn -0.2342 -0.9100 0.3421
vn 0.0084 -0.4073 -0.9132
vn -0.1558 0.9255 -0.3451
vn 0.1596 -0.4061 -0.8998
vn 0.2497 0.3686 -0.8955
vn 0.2124 0.9124 0.3500
vn 0.0135 -0.3605 0.9327
vn 0.0488 -0.9448 -0.3241
vn 0.2706 0.8990 -0.3443
vn 0.0988 0.3696 0.9239
vn -0.1491 0.3854 -0.9106
vn -0.1419 0.3661 0.9197
vn 0.1538 -0.9207 0.3587
vn 0.1475 -0.4007 -0.9043
vn -0.0067 0.3897 -0.9209
vn -0.2063 0.9124 0.3534
vn -0.0008 -0.3569 0.9341
vn 0.2062 -0.9260 -0.3162
vn 0.0014 -0.9328 0.3605
vn 0.0121 0.9337 0.3579
vn 0.1494 -0.3655 0.9187
vn -0.0072 -0.9448 -0.3275
vn -0.0907 0.9328 -0.3487
vn 0.1180 0.3728 0.9204
vn 0.0922 -0.9282 0.3604
vn -0.1149 -0.4032 -0.9079
vn -0.6104 0.7914 -0.0327
vn 0.0411 -0.4051 -0.9134
vn 0.0286 0.3895 -0.9206
vn -0.0286 0.9331 0.3584
vn -0.0297 -0.3543 0.9346
vn 0.0276 -0.9447 -0.3267
vn -0.0018 0.9363 -0.3512
vn -0.0411 0.3717 0.9274
vn 0.9990 -0.0339 -0.0280
vn -0.0404 0.4768 0.8781
vn 0.0958 -0.9440 0.3158
vn -0.3998 -0.4172 -0.8161
vn -0.6754 0.3026 -0.6725
vn -0.3824 0.8577 0.3437
vn 0.1105 -0.2782 0.9541
vn -0.0013 -0.9336 -0.3583
vn 0.0805 -0.9332 -0.3501
vn 0.3185 0.3182 -0.8929
vn 0.2400 0.6770 -0.6957
vn 0.0274 0.5404 0.8409
vn 0.0031 -0.9740 0.2264
vn 0.2586 0.5084 -0.8214
vn 0.2961 0.7587 -0.5803
vn -0.0608 -0.2780 0.9586
vn 0.0260 0.5501 0.8347
vn 0.0232 -0.9903 0.1370
vn 0.2841 0.6096 -0.7401
vn 0.2891 0.7048 -0.6479
vn -0.1210 -0.3808 0.9167
vn 0.0719 -0.9558 -0.2851
vn 0.3573 0.1065 -0.9279
vn 0.2838 0.5636 -0.7758
vn 0.5370 0.5381 -0.6497
vn 0.5041 0.6377 -0.5824
vn -0.4060 -0.3791 0.8315
vn -0.1307 -0.9723 -0.1938
vn 0.4123 -0.3280 -0.8499
vn 0.5598 0.4781 -0.6768
vn -0.1119 0.5612 0.8201
vn -0.2509 -0.9651 0.0751
vn 0.6938 -0.6006 -0.3974
vn 0.9627 -0.2328 0.1379
vn 0.2503 -0.9413 -0.2263
vn -0.1649 -0.4334 -0.8860
vn 0.9078 -0.0006 0.4195
vn -0.8906 0.2463 -0.3824
vn 0.8896 -0.1010 0.4454
vn -0.0547 0.9568 0.2856
vn 0.8725 -0.2231 0.4346
vn 0.8700 -0.1799 0.4591
vn 0.1903 -0.9207 -0.3408
vn -0.2782 -0.4916 -0.8252
vn 0.6976 -0.7118 0.0820
vn 0.8619 -0.4149 0.2915
vn -0.7584 0.3798 -0.5297
vn -0.1229 0.9138 0.3872
vn -0.1096 0.9234 0.3677
vn 0.6569 -0.3459 0.6700
vn 0.6574 -0.3607 0.6616
vn 0.1537 -0.9368 -0.3143
vn -0.2547 -0.5384 -0.8033
vn 0.5510 -0.8345 0.0011
vn 0.6340 -0.6250 0.4555
vn -0.6151 0.4171 -0.6690
vn 0.1098 0.3730 -0.9213
vn 0.5275 0.7605 -0.3786
vn 0.5652 0.7335 0.3776
vn 0.2101 0.3244 0.9223
vn -0.3165 -0.2529 0.9142
vn -0.6784 -0.6356 0.3685
vn 0.2505 0.2894 0.9238
vn -0.7017 -0.6116 -0.3654
vn -0.3849 -0.1899 -0.9032
vn 0.9085 -0.4179 -0.0000
vn -0.3341 -0.2027 0.9205
vn -0.7198 -0.5817 -0.3788
vn 0.6570 0.6498 -0.3822
vn -0.3219 -0.2225 0.9202
vn -0.3037 -0.2178 -0.9275
vn 0.2448 0.2728 -0.9304
vn 0.6561 0.6507 0.3822
vn -0.7207 -0.5807 0.3788
vn -0.7957 -0.4707 -0.3812
vn 0.7195 0.5809 0.3806
vn 0.2722 0.2652 -0.9250
vn -0.3376 -0.1926 -0.9214
vn -0.7613 -0.5268 0.3781
vn 0.2831 0.2594 0.9233
vn 0.7158 0.5854 -0.3808
vn -0.7640 -0.5230 -0.3778
vn -0.8417 -0.3817 -0.3820
vn -0.3440 -0.1744 0.9226
vn 0.7539 0.5352 0.3811
vn 0.2581 0.2349 -0.9371
vn -0.3188 -0.1407 -0.9373
vn -0.7967 -0.4690 0.3812
vn 0.2999 0.2428 0.9225
vn 0.7553 0.5331 -0.3811
vn -0.3424 0.9396 -0.0000
vn -0.2595 -0.0097 0.9657
vn 0.8407 0.3838 0.3819
vn 0.1542 0.1557 -0.9757
vn -0.2143 -0.0199 -0.9766
vn -0.8404 -0.3845 0.3819
vn 0.1755 0.1990 0.9641
vn 0.8392 0.3872 -0.3819
vn 0.0160 -0.0501 -0.9986
vn 0.7367 -0.6420 -0.2121
vn -0.0779 0.0518 -0.9956
vn -0.7719 0.5974 -0.2174
vn 0.7475 -0.6283 0.2155
vn -0.7649 0.6079 0.2130
vn 0.8112 -0.5363 0.2331
vn -0.0097 0.1870 -0.9823
vn -0.6984 0.7156 -0.0084
vn 0.8181 -0.5256 -0.2333
vn -0.0291 -0.0991 -0.9947
vn -0.6975 0.7163 0.0203
vn 0.7863 -0.5787 -0.2164
vn 0.0326 -0.0188 -0.9993
vn -0.7559 0.6546 0.0154
vn 0.7851 -0.5804 0.2163
vn -0.0916 0.0812 -0.9925
vn -0.7484 0.6630 -0.0176
vn -0.4648 -0.8158 0.3440
vn 0.4670 0.8259 0.3160
vn 0.1727 0.8839 -0.4347
vn -0.1679 0.0758 0.9829
vn 0.1124 -0.1257 0.9857
vn 0.2009 0.9214 0.3326
vn 0.1136 -0.0408 0.9927
vn 0.1279 0.9307 -0.3426
vn -0.2806 -0.8959 0.3443
vn -0.0990 -0.0439 0.9941
vn 0.1310 0.9603 0.2464
vn 0.2909 0.9109 0.2928
vn -0.0474 -0.1043 0.9934
vn 0.1184 0.9760 0.1827
vn 0.1518 0.9524 0.2643
vn 0.0258 0.0624 0.9977
vn 0.1175 0.9506 -0.2873
vn -0.1552 -0.9391 0.3068
vn -0.0174 0.0742 0.9971
vn 0.1302 0.9464 -0.2956
vn -0.1562 -0.9471 0.2803
vn -0.0401 -0.1060 0.9936
vn 0.1154 0.9731 0.1995
vn 0.1455 0.9603 0.2379
vn 0.3912 0.9125 0.1195
vn 0.5529 0.7558 0.3509
vn 0.0972 0.0312 0.9948
vn 0.4292 0.8871 -0.1699
vn -0.5370 -0.7432 0.3990
vn -0.1057 -0.0656 0.9922
vn 0.5886 0.8050 -0.0744
vn -0.5994 -0.7025 0.3837
vn -0.0871 -0.0570 0.9946
vn 0.5838 0.8085 0.0743
vn 0.6133 0.7147 0.3361
vn 0.0830 0.0294 0.9961
vn -0.0586 -0.0215 0.9981
vn 0.6903 0.7191 0.0799
vn 0.6800 0.6563 0.3269
vn 0.0648 -0.0173 0.9977
vn 0.6887 0.7207 -0.0792
vn -0.6610 -0.6523 0.3709
vn 0.6518 -0.4134 0.6358
vn 0.6973 -0.3546 0.6229
vn 0.7710 -0.4242 0.4750
vn 0.5709 0.6505 -0.5009
vn 0.6374 0.4283 -0.6405
vn 0.5038 0.7311 -0.4601
vn -0.1648 0.1599 -0.9733
vn 0.0155 0.2482 -0.9686
vn -0.1285 0.1094 0.9857
vn 0.0281 0.1660 0.9857
vn 0.7021 -0.6950 0.1548
vn -0.6770 0.7030 0.2178
vn 0.2018 0.9794 -0.0012
vn 0.1719 0.9840 -0.0471
vt 1.000000 0.500000
vt 1.000000 1.000000
vt 0.937500 1.000000
vt 0.937500 0.500000
vt 0.875000 1.000000
vt 0.875000 0.500000
vt 0.812500 1.000000
vt 0.812500 0.500000
vt 0.750000 1.000000
vt 0.750000 0.500000
vt 0.687500 1.000000
vt 0.687500 0.500000
vt 0.625000 1.000000
vt 0.625000 0.500000
vt 0.562500 1.000000
vt 0.562500 0.500000
vt 0.500000 1.000000
vt 0.500000 0.500000
vt 0.437500 1.000000
vt 0.437500 0.500000
vt 0.375000 1.000000
vt 0.375000 0.500000
vt 0.312500 1.000000
vt 0.312500 0.500000
vt 0.250000 1.000000
vt 0.250000 0.500000
vt 0.187500 1.000000
vt 0.187500 0.500000
vt 0.125000 1.000000
vt 0.125000 0.500000
vt 0.166297 0.457630
vt 0.084523 0.410969
vt 0.062500 1.000000
vt 0.062500 0.500000
vt 0.000000 1.000000
vt 0.000000 0.500000
vt 0.262612 0.476880
vt 0.329622 0.466269
vt 0.341844 0.471731
vt 0.250000 0.490000
vt 0.407810 0.410558
vt 0.419706 0.419706
vt 0.457887 0.335151
vt 0.471731 0.341844
vt 0.474712 0.246145
vt 0.490000 0.250000
vt 0.463131 0.158170
vt 0.471731 0.158156
vt 0.414971 0.097321
vt 0.419706 0.080294
vt 0.340306 0.045497
vt 0.341844 0.028269
vt 0.250851 0.027507
vt 0.250000 0.010000
vt 0.162272 0.045202
vt 0.158156 0.028269
vt 0.077396 0.103501
vt 0.080294 0.080294
vt 0.044211 0.149201
vt 0.028269 0.158156
vt 0.026768 0.255035
vt 0.010000 0.250000
vt 0.040264 0.339025
vt 0.028269 0.341844
vt 0.080294 0.419706
vt 0.158156 0.471731
vt 0.320843 0.453724
vt 0.266053 0.464076
vt 0.395951 0.402785
vt 0.444639 0.329814
vt 0.459770 0.244723
vt 0.444326 0.159747
vt 0.403613 0.111444
vt 0.338464 0.060194
vt 0.252218 0.044367
vt 0.166364 0.060801
vt 0.085236 0.114719
vt 0.060964 0.151108
vt 0.040112 0.257495
vt 0.052407 0.333586
vt 0.093471 0.401115
vt 0.171490 0.445194
vt 0.447528 0.242633
vt 0.433159 0.326538
vt 0.265352 0.452604
vt 0.316600 0.439482
vt 0.386418 0.396646
vt 0.429367 0.165555
vt 0.390265 0.120374
vt 0.336440 0.075975
vt 0.253254 0.058455
vt 0.169145 0.073219
vt 0.094992 0.123808
vt 0.073468 0.155929
vt 0.052662 0.260073
vt 0.061906 0.327273
vt 0.103035 0.392539
vt 0.175995 0.435336
vt 0.436348 0.240934
vt 0.423976 0.324188
vt 0.264791 0.442532
vt 0.313178 0.428438
vt 0.378405 0.390664
vt 0.416235 0.170881
vt 0.380198 0.128105
vt 0.332745 0.088140
vt 0.255739 0.070320
vt 0.169181 0.087414
vt 0.106908 0.130203
vt 0.085378 0.161246
vt 0.063953 0.261094
vt 0.071469 0.323135
vt 0.111579 0.384495
vt 0.179879 0.426214
vt 0.000000 0.000000
vt 0.265650 0.431501
vt 0.182222 0.417580
vt 0.081210 0.319393
vt 0.119844 0.377678
vt 0.115798 0.136479
vt 0.095144 0.165544
vt 0.328235 0.097122
vt 0.257609 0.079968
vt 0.425858 0.239105
vt 0.406817 0.175428
vt 0.415901 0.322205
vt 0.311492 0.420437
vt 0.371670 0.385580
vt 0.073110 0.260995
vt 0.170244 0.099168
vt 0.373257 0.135913
vt 0.993886 1.000000
vt -0.004040 1.000025
vt 0.258301 0.486562
vt 0.750000 0.490000
vt 0.919706 0.419706
vt 0.990000 0.250000
vt 0.919706 0.080294
vt 0.750000 0.010000
vt 0.580294 0.080294
vt 0.510000 0.250000
vt 0.580294 0.419706
s 0
f 1/1/1 34/2/1 33/3/1 3/4/1
f 3/4/2 33/3/2 35/5/2 5/6/2
f 5/6/3 35/5/3 36/7/3 7/8/3
f 7/8/4 36/7/4 37/9/4 9/10/4
f 9/10/5 37/9/5 38/11/5 11/12/5
f 11/12/6 38/11/6 39/13/6 13/14/6
f 13/14/7 39/13/7 40/15/7 15/16/7
f 15/16/8 40/15/8 41/17/8 17/18/8
f 17/18/9 41/17/9 42/19/9 19/20/9
f 19/20/10 42/19/10 43/21/10 21/22/10
f 21/22/11 43/21/11 44/23/11 23/24/11
f 23/24/12 44/23/12 45/25/12 25/26/12
f 25/26/13 45/25/13 46/27/13 27/28/13
f 27/28/14 46/27/14 47/29/14 29/30/14
f 32/31/15 30/32/15 79/32/15 80/31/15
f 29/30/16 47/29/16 48/33/16 31/34/16
f 31/34/17 48/33/17 34/35/17 1/36/17
f 2/37/18 4/38/18 33/39/18 34/40/18
f 4/38/18 6/41/18 35/42/18 33/39/18
f 6/41/18 8/43/18 36/44/18 35/42/18
f 8/43/18 10/45/18 37/46/18 36/44/18
f 10/45/18 12/47/18 38/48/18 37/46/18
f 12/47/18 14/49/18 39/50/18 38/48/18
f 14/49/18 16/51/18 40/52/18 39/50/18
f 16/51/18 18/53/18 41/54/18 40/52/18
f 18/53/18 20/55/18 42/56/18 41/54/18
f 20/55/18 22/57/18 43/58/18 42/56/18
f 22/57/18 24/59/18 44/60/18 43/58/18
f 24/59/18 26/61/18 45/62/18 44/60/18
f 26/61/18 28/63/18 46/64/18 45/62/18
f 28/63/18 30/32/18 47/65/18 46/64/18
f 30/32/18 32/31/18 48/66/18 47/65/18
f 32/31/18 2/37/18 34/40/18 48/66/18
f 49/67/19 50/68/19 98/68/19 97/67/19
f 18/53/20 16/51/20 72/51/20 73/53/20
f 4/38/21 2/37/21 66/37/21 65/38/21
f 2/37/22 32/31/22 80/31/22 66/37/22
f 20/55/23 18/53/23 73/53/23 74/55/23
f 6/41/24 4/38/24 65/38/24 67/41/24
f 22/57/25 20/55/25 74/55/25 75/57/25
f 8/43/26 6/41/26 67/41/26 68/43/26
f 24/59/27 22/57/27 75/57/27 76/59/27
f 10/45/28 8/43/28 68/43/28 69/45/28
f 26/61/29 24/59/29 76/59/29 77/61/29
f 12/47/30 10/45/30 69/45/30 70/47/30
f 28/63/31 26/61/31 77/61/31 78/63/31
f 14/49/32 12/47/32 70/47/32 71/49/32
f 30/32/33 28/63/33 78/63/33 79/32/33
f 16/51/34 14/49/34 71/49/34 72/51/34
f 50/68/18 49/67/18 65/38/18 66/37/18
f 49/67/18 51/69/18 67/41/18 65/38/18
f 51/69/18 52/70/18 68/43/18 67/41/18
f 52/70/18 53/71/18 69/45/18 68/43/18
f 53/71/18 54/72/18 70/47/18 69/45/18
f 54/72/18 55/73/18 71/49/18 70/47/18
f 55/73/18 56/74/18 72/51/18 71/49/18
f 56/74/18 57/75/18 73/53/18 72/51/18
f 57/75/18 58/76/18 74/55/18 73/53/18
f 58/76/18 59/77/18 75/57/18 74/55/18
f 59/77/18 60/78/18 76/59/18 75/57/18
f 60/78/18 61/79/18 77/61/18 76/59/18
f 61/79/18 62/80/18 78/63/18 77/61/18
f 62/80/18 63/81/18 79/32/18 78/63/18
f 63/81/18 64/82/18 80/31/18 79/32/18
f 64/82/18 50/68/18 66/37/18 80/31/18
f 85/83/35 84/84/35 132/84/35 133/83/35
f 50/68/36 64/82/36 112/82/36 98/68/36
f 58/76/37 57/75/37 105/75/37 106/76/37
f 51/69/38 49/67/38 97/67/38 99/69/38
f 59/77/39 58/76/39 106/76/39 107/77/39
f 52/70/40 51/69/40 99/69/40 100/70/40
f 60/78/41 59/77/41 107/77/41 108/78/41
f 53/71/42 52/70/42 100/70/42 101/71/42
f 61/79/43 60/78/43 108/78/43 109/79/43
f 54/72/44 53/71/44 101/71/44 102/72/44
f 62/80/45 61/79/45 109/79/45 110/80/45
f 55/73/46 54/72/46 102/72/46 103/73/46
f 63/81/47 62/80/47 110/80/47 111/81/47
f 56/74/48 55/73/48 103/73/48 104/74/48
f 64/82/49 63/81/49 111/81/49 112/82/49
f 57/75/50 56/74/50 104/74/50 105/75/50
f 82/85/18 81/86/18 97/67/18 98/68/18
f 81/86/18 83/87/18 99/69/18 97/67/18
f 83/87/18 84/84/18 100/70/18 99/69/18
f 84/84/18 85/83/18 101/71/18 100/70/18
f 85/83/18 86/88/18 102/72/18 101/71/18
f 86/88/18 87/89/18 103/73/18 102/72/18
f 87/89/18 88/90/18 104/74/18 103/73/18
f 88/90/18 89/91/18 105/75/18 104/74/18
f 89/91/18 90/92/18 106/76/18 105/75/18
f 90/92/18 91/93/18 107/77/18 106/76/18
f 91/93/18 92/94/18 108/78/18 107/77/18
f 92/94/18 93/95/18 109/79/18 108/78/18
f 93/95/18 94/96/18 110/80/18 109/79/18
f 94/96/18 95/97/18 111/81/18 110/80/18
f 95/97/18 96/98/18 112/82/18 111/81/18
f 96/98/18 82/85/18 98/68/18 112/82/18
f 117/99/51 116/100/51 316/100/51 315/99/51
f 93/95/52 92/94/52 140/94/52 141/95/52
f 86/88/53 85/83/53 133/83/53 134/88/53
f 94/96/54 93/95/54 141/95/54 142/96/54
f 87/89/55 86/88/55 134/88/55 135/89/55
f 95/97/56 94/96/56 142/96/56 143/97/56
f 88/90/57 87/89/57 135/89/57 136/90/57
f 96/98/58 95/97/58 143/97/58 144/98/58
f 89/91/59 88/90/59 136/90/59 137/91/59
f 81/86/60 82/85/60 130/85/60 129/86/60
f 82/85/61 96/98/61 144/98/61 130/85/61
f 90/92/62 89/91/62 137/91/62 138/92/62
f 83/87/63 81/86/63 129/86/63 131/87/63
f 91/93/64 90/92/64 138/92/64 139/93/64
f 84/84/65 83/87/65 131/87/65 132/84/65
f 92/94/66 91/93/66 139/93/66 140/94/66
f 114/101/18 113/102/18 129/86/18 130/85/18
f 113/102/18 115/103/18 131/87/18 129/86/18
f 115/103/18 116/100/18 132/84/18 131/87/18
f 116/100/18 117/99/18 133/83/18 132/84/18
f 117/99/18 118/104/18 134/88/18 133/83/18
f 118/104/18 119/105/18 135/89/18 134/88/18
f 119/105/18 120/106/18 136/90/18 135/89/18
f 120/106/18 121/107/18 137/91/18 136/90/18
f 121/107/18 122/108/18 138/92/18 137/91/18
f 122/108/18 123/109/18 139/93/18 138/92/18
f 123/109/18 124/110/18 140/94/18 139/93/18
f 124/110/18 125/111/18 141/95/18 140/94/18
f 125/111/18 126/112/18 142/96/18 141/95/18
f 126/112/18 127/113/18 143/97/18 142/96/18
f 127/113/18 128/114/18 144/98/18 143/97/18
f 128/114/18 114/101/18 130/85/18 144/98/18
f 116/100/67 115/103/67 317/103/67 316/100/67
f 115/103/68 113/102/68 318/102/68 317/103/68
f 114/101/69 128/114/69 320/114/69 319/101/69
f 121/107/70 120/106/70 313/106/70 312/107/70
f 120/106/71 119/105/71 323/105/71 313/106/71
f 119/105/72 118/104/72 314/104/72 323/105/72
f 118/104/73 117/99/73 315/99/73 314/104/73
f 175/113/74 174/112/74 190/112/74 191/113/74
f 127/113/75 126/112/75 309/112/75 308/113/75
f 126/112/76 125/111/76 321/111/76 309/112/76
f 125/111/77 124/110/77 310/110/77 321/111/77
f 124/110/78 123/109/78 311/109/78 310/110/78
f 123/109/79 122/108/79 322/108/79 311/109/79
f 122/108/80 121/107/80 312/107/80 322/108/80
f 113/102/81 114/101/81 319/101/81 318/102/81
f 128/114/82 127/113/82 308/113/82 320/114/82
f 181/99/83 180/100/83 196/100/83 197/99/83
f 168/106/84 167/105/84 183/105/84 184/106/84
f 176/114/85 175/113/85 191/113/85 192/114/85
f 169/107/86 168/106/86 184/106/86 185/107/86
f 161/102/87 162/101/87 178/101/87 177/102/87
f 162/101/88 176/114/88 192/114/88 178/101/88
f 170/108/89 169/107/89 185/107/89 186/108/89
f 163/103/90 161/102/90 177/102/90 179/103/90
f 171/109/91 170/108/91 186/108/91 187/109/91
f 164/100/92 163/103/92 179/103/92 180/100/92
f 172/110/93 171/109/93 187/109/93 188/110/93
f 165/99/94 164/100/94 180/100/94 181/99/94
f 173/111/95 172/110/95 188/110/95 189/111/95
f 166/104/96 165/99/96 181/99/96 182/104/96
f 174/112/97 173/111/97 189/111/97 190/112/97
f 167/105/98 166/104/98 182/104/98 183/105/98
f 196/100/99 195/103/99 211/103/99 212/100/99
f 189/111/100 188/110/100 204/110/100 205/111/100
f 182/104/101 181/99/101 197/99/101 198/104/101
f 190/112/102 189/111/102 205/111/102 206/112/102
f 183/105/103 182/104/103 198/104/103 199/105/103
f 191/113/104 190/112/104 206/112/104 207/113/104
f 184/106/105 183/105/105 199/105/105 200/106/105
f 192/114/106 191/113/106 207/113/106 208/114/106
f 185/107/107 184/106/107 200/106/107 201/107/107
f 177/102/108 178/101/108 194/101/108 193/102/108
f 178/101/109 192/114/109 208/114/109 194/101/109
f 186/108/110 185/107/110 201/107/110 202/108/110
f 179/103/111 177/102/111 193/102/111 195/103/111
f 187/109/112 186/108/112 202/108/112 203/109/112
f 180/100/113 179/103/113 195/103/113 196/100/113
f 188/110/114 187/109/114 203/109/114 204/110/114
f 209/102/115 210/101/115 224/114/115 223/113/115 222/112/115 221/111/115 220/110/115 219/109/115 218/108/115 217/107/115 216/106/115 215/105/115 214/104/115 213/99/115 212/100/115 211/103/115
f 204/110/116 203/109/116 219/109/116 220/110/116
f 197/99/117 196/100/117 212/100/117 213/99/117
f 205/111/118 204/110/118 220/110/118 221/111/118
f 198/104/119 197/99/119 213/99/119 214/104/119
f 206/112/120 205/111/120 221/111/120 222/112/120
f 199/105/121 198/104/121 214/104/121 215/105/121
f 207/113/122 206/112/122 222/112/122 223/113/122
f 200/106/123 199/105/123 215/105/123 216/106/123
f 208/114/124 207/113/124 223/113/124 224/114/124
f 201/107/125 200/106/125 216/106/125 217/107/125
f 193/102/126 194/101/126 210/101/126 209/102/126
f 194/101/127 208/114/127 224/114/127 210/101/127
f 202/108/128 201/107/128 217/107/128 218/108/128
f 195/103/129 193/102/129 209/102/129 211/103/129
f 203/109/130 202/108/130 218/108/130 219/109/130
f 209/102/131 210/101/131 229/101/131 228/102/131
f 214/104/132 213/99/132 232/99/132 233/104/132
f 225/115/133 227/115/133 237/115/133 235/115/133
f 211/103/134 209/102/134 228/102/134 230/103/134
f 215/105/135 214/104/135 233/104/135 234/105/135
f 211/103/136 212/100/136 231/100/136 230/103/136
f 215/115/137 226/115/137 236/115/137 234/115/137
f 226/115/138 225/115/138 235/115/138 236/115/138
f 210/115/139 227/115/139 237/115/139 229/115/139
f 213/99/140 212/100/140 231/100/140 232/99/140
f 236/115/141 235/115/141 245/115/141 246/115/141
f 232/99/142 231/100/142 241/100/142 242/99/142
f 228/102/143 229/101/143 239/101/143 238/102/143
f 235/115/144 237/115/144 247/115/144 245/115/144
f 233/104/145 232/99/145 242/99/145 243/104/145
f 230/103/146 228/102/146 238/102/146 240/103/146
f 234/115/147 236/115/147 246/115/147 244/115/147
f 234/105/148 233/104/148 243/104/148 244/105/148
f 230/103/149 231/100/149 241/100/149 240/103/149
f 229/115/150 237/115/150 247/115/150 239/115/150
f 242/99/151 241/100/151 251/100/151 252/99/151
f 238/102/152 239/101/152 249/101/152 248/102/152
f 245/115/153 247/115/153 257/115/153 255/115/153
f 243/104/154 242/99/154 252/99/154 253/104/154
f 240/103/155 238/102/155 248/102/155 250/103/155
f 244/115/156 246/115/156 256/115/156 254/115/156
f 244/105/157 243/104/157 253/104/157 254/105/157
f 240/103/158 241/100/158 251/100/158 250/103/158
f 239/115/159 247/115/159 257/115/159 249/115/159
f 246/115/160 245/115/160 255/115/160 256/115/160
f 248/102/161 249/101/161 259/101/161 258/102/161
f 255/115/162 257/115/162 267/115/162 265/115/162
f 253/104/163 252/99/163 262/99/163 263/104/163
f 250/103/164 248/102/164 258/102/164 260/103/164
f 254/115/165 256/115/165 266/115/165 264/115/165
f 254/105/166 253/104/166 263/104/166 264/105/166
f 250/103/167 251/100/167 261/100/167 260/103/167
f 249/115/168 257/115/168 267/115/168 259/115/168
f 256/115/169 255/115/169 265/115/169 266/115/169
f 252/99/170 251/100/170 261/100/170 262/99/170
f 220/110/171 219/109/171 270/109/171 271/110/171
f 223/115/172 227/115/172 277/115/172 274/115/172
f 221/111/173 220/110/173 271/110/173 272/111/173
f 227/115/174 225/115/174 275/115/174 277/115/174
f 218/108/175 217/107/175 268/107/175 269/108/175
f 222/112/176 221/111/176 272/111/176 273/112/176
f 219/109/177 218/108/177 269/108/177 270/109/177
f 217/115/178 226/115/178 276/115/178 268/115/178
f 225/115/179 226/115/179 276/115/179 275/115/179
f 223/113/180 222/112/180 273/112/180 274/113/180
f 274/115/181 277/115/181 287/115/181 284/115/181
f 275/115/182 276/115/182 286/115/182 285/115/182
f 272/111/183 271/110/183 281/110/183 282/111/183
f 269/108/184 268/107/184 278/107/184 279/108/184
f 277/115/185 275/115/185 285/115/185 287/115/185
f 273/112/186 272/111/186 282/111/186 283/112/186
f 270/109/187 269/108/187 279/108/187 280/109/187
f 268/115/188 276/115/188 286/115/188 278/115/188
f 274/113/189 273/112/189 283/112/189 284/113/189
f 271/110/190 270/109/190 280/109/190 281/110/190
f 285/115/191 286/115/191 296/115/191 295/115/191
f 282/111/192 281/110/192 291/110/192 292/111/192
f 279/108/193 278/107/193 288/107/193 289/108/193
f 287/115/194 285/115/194 295/115/194 297/115/194
f 283/112/195 282/111/195 292/111/195 293/112/195
f 280/109/196 279/108/196 289/108/196 290/109/196
f 278/115/197 286/115/197 296/115/197 288/115/197
f 284/113/198 283/112/198 293/112/198 294/113/198
f 281/110/199 280/109/199 290/109/199 291/110/199
f 284/115/200 287/115/200 297/115/200 294/115/200
f 292/111/201 291/110/201 301/110/201 302/111/201
f 289/108/202 288/107/202 298/107/202 299/108/202
f 297/115/203 295/115/203 305/115/203 307/115/203
f 293/112/204 292/111/204 302/111/204 303/112/204
f 290/109/205 289/108/205 299/108/205 300/109/205
f 288/115/206 296/115/206 306/115/206 298/115/206
f 294/113/207 293/112/207 303/112/207 304/113/207
f 291/110/208 290/109/208 300/109/208 301/110/208
f 294/115/209 297/115/209 307/115/209 304/115/209
f 295/115/210 296/115/210 306/115/210 305/115/210
f 159/116/211 145/117/211 176/117/211 162/116/211
f 147/118/18 146/119/18 308/113/18 309/112/18
f 150/120/18 149/121/18 310/110/18 311/109/18
f 153/122/18 152/123/18 312/107/18 313/106/18
f 156/124/18 155/125/18 314/104/18 315/99/18
f 157/126/18 156/124/18 315/99/18 316/100/18
f 160/127/18 158/128/18 317/103/18 318/102/18
f 145/117/18 159/116/18 319/101/18 320/114/18
f 148/129/18 147/118/18 309/112/18 321/111/18
f 151/130/18 150/120/18 311/109/18 322/108/18
f 154/131/18 153/122/18 313/106/18 323/105/18
f 152/123/18 151/130/18 322/108/18 312/107/18
f 155/125/18 154/131/18 323/105/18 314/104/18
f 158/128/18 157/126/18 316/100/18 317/103/18
f 159/116/18 160/127/18 318/102/18 319/101/18
f 146/119/18 145/117/18 320/114/18 308/113/18
f 149/121/18 148/129/18 321/111/18 310/110/18
f 175/119/18 174/118/18 173/129/18 172/121/18 171/120/18 170/130/18 169/123/18 168/122/18 167/131/18 166/125/18 165/124/18 164/126/18 163/128/18 161/127/18 162/116/18 176/117/18
f 145/117/212 146/119/212 175/119/212 176/117/212
f 147/118/213 148/129/213 173/129/213 174/118/213
f 146/119/214 147/118/214 174/118/214 175/119/214
f 148/129/215 149/121/215 172/121/215 173/129/215
f 150/120/216 151/130/216 170/130/216 171/120/216
f 149/121/217 150/120/217 171/120/217 172/121/217
f 153/122/218 154/131/218 167/131/218 168/122/218
f 152/123/219 153/122/219 168/122/219 169/123/219
f 151/130/220 152/123/220 169/123/220 170/130/220
f 155/125/221 156/124/221 165/124/221 166/125/221
f 154/131/222 155/125/222 166/125/222 167/131/222
f 156/124/223 157/126/223 164/126/223 165/124/223
f 157/126/224 158/128/224 163/128/224 164/126/224
f 158/128/225 160/127/225 161/127/225 163/128/225
f 160/127/226 159/116/226 162/116/226 161/127/226
f 226/115/227 216/115/227 215/115/227
f 226/115/228 217/115/228 216/115/228
f 227/115/229 210/115/229 224/115/229
f 227/115/230 224/115/230 223/115/230
f 299/108/231 298/107/231 303/112/231 302/111/231
f 300/109/18 299/108/18 302/111/18 301/110/18
f 304/113/232 303/112/232 298/115/232 306/115/232
f 305/115/233 306/115/233 304/115/233 307/115/233
f 266/115/234 265/115/234 264/115/234
f 263/104/235 267/115/235 265/115/235 264/115/235
f 263/104/236 262/99/236 259/115/236 267/115/236
f 258/102/237 259/115/237 262/99/237 261/100/237
f 260/103/238 258/102/238 261/100/238
f 324/1/239 325/132/239 327/5/239 326/6/239
f 326/6/240 327/5/240 329/9/240 328/10/240
f 328/10/241 329/9/241 331/13/241 330/14/241
f 330/14/242 331/13/242 333/17/242 332/18/242
f 332/18/243 333/17/243 335/21/243 334/22/243
f 334/22/244 335/21/244 337/25/244 336/26/244
f 331/13/245 329/9/245 342/9/245 343/13/245
f 336/26/246 337/25/246 339/29/246 338/30/246
f 338/30/247 339/29/247 325/133/247 324/36/247
f 438/115/248 436/115/248 431/115/248
f 347/29/249 346/25/249 354/25/249 355/29/249
f 337/25/250 335/21/250 345/21/250 346/25/250
f 333/17/251 331/13/251 343/13/251 344/17/251
f 339/29/252 337/25/252 346/25/252 347/29/252
f 329/9/253 327/5/253 340/5/253 342/9/253
f 335/21/254 333/17/254 344/17/254 345/21/254
f 325/133/255 339/29/255 347/29/255 341/133/255
f 327/5/256 325/132/256 341/132/256 340/5/256
f 350/9/257 348/5/257 356/5/257 358/9/257
f 345/21/258 344/17/258 352/17/258 353/21/258
f 343/13/259 342/9/259 350/9/259 351/13/259
f 340/5/260 341/132/260 349/132/260 348/5/260
f 341/133/261 347/29/261 355/29/261 349/133/261
f 346/25/262 345/21/262 353/21/262 354/25/262
f 344/17/263 343/13/263 351/13/263 352/17/263
f 342/9/264 340/5/264 348/5/264 350/9/264
f 357/133/265 363/29/265 371/29/265 365/133/265
f 355/29/266 354/25/266 362/25/266 363/29/266
f 353/21/267 352/17/267 360/17/267 361/21/267
f 351/13/268 350/9/268 358/9/268 359/13/268
f 348/5/269 349/132/269 357/132/269 356/5/269
f 349/133/270 355/29/270 363/29/270 357/133/270
f 354/25/271 353/21/271 361/21/271 362/25/271
f 352/17/272 351/13/272 359/13/272 360/17/272
f 367/13/273 366/9/273 374/9/273 375/13/273
f 362/25/274 361/21/274 369/21/274 370/25/274
f 360/17/275 359/13/275 367/13/275 368/17/275
f 358/9/276 356/5/276 364/5/276 366/9/276
f 363/29/277 362/25/277 370/25/277 371/29/277
f 361/21/278 360/17/278 368/17/278 369/21/278
f 359/13/279 358/9/279 366/9/279 367/13/279
f 356/5/280 357/132/280 365/132/280 364/5/280
f 379/29/281 378/25/281 386/25/281 387/29/281
f 364/5/282 365/132/282 373/132/282 372/5/282
f 365/133/283 371/29/283 379/29/283 373/133/283
f 370/25/284 369/21/284 377/21/284 378/25/284
f 368/17/285 367/13/285 375/13/285 376/17/285
f 366/9/286 364/5/286 372/5/286 374/9/286
f 371/29/287 370/25/287 378/25/287 379/29/287
f 369/21/288 368/17/288 376/17/288 377/21/288
f 381/133/289 387/29/289 395/29/289 389/133/289
f 377/21/290 376/17/290 384/17/290 385/21/290
f 375/13/291 374/9/291 382/9/291 383/13/291
f 372/5/292 373/132/292 381/132/292 380/5/292
f 373/133/293 379/29/293 387/29/293 381/133/293
f 378/25/294 377/21/294 385/21/294 386/25/294
f 376/17/295 375/13/295 383/13/295 384/17/295
f 374/9/296 372/5/296 380/5/296 382/9/296
f 391/13/297 390/9/297 398/9/297 399/13/297
f 386/25/298 385/21/298 393/21/298 394/25/298
f 384/17/299 383/13/299 391/13/299 392/17/299
f 382/9/300 380/5/300 388/5/300 390/9/300
f 387/29/301 386/25/301 394/25/301 395/29/301
f 385/21/302 384/17/302 392/17/302 393/21/302
f 383/13/303 382/9/303 390/9/303 391/13/303
f 380/5/304 381/132/304 389/132/304 388/5/304
f 403/29/305 402/25/305 410/25/305 411/29/305
f 388/5/306 389/132/306 397/132/306 396/5/306
f 389/133/307 395/29/307 403/29/307 397/133/307
f 394/25/308 393/21/308 401/21/308 402/25/308
f 392/17/309 391/13/309 399/13/309 400/17/309
f 390/9/310 388/5/310 396/5/310 398/9/310
f 395/29/311 394/25/311 402/25/311 403/29/311
f 393/21/312 392/17/312 400/17/312 401/21/312
f 404/42/313 405/134/313 411/65/313 410/62/313 409/58/313 408/54/313 407/50/313 406/46/313
f 401/21/314 400/17/314 408/17/314 409/21/314
f 399/13/315 398/9/315 406/9/315 407/13/315
f 396/5/316 397/132/316 405/132/316 404/5/316
f 397/133/317 403/29/317 411/29/317 405/133/317
f 402/25/318 401/21/318 409/21/318 410/25/318
f 400/17/319 399/13/319 407/13/319 408/17/319
f 398/9/320 396/5/320 404/5/320 406/9/320
f 406/46/321 404/42/321 415/42/321 416/46/321
f 404/115/322 414/115/322 422/115/322 415/115/322
f 414/115/323 412/115/323 420/115/323 422/115/323
f 409/58/324 408/54/324 418/54/324 419/58/324
f 407/50/325 406/46/325 416/46/325 417/50/325
f 412/115/326 413/115/326 421/115/326 420/115/326
f 413/115/327 409/115/327 419/115/327 421/115/327
f 408/54/328 407/50/328 417/50/328 418/54/328
f 419/58/329 418/54/329 426/54/329 427/58/329
f 417/50/330 416/46/330 424/46/330 425/50/330
f 420/115/331 421/115/331 429/115/331 428/115/331
f 421/115/332 419/115/332 427/115/332 429/115/332
f 418/54/333 417/50/333 425/50/333 426/54/333
f 416/46/334 415/42/334 423/42/334 424/46/334
f 415/115/335 422/115/335 430/115/335 423/115/335
f 422/115/336 420/115/336 428/115/336 430/115/336
f 428/115/337 429/115/337 437/115/337 436/115/337
f 429/115/338 427/115/338 435/115/338 437/115/338
f 426/54/339 425/50/339 433/50/339 434/54/339
f 424/46/340 423/42/340 431/42/340 432/46/340
f 423/115/341 430/115/341 438/115/341 431/115/341
f 430/115/342 428/115/342 436/115/342 438/115/342
f 427/58/343 426/54/343 434/54/343 435/58/343
f 425/50/344 424/46/344 432/46/344 433/50/344
f 414/115/345 404/115/345 439/115/345 446/115/345
f 412/115/346 414/115/346 446/115/346 444/115/346
f 410/25/347 411/29/347 443/29/347 442/25/347
f 404/42/348 405/134/348 440/134/348 439/42/348
f 413/115/349 412/115/349 444/115/349 445/115/349
f 405/134/350 411/65/350 443/65/350 440/134/350
f 409/115/351 413/115/351 445/115/351 441/115/351
f 410/62/352 409/58/352 441/58/352 442/62/352
f 445/115/353 444/115/353 452/115/353 453/115/353
f 441/115/354 445/115/354 453/115/354 449/115/354
f 442/25/355 443/29/355 451/29/355 450/25/355
f 439/42/356 440/134/356 448/134/356 447/42/356
f 446/115/357 439/115/357 447/115/357 454/115/357
f 444/115/358 446/115/358 454/115/358 452/115/358
f 440/134/359 443/65/359 451/65/359 448/134/359
f 442/62/360 441/58/360 449/58/360 450/62/360
f 450/62/361 449/58/361 457/58/361 458/62/361
f 453/115/362 452/115/362 460/115/362 461/115/362
f 449/115/363 453/115/363 461/115/363 457/115/363
f 450/25/364 451/29/364 459/29/364 458/25/364
f 447/42/365 448/134/365 456/134/365 455/42/365
f 454/115/366 447/115/366 455/115/366 462/115/366
f 452/115/367 454/115/367 462/115/367 460/115/367
f 448/134/368 451/65/368 459/65/368 456/134/368
f 463/1/369 464/2/369 466/5/369 465/6/369
f 465/6/370 466/5/370 468/9/370 467/10/370
f 467/10/371 468/9/371 470/13/371 469/14/371
f 469/14/372 470/13/372 472/17/372 471/18/372
f 471/18/373 472/17/373 474/21/373 473/22/373
f 473/22/374 474/21/374 476/25/374 475/26/374
f 472/17/375 470/13/375 482/13/375 483/17/375
f 475/26/376 476/25/376 478/29/376 477/30/376
f 477/30/377 478/29/377 464/35/377 463/36/377
f 463/135/378 465/136/378 467/137/378 469/138/378 471/139/378 473/140/378 475/141/378 477/142/378
f 484/21/379 483/17/379 491/17/379 492/21/379
f 478/29/380 476/25/380 485/25/380 486/29/380
f 468/9/381 466/5/381 479/5/381 481/9/381
f 474/21/382 472/17/382 483/17/382 484/21/382
f 464/35/383 478/29/383 486/29/383 480/35/383
f 466/5/384 464/2/384 480/2/384 479/5/384
f 470/13/385 468/9/385 481/9/385 482/13/385
f 476/25/386 474/21/386 484/21/386 485/25/386
f 494/29/387 493/25/387 501/25/387 502/29/387
f 482/13/388 481/9/388 489/9/388 490/13/388
f 479/5/389 480/2/389 488/2/389 487/5/389
f 480/35/390 486/29/390 494/29/390 488/35/390
f 485/25/391 484/21/391 492/21/391 493/25/391
f 483/17/392 482/13/392 490/13/392 491/17/392
f 481/9/393 479/5/393 487/5/393 489/9/393
f 486/29/394 485/25/394 493/25/394 494/29/394
f 502/29/395 501/25/395 509/25/395 510/29/395
f 492/21/396 491/17/396 499/17/396 500/21/396
f 490/13/397 489/9/397 497/9/397 498/13/397
f 487/5/398 488/2/398 496/2/398 495/5/398
f 488/35/399 494/29/399 502/29/399 496/35/399
f 493/25/400 492/21/400 500/21/400 501/25/400
f 491/17/401 490/13/401 498/13/401 499/17/401
f 489/9/402 487/5/402 495/5/402 497/9/402
f 503/42/403 504/40/403 510/65/403 509/62/403 508/58/403 507/54/403 506/50/403 505/46/403
f 500/21/404 499/17/404 507/17/404 508/21/404
f 498/13/405 497/9/405 505/9/405 506/13/405
f 495/5/406 496/2/406 504/2/406 503/5/406
f 496/35/407 502/29/407 510/29/407 504/35/407
f 501/25/408 500/21/408 508/21/408 509/25/408
f 499/17/409 498/13/409 506/13/409 507/17/409
f 497/9/410 495/5/410 503/5/410 505/9/410
f 506/115/411 512/115/411 518/115/411 516/115/411
f 505/46/412 503/42/412 514/42/412 515/46/412
f 503/115/413 513/115/413 519/115/413 514/115/413
f 513/115/414 511/115/414 517/115/414 519/115/414
f 506/50/415 505/46/415 515/46/415 516/50/415
f 511/115/416 512/115/416 518/115/416 517/115/416
f 516/50/417 515/46/417 521/46/417 522/50/417
f 514/115/418 519/115/418 525/115/418 520/115/418
f 519/115/419 517/115/419 523/115/419 525/115/419
f 515/46/420 514/42/420 520/42/420 521/46/420
f 516/115/421 518/115/421 524/115/421 522/115/421
f 517/115/422 518/115/422 524/115/422 523/115/422
f 521/46/423 520/42/423 526/42/423 527/46/423
f 522/115/424 524/115/424 530/115/424 528/115/424
f 523/115/425 524/115/425 530/115/425 529/115/425
f 522/50/426 521/46/426 527/46/426 528/50/426
f 520/115/427 525/115/427 531/115/427 526/115/427
f 525/115/428 523/115/428 529/115/428 531/115/428
f 509/62/429 508/58/429 532/58/429 533/62/429
f 509/25/430 510/29/430 534/29/430 533/25/430
f 511/115/431 513/115/431 537/115/431 535/115/431
f 508/115/432 512/115/432 536/115/432 532/115/432
f 510/115/433 513/115/433 537/115/433 534/115/433
f 512/115/434 511/115/434 535/115/434 536/115/434
f 534/115/435 537/115/435 543/115/435 540/115/435
f 535/115/436 537/115/436 543/115/436 541/115/436
f 533/62/437 532/58/437 538/58/437 539/62/437
f 532/115/438 536/115/438 542/115/438 538/115/438
f 536/115/439 535/115/439 541/115/439 542/115/439
f 533/25/440 534/29/440 540/29/440 539/25/440
f 538/115/441 542/115/441 548/115/441 544/115/441
f 542/115/442 541/115/442 547/115/442 548/115/442
f 539/25/443 540/29/443 546/29/443 545/25/443
f 540/115/444 543/115/444 549/115/444 546/115/444
f 541/115/445 543/115/445 549/115/445 547/115/445
f 539/62/446 538/58/446 544/58/446 545/62/446
f 546/115/447 549/115/447 555/115/447 552/115/447
f 547/115/448 549/115/448 555/115/448 553/115/448
f 545/62/449 544/58/449 550/58/449 551/62/449
f 544/115/450 548/115/450 554/115/450 550/115/450
f 548/115/451 547/115/451 553/115/451 554/115/451
f 545/25/452 546/29/452 552/29/452 551/25/452
f 554/115/453 553/115/453 559/115/453 560/115/453
f 551/25/454 552/29/454 558/29/454 557/25/454
f 552/115/455 555/115/455 561/115/455 558/115/455
f 553/115/456 555/115/456 561/115/456 559/115/456
f 551/62/457 550/58/457 556/58/457 557/62/457
f 550/115/458 554/115/458 560/115/458 556/115/458
f 559/115/459 561/115/459 567/115/459 565/115/459
f 557/62/460 556/58/460 562/58/460 563/62/460
f 556/115/461 560/115/461 566/115/461 562/115/461
f 560/115/462 559/115/462 565/115/462 566/115/462
f 557/25/463 558/29/463 564/29/463 563/25/463
f 558/115/464 561/115/464 567/115/464 564/115/464
f 562/115/465 566/115/465 572/115/465 568/115/465
f 566/115/466 565/115/466 571/115/466 572/115/466
f 563/25/467 564/29/467 570/29/467 569/25/467
f 564/115/468 567/115/468 573/115/468 570/115/468
f 565/115/469 567/115/469 573/115/469 571/115/469
f 563/62/470 562/58/470 568/58/470 569/62/470
f 432/46/471 431/115/471 436/115/471 437/115/471
f 433/50/472 432/46/472 437/115/472 435/115/472
f 434/54/473 433/50/473 435/58/473
f 457/115/474 461/115/474 459/29/474 458/25/474
f 459/29/475 461/115/475 460/115/475 456/134/475
f 456/134/476 460/115/476 462/115/476 455/115/476
f 513/115/477 504/115/477 510/115/477
f 513/115/478 503/115/478 504/115/478
f 512/115/479 508/115/479 507/115/479
f 512/115/480 507/115/480 506/115/480
f 569/25/481 570/115/481 573/115/481 571/115/481
f 568/115/482 572/115/482 571/115/482 569/25/482
f 528/115/483 527/46/483 529/115/483 530/115/483
f 527/46/484 526/115/484 531/115/484 529/115/484
